<svg xmlns="http://www.w3.org/2000/svg" viewBox="0 0 256 256"><defs><style>.cls-1{fill:#308589;}</style></defs><title>seamless_pattern13</title><g id="theme_and_artist_name"><path class="cls-1" d="M256,6.14a10.82,10.82,0,0,1-4.33,1V0h-.3V7.18h.23l-.24,0a10.89,10.89,0,0,1-5.21-1.32L249.47,0h-.35l-3.23,5.73A11.53,11.53,0,0,1,243.6,4a11,11,0,0,1-2.52-4h-.62l4.28,7.41-10.55,8.5-.1,0-6.91-10L234.28,0h-.46l-6.73,5.63L226.41,0h-.3l.71,5.81-5.91,1.94,0-.11-.16-.14L218.92,0h-.3l1.69,7.15L212.24,0h-.45l8.64,7.66,0,.09-11.62,8.38-3-5.17,5.43-11H211l-5.23,10.55L201,0h-.33l4.91,10.86H193.05l0,0L197.9,0h-.32l-4.72,10.5L187.57,0h-.33l5.47,10.88-3,5.25L178,7.72,186.73,0h-.45L178,7.3,179.77,0h-.3l-1.71,7.18L175.45,0h-.31l2.41,7.5-5.83-1.83L172.41,0h-.3l-.69,5.63L164.7,0h-.46l7.1,5.94-6.93,10L153.77,7.41,158.05,0h-.66a12.67,12.67,0,0,1-.72,1.59L154,0h-.58l3,1.85A10.72,10.72,0,0,1,154.86,4a10.82,10.82,0,0,1-2,1.54L149.71,0h-.35l3.28,5.69a10.89,10.89,0,0,1-5.22,1.49V0h-.3V7.18h.23l-.24,0a10.89,10.89,0,0,1-5.21-1.32L145.22,0h-.35l-3.23,5.73A11.53,11.53,0,0,1,139.35,4a11.15,11.15,0,0,1-2.52-4h-.62l4.28,7.41-10.55,8.5-.1,0-6.91-10L130,0h-.46l-6.73,5.63L122.16,0h-.3l.71,5.81-5.92,1.94,0-.11-.16-.14L114.67,0h-.31l1.7,7.15L108,0h-.45l8.64,7.66,0,.09-11.62,8.38-3-5.17L107,0h-.33l-5.23,10.55L96.7,0h-.33l4.91,10.86H88.79v0L93.65,0h-.32L88.61,10.5,83.32,0H83l5.47,10.88-3,5.25L73.77,7.72,82.48,0H82L73.78,7.3,75.52,0h-.3L73.51,7.18,71.2,0h-.31L73.3,7.5,67.47,5.67,68.16,0h-.3l-.69,5.63L60.45,0H60l7.1,5.94L60.16,16,49.52,7.41,53.8,0h-.67a10.83,10.83,0,0,1-.71,1.59L49.79,0h-.58l3,1.85A10.72,10.72,0,0,1,50.61,4a10.82,10.82,0,0,1-2,1.54L45.46,0h-.35l3.28,5.69a10.89,10.89,0,0,1-5.22,1.49V0h-.31V7.18h.24l-.24,0a10.89,10.89,0,0,1-5.21-1.32L41,0h-.35L37.39,5.73A11.53,11.53,0,0,1,35.1,4a11,11,0,0,1-2.51-4H32l4.28,7.41-10.55,8.5-.1,0-6.91-10L25.78,0h-.46L18.59,5.63,17.91,0h-.3l.71,5.81L12.4,7.75l0-.11L12.2,7.5,10.42,0h-.31l1.7,7.15L3.74,0H3.29l8.64,7.66,0,.09L.33,16.13,0,15.56v.73s0,0,0,0l0,0v.35l.18-.11A10.91,10.91,0,0,1,1.69,22H0v.3H1.69a11,11,0,0,1-1.4,5.16L0,27.31v.35l.14.08c0,.07-.1.13-.14.2v.86l3.69-6.39L15,31.84,8,41.88,0,35.4v.39l7.79,6.28L0,46.16v.33l7.88-4.13,3.93,16.58L3,51.1,2.35,51,0,49.6V50l1.3.74L0,50.37v.31l2.24.55.38.21L0,56.72v.67l2.88-5.8.07,0,.06-.1,8.92,7.91,0,.09L.33,67.91,0,67.35v.73s0,0,0,0l0,0v.35l.18-.11a10.91,10.91,0,0,1,1.51,5.44H0v.3H1.69a11,11,0,0,1-1.4,5.16L0,79.1v.35l.14.08c0,.07-.1.13-.14.2v.86l3.69-6.4L15,83.63,8,93.67,0,87.19v.39l7.8,6.28L0,98v.33l7.88-4.13,3.93,16.58L3,102.89l-.61-.15L0,101.39v.35l1.3.74L0,102.16v.31l2.24.55.38.21L0,108.51v.67l2.88-5.8.07.05.06-.1,8.92,7.91,0,.09L.33,119.7,0,119.14v.73s0,0,0,0l0,0v.35l.18-.11a10.91,10.91,0,0,1,1.51,5.44H0v.3H1.69a11,11,0,0,1-1.4,5.16L0,130.89v.35l.14.08c0,.07-.1.13-.14.2v.86L3.69,126,15,135.42,8,145.46,0,139v.39l7.8,6.28L0,149.74v.33l7.88-4.13,3.93,16.58L3,154.68l-.61-.15L0,153.18v.35l1.3.74L0,154v.31l2.24.55.38.21L0,160.3V161l2.88-5.8.07.05.06-.1L11.93,163l0,.09L.33,171.49,0,170.93v.73l0,0,0,0v.35L.18,172a10.91,10.91,0,0,1,1.51,5.44H0v.3H1.69a11,11,0,0,1-1.4,5.16L0,182.68V183l.14.08a2.43,2.43,0,0,0-.14.2v.86l3.69-6.4L15,187.21,8,197.25l-8-6.48v.39l7.8,6.28L0,201.53v.33l7.88-4.13,3.93,16.58L3,206.47l-.61-.15L0,205v.35l1.3.74L0,205.74v.31l2.24.55.38.21L0,212.09v.67L2.88,207,3,207l.06-.09,8.92,7.91,0,.09L.33,223.28,0,222.72v.73l0,0,0,0v.35l.18-.11a10.91,10.91,0,0,1,1.51,5.44H0v.3H1.69a11,11,0,0,1-1.4,5.16L0,234.47v.35l.14.08c0,.07-.1.13-.14.2V236l3.69-6.4L15,239,8,249l-8-6.47V243l7.79,6.28L0,253.32v.33l7.88-4.13,1.52,6.4h.3l-1.49-6.3,8.63,2.95.4,3.37h.3l-.39-3.29,12.51,2.66-.78.65h.46l.61-.5.29.51h.35l-.34-.59H31.6c0,.19,0,.39,0,.59h.3l0-.6,10.31,0-1.08.66h.58l.89-.54-.31.54h.35l.22-.4v.4h.31v-.41l.23.41h.35l-.31-.54.9.55h.58l-1.09-.66,10,0q0,.31,0,.63h.3c0-.21,0-.41,0-.62h1.41l-.36.62h.34l.32-.54.64.54h.47l-.82-.69,12.51-2.66L68.21,256h.3l.39-3.22,1,3.22h.31l-1.06-3.32L76,255.61l-.09.39h.31l.06-.27.63.27h.75l-1.31-.56,1.42-6,11,5.75h12.44l-.06.1,1.21.69h.6l-1.5-.86,10.71-5.62,1.53,6.48H114l-1.51-6.38,8.63,2.95.41,3.43h.3l-.4-3.35,12.51,2.66-.82.69h.46l.65-.54.31.54h.35l-.36-.62h1.35l0,.62h.3l0-.63,10.31,0-1.1.67h.58l.91-.55-.31.55h.34l.24-.41V256h.3v-.42l.24.42H148l-.32-.55.91.55h.58l-1.1-.66,10,0c0,.21,0,.42,0,.63h.3c0-.21,0-.41,0-.62h1.41l-.36.62h.34l.32-.54.64.54h.47l-.82-.69,12.51-2.66-.41,3.35h.3l.4-3.22,1,3.22h.31l-1.06-3.32,6.82,2.93-.09.39h.31l.06-.27.63.27h.76l-1.32-.56,1.42-6L193,255.21h12.44l-.06.1,1.21.69h.6l-1.5-.86,10.71-5.62,1.54,6.48h.3l-1.51-6.38,8.63,2.95.41,3.43h.3l-.4-3.35,12.51,2.66-.82.69h.46l.65-.54.31.54h.35l-.36-.62h1.35c0,.21,0,.41,0,.62h.3c0-.21,0-.42,0-.63l10.31,0-1.1.67h.58l.91-.55-.31.55h.34l.24-.41V256h.3v-.42l.24.42h.35l-.32-.55.91.55h.58l-1.1-.66H256v-.3l-4.11,0,4.11-2.48v-.36l-4.22,2.56,4.22-7.32v-.6l-4.49,7.79v-10.4a11,11,0,0,1,4.49,1.05V245a11.36,11.36,0,0,0-2.1-.74H256v-.29H245.17v0L251.38,230,256,240.26v-.73l-4.44-9.82L256,230.8v-.31l-4.59-1.13,0-.05,0,.05h0l-12.08,3-6.53-2.8,1.42-6,10.94,5.74H256V229H245.28l-.19-14.25H256v-.3h-2.57a11.15,11.15,0,0,0,2.57-.81v-.35a10.82,10.82,0,0,1-4.33,1V203.79L256,211.3v-.6l-4.06-7,4.06,2.46v-.35l-3.67-2.22H256v-.3l-4.11,0,4.11-2.48v-.36L251.78,203l4.22-7.32V195l-4.49,7.79v-10.4a11,11,0,0,1,4.49,1v-.32a10.64,10.64,0,0,0-2.1-.73H256v-.3H245.17v0l6.22-13.85L256,188.47v-.73l-4.44-9.82L256,179v-.31l-4.59-1.13,0,0,0,0h0l-12.08,3-6.53-2.8,1.42-6,10.94,5.74H256v-.3H245.28L245.09,163H256v-.3h-2.57a11.15,11.15,0,0,0,2.57-.81v-.35a10.82,10.82,0,0,1-4.33,1V152l4.33,7.51v-.6l-4.06-7,4.06,2.46V154l-3.67-2.22H256v-.3l-4.11,0L256,149v-.36l-4.22,2.56,4.22-7.32v-.6L251.51,151v-10.4a11,11,0,0,1,4.49,1.05v-.32a10.64,10.64,0,0,0-2.1-.73H256v-.3H245.17v0l6.22-13.85L256,136.68V136l-4.44-9.82,4.44,1.09v-.31l-4.59-1.13,0,0,0,0h0l-12.08,3-6.53-2.8,1.42-6,10.94,5.74H256v-.3H245.28l-.19-14.25H256v-.3h-2.57a11.15,11.15,0,0,0,2.57-.81v-.35a10.82,10.82,0,0,1-4.33,1V100.21l4.33,7.51v-.6l-4.06-7,4.06,2.46v-.35L252.33,100H256v-.3l-4.11,0L256,97.18v-.36l-4.22,2.56L256,92.06v-.6l-4.49,7.79V88.85A11,11,0,0,1,256,89.9v-.32a11.33,11.33,0,0,0-2.1-.73H256v-.3H245.17v0l6.22-13.85L256,84.89v-.73l-4.44-9.82L256,75.43v-.31L251.41,74l0,0,0,0h0l-12.08,3-6.53-2.8,1.42-6,10.94,5.74H256v-.29H245.28l-.19-14.26H256v-.3h-2.57a11.15,11.15,0,0,0,2.57-.81v-.35a10.82,10.82,0,0,1-4.33,1V48.42L256,55.93v-.6l-4.06-7L256,50.75V50.4l-3.67-2.22H256v-.3l-4.11,0L256,45.39V45l-4.22,2.56L256,40.28v-.61l-4.49,7.79V37.07a10.88,10.88,0,0,1,4.49,1v-.32a11.33,11.33,0,0,0-2.1-.73H256v-.3H245.17v0l6.22-13.85L256,33.1v-.73l-4.44-9.82L256,23.64v-.3l-4.59-1.14,0-.05,0,.05h0l-12.08,3-6.53-2.8,1.42-6,10.94,5.74H256v-.3H245.28L245.09,7.6H256V7.3h-2.57A11.15,11.15,0,0,0,256,6.49Zm-29.08,0,6.88,10-8.47,3.14-.09,0L221,8ZM240.1,48.22a11.24,11.24,0,0,0,.55,3.3l-1.9-3.3Zm-1.35-.3,1.83-3.16a11,11,0,0,0-.48,3.16Zm1.65.3,10.31,0-8.77,5.33.16.26,9-5.48-5.21,9.23a11.53,11.53,0,0,1-2.29-1.74A10.94,10.94,0,0,1,240.4,48.22Zm10.43-.35-10.43,0a11,11,0,0,1,1.52-5.46Zm-8.75-5.67a11.44,11.44,0,0,1,1.52-1.93,10.64,10.64,0,0,1,2.24-1.71l5.1,9Zm-3.66,5.7-12.75-2.7,4.22-11.12,0,.1.08-.3,11.66,8.4ZM240.1,100a11.3,11.3,0,0,0,.55,3.3l-1.9-3.3Zm-1.35-.3,1.83-3.16a11,11,0,0,0-.48,3.16Zm1.65.29,10.31,0-8.77,5.35.16.25h0l9-5.48-5.21,9.23a11.53,11.53,0,0,1-2.29-1.74A11,11,0,0,1,240.4,100Zm10.43-.34-10.43,0a11,11,0,0,1,1.52-5.46ZM242.08,94a11.44,11.44,0,0,1,1.52-1.93,10.64,10.64,0,0,1,2.24-1.71l5.1,9Zm-3.66,5.7L225.67,97l4.22-11.12,0,.1.08-.3,11.66,8.4Zm1.68,52.11a11.17,11.17,0,0,0,.55,3.29l-1.9-3.29Zm-1.35-.3,1.83-3.16a11,11,0,0,0-.48,3.16Zm1.65.29,10.31,0-8.77,5.34.16.26,9-5.48-5.21,9.23a11.21,11.21,0,0,1-2.29-1.75A10.9,10.9,0,0,1,240.4,151.79Zm10.42-.34-10.42,0a11,11,0,0,1,1.52-5.46Zm-8.74-5.67a11.44,11.44,0,0,1,1.52-1.93,10.64,10.64,0,0,1,2.24-1.71l5.1,9Zm-3.66,5.7-12.75-2.71,4.22-11.11,0,.1.08-.3,11.66,8.4Zm1.68,52.11a11.3,11.3,0,0,0,.55,3.3l-1.9-3.3Zm-1.35-.3,1.83-3.16a11,11,0,0,0-.48,3.15Zm1.65.29,10.31,0-8.77,5.34.16.26h0l9-5.48-5.21,9.23a11.21,11.21,0,0,1-2.29-1.75A10.9,10.9,0,0,1,240.4,203.58Zm10.43-.34-10.43,0a11,11,0,0,1,1.52-5.46Zm-8.75-5.68a11.78,11.78,0,0,1,1.52-1.92,10.64,10.64,0,0,1,2.24-1.71l5.1,9Zm-3.66,5.71-12.75-2.71,4.22-11.11,0,.1.08-.3,11.66,8.4ZM207,237a11.4,11.4,0,0,1-2,1.55l-5.21-9,8.83,5.35A11.51,11.51,0,0,1,207,237Zm.79-.42L205.83,240l-.66-1.14A11.38,11.38,0,0,0,207.78,236.62Zm-54.23,7.69,1.94,3.36a11.19,11.19,0,0,0-2.63-2.16Zm-1,1a11.43,11.43,0,0,0-2.95-1.14h3.61Zm-11.16.1a11.18,11.18,0,0,0-2.57,2.07l1.89-3.28Zm-.35-1.24h3.47a11.35,11.35,0,0,0-2.86,1.09ZM102.74,237a11.4,11.4,0,0,1-2,1.55l-5.21-9,8.83,5.35A11.51,11.51,0,0,1,102.74,237Zm.79-.42-2,3.37-.66-1.14A11.38,11.38,0,0,0,103.53,236.62ZM49.3,244.31l1.94,3.36a11.4,11.4,0,0,0-2.63-2.16Zm-.95,1a11.43,11.43,0,0,0-3-1.14H49Zm-11.16.1a11.18,11.18,0,0,0-2.57,2.07l1.89-3.28Zm-.35-1.24h3.47a11.35,11.35,0,0,0-2.86,1.09ZM17.06,19.63l6.83,2.93L21.38,33.07ZM21.17,33.4l-5.83-1.83,1.44-11.84ZM83.73,22.32a11.24,11.24,0,0,0,.55,3.3l-1.91-3.29ZM82.37,22l1.83-3.17A11.34,11.34,0,0,0,83.72,22Zm3.35,5.85,9-5.49-5.22,9.23A10.89,10.89,0,0,1,84,22.32l10.3,0-8.77,5.34.16.26Zm21.92-5.55-2,3.54a11.32,11.32,0,0,0,.64-3.55Zm-1.94-3.67L107.64,22h-1.4A11.31,11.31,0,0,0,105.7,18.66ZM188,22.32a11.24,11.24,0,0,0,.55,3.3l-1.91-3.29ZM186.63,22l1.82-3.17A11.34,11.34,0,0,0,188,22ZM190,27.88l9-5.49-5.22,9.23a10.89,10.89,0,0,1-5.48-9.3l10.3,0-8.77,5.34.16.26Zm21.92-5.55-2,3.54a11.32,11.32,0,0,0,.64-3.55ZM210,18.66,211.89,22h-1.4A11.31,11.31,0,0,0,210,18.66Zm.24,210.52-10.42,0,8.91-5.4A10.91,10.91,0,0,1,210.19,229.18Zm-.24-3.36,1.94,3.37h-1.4A11.31,11.31,0,0,0,210,225.82Zm-20.15-2.1,8.9,5.42-10.43,0A10.87,10.87,0,0,1,189.8,223.72ZM188,229.18h-1.34l1.82-3.17A11.34,11.34,0,0,0,188,229.18Zm-59.76.24-6.74-2.89,8.15-3Zm.2.42,6.32,2.7-8.82,7.82Zm-22.47-.66-10.42,0,8.91-5.4A10.91,10.91,0,0,1,105.94,229.18Zm-.24-3.36,1.94,3.37h-1.4A11.31,11.31,0,0,0,105.7,225.82Zm-20.15-2.1,8.9,5.42-10.43,0A10.87,10.87,0,0,1,85.55,223.72Zm-1.83,5.46H82.37L84.2,226A11.34,11.34,0,0,0,83.72,229.18ZM24,229.42l-6.74-2.89,8.15-3Zm.2.42,6.32,2.7-8.82,7.82ZM43.11,59l-.25,0a10.89,10.89,0,0,1-5.21-1.32l5.21-9.24V59Zm45.5-11.32L78,42.07l10.45-8.42Zm-2-18a11.12,11.12,0,0,0,2.79,2.27l-.66,1.17h0l-.11.08Zm2.15,18.44h12.44l-.06.1,4.44,2.54L95,48.1l0-.05,0,.05h0l-12.08,3-6.53-2.8,1.42-6ZM147.36,59l-.25,0a10.89,10.89,0,0,1-5.21-1.32l5.22-9.24V59Zm45.5-11.32-10.64-5.58,10.45-8.42Zm-2-18a11.12,11.12,0,0,0,2.79,2.27L193,33.05h0l-.11.08ZM193,48.05h12.44l-.06.1,4.44,2.54L199.28,48.1l0-.05,0,.05h0l-12.08,3-6.53-2.8,1.42-6Zm6.46,155.76,11.3,2.79.38.21-5.4,10.9Zm8.18,18a11.44,11.44,0,0,0-2.63-2.17l.69-1.19Zm-14.05-2.22a11.46,11.46,0,0,0-2.58,2.06l1.89-3.27Zm-.36-1.24h3.48a11.19,11.19,0,0,0-2.86,1.08Zm-.35-.66-5.51-10.95,11.73-2.9Zm-5.72-11.21-6.53-2.8,1.42-6L193,203.42h12.44l-.06.1,4.44,2.54-10.52-2.59,0-.05,0,.05h0Zm-91.95-2.64,11.3,2.79.38.21-5.4,10.9Zm8.18,18a11.44,11.44,0,0,0-2.63-2.17l.68-1.19Zm-14.05-2.22a11.46,11.46,0,0,0-2.58,2.06l1.89-3.27ZM89,218.32h3.48a11.26,11.26,0,0,0-2.87,1.08Zm-.35-.66L83.1,206.71l11.73-2.9Zm-5.72-11.21-6.53-2.8,1.42-6,10.94,5.75h12.45l-.06.1,4.44,2.54L95,203.47l0-.05,0,.05h0ZM33.6,209.14l9-5.48-5.21,9.23a11.21,11.21,0,0,1-2.29-1.75,10.9,10.9,0,0,1-3.2-7.56l10.31,0-8.77,5.34.16.26Zm0-51.79,9-5.48-5.21,9.23a11.21,11.21,0,0,1-2.29-1.75,10.9,10.9,0,0,1-3.2-7.56l10.31,0-8.77,5.34Zm0-51.79,9-5.48-5.21,9.23a11.53,11.53,0,0,1-2.29-1.74A11,11,0,0,1,31.9,100l10.31,0-8.77,5.35.16.25Zm0-51.79,9-5.48-5.21,9.23a11.53,11.53,0,0,1-2.29-1.74,10.94,10.94,0,0,1-3.2-7.56l10.31,0-8.77,5.33Zm21.92-5.55-2.05,3.54a10.94,10.94,0,0,0,.64-3.54Zm-2-3.66,2,3.36h-1.4A11,11,0,0,0,53.57,44.56Zm82.28,3.66a11.24,11.24,0,0,0,.55,3.3l-1.9-3.3Zm-1.35-.3,1.83-3.16a11,11,0,0,0-.48,3.16Zm3.35,5.85,9-5.48-5.21,9.23a11.53,11.53,0,0,1-2.29-1.74,10.94,10.94,0,0,1-3.2-7.56l10.31,0-8.77,5.33Zm21.92-5.55-2.05,3.54a10.94,10.94,0,0,0,.64-3.54Zm-2-3.66,2,3.36h-1.4A11,11,0,0,0,157.82,44.56Zm50.82,35A10.56,10.56,0,0,1,205,83.22l-5.21-9Zm-8.43-5.46,10,0a10.76,10.76,0,0,1-1.4,5.16Zm8.43,57.25A10.56,10.56,0,0,1,205,135l-5.21-9Zm-8.44-5.46,10,0a10.87,10.87,0,0,1-1.4,5.16Zm8.44,57.25a11.51,11.51,0,0,1-1.65,2.14,10.89,10.89,0,0,1-2,1.54l-5.21-9Zm-8.44-5.46,10,0a10.87,10.87,0,0,1-1.4,5.16Zm5.63,10.55-.66-1.14a11.38,11.38,0,0,0,2.61-2.23Zm0,.82,10.45,8.42L205.66,203Zm-68.18,8.8,8.9,5.42-10.42,0A11,11,0,0,1,137.67,197.82Zm-1.82,5.46H134.5l1.83-3.16A11,11,0,0,0,135.85,203.28ZM42.71,192.43v10.39l-5.11-9A11,11,0,0,1,42.71,192.43Zm-5.26,1.08-.61-1.09h3.47A11.35,11.35,0,0,0,37.45,193.51Zm-.78-1.38v0l6.22-13.85,6.27,13.88H36.67ZM48.8,57.58a11.55,11.55,0,0,0,2.6-2.23l-1.95,3.37ZM49.26,59l-.08-.06v.16H44.93a11.22,11.22,0,0,0,3.61-1.35Zm.21.56L59.92,68,49.28,73.55ZM60,68.26l3.94,16.58L55.08,77l-.6-.14-5.19-3ZM95.23,84.87H95a10.91,10.91,0,0,1-5.21-1.31L95,74.33V84.87Zm45.5-11.32L130.1,68l10.44-8.41Zm-2-18a11.29,11.29,0,0,0,2.78,2.27L140.83,59v0l-.1.08Zm2.14,18.43h12.44l-.06.11,4.44,2.53L147.16,74l0,0,0,0h0L135,77l-6.53-2.8,1.42-6Zm58.63,10.93h-.25A10.91,10.91,0,0,1,194,83.57l5.22-9.24V84.87Zm5.1-20.52-5.2,9V63A11,11,0,0,1,204.58,64.35Zm-2.8-1.4h3.6l-.65,1.14A11.08,11.08,0,0,0,201.78,63Zm3.77,22.33-.19,14.26h-12.2L193,85.28Zm-4.24-.3a11,11,0,0,0,3.61-1.35l.72,1.26-.08-.07V85Zm4.24,52.09-.19,14.26h-12.2l-.2-14.26Zm-4.25-.3a11,11,0,0,0,3.62-1.35l.72,1.26-.08-.07v.16Zm-59.86,56.89a11.18,11.18,0,0,0-2.57,2.07l1.89-3.28Zm-.35-1.24h3.47a11.35,11.35,0,0,0-2.86,1.09Zm-.36-.65-5.51-11L147,177.92ZM135,180.55l-6.53-2.8,1.42-6,10.94,5.74h12.44l-.06.11,4.44,2.54-10.51-2.6,0,0,0,0h0ZM83.73,74.11a11.57,11.57,0,0,0,.54,3.3l-1.9-3.29Zm-1.36-.29,1.83-3.17a11.34,11.34,0,0,0-.48,3.16Zm3.35,5.85,9-5.49-5.22,9.23A10.89,10.89,0,0,1,84,74.11l10.3,0-8.77,5.34.16.26Zm21.92-5.55-2,3.54a11.32,11.32,0,0,0,.64-3.55Zm-1.94-3.67,1.94,3.37h-1.4A11.31,11.31,0,0,0,105.7,70.45Zm88.06,64.75a10.89,10.89,0,0,1-5.48-9.3l10.3,0-8.77,5.34.16.26h0l9-5.49Zm.11.42a11,11,0,0,0,3.29,1.15h-3.94ZM188,125.9a11.24,11.24,0,0,0,.55,3.3l-1.91-3.29Zm-1.35-.29,1.82-3.17a11.34,11.34,0,0,0-.48,3.16Zm7.19-9.79-.61-1.08h3.48A11.26,11.26,0,0,0,193.82,115.82Zm5.26-1.07v10.38l-5.11-9A10.77,10.77,0,0,1,199.08,114.75ZM193.57,116A11.46,11.46,0,0,0,191,118l1.89-3.27Zm-2.09,2a11.07,11.07,0,0,1,2.24-1.71l5.1,9-8.86-5.4A10.51,10.51,0,0,1,191.48,118Zm7.22,7.61-10.43,0a10.87,10.87,0,0,1,1.53-5.46Zm-12.41,0-12.74-2.71,4.22-11.12,0,.11.07-.31,11.67,8.4Zm-80.35,51.8-10.42,0,8.91-5.4A10.91,10.91,0,0,1,105.94,177.39ZM105.7,174l1.94,3.37h-1.4A11.31,11.31,0,0,0,105.7,174Zm-20.15-2.1,8.9,5.42-10.43,0A10.87,10.87,0,0,1,85.55,171.93Zm-1.83,5.46H82.37l1.83-3.17A11.34,11.34,0,0,0,83.72,177.39ZM52.3,146.06a10.88,10.88,0,0,1,1.52,5.43l-10.43,0Zm-9,5.11,5.18-9a11.21,11.21,0,0,1,2.15,1.66,10.42,10.42,0,0,1,1.54,2Zm10.29-3,2,3.36h-1.4A10.94,10.94,0,0,0,53.57,148.14Zm.24,3.65A10.87,10.87,0,0,1,52.42,157l-8.59-5.2Zm.3,0h1.41l-2.05,3.54A10.94,10.94,0,0,0,54.11,151.8Zm-1.51-5.94,11.55-8.32,0,.11.15-.05h0l4.24,11.18-12.74,2.7Zm-.3-51.59a10.88,10.88,0,0,1,1.52,5.43l-10.43,0Zm-9,5.11,5.18-9a11.21,11.21,0,0,1,2.15,1.66,10.42,10.42,0,0,1,1.54,2Zm10.29-3,2,3.36h-1.4A10.94,10.94,0,0,0,53.57,96.35Zm.24,3.65a10.87,10.87,0,0,1-1.39,5.17L43.83,100Zm.3,0h1.41l-2.05,3.54A10.94,10.94,0,0,0,54.11,100ZM52.6,94.07l11.55-8.32,0,.11.15,0h0L68.59,97l-12.74,2.7Zm36,5.37L78,93.86l10.45-8.42Zm-2-18a11.3,11.3,0,0,0,2.79,2.26l-.66,1.17v0l-.11.09Zm2.14,18.43h12.45l-.06.1,4.44,2.54L95,99.89l0,0,0,0h0l-12.08,3-6.53-2.8,1.42-6Zm58.64,10.92-.25,0a10.89,10.89,0,0,1-5.21-1.32l5.22-9.24v10.54ZM95.19,152l11.3,2.79.38.21-5.4,10.9Zm8.18,18a11.44,11.44,0,0,0-2.63-2.17l.69-1.19Zm-14.05-2.22a11.46,11.46,0,0,0-2.58,2.06l1.89-3.27ZM89,166.53h3.48a11.26,11.26,0,0,0-2.87,1.08Zm-.35-.66-5.51-11L94.83,152Zm-5.72-11.21-6.53-2.8,1.42-6,11,5.75h12.44l-.06.1,4.44,2.54L95,151.68l0-.05,0,.05h0Zm-.06-51.39,5.63,11.19-3,5.24-11.67-8.4Zm-9,7.61,2.51-10.52,6.31,2.71ZM135.85,100a11.3,11.3,0,0,0,.55,3.3l-1.9-3.3Zm-1.35-.3,1.83-3.16a11,11,0,0,0-.48,3.16Zm3.35,5.85,9-5.48-5.21,9.23a11.53,11.53,0,0,1-2.29-1.74,11,11,0,0,1-3.2-7.57l10.31,0-8.77,5.35.16.25ZM159.77,100l-2.05,3.54a10.94,10.94,0,0,0,.64-3.54Zm-2-3.66,2,3.36h-1.4A10.94,10.94,0,0,0,157.82,96.35Zm.25,55.14-10.43,0,8.91-5.39A10.78,10.78,0,0,1,158.07,151.49Zm-.25-3.35,2,3.36h-1.4A10.94,10.94,0,0,0,157.82,148.14ZM137.67,146l8.9,5.42-10.42,0A10.92,10.92,0,0,1,137.67,146Zm-1.82,5.47H134.5l1.83-3.16A11,11,0,0,0,135.85,151.5ZM88.6,136.7l-2-3.51a11.12,11.12,0,0,0,2.79,2.27l-.66,1.17v0Zm0,14.53L78,145.65l10.45-8.42Zm-2.89-19.77,9-5.49-5.22,9.23A10.89,10.89,0,0,1,84,125.9l10.3,0-8.77,5.34.16.26Zm9.5,5.2H95a11,11,0,0,1-5.21-1.31L95,126.12v10.54Zm45.51-11.33-10.63-5.58,10.44-8.41Zm-2-18a11.29,11.29,0,0,0,2.78,2.27l-.66,1.17v0l-.1.08Zm2.14,18.43h12.44l-.06.11,4.44,2.53-10.51-2.59,0,0,0,0h0l-12.08,3-6.53-2.8,1.42-6Zm12.86-15.22-.66-1.14a11.55,11.55,0,0,0,2.6-2.23Zm0,.83,10.45,8.41-10.64,5.58Zm-.21-.56-.07-.06v.16h-4.25a11.22,11.22,0,0,0,3.61-1.35Zm-6.2,15.35,11.31,2.78.37.22-5.4,10.9Zm8.18,18a11.45,11.45,0,0,0-2.63-2.16l.69-1.2Zm-14.05-2.21a11.14,11.14,0,0,0-2.57,2.06l1.89-3.28Zm-.35-1.24h3.47a11,11,0,0,0-2.86,1.08Zm-.36-.66-5.51-11L147,126.13Zm-6-11-8.82,7.82,2.51-10.52Zm-6.52-3.12L121.47,123l8.15-3Zm-7.14-3.06-.09,0-4.22-11.13,5.91-1.94,6.88,10Zm-.35.1L108,125.59,104.73,120l11.55-8.32,0,.12.15-.05h0ZM95.56,126l8.83,5.34a10.56,10.56,0,0,1-3.62,3.69Zm5,9.18a10.9,10.9,0,0,1-5.22,1.5V126.11ZM96,125.86l10,0a11,11,0,0,1-1.4,5.16Zm10.29,0h1.4l-2,3.54A11.32,11.32,0,0,0,106.24,125.9Zm-.54-3.66,1.94,3.37h-1.4A11.31,11.31,0,0,0,105.7,122.24Zm.24,3.36-10.42,0,8.91-5.4A10.91,10.91,0,0,1,105.94,125.6Zm-10.53-.33,5.18-9a10.5,10.5,0,0,1,3.68,3.61Zm5.33-9.24.69-1.19,1.94,3.36A11.44,11.44,0,0,0,100.74,116Zm-.26-.15a11.22,11.22,0,0,0-3-1.14h3.6Zm-.15.26-5.2,9V114.75A10.87,10.87,0,0,1,100.33,116.14Zm-7.42,20.63H89l.65-1.15A11,11,0,0,0,92.91,136.77Zm1.92-11.64-5.11-9a10.77,10.77,0,0,1,5.11-1.34Zm-5.26-9.31L89,114.74h3.48A11.26,11.26,0,0,0,89.57,115.82Zm-.25.16A11.46,11.46,0,0,0,86.74,118l1.89-3.27Zm-2.09,2a11.07,11.07,0,0,1,2.24-1.71l5.1,9-8.86-5.4A10.51,10.51,0,0,1,87.23,118Zm14.07,19.12-.19,14.26H88.91l-.2-14.26Zm-4.25-.3a11,11,0,0,0,3.62-1.35l.72,1.26-.08-.07v.16Zm3.87-1.5a11.38,11.38,0,0,0,2.61-2.23l-2,3.37Zm.68,2,10.45,8.42-10.64,5.58Zm.05-.34L107.94,126l11.27,9.44-6.93,10Zm6.58-11,12.52-2.66L119.3,135.1ZM121,123.3,125.42,137l-5.83-1.83Zm.28-.09,6.83,2.93-2.51,10.51Zm13.65,6,5.63,11.2-3,5.24-11.67-8.41Zm2.87,16.62a11,11,0,0,1,1.52-1.93,10.64,10.64,0,0,1,2.24-1.71l5.1,9Zm4-3.8a11,11,0,0,1,5.11-1.34V151Zm-.93-1.64v0l6.22-13.85,6.27,13.88H140.92Zm12.34.3-.66,1.13a11.06,11.06,0,0,0-2.95-1.13Zm-.55,1.55a11.21,11.21,0,0,1,2.15,1.66,10.42,10.42,0,0,1,1.54,2l-8.87,5.37Zm1-1.76,5.53-11.15.08,0,0-.1,8.93,7.91,0,.1L156.7,145.6Zm5.61-11.65-.6-.14-5.19-3,10.71-5.62,3.94,16.58ZM153.77,111l6.3-10.9,11.27,9.43-6.93,10Zm2.9-5.82-8.59-5.2,10,0A10.87,10.87,0,0,1,156.67,105.17Zm-.16.26a11,11,0,0,1-1.65,2.14,11.28,11.28,0,0,1-2,1.54l-5.21-9Zm-3.87,3.84a10.89,10.89,0,0,1-5.22,1.49V100.21Zm.79,1.91-.2,14.25H141l-.19-14.25Zm-12.33-.3.65-1.16a11.14,11.14,0,0,0,3.28,1.16Zm-.61.11-10.55,8.5-.1,0-6.91-10,11.27-9.43Zm-17.65-1.78L121.4,97.28l12.51,2.66Zm-.27.18-5.92,1.94,0-.11-.16-.14-4-16.82,8.63,2.95Zm-6.37,1.94-11.62,8.37-3-5.16,5.53-11.16.07.05.06-.1,8.92,7.91Zm-14.73,2.8-6.28-13.9,11.3,2.79.38.21Zm-.19.31H88.79v0L95,100.56Zm-12.67-.36-5.51-11,11.73-2.9Zm-3.06,6.06,8.9,5.42L84,125.6A10.87,10.87,0,0,1,85.55,120.14Zm-1.83,5.46H82.37l1.83-3.17A11.34,11.34,0,0,0,83.72,125.6Zm0,.3a11.24,11.24,0,0,0,.55,3.3l-1.91-3.29Zm4.64,11-10.55,8.5-.11,0-6.91-10L82.07,126ZM76.29,152.15l6.31,2.71-8.82,7.81Zm-.21-.41-6.73-2.89,8.14-3Zm30.52,2.79-5.18-3,10.71-5.62,3.93,16.58-8.85-7.84Zm13-19.08,5.91,1.85-4.33,11.4-8.67-3Zm6.09,2.21,0,.1.08-.3,11.66,8.4-3.24,5.62-12.75-2.7Zm10.21,14.14a11.3,11.3,0,0,0,.55,3.3l-1.9-3.3Zm.3,0,10.31,0-8.77,5.34.16.26,9-5.48-5.21,9.23a11.21,11.21,0,0,1-2.29-1.75A10.9,10.9,0,0,1,136.15,151.79Zm5.6,9.72a11.24,11.24,0,0,0,3.28,1.16H141.1Zm.15-.26,5.22-9.24v10.54h.22l-.23,0A10.89,10.89,0,0,1,141.9,161.25ZM147.26,151v-10.4a11,11,0,0,1,5.19,1.39Zm.16,1,5.22,9.06a10.89,10.89,0,0,1-5.22,1.49Zm.27-.13,8.82,5.35a10.65,10.65,0,0,1-1.65,2.13,10.87,10.87,0,0,1-2,1.55Zm.39-.11,10,0a10.87,10.87,0,0,1-1.39,5.17Zm10.28,0h1.41l-2.05,3.54A10.94,10.94,0,0,0,158.36,151.8Zm-1.51-5.94,11.55-8.32,0,.11.15-.05h0l4.24,11.18-12.74,2.7Zm11.89-8.74-.16-.15-4-16.82,8.63,2.95,1.48,12.19-5.91,1.93Zm-4.16-17.29,7.1-10.28,5.9,1.85-4.32,11.4Zm7.14-10.58,1.44-11.84,4.39,13.67Zm-.3,0-11.06-9.27,12.51-2.66ZM160.1,99.69l-3.25-5.62,11.55-8.32,0,.11.15,0h0L172.84,97Zm-2,0-10.43,0,8.91-5.39A10.78,10.78,0,0,1,158.07,99.7Zm-10.54-.32,5.18-9a11.21,11.21,0,0,1,2.15,1.66,10.42,10.42,0,0,1,1.54,2Zm5.33-9.24.69-1.2,1.94,3.36A11.45,11.45,0,0,0,152.86,90.14ZM152.6,90a11.06,11.06,0,0,0-2.95-1.13h3.61Zm-.15.26-5.19,9V88.85A11,11,0,0,1,152.45,90.24Zm-5.49,9-5.11-9A11,11,0,0,1,147,88.85Zm-5.26-9.31-.61-1.08h3.47A11,11,0,0,0,141.7,89.93Zm-.26.16a11.14,11.14,0,0,0-2.57,2.06l1.89-3.28Zm-2.09,2a10.64,10.64,0,0,1,2.24-1.71l5.1,9L137.83,94A11,11,0,0,1,139.35,92.06Zm7.22,7.6-10.42,0a10.92,10.92,0,0,1,1.52-5.46Zm-12.4,0L121.42,97l4.22-11.12,0,.1.08-.3,11.66,8.4Zm-13-2.78-8.67-3,7.09-10.28,5.91,1.85Zm-5.07,13.82-8.85-7.84-.61-.15-5.18-3,10.71-5.62ZM101.41,99.44l.19-14,10.45,8.42Zm.17-14.82-.66-1.14a11.13,11.13,0,0,0,2.6-2.23Zm-.19.27-.08-.07V85H97.06a11,11,0,0,0,3.61-1.35ZM76.08,100l-6.73-2.89,8.14-3ZM69,96.89l-.09,0L64.64,85.71l5.9-1.93,6.88,10Zm-.33.39-1.45,11.93L56.11,99.94Zm.28.13,4.4,13.67-5.83-1.83Zm.29-.09L76,100.24l-2.5,10.52Zm4.33,14.44,0,.11.07-.31L85.29,120,82,125.59,69.3,122.88Zm8.26,14.08L70.72,135.1l-1.45-11.92Zm-4.36,19.69L69,148.68l-.09,0L64.64,137.5l5.9-1.93Zm-8.8,3.54L67.17,161l-11.06-9.27Zm.28.13,4.4,13.67L67.47,161Zm.29-.1L76,152l-2.5,10.52Zm13.64,6,5.63,11.19-3,5.24-11.67-8.4Zm2.88,16.61a10.51,10.51,0,0,1,1.52-1.93A11.07,11.07,0,0,1,89.47,168l5.1,9Zm4-3.79a10.77,10.77,0,0,1,5.11-1.34v10.38Zm-.93-1.65v0L95,152.35l6.27,13.88H88.79Zm12.34.3-.65,1.14a11.22,11.22,0,0,0-3-1.14Zm-.54,1.55a10.5,10.5,0,0,1,3.68,3.61l-8.86,5.37Zm1-1.75,5.53-11.16.07.05.06-.1,8.92,7.91,0,.09-11.62,8.37Zm10.86-20.28,8.63,2.95,1.48,12.18-5.92,1.94,0-.11-.16-.14Zm8.94,3,12.51,2.66L122.84,161Zm12.8,2.81,6.29,10.9-10.55,8.5-.1,0-6.91-10Zm6.34,11.25.19,14-10.63-5.59Zm.19-.54-2-3.5a11.29,11.29,0,0,0,2.78,2.27l-.66,1.17v0Zm12.7.38-.2,14.25H141L140.84,163Zm-4.25-.3a11.22,11.22,0,0,0,3.61-1.35l.72,1.25-.07-.06v.16Zm3.87-1.51a11.55,11.55,0,0,0,2.6-2.23l-1.94,3.37Zm.67,2,10.45,8.41-10.64,5.58Zm.05-.35,6.3-10.9,11.27,9.43-6.93,10Zm6.59-11.05,12.51-2.66L171.42,161Zm12.8-2.53,4.39,13.67L171.72,161Zm.28-.1,6.82,2.93-2.5,10.52Zm-.24-.42-.09,0-4.22-11.14,5.9-1.93,6.88,10Zm.32-25.5L186,125.84,175,135.1Zm4.24-12.42-4.32-13.44,6.82,2.92ZM173.2,96.89l-.09,0-4.22-11.14,5.9-1.93,6.88,10Zm.32-25.5L186,74.05,175,83.31Zm1.17,12.11-5.91,1.93,0-.1-.16-.15-4-16.82,8.63,3Zm-6.36,1.94L156.7,93.81l-3-5.17,5.53-11.15.08,0,0-.1,8.93,7.91Zm-14.74,2.8-6.28-13.9,11.31,2.78.37.22Zm-.19.31H140.92v0l6.22-13.85Zm-12.67-.36-5.51-11L147,74.34Zm-.14.38-3,5.24L125.89,85.4l9.07-8ZM125.91,85l2.51-10.52,6.31,2.7Zm-.28-.13-4.32-13.44,6.83,2.93Zm-.21.33-5.83-1.83L121,71.51Zm-6.12-1.88-11.07-9.26,12.52-2.66Zm-.09.32-6.93,10L101.65,85.1l6.29-10.91Zm-14.67-4.36L96,74.07l10,0A11,11,0,0,1,104.54,79.27Zm-.15.26a10.56,10.56,0,0,1-3.62,3.69l-5.21-9Zm-3.88,3.84a10.9,10.9,0,0,1-5.22,1.5V74.32Zm.79,1.91-.19,14.26H88.91l-.2-14.26ZM89,85l.65-1.15A10.94,10.94,0,0,0,92.9,85Zm-.6.12L77.82,93.6l-.11,0-6.91-10,11.27-9.44ZM70.72,83.31,69.27,71.39l12.51,2.66Zm-.28.19-5.91,1.93,0-.1-.16-.15-4-16.82,8.63,3Zm-6.36,1.94L52.45,93.81l-3-5.17L55,77.49l.08,0,.05-.1,8.93,7.91ZM51.24,92.3a11.66,11.66,0,0,0-2.63-2.16l.69-1.2ZM48.35,90a11.06,11.06,0,0,0-3-1.13H49Zm-.15.26-5.19,9V88.85A11,11,0,0,1,48.2,90.24Zm-5,10,5.22,9.06a10.89,10.89,0,0,1-5.22,1.49Zm.27-.13,8.82,5.35a11,11,0,0,1-1.65,2.14,11.28,11.28,0,0,1-2,1.54Zm12.38,0,11.27,9.43-6.93,10L49.52,111Zm11.61,9.46,5.9,1.85L69,122.8l-8.68-3ZM69,123.1l1.48,12.19-5.91,1.93,0-.1-.16-.15-4-16.82Zm-4.88,14.13L52.45,145.6l-3-5.17L55,129.28l.08,0,.05-.1,8.93,7.91ZM51.24,144.1a11.44,11.44,0,0,0-2.63-2.17l.69-1.2Zm-2.89-2.33a11.06,11.06,0,0,0-3-1.13H49Zm-.15.26L43,151v-10.4A11,11,0,0,1,48.2,142Zm-5,10,5.22,9.06a10.89,10.89,0,0,1-5.22,1.49Zm.27-.13,8.82,5.35a10.65,10.65,0,0,1-1.65,2.13,10.87,10.87,0,0,1-2,1.55Zm12.38,0,11.27,9.43-6.93,10-10.64-8.57Zm11.61,9.46,5.9,1.85L69,174.59l-8.68-3Zm6.09,2.21,0,.11.07-.31,11.67,8.4L82,177.38,69.3,174.67Zm10.21,14.14a11.24,11.24,0,0,0,.55,3.3l-1.91-3.29Zm.3,0,10.3,0L85.56,183l.16.26h0l9-5.49L89.51,187a10.89,10.89,0,0,1-5.48-9.3Zm5.59,9.72a11,11,0,0,0,3.29,1.15H89Zm.15-.26L95,177.91v10.54h0A11,11,0,0,1,89.77,187.15Zm5.36-10.22V166.54a10.87,10.87,0,0,1,5.2,1.39Zm.16,1,5.22,9a10.9,10.9,0,0,1-5.22,1.5Zm.27-.14,8.83,5.35a10.56,10.56,0,0,1-3.62,3.69Zm.39-.11,10,0a11,11,0,0,1-1.4,5.16Zm10.29,0h1.4l-2,3.54A11.32,11.32,0,0,0,106.24,177.69Zm-1.51-5.94,11.55-8.32,0,.12.15-.05h0l4.24,11.18L108,177.38Zm12-8.35,5.91-1.94,6.88,10-8.48,3.14-.08,0Zm12.86,8.32-1.41,5.91-6.74-2.89Zm-1.2,6.33,6.31,2.7-8.82,7.82Zm30.2,2.65.37.22-5.4,10.89-6.28-13.89Zm-3.13,15.18a11.4,11.4,0,0,0-2.63-2.16l.69-1.2Zm-1.77-3.66,5.53-11.15.08,0,0-.1,8.93,7.91,0,.1-11.63,8.37Zm5.61-11.65-.6-.14-5.19-3,10.71-5.62,3.94,16.58Zm12.35-19.23,5.9,1.85-4.32,11.4-8.68-3Zm6.09,2.21,0,.11.07-.31,11.67,8.4-3.25,5.63-12.74-2.71Zm16.06,4.06-.62-1.08h3.48A11.19,11.19,0,0,0,193.83,167.61Zm5.25-1.07v10.38l-5.11-9A10.77,10.77,0,0,1,199.08,166.54Zm-5.51,1.23a11.46,11.46,0,0,0-2.58,2.06l1.89-3.27Zm-2.09,2a11.07,11.07,0,0,1,2.24-1.71l5.1,9-8.86-5.4A10.51,10.51,0,0,1,191.48,169.74Zm7.22,7.61-10.43,0a10.87,10.87,0,0,1,1.53-5.46Zm-10.73,0h-1.34l1.82-3.17A11.34,11.34,0,0,0,188,177.39Zm0,.3a11.24,11.24,0,0,0,.55,3.3l-1.91-3.29Zm.3,0,10.3,0L189.81,183l.16.26h0l9-5.49L193.76,187a10.89,10.89,0,0,1-5.48-9.3Zm5.59,9.72a11,11,0,0,0,3.29,1.15h-3.94Zm.15-.26,5.22-9.24v10.54h0A11,11,0,0,1,194,187.15Zm5.36-10.22V166.54a10.87,10.87,0,0,1,5.2,1.39Zm2.4-10.4h3.6l-.65,1.14A11.22,11.22,0,0,0,201.78,166.53Zm-2.52-.3h-6.21l0,0,6.23-13.86,6.27,13.88Zm-6.4-.36-5.51-11,11.73-2.9Zm-.15.38-3,5.24L178,163.09l9.06-8ZM178,162.67l2.51-10.52,6.31,2.71Zm2.3-10.93-6.73-2.89,8.14-3Zm-5.28-16.32L186.32,126l6.3,10.91-10.55,8.5-.11,0Zm17.62,1.81.19,14-10.64-5.58Zm.18-.53-2-3.51a11.12,11.12,0,0,0,2.79,2.27l-.66,1.17v0Zm6.38,0a11,11,0,0,1-5.21-1.31l5.22-9.24v10.54h0Zm.15-11.53V114.75a10.87,10.87,0,0,1,5.2,1.39Zm2.4-10.4h3.6l-.65,1.14A11.08,11.08,0,0,0,201.78,114.74Zm-2.52-.3H193v0l6.23-13.86,6.27,13.88Zm-6.4-.36-5.51-11,11.73-2.9Zm-.15.38-3,5.24L178,111.3l9.06-8ZM178,110.88l2.51-10.52,6.31,2.71Zm2.3-10.93-6.73-2.89,8.14-3Zm-5.28-16.32,11.27-9.44,6.3,10.91-10.55,8.5-.11,0ZM188,74.11a11.24,11.24,0,0,0,.55,3.3l-1.91-3.29Zm-1.35-.29,1.82-3.17a11.34,11.34,0,0,0-.48,3.16ZM190,79.67l9-5.49-5.22,9.23a10.89,10.89,0,0,1-5.48-9.3l10.3,0-8.77,5.34.16.26Zm3.9,4.16A10.94,10.94,0,0,0,197.15,85h-3.93Zm-1.2,1.61.19,14-10.64-5.58Zm.18-.53-2-3.5a11.3,11.3,0,0,0,2.79,2.26L193,84.84v0Zm6.23-11.57-5.11-9A10.77,10.77,0,0,1,199.08,63ZM193.82,64,193.21,63h3.48A11.26,11.26,0,0,0,193.82,64Zm-.25.16A11.46,11.46,0,0,0,191,66.25L192.88,63Zm-2.09,2a11.07,11.07,0,0,1,2.24-1.71l5.1,9L190,68.09A10.51,10.51,0,0,1,191.48,66.16Zm7.22,7.61-10.43,0a10.87,10.87,0,0,1,1.53-5.46Zm-12.41,0-12.74-2.71L177.77,60l0,.11.07-.31,11.67,8.4Zm-13-2.79-8.68-3,7.1-10.29,5.9,1.85Zm-5.07,13.83L159.33,77l-.6-.14-5.19-3,10.71-5.62ZM153.53,73.55l.19-14L164.17,68Zm.18-14.83-.66-1.14a11.55,11.55,0,0,0,2.6-2.23Zm-.2.27-.07-.06v.16h-4.25a11.22,11.22,0,0,0,3.61-1.35Zm-25.3,15.06-6.74-2.88,8.15-3ZM121.07,71,121,71l-4.23-11.14,5.91-1.94,6.88,10Zm-.35.1L108,73.8l-3.25-5.63,11.55-8.32,0,.12.15,0h0Zm-14.78,2.72-10.42,0,8.91-5.4A10.91,10.91,0,0,1,105.94,73.81ZM95.4,73.48l5.19-9a10.5,10.5,0,0,1,3.68,3.61Zm5.34-9.24.69-1.19,1.94,3.36A11.44,11.44,0,0,0,100.74,64.24Zm-.26-.15a11.22,11.22,0,0,0-3-1.14h3.6Zm-.15.26-5.2,9V63A11,11,0,0,1,100.33,64.35Zm-5.5,9-5.11-9A10.77,10.77,0,0,1,94.83,63ZM89.57,64,89,63h3.48A11.26,11.26,0,0,0,89.57,64Zm-.25.16a11.46,11.46,0,0,0-2.58,2.06L88.63,63Zm-2.09,2a11.29,11.29,0,0,1,2.23-1.71l5.11,9-8.87-5.4A11,11,0,0,1,87.23,66.16Zm7.22,7.61L84,73.81a10.87,10.87,0,0,1,1.53-5.46ZM82,73.8,69.3,71.09,73.52,60l0,.11.07-.31,11.67,8.4ZM69,71l-8.68-3,7.1-10.29,5.9,1.85ZM54.74,77.34l-5.4,10.9-6.28-13.9,11.31,2.78ZM49.15,88.55H36.67v0l6.22-13.85Zm-8.84.3a11,11,0,0,0-2.86,1.08l-.61-1.08Zm2.4,0V99.24l-5.11-9A11,11,0,0,1,42.71,88.85Zm.15,11.37v10.54h.25l-.25,0a10.89,10.89,0,0,1-5.21-1.32Zm-2.08,10.66H36.85l.65-1.16A11.14,11.14,0,0,0,40.78,110.88Zm8.4.3L49,125.43H36.78l-.19-14.25Zm-4.25-.3a11.22,11.22,0,0,0,3.61-1.35l.72,1.25-.08-.06v.16Zm3.87-1.51a11.55,11.55,0,0,0,2.6-2.23l-1.95,3.37Zm.67,2,10.45,8.41-10.64,5.58ZM60,120.05l3.94,16.58-8.86-7.85-.6-.14-5.19-3Zm-5.26,9.08L49.34,140l-6.28-13.9,11.31,2.78Zm-5.59,11.21H36.67v0l6.22-13.85Zm-8.84.3a11,11,0,0,0-2.86,1.08l-.61-1.08Zm2.4,0V151L37.6,142A11,11,0,0,1,42.71,140.64ZM42.86,152v10.54h.23l-.23,0a10.89,10.89,0,0,1-5.21-1.32Zm-2.08,10.66H36.85l.65-1.16A11.24,11.24,0,0,0,40.78,162.67Zm8.4.3L49,177.22H36.78L36.59,163Zm-4.25-.3a11.22,11.22,0,0,0,3.61-1.35l.72,1.25-.08-.06v.16Zm3.87-1.51a11.55,11.55,0,0,0,2.6-2.23l-1.95,3.37Zm.67,2,10.45,8.41-10.64,5.58ZM60,171.84l3.94,16.58-8.86-7.85-.6-.14-5.19-3ZM49.47,192.22,55,181.07l.08,0,.05-.1,8.93,7.91,0,.1-11.63,8.37Zm1.77,3.66a11.66,11.66,0,0,0-2.63-2.16l.69-1.2Zm3.5-15-5.4,10.89-6.28-13.89,11.31,2.78ZM49,192.43l-.66,1.13a11.06,11.06,0,0,0-3-1.13ZM48.46,194a11.21,11.21,0,0,1,2.15,1.66,10.42,10.42,0,0,1,1.54,2L43.28,203Zm3.84,3.86a10.94,10.94,0,0,1,1.52,5.44l-10.43,0Zm1.27,2.09,2,3.36h-1.4A10.94,10.94,0,0,0,53.57,199.93Zm.24,3.65a10.87,10.87,0,0,1-1.39,5.17l-8.59-5.2Zm.3,0h1.41l-2.05,3.54A10.94,10.94,0,0,0,54.11,203.59Zm-1.51-5.94,11.55-8.32,0,.11.15-.05h0l4.24,11.17-12.74,2.71Zm11.89-8.74-.16-.15-4-16.82L69,174.89l1.48,12.19L64.53,189ZM69.27,175l12.51,2.66-11.06,9.26Zm12.8,2.8,6.3,10.91-10.55,8.5-.11,0-6.91-10ZM88.42,189l.19,14L78,197.44Zm.18-.53-2-3.51a11.12,11.12,0,0,0,2.79,2.27l-.66,1.17v0Zm12.7.37-.19,14.26H88.91l-.2-14.26Zm-4.25-.3a11,11,0,0,0,3.62-1.35l.72,1.26-.08-.07v.16Zm3.87-1.5a11.38,11.38,0,0,0,2.61-2.23l-2,3.37Zm.68,2,10.45,8.42L101.41,203Zm.05-.34,6.29-10.91,11.27,9.44-6.93,10Zm6.58-11.05L120.75,175l-1.45,11.92Zm12.8-2.54,4.39,13.68-5.83-1.83Zm.28-.09,6.83,2.93-2.51,10.51ZM135,181l5.63,11.2-3,5.24L125.89,189Zm2.87,16.61a11.26,11.26,0,0,1,1.52-1.92,10.64,10.64,0,0,1,2.24-1.71l5.1,9Zm4-3.79a11,11,0,0,1,5.11-1.34v10.39Zm-.93-1.64v0l6.22-13.85,6.27,13.88H140.92Zm12.34.3-.66,1.13a11.06,11.06,0,0,0-2.95-1.13Zm-.55,1.55a11.21,11.21,0,0,1,2.15,1.66,10.42,10.42,0,0,1,1.54,2L147.53,203Zm3.84,3.86a10.84,10.84,0,0,1,1.52,5.44l-10.43,0Zm1.27,2.09,2,3.36h-1.4A10.94,10.94,0,0,0,157.82,199.93Zm.24,3.65a10.87,10.87,0,0,1-1.39,5.17l-8.59-5.2Zm.3,0h1.41l-2.05,3.54A10.94,10.94,0,0,0,158.36,203.59Zm-1.51-5.94,11.55-8.32,0,.11.15-.05h0l4.24,11.18-12.74,2.71Zm11.89-8.74-.16-.15-4-16.82,8.63,2.95,1.48,12.19L168.78,189ZM173.52,175,186,177.63,175,186.89Zm12.8,2.8,6.3,10.91-10.55,8.5-.11,0-6.91-10ZM192.67,189l.19,14-10.64-5.58Zm.18-.53-2-3.51a11.12,11.12,0,0,0,2.79,2.27l-.66,1.17v0Zm12.7.37-.19,14.26h-12.2l-.2-14.26Zm-4.24-.3a11.07,11.07,0,0,0,3.61-1.35l.72,1.26-.08-.07v.16Zm3.46-1.61a10.94,10.94,0,0,1-5.23,1.5V177.9Zm.07-18.87a11.21,11.21,0,0,1,2.15,1.66,11.53,11.53,0,0,1,1.53,1.95l-8.86,5.37Zm.15-.26.69-1.19,1.94,3.36A11.44,11.44,0,0,0,205,167.82ZM199.44,152l11.3,2.79.38.21-5.4,10.9Zm-.16-.34,0-.05,0,.05h0l-12.08,3-6.53-2.8,1.42-6L193,151.63h12.44l-.06.1,4.44,2.54Zm6.55-15.27-.66-1.14a11.38,11.38,0,0,0,2.61-2.23Zm0,.82,10.45,8.42-10.64,5.58Zm-1.08-2.07a10.94,10.94,0,0,1-5.23,1.5V126.11Zm.07-18.87A11.21,11.21,0,0,1,207,118a11.53,11.53,0,0,1,1.53,2l-8.86,5.37ZM205,116l.69-1.19,1.94,3.36A11.44,11.44,0,0,0,205,116Zm-5.55-15.8,11.3,2.79.38.21-5.4,10.9Zm-.16-.34,0,0,0,0h0l-12.08,3-6.53-2.8,1.42-6L193,99.84h12.44l-.06.1,4.44,2.54Zm6.55-15.27-.66-1.14a11.38,11.38,0,0,0,2.61-2.23Zm0,.82,10.45,8.42-10.64,5.58Zm-1.08-2.07a10.94,10.94,0,0,1-5.23,1.5V74.32Zm.07-18.87A11.21,11.21,0,0,1,207,66.16a11.53,11.53,0,0,1,1.53,2l-8.86,5.37Zm.15-.26.69-1.19,1.94,3.36A11.44,11.44,0,0,0,205,64.24Zm-5.55-15.8,11.3,2.79.38.21-5.4,10.9Zm6.09,14.21H193v0l6.23-13.86Zm-12.67-.36-5.51-10.95,11.73-2.9Zm-.15.38-3,5.24L178,59.51l9.06-8ZM178,59.09l2.51-10.52,6.31,2.71Zm-.27-.12-4.32-13.44,6.82,2.92Zm-.21.32-5.83-1.83,1.44-11.84Zm-6.13-1.87-11.06-9.27,12.51-2.66Zm-.08.31-6.93,10L153.77,59.2l6.3-10.9Zm-14.67-4.35-8.59-5.2,10,0A10.86,10.86,0,0,1,156.67,53.38Zm-.16.26a11,11,0,0,1-1.65,2.14,11.28,11.28,0,0,1-2,1.54l-5.21-9Zm-3.87,3.84A10.89,10.89,0,0,1,147.42,59V48.42Zm.79,1.91-.2,14.26H141l-.19-14.26Zm-12.33-.3.65-1.16A11.2,11.2,0,0,0,145,59.09Zm-.61.11-10.55,8.5-.1,0-6.91-10L134.2,48.3Zm-17.65-1.78L121.4,45.49l12.51,2.66Zm-.27.18-5.91,1.94,0-.11-.16-.14-4-16.82,8.63,3Zm-6.37,1.94-11.62,8.37-3-5.16,5.53-11.16.07,0,.06-.1,8.92,7.91Zm-14.74,2.8-6.27-13.9,11.3,2.79.38.21Zm-.18.31H88.79v0L95,48.77Zm-12.67-.36L83.1,51.34l11.73-2.9Zm-.15.38-3,5.24-11.67-8.4,9.06-8ZM73.78,59.09l2.51-10.52,6.31,2.71ZM73.51,59,69.19,45.53,76,48.45Zm-.21.32-5.83-1.83L68.9,45.62Zm-6.13-1.87L56.11,48.15,68.62,45.5Zm-.08.31-6.93,10L49.52,59.2l6.3-10.9ZM52.42,53.38l-8.59-5.2,10,0A10.86,10.86,0,0,1,52.42,53.38Zm-.16.26a11,11,0,0,1-1.65,2.14,11.28,11.28,0,0,1-2,1.54l-5.21-9Zm-3.87,3.84A10.89,10.89,0,0,1,43.17,59V48.42Zm.79,1.91L49,73.65H36.78l-.19-14.26Zm-12.33-.3.65-1.16a11.24,11.24,0,0,0,3.28,1.16Zm.39-1.31L36.58,59v0l-.1.08-2-3.5A11.29,11.29,0,0,0,37.24,57.78Zm-.76,15.77L25.85,68l10.44-8.41Zm.12.39H49l-.06.11,4.44,2.53L42.9,74l0,0,0,0h0L30.77,77l-6.54-2.8,1.43-6Zm6.11.4L36.48,88.19,31,77.23Zm-6.2,14.53.68,1.22a11.14,11.14,0,0,0-2.57,2.06ZM35.1,92.06a10.64,10.64,0,0,1,2.24-1.71l5.1,9L33.58,94A11,11,0,0,1,35.1,92.06Zm2.14,17.51-.66,1.17v0l-.1.08-2-3.5A11.29,11.29,0,0,0,37.24,109.57Zm-.76,15.76-10.63-5.58,10.44-8.41Zm.12.4H49l-.06.11,4.44,2.53L42.9,125.78l0,0,0,0h0l-12.08,3L24.23,126l1.43-6Zm6.1.4L36.48,140,31,129Zm-6.19,14.53.68,1.22a11.14,11.14,0,0,0-2.57,2.06Zm-1.41,3.19a10.64,10.64,0,0,1,2.24-1.71l5.1,9-8.86-5.39A11,11,0,0,1,35.1,143.85Zm2.14,17.51-.66,1.17v0l-.1.08-2-3.5A11.29,11.29,0,0,0,37.24,161.36Zm-.76,15.76-10.63-5.58,10.44-8.41Zm.12.4H49l-.06.11,4.44,2.54-10.51-2.6,0,0,0,0h0l-12.08,3-6.54-2.8,1.43-6Zm6.1.4-6.22,13.85-5.51-11Zm-6.19,14.53.68,1.21a11.18,11.18,0,0,0-2.57,2.07Zm-1.41,3.19a10.64,10.64,0,0,1,2.24-1.71l5.1,9-8.86-5.4A11.26,11.26,0,0,1,35.1,195.64Zm2.4,17.66a11.24,11.24,0,0,0,3.28,1.16H36.85Zm.15-.26,5.21-9.24v10.54h.24l-.24,0A10.89,10.89,0,0,1,37.65,213ZM43,202.83v-10.4a11,11,0,0,1,5.19,1.39Zm.16,1,5.22,9.06a10.89,10.89,0,0,1-5.22,1.49Zm.27-.13L52.26,209a10.65,10.65,0,0,1-1.65,2.13,10.87,10.87,0,0,1-2,1.55Zm12.38,0,11.27,9.43-6.93,10-10.64-8.57Zm.29-.15,12.51-2.66-1.45,11.93ZM68.9,201l4.4,13.67-5.83-1.83Zm0-.56-4.22-11.14,5.9-1.93,6.88,10L69,200.47Zm8.63-2.81-1.41,5.91-6.73-2.89Zm-1.2,6.32,6.31,2.71-8.82,7.81Zm30.31,2.38-5.18-3,10.71-5.62,3.93,16.58-8.85-7.84Zm13-19.08,5.91,1.85-4.33,11.4-8.67-3Zm1.87,13.32,4.22-11.11,0,.1.08-.3,11.66,8.4-3.24,5.62Zm12.49,3-11.07,9.27-1.44-11.93Zm1.94.07a11.3,11.3,0,0,0,.55,3.3l-1.9-3.3Zm.3,0,10.31,0-8.77,5.34.16.26h0l9-5.48-5.21,9.23a11.21,11.21,0,0,1-2.29-1.75A10.9,10.9,0,0,1,136.15,203.58Zm5.6,9.72a11.24,11.24,0,0,0,3.28,1.16H141.1Zm.15-.26,5.22-9.24v10.54h.23l-.24,0A10.89,10.89,0,0,1,141.9,213Zm5.36-10.21v-10.4a11,11,0,0,1,5.19,1.39Zm.16,1,5.22,9.06a10.89,10.89,0,0,1-5.22,1.49Zm.27-.13,8.82,5.35a10.65,10.65,0,0,1-1.65,2.13,10.87,10.87,0,0,1-2,1.55Zm12.38,0,11.27,9.43-6.93,10-10.64-8.57Zm.29-.15,12.51-2.66-1.45,11.93Zm12.8-2.53,4.39,13.67-5.83-1.83Zm0-.56-4.22-11.14,5.9-1.93,6.88,10-8.47,3.15Zm8.63-2.81-1.41,5.91-6.73-2.89Zm-1.2,6.32,6.31,2.71L178,214.46Zm30.32,2.38-5.19-3,10.71-5.62,3.93,16.58-8.85-7.84Zm-5-17.64,6.29-10.91,11.27,9.44-6.93,10Zm3.95-7.44a11.32,11.32,0,0,0,.64-3.55h1.4Zm.64-3.85A11.31,11.31,0,0,0,210,174l1.94,3.37Zm-.3,0-10.42,0,8.91-5.4A10.91,10.91,0,0,1,210.19,177.39Zm-4.34-11.06,5.53-11.16.07.05.06-.1,8.92,7.91,0,.09-11.62,8.37Zm5.61-11.65-.61-.15-5.18-3,10.71-5.62,3.93,16.58Zm-5.56-17.79L212.19,126l11.27,9.44-6.93,10Zm3.95-7.44a11.32,11.32,0,0,0,.64-3.55h1.4Zm.64-3.85a11.31,11.31,0,0,0-.54-3.36l1.94,3.37Zm-.3,0-10.42,0,8.91-5.4A10.91,10.91,0,0,1,210.19,125.6Zm-4.34-11.06,5.53-11.16.07.05.06-.1,8.92,7.91,0,.09-11.62,8.37Zm5.61-11.65-.61-.15-5.18-3,10.71-5.62,3.93,16.58ZM205.9,85.1l6.29-10.91,11.27,9.44-6.93,10Zm3.95-7.44a11.32,11.32,0,0,0,.64-3.55h1.4Zm.64-3.85a11.31,11.31,0,0,0-.54-3.36l1.94,3.37Zm-.3,0-10.42,0,8.91-5.4A10.91,10.91,0,0,1,210.19,73.81Zm-4.34-11.06,5.53-11.16.07,0,.06-.1,8.92,7.91,0,.09-11.62,8.37Zm5.61-11.65-.6-.15-5.19-3,10.71-5.62,3.93,16.58Zm-5.8-3.45.19-14,10.45,8.42Zm.17-14.82-.66-1.14a11.38,11.38,0,0,0,2.61-2.23Zm-.19.27-.08-.06v.15H201.3a11,11,0,0,0,3.62-1.35ZM180.33,48.16l-6.73-2.89,8.14-3ZM173.2,45.1l-.09,0-4.22-11.14,5.9-1.93,6.88,10Zm-.36.1L160.1,47.9l-3.25-5.62L168.4,34l0,.11.15,0h0Zm-14.77,2.71-10.43,0,8.91-5.39A10.8,10.8,0,0,1,158.07,47.91Zm-10.54-.32,5.18-9a11.21,11.21,0,0,1,2.15,1.66,10.42,10.42,0,0,1,1.54,1.95Zm5.33-9.24.69-1.2,1.94,3.37A11.44,11.44,0,0,0,152.86,38.35Zm-.26-.16a11.06,11.06,0,0,0-2.95-1.13h3.61Zm-.15.26-5.19,9V37.07A10.86,10.86,0,0,1,152.45,38.45Zm-5.49,9-5.11-9.05A10.88,10.88,0,0,1,147,37.07Zm-5.26-9.31-.61-1.08h3.47A11,11,0,0,0,141.7,38.14Zm-.26.16a11.14,11.14,0,0,0-2.57,2.06l1.89-3.28Zm-2.09,2a10.64,10.64,0,0,1,2.24-1.71l5.1,9-8.86-5.39A11,11,0,0,1,139.35,40.27Zm7.23,7.6-10.43,0a10.92,10.92,0,0,1,1.52-5.46Zm-12.41,0-12.75-2.7,4.22-11.12,0,.1.08-.3,11.66,8.4Zm-13-2.78-8.67-3,7.09-10.28,5.91,1.85Zm-5.07,13.82-8.85-7.84L106.6,51l-5.18-3,10.71-5.62ZM101.41,47.65l.19-14,10.45,8.42Zm.17-14.82-.66-1.14a11.38,11.38,0,0,0,2.61-2.23Zm-.19.27-.08-.06v.15H97.05a11,11,0,0,0,3.62-1.35ZM76.08,48.16l-6.73-2.89,8.14-3ZM69,45.1l-.09,0L64.64,33.92,70.54,32l6.88,10Zm-.36.1L55.85,47.9,52.6,42.28,64.15,34l0,.11.15,0h0ZM53.82,47.91l-10.43,0,8.91-5.39A10.91,10.91,0,0,1,53.82,47.91Zm-10.54-.32,5.18-9a11.21,11.21,0,0,1,2.15,1.66,10.42,10.42,0,0,1,1.54,1.95Zm5.33-9.24.69-1.2,1.94,3.37A11.44,11.44,0,0,0,48.61,38.35Zm-.26-.16a11.06,11.06,0,0,0-3-1.13H49Zm-.15.26-5.19,9V37.07A10.86,10.86,0,0,1,48.2,38.45Zm-5.49,9L37.6,38.4a10.88,10.88,0,0,1,5.11-1.33Zm-5.26-9.31-.61-1.08h3.47A11,11,0,0,0,37.45,38.14Zm-.26.16a11.14,11.14,0,0,0-2.57,2.06l1.89-3.28Zm-2.09,2a10.64,10.64,0,0,1,2.24-1.71l5.1,9L33.58,42.2A11,11,0,0,1,35.1,40.27Zm7.22,7.6-10.42,0a10.92,10.92,0,0,1,1.52-5.46Zm-10.72.05H30.25l1.83-3.16A11,11,0,0,0,31.6,47.92Zm0,.3a11.3,11.3,0,0,0,.55,3.3l-1.9-3.3Zm4.64,11L25.69,67.7l-.1,0-6.91-10L30,48.3ZM24,74.05l-6.74-2.88,8.15-3Zm.2.42,6.32,2.7L21.66,85Zm6.55,2.9,5.63,11.2-3,5.24L21.64,85.4Zm2.71,16.87,8.9,5.42-10.42,0A10.92,10.92,0,0,1,33.42,94.24ZM31.6,99.71H30.25l1.83-3.16A11,11,0,0,0,31.6,99.71Zm0,.3a11.17,11.17,0,0,0,.55,3.29L30.25,100Zm4.64,11-10.55,8.5-.1,0-6.91-10L30,100.09ZM24,125.84,17.22,123l8.15-3Zm.2.42,6.32,2.7-8.82,7.82Zm6.55,2.9,5.63,11.2-3,5.24-11.67-8.41ZM33.42,146l8.9,5.42-10.42,0A10.92,10.92,0,0,1,33.42,146ZM31.6,151.5H30.25l1.83-3.16A11,11,0,0,0,31.6,151.5Zm0,.3a11.3,11.3,0,0,0,.55,3.3l-1.9-3.3Zm4.64,11-10.55,8.5-.1,0-6.91-10L30,151.88ZM24,177.63l-6.74-2.89,8.15-3Zm.2.42,6.32,2.7-8.82,7.82Zm6.55,2.9,5.63,11.2-3,5.24L21.64,189Zm2.71,16.87,8.9,5.42-10.42,0A10.92,10.92,0,0,1,33.42,197.82Zm-1.82,5.46H30.25l1.83-3.16A11,11,0,0,0,31.6,203.28Zm0,.31a11.3,11.3,0,0,0,.55,3.3l-1.9-3.3Zm4.64,11-10.55,8.5-.1,0-6.91-10L30,203.67Zm0,.35.19,14-10.63-5.58Zm.19-.54-2-3.5a11.29,11.29,0,0,0,2.78,2.27l-.66,1.17v0Zm12.7.38L49,229H36.78l-.19-14.25Zm-4.25-.3a11.22,11.22,0,0,0,3.61-1.35l.72,1.25-.08-.06v.16ZM48.8,213a11.55,11.55,0,0,0,2.6-2.23l-1.95,3.37Zm.67,2,10.45,8.41-10.64,5.58ZM60,223.62l3.94,16.59-8.86-7.85-.6-.14-5.19-3Zm7.43-10.49,5.9,1.85L69,226.38l-8.68-3Zm1.76-12.23L76,203.82l-2.5,10.51Zm13.64,5.95L88.46,218l-3,5.24-11.67-8.4Zm2.88,16.61a10.51,10.51,0,0,1,1.52-1.93,11.07,11.07,0,0,1,2.24-1.71l5.1,9Zm4-3.79a10.77,10.77,0,0,1,5.11-1.34v10.38ZM88.79,218v0L95,204.14,101.28,218H88.79Zm12.34.3-.65,1.14a11.22,11.22,0,0,0-3-1.14Zm-.54,1.55a10.5,10.5,0,0,1,3.68,3.61l-8.86,5.37Zm1-1.75L107.13,207l.07,0,.06-.09,8.92,7.91,0,.09-11.62,8.37Zm10.86-20.29,8.63,3L122.57,213l-5.92,1.94,0-.11-.16-.14Zm10.21,15.42,6.88,10-8.47,3.14-.09,0-4.23-11.13Zm.26-.15,11.27-9.43,6.29,10.9-10.55,8.5-.1,0Zm17.61,1.82.19,14-10.63-5.58Zm.19-.54-2-3.5a11.29,11.29,0,0,0,2.78,2.27l-.66,1.17v0Zm12.7.38-.2,14.25H141l-.19-14.25Zm-4.25-.3a11.22,11.22,0,0,0,3.61-1.35l.72,1.25-.07-.06v.16Zm3.87-1.51a11.55,11.55,0,0,0,2.6-2.23l-1.94,3.37Zm.67,2,10.45,8.41-10.64,5.58Zm10.53,8.7,3.94,16.59-8.86-7.85-.6-.14-5.19-3Zm7.43-10.49,5.9,1.85-4.32,11.4-8.68-3Zm1.76-12.23,6.82,2.92-2.5,10.51Zm13.64,5.94,5.63,11.2-3,5.24L178,214.88ZM190,223.46a10.51,10.51,0,0,1,1.52-1.93,11.07,11.07,0,0,1,2.24-1.71l5.1,9Zm4-3.79a10.77,10.77,0,0,1,5.11-1.34v10.38Zm-.92-1.65,0,0,6.23-13.86L205.53,218H193.05Zm12.33.3-.65,1.14a11.22,11.22,0,0,0-2.95-1.14Zm-.54,1.55a11.21,11.21,0,0,1,2.15,1.66,11.53,11.53,0,0,1,1.53,1.95l-8.86,5.37Zm1-1.75L211.38,207l.07,0,.06-.09,8.92,7.91,0,.09-11.62,8.37Zm10.86-20.29,8.63,2.95L226.82,213l-5.91,1.94,0-.11-.16-.14Zm0-.31,7.09-10.28,5.91,1.85-4.33,11.4Zm7.13-10.58,1.44-11.85,4.39,13.68Zm-.29-.05-11.07-9.26L225,175Zm-11.32-9.51L209,171.75l11.55-8.32,0,.12.15-.05h0L225,174.67ZM220.86,163l-.16-.14-4-16.82,8.63,2.95,1.48,12.18-5.91,1.94Zm-4.15-17.28,7.09-10.28,5.91,1.85-4.33,11.4Zm7.13-10.58,1.44-11.84L229.67,137Zm-.29-.05-11.07-9.26L225,123.18Zm-11.32-9.51L209,120l11.55-8.32,0,.12.15-.05h0L225,122.88Zm8.63-14.37-.16-.14-4-16.82,8.63,2.95,1.48,12.18-5.91,1.94Zm-4.15-17.28,7.09-10.28,5.91,1.85-4.33,11.4Zm7.13-10.58,1.44-11.84,4.39,13.67Zm-.29,0-11.07-9.26L225,71.39ZM212.23,73.8,209,68.17l11.55-8.32,0,.12.15,0h0L225,71.09Zm8.63-14.37-.16-.14-4-16.82,8.63,3,1.48,12.18-5.91,1.94Zm-4.15-17.28,7.09-10.28,5.91,1.85-4.33,11.4Zm7.13-10.58,1.44-11.84,4.39,13.67Zm-.29-.05-11.07-9.26L225,19.6Zm-.09.32-6.93,10L205.9,33.31l6.29-10.9Zm-14.67-4.36-8.58-5.2,10,0A10.87,10.87,0,0,1,208.79,27.48Zm-.15.26A10.56,10.56,0,0,1,205,31.43l-5.21-9Zm-3.87,3.84a10.94,10.94,0,0,1-5.23,1.5V22.53Zm.78,1.91-.19,14.26h-12.2L193,33.49Zm-12.33-.3.65-1.15a11,11,0,0,0,3.29,1.15Zm-.6.12-10.55,8.5-.11,0-6.91-10,11.27-9.43ZM175,31.52,173.52,19.6,186,22.26Zm-.28.19-5.91,1.93,0-.1-.16-.15-4-16.82,8.63,2.95Zm-6.36,1.94L156.7,42l-3-5.17,5.53-11.15.08,0,0-.09,8.93,7.9Zm-14.74,2.8-6.28-13.9,11.31,2.79.37.21Zm-.19.31H140.92v0l6.22-13.85Zm-12.67-.36-5.51-11L147,22.55Zm-.14.38-3,5.24-11.67-8.41,9.07-8ZM125.91,33.2l2.51-10.52,6.31,2.71Zm-.28-.13-4.32-13.44,6.83,2.93Zm-.21.33-5.83-1.83L121,19.73Zm-6.12-1.88-11.07-9.26,12.51-2.66Zm-.09.32-6.93,10-10.63-8.57,6.29-10.9Zm-14.67-4.36L96,22.28l10,0A11,11,0,0,1,104.54,27.48Zm-.15.26a10.56,10.56,0,0,1-3.62,3.69l-5.21-9Zm-3.88,3.84a10.9,10.9,0,0,1-5.22,1.5V22.53Zm.79,1.91-.19,14.26H88.91l-.2-14.26ZM89,33.19,89.62,32a11,11,0,0,0,3.29,1.15Zm-.6.12-10.55,8.5-.11,0-6.91-10,11.27-9.43ZM70.72,31.52,69.27,19.6l12.51,2.66Zm-.28.19-5.91,1.93,0-.1-.16-.15-4-16.82L69,19.52Zm-6.36,1.94L52.45,42l-3-5.17L55,25.7l.08,0,.05-.09,8.93,7.9Zm-14.74,2.8-6.28-13.9,11.31,2.79.37.21Zm-.19.31H36.67v0l6.22-13.85ZM36.48,36.4,31,25.44,42.7,22.55Zm-.14.38-3,5.24L21.64,33.61l9.07-8ZM21.66,33.2l2.5-10.52,6.32,2.71Zm-.27.88,0,.1.08-.3,11.66,8.4L29.91,47.9,17.17,45.2Zm8.27,14.07L18.59,57.42,17.15,45.49ZM25.3,67.85,16.82,71l-.09,0L12.51,59.82l5.91-1.94Zm-8.52,3.66,4.39,13.68-5.83-1.83Zm.28-.09,6.83,2.93L21.38,84.86Zm4.33,14.45,0,.1.08-.3,11.66,8.4-3.25,5.62L17.17,97Zm8.27,14.07-11.07,9.27L17.15,97.28Zm-4.36,19.7-8.48,3.14-.09,0-4.22-11.13,5.91-1.94Zm-8.52,3.66L21.17,137l-5.83-1.83Zm.28-.09,6.83,2.93-2.51,10.51Zm4.33,14.45,0,.1.08-.3,11.66,8.4-3.25,5.62-12.74-2.71Zm8.27,14.07L18.59,161l-1.44-11.93Zm-4.36,19.7-8.48,3.14-.09,0L12.51,163.4l5.91-1.94Zm-8.52,3.66,4.39,13.68-5.83-1.83Zm.28-.09,6.83,2.93-2.51,10.51Zm4.33,14.45,0,.1.08-.3,11.66,8.4-3.25,5.62-12.74-2.71Zm8.27,14.07-11.07,9.27-1.44-11.93Zm-4.36,19.7-8.48,3.14-.09,0-4.22-11.13,5.91-1.94Zm-8.52,3.66,4.39,13.67-5.83-1.82Zm.28-.09,6.83,2.93-2.51,10.51Zm13.65,6,5.63,11.2-3,5.24-11.67-8.41Zm5.77,10.82L31,232.6l11.74-2.89Zm-5.71-11.22-6.54-2.8,1.43-6,10.94,5.74H49l-.06.11L53.42,232l-10.52-2.6,0-.05,0,.05h0Zm23.6.15.37.22-5.4,10.89-6.28-13.89ZM49.47,244,55,232.86l.08,0,.05-.1,8.93,7.91,0,.09-11.63,8.38Zm10.86-20.28,8.63,3,1.48,12.19-5.91,1.93,0-.1-.16-.15Zm8.94,3,12.51,2.66-11.06,9.26Zm0-.3,4.22-11.12,0,.1.07-.3,11.67,8.4L82,229.17Zm14.43,3a11.24,11.24,0,0,0,.55,3.3l-1.91-3.29Zm.3,0,10.3,0-8.77,5.34.16.26,9-5.49-5.22,9.23a10.89,10.89,0,0,1-5.48-9.3Zm5.59,9.72a11.18,11.18,0,0,0,3.29,1.15H89Zm.15-.26L95,229.7v10.54h0A11,11,0,0,1,89.77,238.94Zm5.36-10.22V218.33a10.76,10.76,0,0,1,5.2,1.39Zm.16,1,5.22,9.06a10.9,10.9,0,0,1-5.22,1.5Zm.67-.24,10,0a11,11,0,0,1-1.4,5.16Zm10.28,0h1.4l-2,3.54A11.32,11.32,0,0,0,106.24,229.48Zm-1.51-5.94,11.55-8.32,0,.12.15-.05h0l4.24,11.18L108,229.17Zm16,3.22-1.44,11.92-11.07-9.26Zm.29.12,4.39,13.67-5.83-1.82Zm.28-.09,6.83,2.93-2.51,10.51Zm13.65,6,5.63,11.2-3,5.24-11.67-8.41Zm5.77,10.82-5.51-11L147,229.71ZM135,232.34l-6.53-2.8,1.42-6,10.94,5.74h12.44l-.06.11,4.45,2.54-10.52-2.6,0-.05,0,.05h0Zm23.6.15.37.22-5.4,10.89-6.28-13.89ZM153.72,244l5.53-11.15.08,0,0-.1,8.93,7.91,0,.09-11.63,8.38Zm10.86-20.28,8.63,3,1.48,12.19-5.91,1.93,0-.1-.16-.15Zm8.94,3L186,229.42,175,238.68Zm0-.3,4.22-11.12,0,.1.07-.3,11.67,8.4-3.25,5.63Zm14.43,3a11.24,11.24,0,0,0,.55,3.3l-1.91-3.29Zm.3,0,10.3,0-8.77,5.34.16.26,9-5.49-5.22,9.23a10.89,10.89,0,0,1-5.48-9.3Zm5.59,9.72a11.18,11.18,0,0,0,3.29,1.15h-3.94Zm.15-.26,5.22-9.24v10.54h0A11,11,0,0,1,194,238.94Zm5.36-10.22V218.33a10.76,10.76,0,0,1,5.2,1.39Zm.16,1,5.23,9.06a10.94,10.94,0,0,1-5.23,1.5Zm.67-.24,10,0a10.87,10.87,0,0,1-1.4,5.16Zm10.28,0h1.4l-2,3.54A11.32,11.32,0,0,0,210.49,229.48ZM209,223.54l11.55-8.32,0,.12.15-.05h0L225,226.46l-12.74,2.71Zm16,3.22-1.45,11.92-11.07-9.26Zm.28.12,4.39,13.67-5.83-1.82Zm.28-.09,6.83,2.93-2.51,10.51Zm-.23-.43-.09,0L221,215.19l5.91-1.94,6.88,10Zm.32-25.5,12.51,2.66-11.07,9.27Zm4.23-12.42L225.56,175l6.83,2.93Zm-4.55-13.87-.09,0L221,163.4l5.91-1.94,6.88,10Zm.32-25.5,12.51,2.66L227.09,161Zm4.23-12.42-4.32-13.44,6.83,2.93Zm-4.55-13.87-.09,0L221,111.61l5.91-1.94,6.88,10Zm.32-25.5,12.51,2.66-11.07,9.27Zm4.23-12.42-4.32-13.44,6.83,2.93ZM225.33,71l-.09,0L221,59.82l5.91-1.94,6.88,10Zm.32-25.5,12.51,2.66-11.07,9.27Zm4.23-12.42-4.32-13.44,6.83,2.93Zm-9.35-25,0,.12.15,0h0L225,19.3,212.23,22,209,16.38ZM210.19,22l-10.42,0,8.91-5.4A10.91,10.91,0,0,1,210.19,22Zm-10.53-.33,5.18-9A10.78,10.78,0,0,1,207,14.37a11.53,11.53,0,0,1,1.53,2Zm6-10.43,1.94,3.36A11.44,11.44,0,0,0,205,12.45Zm-.3-.1-.65,1.14a11.08,11.08,0,0,0-2.95-1.14Zm-6,0a11,11,0,0,1,5.2,1.39l-5.2,9Zm-.14,11.37V33.08h0A11,11,0,0,1,194,31.78Zm-.16-1-5.11-9a10.89,10.89,0,0,1,5.11-1.34Zm-2.39-10.39a11.42,11.42,0,0,0-2.86,1.08l-.62-1.08Zm-3.81,0,.69,1.21A11.46,11.46,0,0,0,191,14.46Zm-1.4,3.18a11.07,11.07,0,0,1,2.24-1.71l5.1,9L190,16.3A10.51,10.51,0,0,1,191.48,14.37Zm-1.68,2.19L198.7,22l-10.43,0A10.87,10.87,0,0,1,189.8,16.56Zm-12-8.38,0,.11.07-.31,11.67,8.4L186.29,22,173.55,19.3ZM171.68,6l5.9,1.86-4.32,11.39-8.68-3Zm-3.49,27.08-8.86-7.84-.6-.15-5.19-3,10.71-5.62Zm-4-16.88-10.64,5.59.19-14ZM155.65,3.56l-1.94,3.37-.66-1.14A11.55,11.55,0,0,0,155.65,3.56ZM152.79,6l.72,1.25-.07-.06V7.3h-4.25A11.22,11.22,0,0,0,152.79,6Zm.64,1.65-.2,14.25H141L140.84,7.6ZM141.75,6.14A11.2,11.2,0,0,0,145,7.3H141.1Zm-3-2.42A11.29,11.29,0,0,0,141.49,6l-.66,1.17v0l-.1.08Zm1.83,4,.19,14L130.1,16.17Zm-10.63,8.65,10.94,5.74h12.44l-.06.11,4.44,2.54-10.51-2.6,0-.05,0,.05h0l-12.08,3-6.53-2.8Zm-1.7,5.85-6.74-2.88,8.15-3ZM122.67,6.09l6.88,10-8.48,3.14-.08,0L116.76,8Zm-6.39,2,0,.12.15,0h0l4.24,11.18L108,22l-3.25-5.63ZM105.94,22,95.52,22l8.91-5.4A10.91,10.91,0,0,1,105.94,22Zm-10.53-.33,5.18-9a11.07,11.07,0,0,1,2.15,1.65,11.53,11.53,0,0,1,1.53,2Zm6-10.43,2,3.36a11.44,11.44,0,0,0-2.63-2.17Zm-.29-.1-.65,1.14a11.22,11.22,0,0,0-3-1.14Zm-6,0a11,11,0,0,1,5.2,1.39l-5.2,9ZM95,22.54V33.08h0a11,11,0,0,1-5.21-1.31Zm-.16-1-5.11-9a10.89,10.89,0,0,1,5.11-1.34ZM92.44,11.16a11.64,11.64,0,0,0-2.87,1.08L89,11.16Zm-3.81,0,.69,1.21a11.23,11.23,0,0,0-2.58,2.07Zm-1.4,3.18a11.07,11.07,0,0,1,2.24-1.71l5.1,9-8.86-5.4A10.51,10.51,0,0,1,87.23,14.37Zm-1.68,2.19L94.45,22,84,22A10.87,10.87,0,0,1,85.55,16.56Zm-12-8.38,0,.11L73.62,8l11.67,8.4L82,22,69.3,19.3ZM67.43,6l5.9,1.86L69,19.22l-8.68-3ZM63.94,33.05l-8.86-7.84-.6-.15-5.19-3L60,16.47Zm-4-16.88L49.28,21.76l.19-14ZM51.4,3.56,49.45,6.93,48.8,5.79A11.55,11.55,0,0,0,51.4,3.56ZM48.54,6l.72,1.25-.08-.06V7.3H44.93A11.22,11.22,0,0,0,48.54,6Zm.64,1.65L49,21.85H36.78L36.59,7.6ZM37.5,6.14A11.24,11.24,0,0,0,40.78,7.3H36.85Zm-3-2.42A11.29,11.29,0,0,0,37.24,6l-.66,1.17v0l-.1.08Zm1.83,4,.19,14L25.85,16.17ZM25.66,16.41,36.6,22.15H49l-.06.11,4.44,2.54L42.9,22.2l0-.05,0,.05h0l-12.08,3-6.54-2.8ZM24,22.26l-6.74-2.88,8.15-3ZM18.42,6.09l6.88,10L16.82,19.2l-.09,0L12.51,8Zm-17,12.57L3.39,22H2A11.31,11.31,0,0,0,1.45,18.66Zm-.1,7.21A11.32,11.32,0,0,0,2,22.32h1.4ZM.48,16.38,12,8.06l0,.12.15,0h0L16.47,19.3,3.73,22ZM4,22.26,16.49,19.6,15.05,31.52ZM15.3,31.87l5.91,1.85-4.33,11.4-8.67-3ZM8.21,42.47l8.63,3L18.32,57.6,12.4,59.54l0-.11-.16-.14Zm-6.76,28,1.94,3.37H2A11.31,11.31,0,0,0,1.45,70.45Zm-.1,7.21A11.32,11.32,0,0,0,2,74.11h1.4ZM.48,68.17,12,59.85l0,.12.15,0h0l4.24,11.18L3.73,73.8ZM4,74.05l12.51-2.66L15.05,83.31ZM15.3,83.66l5.91,1.85-4.33,11.4-8.67-3ZM8.21,94.26l8.63,2.95,1.48,12.18-5.92,1.94,0-.11-.16-.14Zm-6.76,28,1.94,3.37H2A11.31,11.31,0,0,0,1.45,122.24Zm-.1,7.21A11.32,11.32,0,0,0,2,125.9h1.4ZM.48,120,12,111.64l0,.12.15-.05h0l4.24,11.18L3.73,125.59ZM4,125.84l12.51-2.66L15.05,135.1Zm11.32,9.61,5.91,1.85-4.33,11.4-8.67-3ZM8.21,146l8.63,3,1.48,12.18-5.92,1.94,0-.11-.16-.14ZM1.45,174l1.94,3.37H2A11.31,11.31,0,0,0,1.45,174Zm-.1,7.21A11.32,11.32,0,0,0,2,177.69h1.4Zm-.87-9.49L12,163.43l0,.12.15-.05h0l4.24,11.18L3.73,177.38ZM4,177.63,16.49,175l-1.44,11.92Zm11.32,9.61,5.91,1.85-4.33,11.4-8.67-3ZM8.21,197.83l8.63,3L18.32,213l-5.92,1.94,0-.11-.16-.14Zm-6.76,28,1.94,3.37H2A11.31,11.31,0,0,0,1.45,225.82ZM1.35,233A11.32,11.32,0,0,0,2,229.48h1.4Zm-.87-9.49L12,215.22l0,.12.15-.05h0l4.24,11.18L3.73,229.17ZM4,229.42l12.51-2.66-1.44,11.92Zm12.9,22.86-8.67-3L15.3,239l5.91,1.85Zm13,2.78-12.75-2.71,4.22-11.11,0,.1.08-.31,11.66,8.41Zm1.68,0H30.25l1.83-3.16A11,11,0,0,0,31.6,255.07Zm.3,0a10.92,10.92,0,0,1,1.52-5.46l8.9,5.42Zm1.68-5.72a11.26,11.26,0,0,1,1.52-1.92,10.64,10.64,0,0,1,2.24-1.71l5.1,9Zm9.13,5.26-5.11-9.05a11,11,0,0,1,5.11-1.34Zm.15-10.7H36.67v0L42.88,230l6.27,13.88H42.86ZM43,254.62v-10.4a11,11,0,0,1,5.19,1.39Zm5.45-8.85a10.83,10.83,0,0,1,2.15,1.66,10.42,10.42,0,0,1,1.54,1.95l-8.87,5.37ZM43.39,255l8.91-5.4a10.84,10.84,0,0,1,1.52,5.44Zm10.73,0a10.94,10.94,0,0,0-.55-3.35l2,3.36Zm1.73,0-3.25-5.62,11.55-8.32,0,.11.15,0h0l4.24,11.17Zm13.1-2.8-.09,0-4.22-11.14,5.9-1.93,6.88,10Zm7.13,3.06-6.73-2.89,8.14-3ZM77.71,249,70.8,239l11.27-9.44,6.3,10.91L77.82,249Zm.26.22,10.45-8.42.19,14Zm10.74-9-.11.09-2-3.51A11.12,11.12,0,0,0,89.37,239l-.66,1.17Zm12.4,14.72H88.91l-.2-14.26H101.3Zm.2-14.72v.16H97.06a11.07,11.07,0,0,0,3.61-1.35l.72,1.26Zm.1,14.62.19-14,10.45,8.42Zm.24-14.34,6.29-10.91L119.21,239l-6.93,10Zm19.48,11.81-8.67-3L119.55,239l5.91,1.85Zm13,2.78-12.75-2.71,4.22-11.11,0,.1.08-.31,11.66,8.41Zm1.68,0H134.5l1.83-3.16A11,11,0,0,0,135.85,255.07Zm.3,0a10.92,10.92,0,0,1,1.52-5.46l8.91,5.42Zm1.68-5.72a11.26,11.26,0,0,1,1.52-1.92,10.64,10.64,0,0,1,2.24-1.71l5.1,9Zm9.13,5.26-5.11-9.05a11,11,0,0,1,5.11-1.34Zm.15-10.7h-6.19v0L147.13,230l6.27,13.88h-6.29Zm.15,10.71v-10.4a11,11,0,0,1,5.19,1.39Zm5.45-8.85a11.21,11.21,0,0,1,2.15,1.66,10.42,10.42,0,0,1,1.54,1.95l-8.87,5.37ZM147.64,255l8.91-5.4a10.84,10.84,0,0,1,1.52,5.44Zm10.73,0a10.94,10.94,0,0,0-.55-3.35l2,3.36Zm1.73,0-3.25-5.62,11.55-8.32,0,.11.15,0h0l4.24,11.17Zm13.1-2.8-.09,0-4.22-11.14,5.9-1.93,6.88,10Zm7.13,3.06-6.73-2.89,8.14-3ZM182,249l-6.91-10,11.27-9.44,6.3,10.91L182.07,249Zm.26.22,10.45-8.42.19,14Zm10.74-9-.11.09-2-3.51a11.12,11.12,0,0,0,2.79,2.27l-.66,1.17Zm12.4,14.72h-12.2l-.2-14.26h12.59Zm.2-14.72v.16h-4.25a11.07,11.07,0,0,0,3.61-1.35l.72,1.26Zm.1,14.62.19-14,10.45,8.42Zm.24-14.34,6.29-10.91L223.46,239l-6.93,10Zm19.48,11.81-8.67-3L223.8,239l5.91,1.85Zm13,2.78-12.75-2.71,4.22-11.11,0,.1L230,241l11.66,8.41Zm1.68,0h-1.35l1.83-3.16A11,11,0,0,0,240.1,255.07Zm.3,0a11,11,0,0,1,1.52-5.46l8.91,5.42Zm1.68-5.72a11.78,11.78,0,0,1,1.52-1.92,10.64,10.64,0,0,1,2.24-1.71l5.1,9Zm9.13,5.26-5.11-9.05a11,11,0,0,1,5.11-1.34Zm-2.4-10.4A11.35,11.35,0,0,0,246,245.3l-.61-1.09Zm-3.12,1.24a11.18,11.18,0,0,0-2.57,2.07l1.89-3.28Zm5.52-15.74L245,243.56l-5.51-11Zm-6.37,14.23-3,5.24-11.67-8.41,9.07-8ZM239,232.54l-8.82,7.82,2.51-10.52Zm-6.52-3.12-6.74-2.89,8.15-3Zm1.63-6.31-6.91-10,11.27-9.43,6.29,10.9-10.55,8.5Zm.26.22,10.44-8.41.2,14Zm10.73-9v0l-.1.08-2-3.5a11.29,11.29,0,0,0,2.78,2.27Zm.27.14.65-1.16a11.24,11.24,0,0,0,3.28,1.16Zm6-10.66v10.54h.23l-.24,0a10.89,10.89,0,0,1-5.21-1.32Zm-.16-1-5.11-9a11,11,0,0,1,5.11-1.34Zm-2.4-10.4a11.35,11.35,0,0,0-2.86,1.09l-.61-1.09Zm-3.12,1.24a11.18,11.18,0,0,0-2.57,2.07l1.89-3.28Zm5.52-15.74L245,191.77l-5.51-11Zm-6.37,14.23-3,5.24L230.14,189l9.07-8ZM239,180.75l-8.82,7.82,2.51-10.52Zm-6.52-3.12-6.74-2.89,8.15-3Zm1.63-6.31-6.91-10,11.27-9.43,6.29,10.9-10.55,8.5Zm.26.22,10.44-8.41.2,14Zm10.73-9v0l-.1.08-2-3.5a11.29,11.29,0,0,0,2.78,2.27Zm.27.14.65-1.16a11.24,11.24,0,0,0,3.28,1.16Zm6-10.66v10.54h.22l-.23,0a10.89,10.89,0,0,1-5.21-1.32Zm-.16-1L246.1,142a11,11,0,0,1,5.11-1.34Zm-2.4-10.39a11,11,0,0,0-2.86,1.08l-.61-1.08Zm-3.12,1.24a10.88,10.88,0,0,0-2.57,2.06l1.89-3.28Zm5.52-15.75L245,140l-5.51-11Zm-6.37,14.23-3,5.24-11.67-8.41,9.07-8ZM239,129l-8.82,7.82,2.51-10.52Zm-6.52-3.12L225.72,123l8.15-3Zm1.63-6.31-6.91-10,11.27-9.43,6.29,10.9-10.55,8.5Zm.26.22,10.44-8.41.2,14Zm10.73-9v0l-.1.08-2-3.5a11.29,11.29,0,0,0,2.78,2.27Zm.27.14.65-1.16a11.14,11.14,0,0,0,3.28,1.16Zm6-10.66v10.54h.24l-.25,0a10.89,10.89,0,0,1-5.21-1.32Zm-.16-1-5.11-9a11,11,0,0,1,5.11-1.34Zm-2.4-10.39A11,11,0,0,0,246,89.93l-.61-1.08Zm-3.12,1.23a11.18,11.18,0,0,0-2.57,2.07L245,88.87Zm5.52-15.74L245,88.19l-5.51-11Zm-6.37,14.23-3,5.24L230.14,85.4l9.07-8ZM239,77.17,230.16,85l2.51-10.52Zm-6.52-3.12-6.74-2.88,8.15-3Zm1.63-6.31-6.91-10,11.27-9.43,6.29,10.9-10.55,8.5Zm.26.22,10.44-8.41.2,14Zm10.73-9v0L245,59l-2-3.5a11.29,11.29,0,0,0,2.78,2.27Zm.27.14.65-1.16a11.2,11.2,0,0,0,3.29,1.16Zm6-10.66V59h.24l-.25,0a10.89,10.89,0,0,1-5.21-1.32Zm-.16-1L246.1,38.4a10.88,10.88,0,0,1,5.11-1.33Zm-2.4-10.39A11,11,0,0,0,246,38.14l-.61-1.08Zm-3.12,1.24a11.14,11.14,0,0,0-2.57,2.06L245,37.08Zm5.52-15.75L245,36.4l-5.51-11Zm-6.37,14.23-3,5.24-11.67-8.41,9.07-8ZM239,25.39l-8.82,7.81,2.51-10.52Zm-6.52-3.13-6.74-2.88,8.15-3Zm1.89-6.09,10.44-8.41.2,14Zm10.73-9v0l-.1.08-2-3.5A11.29,11.29,0,0,0,245.74,6Zm.27.14L246,6.14a11.2,11.2,0,0,0,3.29,1.16Z"/></g></svg>