<svg xmlns="http://www.w3.org/2000/svg" viewBox="0 0 256 256"><defs><style>.cls-1{fill:#4a6266;}</style></defs><title>seamless_pattern19</title><g id="seamless_pattern19"><path class="cls-1" d="M256,4.33l-.54.93h-6.7L251.81,0h-.37l-2.93,5.07L245.57,0h-.38l3.05,5.27h-8L237.19,0h-.37l3.06,5.27h-6.53L230.3,0h-.37L233,5.31h-6.27L223.67,0h-.36l6.49,11.26h-6.63L219,4.06,221.39,0H221l-2.17,3.75L216.7,0h-.37l2.34,4.07-4.17,7.19h-6.19L214.81,0h-.37l-3,5.27h-6.7L207.75,0h-.37l-2.93,5.07L201.51,0h-.38l3.05,5.27h-8L193.13,0h-.37l3.06,5.27h-6.53l-3-5.27h-.36L189,5.31h-6.27L179.61,0h-.36l6.49,11.26h-6.63L175,4.06,177.33,0H177l-2.17,3.75L172.64,0h-.36l2.33,4.07-4.17,7.19h-6.19L170.75,0h-.37l-3,5.27h-6.71L163.69,0h-.36l-2.94,5.07L157.45,0h-.38l3.05,5.27h-8L149.07,0h-.37l3.06,5.27h-6.53l-3-5.27h-.36l3.07,5.32h-6.27L135.56,0h-.37l6.49,11.26h-6.63l-4.13-7.19L133.27,0h-.36l-2.17,3.75L128.58,0h-.36l2.33,4.07-4.16,7.19H120.2L126.69,0h-.37l-3,5.27h-6.71l3-5.27h-.36l-2.94,5.07L113.39,0H113l3,5.27h-8L105,0h-.37l3.06,5.27h-6.53L98.12,0h-.36l3.07,5.32H94.56L91.5,0h-.37l6.5,11.26H91L86.86,4.06,89.21,0h-.36L86.68,3.74,84.52,0h-.36l2.33,4.07-4.16,7.19H76.14L82.63,0h-.36l-3,5.27H72.52l3-5.27h-.36L72.27,5.06,69.34,0H69l3,5.27H64L61,0h-.37l3.06,5.27H57.11L54.06,0H53.7l3.08,5.32H50.5L47.44,0h-.37l6.5,11.26H46.93L42.8,4.06,45.16,0h-.37L42.62,3.74,40.46,0H40.1l2.33,4.07-4.16,7.19H32.08L38.57,0h-.36l-3,5.27H28.46L31.52,0h-.37L28.21,5.06,25.28,0h-.39l3.05,5.27H20L16.89,0h-.36l3.06,5.27H13.06L10,0H9.64l3.08,5.32H6.45L3.38,0H3L9.51,11.25H2.87L0,6.26V6.9l2.5,4.35H0v.32H2.69l3.2,5.57H0v.31H6.07l4,7L0,24.49v.32l3.32,0,3,5.11H0v.34H6.48l.22.38h0l3.39,5.85h0L6.18,43.22,0,32.55v.67l1.82,3.15H0v.32H2l3.89,6.73H0v.31H5.93L2.76,49.41H0v.32H2.59L0,54.17v.63l3-5.07H9.51L2.07,62.62,0,59.05v.63l1.88,3.26L0,66.2v.63l2.06-3.57,3.09,5.33L2,74,0,70.46v.63l1.86,3.24L0,77.56v.63l2.05-3.54L9.51,87.56H2.87L0,82.58v.63l2.5,4.35H0v.32H2.69l3.2,5.57H0v.32H6.07l4,7L0,100.81v.32l3.32,0,3,5.11H0v.33H6.48l.22.38h0l3.39,5.85h0l-3.93,6.78L0,108.87v.66l1.82,3.16H0V113H2l3.89,6.73H0v.32H5.93l-3.17,5.68H0V126H2.59L0,130.49v.62L3,126H9.51l-7.44,12.9L0,135.36V136l1.88,3.25L0,142.51v.64l2.06-3.58,3.09,5.34L2,150.3l-2-3.53v.64l1.86,3.24L0,153.88v.63L2.06,151l7.45,12.92H2.87l-2.86-5v.64l2.5,4.35H0v.32H2.69l3.2,5.57H0v.31H6.07l4,6.95L0,177.12v.32l3.32,0,3,5.11H0v.34H6.48l.22.38h0l3.39,5.84h0l-3.93,6.77L0,185.18v.67L1.83,189H0v.32H2l3.89,6.73H0v.31H5.93L2.76,202H0v.32H2.59L0,206.8v.63l3-5.07H9.51L2.07,215.25,0,211.68v.63l1.88,3.26L0,218.83v.63l2.06-3.57,3.09,5.34L2,226.61l-2-3.52v.63L1.87,227,0,230.19v.63l2.05-3.54L9.51,240.2H2.87l-2.86-5v.63l2.5,4.36H0v.31H2.69l3.2,5.57H0v.32H6.07l4,6.95L0,253.44v.32l3.32,0L4.65,256H5l-1.32-2.28,6.57-.06L11.63,256H12l-5.56-9.6h6.64l4,6.94L15.54,256h.37l1.36-2.34L18.62,256H19l-1.5-2.6L20.62,248l3.3,5.71L22.6,256H23l1.13-2,1.13,2h.37l-1.32-2.28,4.25-7.37h6.22L29.16,256h.36l1.29-2.23,1.3,2.23h.36l-1.24-2.13,16.16-.14L48.7,256h.39l-1.32-2.28,6.57-.06L55.69,256h.37l-5.57-9.6h6.65l4,6.94L59.6,256H60l1.35-2.34L62.68,256H63l-1.5-2.6L64.68,248,68,253.73,66.66,256H67l1.13-2,1.13,2h.37l-1.32-2.28,4.25-7.37h6.22L73.22,256h.36l1.29-2.23,1.3,2.23h.36l-1.24-2.13,16.16-.14L92.76,256h.39l-1.32-2.28,6.57-.06L99.75,256h.36l-5.56-9.6h6.65l4,6.94L103.66,256H104l1.36-2.34,1.36,2.34h.36l-1.5-2.6,3.14-5.38,3.29,5.71L110.72,256h.37l1.13-2,1.13,2h.37l-1.32-2.28,4.25-7.37h6.21L117.27,256h.37l1.29-2.23,1.3,2.23h.36l-1.24-2.13,16.16-.14,1.31,2.27h.39l-1.32-2.28,6.57-.06,1.35,2.34h.36l-5.56-9.6h6.64l4,6.94L147.72,256h.36l1.36-2.34,1.35,2.34h.37l-1.5-2.6,3.13-5.38,3.3,5.71L154.78,256h.37l1.12-2,1.14,2h.36l-1.31-2.27,4.25-7.38h6.21L161.33,256h.37l1.29-2.23,1.29,2.23h.37l-1.24-2.13,16.15-.14,1.32,2.27h.39L180,253.72l6.57-.06,1.35,2.34h.36l-5.56-9.6h6.64l4,6.94L191.78,256h.36l1.36-2.34,1.35,2.34h.37l-1.5-2.6,3.13-5.38,3.3,5.71L198.84,256h.36l1.13-2,1.14,2h.36l-1.31-2.27,4.25-7.38H211L205.39,256h.37l1.29-2.23,1.29,2.23h.37l-1.24-2.13,16.15-.14,1.32,2.27h.39L224,253.72l6.57-.06,1.36,2.34h.36l-5.56-9.6h6.64l4,6.94L235.83,256h.37l1.36-2.34,1.35,2.34h.37l-1.5-2.6,3.13-5.38,3.3,5.71L242.9,256h.36l1.13-2,1.13,2h.37l-1.32-2.27,4.26-7.38H255L249.45,256h.37l1.29-2.23L252.4,256h.37l-1.24-2.13,4.47,0v-.32l-4.77.05,4.15-7.16H256v-.32h-.45l.45-.78v-.64l-.79,1.38H249l3.19-5.53H256v-.31h-3.63l3.63-6.29v-.64l-.54.94h-6.7L256,221.7v-1l-7.24-12.5h6.64l.6,1v-.63l-3.63-6.29H256V202h-3.8L249,196.41h6.25l.8,1.41v-.64l-.46-.82H256v-.31h-.62l-7.52-13,3.25-5.61,3.25,5.6h0l1.64,2.82v-.63L254.7,183h0l-.09-.15H256v-.34h-1.5v.15l-3-5.12,4.47,0v-.32l-4.77,0,4.15-7.16H256v-.31h-.45L256,169v-.64l-.79,1.38H249l3.19-5.52H256v-.32h-3.63l3.63-6.29V157l-.54.93h-6.7l7.24-12.5v-1l-7.24-12.5h6.64l.6,1v-.63L252.37,126H256v-.31h-3.8L249,120.1h6.25l.8,1.41v-.65l-.46-.81H256v-.32h-.62l-7.52-13,3.25-5.61,3.25,5.61h0l1.64,2.81v-.62l-1.3-2.25h0l-.09-.15H256v-.33h-1.5v.14l-3-5.11,4.47,0v-.32l-4.77.05,4.15-7.16H256v-.32h-.45l.45-.79V92l-.79,1.38H249l3.19-5.53H256v-.32h-3.63L256,81.27v-.63l-.54.93h-6.7L256,69.07v-1l-7.24-12.5h6.64l.6,1V56l-3.63-6.29H256v-.32h-3.8L249,43.78h6.25l.8,1.41v-.64l-.46-.82H256v-.31h-.62l-7.52-13,3.25-5.6,3.25,5.6h0L256,33.25v-.63l-1.3-2.24h0l-.09-.15H256v-.34h-1.5V30l-3-5.12,4.47,0v-.31l-4.75,0h0l4.15-7.16H256v-.31h-.45l.45-.79v-.64l-.79,1.38H249l3.19-5.52H256v-.32h-3.63L256,5Zm-7.75,1.25-3.17,5.67h-8.37l-3.2-5.67ZM14,183.06l3.32-5.72,3.33,5.78-3.3,5.72L14,183.07h0Zm0-76.32L17.27,101l3.33,5.78-3.3,5.73L14,106.76h0Zm0-76.31,3.32-5.72,3.33,5.78-3.3,5.72L14,30.44h0ZM222.77,226.5l2.87-5,.08.14h0L233,234.25h-6.27L222.53,227l.26-.44Zm-.44.12-3.08-5.34,3.11-5.4,3.1,5.35Zm-6.57.68,3.3-5.73,3.11,5.39-3.32,5.73Zm7,12.9h-7.93l4-6.88Zm-51.1-12.9,3.3-5.73,3.11,5.39-3.32,5.73Zm7,12.9h-7.93l4-6.88Zm-51.1-12.9,3.3-5.73,3.11,5.39-3.31,5.73Zm7,12.9h-7.93l4-6.88Zm-51.1-12.9,3.3-5.73L90,227l-3.31,5.73Zm7,12.9H82.69l4-6.88Zm-51.1-12.9,3.3-5.73L45.93,227l-3.31,5.73Zm7,12.9H38.64l4-6.88ZM12.29,221h8l3.56,6.14h-8l-3.49-6h0Zm0-76.32h8l3.56,6.14h-8l-3.49-6h0Zm0-76.31h8l3.56,6.15h-8l-3.49-6h0Zm45.35-38-.17.3h0l-3.13,5.4-3.91-6.76h0l-2.67-4.6,6.57-.06,3.14,5.41h0Zm44.06,0-.17.3h0l-3.12,5.4L94.5,29.37h0l-2.67-4.6,6.57-.06,3.13,5.41h0Zm44.06,0-.17.3h0l-3.12,5.4-3.91-6.76h0l-2.67-4.6,6.57-.06,3.13,5.41h0Zm44.06,0-.17.3h0l-3.12,5.4-3.91-6.76h0L180,24.78l6.56-.06,3.14,5.41h0Zm44.06,0-.18.3h0l-3.12,5.4-3.91-6.76h0L224,24.78l6.57-.06,3.14,5.41h0Zm-22.2,191.09-3.12,5.39-3.91-6.75h0L202,215.57l6.56-.06,3.14,5.41h0l.18.29-.18.3Zm-23.16-.5h8l3.56,6.14h-8l-3.48-6h0Zm-.11-.34v.14l-3-5.11,16.15-.14,3,5.11Zm-20.79.84-3.12,5.39-3.91-6.75h0l-2.67-4.59,6.57-.06,3.13,5.41h0l.17.29-.17.3Zm-23.16-.5h8l3.56,6.14h-8l-3.48-6h0Zm-.11-.34v.14l-3-5.11,16.15-.14,3,5.11Zm-20.79.84-3.12,5.39-3.91-6.75h0l-2.67-4.59,6.57-.06,3.13,5.41h0l.17.29-.17.3ZM100.4,221h8l3.56,6.14h-8l-3.48-6h0Zm-.11-.34v.14l-3-5.11,16.16-.14,3,5.11Zm-20.78.84-3.13,5.39-3.91-6.75h0l-2.67-4.59,6.57-.06,3.14,5.41h0l.17.29-.17.3ZM56.35,221h8l3.56,6.14h-8l-3.48-6h0Zm-.12-.34v.14l-3-5.11,16.16-.14,3,5.11ZM36,144.9l3.31-5.72L42.63,145l-3.3,5.72L36,144.91h0Zm0-76.31,3.31-5.72,3.34,5.78-3.3,5.72L36,68.6h0ZM34.32,30.23h8l3.56,6.14h-8l-3.49-6h0Zm44.06,0h8L90,36.37h-8l-3.48-6h0Zm44.05,0h8L134,36.37h-8l-3.48-6h0Zm44.06,0h8l3.56,6.14h-8l-3.48-6h0Zm67.39,76.52-.18.3h0l-3.12,5.39-3.91-6.75h0l-2.67-4.6,6.57-.06,3.14,5.42h0Zm0,76.32-.18.29h0l-3.12,5.39L226.68,182h0l-2.67-4.6,6.57-.06,3.14,5.42h0Zm-63.25,19-3.21-5.68h14.74L179,202Zm8.2.32-4,6.87-4-6.87ZM126.57,202l-3.2-5.68H138.1L134.94,202Zm8.2.32-4,6.87-4-6.87ZM82.51,202l-3.2-5.68H94.05L90.88,202Zm8.2.32-4,6.87-4-6.87ZM38.45,202l-3.2-5.68H50L46.82,202Zm8.2.32-4,6.87-4-6.87ZM68.78,49.72,72,55.29H57.28l3.2-5.57Zm-8.12-.31,4-6.88,3.94,6.88Zm52.17.31,3.2,5.57H101.34l3.2-5.57Zm-8.11-.31,4-6.88,4,6.88Zm52.17.31,3.2,5.57H145.4l3.2-5.57Zm-8.11-.31,4-6.88,4,6.88Zm52.17.31,3.2,5.57H189.46l3.2-5.57Zm-8.11-.31,4-6.88,4,6.88ZM34.32,182.86h8L45.89,189h-8l-3.49-6h0Zm0-76.32h8l3.56,6.15h-8l-3.49-6h0ZM211.85,68.59l-.18.3h0l-3.12,5.39-3.91-6.75h0L202,62.93l6.57,0,3.14,5.41h0Zm0,76.32-.18.29h0l-3.12,5.39-3.91-6.75h0l-2.66-4.6,6.56-.06,3.14,5.42h0Zm-21.66,38.15,3.31-5.72,3.33,5.78-3.3,5.72-3.34-5.77h0Zm-.54.31-3.12,5.39L182.62,182h0l-2.67-4.6,6.56-.06,3.14,5.42h0l.17.3-.17.29Zm-23.16-.51h8l3.56,6.14h-8l-3.48-6h0Zm-.11-.34v.15l-3-5.12,16.15-.14,3,5.11Zm-20.25.54,3.31-5.72,3.34,5.78-3.31,5.72-3.34-5.77h0Zm-.54.31-3.12,5.39L138.56,182h0l-2.67-4.6,6.57-.06,3.13,5.42h0l.17.3-.17.29Zm-23.16-.51h8L134,189h-8l-3.48-6h0Zm-.11-.34v.15l-3-5.12,16.16-.14,3,5.11Zm-20.25.54,3.31-5.72,3.34,5.78-3.31,5.72-3.34-5.77h0Zm-.54.31-3.12,5.39L94.5,182h0l-2.67-4.6,6.57-.06,3.13,5.42h0l.17.3-.17.29Zm-23.15-.51h8L90,189h-8l-3.48-6h0Zm-.12-.34v.15l-3-5.12,16.16-.14,3,5.11ZM58,183.06l3.31-5.72,3.34,5.78-3.31,5.72L58,183.07h0ZM46.53,150.19l2.87-5,.08.13h0l7.29,12.58H50.5l-4.2-7.29.26-.45Zm0-76.32,2.87-5,.08.14h0l7.29,12.57H50.5l-4.2-7.29.26-.44Zm33.14-5.28-.17.3h0l-3.13,5.39-3.91-6.75h0l-2.67-4.6,6.57,0,3.14,5.41h0Zm10.92,5.28,2.87-5,.08.14h0l7.28,12.58H94.56l-4.2-7.29.26-.44Zm33.14-5.28-.17.3h0l-3.12,5.39-3.91-6.75h0l-2.67-4.6,6.57,0,3.13,5.41h0Zm10.92,5.28,2.87-5,.08.14h0l7.28,12.58h-6.27l-4.2-7.29.26-.44Zm33.14-5.28-.17.3h0l-3.12,5.39-3.91-6.75h0l-2.67-4.6,6.56,0,3.14,5.41h0Zm10.92,5.28,2.87-5,.08.14h0L189,81.62h-6.27l-4.2-7.29.25-.44Zm13.38.66-3.48-6h0l-.09-.15h8l3.56,6.15Zm8.19.32,3.9,6.72h-8l-3.92-6.72Zm-11.87-6.8v.14l-3-5.11,16.15-.14,3,5.11Zm-.13.54h0l7.55,13h-6.53l-7.52-13L185,63Zm3.81,82.25-3.48-6h0l-.09-.15h8l3.56,6.14Zm8.19.32,3.9,6.73h-8l-3.92-6.73Zm-11.87-6.79v.14l-3-5.11,16.15-.15,3,5.12Zm-.13.53h0l7.55,13h-6.53l-7.52-13L185,139.3Zm4.61,19.3h8l-4,6.87Zm7.26,13.21L197,182.82l-3.31-5.73,3.13-5.39Zm-3.48-6-3.13,5.38-7.26-12.57h6.24ZM56.35,68.39h8l3.56,6.15h-8l-3.48-6h0ZM90.8,87.88,94,93.45H79.31l3.2-5.57Zm-8.11-.32,4-6.87,3.94,6.87ZM100.4,68.39h8L112,74.53h-8l-3.48-6h0Zm34.46,19.49,3.2,5.57H123.37l3.2-5.57Zm-8.11-.32,4-6.87,4,6.87Zm17.71-19.17h8L156,74.53h-8l-3.48-6h0Zm34.46,19.49,3.2,5.57H167.43l3.2-5.57Zm-8.11-.32,4-6.87,4,6.87ZM148.6,163.88l-3.21-5.67h14.74L157,163.88Zm8.2.32-4,6.87-4-6.87Zm-52.26-.32-3.2-5.67h14.73l-3.16,5.67Zm8.2.32-4,6.87-4-6.87ZM56.35,144.7h8l3.56,6.14h-8l-3.48-6h0Zm133.47-37.95-.17.3h0l-3.12,5.39-3.91-6.75h0l-2.67-4.6,6.56-.06,3.14,5.42h0ZM80,144.91h0l3.31-5.72L86.69,145l-3.31,5.73ZM83.2,151l-4,6.89H72.52l7.34-12.66ZM68.56,112l2.87-5,.08.14h0l7.29,12.58H72.53l-4.2-7.29.26-.45Zm33.14-5.28-.17.3h0l-3.12,5.39-3.91-6.75h0l-2.67-4.6L98.4,101l3.13,5.42h0Zm44.06,0-.17.3h0l-3.12,5.39-3.91-6.75h0l-2.67-4.6,6.57-.06,3.13,5.42h0Zm24.3,5.94-3.48-6h0l-.09-.15h8l3.56,6.15Zm8.19.31,3.9,6.73h-8L170.25,113Zm-11.87-6.79v.14l-3-5.11,16.15-.14,3,5.11Zm-.13.54h0l7.54,13h-6.53l-7.52-13,3.25-5.61Zm1.37,38.46-3.12,5.39-3.91-6.75h0l-2.67-4.6,6.57-.06,3.13,5.42h0l.17.3-.17.29Zm-23.16-.51h8l3.56,6.14h-8l-3.48-6h0Zm-.11-.33v.14l-3-5.11,16.15-.15,3,5.12Zm-20.79.84-3.12,5.39-3.91-6.75h0l-2.67-4.6,6.57-.06,3.13,5.42h0l.17.3-.17.29Zm-23.16-.51h8l3.56,6.14h-8l-3.48-6h0Zm-.11-.33v.14l-3-5.11,16.16-.15,3,5.12ZM78.38,106.54h8L90,112.69h-8l-3.48-6h0Zm44.05,0h8l3.56,6.15h-8l-3.48-6h0ZM148.6,126h8.29l3.2,5.57H145.4Zm-3.54,5.52h-6.2l3.19-5.52h6.18Zm3.72-5.84,4-6.87,4,6.87Zm8.48.32h6.63l3.21,5.57h-6.64Zm-.18-.32L153,118.53l3.31-5.72,7.45,12.91Zm-4.32-7.51-3.09-5.39,3.3-5.72,3.11,5.39Zm-.18.32-4.17,7.19h-6.19l7.26-12.58Zm-10.72,7.2H135.3l3.17-5.68h6.66Zm-3.5-6.19-7.53-13h7.83l.22.38h0l3.39,5.85h0ZM134.19,113l3.9,6.73h-8L126.19,113Zm3.91,7-3.16,5.68h-8.37l-3.2-5.68Zm-3.33,6-4,6.87-4-6.87Zm-8.57-.31H120l-3.25-5.63H123Zm-21.66.31h8.29l3.2,5.57H101.34ZM101,131.56h-6.2L98,126h6.18Zm3.71-5.84,4-6.87,4,6.87Zm8.48.32h6.63l3.21,5.57H116.4Zm6.45-.32H113l-4.13-7.19,3.31-5.72Zm-11-7.51-3.09-5.39,3.3-5.72,3.11,5.39Zm-.18.32-4.16,7.19H98.17l7.25-12.58Zm-10.72,7.2H91.24l3.17-5.68h6.66Zm-3.5-6.19-7.53-13H94.6l.22.38h0l3.4,5.85h0ZM90.13,113l3.9,6.73H86L82.13,113Zm3.92,7-3.17,5.68H82.51l-3.2-5.68Zm-3.34,6-4,6.87-4-6.87ZM90,139.25l-3.12,5.41-3.31-5.73,3.14-5.39Zm-3.11-6L91.07,126h6.56l-7.44,12.9Zm7.73-1.35h6.21l-7.28,12.58h0l-.08.14-3.09-5.34Zm6.55.05h15l4,6.95-23.21.2Zm15.41,0h6.65l4,6.94-3.31,5.72ZM120.2,126h6.23l4.15,7.19-3.13,5.38Zm10.56,7.5,3.3,5.71-3.12,5.41-3.31-5.73Zm.19-.31,4.18-7.19h6.56l-7.44,12.9Zm7.73-1.35h6.21l-7.28,12.58h0l-.08.14-3.09-5.34Zm6.55.05h15l4,6.95-23.21.2Zm15.41,0h6.64l4,6.94L168,144.59Zm3.61-5.89h6.24l4.15,7.19-3.13,5.38Zm-.17-.31-3.25-5.63h6.26l3.17,5.63Zm2.84-6h-6.27l-4.2-7.29.26-.45h0l2.87-5,.08.14h0Zm-10.68-7.64-3.08-5.34,3.11-5.39,3.1,5.34ZM153,106.51l-3.31-5.74,3.13-5.38,3.3,5.71Zm-.19.29-3.31,5.73-3.34-5.77h0l3.31-5.71Zm-3.49,6-4,6.88h-6.71l7.33-12.66Zm-10.83-6.64H122.32v.14l-3-5.11,16.16-.14Zm-16.27.54h0l7.54,13H123.2l-7.52-13,3.25-5.61Zm.67,13h-6.27l-4.2-7.29.26-.45h0l2.87-5,.08.14h0Zm-10.67-7.64-3.09-5.34,3.12-5.39,3.09,5.34Zm-3.28-5.63-3.31-5.74,3.14-5.38,3.29,5.7Zm-.19.29-3.31,5.73-3.34-5.77h0l3.31-5.72Zm-3.49,6-4,6.88H94.55l7.34-12.66Zm-10.82-6.64H78.26v.14l-3-5.11,16.16-.14Zm-16.28.54h0l7.55,13H79.15l-7.53-13,3.25-5.61ZM79,120.1l3.18,5.63H76l-3.24-5.63Zm3.4,5.94,4.15,7.19-3.13,5.38L76.14,126Zm4.51,19.22L90,150.65l-3.31,5.72L83.58,151Zm.2-.3,3.11-5.39,3.09,5.34-3.12,5.39Zm3.51,5.23,2.87-5,.08.13h0l7.28,12.58H94.56l-4.2-7.29.26-.45Zm3.06-5.28,3.25-5.61,3.26,5.6h0l7.54,13h-6.53Zm10.51,6.25h8l3.9,6.73h-8Zm4.64-6.46h7.83l.22.38h0l3.4,5.84h0l-3.93,6.77Zm15.12.53,3.34,5.77-4,6.89h-6.71Zm.18-.32h0l3.31-5.72,3.34,5.78-3.31,5.73Zm6.84.35,3.11,5.39-3.31,5.72-3.1-5.39Zm.19-.3,3.12-5.39,3.09,5.34-3.12,5.39Zm3.52,5.23,2.87-5,.08.13h0l7.28,12.58h-6.27l-4.2-7.29.26-.45Zm3.06-5.28L141,139.3l3.26,5.6h0l7.54,13h-6.53Zm10.51,6.25h8l3.9,6.73h-8Zm4.64-6.46h7.83l.22.38h0l3.39,5.84h0l-3.92,6.77Zm15.11.53,3.35,5.77-4,6.89h-6.71Zm.19-.32h0l3.31-5.72,3.34,5.78-3.31,5.73Zm6.84.35,3.11,5.39-3.32,5.72L171.7,151Zm0-.6-3.31-5.73,3.13-5.39,3.3,5.71ZM170.86,126h8l-4,6.87Zm-.23-.31-3.21-5.68h14.74L179,125.73Zm4.26-19.19h7.83l.22.38h0l3.39,5.85h0l-3.92,6.78Zm-11.77-5.61,4.14-7.16h15l4,7Zm-3.48,5.37h0l-.08.13-3.09-5.34,4.25-7.37h6.21Zm-3.37-5.52L153,95.07l4.18-7.19h6.56Zm-3.47-6-4-6.88h8Zm-.19.31-3.13,5.39-7.26-12.58h6.24Zm-3.35,5.64-3.32,5.72-7.33-12.66h6.64Zm-7,0-23.21.21,4.14-7.16h15Zm-26.69,5.58h0l-.08.13-3.09-5.34,4.25-7.37h6.21Zm-3.36-5.52-3.3-5.71,4.18-7.19h6.56Zm-3.48-6-4-6.88h8Zm-.19.31-3.13,5.39L98.17,87.88h6.23Zm-3.35,5.64-3.31,5.72L94.55,93.77h6.65Zm-7,0L75,100.93l4.15-7.16h15ZM71.52,106.3h0l-.08.13-3.09-5.34,4.25-7.37h6.22Zm-3.36-5.52-3.3-5.71,4.19-7.19H75.6Zm3.09,6-3.12,5.39-3.08-5.34,3.11-5.39Zm-3.1,6.06,7.45,12.91H69l-4.13-7.19ZM75.77,126,79,131.61H72.34L69.14,126Zm3.4,5.89,4,6.94-3.31,5.72-7.34-12.66Zm.34,12.68h0l.17.3-.17.29h0l-3.13,5.39-3.91-6.75h0l-2.67-4.6,6.57-.06Zm-7.13-.24H56.23v.14l-3-5.11,16.16-.15Zm-4.28,6.79,3.9,6.73H64l-3.91-6.73Zm-3.35-6.46h7.82l.22.38h0l3.4,5.84h0l-3.93,6.77Zm7.63,13.51h6.67l-3.28,5.67H69.21Zm11-6.91,3.09,5.39-4.16,7.19H76.14ZM86.68,157l3.94,6.87H82.69Zm.18-.32L90.18,151l7.45,12.91H91Zm7.89,1.56H101l3.17,5.63H98Zm21.69,0h6.66l-3.27,5.67h-6.56Zm11-6.91,3.09,5.39-4.16,7.19H120.2Zm3.27,5.71,4,6.87h-7.93Zm.19-.32,3.31-5.72,7.45,12.91h-6.63Zm7.88,1.56h6.26l3.17,5.63h-6.18Zm21.69,0h6.67l-3.27,5.67h-6.56Zm11-6.91,3.1,5.39-4.17,7.19h-6.19Zm3.28,5.71,4,6.87h-7.93Zm.19-.32,3.31-5.72,7.45,12.91h-6.63Zm3.5-6,.25-.45h0l2.87-5,.08.13h0L189,157.94h-6.27Zm-.21-.35L175.19,145l3.11-5.39,3.1,5.34ZM175,133.23l4.18-7.19h6.55l-7.44,12.9Zm4.35-7.5,3.16-5.68h6.67l-3.27,5.68Zm3.31-6L190,107.07l3.35,5.78-4,6.88Zm7.33-13.3-7.33-12.66h6.64l4,6.94Zm-7.51-13-3.2-5.57h6.63l3.21,5.57Zm-15.4,0h-6.2l3.19-5.53h6.18Zm-3.2-5.84h-6.56l3.16-5.68h6.67Zm-3.5-6.19-7.53-13h7.83l.22.39h0l3.39,5.85h0Zm-4.17-6.53,3.9,6.72h-8l-3.91-6.72Zm3.91,7L157,87.57H148.6l-3.21-5.68Zm-11.9,5.68h-6.18l-3.25-5.63h6.26Zm-3.16,5.88h-6.64l-3.2-5.57h6.63Zm-22,0h-6.2L120,87.88h6.18Zm-3.2-5.84h-6.56l3.17-5.68h6.66Zm-3.5-6.19-7.53-13h7.83l.22.39h0l3.4,5.85h0Zm-4.17-6.53,3.9,6.72h-8l-3.91-6.72Zm3.91,7-3.16,5.68h-8.37l-3.2-5.68Zm-11.9,5.68H98l-3.24-5.63H101ZM101,93.45H94.37l-3.2-5.57H97.8Zm-22,0h-6.2L76,87.88h6.19Zm-3.21-5.84H69.21l3.17-5.68h6.67Zm-3.5-6.19-7.52-13h7.82l.22.39h0l3.39,5.85h0ZM68.1,74.85,72,81.57H64L60.1,74.85Zm3.92,7-3.17,5.68H60.48l-3.2-5.68Zm-3.34,6-4,6.88-4-6.88ZM68,101.09l-3.12,5.42-3.31-5.74,3.14-5.38Zm-3.12,6L68,112.49l-3.31,5.72-3.1-5.39Zm3.74,18.62H60.66l4-6.87Zm.19.32,3.2,5.57H57.28l3.2-5.57Zm3.38,5.89,4,6.95-23.22.2,4.14-7.15Zm-16.06,13h0l7.54,13H57.11l-7.52-13,3.25-5.61ZM72,158.21l-3.17,5.67H60.48l-3.2-5.67Zm-3.34,6-4,6.87-4-6.87ZM68,177.41l-3.12,5.41-3.31-5.74,3.14-5.38Zm-3.11-6,4.19-7.19H75.6l-7.44,12.89ZM76,164.2h6.19L79,169.72h-6.2Zm6.55,0H90.8l3.2,5.57H79.31Zm8.66,0H97.8l3.21,5.57H94.37Zm7,0h6.23l4.15,7.19-3.13,5.38Zm10.57,7.5,3.29,5.71-3.12,5.41-3.31-5.73Zm.18-.31,4.18-7.19h6.56l-7.44,12.89ZM120,164.2h6.18L123,169.72h-6.2Zm6.55,0h8.29l3.2,5.57H123.37Zm8.66,0h6.63l3.21,5.57h-6.64Zm7,0h6.24l4.15,7.19-3.13,5.38Zm10.57,7.5,3.3,5.71L153,182.82l-3.31-5.73Zm.19-.31,4.18-7.19h6.56l-7.45,12.89Zm11.1-7.19h6.18l-3.17,5.52h-6.2Zm6.55,0h8.29l3.2,5.57H167.43Zm8.66,0h6.63l3.21,5.57h-6.64Zm6.82-.32-3.25-5.63h6.26l3.17,5.63Zm-4.44-19.42h0l-.08.14-3.09-5.34,4.25-7.37H189Zm1.25-12.9,3.19-5.52h6.18l-3.17,5.52Zm3.36-5.84,7.26-12.58,3.1,5.39-4.17,7.19Zm7.25-13.19-3.34-5.77h0L193.5,101l3.33,5.77Zm.19-11.76,3.13-5.38,3.3,5.71L197,106.51Zm-.83-12.89h8l-4,6.88Zm3.78,7.19-3.13,5.39-7.26-12.58h6.24Zm-10.56-7.5-3.25-5.63h6.26l3.17,5.63Zm-.37,0h-6.63L175,80.37l3.31-5.72Zm-11-7.5-3.09-5.39,3.3-5.73,3.11,5.39Zm-.18.31-4.17,7.19h-6.19L171.51,75Zm-7.26,1.2h-6.71L168,68.92l3.35,5.77Zm-6.86-13.52H144.35v.14l-3-5.11,16.15-.14Zm-16.27.54h0l7.54,13h-6.53l-7.52-13L141,63Zm-2.54,19h-6.63l-4.13-7.19,3.31-5.72Zm-10.94-7.5-3.1-5.39,3.3-5.73,3.11,5.39Zm-.19.31-4.16,7.19H120.2L127.46,75Zm-7.26,1.2h-6.71l7.34-12.65,3.34,5.77Zm-6.85-13.52H100.29v.14l-3-5.11,16.16-.14Zm-16.28.54h0l7.54,13h-6.53l-7.52-13L96.9,63Zm-2.53,19H91l-4.13-7.18,3.32-5.73Zm-10.95-7.5-3.1-5.39,3.3-5.73L90,74.33Zm-.19.31-4.16,7.19H76.14L83.4,75Zm-7.26,1.2H72.52l7.34-12.65,3.34,5.77ZM72.38,68.05H56.23v.14l-3-5.11,16.16-.14Zm-16.28.54h0l7.54,13H57.11l-7.52-13L52.84,63Zm.84,13.35,3.18,5.63H53.94l-3.25-5.63Zm3.4,5.94,4.16,7.19-3.14,5.38L54.11,87.88Zm4.32,18.92-3.31,5.73L58,106.76h0L61.32,101Zm-3.49,6-4,6.88H50.49l7.34-12.66Zm.2.29,3.09,5.39-4.16,7.19H54.11ZM60.12,126,57,131.56h-6.2L53.94,126Zm-3.34,5.84-7.29,12.58h0l-.08.14-3.09-5.34,4.25-7.37Zm.16,26.37,3.18,5.63H53.94l-3.25-5.63Zm3.4,5.95,4.16,7.19-3.14,5.38L54.11,164.2Zm4.51,19.21,3.11,5.4-3.31,5.72-3.1-5.39Zm.2-.29,3.11-5.39,3.09,5.34-3.12,5.39Zm3.29-5.71L72.59,170h6.22l-7.29,12.57h0l-.08.14Zm10.81-7.33h15l4,6.95L75,177.24Zm15.4,0h6.65l4,6.94-3.31,5.72Zm14.36,13.33,3.11,5.4-3.31,5.72-3.1-5.39Zm.19-.29,3.12-5.39,3.09,5.34-3.12,5.39Zm3.3-5.71,4.25-7.37h6.21l-7.28,12.57h0l-.08.14Zm10.8-7.33h15l4,6.95-23.21.21Zm15.41,0h6.64l4,6.94-3.32,5.72ZM153,183.41l3.11,5.39-3.32,5.73-3.09-5.39Zm.19-.29,3.11-5.39,3.1,5.34-3.13,5.39Zm3.3-5.71,4.25-7.37h6.21l-7.28,12.57h0l-.08.14Zm10.8-7.33h15l4,6.95-23.21.21Zm15.41,0h6.64l4,6.94L190,182.74ZM197,183.41l3.11,5.39-3.32,5.73-3.09-5.39Zm.19-.29,3.11-5.39,3.1,5.34-3.13,5.39ZM197,171.39l4.18-7.19h6.55l-7.44,12.89Zm4-7.51h-8.36l-3.21-5.67h14.74Zm-4.1-19.18h7.83l.22.38h0l3.39,5.84h0l-3.92,6.77Zm-11.78-5.62,4.15-7.15h15l4,6.95Zm4.32-7.47,3.2-5.57H201l3.2,5.57Zm3.38-5.89,4-6.87,4,6.87Zm.89-12.9,3.3-5.72,3.11,5.39-3.32,5.72Zm3.49-6,3.11-5.39,3.1,5.34-3.13,5.39ZM197,95.07l4.18-7.19h6.55l-7.44,12.9Zm4-7.5h-8.36l-3.21-5.68h14.74Zm-4.1-19.19h7.83l.22.39h0l3.39,5.85h0l-3.92,6.78Zm-11.77-5.61,4.14-7.16h15l4,7Zm-3.48,5.37h0l-.08.14-3.09-5.34,4.25-7.38H189Zm-.27.45L178.27,74l-3.08-5.34,3.11-5.4Zm-6.4-.24-3.31-5.74,3.13-5.38,3.3,5.71Zm-.19.3-3.31,5.72-3.34-5.77h0l3.31-5.72ZM168,68.27l-7.33-12.66h6.64l4,6.94Zm-3.67-5.71-23.21.21,4.14-7.16h15Zm-26.69,5.58h0l-.08.14-3.09-5.34,4.25-7.38h6.21Zm-.27.45L134.22,74l-3.09-5.34,3.12-5.4Zm-6.4-.24-3.31-5.74,3.13-5.38,3.3,5.71Zm-.19.3-3.31,5.72L124.1,68.6h0l3.31-5.72Zm-6.83-.38-7.34-12.66h6.65l4,6.94Zm-3.68-5.71L97,62.77l4.14-7.16h15ZM93.55,68.14h0l-.08.14-3.09-5.34,4.25-7.38h6.21Zm-.27.45L90.16,74l-3.08-5.33,3.11-5.39Zm-6.4-.24-3.31-5.74,3.14-5.38L90,62.94Zm-.19.3-3.31,5.72L80,68.6h0l3.31-5.72Zm-6.83-.38L72.52,55.61h6.65l4,6.94Zm-3.67-5.71L53,62.77l4.14-7.16h15Zm-26.7,5.58h0l-.08.14-3.09-5.34,4.25-7.38h6.22Zm-.27.45L46.1,74,43,68.65l3.11-5.39Zm-3.1,6.06,7.45,12.91H46.93L42.8,80.38Zm7.62,13.23L57,93.45H50.31l-3.2-5.57Zm3.4,5.89,4,6.94-3.31,5.72L50.49,93.77Zm.34,12.68h0l.17.3-.17.3h0l-3.13,5.39-3.91-6.75h0l-2.67-4.6,6.57-.06Zm-7.13-.24H34.2v.14l-3-5.11,16.16-.14ZM46.07,113l3.9,6.73H42L38.07,113Zm-3.35-6.46h7.82l.22.38h0l3.39,5.85h0l-3.93,6.78Zm7.63,13.51H57l-3.28,5.68H47.18Zm3.22,6-7.44,12.9-3.3-5.71L47,126Zm-4.35,18.87L46.1,150.3,43,145l3.11-5.39ZM46.12,151l7.45,12.91H46.93l-4.13-7.19Zm7.62,13.23L57,169.77H50.31l-3.2-5.57Zm3.4,5.88,4,6.94-3.31,5.72-7.34-12.66Zm.34,12.69h0l.17.3-.17.29h0l-3.13,5.39L50.44,182h0l-2.67-4.6,6.57-.06Zm-7.13-.25H34.2v.15l-3-5.12,16.16-.14Zm-4.28,6.8,3.9,6.73H42l-3.91-6.73Zm-3.35-6.46h7.82l.22.38h0l3.39,5.84h0l-3.93,6.77Zm15.11.53,3.34,5.77-4,6.89H50.49Zm3.54,6.07,3.09,5.39L60.3,202H54.11Zm3.28,5.7L68.59,202H60.66Zm.18-.31,3.32-5.73L75.6,202H69Zm3.5-6,.26-.45,0,0,2.87-5,.08.14h0l7.29,12.57H72.53Zm3.29-5.74,3.25-5.61,3.26,5.6h0l7.54,13H79.15Zm10.51,6.25h8l3.9,6.73H86Zm4.64-6.46H94.6l.22.38h0l3.4,5.85h0l-3.93,6.77Zm15.12.53,3.34,5.77-4,6.89H94.55Zm3.54,6.07,3.09,5.39L104.36,202H98.17Zm3.27,5.7,4,6.88h-7.93Zm.19-.31,3.31-5.73L119.66,202H113Zm3.5-6,.26-.45,0,0,2.87-5,.08.14h0l7.28,12.57h-6.27Zm3.29-5.74,3.25-5.61,3.26,5.6h0l7.54,13H123.2Zm10.51,6.25h8l3.9,6.73h-8Zm4.64-6.46h7.83l.22.38h0l3.39,5.85h0l-3.93,6.77Zm15.11.53,3.35,5.77-4,6.89h-6.71Zm3.54,6.07,3.1,5.39L148.41,202h-6.19Zm3.28,5.7,4,6.88h-7.93Zm.19-.31,3.31-5.73L163.72,202h-6.64Zm3.5-6,.26-.45,0,0,2.87-5,.08.14h0l7.28,12.57h-6.27Zm3.29-5.74,3.25-5.61,3.26,5.6h0l7.54,13h-6.53Zm10.51,6.25h8l3.9,6.73h-8Zm4.64-6.46h7.83l.22.38h0l3.39,5.85h0l-3.92,6.77Zm15.11.53,3.35,5.77-4,6.89h-6.7Zm3.54,6.07,3.1,5.39L192.47,202h-6.19Zm3.28,5.7,4,6.88h-7.93Zm.19-.31,3.31-5.73L207.77,202h-6.63Zm3.5-6,.25-.45,0,0,2.87-5,.08.14h0L211,196.09h-6.27Zm3.18-6.2h0l-.08.14-3.09-5.34,4.25-7.37H211ZM205,169.72l3.19-5.52h6.18l-3.17,5.52Zm3-5.84h-6.56l3.16-5.67h6.67Zm-3.25-6L212,145.23l3.35,5.77-4,6.89Zm7.33-13.3-7.33-12.66h6.64l4,6.94Zm-7.51-13-3.2-5.57H208l3.21,5.57Zm-3.38-5.89L197,118.53l3.31-5.72,7.45,12.91Zm-.63-13.23.25-.45h0l2.87-5,.08.14h0L211,119.78h-6.27Zm3.18-6.19h0l-.08.13-3.09-5.34,4.25-7.37H211ZM205,93.41l3.19-5.53h6.18l-3.17,5.53Zm3-5.84h-6.56l3.16-5.68h6.67Zm-3.25-6L212,68.92l3.35,5.77-4,6.88ZM212,68.27,204.7,55.61h6.64l4,6.94Zm-7.51-13-3.2-5.57H208l3.21,5.57Zm-15.4,0h-6.2l3.19-5.53h6.18ZM178.3,62.62,175,56.91l4.18-7.18h6.55Zm-3.47-6-4-6.87h8Zm-.19.31-3.13,5.39-7.26-12.57h6.24Zm-7.54-1.62h-6.64l-3.2-5.57h6.63Zm-22,0h-6.2l3.19-5.53h6.18Zm-10.81,7.37L131,56.91l4.18-7.18h6.56Zm-3.48-6-4-6.87h8Zm-.19.31-3.13,5.39L120.2,49.73h6.23ZM123,55.29H116.4l-3.2-5.57h6.63Zm-22,0h-6.2L98,49.72h6.18ZM90.19,62.62l-3.3-5.71,4.18-7.18h6.56Zm-3.48-6-4-6.87h8Zm-.19.31L83.39,62.3,76.14,49.73h6.23ZM79,55.29H72.34l-3.2-5.57h6.63Zm-22,0h-6.2l3.19-5.53h6.18ZM46.13,62.62l-3.3-5.71L47,49.73h6.55Zm-3.48-6-4-6.87h8Zm3.29,6.34-3.12,5.41-3.31-5.74,3.14-5.38Zm-3.12,6,3.11,5.39-3.31,5.73-3.1-5.39Zm3.74,18.62H38.64l4-6.87Zm.19.32L50,93.45H35.25l3.2-5.57Zm3.38,5.89,4,7-23.22.21,4.15-7.16Zm-16.06,13h0l7.55,13H35.09l-7.53-13,3.25-5.61ZM50,120.05l-3.17,5.68H38.45l-3.2-5.68Zm-3.34,6-4,6.87-4-6.87Zm-.71,13.21-3.12,5.42-3.31-5.74,3.14-5.39Zm-3.12,6,3.11,5.39-3.31,5.72L39.52,151Zm3.74,18.62H38.64l4-6.87Zm.19.32,3.2,5.57H35.25l3.2-5.57Zm3.38,5.88,4,6.95-23.22.21,4.15-7.16Zm-16.06,13h0l7.55,13H35.09l-7.53-13,3.25-5.61Zm16.28,13.3H57L53.74,202H47.18Zm3.59,6h6.18L57,207.88h-6.2Zm6.54,0h8.3l3.2,5.57H57.28Zm8.66,0h6.63L79,207.92H72.34Zm3.58-5.94H79L82.15,202H76Zm21.69,0h6.66L97.8,202H91.24Zm3.58,6h6.18L101,207.88h-6.2Zm6.55,0h8.29l3.2,5.57H101.34Zm8.66,0h6.63l3.21,5.57H116.4Zm3.57-5.94H123L126.2,202H120Zm21.7,0h6.66L141.86,202H135.3Zm3.58,6h6.18l-3.17,5.53h-6.2Zm6.55,0h8.29l3.2,5.57H145.4Zm8.66,0h6.63l3.21,5.57h-6.64Zm3.57-5.94h6.26l3.17,5.63h-6.18Zm21.69,0h6.67L185.92,202h-6.56Zm3.59,6h6.18l-3.17,5.53h-6.2Zm6.55,0H201l3.2,5.57H189.46Zm8.66,0H208l3.21,5.57h-6.64Zm3.57-5.94h6.26l3.17,5.63h-6.18Zm-1.09-13.34,3.25-5.61,3.26,5.6h0l7.55,13h-6.53Zm10.5,6.25h8l3.9,6.73h-8Zm-.18-.32-3.48-6h0l-.09-.15h8l3.56,6.14Zm-3.68-6.48v.15l-3-5.12,16.15-.14,3,5.11Zm-3.27-5.28,4.15-7.16h15l4,6.95Zm4.32-7.47,3.2-5.57H223l3.2,5.57Zm3.38-5.89,4-6.87,4,6.87Zm-.37,0h-6.19l7.26-12.58,3.1,5.39Zm1.06-13.19-3.34-5.78h0l3.31-5.72,3.33,5.78ZM208.31,126h6.24l4.15,7.19-3.13,5.38Zm-.17-.31-3.25-5.63h6.26l3.17,5.63Zm-4.34-19,3.25-5.61,3.26,5.61h0l7.55,13h-6.53ZM214.3,113h8l3.9,6.73h-8Zm-.18-.31-3.48-6h0l-.09-.15h8l3.56,6.15Zm-3.68-6.48v.14l-3-5.11,16.15-.14,3,5.11Zm-3.27-5.28,4.15-7.16h15l4,7Zm4.32-7.48,3.2-5.57H223l3.2,5.57Zm3.38-5.89,4-6.87,4,6.87Zm-.37,0h-6.19L215.57,75l3.1,5.39Zm1.06-13.19-3.34-5.77h0l3.31-5.72,3.33,5.78Zm-7.25-24.64h6.24l4.15,7.18-3.13,5.39Zm-.17-.32-3.25-5.63h6.26l3.17,5.63Zm-.37,0h-6.63L197,42.22l3.31-5.73Zm-11-7.51-3.09-5.39,3.3-5.73,3.11,5.39Zm-.18.32-4.17,7.19h-6.19l7.26-12.58Zm-10.72,7.19h-6.56l3.16-5.68h6.67Zm-3.5-6.19-7.53-13h7.83l.22.38h0l3.39,5.85h0Zm-4.17-6.53,3.9,6.73h-8l-3.91-6.73Zm3.91,7L179,49.41h-8.37l-3.21-5.68Zm-11.9,5.68h-6.18l-3.25-5.63h6.26Zm-6.55,0h-6.63L153,42.22l3.31-5.73Zm-11-7.51-3.09-5.39,3.3-5.73,3.11,5.39Zm-.18.32-4.17,7.19h-6.19l7.26-12.58Zm-10.72,7.19H135.3l3.17-5.68h6.66Zm-3.5-6.19-7.53-13h7.83l.22.38h0l3.39,5.85h0Zm-4.17-6.53,3.9,6.73h-8l-3.91-6.73Zm3.91,7-3.16,5.68h-8.37l-3.2-5.68Zm-11.9,5.68H120l-3.25-5.63H123Zm-6.55,0H113l-4.13-7.19,3.31-5.73Zm-11-7.51-3.09-5.39,3.3-5.73L112,36.17Zm-.18.32-4.16,7.19H98.17l7.26-12.58ZM97.8,49.41H91.24l3.17-5.68h6.66Zm-3.5-6.19-7.53-13H94.6l.22.38h0l3.4,5.85h0Zm-4.17-6.53L94,43.42H86l-3.91-6.73Zm3.92,7-3.17,5.68H82.51l-3.2-5.68Zm-11.9,5.68H76l-3.24-5.63H79Zm-6.55,0H69l-4.13-7.19,3.32-5.73ZM64.65,41.9l-3.1-5.39,3.3-5.73L68,36.17Zm-.19.32L60.3,49.41H54.11l7.26-12.58ZM53.74,49.41H47.18l3.17-5.68H57Zm-3.5-6.19-7.52-13h7.82l.22.38h0l3.39,5.85h0Zm-4.17-6.53L50,43.42H42l-3.91-6.73Zm3.92,7-3.17,5.68H38.45l-3.2-5.68Zm-11.9,5.68H31.9l-3.24-5.63h6.25Zm.22.32,4.16,7.18L39.33,62.3,32.08,49.73Zm.83,25-4,6.88H28.46L35.8,68.92Zm.2.29,3.09,5.39-4.16,7.19H32.08Zm-1.25,12.9-3.17,5.53h-6.2l3.18-5.53Zm-3.34,5.84L27.46,106.3h0l-.08.13-3.1-5.34,4.25-7.37Zm-7.56,13-3.12,5.39L21,106.8l3.11-5.39ZM24.5,112l2.88-5,.08.14h0l7.29,12.58H28.47l-4.2-7.29.26-.45Zm10.41,8.07,3.18,5.63H31.9l-3.24-5.63Zm3.4,5.94,4.16,7.19-3.14,5.38L32.08,126Zm.83,25-4,6.89H28.46l7.34-12.66Zm.2.3,3.09,5.39-4.16,7.19H32.08Zm-1.25,12.9-3.17,5.52h-6.2l3.18-5.52ZM34.75,170l-7.29,12.57h0l-.08.14-3.1-5.34L28.53,170Zm-7.56,13-3.12,5.39L21,183.12l3.11-5.39Zm-2.69,5.27,2.88-5,.08.14h0l7.29,12.57H28.47l-4.2-7.28.26-.45Zm10.41,8.07L38.09,202H31.9l-3.24-5.63Zm3.4,6,4.16,7.19-3.14,5.38-7.25-12.57Zm4.34,7.5,3.29,5.71L42.82,221l-3.31-5.74Zm.18-.32L47,202.36h6.55l-7.44,12.89Zm7.73-1.34h6.22l-7.29,12.57h0l-.08.14-3.09-5.34Zm6.55,0h15l4,6.95L53,215.4Zm15.41,0h6.65l4,6.94-3.31,5.72Zm3.62-5.88h6.23l4.15,7.19-3.13,5.38Zm10.57,7.5L90,215.57,86.88,221l-3.31-5.74Zm.18-.32,4.18-7.18h6.56l-7.44,12.89Zm7.73-1.34h6.21l-7.28,12.57h0l-.08.14-3.09-5.34Zm6.55,0h15l4,6.95L97,215.4Zm15.41,0h6.65l4,6.94-3.31,5.72Zm3.62-5.88h6.23l4.15,7.18-3.13,5.39Zm10.56,7.5,3.3,5.71L130.94,221l-3.31-5.74Zm.19-.32,4.18-7.18h6.56l-7.44,12.89Zm7.73-1.34h6.21l-7.28,12.57h0l-.08.14-3.09-5.34Zm6.55,0h15l4,6.95-23.21.21Zm15.41,0h6.64l4,6.94L168,220.9Zm3.61-5.88h6.24l4.15,7.18-3.13,5.39Zm10.57,7.5,3.3,5.71L175,221l-3.31-5.74Zm.19-.32,4.18-7.18h6.55l-7.44,12.89Zm7.73-1.34H189l-7.28,12.57h0l-.08.14-3.09-5.34Zm6.55,0h15l4,6.95-23.22.21Zm15.41,0h6.64l4,6.94L212,220.9Zm3.61-5.88h6.24l4.15,7.18-3.13,5.39Zm10.57,7.5,3.3,5.71L219.06,221l-3.31-5.74Zm-4-7.5h8l-4,6.87Zm-.23-.32-3.2-5.68h14.74L223.06,202ZM219,182.86h7.83l.22.38h0l3.39,5.84h0l-3.92,6.77Zm15.11.53,3.35,5.77-4,6.89h-6.7Zm0-.65-7.33-12.66h6.64l4,6.94Zm-7.51-13-3.2-5.57H230l3.21,5.57Zm-3.38-5.89L219,156.69l3.31-5.72,7.45,12.91Zm-4.32-7.51L215.76,151l3.3-5.72,3.11,5.39Zm.21-11.71-3.31-5.73,3.13-5.39,3.3,5.71ZM214.91,126h8l-4,6.87Zm-.23-.31-3.2-5.68h14.74l-3.17,5.68ZM219,106.54h7.83l.22.38h0l3.39,5.85h0l-3.92,6.78Zm15.11.53,3.35,5.78-4,6.88h-6.7Zm0-.64-7.33-12.66h6.64l4,6.94Zm-7.51-13-3.2-5.57H230l3.21,5.57Zm-3.38-5.89L219,80.37l3.31-5.72,7.45,12.91Zm-4.32-7.5-3.09-5.39,3.3-5.73,3.11,5.39Zm.21-11.71-3.31-5.74,3.13-5.38,3.3,5.71Zm-4.15-18.62h8l-4,6.87Zm-.23-.32-3.2-5.68h14.74l-3.17,5.68Zm-4.13-19.18h8l3.56,6.14h-8l-3.48-6h0Zm11.76,6.46,3.9,6.73h-8l-3.91-6.73ZM219,30.23h7.83l.22.38h0l3.39,5.85h0l-3.92,6.78Zm15.11.53,3.35,5.77-4,6.89h-6.7Zm-7.48-.87H210.44V30l-3-5.12,16.15-.14Zm-16.27.54h0l7.55,13h-6.53l-7.52-13,3.25-5.6Zm.67,13h-6.27l-4.21-7.28.26-.45,0,0,2.87-5,.08.14h0ZM200.3,35.83l-3.08-5.34,3.11-5.39,3.1,5.34ZM197,30.19l-3.31-5.73,3.13-5.39,3.3,5.71Zm-.2.3-3.3,5.72-3.34-5.77h0l3.31-5.72Zm-3.48,6-4,6.89h-6.7L190,30.76Zm-10.83-6.64H166.38V30l-3-5.12,16.15-.14Zm-16.27.54h0l7.54,13h-6.53l-7.52-13,3.25-5.6Zm.67,13h-6.27l-4.2-7.28.26-.45,0,0,2.87-5,.08.14h0Zm-10.68-7.63-3.08-5.34,3.11-5.39,3.1,5.34ZM153,30.19l-3.31-5.73,3.13-5.39,3.3,5.71Zm-.19.3-3.31,5.72-3.34-5.77h0l3.31-5.72Zm-3.49,6-4,6.89h-6.71l7.33-12.66Zm-10.83-6.64H122.32V30l-3-5.12,16.16-.14Zm-16.27.54h0l7.54,13H123.2l-7.52-13,3.25-5.6Zm.67,13h-6.27l-4.2-7.28.26-.45,0,0,2.87-5,.08.14h0Zm-10.68-7.63-3.08-5.34,3.11-5.39,3.1,5.34Zm-3.27-5.64-3.31-5.73,3.14-5.39L112,24.78Zm-.19.3-3.31,5.72-3.34-5.77h0l3.31-5.72Zm-3.49,6-4,6.89H94.55l7.34-12.66ZM94.41,29.89H78.26V30l-3-5.12,16.16-.14Zm-16.28.54h0l7.55,13H79.15l-7.53-13,3.25-5.6Zm.68,13H72.53l-4.2-7.28.26-.45,0,0,2.87-5,.08.14h0ZM68.13,35.83l-3.08-5.34,3.11-5.39,3.09,5.34Zm-3.28-5.64-3.31-5.74,3.14-5.38L68,24.78Zm-.19.3-3.31,5.72L58,30.44h0l3.31-5.72Zm-3.49,6-4,6.89H50.49l7.34-12.66ZM50.35,29.89H34.2V30l-3-5.12,16.16-.14Zm-16.28.54h0l7.55,13H35.09l-7.53-13,3.25-5.6Zm.68,13H28.47l-4.2-7.28.26-.45,0,0,2.88-5,.08.14h0ZM24.07,35.83,21,30.49,24.1,25.1l3.09,5.34Zm-3.28-5.64-3.31-5.74,3.14-5.38,3.3,5.71Zm0,.59,3.11,5.39L20.59,41.9l-3.1-5.39Zm3.74,18.63H16.61l4-6.88Zm-3.76-7.19,3.32-5.73,7.45,12.92H24.9Zm10.94,7.5,3.22,5.57H28.28l-3.2-5.57Zm3.4,5.89,4,6.94L35.8,68.27,28.47,55.61Zm.34,12.68h0l.17.29-.17.3h0l-3.13,5.39-3.91-6.75h0l-2.67-4.6,6.57,0Zm-7.13-.24H12.18v.14l-3-5.11,16.15-.14ZM24,74.85l3.9,6.72H20L16,74.85Zm-3.35-6.47h7.82l.22.39h0l3.39,5.85h0l-3.93,6.78Zm7.63,13.51H35l-3.28,5.68H25.15Zm3.22,6-7.44,12.9-3.3-5.71L25,87.88ZM20.62,94.76l-4-6.88h8Zm3.3,6.33-3.13,5.42-3.31-5.74,3.14-5.38Zm-3.13,6,3.11,5.39-3.31,5.72-3.1-5.39Zm3.74,18.62H16.61l4-6.87Zm-3.76-7.19,3.32-5.72,7.45,12.91H24.9ZM31.71,126l3.22,5.57H28.28L25.08,126Zm3.4,5.89,4,6.94-3.31,5.72-7.33-12.66Zm.34,12.68h0l.17.3-.17.29h0l-3.13,5.39-3.91-6.75h0l-2.67-4.6,6.57-.06Zm-7.13-.24H12.18v.14l-3-5.11,16.15-.15ZM24,151.16l3.9,6.73H20L16,151.16Zm-3.35-6.46h7.82l.22.38h0l3.39,5.84h0l-3.93,6.77Zm7.63,13.51H35l-3.28,5.67H25.15Zm3.22,6L24.1,177.09l-3.3-5.7L25,164.2Zm-10.92,6.87-4-6.87h8Zm3.3,6.34-3.13,5.41-3.31-5.74,3.14-5.38Zm-3.13,6,3.11,5.4-3.31,5.72-3.1-5.39ZM24.53,202H16.61l4-6.88Zm-3.76-7.19,3.32-5.73L31.54,202H24.9Zm10.94,7.5,3.22,5.57H28.28l-3.2-5.57Zm3.4,5.89,4,6.94L35.8,220.9l-7.33-12.66Zm.34,12.68h0l.17.29-.17.3h0l-3.13,5.39-3.91-6.75h0l-2.67-4.59,6.57-.06Zm-7.13-.24H12.18v.14l-3-5.11,16.15-.14ZM24,227.48l3.9,6.73H20L16,227.48ZM20.69,221h7.82l.22.39h0l3.39,5.85h0L28.21,234Zm15.11.53,3.34,5.77-4,6.89H28.46Zm.18-.32h0l3.31-5.72,3.34,5.78L39.33,227Zm7,.05,3.11-5.39,3.09,5.34-3.12,5.38Zm3.51,5.22,2.87-5,.08.14h0l7.29,12.57H50.5L46.3,227l.26-.44Zm3.06-5.28,3.25-5.6,3.26,5.6h0l7.54,13H57.11Zm10.51,6.26h8l3.9,6.73H64ZM64.75,221h7.82l.22.39h0l3.39,5.85h0L72.27,234Zm15.11.53,3.34,5.77-4,6.89H72.52Zm.18-.32h0l3.31-5.72,3.34,5.78L83.38,227Zm7,.05,3.11-5.39,3.09,5.34-3.12,5.38Zm3.51,5.22,2.87-5,.08.14h0l7.28,12.57H94.56L90.36,227l.26-.44Zm3.06-5.28,3.25-5.6,3.26,5.6h0l7.54,13h-6.53Zm10.51,6.26h8l3.9,6.73h-8ZM108.8,221h7.83l.22.39h0l3.4,5.85h0L116.33,234Zm15.12.53,3.34,5.77-4,6.89h-6.71Zm.18-.32h0l3.31-5.72,3.34,5.78L127.44,227Zm7,.05,3.12-5.39,3.09,5.34-3.12,5.39Zm3.52,5.22,2.87-5,.08.14h0l7.28,12.57h-6.27l-4.2-7.29.26-.44Zm3.06-5.28,3.25-5.6,3.26,5.6h0l7.54,13h-6.53Zm10.51,6.26h8l3.9,6.73h-8Zm4.64-6.46h7.83l.22.39h0l3.39,5.85h0L160.39,234Zm15.11.53,3.35,5.77-4,6.89h-6.71Zm.19-.32h0l3.31-5.72,3.34,5.78L171.5,227Zm7,.05,3.11-5.4,3.1,5.35-3.13,5.39Zm3.52,5.22,2.87-5,.08.14h0L189,234.25h-6.27l-4.2-7.29.25-.44Zm3.06-5.28,3.25-5.6,3.26,5.6h0l7.55,13h-6.53Zm10.51,6.26h8l3.9,6.73h-8Zm4.64-6.46h7.83l.22.39h0l3.39,5.85h0L204.45,234Zm15.11.53,3.35,5.77-4,6.89h-6.7Zm.19-.32h0l3.31-5.72,3.33,5.78-3.3,5.72Zm6.85-11.69,4.18-7.18h6.55l-7.44,12.89Zm4.35-7.5,3.16-5.68h6.67L230,202Zm14.18-12.58,3.1,5.39L236.53,202h-6.19Zm0-.62-3.34-5.77h0l3.31-5.72,3.33,5.78Zm-7.25-24.64h6.24l4.15,7.19-3.13,5.38Zm-.17-.32-3.25-5.63h6.26l3.17,5.63Zm-3.43-5.94-4.21-7.29.26-.45h0l2.87-5,.08.13h0L233,157.94Zm-4.41-7.64L219.25,145l3.11-5.39,3.1,5.34Zm-3.26-17.07,4.18-7.19h6.55l-7.44,12.9Zm4.35-7.5,3.16-5.68h6.67L230,125.73Zm14.18-12.59,3.1,5.39-4.17,7.19h-6.19Zm0-.61-3.34-5.77h0l3.31-5.72,3.33,5.78Zm-7.25-24.65h6.24l4.15,7.19-3.13,5.38Zm-.17-.31-3.25-5.63h6.26l3.17,5.63Zm-3.43-5.95-4.21-7.29.26-.44,0,0,2.87-5,.08.14h0L233,81.62ZM222.33,74l-3.08-5.34,3.11-5.4,3.1,5.34Zm-3.26-17.08,4.18-7.18h6.55l-7.44,12.89Zm4.35-7.5,3.16-5.68h6.67L230,49.41ZM237.6,36.83l3.1,5.39-4.17,7.19h-6.19Zm0-.62-3.34-5.77h0l3.31-5.72,3.33,5.78Zm-7.25-24.64h6.24l4.15,7.19-3.13,5.38Zm7,12.82-3.32,5.72-7.33-12.66h6.64Zm-7,0-23.19.21h0l4.15-7.16h15ZM203.69,30h0l-.08.14-3.09-5.34,4.25-7.37H211Zm-3.36-5.52L197,18.76l4.18-7.19h6.55Zm-3.48-6-4-6.87h8Zm-.18.32-3.13,5.38-7.26-12.57h6.24Zm-3.35,5.63L190,30.11l-7.33-12.66h6.64Zm-7,0-23.19.21h0l4.15-7.16h15ZM159.64,30h0l-.08.14-3.09-5.34,4.25-7.37h6.21Zm-3.37-5.52L153,18.76l4.18-7.19h6.56Zm-3.47-6-4-6.87h8Zm-.19.32-3.13,5.38-7.26-12.57h6.24Zm-3.35,5.63-3.32,5.72-7.33-12.66h6.64Zm-7,0-23.19.21h0l4.14-7.16h15ZM115.58,30h0l-.08.14-3.09-5.34,4.25-7.37h6.21Zm-3.36-5.52-3.3-5.7,4.18-7.19h6.56Zm-3.48-6-4-6.87h8Zm-.19.32-3.13,5.38L98.17,11.57h6.23Zm-3.35,5.63-3.31,5.72L94.55,17.45h6.65Zm-7,0L75,24.61h0l4.15-7.16h15ZM71.52,30h0l-.08.14-3.09-5.34,4.25-7.37h6.22Zm-3.36-5.52-3.3-5.7,4.19-7.19H75.6Zm-3.48-6-4-6.87h8Zm-.18.32-3.14,5.38L54.11,11.57h6.23Zm-3.36,5.63-3.31,5.72L50.49,17.45h6.65Zm-7,0L31,24.61h0l4.15-7.16h15ZM27.46,30h0l-.08.14-3.1-5.34,4.25-7.37h6.22ZM24.1,24.46l-3.3-5.7L25,11.57h6.55Zm-3.48-6-4-6.87h8Zm-.18.32L17.3,24.14,10.05,11.57h6.23ZM17.31,36.83l3.09,5.39-4.16,7.19H10.05Zm-.89,12.89h8.3l3.2,5.57H13.23ZM28.1,55.61l4,7-23.22.21,4.15-7.16ZM12,68.59h0l7.55,13H13.06l-7.53-13L8.78,63ZM28,81.89l-3.17,5.68H16.42l-3.2-5.68ZM20.44,95.07l-3.14,5.38L10.05,87.88h6.23Zm-3.13,18.07,3.09,5.39-4.16,7.19H10.05ZM16.42,126h8.3l3.2,5.57H13.23Zm11.68,5.89,4,6.95-23.22.2,4.15-7.15ZM12,144.9h0l7.55,13H13.06l-7.53-13,3.25-5.61ZM28,158.21l-3.17,5.67H16.42l-3.2-5.67Zm-7.52,13.18-3.14,5.38L10.05,164.2h6.23Zm-3.13,18.07,3.09,5.39L16.24,202H10.05Zm-.89,12.89h8.3l3.2,5.57H13.23Zm11.68,5.89,4,6.95-23.22.21,4.15-7.16ZM12,221.22h0l7.55,13H13.06l-7.53-13,3.25-5.6ZM28,234.52l-3.17,5.68H16.42l-3.2-5.68Zm.36,0H35l-3.28,5.68H25.15Zm11-6.91,3.09,5.4-4.16,7.19H32.08Zm-.89,12.9h8.3l3.2,5.57H35.25ZM42.8,233l3.32-5.73,7.45,12.92H46.93Zm7.89,1.56h6.25l3.18,5.63H53.94Zm6.59,0H72l-3.17,5.68H60.48Zm15.1,0h6.67l-3.28,5.68H69.21Zm11-6.91,3.09,5.4-4.16,7.19H76.14Zm-.89,12.9H90.8l3.2,5.57H79.31Zm4.35-7.5,3.32-5.73,7.45,12.92H91Zm7.89,1.56H101l3.17,5.63H98Zm6.59,0h14.73l-3.16,5.68h-8.37Zm15.1,0h6.66l-3.27,5.68h-6.56Zm11-6.91,3.09,5.39-4.16,7.2H120.2Zm-.89,12.9h8.29l3.2,5.57H123.37Zm4.35-7.5,3.31-5.73,7.45,12.92h-6.63Zm7.88,1.56h6.26l3.17,5.63h-6.18Zm6.59,0h14.74L157,240.2H148.6Zm15.1,0h6.67l-3.27,5.68h-6.56Zm11-6.91,3.1,5.39-4.17,7.2h-6.19Zm-.88,12.9h8.29l3.2,5.57H167.43ZM175,233l3.31-5.73,7.45,12.92h-6.63Zm7.88,1.56h6.26l3.17,5.63h-6.18Zm6.59,0h14.74L201,240.2h-8.36Zm15.1,0h6.67L208,240.2h-6.56Zm11-6.91,3.1,5.39-4.17,7.2h-6.19Zm-.88,12.9H223l3.2,5.57H211.49ZM219,233l3.31-5.73,7.45,12.92h-6.63Zm7.88,1.56h6.26l3.17,5.63h-6.18Zm6.59,0h14.74l-3.17,5.68h-8.37Zm6.74-.31-3.92-6.73h8l3.9,6.73Zm-4.1-7.05-3.54-6.1h0l0,0h8l3.56,6.14Zm-3.68-6.48v.15l-3-5.12,16.15-.14,3,5.11Zm-.07.65h0l7.48,12.88h-6.53l-7.52-13,3.25-5.6Zm-6.68-.56h0l-.08.14-3.09-5.34,4.25-7.37H233ZM227,207.88l3.19-5.53h6.18l-3.17,5.53Zm9.74-5.53H245l3.2,5.57H233.52Zm.18-.31,4-6.87,4,6.87Zm.88-12.9,3.31-5.73,3.11,5.4-3.32,5.72Zm3.5-6,3.11-5.39,3.09,5.34-3.12,5.39Zm-.19-.3-3.31-5.74,3.13-5.38,3.3,5.71Zm-4.15-18.62h8l-4,6.87Zm-.23-.32-3.2-5.67h14.74l-3.17,5.67Zm3.54-6-3.92-6.73h8l3.9,6.73Zm-4.1-7-3.54-6.09,0-.05h8l3.56,6.14Zm-3.68-6.47v.14l-3-5.11,16.15-.15,3,5.12Zm-.07.64,7.48,12.88h-6.53l-7.52-13,3.25-5.61Zm-6.68-.55h0l-.08.14-3.09-5.34,4.25-7.37H233Zm1.26-12.9,3.19-5.52h6.18l-3.17,5.52Zm9.74-5.52H245l3.2,5.57H233.52Zm.18-.32,4-6.87,4,6.87Zm.88-12.9,3.31-5.72,3.11,5.39-3.32,5.73Zm3.5-6,3.11-5.39,3.09,5.34-3.12,5.39Zm-.19-.29-3.31-5.74,3.13-5.38,3.3,5.71Zm-4.15-18.63h8l-4,6.88Zm-.23-.31-3.2-5.68h14.74l-3.17,5.68Zm3.54-6-3.92-6.72h8l3.9,6.72Zm-4.1-7-3.54-6.1,0,0h8l3.56,6.15Zm-3.68-6.48v.15l-3-5.12,16.15-.14,3,5.11Zm-.07.65,7.48,12.87h-6.53l-7.52-13,3.25-5.6Zm-6.68-.56h0l-.08.14-3.09-5.34,4.25-7.38H233ZM227,55.25l3.19-5.53h6.18l-3.17,5.53Zm9.74-5.53H245l3.2,5.57H233.52Zm.18-.31,4-6.88,4,6.88Zm.88-12.9,3.31-5.73,3.11,5.39-3.32,5.73Zm3.5-6,3.11-5.39,3.09,5.34-3.12,5.39Zm-.19-.3-3.31-5.74,3.13-5.38,3.3,5.71Zm-4.15-18.62h8l-4,6.87Zm-10-5.95h6.26l3.17,5.63h-6.18Zm3.06,6,3.21,5.57h-6.64l-3.2-5.57ZM218.85,4.38l4,6.87h-7.93Zm-4.16,7.19H223l3.2,5.57H211.49Zm-.37,0-3.17,5.52H205l3.19-5.52Zm-9.77-6h6.67L208,11.25h-6.56Zm-.36,0L201,11.25h-8.37l-3.21-5.67Zm-21.33,0h6.26l3.17,5.63h-6.18Zm3.06,6,3.21,5.57h-6.64l-3.2-5.57ZM174.79,4.38l4,6.87h-7.93Zm-4.16,7.19h8.29l3.2,5.57H167.43Zm-.37,0-3.17,5.52h-6.2l3.19-5.52Zm-9.77-6h6.67l-3.27,5.67h-6.56Zm-.36,0L157,11.25H148.6l-3.21-5.67Zm-21.33,0h6.26l3.17,5.63h-6.18Zm3.06,6,3.21,5.57h-6.64l-3.2-5.57ZM130.73,4.38l4,6.87h-7.93Zm-4.16,7.19h8.29l3.2,5.57H123.37Zm-.37,0L123,17.09h-6.2L120,11.57Zm-9.76-6h6.66l-3.27,5.67h-6.56Zm-.37,0-3.16,5.67h-8.37l-3.2-5.67Zm-21.32,0H101l3.17,5.63H98Zm3,6L101,17.14H94.37l-3.2-5.57ZM86.68,4.38l3.94,6.87H82.69Zm-4.17,7.19H90.8L94,17.14H79.31Zm-.36,0L79,17.09h-6.2L76,11.57Zm-9.77-6h6.67l-3.28,5.67H69.21Zm-.36,0-3.17,5.67H60.48l-3.2-5.67Zm-21.33,0h6.25l3.18,5.63H53.94Zm3.05,6L57,17.14H50.31l-3.2-5.57ZM42.62,4.38l3.94,6.87H38.64Zm-4.17,7.19h8.3L50,17.14H35.25Zm-.36,0-3.17,5.52h-6.2l3.18-5.52Zm-9.77-6H35l-3.28,5.67H25.15Zm-.36,0-3.17,5.67H16.42l-3.2-5.67Zm-21.33,0h6.25l3.18,5.63H9.88Zm-3.58,6H9.68l3.22,5.57H6.25Zm3.39,5.88h6.64l4,6.94-3.31,5.72ZM6.38,29.37h0l-2.67-4.6,6.57-.06,3.14,5.41h0l.17.29-.17.3h0l-3.13,5.4Zm7.39,1.39,3.34,5.77-4,6.89H6.44ZM3.12,49.41l3.17-5.68H13L9.68,49.41Zm6.76.31h6.18l-3.17,5.53H6.69ZM2.25,62.94l4.26-7.38h6.21L5.43,68.14h0l-.09.14Zm0,11.39.26-.44,0,0,2.87-5,.09.14h0l7.29,12.57H6.45Zm4.39,7.61h6.25l3.18,5.63H9.88ZM3.05,87.88H9.68l3.22,5.57H6.25Zm3.39,5.89h6.64l4,6.94-3.31,5.72Zm-.06,11.92h0l-2.67-4.6,6.57-.06,3.14,5.42h0l.17.3-.17.3h0l-3.13,5.39Zm7.39,1.38,3.34,5.78-4,6.88H6.44ZM3.12,125.73l3.17-5.68H13l-3.28,5.68Zm6.76.31h6.18l-3.17,5.52H6.69ZM2.25,139.25l4.26-7.37h6.21L5.43,144.46h0l-.09.14Zm0,11.4.26-.45h0l2.87-5,.09.13h0l7.29,12.58H6.45Zm4.39,7.6h6.25l3.18,5.63H9.88ZM3.05,164.2H9.68l3.22,5.57H6.25Zm3.39,5.88h6.64l4,6.94-3.31,5.72ZM6.38,182h0l-2.67-4.6,6.57-.06,3.14,5.42h0l.17.3-.17.29h0l-3.13,5.39Zm7.39,1.39,3.34,5.77-4,6.89H6.44ZM3.12,202l3.17-5.68H13L9.68,202Zm6.76.31h6.18l-3.17,5.53H6.69ZM2.25,215.57l4.26-7.37h6.21L5.43,220.77h0l-.09.14Zm0,11.39.26-.44,0,0,2.87-5,.09.14h0l7.29,12.57H6.45Zm4.39,7.61h6.25l3.18,5.63H9.88Zm-.38,11.51-3.2-5.57H9.68l3.22,5.57Zm11.05,7-7.25-12.58h6.23l4.16,7.19Zm-.65-12.58h8l-4,6.88Zm7.45,12.9-3.3-5.71L25,240.51h6.55ZM28.72,246l3.18-5.53h6.19L34.92,246Zm25.44,7.31-23.22.21,4.15-7.16h15Zm-3.85-7.27-3.2-5.57h6.63L57,246.08Zm11,7-7.25-12.58h6.23l4.16,7.19Zm-.65-12.58h8l-4,6.88Zm7.45,12.9-3.3-5.71,4.19-7.19H75.6ZM72.78,246,76,240.51h6.19L79,246Zm25.43,7.31L75,253.56l4.15-7.16h15Zm-3.84-7.27-3.2-5.57H97.8l3.21,5.57Zm11,7-7.25-12.58h6.23l4.15,7.19Zm-.65-12.58h8l-4,6.88Zm7.45,12.9-3.3-5.71,4.18-7.19h6.56Zm4.61-7.37,3.19-5.53h6.18L123,246Zm25.44,7.31-23.21.21,4.14-7.16h15Zm-3.84-7.27-3.2-5.57h6.63l3.21,5.57Zm11,7-7.26-12.58h6.24l4.15,7.19Zm-.65-12.58h8l-4,6.88Zm7.44,12.9L153,247.7l4.18-7.19h6.56Zm4.62-7.37,3.19-5.53h6.18L167.09,246Zm25.44,7.31-23.21.21,4.14-7.16h15Zm-3.84-7.27-3.2-5.57h6.63l3.21,5.57Zm11,7-7.26-12.58h6.24l4.15,7.19Zm-.65-12.58h8l-4,6.88Zm7.44,12.9L197,247.7l4.18-7.19h6.55ZM205,246l3.19-5.53h6.18L211.15,246Zm25.44,7.31-23.22.21,4.15-7.16h15Zm-3.84-7.27-3.2-5.57H230l3.21,5.57Zm11,7-7.26-12.58h6.24l4.15,7.19Zm-.66-12.58h8l-4,6.88Zm7.45,12.9-3.29-5.71,4.18-7.19h6.55Zm10.89-18.89L252,240.2h-6.56l3.17-5.68Zm-6.77-.51L241,221h7.82l.23.39h0l3.39,5.85h0Zm7.23-13.09h0l.17.29-.17.3h0l-3.12,5.39-3.91-6.75h0L246,215.57l6.56-.06Zm-3.32-5.73-23.22.21,4.15-7.16h15Zm2.8-7.27h-6.65l-3.19-5.57H252ZM251.83,202h-6.64l-4.13-7.19,3.32-5.73Zm3.21-5.95h-6.27l-4.21-7.28.26-.45,0,0,2.88-5,.08.14h0ZM255,170l-7.29,12.58h0l-.08.14-3.1-5.34,4.26-7.37Zm-10.65,7.05-3.29-5.7,4.18-7.19h6.55Zm10.89-18.88L252,163.88h-6.56l3.17-5.67Zm-6.77-.52-7.53-13h7.82l.23.38h0l3.39,5.84h0Zm7.23-13.08h0l.17.3-.17.29h0l-3.12,5.39-3.91-6.75h0l-2.67-4.6,6.57-.06Zm-3.32-5.73-23.22.2,4.15-7.15h15Zm2.8-7.27h-6.65L245.38,126H252Zm-3.39-5.89h-6.64l-4.13-7.19,3.32-5.72Zm3.21-5.94h-6.27l-4.21-7.29.26-.45h0l2.88-5,.08.14h0Zm0-26.06-7.29,12.58h0l-.08.13-3.1-5.34,4.26-7.37Zm-10.65,7.06-3.29-5.71,4.18-7.19h6.55Zm10.89-18.89L252,87.57h-6.56l3.17-5.68Zm-6.77-.51-7.53-13h7.82l.23.39h0l3.39,5.85h0Zm7.23-13.09h0l.17.29-.17.3h0l-3.12,5.39-3.91-6.75h0L246,62.93l6.56,0Zm-3.32-5.73-23.22.21,4.15-7.16h15Zm2.8-7.27h-6.65l-3.19-5.57H252Zm-3.39-5.88h-6.64l-4.13-7.19,3.32-5.73ZM255,43.46h-6.27l-4.21-7.28.26-.45,0,0,2.88-5,.08.14h0Zm0-26L247.75,30h0l-.08.14-3.1-5.34,4.26-7.37Zm-10.65,7.05-3.29-5.7,4.18-7.19h6.55ZM252,11.25h-6.56l3.17-5.67h6.67Z"/></g></svg>