<svg xmlns="http://www.w3.org/2000/svg" viewBox="0 0 256 256"><defs><style>.cls-1{fill:#969487;}</style></defs><title>seamless_pattern14</title><g id="seamless_pattern14"><path class="cls-1" d="M255.9,9.24a7.58,7.58,0,0,0-6.26-6.6A7.22,7.22,0,0,0,254.19,0h-.27a6.93,6.93,0,0,1-5.28,2.53h-2L249,0h-.29l-2.33,2.47-2-2.47h-.27l1.74,2.2L242.47,0h-.41l4.16,2.64-9,6.46-.16.11h-.54l-9.1-6.55L231.62,0h-.4l-3.5,2.23L229.49,0h-.27l-2,2.48L224.91,0h-.29L227,2.53h-2A6.93,6.93,0,0,1,219.76,0h-.27A7.2,7.2,0,0,0,224,2.64a7.57,7.57,0,0,0-6.26,6.6,7.59,7.59,0,0,0-6.26-6.6A7.25,7.25,0,0,0,216.07,0h-.27a7,7,0,0,1-5.29,2.53h-2L210.92,0h-.29l-2.34,2.47-2-2.47h-.27l1.74,2.2L204.34,0h-.4l4.15,2.64-9,6.46-.15.11h-.54l-9.1-6.55L193.5,0h-.4l-3.5,2.23L191.37,0h-.27l-2,2.48L186.79,0h-.3l2.38,2.53h-2A6.93,6.93,0,0,1,181.64,0h-.27a7.2,7.2,0,0,0,4.55,2.64,7.57,7.57,0,0,0-6.26,6.6,7.59,7.59,0,0,0-6.27-6.6A7.25,7.25,0,0,0,178,0h-.27a7,7,0,0,1-5.29,2.53h-2L172.8,0h-.3l-2.33,2.47-2-2.47h-.27l1.74,2.2L166.22,0h-.4L170,2.64,161,9.1l-.15.11h-.54l-9.1-6.55L155.38,0H155l-3.5,2.23L153.25,0H153l-2,2.48L148.67,0h-.3l2.38,2.53H148.8A6.93,6.93,0,0,1,143.52,0h-.28a7.25,7.25,0,0,0,4.56,2.64,7.57,7.57,0,0,0-6.26,6.6,7.59,7.59,0,0,0-6.27-6.6A7.25,7.25,0,0,0,139.83,0h-.27a7,7,0,0,1-5.29,2.53h-2L134.68,0h-.3l-2.33,2.47-2-2.47h-.28l1.75,2.2L128.1,0h-.4l4.15,2.64-9,6.46-.15.11h-.54l-9.1-6.55L117.26,0h-.4l-3.5,2.23L115.13,0h-.28l-2,2.48L110.55,0h-.3l2.38,2.53h-1.95A7,7,0,0,1,105.39,0h-.27a7.25,7.25,0,0,0,4.56,2.64,7.59,7.59,0,0,0-6.27,6.6,7.57,7.57,0,0,0-6.26-6.6A7.2,7.2,0,0,0,101.7,0h-.27a6.93,6.93,0,0,1-5.28,2.53h-2L96.56,0h-.3L93.93,2.47,92,0h-.28l1.75,2.2L90,0h-.4l4.15,2.64-9,6.46-.15.11h-.54L75,2.66,79.14,0h-.4l-3.5,2.23L77,0h-.28l-2,2.48L72.43,0h-.3l2.38,2.53h-2A7,7,0,0,1,67.27,0H67a7.25,7.25,0,0,0,4.55,2.64,7.59,7.59,0,0,0-6.26,6.6A7.57,7.57,0,0,0,59,2.64,7.2,7.2,0,0,0,63.58,0h-.27A6.93,6.93,0,0,1,58,2.53h-2L58.44,0h-.3L55.81,2.47,53.85,0h-.28l1.75,2.2L51.86,0h-.4l4.15,2.64-9,6.46-.15.11h-.55l-9.1-6.55L41,0h-.4L37.11,2.23,38.89,0h-.28l-2,2.48L34.31,0H34l2.38,2.53h-2A6.93,6.93,0,0,1,29.15,0h-.27a7.22,7.22,0,0,0,4.55,2.64,7.58,7.58,0,0,0-6.26,6.6,7.58,7.58,0,0,0-6.26-6.6A7.22,7.22,0,0,0,25.46,0h-.27a6.93,6.93,0,0,1-5.28,2.53h-2L20.31,0H20L17.69,2.47,15.73,0h-.28L17.2,2.2,13.74,0h-.4l4.15,2.64-9,6.46-.15.11H7.82L.05,3.61v.27L7.4,9.18l-1.57,0H2.42L.05,5.08v.43L2.18,9.24.25,11.3l-.2.21v.31h0l.4-.42,1.88-2v.08l3.53-.08h8.06l8.18,8.72-4.52,5.69L8.26,13.93h0l-.07-.07h0l-.08-.08h0l-8,8.54v.32L8,14.2v2.06A7.41,7.41,0,0,1,.85,23.89H.05v.22h.8a6.83,6.83,0,0,1,1.81.27A7.56,7.56,0,0,1,8,31.74V34L.05,25.38v.32L8,34.23,3.15,39.29.05,36v.35l3,3.19-3,3.76v.35l3.18-4H7.36L.05,44.28v.25l7.82-5h.58l0,0,9.06,5.77-9,6.46-.15.11H7.82L.05,46.33v.27L7.4,51.89l-1.57,0H2.42L.05,47.8v.43L2.18,52,.25,54l-.2.21v.31h0l.4-.42,1.88-2v.08l3.53-.08h8.06l8.18,8.72-4.52,5.69L8.26,56.65h0l-.15-.15h0L.05,65v.32l8-8.44V59A7.42,7.42,0,0,1,.85,66.61H.05v.21h.8a6.84,6.84,0,0,1,1.81.28A7.56,7.56,0,0,1,8,74.46v2.21L.05,68.1v.32L8,77,3.15,82,.05,78.69V79l3,3.19L.05,86v.35l3.18-4H7.36L.05,87v.26l7.82-5h.58l0,0,9.06,5.77-9,6.46-.15.11H7.82L.05,89.05v.27L7.4,94.61l-1.57,0H2.42L.05,90.52V91l2.13,3.73-1.92,2L.05,97v.31h0l.41-.44,1.87-2V95l3.53-.08h8.06l8.18,8.72-4.52,5.69L8.26,99.37h0l-.07-.07h0l-.08-.08h0l-8,8.54v.32l8-8.44v2.06a7.41,7.41,0,0,1-7.15,7.63H.05v.21h.8a6.7,6.7,0,0,1,1.8.28A7.56,7.56,0,0,1,8,117.18v2.21L.05,110.82v.32L8,119.67l-4.81,5.06-3.1-3.32v.35L3,125l-3,3.76v.35l3.18-4H7.36L.05,129.71V130l7.82-5h.58l0,0,9.06,5.77-9,6.46-.15.11H7.82l-7.77-5.6V132l7.35,5.29-1.57,0H2.42L.05,133.24v.43l2.13,3.73L.25,139.46l-.2.21V140h0l.4-.43,1.88-2v.08l3.53-.08h8.06l8.18,8.72L17.58,152l-9.32-9.91h0l-.15-.15h0l-8,8.54v.32l8-8.44v2.06a7.42,7.42,0,0,1-7.15,7.63H.05v.21h.8a6.84,6.84,0,0,1,1.81.28A7.56,7.56,0,0,1,8,159.9v2.21L.05,153.54v.32L8,162.39l-4.81,5.06-3.1-3.32v.35l3,3.19-3,3.76v.35l3.18-4H7.36L.05,172.43v.26l7.82-5h.58l0,0,9.06,5.77-9,6.46h0l-.15.11H7.82l-7.77-5.6v.27l7.35,5.29-1.57,0H2.42L.05,176v.43l2.13,3.73-1.92,2-.21.22v.31h0l.41-.44,1.87-2v.08l3.53-.08h8.06L22.1,189l-4.52,5.69-9.32-9.91h0l-.15-.15h0l-8,8.54v.32l8-8.44v2.06a7.42,7.42,0,0,1-7.15,7.63H.05V195h.8a6.7,6.7,0,0,1,1.8.28A7.56,7.56,0,0,1,8,202.62v2.21L.05,196.26v.32L8,205.11l-4.81,5.06-3.1-3.32v.35l3,3.19-3,3.76v.35l3.18-4H7.36L.05,215.15v.26l7.82-5h.58l0,0,9.06,5.77-9,6.46-.15.11H7.82l-7.77-5.6v.27l7.35,5.29-1.57,0H2.42L.05,218.68v.43l2.13,3.73L.25,224.9l-.2.21v.31h0l.4-.43,1.88-2v.08L5.86,223h8.06l8.18,8.72-4.52,5.69-9.32-9.91h0l-.15-.15h0l-8,8.54v.31l8-8.43v2.06a7.42,7.42,0,0,1-7.15,7.63H.05v.21h.8a6.84,6.84,0,0,1,1.81.28A7.56,7.56,0,0,1,8,245.33v2.22L.05,239v.32L8,247.83l-4.81,5.06-3.1-3.32v.35l3,3.19L.78,256h.28l2.17-2.73H7.36L3.07,256h.4l4.4-2.8h.58l0,0L12.76,256h.4l-4.4-2.8H13l0,0L15.16,256h.27l-2.25-2.84,6.33-6.75,1.88-2v.08l3.53-.08H33l8.18,8.72L38.9,256h.28l2.17-2.73h4.13L41.19,256h.41l4.39-2.8h.58l0,0L50.88,256h.4l-4.4-2.8H51.1l0,0L53.28,256h.27l-2.25-2.84,6.3-6.71,1.91-2v.08l3.53-.08H71.1l8.19,8.72L77,256h.28l2.17-2.73H83.6L79.31,256h.41l4.39-2.8h.59l0,0L89,256h.4l-4.4-2.8h4.22l0,0L91.4,256h.28l-2.26-2.84,6.29-6.7,1.92-2v.08l3.54-.08h8l8.19,8.72L115.15,256h.27l2.17-2.73h4.13L117.44,256h.4l4.4-2.8h.58l0,0,4.33,2.76h.4l-4.39-2.8h4.21l0,0,2.2,2.78h.28l-2.26-2.84,6.34-6.76,1.87-2v.08l3.54-.08h8.05l8.19,8.72L153.27,256h.27l2.17-2.73h4.13L155.56,256h.4l4.4-2.8h.58l0,0,4.33,2.76h.4l-4.39-2.8h4.21l0,0,2.2,2.78h.28l-2.26-2.84,6.29-6.7,1.92-2v.08l3.54-.08h8.05l8.19,8.72L191.39,256h.27l2.17-2.73H198L193.68,256h.4l4.4-2.8h.58l0,0,4.33,2.76h.41l-4.4-2.8h4.21l0,0,2.2,2.78H206l-2.26-2.84,6.33-6.75,1.88-2v.08l3.53-.08h8.06l8.18,8.72L229.51,256h.28l2.16-2.73h4.13L231.8,256h.4l4.4-2.8h.58l0,0,4.34,2.76h.4l-4.4-2.8h4.21l0,0,2.21,2.78h.27l-2.25-2.84,6.28-6.7,1.93-2v.08l3.53-.08H256v-.22h-.39L247,238l-.51-.37,9.15-5.82H256v-.22h-4.81l4.71-4.94h0l.1.1V222.2c-.05.21-.07.42-.1.64a7.57,7.57,0,0,0-6.26-6.6,7.59,7.59,0,0,0,6.26-6.61c0,.22,0,.44.1.65v-4.16h0l-.11-.1-9.47,10-4.51-5.68,6.32-6.74,1.89-2v.08l3.51-.08H256v-.22h-.39L247,195.26l-.51-.36,9.15-5.83H256v-.22h-4.81l4.71-4.94h0l.1.1v-4.53c-.05.21-.07.42-.1.64a7.58,7.58,0,0,0-6.26-6.6,7.59,7.59,0,0,0,6.26-6.61c0,.22,0,.44.1.65V163.4h0l0,0h0l-.09-.08-9.47,10-4.51-5.68,6.28-6.7,1.93-2V159l3.53-.08H256v-.22h-.39L247,152.54l-.51-.36,9.15-5.83H256v-.21h-4.81l4.71-4.95h0l.1.1v-4.53c-.05.21-.07.42-.1.64a7.58,7.58,0,0,0-6.26-6.6,7.59,7.59,0,0,0,6.26-6.61c0,.22,0,.44.1.65v-4.16h0l-.11-.1-9.47,10L241.91,125l6.34-6.76,1.87-2v.08l3.51-.08H256V116h-.39L247,109.82l-.51-.36,9.15-5.83H256v-.21h-4.81l4.71-5h0l.1.11V94c-.05.21-.07.42-.1.64a7.58,7.58,0,0,0-6.26-6.6,7.59,7.59,0,0,0,6.26-6.61c0,.22,0,.44.1.65V78h0l0,0h0l-.09-.08-9.47,10-4.51-5.68,6.28-6.7,1.93-2v.08l3.53-.08H256v-.22h-.39L247,67.1l-.51-.36,9.15-5.83H256V60.7h-4.81l4.71-5h0l.1.11V51.32c-.05.21-.07.43-.1.64a7.58,7.58,0,0,0-6.26-6.6,7.59,7.59,0,0,0,6.26-6.61c0,.22,0,.44.1.65V35.24h0l-.11-.1-9.47,10-4.51-5.68,6.34-6.75,1.87-2v.08l3.51-.08H256v-.22h-.39L247,24.38l-.51-.36,9.15-5.83H256V18h-4.81l4.71-5h0l.1.11V8.6C256,8.81,255.93,9,255.9,9.24ZM246.08,3l-3.43,6.16-5.11,0Zm-10,6.17-1.57,0h-3.42L227.61,3Zm-5.22.06L229,11.3l-6.31,6.63-4.75-5.06,9.32-10Zm0,42.72L229,54l-6.31,6.63-4.75-5.06,9.32-10.05Zm-3.3-6.2,8.52,6.13-1.57,0h-3.42Zm3.3,48.92-1.92,2-6.32,6.64-4.75-5.06,9.32-10Zm-3.3-6.2,8.52,6.13-1.57,0h-3.42Zm3.3,48.92L229,139.46l-6.31,6.63L217.92,141,227.24,131Zm-3.3-6.2,8.52,6.13-1.57,0h-3.42Zm3.3,48.92-1.92,2-6.32,6.64-4.75-5.06,9.32-10.05Zm-3.3-6.2,8.52,6.13-1.57,0h-3.42Zm3.3,48.92L229,224.9l-6.31,6.63-4.75-5.06,9.32-10.05Zm-3.3-6.2,8.52,6.13-1.57,0h-3.42ZM191.45,237.7a6.78,6.78,0,0,1,1.81.28,7.55,7.55,0,0,1,5.35,7.35v2.22L189.73,238l-.26-.28Zm-2-.21,9.13-9.69v2.06a7.42,7.42,0,0,1-7.16,7.63Zm4.46.49a6.65,6.65,0,0,0-1.49-.38,7.59,7.59,0,0,0,6.26-6.55.13.13,0,0,1,0-.06A7.58,7.58,0,0,0,205,237.6a6.79,6.79,0,0,0-1.49.38,7.73,7.73,0,0,0-4.77,6.22.13.13,0,0,1,0-.06A7.71,7.71,0,0,0,193.94,238Zm4.89-8.12V227.8l9.1,9.69h-2A7.42,7.42,0,0,1,198.83,229.86Zm0,15.47a7.54,7.54,0,0,1,5.34-7.35,6.78,6.78,0,0,1,1.81-.28h2l-.26.28-8.86,9.57Zm0-17.8h0l-.16-.15h0l-9.48,10.05-4.51-5.68,6.29-6.7,1.92-2v.08l3.53-.08h8.06l8.18,8.72-4.53,5.69ZM153.33,237.7a6.78,6.78,0,0,1,1.81.28,7.55,7.55,0,0,1,5.35,7.35v2.22L151.61,238l-.26-.28Zm-2-.21,9.14-9.69v2.06a7.42,7.42,0,0,1-7.16,7.63Zm4.47.49a6.65,6.65,0,0,0-1.49-.38,7.59,7.59,0,0,0,6.26-6.55.13.13,0,0,1,0-.06,7.58,7.58,0,0,0,6.26,6.61,6.79,6.79,0,0,0-1.49.38,7.72,7.72,0,0,0-4.77,6.22.13.13,0,0,1,0-.06A7.71,7.71,0,0,0,155.82,238Zm4.88-8.12V227.8l9.11,9.69h-1.95A7.42,7.42,0,0,1,160.7,229.86Zm0,15.47a7.55,7.55,0,0,1,5.35-7.35,6.78,6.78,0,0,1,1.81-.28h2l-.26.28-8.87,9.57Zm0-17.8h0l-.16-.15h0l-9.48,10.05-4.51-5.68,6.33-6.75,1.88-2v.08l3.54-.08h8.05l8.19,8.72-4.53,5.69ZM115.21,237.7A6.78,6.78,0,0,1,117,238a7.55,7.55,0,0,1,5.35,7.35v2.22L113.49,238l-.26-.28Zm-2-.21,9.14-9.69v2.06a7.42,7.42,0,0,1-7.16,7.63Zm4.47.49a6.79,6.79,0,0,0-1.49-.38,7.6,7.6,0,0,0,6.26-6.55V231a7.6,7.6,0,0,0,6.27,6.61,6.65,6.65,0,0,0-1.49.38,7.74,7.74,0,0,0-4.78,6.22v-.06A7.73,7.73,0,0,0,117.7,238Zm4.88-8.12V227.8l9.11,9.69h-1.95A7.42,7.42,0,0,1,122.58,229.86Zm0,15.47a7.55,7.55,0,0,1,5.35-7.35,6.78,6.78,0,0,1,1.81-.28h2l-.26.28-8.87,9.57Zm0-17.8h0l-.16-.15h0L113,237.43l-4.51-5.68,6.29-6.7,1.92-2v.08l3.54-.08h8l8.19,8.72-4.53,5.69ZM77.09,237.7a6.78,6.78,0,0,1,1.81.28,7.54,7.54,0,0,1,5.34,7.35v2.22L75.37,238l-.26-.28Zm-2-.21,9.13-9.69v2.06a7.42,7.42,0,0,1-7.15,7.63Zm4.47.49a6.79,6.79,0,0,0-1.49-.38,7.6,7.6,0,0,0,6.26-6.55V231a7.6,7.6,0,0,0,6.27,6.61,6.65,6.65,0,0,0-1.49.38,7.73,7.73,0,0,0-4.78,6.22v-.06A7.73,7.73,0,0,0,79.58,238Zm4.88-8.12V227.8l9.11,9.69H91.62A7.42,7.42,0,0,1,84.46,229.86Zm0,15.47A7.55,7.55,0,0,1,89.81,238a6.78,6.78,0,0,1,1.81-.28h2l-.26.28-8.87,9.57Zm0-17.8h0l-.16-.15h0l-9.48,10.05-4.51-5.68L76.69,225l1.88-2v.08l3.54-.08h8l8.19,8.72-4.53,5.69ZM39,237.7a6.78,6.78,0,0,1,1.81.28,7.56,7.56,0,0,1,5.34,7.35v2.22L37.25,238,37,237.7Zm-2-.21,9.13-9.69v2.06A7.42,7.42,0,0,1,39,237.49Zm4.47.49A6.79,6.79,0,0,0,40,237.6a7.6,7.6,0,0,0,6.26-6.55V231a7.61,7.61,0,0,0,6.26,6.61A6.7,6.7,0,0,0,51,238a7.73,7.73,0,0,0-4.78,6.22v-.06A7.75,7.75,0,0,0,41.46,238Zm4.88-8.12V227.8l9.11,9.69h-2A7.42,7.42,0,0,1,46.34,229.86Zm0,15.47A7.55,7.55,0,0,1,51.69,238a6.78,6.78,0,0,1,1.81-.28h2l-.25.28-8.87,9.57Zm0-17.8h0l-.15-.15h0l-9.48,10.05-4.51-5.68,6.28-6.7,1.93-2v.08L44,223H52l8.18,8.72-4.52,5.69Zm-9.73-32.27.11-.2.19.2,9.13,9.85-4.81,5-8.1-8.66ZM33,201.41l-5.1,0,8.51-6.13h0Zm3.67-48.87.11-.2.19.2,9.13,9.85-4.81,5.06-8.1-8.67ZM33,158.69l-5.1,0,8.51-6.13h0Zm3.67-48.87.11-.2.19.2,9.13,9.85-4.81,5.06-8.1-8.67ZM33,116l-5.1,0,8.51-6.13h0ZM36.65,67.1l.11-.2.19.2L46.08,77,41.27,82l-8.1-8.67ZM33,73.25l-5.1,0,8.51-6.13h0Zm3.67-48.87.11-.2.19.2,9.13,9.85-4.81,5.06-8.1-8.67ZM33,30.53l-5.1,0,8.51-6.13h0ZM65.05,18.19h.58l0,0L74.67,24l-.53.38L65.7,30.46h0l-.15.1H65l-8.6-6.19L55.9,24Zm-8.88,5.4,4.24-5.32h4.13Zm18.21,0-8.44-5.37h4.22l0,0Zm28.8-5.37h.58l0,0L112.79,24l-.53.38-8.44,6.08h0l-.15.1h-.54l-8.6-6.19L94,24Zm-8.88,5.4,4.23-5.32h4.13Zm18.2,0-8.44-5.37h4.22l0,0Zm28.8-5.37h.58l0,0L150.91,24l-.52.38-8.45,6.08h0l-.15.1h-.54l-8.6-6.19-.5-.36Zm-8.88,5.4,4.23-5.32h4.13Zm18.2,0-8.43-5.37h4.21l0,0Zm28.8-5.37H180l0,0L189,24l-.52.38-8.45,6.08h0l-.15.1h-.54l-8.59-6.19-.51-.36Zm-8.88,5.4,4.23-5.32h4.13Zm18.2,0-8.43-5.37h4.21l0,0Zm23.11,7-1.88,2-6.36,6.69-4.75-5.06L208,24.38l.19-.2.11.2Zm-3.3-6.2,8.52,6.13-1.59,0h-3.4Zm3.3,48.92-1.93,2.06L203.61,82,198.86,77,208,67.1l.19-.2.11.2Zm-3.3-6.2,8.52,6.13-1.57,0h-3.42Zm3.3,48.92L210,118l-6.36,6.69-4.75-5.06,9.13-9.85.19-.2.11.2Zm-3.3-6.2,8.52,6.13-1.59,0h-3.4Zm3.3,48.92-1.93,2.06-6.31,6.63-4.75-5.06,9.13-9.85.19-.2.11.2Zm-3.3-6.2,8.52,6.13-1.57,0h-3.42Zm3.3,48.92-1.89,2-6.35,6.67-4.75-5.06,9.13-9.85.19-.2.11.2Zm-3.3-6.2,8.52,6.13-1.59,0h-3.4ZM225,216.13a7.42,7.42,0,0,1-7.15-7.63v-2.06l9.11,9.69Zm2,.21-9.12,9.85V224a7.42,7.42,0,0,1,7.15-7.63Zm-3-.1a7.56,7.56,0,0,0-6.26,6.6,7.58,7.58,0,0,0-6.26-6.6,7.61,7.61,0,0,0,6.26-6.61A7.58,7.58,0,0,0,224,216.24Zm-6.37-7.74a7.42,7.42,0,0,1-7.16,7.63h-2l9.13-9.69Zm-7.16,7.84a7.42,7.42,0,0,1,7.16,7.63v2.22l-9.14-9.85Zm7.12,10.13-4.82,5.06-8.09-8.67,3.59-6.44Zm-13.11-3.7-5.1,0,8.54-6.14Zm-5.4-.07-.15.11h-.54l-9.1-6.55,9.15-5.83h.58l0,0,9.06,5.77Zm-143.3-6.28,9.32,10.05-4.81,5.06-8.09-8.67ZM52,222.77l-5.1,0,8.53-6.14Zm3.78-49.07,9.32,10.05-4.81,5.06-8.09-8.67ZM52,180.05l-5.1,0,8.53-6.14ZM55.82,131,65.14,141l-4.81,5.06-8.09-8.67ZM52,137.33l-5.1,0,8.53-6.14Zm3.78-49.07,9.32,10-4.81,5.06L52.24,94.7ZM52,94.61l-5.1,0,8.53-6.14Zm3.78-49.07,9.32,10.05-4.81,5.06L52.24,52ZM52,51.89l-5.1,0,8.53-6.14ZM51.1,39.55l0,0,4.25,5.35-8.44-5.37Zm-4.87-.21H41.52l4.71-5h0l4.64,5Zm5.07.17,6.35-6.77,1.86-2v.08L63,30.79H71.1l8.19,8.72L74.76,45.2l-9.32-9.91h0l-.16-.15-9.48,10ZM56.07,24.4l8.51,6.13-1.59,0H59.6ZM66,30.51l8.51-6.13h0L71.1,30.53ZM93.44,44.92,85,39.55h4.22l0,0Zm4.19-14,3.51-.08h8.08l8.19,8.72-4.53,5.69-9.32-9.91h0l-.16-.15-9.48,10-4.51-5.68,6.34-6.75,1.87-2ZM94.19,24.4l8.52,6.13-1.6,0H97.72Zm9.93,6.11,8.51-6.13h0l-3.43,6.15Zm27.44,14.41-8.44-5.37h4.22l0,0Zm4.19-14,3.52-.08h8.07l8.19,8.72L151,45.2l-9.32-9.91h0l-.16-.15-9.48,10-4.51-5.68,6.4-6.81,1.81-1.91Zm-3.44-6.47,8.52,6.13-1.6,0h-3.39Zm9.93,6.11,8.51-6.13h0l-3.43,6.15Zm27.44,14.41-8.43-5.37h4.21l0,0Zm4.19-14,3.52-.08h8.07l8.19,8.72-4.53,5.69-9.32-9.91h0l-.16-.15-9.48,10-4.51-5.68L172,32.76l1.87-2Zm-3.44-6.47L179,30.53l-1.6,0H174Zm9.93,6.11,8.52-6.13h0l-3.43,6.15ZM198,39.63,189.6,45l4.23-5.32Zm-4-.29,4.71-5h0l4.64,5H194ZM192.79,52,190.85,54l-6.3,6.63-4.75-5.06,9.32-10.05Zm-3.3-6.2L198,51.89l-1.57,0H193Zm3.3,48.92-1.92,2-6.32,6.64-4.75-5.06,9.32-10Zm-3.3-6.2L198,94.61l-1.57,0H193Zm3.3,48.92-1.94,2.06-6.3,6.63L179.8,141,189.12,131Zm-3.3-6.2,8.52,6.13-1.57,0H193Zm3.3,48.92-1.92,2-6.32,6.64-4.75-5.06,9.32-10.05Zm-3.3-6.2,8.52,6.13-1.57,0H193Zm-9.69,32.25h0l-.16-.15-9.48,10-4.51-5.68,6.33-6.74,1.88-2v.08l3.52-.08h8.07l8.19,8.72-4.53,5.69Zm9.07,10h-2a7.42,7.42,0,0,1-7.16-7.63v-2.06Zm-9.32-9.69v2.06a7.42,7.42,0,0,1-7.16,7.63h-2Zm-37.87-.27h0l-.16-.15-9.48,10-4.51-5.68,6.39-6.8,1.82-1.92v.08l3.52-.08h8.07l8.19,8.72L151,216.08Zm9.07,10H148.8a7.42,7.42,0,0,1-7.16-7.63v-2.06Zm-9.32-9.69v2.06a7.42,7.42,0,0,1-7.16,7.63h-2Zm-37.87-.27h0l-.16-.15-9.48,10-4.51-5.68,6.33-6.74,1.88-2v.08l3.51-.08h8.08l8.19,8.72-4.53,5.69Zm9.07,10h-1.95a7.42,7.42,0,0,1-7.16-7.63v-2.06Zm-9.32-9.69v2.06a7.42,7.42,0,0,1-7.16,7.63h-2ZM74.77,195.26l.11-.2.19.2,9.13,9.85-4.81,5L71.3,201.5Zm-3.67,6.15-5.1,0,8.51-6.13h0Zm3.67-48.87.11-.2.19.2,9.13,9.85-4.81,5.06-8.09-8.67Zm-3.67,6.15-5.1,0,8.51-6.13h0Zm3.67-48.87.11-.2.19.2,9.13,9.85-4.81,5.06-8.09-8.67ZM71.1,116,66,116l8.51-6.13h0ZM74.77,67.1l.11-.2.19.2L84.2,77,79.39,82,71.3,73.34ZM71.1,73.25l-5.1,0,8.51-6.13h0ZM93.73,45.36l-9,6.46-.15.11h-.54L75,45.38l9.16-5.83h.58l0,0Zm38.12,0-9,6.46-.15.11h-.54l-9.1-6.55,9.15-5.83h.58l0,0Zm38.12,0-9,6.46-.15.11h-.54l-9.1-6.55,9.15-5.83h.58l0,0Zm3.76,28-1.94,2.06L165.49,82,160.74,77l9.13-9.85.18-.2.12.2Zm-3.3-6.2L179,73.25l-1.57,0H174Zm3.3,48.92-1.88,2-6.36,6.69-4.75-5.06,9.13-9.85.18-.2.12.2Zm-3.3-6.2L179,116l-1.6,0H174Zm3.3,48.92-1.94,2.06-6.3,6.63-4.75-5.06,9.13-9.85.18-.2.12.2Zm-3.3-6.2,8.52,6.13-1.57,0H174Zm3.3,48.92-1.9,2-6.34,6.67-4.75-5.06,9.13-9.85.18-.2.12.2Zm-3.3-6.2,8.52,6.13-1.6,0H174ZM77.09,195a6.78,6.78,0,0,1,1.81.28,7.56,7.56,0,0,1,5.34,7.36v2.21l-8.87-9.57-.26-.28Zm-2-.21,9.13-9.69v2.06a7.42,7.42,0,0,1-7.15,7.63Zm4.47.49a6.79,6.79,0,0,0-1.49-.38,7.6,7.6,0,0,0,6.26-6.55v-.06a7.6,7.6,0,0,0,6.27,6.61,6.65,6.65,0,0,0-1.49.38,7.73,7.73,0,0,0-4.78,6.22v-.06A7.75,7.75,0,0,0,79.58,195.26Zm4.88-8.12v-2.06l9.11,9.69H91.62A7.42,7.42,0,0,1,84.46,187.14Zm0,15.48a7.56,7.56,0,0,1,5.35-7.36,6.78,6.78,0,0,1,1.81-.28h2l-.26.28-8.87,9.57Zm9.16-7.36.19-.2.12.2,3.56,6.22-1.9,2-6.35,6.67-4.74-5.06Zm.57,0,8.52,6.13-1.6,0H97.72Zm.34,0-.5-.36,9.15-5.83h.58l0,0,9.06,5.77-.53.38-8.44,6.08-.15.11h-.54Zm-.59-21.56,9.33,10.05-4.82,5.06-8.09-8.67Zm-3.78,6.35-5.1,0,8.53-6.14ZM93.94,131,103.27,141l-4.82,5.06-8.09-8.67Zm-3.78,6.35-5.1,0,8.53-6.14Zm3.78-49.07,9.33,10-4.82,5.06L90.36,94.7Zm-3.78,6.35-5.1,0,8.53-6.14ZM112.5,66.28l-8.44-5.37h4.22l0,0Zm4.19-14.05,3.54-.08h8l8.19,8.72-4.53,5.69-9.32-9.91h0l-.16-.15h0l-9.48,10-4.51-5.68,6.29-6.7,1.92-2Zm-3.44-6.47,8.52,6.13-1.57,0h-3.42Zm9.93,6.11,8.53-6.14-3.43,6.16Zm27.44,14.41-8.43-5.37h4.21l0,0Zm4,28.4-1.88,2-6.36,6.69-4.75-5.06,9.31-10Zm-3.3-6.2,8.52,6.13-1.57,0H154.9Zm3.3,48.92-1.89,2-6.35,6.68L141.68,141,151,131Zm-3.3-6.2,8.52,6.13-1.57,0H154.9Zm3.3,48.92-1.88,2-6.36,6.69-4.75-5.06L151,173.7Zm-3.3-6.2,8.52,6.13-1.57,0H154.9Zm-28.75,10.89h0l-.16-.15h0L113,194.71,108.48,189l6.34-6.76,1.87-2v.08l3.54-.08h8l8.19,8.72-4.53,5.69Zm9.07,10h-1.95a7.42,7.42,0,0,1-7.16-7.63v-2.06Zm-9.32-9.69v2.06a7.42,7.42,0,0,1-7.16,7.63h-2Zm-9.48-32.54.11-.2.19.2,9.14,9.85-4.82,5.06-8.09-8.67Zm-3.67,6.15-5.1,0,8.51-6.13h0Zm3.67-48.87.11-.2.19.2,9.14,9.85-4.82,5.06-8.09-8.67ZM109.22,116l-5.1,0,8.51-6.13h0Zm3.67-48.87.11-.2.19.2L122.33,77,117.51,82l-8.09-8.67Zm-3.67,6.15-5.1,0,8.51-6.13h0Zm26.39.07-1.92,2.05L127.37,82,122.62,77l9.12-9.85.19-.2.12.2Zm-3.3-6.2,8.52,6.13-1.57,0h-3.42Zm-5,15.15,0,0,4.24,5.35-8.43-5.37Zm-4.87-.21h-4.71l4.71-5h0l4.65,5Zm9-15-8.87,9.57V74.46a7.56,7.56,0,0,1,5.35-7.36,6.78,6.78,0,0,1,1.81-.28h2Zm-1.71-.49A7.42,7.42,0,0,1,122.58,59V56.92l9.11,9.69Zm-1,.11a6.65,6.65,0,0,0-1.49.38,7.74,7.74,0,0,0-4.78,6.22v-.06a7.73,7.73,0,0,0-4.77-6.16,6.65,6.65,0,0,0-1.49-.38,7.59,7.59,0,0,0,6.26-6.55v-.06A7.6,7.6,0,0,0,128.74,66.72ZM122.37,59a7.42,7.42,0,0,1-7.16,7.63h-2l9.14-9.69Zm-7.16,7.84a6.78,6.78,0,0,1,1.81.28,7.56,7.56,0,0,1,5.35,7.36v2.21l-8.88-9.57-.26-.28Zm2.38,15.52h4.13l-8.36,5.33Zm4.65-.07h.58l0,0,9.06,5.77-9,6.46-.15.11h-.54l-9.1-6.55Zm14.58,21.15,4.71-5h0l4.64,5Zm4,.28L132.42,109l4.23-5.33Zm8-15.73a7.41,7.41,0,0,1-7.16-7.63V78.28L150.75,88Zm2,.21L141.64,98V95.82a7.42,7.42,0,0,1,7.16-7.64Zm-3-.1a7.57,7.57,0,0,0-6.26,6.6,7.59,7.59,0,0,0-6.27-6.6,7.6,7.6,0,0,0,6.27-6.61A7.58,7.58,0,0,0,147.8,88.08Zm-6.37-7.74A7.41,7.41,0,0,1,134.27,88h-2l9.14-9.69Zm-7.16,7.84a7.42,7.42,0,0,1,7.16,7.64V98l-9.14-9.85Zm7.12,10.13-4.82,5.06-8.09-8.67,3.59-6.44Zm-13.11-3.7-5.1,0,8.53-6.14Zm-6.51,0-1.57,0h-3.42l-3.53-6.17Zm-5.22.07-1.93,2-6.31,6.64-4.75-5.06,9.31-10Zm-13,3.35V95.82a7.42,7.42,0,0,1,7.16-7.64h2ZM110.68,88a7.41,7.41,0,0,1-7.16-7.63V78.28L112.63,88Zm-1,.11a7.59,7.59,0,0,0-6.27,6.6,7.57,7.57,0,0,0-6.26-6.6,7.58,7.58,0,0,0,6.26-6.61A7.6,7.6,0,0,0,109.68,88.08Zm-6.37-7.74A7.41,7.41,0,0,1,96.15,88h-2l9.14-9.69Zm-7.16,7.84a7.42,7.42,0,0,1,7.16,7.64V98l-9.14-9.85Zm7.26,10.29h0l4.65,5H98.7Zm4.87,5.16,0,0L112.5,109l-8.44-5.37Zm.2,0,6.34-6.76,1.87-2V95l3.54-.08h8l8.19,8.72-4.53,5.69-9.32-9.91h0l-.07-.07h0l-.08-.08h0l-9.48,10ZM135.61,116l-1.87,2-6.37,6.7-4.75-5.06,9.12-9.85.19-.2.12.2Zm-3.3-6.2,8.52,6.13-1.6,0h-3.39Zm-2.57-.51a7.41,7.41,0,0,1-7.16-7.63V99.64l9.11,9.69Zm2,.21-.26.28-8.87,9.57v-2.21a7.56,7.56,0,0,1,5.35-7.36,6.78,6.78,0,0,1,1.81-.28Zm-3-.1a6.65,6.65,0,0,0-1.49.38,7.74,7.74,0,0,0-4.78,6.22V116a7.73,7.73,0,0,0-4.77-6.16,6.79,6.79,0,0,0-1.49-.38,7.59,7.59,0,0,0,6.26-6.55v-.06A7.6,7.6,0,0,0,128.74,109.44Zm-6.37-7.74a7.41,7.41,0,0,1-7.16,7.63h-2l9.14-9.69Zm-7.16,7.84a6.78,6.78,0,0,1,1.81.28,7.56,7.56,0,0,1,5.35,7.36v2.21l-8.88-9.57-.26-.28Zm7.26,10.29h0l4.65,5h-9.36Zm4.87,5.16,0,0,4.24,5.35L123.12,125Zm-9.75.07h4.13l-8.36,5.33Zm4.65-.07h.58l0,0,9.06,5.77-9,6.46-.15.11h-.54l-9.1-6.55Zm14.58,21.15,4.71-4.95h0l4.64,4.95Zm4,.28-8.36,5.33,4.23-5.33Zm8-15.73a7.41,7.41,0,0,1-7.16-7.63V121l9.11,9.69Zm2,.21-9.13,9.85v-2.21a7.42,7.42,0,0,1,7.16-7.64Zm-3-.1a7.57,7.57,0,0,0-6.26,6.6,7.59,7.59,0,0,0-6.27-6.6,7.6,7.6,0,0,0,6.27-6.61A7.58,7.58,0,0,0,147.8,130.8Zm-6.37-7.74a7.41,7.41,0,0,1-7.16,7.63h-2l9.14-9.69Zm-7.16,7.84a7.42,7.42,0,0,1,7.16,7.64v2.21l-9.14-9.85ZM141.39,141l-4.82,5.06-8.09-8.67,3.59-6.44Zm-13.11-3.7-5.1,0,8.53-6.14Zm-6.51,0-1.57,0h-3.42l-3.53-6.17Zm-5.22.07-1.94,2.06-6.3,6.63L103.56,141,112.87,131Zm-13,3.35v-2.21a7.42,7.42,0,0,1,7.16-7.64h2Zm7.16-10.06a7.41,7.41,0,0,1-7.16-7.63V121l9.11,9.69Zm-1,.11a7.59,7.59,0,0,0-6.27,6.6,7.57,7.57,0,0,0-6.26-6.6,7.58,7.58,0,0,0,6.26-6.61A7.6,7.6,0,0,0,109.68,130.8Zm-6.37-7.74a7.41,7.41,0,0,1-7.16,7.63h-2l9.14-9.69Zm-7.16,7.84a7.42,7.42,0,0,1,7.16,7.64v2.21l-9.14-9.85Zm7.26,10.29h0l4.65,4.95H98.7Zm4.87,5.16,0,0,4.24,5.35-8.44-5.37Zm.2,0,6.29-6.7,1.92-2v.08l3.54-.08h8l8.19,8.72L131.94,152l-9.32-9.91h0l-.16-.15h0L113,152Zm27.13,12.45-1.92,2.05-6.32,6.64-4.75-5.06,9.12-9.85.19-.2.12.2Zm-3.3-6.2,8.52,6.13-1.57,0h-3.42Zm-2.57-.51a7.42,7.42,0,0,1-7.16-7.63v-2.06l9.11,9.69Zm2,.21-.26.28-8.87,9.57V159.9a7.56,7.56,0,0,1,5.35-7.36,6.78,6.78,0,0,1,1.81-.28Zm-3-.1a6.65,6.65,0,0,0-1.49.38,7.74,7.74,0,0,0-4.78,6.22v-.06a7.73,7.73,0,0,0-4.77-6.16,6.65,6.65,0,0,0-1.49-.38,7.6,7.6,0,0,0,6.26-6.55v-.06A7.6,7.6,0,0,0,128.74,152.16Zm-6.37-7.74a7.42,7.42,0,0,1-7.16,7.63h-2l9.14-9.69Zm-7.16,7.84a6.78,6.78,0,0,1,1.81.28,7.56,7.56,0,0,1,5.35,7.36v2.21l-8.88-9.57-.26-.28Zm7.26,10.29h0l4.65,4.95h-9.36Zm4.87,5.16,0,0,4.24,5.35-8.43-5.37Zm-9.75.07h4.13l-8.36,5.33Zm4.65-.07h.58l0,0,9.06,5.77-9,6.46h0l-.15.11h-.54l-9.1-6.55Zm26.56,5.7a7.42,7.42,0,0,1-7.16-7.63v-2.06l9.11,9.69Zm2,.21-9.13,9.85v-2.21a7.42,7.42,0,0,1,7.16-7.64Zm-3-.1a7.57,7.57,0,0,0-6.26,6.6,7.59,7.59,0,0,0-6.27-6.6,7.6,7.6,0,0,0,6.27-6.61A7.58,7.58,0,0,0,147.8,173.52Zm-6.37-7.74a7.42,7.42,0,0,1-7.16,7.63h-2l9.14-9.69Zm-7.16,7.84a7.42,7.42,0,0,1,7.16,7.64v2.21l-9.14-9.85Zm7.12,10.13-4.82,5.06-8.09-8.67,3.59-6.44Zm-13.11-3.7-5.1,0,8.53-6.14Zm-6.51,0-1.57,0h-3.42l-3.53-6.17Zm-5.22.07-1.93,2-6.31,6.64-4.75-5.06,9.31-10.05Zm-13,3.35v-2.21a7.42,7.42,0,0,1,7.16-7.64h2Zm7.16-10.06a7.42,7.42,0,0,1-7.16-7.63v-2.06l9.11,9.69Zm-1,.11a7.59,7.59,0,0,0-6.27,6.6,7.57,7.57,0,0,0-6.26-6.6,7.58,7.58,0,0,0,6.26-6.61A7.6,7.6,0,0,0,109.68,173.52Zm-6.37-7.74a7.42,7.42,0,0,1-7.16,7.63h-2l9.14-9.69Zm-7.16,7.84a7.42,7.42,0,0,1,7.16,7.64v2.21l-9.14-9.85Zm7.26,10.29h0l4.65,4.94H98.7Zm4.87,5.16,0,0,4.24,5.35-8.44-5.37Zm28.37.07h4.13l-8.36,5.33Zm.17-.29,4.71-4.94h0l4.64,4.94Zm9.58.22,0,0,4.24,5.35-8.44-5.37Zm-4.72-25.62h0l-.07-.07h0l-.08-.08-9.48,10-4.51-5.68,6.34-6.76,1.87-2V159l3.54-.08h8.05l8.19,8.72L151,173.36Zm.56-4.78,8.51-6.13h0l-3.43,6.15Zm13.47,9.11h4.13l-8.36,5.33Zm.17-.28,4.71-4.95h0l4.64,4.95h-9.36Zm12-15.45a7.42,7.42,0,0,1-7.16-7.63v-2.06l9.11,9.69Zm2,.21-.26.28-8.87,9.57V159.9a7.56,7.56,0,0,1,5.35-7.36,6.78,6.78,0,0,1,1.81-.28Zm-3-.1a6.65,6.65,0,0,0-1.49.38,7.72,7.72,0,0,0-4.77,6.22.13.13,0,0,1,0-.06,7.71,7.71,0,0,0-4.77-6.16,6.65,6.65,0,0,0-1.49-.38,7.59,7.59,0,0,0,6.26-6.55.13.13,0,0,1,0-.06A7.58,7.58,0,0,0,166.86,152.16Zm-6.37-7.74a7.42,7.42,0,0,1-7.16,7.63h-2l9.14-9.69Zm-7.16,7.84a6.78,6.78,0,0,1,1.81.28,7.56,7.56,0,0,1,5.35,7.36v2.21l-8.88-9.57-.26-.28Zm7.12,10.13-4.82,5.06-8.09-8.67,3.47-6.24.12-.2.18.2Zm-10.06-9.85-8.45,6.08-.15.11h-.54l-8.6-6.19-.5-.36,9.15-5.83h.58l0,0,9.06,5.77Zm-8.2-6.19h4.21l0,0,4.24,5.35Zm-.51-25.62h0l-.16-.15-9.48,10L127.54,125l6.4-6.82,1.81-1.9v.08l3.52-.08h8.07l8.19,8.72L151,130.64Zm.56-4.78,8.52-6.13h0L147.34,116Zm13.47,9.11h4.13l-8.36,5.33Zm.17-.28,4.71-5h0l4.64,5h-9.36Zm12-15.45a7.41,7.41,0,0,1-7.16-7.63V99.64l9.11,9.69Zm2,.21-.26.28-8.87,9.57v-2.21a7.56,7.56,0,0,1,5.35-7.36,6.78,6.78,0,0,1,1.81-.28Zm-3-.1a6.79,6.79,0,0,0-1.49.38A7.72,7.72,0,0,0,160.6,116a.13.13,0,0,1,0-.06,7.71,7.71,0,0,0-4.77-6.16,6.65,6.65,0,0,0-1.49-.38,7.58,7.58,0,0,0,6.26-6.55.13.13,0,0,1,0-.06A7.58,7.58,0,0,0,166.86,109.44Zm-6.37-7.74a7.41,7.41,0,0,1-7.16,7.63h-2l9.14-9.69Zm-7.16,7.84a6.78,6.78,0,0,1,1.81.28,7.56,7.56,0,0,1,5.35,7.36v2.21l-8.88-9.57-.26-.28Zm7.12,10.13-4.82,5.06-8.09-8.67,3.47-6.24.12-.2.18.2Zm-10.06-9.85-8.45,6.08-.15.11h-.54l-8.6-6.19-.5-.36,9.15-5.83h.58l0,0,9.06,5.77Zm-8.21-6.19h4.22l0,0,4.24,5.35ZM141.68,78h0l-.07-.07h0l-.08-.08-9.48,10-4.51-5.68,6.34-6.76,1.87-2v.08l3.54-.08h8.05l8.19,8.72L151,87.92Zm.56-4.78,8.51-6.13h0l-3.43,6.15Zm13.47,9.11h4.13l-8.36,5.33Zm.17-.28,4.71-5h0l4.64,5h-9.36Zm12-15.45A7.42,7.42,0,0,1,160.7,59V56.92l9.11,9.69Zm2,.21-.26.28-8.87,9.57V74.46a7.56,7.56,0,0,1,5.35-7.36,6.78,6.78,0,0,1,1.81-.28Zm-3-.1a6.65,6.65,0,0,0-1.49.38,7.72,7.72,0,0,0-4.77,6.22.13.13,0,0,1,0-.06,7.71,7.71,0,0,0-4.77-6.16,6.65,6.65,0,0,0-1.49-.38,7.58,7.58,0,0,0,6.26-6.55.13.13,0,0,1,0-.06A7.58,7.58,0,0,0,166.86,66.72ZM160.49,59a7.42,7.42,0,0,1-7.16,7.63h-2l9.14-9.69Zm-7.16,7.84a6.78,6.78,0,0,1,1.81.28,7.56,7.56,0,0,1,5.35,7.36v2.21l-8.88-9.57-.26-.28ZM160.45,77,155.63,82l-8.09-8.67L151,67.1l.12-.2.18.2ZM150.39,67.1l-8.45,6.08-.15.11h-.54l-8.6-6.19-.5-.36,9.15-5.83h.58l0,0,9.06,5.77Zm-13.57-6.4,4.71-5h0l4.64,5Zm4,.29-8.36,5.32L136.65,61ZM98.7,60.7l4.71-5h0l4.65,5Zm4,.29-8.37,5.32L98.53,61Zm.52-.08h.58l0,0,9.06,5.77-.53.38-8.44,6.08-.15.11h-.54l-8.6-6.19-.5-.36Zm-.48,12.34-1.57,0H97.72l-3.53-6.17Zm-5.22.07-1.93,2.06L89.24,82,84.5,77l9.12-9.85.19-.2.12.2ZM93.33,67.1l-8.87,9.57V74.46a7.56,7.56,0,0,1,5.35-7.36,6.78,6.78,0,0,1,1.81-.28h2Zm-1.71-.49A7.42,7.42,0,0,1,84.46,59V56.92l9.11,9.69Zm-1,.11a6.65,6.65,0,0,0-1.49.38,7.73,7.73,0,0,0-4.78,6.22v-.06a7.73,7.73,0,0,0-4.77-6.16,6.79,6.79,0,0,0-1.49-.38,7.59,7.59,0,0,0,6.26-6.55v-.06A7.6,7.6,0,0,0,90.62,66.72ZM84.24,59a7.42,7.42,0,0,1-7.15,7.63h-2l9.13-9.69Zm-7.15,7.84a6.78,6.78,0,0,1,1.81.28,7.55,7.55,0,0,1,5.34,7.36v2.21L75.37,67.1l-.26-.28Zm7.26,10.29h0l4.64,5H79.64Zm4.87,5.16,0,0,4.25,5.35L85,82.27Zm.2,0,6.29-6.7,1.92-2v.08l3.54-.08h8l8.19,8.72-4.53,5.69L103.56,78h0l-.07-.07h0l-.08-.08-9.48,10Zm9.11,21.47h4.13L94.3,109Zm4.65-.07h.58l0,0,9.06,5.77-.53.38-8.44,6.08-.15.11h-.54l-8.6-6.19-.5-.36ZM102.71,116l-1.6,0H97.72l-3.53-6.17Zm-5.22.07-1.89,2-6.36,6.69-4.74-5.06,9.12-9.85.19-.2.12.2Zm-4.16-6.22-8.87,9.57v-2.21a7.56,7.56,0,0,1,5.35-7.36,6.78,6.78,0,0,1,1.81-.28h2Zm-1.71-.49a7.41,7.41,0,0,1-7.16-7.63V99.64l9.11,9.69Zm-1,.11a6.65,6.65,0,0,0-1.49.38A7.73,7.73,0,0,0,84.35,116V116a7.75,7.75,0,0,0-4.77-6.16,6.79,6.79,0,0,0-1.49-.38,7.59,7.59,0,0,0,6.26-6.55v-.06A7.6,7.6,0,0,0,90.62,109.44Zm-6.38-7.74a7.41,7.41,0,0,1-7.15,7.63h-2l9.13-9.69Zm-7.15,7.84a6.78,6.78,0,0,1,1.81.28,7.56,7.56,0,0,1,5.34,7.36v2.21l-8.87-9.57-.26-.28Zm7.26,10.29h0l4.64,5H79.64ZM89.22,125l0,0,4.25,5.35L85,125Zm.2,0,6.34-6.76,1.87-2v.08l3.51-.08h8.08l8.19,8.72-4.53,5.69-9.32-9.91h0l-.16-.15-9.48,10Zm9.11,21.47h4.13l-8.37,5.33Zm4.65-.07h.58l0,0,9.06,5.77-.53.38-8.44,6.08-.15.11h-.54l-8.6-6.19-.5-.36Zm-.48,12.34-1.57,0H97.72l-3.53-6.17Zm-5.22.07-1.93,2.06-6.31,6.63-4.74-5.06,9.12-9.85.19-.2.12.2Zm-4.15-6.22-8.87,9.57V159.9a7.56,7.56,0,0,1,5.35-7.36,6.78,6.78,0,0,1,1.81-.28h2Zm-1.71-.49a7.42,7.42,0,0,1-7.16-7.63v-2.06l9.11,9.69Zm-1,.11a6.65,6.65,0,0,0-1.49.38,7.73,7.73,0,0,0-4.78,6.22v-.06a7.73,7.73,0,0,0-4.77-6.16,6.79,6.79,0,0,0-1.49-.38,7.6,7.6,0,0,0,6.26-6.55v-.06A7.6,7.6,0,0,0,90.62,152.16Zm-6.38-7.74a7.42,7.42,0,0,1-7.15,7.63h-2l9.13-9.69Zm-7.15,7.84a6.78,6.78,0,0,1,1.81.28,7.55,7.55,0,0,1,5.34,7.36v2.21l-8.87-9.57-.26-.28Zm7.26,10.29h0L89,167.5H79.64Zm4.87,5.16,0,0,4.25,5.35L85,167.71Zm.2,0,6.29-6.7,1.92-2V159l3.54-.08h8l8.19,8.72-4.53,5.69-9.32-9.91h0l-.07-.07h0l-.08-.08-9.48,10Zm9.11,21.47h4.13l-8.36,5.33Zm14.1,6.12h0l-3.43,6.15-5.1,0Zm.26,0,.11-.2.19.2,9.14,9.85-4.82,5.06-8.09-8.67Zm.6,0-.26-.28h2a6.78,6.78,0,0,1,1.81.28,7.56,7.56,0,0,1,5.35,7.36v2.21Zm4.21,0a6.79,6.79,0,0,0-1.49-.38,7.6,7.6,0,0,0,6.26-6.55v-.06a7.6,7.6,0,0,0,6.27,6.61,6.65,6.65,0,0,0-1.49.38,7.74,7.74,0,0,0-4.78,6.22v-.06A7.73,7.73,0,0,0,117.7,195.26Zm4.88,7.36a7.56,7.56,0,0,1,5.35-7.36,6.78,6.78,0,0,1,1.81-.28h2l-.26.28-8.87,9.57Zm9.16-7.36.19-.2.12.2,3.56,6.22-1.88,2-6.36,6.69-4.75-5.06Zm.57,0,8.52,6.13-1.6,0h-3.39Zm.34,0-.5-.36,9.15-5.83h.58l0,0,9.06,5.77-.52.38-8.45,6.08-.15.11h-.54Zm18.11,0h0l-3.43,6.15-5.1,0Zm.25,0,.12-.2.18.2,9.14,9.85-4.82,5-8.09-8.66Zm.6,0-.26-.28h2a6.78,6.78,0,0,1,1.81.28,7.56,7.56,0,0,1,5.35,7.36v2.21Zm-.26-.49,9.14-9.69v2.06a7.42,7.42,0,0,1-7.16,7.63Zm4.47.49a6.65,6.65,0,0,0-1.49-.38,7.59,7.59,0,0,0,6.26-6.55.13.13,0,0,1,0-.06,7.58,7.58,0,0,0,6.26,6.61,6.79,6.79,0,0,0-1.49.38,7.72,7.72,0,0,0-4.77,6.22.13.13,0,0,1,0-.06A7.71,7.71,0,0,0,155.82,195.26Zm4.88-8.12v-2.06l9.11,9.69h-1.95A7.42,7.42,0,0,1,160.7,187.14Zm0,15.48a7.56,7.56,0,0,1,5.35-7.36,6.78,6.78,0,0,1,1.81-.28h2l-.26.28-8.87,9.57Zm9.36-7.9-9.32-9.91h0l-.16-.15h0l-9.48,10.05L146.6,189l6.34-6.76,1.87-2v.08l3.54-.08h8.05l8.19,8.72ZM161.3,180l8.54-6.14-3.44,6.16Zm13.47,9.11h4.13l-8.36,5.33Zm.17-.29,4.72-4.94h0l4.64,4.94Zm12-15.44a7.42,7.42,0,0,1-7.16-7.63v-2.06l9.11,9.69Zm2,.21-9.13,9.85v-2.21a7.42,7.42,0,0,1,7.16-7.64Zm-3-.1a7.57,7.57,0,0,0-6.26,6.6,7.59,7.59,0,0,0-6.27-6.6,7.6,7.6,0,0,0,6.27-6.61A7.58,7.58,0,0,0,185.92,173.52Zm-6.37-7.74a7.42,7.42,0,0,1-7.16,7.63h-2l9.13-9.69Zm-7.16,7.84a7.42,7.42,0,0,1,7.16,7.64v2.21l-9.14-9.85Zm7.12,10.13-4.82,5.06-8.09-8.67,3.59-6.44ZM161,180h0l-.15.11h-.54l-9.1-6.55,9.15-5.83h.58l0,0,9.06,5.77Zm.25-12.27h4.21l0,0,4.24,5.35ZM170.06,152l-9.32-9.91h0l-.16-.15h0L151.11,152l-4.51-5.68,6.33-6.75,1.88-2v.08l3.54-.08h8.05l8.19,8.72Zm-8.76-14.69,8.54-6.14-3.44,6.16Zm13.47,9.11h4.13l-8.36,5.33Zm.17-.28,4.72-4.95h0l4.64,4.95Zm12-15.45a7.41,7.41,0,0,1-7.16-7.63V121l9.11,9.69Zm2,.21-9.13,9.85v-2.21a7.42,7.42,0,0,1,7.16-7.64Zm-3-.1a7.57,7.57,0,0,0-6.26,6.6,7.59,7.59,0,0,0-6.27-6.6,7.6,7.6,0,0,0,6.27-6.61A7.58,7.58,0,0,0,185.92,130.8Zm-6.37-7.74a7.41,7.41,0,0,1-7.16,7.63h-2l9.13-9.69Zm-7.16,7.84a7.42,7.42,0,0,1,7.16,7.64v2.21l-9.14-9.85ZM179.51,141l-4.82,5.06-8.09-8.67,3.59-6.44ZM161,137.26l-.15.11h-.54l-9.1-6.55,9.15-5.83h.58l0,0L170,130.8Zm.25-12.27h4.21l0,0,4.24,5.35Zm8.81-15.71-9.32-9.91h0l-.07-.07h0l-.08-.08h0l-9.48,10-4.51-5.68,6.34-6.76,1.87-2V95l3.54-.08h8.05l8.19,8.72ZM161.3,94.59l8.54-6.14-3.44,6.16Zm13.47,9.11h4.13L170.54,109Zm.17-.28,4.72-5h0l4.64,5Zm12-15.45a7.41,7.41,0,0,1-7.16-7.63V78.28L188.87,88Zm2,.21L179.76,98V95.82a7.42,7.42,0,0,1,7.16-7.64Zm-3-.1a7.57,7.57,0,0,0-6.26,6.6,7.59,7.59,0,0,0-6.27-6.6,7.6,7.6,0,0,0,6.27-6.61A7.58,7.58,0,0,0,185.92,88.08Zm-6.37-7.74A7.41,7.41,0,0,1,172.39,88h-2l9.13-9.69Zm-7.16,7.84a7.42,7.42,0,0,1,7.16,7.64V98l-9.14-9.85Zm7.12,10.13-4.82,5.06L166.6,94.7l3.59-6.44ZM161,94.54l-.15.11h-.54l-9.1-6.55,9.15-5.83h.58l0,0L170,88.08Zm.25-12.27h4.21l0,0,4.24,5.35Zm8.81-15.71-9.32-9.91h0l-.16-.15h0l-9.48,10-4.51-5.68,6.33-6.74,1.88-2v.08l3.54-.08h8.05l8.19,8.72Zm-18.69-20.8,8.52,6.13-1.57,0H154.9Zm9.93,6.11,8.54-6.14-3.44,6.16ZM174.77,61h4.13l-8.36,5.32Zm.17-.29,4.72-5h0l4.64,5Zm12-15.45a7.41,7.41,0,0,1-7.16-7.63V35.56l9.11,9.69Zm2,.22-9.13,9.84V53.1a7.41,7.41,0,0,1,7.16-7.63Zm-3-.11a7.57,7.57,0,0,0-6.26,6.6,7.59,7.59,0,0,0-6.27-6.6,7.6,7.6,0,0,0,6.27-6.61A7.58,7.58,0,0,0,185.92,45.36Zm-6.37-7.74a7.41,7.41,0,0,1-7.16,7.63h-2l9.13-9.69Zm-7.16,7.85a7.41,7.41,0,0,1,7.16,7.63v2.21l-9.14-9.84Zm7.12,10.12-4.82,5.06L166.6,52l3.59-6.44ZM154.67,52l-1.89,2-6.35,6.67-4.75-5.06L151,45.54Zm-13,3.35V53.1a7.41,7.41,0,0,1,7.16-7.63h2Zm7.16-10.06a7.41,7.41,0,0,1-7.16-7.63V35.56l9.11,9.69Zm-1,.11a7.57,7.57,0,0,0-6.26,6.6,7.59,7.59,0,0,0-6.27-6.6,7.6,7.6,0,0,0,6.27-6.61A7.58,7.58,0,0,0,147.8,45.36Zm-6.37-7.74a7.41,7.41,0,0,1-7.16,7.63h-2l9.14-9.69Zm-7.16,7.85a7.41,7.41,0,0,1,7.16,7.63v2.21l-9.14-9.84Zm7.12,10.12-4.82,5.06L128.48,52l3.59-6.44ZM116.55,52,114.61,54l-6.3,6.63-4.75-5.06,9.31-10.05Zm-13,3.35V53.1a7.41,7.41,0,0,1,7.16-7.63h2Zm7.16-10.06a7.41,7.41,0,0,1-7.16-7.63V35.56l9.11,9.69Zm-1,.11a7.59,7.59,0,0,0-6.27,6.6,7.57,7.57,0,0,0-6.26-6.6,7.58,7.58,0,0,0,6.26-6.61A7.6,7.6,0,0,0,109.68,45.36Zm-6.37-7.74a7.41,7.41,0,0,1-7.16,7.63h-2l9.14-9.69Zm-7.16,7.85a7.41,7.41,0,0,1,7.16,7.63v2.21l-9.14-9.84Zm7.12,10.12-4.82,5.06L90.36,52l3.58-6.44Zm-13.11-3.7-5.1,0,8.53-6.14Zm-6.52,0-1.57,0H78.66l-3.53-6.17ZM78.42,52,76.49,54l-6.31,6.63-4.74-5.06,9.31-10.05Zm-13,3.35V53.1a7.41,7.41,0,0,1,7.16-7.63h2Zm7.16-10.06a7.41,7.41,0,0,1-7.16-7.63V35.56l9.11,9.69Zm-1,.11A7.59,7.59,0,0,0,65.29,52,7.57,7.57,0,0,0,59,45.36a7.58,7.58,0,0,0,6.26-6.61A7.61,7.61,0,0,0,71.55,45.36Zm-6.37-7.74A7.41,7.41,0,0,1,58,45.25h-2l9.13-9.69ZM58,45.47a7.41,7.41,0,0,1,7.15,7.63v2.21l-9.13-9.84Zm7.26,10.28h0l4.64,5H60.58Zm4.87,5.16,0,0,4.25,5.35-8.44-5.37Zm.2,0,6.33-6.74,1.88-2v.08l3.54-.08h8l8.19,8.72-4.53,5.69L84.5,56.65h0l-.16-.15h0l-9.48,10Zm9.11,21.47H83.6l-8.36,5.33Zm4.64-.07h.59l0,0,9.06,5.77-9,6.46-.15.11h-.54L75,88.1Zm-.47,12.34-1.57,0H78.66l-3.53-6.17Zm-5.22.07-1.92,2-6.32,6.64-4.74-5.06,9.31-10ZM65.4,98V95.82a7.42,7.42,0,0,1,7.16-7.64h2ZM72.56,88a7.41,7.41,0,0,1-7.16-7.63V78.28L74.51,88Zm-1,.11a7.59,7.59,0,0,0-6.26,6.6A7.57,7.57,0,0,0,59,88.08a7.58,7.58,0,0,0,6.26-6.61A7.61,7.61,0,0,0,71.55,88.08Zm-6.37-7.74A7.41,7.41,0,0,1,58,88h-2l9.13-9.69ZM58,88.18a7.42,7.42,0,0,1,7.15,7.64V98l-9.13-9.85Zm7.26,10.29h0l4.64,5H60.58Zm4.87,5.16,0,0L74.38,109l-8.44-5.37Zm.2,0,6.34-6.76,1.87-2V95l3.54-.08h8l8.19,8.72-4.53,5.69L84.5,99.37h0l-.16-.15h0l-9.48,10Zm9.11,21.47H83.6l-8.36,5.33Zm4.65-.07h.58l0,0,9.06,5.77-9,6.46-.15.11h-.54L75,130.82Zm-.48,12.34-1.57,0H78.66l-3.53-6.17Zm-5.22.07-1.93,2.06-6.31,6.63L65.44,141,74.75,131Zm-13,3.35v-2.21a7.42,7.42,0,0,1,7.16-7.64h2Zm7.16-10.06a7.41,7.41,0,0,1-7.16-7.63V121l9.11,9.69Zm-1,.11a7.59,7.59,0,0,0-6.26,6.6A7.57,7.57,0,0,0,59,130.8a7.58,7.58,0,0,0,6.26-6.61A7.61,7.61,0,0,0,71.55,130.8Zm-6.37-7.74A7.41,7.41,0,0,1,58,130.69h-2L65.18,121ZM58,130.9a7.42,7.42,0,0,1,7.15,7.64v2.21l-9.13-9.85Zm7.26,10.29h0l4.64,4.95H60.58Zm4.87,5.16,0,0,4.25,5.35-8.44-5.37Zm.2,0,6.33-6.75,1.88-2v.08l3.54-.08h8l8.19,8.72L93.82,152l-9.32-9.91h0l-.16-.15h0L74.87,152Zm9.11,21.47H83.6l-8.36,5.33Zm4.64-.07h.59l0,0,9.06,5.77-9,6.46h0l-.15.11h-.54L75,173.54Zm-.47,12.34-1.57,0H78.66l-3.53-6.17Zm-5.22.07-1.92,2-6.32,6.64-4.74-5.06,9.31-10.05Zm-13,3.35v-2.21a7.42,7.42,0,0,1,7.16-7.64h2Zm7.16-10.06a7.42,7.42,0,0,1-7.16-7.63v-2.06l9.11,9.69Zm-1,.11a7.59,7.59,0,0,0-6.26,6.6,7.57,7.57,0,0,0-6.26-6.6,7.58,7.58,0,0,0,6.26-6.61A7.61,7.61,0,0,0,71.55,173.52Zm-6.37-7.74A7.42,7.42,0,0,1,58,173.41h-2l9.13-9.69ZM58,173.62a7.42,7.42,0,0,1,7.15,7.64v2.21l-9.13-9.85Zm7.26,10.29h0l4.64,4.94H60.58Zm4.87,5.16,0,0,4.25,5.35-8.44-5.37Zm.2,0,6.34-6.76,1.87-2v.08l3.54-.08h8L98.35,189l-4.53,5.69-9.32-9.91h0l-.16-.15h0l-9.48,10.05Zm9.11,21.47H83.6l-8.37,5.33Zm.17-.29,4.71-4.94h0L89,210.21H79.64Zm9.58.22,0,0,4.25,5.35L85,210.43Zm28.37.07h4.13l-8.36,5.33Zm.17-.29,4.71-4.94h0l4.65,4.94h-9.36Zm9.58.22,0,0,4.24,5.35-8.43-5.37Zm28.37.07h4.13l-8.36,5.33Zm.17-.29,4.71-4.94h0l4.64,4.94h-9.36Zm9.58.22,0,0,4.24,5.35-8.43-5.37Zm14.9-9,8.52-6.13h0l-3.43,6.15Zm13.47,9.11H198l-8.36,5.33Zm.17-.29,4.71-4.94h0l4.64,4.94H194Zm12-15.44a7.42,7.42,0,0,1-7.15-7.63v-2.06l9.1,9.69Zm2,.21-.26.28-8.86,9.57v-2.21a7.56,7.56,0,0,1,5.34-7.36A6.78,6.78,0,0,1,206,195Zm-3-.1a6.79,6.79,0,0,0-1.49.38,7.73,7.73,0,0,0-4.77,6.22.13.13,0,0,1,0-.06,7.71,7.71,0,0,0-4.77-6.16,6.65,6.65,0,0,0-1.49-.38,7.59,7.59,0,0,0,6.26-6.55.13.13,0,0,1,0-.06A7.58,7.58,0,0,0,205,194.88Zm-6.37-7.74a7.42,7.42,0,0,1-7.16,7.63h-2l9.13-9.69ZM191.45,195a6.78,6.78,0,0,1,1.81.28,7.56,7.56,0,0,1,5.35,7.36v2.21l-8.88-9.57-.26-.28Zm7.12,10.13-4.82,5.06-8.09-8.67,3.47-6.24.12-.2.18.2Zm-10.06-9.85-8.45,6.08-.15.11h-.54l-8.59-6.19-.51-.36,9.15-5.83H180l0,0,9.06,5.77Zm-8.2-6.19h4.21l0,0,4.24,5.35Zm-.51-25.62h0l-.07-.07h0l-.08-.08-9.48,10-4.51-5.68L172,161l1.92-2V159l3.54-.08h8.05l8.19,8.72-4.53,5.69Zm.56-4.78,8.52-6.13h0l-3.43,6.15Zm13.47,9.11H198l-8.36,5.33Zm.17-.28,4.71-4.95h0l4.64,4.95H194Zm12-15.45a7.42,7.42,0,0,1-7.15-7.63v-2.06l9.1,9.69Zm2,.21-.26.28-8.86,9.57V159.9a7.55,7.55,0,0,1,5.34-7.36,6.78,6.78,0,0,1,1.81-.28Zm-3-.1a6.79,6.79,0,0,0-1.49.38,7.73,7.73,0,0,0-4.77,6.22.13.13,0,0,1,0-.06,7.71,7.71,0,0,0-4.77-6.16,6.65,6.65,0,0,0-1.49-.38,7.59,7.59,0,0,0,6.26-6.55.13.13,0,0,1,0-.06A7.58,7.58,0,0,0,205,152.16Zm-6.37-7.74a7.42,7.42,0,0,1-7.16,7.63h-2l9.13-9.69Zm-7.16,7.84a6.78,6.78,0,0,1,1.81.28,7.56,7.56,0,0,1,5.35,7.36v2.21l-8.88-9.57-.26-.28Zm7.12,10.13-4.82,5.06-8.09-8.67,3.47-6.24.12-.2.19.2Zm-10.06-9.85-8.45,6.08-.15.11h-.54l-8.6-6.19-.5-.36,9.15-5.83H180l0,0,9.06,5.77Zm-8.2-6.19h4.21l0,0,4.24,5.35Zm-.51-25.62h0l-.16-.15-9.48,10L165.66,125l6.34-6.76,1.87-2v.08l3.52-.08h8.07l8.19,8.72-4.53,5.69Zm.56-4.78,8.52-6.13h0L185.46,116Zm13.47,9.11H198l-8.36,5.33Zm.17-.28,4.71-5h0l4.64,5H194Zm12-15.45a7.41,7.41,0,0,1-7.15-7.63V99.64l9.1,9.69Zm2,.21-.26.28-8.86,9.57v-2.21a7.56,7.56,0,0,1,5.34-7.36,6.78,6.78,0,0,1,1.81-.28Zm-3-.1a6.79,6.79,0,0,0-1.49.38,7.73,7.73,0,0,0-4.77,6.22.13.13,0,0,1,0-.06,7.71,7.71,0,0,0-4.77-6.16,6.65,6.65,0,0,0-1.49-.38,7.58,7.58,0,0,0,6.26-6.55.13.13,0,0,1,0-.06A7.58,7.58,0,0,0,205,109.44Zm-6.37-7.74a7.41,7.41,0,0,1-7.16,7.63h-2l9.13-9.69Zm-7.16,7.84a6.78,6.78,0,0,1,1.81.28,7.56,7.56,0,0,1,5.35,7.36v2.21l-8.88-9.57-.26-.28Zm7.12,10.13-4.82,5.06-8.09-8.67,3.47-6.24.12-.2.19.2Zm-10.06-9.85-8.45,6.08-.15.11h-.54l-8.59-6.19-.51-.36,9.15-5.83H180l0,0,9.06,5.77Zm-8.2-6.19h4.21l0,0,4.24,5.35ZM179.8,78h0l-.07-.07h0l-.08-.08-9.48,10-4.51-5.68,6.29-6.7,1.92-2v.08l3.54-.08h8.05l8.19,8.72-4.53,5.69Zm.56-4.78,8.52-6.13h0l-3.43,6.15Zm13.47,9.11H198l-8.36,5.33Zm.17-.28,4.71-5h0l4.64,5H194Zm12-15.45A7.42,7.42,0,0,1,198.83,59V56.92l9.1,9.69Zm2,.21-.26.28-8.86,9.57V74.46a7.55,7.55,0,0,1,5.34-7.36,6.78,6.78,0,0,1,1.81-.28Zm-3-.1a6.79,6.79,0,0,0-1.49.38,7.73,7.73,0,0,0-4.77,6.22.13.13,0,0,1,0-.06,7.71,7.71,0,0,0-4.77-6.16,6.65,6.65,0,0,0-1.49-.38,7.58,7.58,0,0,0,6.26-6.55.13.13,0,0,1,0-.06A7.58,7.58,0,0,0,205,66.72ZM198.61,59a7.42,7.42,0,0,1-7.16,7.63h-2l9.13-9.69Zm-7.16,7.84a6.78,6.78,0,0,1,1.81.28,7.56,7.56,0,0,1,5.35,7.36v2.21l-8.88-9.57-.26-.28ZM198.57,77,193.75,82l-8.09-8.67,3.47-6.24.12-.2.19.2ZM188.51,67.1l-8.45,6.08-.15.11h-.54l-8.6-6.19-.5-.36,9.15-5.83H180l0,0L189,66.72Zm-8.2-6.19h4.21l0,0,4.24,5.35ZM160.59,39.34h-4.71l4.71-5h0l4.64,5Zm-.75.29L151.48,45l4.23-5.32Zm-37.37-.29h-4.71l4.71-5h0l4.65,5Zm-.75.29L113.36,45l4.23-5.32Zm-37.37-.29H79.64l4.71-5h0l4.64,5Zm-.75.29L75.24,45l4.23-5.32ZM60.41,61h4.13l-8.37,5.32Zm4.65-.08h.57l0,0,9.06,5.77-.53.38L65.7,73.18l-.15.11H65l-8.6-6.19-.51-.36Zm-.48,12.34-1.57,0H59.6l-3.53-6.17Zm-5.22.07-1.92,2.05L51.12,82,46.38,77,55.5,67.1l.19-.2.12.2ZM55.21,67.1l-8.87,9.57V74.46a7.56,7.56,0,0,1,5.35-7.36,6.78,6.78,0,0,1,1.81-.28h2Zm-1.71-.49A7.42,7.42,0,0,1,46.34,59V56.92l9.11,9.69Zm-1,.11A6.93,6.93,0,0,0,51,67.1a7.73,7.73,0,0,0-4.77,6.22v-.06a7.75,7.75,0,0,0-4.77-6.16A6.79,6.79,0,0,0,40,66.72a7.59,7.59,0,0,0,6.26-6.55v-.06A7.61,7.61,0,0,0,52.49,66.72ZM46.12,59A7.42,7.42,0,0,1,39,66.61H37l9.13-9.69ZM39,66.82a6.78,6.78,0,0,1,1.81.28,7.56,7.56,0,0,1,5.34,7.36v2.21L37.25,67.1,37,66.82Zm7.26,10.29h0l4.64,5H41.52Zm4.87,5.16,0,0,4.25,5.35-8.44-5.37Zm.2,0,6.3-6.71,1.91-2v.08L63,73.51H71.1l8.19,8.72-4.53,5.69L65.44,78h0l-.07-.07h0l-.08-.08-9.48,10Zm9.11,21.47h4.13L56.17,109Zm4.65-.07h.57l0,0,9.06,5.77-.53.38L65.7,115.9l-.15.11H65l-8.6-6.19-.51-.36ZM64.58,116,63,116H59.6l-3.53-6.17Zm-5.22.07-1.86,2-6.38,6.7-4.74-5.06,9.12-9.85.19-.2.12.2Zm-4.15-6.22-8.87,9.57v-2.21a7.56,7.56,0,0,1,5.35-7.36,6.78,6.78,0,0,1,1.81-.28h2Zm-1.71-.49a7.41,7.41,0,0,1-7.16-7.63V99.64l9.11,9.69Zm-1,.11a6.7,6.7,0,0,0-1.48.38A7.73,7.73,0,0,0,46.23,116V116a7.75,7.75,0,0,0-4.77-6.16,6.93,6.93,0,0,0-1.49-.38,7.59,7.59,0,0,0,6.26-6.55v-.06A7.61,7.61,0,0,0,52.49,109.44Zm-6.37-7.74A7.41,7.41,0,0,1,39,109.33H37l9.13-9.69ZM39,109.54a6.84,6.84,0,0,1,1.81.28,7.56,7.56,0,0,1,5.34,7.36v2.21l-8.87-9.57-.26-.28Zm7.26,10.29h0l4.64,5H41.52ZM51.1,125l0,0,4.25,5.35L46.88,125Zm.2,0,6.35-6.77,1.86-2v.08l3.51-.08H71.1L79.29,125l-4.53,5.69-9.32-9.91h0l-.16-.15-9.48,10Zm9.11,21.47h4.13l-8.37,5.33Zm4.64-.07h.58l0,0,9.06,5.77-.53.38-8.44,6.08-.15.11H65l-8.6-6.19-.51-.36Zm-.47,12.34-1.57,0H59.6l-3.53-6.17Zm-5.22.07-1.92,2.05-6.32,6.64-4.74-5.06,9.12-9.85.19-.2.12.2Zm-4.15-6.22-8.87,9.57V159.9a7.56,7.56,0,0,1,5.35-7.36,6.78,6.78,0,0,1,1.81-.28h2Zm-1.71-.49a7.42,7.42,0,0,1-7.16-7.63v-2.06l9.11,9.69Zm-1,.11a6.93,6.93,0,0,0-1.49.38,7.73,7.73,0,0,0-4.77,6.22v-.06a7.75,7.75,0,0,0-4.77-6.16,6.79,6.79,0,0,0-1.49-.38,7.6,7.6,0,0,0,6.26-6.55v-.06A7.61,7.61,0,0,0,52.49,152.16Zm-6.37-7.74A7.42,7.42,0,0,1,39,152.05H37l9.13-9.69ZM39,152.26a6.78,6.78,0,0,1,1.81.28,7.56,7.56,0,0,1,5.34,7.36v2.21l-8.87-9.57-.26-.28Zm7.26,10.29h0l4.64,4.95H41.52Zm4.87,5.16,0,0,4.25,5.35-8.44-5.37Zm.2,0L57.6,161l1.91-2V159L63,159H71.1l8.19,8.72-4.53,5.69-9.32-9.91h0l-.07-.07h0l-.08-.08-9.48,10Zm9.11,21.47h4.13l-8.37,5.33Zm4.65-.07h.57l0,0,9.06,5.77-.53.38-8.44,6.08-.15.11H65l-8.6-6.19-.51-.36Zm-.48,12.34-1.59,0H59.6l-3.53-6.17Zm-5.22.07-1.88,2-6.36,6.69-4.74-5.06,9.12-9.85.19-.2.12.2Zm-4.15-6.22-8.87,9.57v-2.21a7.56,7.56,0,0,1,5.35-7.36A6.78,6.78,0,0,1,53.5,195h2Zm-1.71-.49a7.42,7.42,0,0,1-7.16-7.63v-2.06l9.11,9.69Zm-1,.11a6.7,6.7,0,0,0-1.48.38,7.73,7.73,0,0,0-4.78,6.22v-.06a7.75,7.75,0,0,0-4.77-6.16,6.93,6.93,0,0,0-1.49-.38,7.6,7.6,0,0,0,6.26-6.55v-.06A7.61,7.61,0,0,0,52.49,194.88Zm-6.37-7.74A7.42,7.42,0,0,1,39,194.77H37l9.13-9.69ZM39,195a6.84,6.84,0,0,1,1.81.28,7.56,7.56,0,0,1,5.34,7.36v2.21l-8.87-9.57L37,195Zm7.26,10.29h0l4.64,4.94H41.52Zm4.87,5.16,0,0,4.25,5.35-8.44-5.37Zm.2,0,6.34-6.76,1.87-2v.08l3.51-.08H71.1l8.19,8.72-4.53,5.69-9.32-9.91h0l-.16-.15-9.48,10Zm23.21,5.74h-2a7.42,7.42,0,0,1-7.16-7.63v-2.06Zm-9.33-9.69v2.06A7.42,7.42,0,0,1,58,216.13h-2Zm-9.13,9.9h2A7.42,7.42,0,0,1,65.18,224v2.22Zm3-.1a7.58,7.58,0,0,0,6.26-6.61,7.61,7.61,0,0,0,6.26,6.61,7.58,7.58,0,0,0-6.26,6.6A7.56,7.56,0,0,0,59,216.24ZM65.4,224a7.42,7.42,0,0,1,7.16-7.63h2l-9.12,9.85Zm9.35-7.55,3.67,6.42-1.93,2.06-6.31,6.63-4.74-5.06Zm.38.22,8.51,6.13-1.57,0H78.66Zm-.17-.38,9.16-5.83h.58l0,0,9.06,5.77-9,6.46-.15.11h-.54Zm18.63.35-3.43,6.16-5.1,0Zm.35-.19,9.33,10.05-4.82,5.06-8.09-8.67Zm.23-.08h2a7.42,7.42,0,0,1,7.16,7.63v2.22Zm3-.1a7.58,7.58,0,0,0,6.26-6.61,7.6,7.6,0,0,0,6.27,6.61,7.58,7.58,0,0,0-6.27,6.6A7.56,7.56,0,0,0,97.15,216.24Zm6.37,7.73a7.42,7.42,0,0,1,7.16-7.63h2l-9.13,9.85Zm9.35-7.55,3.68,6.42-1.94,2.06-6.3,6.63-4.75-5.06Zm.38.22,8.52,6.13-1.57,0h-3.42Zm-.16-.38,9.15-5.83h.58l0,0,9.06,5.77-9,6.46-.15.11h-.54Zm18.62.35-3.43,6.16-5.1,0Zm.36-.19,9.32,10.05-4.82,5.06-8.09-8.67Zm.22-.08h2a7.42,7.42,0,0,1,7.16,7.63v2.22Zm3-.1a7.6,7.6,0,0,0,6.27-6.61,7.58,7.58,0,0,0,6.26,6.61,7.56,7.56,0,0,0-6.26,6.6A7.58,7.58,0,0,0,135.27,216.24Zm6.37,7.73a7.42,7.42,0,0,1,7.16-7.63h2l-9.13,9.85Zm9.35-7.55,3.68,6.42-1.89,2-6.35,6.68-4.75-5.06Zm.38.22,8.52,6.13-1.57,0H154.9Zm-.16-.38,9.15-5.83h.58l0,0,9.06,5.77-9,6.46-.15.11h-.54Zm18.63.35-3.44,6.16-5.1,0Zm.35-.19,9.32,10.05-4.82,5.06-8.09-8.67Zm.22-.08h2a7.42,7.42,0,0,1,7.16,7.63v2.22Zm3-.1a7.6,7.6,0,0,0,6.27-6.61,7.58,7.58,0,0,0,6.26,6.61,7.56,7.56,0,0,0-6.26,6.6A7.58,7.58,0,0,0,173.39,216.24Zm6.37,7.73a7.42,7.42,0,0,1,7.16-7.63h2l-9.13,9.85Zm9.36-7.55,3.67,6.42-1.94,2.06-6.3,6.63-4.75-5.06Zm.37.22,8.52,6.13-1.57,0H193Zm9.88-6.21h4.21l0,0,4.24,5.35Zm8.81-15.71-9.31-9.91h0l-.16-.15h0l-9.48,10.05L184.72,189l6.3-6.71,1.91-2v.08l3.53-.08h8.06l8.18,8.72ZM199.43,180l8.53-6.14-3.44,6.16Zm13.46,9.11H217l-8.36,5.33Zm.18-.29,4.71-4.94h0l4.64,4.94Zm12-15.44a7.42,7.42,0,0,1-7.15-7.63v-2.06l9.11,9.69Zm2,.21-9.12,9.85v-2.21a7.42,7.42,0,0,1,7.15-7.64Zm-3-.1a7.57,7.57,0,0,0-6.26,6.6,7.59,7.59,0,0,0-6.26-6.6,7.61,7.61,0,0,0,6.26-6.61A7.58,7.58,0,0,0,224,173.52Zm-6.37-7.74a7.42,7.42,0,0,1-7.16,7.63h-2l9.13-9.69Zm-7.16,7.84a7.42,7.42,0,0,1,7.16,7.64v2.21l-9.14-9.85Zm7.12,10.13-4.82,5.06-8.09-8.67,3.59-6.44ZM199.13,180h0l-.15.11h-.54l-9.1-6.55,9.15-5.83h.58l0,0,9.06,5.77Zm.24-12.27h4.21l0,0,4.24,5.35ZM208.18,152l-9.31-9.91h0l-.16-.15h0L189.23,152l-4.51-5.68,6.29-6.7,1.92-2v.08l3.53-.08h8.06l8.18,8.72Zm-8.76-14.69,8.54-6.14-3.44,6.16Zm13.47,9.11H217l-8.36,5.33Zm.18-.28,4.71-4.95h0l4.64,4.95Zm12-15.45a7.41,7.41,0,0,1-7.15-7.63V121l9.11,9.69Zm2,.21-9.12,9.85v-2.21A7.42,7.42,0,0,1,225,130.9Zm-3-.1a7.57,7.57,0,0,0-6.26,6.6,7.59,7.59,0,0,0-6.26-6.6,7.61,7.61,0,0,0,6.26-6.61A7.58,7.58,0,0,0,224,130.8Zm-6.37-7.74a7.41,7.41,0,0,1-7.16,7.63h-2l9.13-9.69Zm-7.16,7.84a7.42,7.42,0,0,1,7.16,7.64v2.21l-9.14-9.85ZM217.63,141l-4.82,5.06-8.09-8.67,3.59-6.44Zm-18.51-3.77-.15.11h-.54l-9.1-6.55,9.15-5.83h.58l0,0,9.06,5.77Zm.25-12.27h4.21l0,0,4.24,5.35Zm8.81-15.71-9.31-9.91h0l-.07-.07h0l-.09-.08h0l-9.48,10-4.51-5.68,6.3-6.71,1.91-2V95l3.53-.08h8.06l8.18,8.72Zm-8.76-14.69L208,88.45l-3.44,6.16Zm13.47,9.11H217L208.66,109Zm.18-.28,4.71-5h0l4.64,5ZM225,88a7.41,7.41,0,0,1-7.15-7.63V78.28L227,88Zm2,.21L217.89,98V95.82A7.42,7.42,0,0,1,225,88.18Zm-3-.1a7.57,7.57,0,0,0-6.26,6.6,7.59,7.59,0,0,0-6.26-6.6,7.61,7.61,0,0,0,6.26-6.61A7.58,7.58,0,0,0,224,88.08Zm-6.37-7.74A7.41,7.41,0,0,1,210.51,88h-2l9.13-9.69Zm-7.16,7.84a7.42,7.42,0,0,1,7.16,7.64V98l-9.14-9.85Zm7.12,10.13-4.82,5.06-8.09-8.67,3.59-6.44Zm-18.51-3.77-.15.11h-.54l-9.1-6.55,9.15-5.83h.58l0,0,9.06,5.77Zm.25-12.27h4.21l0,0,4.24,5.35Zm8.81-15.71-9.31-9.91h0l-.16-.15h0l-9.48,10-4.51-5.68,6.29-6.7,1.92-2v.08l3.53-.08h8.06l8.18,8.72Zm-8.76-14.69L208,45.73l-3.44,6.16ZM212.89,61H217l-8.36,5.32Zm.18-.29,4.71-5h0l4.64,5Zm12-15.45a7.41,7.41,0,0,1-7.15-7.63V35.56L227,45.25Zm2,.22-9.12,9.84V53.1A7.41,7.41,0,0,1,225,45.47Zm-3-.11a7.57,7.57,0,0,0-6.26,6.6,7.59,7.59,0,0,0-6.26-6.6,7.61,7.61,0,0,0,6.26-6.61A7.58,7.58,0,0,0,224,45.36Zm-6.37-7.74a7.41,7.41,0,0,1-7.16,7.63h-2l9.13-9.69Zm-7.16,7.85a7.41,7.41,0,0,1,7.16,7.63v2.21l-9.14-9.84Zm7.12,10.12-4.82,5.06L204.72,52l3.59-6.44Zm-18.51-3.77-.15.11h-.54l-9.1-6.55,9.15-5.83h.58l0,0,9.06,5.77Zm.25-12.27h4.21l0,0,4.24,5.35Zm8.32-15.17L198.83,34V31.74a7.56,7.56,0,0,1,5.34-7.36,6.77,6.77,0,0,1,1.81-.27h2ZM206,23.89a7.41,7.41,0,0,1-7.15-7.63V14.2l9.1,9.69ZM205,24a6.79,6.79,0,0,0-1.49.38,7.73,7.73,0,0,0-4.77,6.22.13.13,0,0,1,0-.06,7.71,7.71,0,0,0-4.77-6.16,6.65,6.65,0,0,0-1.49-.38,7.58,7.58,0,0,0,6.26-6.55.13.13,0,0,1,0-.06A7.58,7.58,0,0,0,205,24Zm-6.37-7.74a7.41,7.41,0,0,1-7.16,7.63h-2l9.13-9.69Zm-7.16,7.85a6.77,6.77,0,0,1,1.81.27,7.56,7.56,0,0,1,5.35,7.36V34l-8.88-9.57-.26-.27Zm7.12,10.12-4.82,5.06-8.09-8.67,3.47-6.24.12-.2.19.2ZM173.73,30.6l-1.88,2-6.36,6.68-4.75-5.06,9.13-9.85.18-.2.12.2Zm-4.16-6.22L160.7,34V31.74a7.56,7.56,0,0,1,5.35-7.36,6.77,6.77,0,0,1,1.81-.27h2Zm-1.71-.49a7.41,7.41,0,0,1-7.16-7.63V14.2l9.11,9.69Zm-1,.11a6.79,6.79,0,0,0-1.49.38,7.72,7.72,0,0,0-4.77,6.22.11.11,0,0,1,0-.05,7.71,7.71,0,0,0-4.77-6.17,6.65,6.65,0,0,0-1.49-.38,7.58,7.58,0,0,0,6.26-6.55.13.13,0,0,1,0-.06A7.58,7.58,0,0,0,166.86,24Zm-6.37-7.74a7.41,7.41,0,0,1-7.16,7.63h-2l9.14-9.69Zm-7.16,7.85a6.77,6.77,0,0,1,1.81.27,7.56,7.56,0,0,1,5.35,7.36V34l-8.88-9.57-.26-.27Zm7.12,10.12-4.82,5.06-8.09-8.67L151,24.38l.12-.2.18.2ZM135.61,30.6l-1.87,2-6.37,6.7-4.75-5.06,9.12-9.85.19-.2.12.2Zm-4.16-6.22L122.58,34V31.74a7.56,7.56,0,0,1,5.35-7.36,6.77,6.77,0,0,1,1.81-.27h2Zm-1.71-.49a7.41,7.41,0,0,1-7.16-7.63V14.2l9.11,9.69Zm-1,.11a6.65,6.65,0,0,0-1.49.38,7.74,7.74,0,0,0-4.78,6.22v-.06a7.73,7.73,0,0,0-4.77-6.16,6.79,6.79,0,0,0-1.49-.38,7.59,7.59,0,0,0,6.26-6.55v-.06A7.6,7.6,0,0,0,128.74,24Zm-6.37-7.74a7.41,7.41,0,0,1-7.16,7.63h-2l9.14-9.69Zm-7.16,7.85a6.77,6.77,0,0,1,1.81.27,7.56,7.56,0,0,1,5.35,7.36V34l-8.88-9.57-.26-.27Zm7.12,10.12-4.82,5.06-8.09-8.67,3.47-6.24.11-.2.19.2ZM97.49,30.6l-1.89,2-6.36,6.68L84.5,34.23l9.12-9.85.19-.2.12.2Zm-4.16-6.22L84.46,34V31.74a7.56,7.56,0,0,1,5.35-7.36,6.77,6.77,0,0,1,1.81-.27h2Zm-1.71-.49a7.41,7.41,0,0,1-7.16-7.63V14.2l9.11,9.69Zm-1,.11a6.65,6.65,0,0,0-1.49.38,7.73,7.73,0,0,0-4.78,6.22v-.05a7.73,7.73,0,0,0-4.77-6.17A6.79,6.79,0,0,0,78.09,24a7.59,7.59,0,0,0,6.26-6.55v-.06A7.6,7.6,0,0,0,90.62,24Zm-6.38-7.74a7.41,7.41,0,0,1-7.15,7.63h-2l9.13-9.69Zm-7.15,7.85a6.77,6.77,0,0,1,1.81.27,7.56,7.56,0,0,1,5.34,7.36V34l-8.87-9.57-.26-.27ZM84.2,34.23l-4.81,5.06L71.3,30.62l3.47-6.24.11-.2.19.2ZM59.36,30.6l-1.86,2-6.38,6.7-4.74-5.06,9.12-9.85.19-.2.12.2Zm-4.15-6.22L46.34,34V31.74a7.56,7.56,0,0,1,5.35-7.36,6.77,6.77,0,0,1,1.81-.27h2Zm-1.71-.49a7.41,7.41,0,0,1-7.16-7.63V14.2l9.11,9.69Zm-1,.11a6.7,6.7,0,0,0-1.48.38,7.73,7.73,0,0,0-4.78,6.22v-.06a7.75,7.75,0,0,0-4.77-6.16A6.93,6.93,0,0,0,40,24a7.59,7.59,0,0,0,6.26-6.55v-.06A7.61,7.61,0,0,0,52.49,24Zm-6.37-7.74A7.41,7.41,0,0,1,39,23.89H37l9.13-9.69ZM39,24.11a6.77,6.77,0,0,1,1.81.27,7.56,7.56,0,0,1,5.34,7.36V34l-8.87-9.57L37,24.11Zm2.38,15.52h4.13L37.11,45ZM46,39.55h.58l0,0,9.06,5.77-9,6.46-.15.11h-.55l-9.1-6.55Zm-.47,12.34-1.57,0H40.54L37,45.76ZM40.3,52,38.37,54l-6.31,6.63-4.74-5.06,9.31-10.05Zm-13,3.35V53.1a7.41,7.41,0,0,1,7.15-7.63h2Zm7.15-10.06a7.41,7.41,0,0,1-7.15-7.63V35.56l9.11,9.69Zm-1,.11A7.58,7.58,0,0,0,27.17,52a7.58,7.58,0,0,0-6.26-6.6,7.59,7.59,0,0,0,6.26-6.61A7.59,7.59,0,0,0,33.43,45.36Zm-6.37-7.74a7.41,7.41,0,0,1-7.15,7.63h-2l9.13-9.69Zm-7.15,7.85a7.41,7.41,0,0,1,7.15,7.63v2.21l-9.13-9.84Zm7.26,10.28h0l4.64,5H22.46ZM32,60.91l0,0,4.25,5.35-8.44-5.37Zm.2,0,6.28-6.7,1.93-2v.08L44,52.15H52l8.18,8.72L55.7,66.56l-9.32-9.91h0l-.15-.15h0l-9.48,10Zm9.11,21.47h4.13l-8.37,5.33ZM46,82.27h.58l0,0,9.06,5.77-9,6.46-.15.11h-.55l-9.1-6.55Zm-.47,12.34-1.57,0H40.54L37,88.48Zm-5.22.07-1.92,2-6.32,6.64-4.74-5.06,9.31-10ZM27.28,98V95.82a7.42,7.42,0,0,1,7.15-7.64h2ZM34.43,88a7.41,7.41,0,0,1-7.15-7.63V78.28L36.39,88Zm-1,.11a7.58,7.58,0,0,0-6.26,6.6,7.58,7.58,0,0,0-6.26-6.6,7.59,7.59,0,0,0,6.26-6.61A7.59,7.59,0,0,0,33.43,88.08Zm-6.37-7.74A7.41,7.41,0,0,1,19.91,88h-2l9.13-9.69Zm-7.15,7.84a7.42,7.42,0,0,1,7.15,7.64V98l-9.13-9.85Zm7.26,10.29h0l4.64,5H22.46ZM32,103.63l0,0L36.26,109l-8.44-5.37Zm.2,0,6.3-6.71,1.91-2V95L44,94.87H52l8.18,8.72-4.52,5.69-9.32-9.91h0l-.07-.07h0l-.08-.08h0l-9.48,10Zm9.11,21.47h4.13l-8.37,5.33ZM46,125h.58l0,0,9.06,5.77-9,6.46-.15.11h-.55l-9.1-6.55Zm-.47,12.34-1.57,0H40.54L37,131.2Zm-5.22.07-1.93,2.06-6.31,6.63L27.32,141,36.63,131Zm-13,3.35v-2.21a7.42,7.42,0,0,1,7.15-7.64h2Zm7.15-10.06a7.41,7.41,0,0,1-7.15-7.63V121l9.11,9.69Zm-1,.11a7.58,7.58,0,0,0-6.26,6.6,7.58,7.58,0,0,0-6.26-6.6,7.59,7.59,0,0,0,6.26-6.61A7.59,7.59,0,0,0,33.43,130.8Zm-6.37-7.74a7.41,7.41,0,0,1-7.15,7.63h-2L27.06,121Zm-7.15,7.84a7.42,7.42,0,0,1,7.15,7.64v2.21l-9.13-9.85Zm7.26,10.29h0l4.64,4.95H22.46ZM32,146.35l0,0,4.25,5.35-8.44-5.37Zm.2,0,6.28-6.7,1.93-2v.08l3.53-.08H52l8.18,8.72L55.7,152l-9.32-9.91h0l-.15-.15h0L36.75,152Zm9.11,21.47h4.13l-8.37,5.33Zm4.64-.07h.58l0,0,9.06,5.77-9,6.46h0l-.15.11h-.55l-9.1-6.55Zm-.47,12.34-1.57,0H40.54L37,173.92Zm-5.22.07-1.92,2-6.32,6.64-4.74-5.06,9.31-10.05Zm-13,3.35v-2.21a7.42,7.42,0,0,1,7.15-7.64h2Zm7.15-10.06a7.42,7.42,0,0,1-7.15-7.63v-2.06l9.11,9.69Zm-1,.11a7.58,7.58,0,0,0-6.26,6.6,7.58,7.58,0,0,0-6.26-6.6,7.59,7.59,0,0,0,6.26-6.61A7.59,7.59,0,0,0,33.43,173.52Zm-6.37-7.74a7.42,7.42,0,0,1-7.15,7.63h-2l9.13-9.69Zm-7.15,7.84a7.42,7.42,0,0,1,7.15,7.64v2.21l-9.13-9.85Zm7.26,10.29h0l4.64,4.94H22.46ZM32,189.07l0,0,4.25,5.35-8.44-5.37Zm.2,0,6.3-6.71,1.91-2v.08l3.53-.08H52L60.22,189l-4.52,5.69-9.32-9.91h0l-.15-.15h0l-9.48,10.05Zm9.11,21.47h4.13l-8.37,5.33Zm4.64-.07h.58l0,0,9.06,5.77-9,6.46-.15.11h-.55l-9.1-6.55Zm-.47,12.34-1.57,0H40.54L37,216.64Zm-5.22.07-1.93,2.06-6.31,6.63-4.74-5.06,9.31-10.05Zm-13,3.35V224a7.42,7.42,0,0,1,7.15-7.63h2Zm7.15-10.06a7.42,7.42,0,0,1-7.15-7.63v-2.06l9.11,9.69Zm-1,.11a7.57,7.57,0,0,0-6.26,6.6,7.56,7.56,0,0,0-6.26-6.6,7.58,7.58,0,0,0,6.26-6.61A7.59,7.59,0,0,0,33.43,216.24Zm-6.37-7.74a7.42,7.42,0,0,1-7.15,7.63h-2l9.13-9.69Zm-7.15,7.84A7.42,7.42,0,0,1,27.06,224v2.22l-9.13-9.85Zm7.26,10.29h0l4.64,4.94H22.46ZM32,231.79l0,0,4.25,5.35-8.44-5.37Zm28.37.07h4.13l-8.37,5.33Zm.17-.29,4.71-4.94h0l4.64,4.94Zm9.58.22,0,0,4.25,5.35-8.44-5.37Zm28.37.07h4.13l-8.36,5.33Zm.17-.29,4.71-4.94h0l4.65,4.94Zm9.58.22,0,0,4.24,5.35-8.44-5.37Zm28.37.07h4.13l-8.36,5.33Zm.17-.29,4.71-4.94h0l4.64,4.94Zm9.58.22,0,0,4.24,5.35-8.43-5.37Zm28.37.07h4.13l-8.36,5.33Zm.17-.29,4.72-4.94h0l4.64,4.94Zm9.58.22,0,0,4.24,5.35-8.43-5.37Zm28.37.07H217l-8.36,5.33Zm.18-.29,4.71-4.94h0l4.64,4.94Zm9.57.22,0,0,4.24,5.35-8.43-5.37Zm-4.71-25.62h0l-.16-.15-9.48,10-4.51-5.68,6.38-6.79,1.83-1.93v.08l3.51-.08h8.08l8.18,8.72-4.53,5.69Zm.55-4.78,8.52-6.13h0l-3.42,6.15ZM232,210.5h4.13l-8.36,5.33Zm.18-.29,4.7-4.94h0l4.64,4.94h-9.35Zm12-15.44a7.42,7.42,0,0,1-7.15-7.63v-2.06l9.11,9.69Zm2,.21-.26.28L237,204.83v-2.21a7.56,7.56,0,0,1,5.34-7.36,6.84,6.84,0,0,1,1.81-.28Zm-3-.1a6.93,6.93,0,0,0-1.49.38,7.73,7.73,0,0,0-4.77,6.22.13.13,0,0,0,0-.06,7.71,7.71,0,0,0-4.77-6.16,6.7,6.7,0,0,0-1.48-.38,7.59,7.59,0,0,0,6.25-6.55.13.13,0,0,0,0-.06A7.58,7.58,0,0,0,243.1,194.88Zm-6.37-7.74a7.42,7.42,0,0,1-7.15,7.63h-2l9.13-9.69ZM229.58,195a6.77,6.77,0,0,1,1.8.28,7.56,7.56,0,0,1,5.35,7.36v2.21l-8.88-9.57-.25-.28Zm7.11,10.13-4.82,5-8.09-8.66,3.48-6.24.11-.2.19.2Zm-10.06-9.85-8.45,6.08-.15.11h-.54l-8.59-6.19-.51-.36,9.15-5.83h.58l0,0,9.07,5.77Zm-8.2-6.19h4.21l0,0,4.24,5.35Zm-.5-25.62h0l-.16-.15-9.48,10-4.51-5.68,6.33-6.75,1.88-2V159l3.53-.08h8.06l8.18,8.72-4.53,5.69Zm.55-4.78,8.52-6.13h0l-3.42,6.15ZM232,167.78h4.13l-8.36,5.33Zm.18-.28,4.7-4.95h0l4.64,4.95h-9.35Zm12-15.45a7.42,7.42,0,0,1-7.15-7.63v-2.06l9.11,9.69Zm2,.21-.26.28L237,162.11V159.9a7.56,7.56,0,0,1,5.34-7.36,6.78,6.78,0,0,1,1.81-.28Zm-3-.1a6.79,6.79,0,0,0-1.49.38,7.73,7.73,0,0,0-4.77,6.22.13.13,0,0,0,0-.06,7.72,7.72,0,0,0-4.76-6.16,6.93,6.93,0,0,0-1.49-.38,7.59,7.59,0,0,0,6.25-6.55.13.13,0,0,0,0-.06A7.58,7.58,0,0,0,243.1,152.16Zm-6.37-7.74a7.42,7.42,0,0,1-7.15,7.63h-2l9.13-9.69Zm-7.15,7.84a6.77,6.77,0,0,1,1.8.28,7.56,7.56,0,0,1,5.35,7.36v2.21l-8.88-9.57-.25-.28Zm7.11,10.13-4.82,5.06-8.09-8.67,3.48-6.24.11-.2.19.2Zm-10.06-9.85-8.45,6.08-.15.11h-.54l-8.59-6.19-.51-.36,9.15-5.83h.58l0,0,9.07,5.77Zm-8.2-6.19h4.21l0,0,4.24,5.35Zm-.5-25.62h0l-.16-.15-9.48,10L203.78,125l6.39-6.8,1.82-1.92v.08l3.51-.08h8.08l8.18,8.72-4.53,5.69Zm.55-4.78,8.52-6.13h0L223.59,116ZM232,125.06h4.13l-8.36,5.33Zm.18-.28,4.7-5h0l4.64,5h-9.35Zm12-15.45A7.41,7.41,0,0,1,237,101.7V99.64l9.11,9.69Zm2,.21-.26.28L237,119.39v-2.21a7.56,7.56,0,0,1,5.34-7.36,6.84,6.84,0,0,1,1.81-.28Zm-3-.1a6.93,6.93,0,0,0-1.49.38,7.73,7.73,0,0,0-4.77,6.22.13.13,0,0,0,0-.06,7.71,7.71,0,0,0-4.77-6.16,6.7,6.7,0,0,0-1.48-.38,7.58,7.58,0,0,0,6.25-6.55.13.13,0,0,0,0-.06A7.58,7.58,0,0,0,243.1,109.44Zm-6.37-7.74a7.41,7.41,0,0,1-7.15,7.63h-2l9.13-9.69Zm-7.15,7.84a6.77,6.77,0,0,1,1.8.28,7.56,7.56,0,0,1,5.35,7.36v2.21l-8.88-9.57-.25-.28Zm7.11,10.13-4.82,5.06-8.09-8.67,3.48-6.24.11-.2.19.2Zm-10.06-9.85-8.45,6.08L218,116h-.54l-8.59-6.19-.51-.36,9.15-5.83h.58l0,0,9.07,5.77Zm-8.2-6.19h4.21l0,0,4.24,5.35ZM217.93,78h0l-.16-.15-9.48,10-4.51-5.68,6.33-6.74,1.88-2v.08l3.53-.08h8.06l8.18,8.72-4.53,5.69Zm.55-4.78L227,67.1h0l-3.42,6.15ZM232,82.34h4.13l-8.36,5.33Zm.18-.28,4.7-5h0l4.64,5h-9.35Zm12-15.45A7.42,7.42,0,0,1,237,59V56.92l9.11,9.69Zm2,.21-.26.28L237,76.67V74.46a7.56,7.56,0,0,1,5.34-7.36,6.78,6.78,0,0,1,1.81-.28Zm-3-.1a6.79,6.79,0,0,0-1.49.38,7.73,7.73,0,0,0-4.77,6.22.13.13,0,0,0,0-.06,7.72,7.72,0,0,0-4.76-6.16,6.93,6.93,0,0,0-1.49-.38,7.58,7.58,0,0,0,6.25-6.55.13.13,0,0,0,0-.06A7.58,7.58,0,0,0,243.1,66.72ZM236.73,59a7.42,7.42,0,0,1-7.15,7.63h-2l9.13-9.69Zm-7.15,7.84a6.77,6.77,0,0,1,1.8.28,7.56,7.56,0,0,1,5.35,7.36v2.21l-8.88-9.57-.25-.28ZM236.69,77,231.87,82l-8.09-8.67,3.48-6.24.11-.2.19.2ZM226.63,67.1l-8.45,6.08-.15.11h-.54L208.9,67.1l-.51-.36,9.15-5.83h.58l0,0,9.07,5.77Zm-8.2-6.19h4.21l0,0,4.24,5.35Zm-.5-25.62h0l-.16-.15-9.48,10-4.51-5.68,6.39-6.8L212,30.79v.08l3.51-.08h8.08l8.18,8.72-4.53,5.69Zm.56-4.78L227,24.38h0l-3.42,6.15ZM232,39.63h4.13L227.72,45Zm.18-.29,4.7-5h0l4.64,5h-9.35Zm12-15.45A7.41,7.41,0,0,1,237,16.26V14.2l9.11,9.69Zm2,.22-.26.27L237,34V31.74a7.56,7.56,0,0,1,5.34-7.36,6.83,6.83,0,0,1,1.81-.27Zm-3-.11a6.93,6.93,0,0,0-1.49.38,7.73,7.73,0,0,0-4.77,6.22.13.13,0,0,0,0-.06,7.71,7.71,0,0,0-4.77-6.16,6.7,6.7,0,0,0-1.48-.38,7.58,7.58,0,0,0,6.25-6.55.13.13,0,0,0,0-.06A7.58,7.58,0,0,0,243.1,24Zm-6.37-7.74a7.41,7.41,0,0,1-7.15,7.63h-2l9.13-9.69Zm-7.15,7.85a6.76,6.76,0,0,1,1.8.27,7.56,7.56,0,0,1,5.35,7.36V34l-8.88-9.57-.25-.27Zm7.11,10.12-4.82,5.06-8.09-8.67,3.48-6.24.11-.2.19.2Zm-10.06-9.85-8.45,6.08h0l-.15.1h-.54l-8.59-6.19-.51-.36,9.15-5.83h.58l0,0L227.16,24Zm-18-.79,4.23-5.32H217Zm9.77-5.4h4.21l0,0,4.24,5.35Zm-.54-7.81A7.41,7.41,0,0,1,225,2.75h2l-9.12,9.85ZM217.78,13h0l4.64,5h-9.35l4.71-5ZM210.51,2.75a7.41,7.41,0,0,1,7.16,7.63V12.6l-9.14-9.85Zm-2.2.07,9.32,10-4.82,5.06-8.09-8.67ZM208,3l-3.44,6.16-5.1,0Zm-9.25,6.42h5.82l8.18,8.72-4.53,5.69-9.31-9.91h0l-.07-.07h0l-.09-.08h0l-9.48,10-4.51-5.68,6.29-6.7,1.92-2v.08l3.53-.08Zm-.7-.25-1.57,0H193L189.49,3Zm-5.22.06-1.94,2.06-6.3,6.63-4.75-5.06,9.32-10Zm-13,1.14a7.41,7.41,0,0,1,7.16-7.63h2l-9.13,9.85Zm-.1,2.65h0l4.64,5h-9.36l4.72-5ZM172.39,2.75a7.41,7.41,0,0,1,7.16,7.63V12.6l-9.14-9.85Zm-2.2.07,9.32,10-4.82,5.06L166.6,9.26Zm-.35.19L166.4,9.17l-5.1,0Zm-9.25,6.42h5.81l8.19,8.72-4.53,5.69-9.32-9.91h0l-.07-.07h0l-.08-.08h0l-9.48,10-4.51-5.68,6.33-6.74,1.88-2v.08l3.54-.08Zm-.7-.25-1.57,0H154.9L151.37,3Zm-5.22.06-1.89,2-6.35,6.67-4.75-5.06,9.31-10Zm-13,1.14a7.41,7.41,0,0,1,7.16-7.63h2l-9.13,9.85Zm-.1,2.65h0l4.64,5h-9.36l4.71-5ZM134.27,2.75a7.41,7.41,0,0,1,7.16,7.63V12.6l-9.14-9.85Zm-2.2.07,9.32,10-4.82,5.06-8.09-8.67Zm-.36.19-3.43,6.16-5.1,0Zm-9.24,6.42h5.81l8.19,8.72-4.53,5.69-9.32-9.91h0l-.07-.07h0l-.08-.08h0l-9.48,10-4.51-5.68,6.29-6.7,1.92-2v.08l3.54-.08Zm-.7-.25-1.57,0h-3.42L113.25,3Zm-5.22.06-1.94,2.06-6.3,6.63-4.75-5.06,9.31-10Zm-13,1.14a7.41,7.41,0,0,1,7.16-7.63h2l-9.13,9.85ZM103.41,13h0l4.65,5H98.7l4.71-5ZM96.15,2.75a7.41,7.41,0,0,1,7.16,7.63V12.6L94.17,2.75Zm-2.21.07,9.33,10-4.82,5.06L90.36,9.26ZM93.59,3,90.16,9.17l-5.1,0ZM84.35,9.43h5.81l8.19,8.72-4.53,5.69L84.5,13.93h0l-.16-.15h0l-9.48,10-4.51-5.68,6.33-6.74,1.88-2v.08l3.54-.08Zm-.71-.25-1.57,0H78.66L75.13,3Zm-5.22.06L76.49,11.3l-6.31,6.63-4.74-5.06,9.31-10Zm-13,1.14a7.41,7.41,0,0,1,7.16-7.63h2L65.4,12.6ZM65.29,13h0l4.64,5H60.58l4.71-5ZM58,2.75a7.41,7.41,0,0,1,7.15,7.63V12.6L56.05,2.75Zm-2.21.07,9.32,10-4.81,5.06L52.24,9.26ZM55.47,3,52,9.17l-5.1,0ZM46.23,9.43H52l8.18,8.72L55.7,23.84l-9.32-9.91h0l-.07-.07h0l-.08-.08h0l-9.48,10-4.51-5.68,6.28-6.7,1.93-2v.08L44,9.43Zm-10,14.13-8.44-5.37H32l0,0ZM45.52,9.18,44,9.21H40.54L37,3Zm-5.22.06L38.37,11.3l-6.31,6.63-4.74-5.06,9.31-10Zm-13,1.14a7.41,7.41,0,0,1,7.15-7.63h2L27.28,12.6ZM27.17,13h0l4.64,5H22.46l4.71-5ZM19.91,2.75a7.41,7.41,0,0,1,7.15,7.63V12.6L17.93,2.75ZM8.82,9.15,17.35,3,13.92,9.17Zm5.29.11L17.7,2.82l9.32,10-4.81,5.06Zm8.18,9h4.13l-8.37,5.32Zm4.64-.08h.58l0,0L36.55,24l-.53.38-8.44,6.08h0l-.15.1h-.54l-8.6-6.19L17.78,24Zm-.47,12.34-1.59,0H21.48L17.94,24.4Zm-8.89-6.35.12.2,3.55,6.22-1.83,2L13,39.29,8.26,34.23l9.12-9.85Zm-.48.2L8.22,34V31.74a7.56,7.56,0,0,1,5.35-7.36,6.76,6.76,0,0,1,1.8-.27h2ZM8.22,14.2l9.11,9.69h-2a7.41,7.41,0,0,1-7.15-7.63ZM3.34,24.38A6.93,6.93,0,0,0,1.85,24,7.58,7.58,0,0,0,8.1,17.46a.17.17,0,0,0,0-.07A7.59,7.59,0,0,0,14.37,24a6.93,6.93,0,0,0-1.49.38A7.73,7.73,0,0,0,8.11,30.6a.13.13,0,0,0,0-.06A7.72,7.72,0,0,0,3.34,24.38Zm4.76,15H3.4l4.7-5h0l4.64,5Zm.66.21H13l0,0,4.25,5.35Zm4.42,0,6.38-6.8,1.83-1.92v.08l3.51-.08H33l8.18,8.72L36.64,45.2l-9.32-9.91h0l-.15-.15-9.48,10ZM8.82,51.87l8.53-6.14-3.43,6.16Zm5.29.11,3.59-6.44L27,55.59l-4.81,5.06Zm8.18,9h4.13l-8.37,5.32Zm4.64-.08h.58l0,0,9.06,5.77L36,67.1l-8.44,6.08-.15.11h-.55L18.29,67.1l-.51-.36Zm-.47,12.34-1.57,0H21.48L18,67.12ZM17.57,66.9l.12.2,3.55,6.22-1.89,2L13,82,8.26,77l9.12-9.85Zm-.48.2L8.22,76.67V74.46a7.56,7.56,0,0,1,5.35-7.36,6.77,6.77,0,0,1,1.8-.28h2ZM8.22,56.92l9.11,9.69h-2A7.42,7.42,0,0,1,8.22,59ZM3.34,67.1a6.93,6.93,0,0,0-1.49-.38A7.58,7.58,0,0,0,8.1,60.18a.2.2,0,0,0,0-.07,7.59,7.59,0,0,0,6.26,6.61,6.93,6.93,0,0,0-1.49.38,7.73,7.73,0,0,0-4.77,6.22.13.13,0,0,0,0-.06A7.72,7.72,0,0,0,3.34,67.1Zm4.76,15H3.4l4.7-5h0l4.64,5Zm.66.21H13l0,0,4.25,5.35Zm4.42,0,6.33-6.74,1.88-2v.08l3.53-.08H33l8.18,8.72-4.52,5.69L27.32,78h0l-.07-.07h0l-.08-.08-9.48,10ZM8.82,94.59l8.53-6.14-3.43,6.16Zm5.29.11,3.59-6.44,9.32,10-4.81,5.06Zm8.18,9h4.13L18.05,109Zm4.64-.07h.58l0,0,9.06,5.77-.53.38-8.44,6.08-.15.11h-.54l-8.6-6.19-.51-.36ZM26.46,116l-1.59,0H21.48l-3.54-6.17Zm-8.89-6.35.12.2L21.24,116l-1.83,2L13,124.73l-4.74-5.06,9.12-9.85Zm-.48.2-8.87,9.57v-2.21a7.56,7.56,0,0,1,5.35-7.36,6.77,6.77,0,0,1,1.8-.28h2ZM8.22,99.64l9.11,9.69h-2a7.41,7.41,0,0,1-7.15-7.63ZM3.34,109.82a6.93,6.93,0,0,0-1.49-.38A7.58,7.58,0,0,0,8.1,102.9a.2.2,0,0,0,0-.07,7.59,7.59,0,0,0,6.26,6.61,6.93,6.93,0,0,0-1.49.38A7.73,7.73,0,0,0,8.11,116a.13.13,0,0,0,0-.06A7.72,7.72,0,0,0,3.34,109.82Zm4.76,15H3.4l4.7-5h0l4.64,5Zm.66.21H13l0,0,4.25,5.35Zm4.42,0,6.38-6.8,1.83-1.92v.08l3.51-.08H33L41.16,125l-4.52,5.69-9.32-9.91h0l-.15-.15-9.48,10ZM8.82,137.31l8.53-6.14-3.43,6.16Zm5.29.11L17.7,131,27,141l-4.81,5.06Zm8.18,9h4.13l-8.37,5.33Zm4.64-.07h.58l0,0,9.06,5.77-.53.38-8.44,6.08-.15.11h-.55l-8.59-6.19-.51-.36Zm-.47,12.34-1.57,0H21.48L18,152.56Zm-8.89-6.35.12.2,3.55,6.22-1.89,2L13,167.45l-4.74-5.06,9.12-9.85Zm-.48.2-8.87,9.57V159.9a7.56,7.56,0,0,1,5.35-7.36,6.77,6.77,0,0,1,1.8-.28h2ZM8.22,142.36l9.11,9.69h-2a7.42,7.42,0,0,1-7.15-7.63ZM3.34,152.54a6.93,6.93,0,0,0-1.49-.38,7.59,7.59,0,0,0,6.25-6.54.2.2,0,0,0,0-.07,7.59,7.59,0,0,0,6.26,6.61,6.93,6.93,0,0,0-1.49.38,7.73,7.73,0,0,0-4.77,6.22.13.13,0,0,0,0-.06A7.72,7.72,0,0,0,3.34,152.54Zm4.76,15H3.4l4.7-4.95h0l4.64,4.95Zm.66.21H13l0,0,4.25,5.35Zm4.42,0,6.33-6.75,1.88-2V159l3.53-.08H33l8.18,8.72-4.52,5.69-9.32-9.91h0l-.07-.07h0l-.08-.08-9.48,10ZM8.82,180l8.53-6.14-3.43,6.16Zm5.29.11,3.59-6.44L27,183.75l-4.81,5.06Zm8.18,9h4.13l-8.37,5.33Zm4.64-.07h.58l0,0,9.06,5.77-.53.38-8.44,6.08-.15.11h-.54l-8.6-6.19-.51-.36Zm-.47,12.34-1.59,0H21.48l-3.54-6.17Zm-8.89-6.35.12.2,3.55,6.22-1.85,2L13,210.17l-4.74-5.06,9.12-9.85Zm-.48.2-8.87,9.57v-2.21a7.56,7.56,0,0,1,5.35-7.36,6.77,6.77,0,0,1,1.8-.28h2ZM8.22,185.08l9.11,9.69h-2a7.42,7.42,0,0,1-7.15-7.63ZM3.34,195.26a6.93,6.93,0,0,0-1.49-.38,7.59,7.59,0,0,0,6.25-6.54.2.2,0,0,0,0-.07,7.59,7.59,0,0,0,6.26,6.61,6.93,6.93,0,0,0-1.49.38,7.73,7.73,0,0,0-4.77,6.22.13.13,0,0,0,0-.06A7.72,7.72,0,0,0,3.34,195.26Zm4.76,15H3.4l4.7-4.94h0l4.64,4.94Zm.66.22H13l0,0,4.25,5.35Zm4.42,0,6.37-6.79,1.84-1.93v.08l3.51-.08H33l8.18,8.72-4.52,5.69-9.32-9.91h0l-.15-.15-9.48,10ZM8.82,222.75l8.53-6.14-3.43,6.16Zm5.29.11,3.59-6.44L27,226.47l-4.81,5.06Zm8.18,9h4.13l-8.37,5.33ZM8.22,227.8l9.11,9.69h-2a7.42,7.42,0,0,1-7.15-7.63Zm9.12,9.9-.25.28-8.87,9.57v-2.22A7.55,7.55,0,0,1,13.57,238a6.77,6.77,0,0,1,1.8-.28Zm-14,.28a6.93,6.93,0,0,0-1.49-.38,7.59,7.59,0,0,0,6.25-6.55.13.13,0,0,0,0-.06,7.59,7.59,0,0,0,6.26,6.61,6.93,6.93,0,0,0-1.49.38,7.73,7.73,0,0,0-4.77,6.22.13.13,0,0,0,0-.06A7.72,7.72,0,0,0,3.34,238Zm4.76,15H3.4L8.1,248h0l4.64,4.94Zm11.25-6.72L13,252.89l-4.74-5.06L17.38,238l.19-.2.12.2,3.55,6.22Zm5.54-2H21.48L17.94,238l8.52,6.13Zm2.54,0h-.55L18.29,238l-.51-.37,9.15-5.82h.58l0,0,9.06,5.77L36,238l-8.44,6.08Zm.45-.06L36.39,238h0L33,244.13Zm13.39,8.78-8.1-8.67L36.65,238l.11-.2.19.2,9.13,9.85Zm5,0H41.52L46.23,248h0l4.64,4.94Zm11.21-6.68-6.32,6.64-4.74-5.06L55.5,238l.19-.2.12.2,3.55,6.22ZM63,244.17H59.6L56.07,238l8.51,6.13Zm2.54,0H65L56.41,238l-.51-.37,9.15-5.82h.58l0,0,9.06,5.77-.53.38-8.44,6.08Zm.45-.06L74.51,238h0l-3.42,6.15Zm13.39,8.78-8.09-8.67L74.77,238l.11-.2.19.2,9.13,9.85Zm5,0H79.64L84.35,248h0L89,252.93Zm11.2-6.67-6.31,6.63-4.74-5.06L93.62,238l.19-.2.12.2,3.55,6.22Zm5.58-2.09H97.72L94.19,238l8.51,6.13Zm2.54,0h-.54L94.53,238l-.5-.37,9.15-5.82h.58l0,0,9.06,5.77-.53.38-8.44,6.08Zm.45-.06,8.51-6.13h0l-3.43,6.15Zm13.39,8.78-8.09-8.67,3.47-6.24.11-.2.19.2,9.14,9.85Zm5,0h-4.71l4.71-4.94h0l4.65,4.94Zm11.22-6.68-6.32,6.64-4.75-5.06,9.12-9.85.19-.2.12.2,3.56,6.22Zm5.57-2.08h-3.42L132.31,238l8.52,6.13Zm2.53,0h-.54l-8.6-6.19-.5-.37,9.15-5.82h.58l0,0,9.06,5.77-.52.38-8.45,6.08Zm.45-.06,8.51-6.13h0l-3.43,6.15Zm13.39,8.78-8.09-8.67L151,238l.12-.2.18.2,9.14,9.85Zm5,0h-4.71l4.71-4.94h0l4.64,4.94Zm11.2-6.67-6.3,6.63-4.75-5.06,9.13-9.85.18-.2.12.2,3.56,6.22Zm5.59-2.09H174L170.43,238l8.52,6.13Zm2.53,0h-.54L170.78,238l-.51-.37,9.15-5.82H180l0,0L189,237.6l-.52.38-8.45,6.08Zm.45-.06,8.52-6.13h0l-3.43,6.15Zm13.39,8.78-8.09-8.67,3.47-6.24.12-.2.19.2,9.13,9.85Zm5,0H194l4.71-4.94h0l4.64,4.94Zm11.21-6.67-6.31,6.63-4.75-5.06L208,238l.19-.2.11.2,3.56,6.22Zm5.58-2.09h-3.42L208.55,238l8.52,6.13Zm2.53,0h-.54L208.9,238l-.51-.37,9.15-5.82h.58l0,0,9.07,5.77-.53.38-8.45,6.08Zm.45-.06L227,238h0l-3.42,6.15Zm13.39,8.78-8.09-8.67,3.48-6.24.11-.2.19.2,9.13,9.85Zm12.23-15.4a7.42,7.42,0,0,1-7.15-7.63V227.8l9.11,9.69Zm2,.21-.26.28L237,247.55v-2.22a7.56,7.56,0,0,1,5.34-7.35,6.78,6.78,0,0,1,1.81-.28Zm-3-.1a6.79,6.79,0,0,0-1.49.38,7.73,7.73,0,0,0-4.77,6.22.13.13,0,0,0,0-.06,7.72,7.72,0,0,0-4.76-6.16,6.93,6.93,0,0,0-1.49-.38,7.59,7.59,0,0,0,6.25-6.55.13.13,0,0,0,0-.06A7.58,7.58,0,0,0,243.1,237.6Zm-6.37-7.74a7.42,7.42,0,0,1-7.15,7.63h-2l9.13-9.69Zm-7.15,7.84a6.77,6.77,0,0,1,1.8.28,7.55,7.55,0,0,1,5.35,7.35v2.22L227.85,238l-.25-.28Zm7.25,15.23h-4.7l4.7-4.94h0l4.64,4.94Zm18.36-8.8-1.57,0H250.2L246.67,238Zm-5.22.07L248,246.26l-6.31,6.63L237,247.83l9.12-9.85.19-.2.11.2Zm-3.66-6.76L237,227.53h0l-.16-.15h0l-9.48,10.05-4.5-5.68,6.28-6.7,1.92-2v.08l3.53-.08h8.06l8.18,8.72Zm-8.76-14.69,8.53-6.14-3.43,6.16Zm17.59,9.11-8.36,5.33,4.23-5.33Zm.65-25.42v2.06a7.42,7.42,0,0,1-7.15,7.63h-2Zm-7.15,9.9a7.42,7.42,0,0,1,7.15,7.63v2.22l-9.13-9.85Zm-2.21.08,9.32,10.05-4.81,5.06-8.1-8.67Zm-9.18,6.28-.16.11h-.54l-9.1-6.55,9.15-5.83h.58l0,0,9.07,5.77Zm8.68-6.9-8.44-5.37h4.21l0,0Zm9.26-14.39-1.59,0h-3.4l-3.53-6.17Zm-5.22.07-1.89,2-6.35,6.67L237,205.11l9.12-9.85.19-.2.11.2Zm-3.66-6.76L237,184.81h0l-.16-.15h0l-9.48,10.05-4.5-5.68,6.34-6.76,1.86-2v.08l3.53-.08h8.06l8.18,8.72ZM237.55,180l8.53-6.14-3.43,6.16Zm17.59,9.11-8.36,5.33,4.23-5.33Zm.65-25.42v2.06a7.42,7.42,0,0,1-7.15,7.63h-2Zm-7.15,9.9a7.42,7.42,0,0,1,7.15,7.64v2.21l-9.13-9.85Zm-2.21.08,9.32,10.05-4.81,5.06-8.1-8.67ZM237.25,180h0l-.16.11h-.54l-9.1-6.55,9.15-5.83h.58l0,0,9.07,5.77Zm8.67-6.9-8.43-5.37h4.21l0,0Zm9.27-14.39-1.57,0H250.2l-3.53-6.17Zm-5.22.07L248,160.82l-6.31,6.63L237,162.39l9.12-9.85.19-.2.11.2ZM246.31,152,237,142.09h0l-.16-.15h0L227.35,152l-4.5-5.68,6.28-6.7,1.92-2v.08l3.53-.08h8.06l8.18,8.72Zm-8.76-14.69,8.53-6.14-3.43,6.16Zm17.59,9.11-8.36,5.33,4.23-5.33Zm.65-25.42v2.06a7.41,7.41,0,0,1-7.15,7.63h-2Zm-7.15,9.9a7.42,7.42,0,0,1,7.15,7.64v2.21l-9.13-9.85Zm-2.21.08L255.75,141l-4.81,5.06-8.1-8.67Zm-9.18,6.28-.16.11h-.54l-9.1-6.55L236.6,125h.58l0,0,9.07,5.77Zm8.67-6.9L237.49,125h4.21l0,0ZM255.19,116l-1.59,0h-3.4l-3.53-6.17ZM250,116l-1.88,2-6.36,6.69L237,119.67l9.12-9.85.19-.2.11.2Zm-3.66-6.76L237,99.37h0l-.07-.07h0l-.09-.08h0l-9.48,10-4.5-5.68,6.34-6.76,1.86-2V95l3.53-.08h8.06l8.18,8.72Zm-8.77-14.69,8.54-6.14-3.43,6.16Zm17.6,9.11L246.78,109,251,103.7Zm.65-25.42v2.06A7.41,7.41,0,0,1,248.64,88h-2Zm-7.15,9.9a7.42,7.42,0,0,1,7.15,7.64V98l-9.13-9.85Zm-2.21.08,9.32,10-4.81,5.06-8.1-8.67Zm-9.18,6.28-.16.11h-.54l-9.1-6.55,9.15-5.83h.58l0,0,9.07,5.77Zm8.67-6.9-8.43-5.37h4.21l0,0Zm9.27-14.39-1.57,0H250.2l-3.53-6.17Zm-5.22.07L248,75.38,241.73,82,237,77l9.12-9.85.19-.2.11.2Zm-3.66-6.76L237,56.65h0l-.16-.15h0l-9.48,10-4.5-5.68,6.28-6.7,1.92-2v.08l3.53-.08h8.06l8.18,8.72Zm-8.76-14.69,8.53-6.14-3.43,6.16ZM255.14,61l-8.36,5.32L251,61Zm.65-25.43v2.06a7.41,7.41,0,0,1-7.15,7.63h-2Zm-7.15,9.91a7.41,7.41,0,0,1,7.15,7.63v2.21l-9.13-9.84Zm-2.21.07,9.32,10.05-4.81,5.06L242.84,52Zm-9.18,6.28-.16.11h-.54l-9.1-6.55,9.15-5.83h.58l0,0,9.07,5.77Zm8.67-6.9-8.43-5.37h4.21l0,0Zm9.27-14.39-1.59,0h-3.4l-3.53-6.17ZM250,30.6l-1.88,2-6.36,6.68L237,34.23l9.12-9.85.19-.2.11.2Zm-3.66-6.76L237,13.93h0l-.07-.07h0l-.09-.08h0l-9.48,10-4.5-5.68,6.28-6.7,1.92-2v.08l3.53-.08h8.06l8.18,8.72Zm8.83-5.57-8.36,5.32L251,18.27Zm-4.2-.34-8.1-8.67,3.59-6.44,9.32,10Zm4.85-5.33-9.13-9.85h2a7.41,7.41,0,0,1,7.15,7.63Z"/><path class="cls-1" d="M256,248.82h0l-.09-.08-6.8,7.21h.3l6.4-6.79v2.06A7.87,7.87,0,0,1,254.2,256h.28a8.1,8.1,0,0,0,1.42-3.6c0,.22,0,.43.1.65v-4.16h0l0,0Z"/><path class="cls-1" d="M217.93,248.89l-.16-.15L211,256h.3l6.4-6.79v2.06a7.87,7.87,0,0,1-1.59,4.73h.27a8.11,8.11,0,0,0,1.43-3.6,8,8,0,0,0,1.42,3.6h.27a7.86,7.86,0,0,1-1.58-4.73v-2.06l6.38,6.79h.3l-6.64-7.06Z"/><path class="cls-1" d="M179.81,248.89l-.07-.07h0l-.08-.08-6.8,7.21h.3l6.4-6.79v2.06A7.87,7.87,0,0,1,178,256h.27a8.11,8.11,0,0,0,1.43-3.6,8,8,0,0,0,1.42,3.6h.27a7.87,7.87,0,0,1-1.59-4.73v-2.06l6.39,6.79h.29l-6.64-7.06Z"/><path class="cls-1" d="M141.69,248.89l-.07-.07h0l-.08-.08-6.8,7.21h.3l6.4-6.79v2.06a7.87,7.87,0,0,1-1.59,4.73h.27a8.11,8.11,0,0,0,1.43-3.6A8,8,0,0,0,143,256h.27a7.87,7.87,0,0,1-1.59-4.73v-2.06L148,256h.29l-6.64-7.06Z"/><path class="cls-1" d="M103.57,248.89l-.07-.07h0l-.08-.08L96.61,256h.29l6.41-6.79v2.06a7.87,7.87,0,0,1-1.59,4.73H102a8,8,0,0,0,1.42-3.6,8.11,8.11,0,0,0,1.43,3.6h.27a7.87,7.87,0,0,1-1.59-4.73v-2.06l6.39,6.79h.29l-6.64-7.06Z"/><path class="cls-1" d="M65.45,248.89l-.07-.07h0l-.08-.08L58.49,256h.29l6.4-6.79v2.06A7.86,7.86,0,0,1,63.6,256h.27a8,8,0,0,0,1.42-3.6,8.11,8.11,0,0,0,1.43,3.6H67a7.87,7.87,0,0,1-1.59-4.73v-2.06L71.78,256h.3l-6.64-7.06Z"/><path class="cls-1" d="M27.32,248.89l-.07-.07h0l-.08-.08L20.37,256h.29l6.4-6.79v2.06A7.93,7.93,0,0,1,25.48,256h.27a8,8,0,0,0,1.42-3.6,8.1,8.1,0,0,0,1.42,3.6h.28a7.87,7.87,0,0,1-1.59-4.73v-2.06L33.66,256H34l-6.64-7.06Z"/></g></svg>