<svg xmlns="http://www.w3.org/2000/svg" viewBox="0 0 256 256"><defs><style>.cls-1{fill:#595854;}</style></defs><title>seamless_pattern11</title><g id="seamless_pattern11"><path class="cls-1" d="M256,2.2l-3,5.57-5.53-3.28L249.9,0h-.36l-2.29,4.26L244.74,0h-.37l2.12,3.59L242.9,0h-.44l4.41,4.42L236,4.18,237.42,0h-.33l-1.43,4-4.19-4H231l3.7,3.57L228.53,0h-.63l7.68,4.43V10a10.39,10.39,0,0,1-7,3.35A.7.7,0,0,0,228,13a.69.69,0,0,0-.64.42,10.36,10.36,0,0,1-7.15-3.44h0V4.34L227.7,0h-.63l-5.94,3.43L224.81,0h-.46l-4.24,4L218.62,0h-.34l1.54,4.08-7.43.16-3.49.08L213.24,0h-.44l-3.53,3.51L211.34,0H211l-2.45,4.16L206.68.74l-.4-.74h-.36l2.38,4.43-5.59,3.35L198.53,0h-.35l4.25,7.93H191.71L196.38,0H196l-4.62,7.86-2.14-1.5L195.63,0h-.45l-6.11,6.1L186.64,0h-.34l2.52,6.34-3.95,3.95A7.73,7.73,0,0,0,178.82,6L180,4l4.25-4h-.46l-3.93,3.67-1.49-.86L183.23,0h-.63l-4.55,2.63L173.5,0h-.63l4.86,2.81-1.65,1L172.18,0h-.45l4.2,4.06,1.14,2a7.76,7.76,0,0,0-6,4.23l-4.16-4.18L169.53,0h-.34l-2.53,5.85L160.84,0h-.45l6.09,6.11-1.94,1.64L160,0h-.37l4.61,7.83H153.5L157.71,0h-.36l-4.18,7.77-5.52-3.28L150.06,0h-.36l-2.29,4.26L144.91,0h-.37l2.11,3.59L143.07,0h-.45L147,4.42l-10.92-.24L137.59,0h-.34l-1.43,4-4.18-4h-.46l3.7,3.57L128.7,0h-.63l7.67,4.43V10a10.34,10.34,0,0,1-7,3.35.72.72,0,0,0-.64-.41.71.71,0,0,0-.65.42,10.35,10.35,0,0,1-7.14-3.44h0V4.34L127.86,0h-.63L121.3,3.43,125,0h-.46l-4.24,4L118.78,0h-.33L120,4.08l-7.43.16-3.48.08L113.41,0H113l-3.52,3.51L111.5,0h-.36l-2.46,4.16L106.85.74l-.4-.74h-.36l2.38,4.43-5.59,3.35L98.7,0h-.36l4.26,7.93H91.88L96.54,0h-.36L91.55,7.86l-2.13-1.5L95.79,0h-.45L89.23,6.1,86.8,0h-.34L89,6.34l-4,3.95A7.69,7.69,0,0,0,79,6L80.17,4l4.25-4H84L80,3.67l-1.49-.86L83.4,0h-.63L78.22,2.63,73.66,0H73L77.9,2.81l-1.66,1L72.34,0h-.45l4.2,4.06,1.14,2a7.76,7.76,0,0,0-6,4.23L67.06,6.07,69.7,0h-.34L66.83,5.85,61,0h-.44l6.09,6.11-2,1.64L60.14,0h-.36l4.61,7.83H53.66L57.87,0h-.36L53.34,7.77,47.81,4.49,50.23,0h-.36L47.58,4.26,45.07,0H44.7l2.12,3.59L43.23,0h-.44L47.2,4.42,36.28,4.18,37.75,0h-.33L36,4,31.8,0h-.45l3.7,3.57L28.86,0h-.63l7.68,4.43V10a10.39,10.39,0,0,1-7,3.35.7.7,0,0,0-.64-.41.69.69,0,0,0-.64.42,10.36,10.36,0,0,1-7.15-3.44h0V4.33L28,0H27.4L21.46,3.43,25.14,0h-.46L20.44,4,19,0h-.34l1.54,4.08-7.27.16-3.65.08L13.57,0h-.44L9.6,3.51,11.67,0H11.3L8.85,4.16,6.61,0H6.26L8.63,4.43,3,7.78,0,2.12v.66L2.76,7.93H0v.31H2L0,8.89v.33L2.87,8.3V19.12L0,18.16v.33l2.07.7H0v.31H2.78L0,24.67v.67L3,19.7l5.61,3.11L3.42,32.53,0,30.5v.37l3.27,1.94v0l.07,0v11l-.09,0,0,0L0,46.17v.38l3.41-2.31L8.63,54,3,57.31,0,51.64v.67l2.76,5.14H0v.32H2l-2,.64v.34l2.87-.92V68.65L0,67.69V68l2.07.7H0V69H2.78L0,74.2v.67l3-5.64,5.61,3.11L3.42,82.06,0,80v.37l3.27,1.94v0l.07,0v11l-.09,0,0,0L0,95.69v.38l3.41-2.3,5.22,9.72L3,106.84l-3-5.67v.67L2.76,107H0v.32H2l-2,.64v.34l2.87-.92v10.82l-2.87-1v.33l2.07.69H0v.32H2.78L0,123.73v.66l3-5.63,5.61,3.11-5.22,9.72-3.42-2v.37l3.27,1.94v0l.07,0v11l-.09,0,0,0L0,145.22v.38l3.41-2.3L8.63,153,3,156.37,0,150.7v.67l2.76,5.14H0v.32H2l-2,.64v.33l2.87-.91v10.82l-2.87-1v.34l2.07.69H0v.32H2.78L0,173.26v.66l3-5.63,5.61,3.11-5.22,9.72-3.42-2v.36l3.27,2v0l.07,0v11l-.09,0,0,0L0,194.75v.38l3.41-2.3,5.22,9.71L3,205.9l-3-5.67v.67L2.76,206H0v.32H2L0,207v.33l2.87-.92v10.83l-2.87-1v.34l2.07.69H0v.32H2.78L0,222.79v.66l3-5.63,5.61,3.11-5.22,9.72-3.42-2V229l3.27,2v0l.07,0v11l-.09,0,0,0L0,244.28v.38l3.41-2.3,5.22,9.71L3,255.43l-3-5.67v.66l2.76,5.15H0v.31H2l-.36.12h1l.18-.06V256h.31v-.16l.08,0-.07-.12,5.5-3.29V256H9v-3.62L16.58,256h.73l-7.8-3.73L20.2,252v4h.32v-4l7.61-4.4,7.78,4.49V256h.32v-3.86l9.16.19,1.54,0L39.32,256h.73l7.38-3.53V256h.31v-3.54l5.45,3.23,0,0,.07,0V256h.32v-.15L54,256h1l-.64-.21H64.5V256h.32v-.09L65,256h.63l-.68-.39L66.87,254l2,2h.44l-2.27-2.28,3.29-7.57,5.74,5.55,1.14,2A7.79,7.79,0,0,0,72.56,256H73a7.43,7.43,0,0,1,4.36-2v-.09l.58,1L77.28,256h.37l.47-.82.47.82H79l-.65-1.13.52-.91a7.42,7.42,0,0,1,4.42,2h.43A7.69,7.69,0,0,0,79,253.67l1.18-2.06,5.74-5.36L89,254l-2,2h.45l1.77-1.77,2.12,1.48-.51.29h1v-.12h10.09l-.36.12h1l.17-.06V256H103v-.16l.07,0-.06-.12,5.49-3.29V256h.32v-3.62l7.57,3.62h.73l-7.8-3.73L120,252v4h.32v-4l7.62-4.4,7.77,4.49V256h.31v-3.86l9.16.19,1.53,0L139.16,256h.73l7.37-3.53V256h.32v-3.54l5.45,3.23,0,0,.07,0V256h.31v-.15l.46.15h1l-.64-.21h10.13V256h.31v-.09l.17.09h.62l-.67-.39,1.94-1.63,2,2h.45l-2.28-2.28,3.29-7.57,5.75,5.55,1.14,2A7.73,7.73,0,0,0,172.4,256h.43a7.43,7.43,0,0,1,4.37-2v-.09l.58,1-.65,1.13h.36l.47-.82.47.82h.37l-.66-1.13.52-.91a7.42,7.42,0,0,1,4.42,2h.44a7.72,7.72,0,0,0-4.69-2.33l1.18-2.06,5.74-5.36,3.08,7.74-2,2h.44l1.78-1.77,2.11,1.48-.51.29h1v-.12h10.1l-.36.12h1l.18-.06V256h.31v-.16l.08,0-.07-.12,5.5-3.29V256h.31v-3.62l7.58,3.62H217l-7.8-3.73,10.69-.23v4h.31v-4l7.61-4.4,7.78,4.49V256h.32v-3.86l9.16.19,1.54,0L239,256h.73l7.38-3.53V256h.31v-3.54l5.45,3.23,0,0,.07,0V256h.32v-.15l.45.15h1l-.64-.21H256v-.32h-2.67l2.67-5v-.66l-3,5.56-5.53-3.28,5.13-9.55,3.39,1.88v-.36l-3.23-1.79V231.08l.07,0-.06-.12L256,229v-.37l-3.37,2-5-9.41,5.42-3.66,3,5.58v-.66l-2.68-5H256v-.31h-1.94l1.94-.63v-.33l-2.77.89V206.32l2.77.92v-.33l-1.95-.65H256V206h-2.67l2.67-5v-.66l-3,5.56-5.53-3.28,5.13-9.55,3.39,1.88v-.36l-3.23-1.79V181.55l.07,0-.06-.12,3.22-1.93v-.37l-3.37,2-5-9.41,5.42-3.66,3,5.58V173l-2.68-5H256v-.31h-1.94l1.94-.63v-.33l-2.77.89V156.79l2.77.92v-.33l-1.95-.65H256v-.31h-2.67l2.67-5v-.67l-3,5.56-5.53-3.27,5.13-9.56L256,145.4V145l-3.23-1.79V132l.07,0-.06-.12L256,130v-.37l-3.37,2-5-9.4,5.42-3.67,3,5.59v-.67l-2.68-5H256v-.31h-1.94l1.94-.63v-.33l-2.77.9V107.26l2.77.92v-.33l-1.95-.65H256v-.31h-2.67l2.67-5v-.67l-3,5.57-5.53-3.28L252.61,94,256,95.87v-.36l-3.23-1.79V82.49l.07,0-.06-.12L256,80.42v-.37l-3.37,2-5-9.41L253,69l3,5.58v-.67l-2.68-5H256v-.31h-1.94L256,68v-.33l-2.77.9V57.74l2.77.91v-.33l-1.95-.65H256v-.31h-2.67l2.67-5v-.67l-3,5.57L247.48,54l5.13-9.55L256,46.34V46l-3.23-1.79V33l.07,0-.06-.11L256,30.89v-.36l-3.37,2-5-9.41L253,19.48l3,5.58v-.67l-2.68-5H256v-.32h-1.94l1.94-.63v-.33l-2.77.9V8.21l2.77.91V8.79l-1.95-.64H256V7.83h-2.67l2.67-5ZM243.9,4.67l2.69,0L235.9,9.83V4.49Zm-15.2,9a10.66,10.66,0,0,0,7.13-3.47L247.1,4.83v8.64h0V22.6l-11.32-5.42a10.65,10.65,0,0,0-7.08-3.41S228.7,13.71,228.7,13.69Zm12.6,18.93-2.13-1.49,7.31-7.3Zm.21.39H251.6l-10.09,3.22Zm-.21,49.14-2.13-1.5,7.31-7.29Zm.21.38H251.6l-10.09,3.23Zm-.21,49.15-2.13-1.5,7.31-7.29Zm.21.38H251.6l-10.09,3.23Zm-.21,49.15-2.13-1.5,7.31-7.29Zm.21.38H251.6l-10.09,3.23Zm-.21,49.15-2.13-1.5,7.31-7.3Zm.21.38H251.6l-10.09,3.23Zm-38.58,11-5.34,3.61h0l-.11-.05v-9.18h0v-8.76l5.45,3.24v0l.07,0v11l-.09,0Zm-26.66-20.56,1.72-3,1.67,2.88-1.78,1Zm1.3,1.12-6.36,3.67,4.87-4.53Zm-18.82,14v-9L170,233l0,7.05-11.2,5.36v-8.77Zm-55.65,5.47-5.35,3.61h0l-.11-.05v-9.18h0v-8.76l5.45,3.24,0,0,.07,0v11l-.08,0ZM76.43,221.52l1.72-3,1.68,2.88-1.78,1Zm1.3,1.12-6.35,3.67,4.86-4.53Zm-18.81,14v-9L70.12,233V240l-11.2,5.36v-8.77Zm-44.13,5.73,2.26,1.4L9.6,251.15Zm-.2-.37H4.47l10.12-3.28ZM9,211.84v-9l11.2,5.35,0,7.06L9,220.62v-8.78Zm5.79-19,2.26,1.4L9.6,201.62Zm-.2-.37H4.47l10.12-3.28ZM9,162.31v-9l11.2,5.35,0,7.06L9,171.09v-8.78Zm5.79-19,2.26,1.4L9.6,152.09Zm-.2-.37H4.47l10.12-3.28ZM9,112.78v-9l11.2,5.36,0,7L9,121.56v-8.78Zm5.79-19,2.26,1.4L9.6,102.57Zm-.2-.37H4.47L14.59,90.1ZM9,63.25v-9l11.2,5.36,0,7.05L9,72V63.25Zm5.79-19,2.26,1.39L9.6,53Zm-.2-.37H4.47l10.12-3.28ZM27.43,31,28,32l-3.56,6.19-2.93-2.93a7.46,7.46,0,0,1,5.91-4.17Zm.87-3.23,1.61.93-1.71,3-1.68-2.89Zm-2,.77-4.92-4.75L28,27.57Zm26.78,4.3,5.49-3.3v9h0v8.76L53.1,44.19V33l.07,0Zm50.05,0v11l-.08,0,0,0-5.35,3.61h0l-.11-.06V38.33h0V29.58l5.45,3.23,0,0ZM127.27,31l.58,1-3.56,6.19-2.92-2.93a7.46,7.46,0,0,1,5.91-4.17Zm.86-3.23,1.62.93-1.72,3-1.68-2.89Zm-2,.77-4.92-4.75,6.58,3.79ZM153,32.83l5.49-3.3v9h0v8.76l-5.51-3.06V33l.07,0Zm50.05,0v11l-.09,0,0,0-5.34,3.61h0l-.11-.06V38.33h0V29.58l5.45,3.23v0ZM227.1,31l.58,1-3.55,6.19-2.93-2.93a7.46,7.46,0,0,1,5.91-4.17Zm.87-3.23,1.61.93-1.71,3-1.68-2.89Zm-2,.77-4.92-4.75,6.57,3.79ZM220.36,236.4l-5.79-1.92v-3.34l9,5.26Zm3.21.31-9,5.15v-3.27l5.79-1.88Zm-49.13-25,3.51-6.1,3.57,6.14L178,217.92l-3.55-6.1,0,0ZM153,217.31l-5.35,3.61h0l-.12-.06v-9.18h0v-8.75l5.45,3.23,0,0,.07,0v11l-.09,0ZM120.53,236.4l-5.79-1.92v-3.34l9,5.26Zm3.2.31-9,5.15v-3.27l5.79-1.88Zm-49.13-25,3.52-6.11,3.56,6.15-3.53,6.12-3.54-6.1,0,0Zm-21.42,5.55-5.35,3.61h0l-.11-.06v-9.18h0v-8.75l5.45,3.23,0,0,.07,0v11l-.08,0Zm-33-9.46L9.51,202.74l10.69-.23v5.18h0Zm0-49.53L9.51,153.21,20.2,153v5.18h0Zm0-49.52L9.51,103.69l1.45,0,9.24-.19v5.17h0Zm0-49.53L9.51,54.16l1.45,0,9.24-.2V59.1h0Zm33-1.64v11l-.08,0,0,0-5.35,3.61h0l-.11,0V63.1h0V54.34l5.45,3.23,0,0Zm49.79,0,5.49-3.3v9h0V72L103,69V57.73l.07,0Zm50.05,0v11l-.09,0,0,0-5.35,3.61h0l-.12,0V63.1h0V54.34L153,57.57l0,0Zm49.78,0,5.5-3.3v9h0V72L202.85,69V57.73l.08,0ZM227.8,49.1l-1.61-.93,1.72-3,1.67,2.88Zm2-.77,4.95,4.77-6.6-3.81Zm-2.49,15a10.67,10.67,0,0,0-7.08,3.27l0-6.63a10.7,10.7,0,0,0,7.09,3.26v0S227.28,63.26,227.28,63.29Zm2.3,14.93-1.71,3-1.68-2.89,1.78-1Zm-1.3-1.12,6.33-3.65L229.77,78Zm-.48,21.53-1.61-.93,1.72-3,1.67,2.89Zm2-.77,4.95,4.77-6.6-3.81Zm-2.49,15a10.67,10.67,0,0,0-7.08,3.27l0-6.64a10.67,10.67,0,0,0,7.09,3.27v0S227.28,112.79,227.28,112.82Zm2.3,14.93-1.71,3-1.68-2.89,1.78-1Zm-1.3-1.12,6.33-3.65-4.84,4.51Zm-.48,21.53-1.61-.93,1.72-3,1.67,2.88Zm2-.77,4.95,4.77-6.6-3.82Zm-2.49,15a10.62,10.62,0,0,0-7.08,3.27l0-6.64a10.67,10.67,0,0,0,7.09,3.27h0S227.28,162.32,227.28,162.35Zm2.3,14.92-1.71,3-1.68-2.89,1.78-1Zm-1.3-1.11,6.33-3.65L229.77,177Zm-.48,21.53-1.61-.93,1.72-3,1.67,2.88Zm2-.77,4.95,4.76-6.6-3.81Zm-2.49,15a10.68,10.68,0,0,0-7.08,3.28l0-6.64a10.61,10.61,0,0,0,7.09,3.26v0S227.28,211.85,227.28,211.87Zm-1.43,15.07,1.13,2a7.76,7.76,0,0,0-6,4.23L216.81,229l3.29-7.56Zm-4.77-5.05,6.57,3.8-1.65.95Zm-12.41-10v-9l11.2,5.35,0,7.06-11.21,5.36v-8.78Zm-5.74-19.29-5.34,3.61h0l-.11-.05v-9.18h0v-8.76l5.45,3.24v0l.07,0v11l-.09,0Zm-94.09,19.29v-9L120,208.2l0,7.06-11.2,5.36v-8.78Zm-5.74-19.29-5.35,3.61h0l-.11-.05v-9.18h0v-8.76l5.45,3.24,0,0,.07,0v11l-.08,0ZM20.53,221V215.6a10.35,10.35,0,0,1,7.2-3.42.7.7,0,0,0,.58.33.69.69,0,0,0,.58-.32,10.36,10.36,0,0,1,7,3.36v5.57l-7.6,4.39ZM28,225.69l-1.65,1-4.92-4.76ZM24.69,187l3.51-6.11L31.77,187l-3.53,6.12-3.55-6.1,0,0Zm0-49.53,3.51-6.11,3.57,6.15-3.53,6.11-3.55-6.1,0,0Zm0-49.53,3.51-6.11L31.77,88,28.24,94.1,24.69,88l0,0Zm28.42-5.59,5.49-3.29v9h0v8.76L53.1,93.72V82.49l.07,0ZM78.05,24.7l7.78,4.5v5.59a10.34,10.34,0,0,1-7,3.35.71.71,0,0,0-.64-.41.73.73,0,0,0-.65.41,10.31,10.31,0,0,1-7.14-3.44h0V29.1Zm-6.67,3.49,4.86-4.53,1.49.86Zm7-3.67L80,23.57l5,4.76ZM91.55,57.39l-2.13-1.5,7.31-7.3Zm.21.38h10.09L91.76,61Zm11.4,24.63v11l-.08,0,0,0L97.75,97.1h0l-.11,0V87.86h0V79.11l5.45,3.23,0,0ZM153,82.35l5.49-3.29v9h0v8.76l-5.51-3.06V82.49l.07,0ZM177.88,24.7l7.78,4.5v5.59a10.34,10.34,0,0,1-7,3.35.73.73,0,0,0-.65-.41.71.71,0,0,0-.64.41,10.32,10.32,0,0,1-7.15-3.44h0V29.1Zm-6.67,3.49,4.87-4.53,1.49.86Zm7-3.67,1.66-.95,4.94,4.76Zm13.19,32.87-2.14-1.5,7.31-7.3Zm.2.38h10.1L191.59,61ZM203,82.4v11l-.09,0,0,0-5.34,3.61h0l-.11,0V87.86h0V79.11l5.45,3.23v0Zm16.82-28.79-8.39.18-2.53.06,8-8ZM214.72,44l8.49-4.85L217,45.4Zm5.15,15.25-10.69-5.11,1.54,0,9.15-.19V59.1h0Zm0,.35,0,7.05L208.68,72V63.25h0v-9Zm7.23,20.9.58,1-3.55,6.19-2.93-2.93a7.46,7.46,0,0,1,5.91-4.17Zm0,49.53.58,1-3.55,6.19-2.93-2.94a7.45,7.45,0,0,1,5.91-4.16Zm0,49.53.58,1-3.55,6.19-2.93-2.94a7.45,7.45,0,0,1,5.91-4.16Zm-7.23,28.27-10.69-5.11,10.69-.23v5.18h0Zm-8.44-5.47-2.53.05,8-8,2.91,7.73Zm3-9.57,2.26,1.4-7.45,7.41Zm-.2-.37H204.14l10.12-3.28Zm-44,3.82v-5.42a10.39,10.39,0,0,1,7.2-3.42.69.69,0,0,0,1.16,0,10.32,10.32,0,0,1,7,3.36v5.57l-7.6,4.38Zm7.44,4.66-1.65,1-4.92-4.75Zm-19-13.84v-9l11.2,5.35,0,7.06-11.2,5.35v-8.77ZM153,167.78l-5.35,3.61h0l-.12-.06v-9.18h0V153.4l5.45,3.23,0,0,.07,0v11l-.09,0Zm-25.57,44.09a10.66,10.66,0,0,0-7.08,3.28l0-6.64a10.61,10.61,0,0,0,7.08,3.26v0A.19.19,0,0,0,127.45,211.87Zm-7.09-3.82h0v-5.59l7.62-4.39,7.77,4.49v5.58a10.31,10.31,0,0,1-7,3.36.72.72,0,0,0-.64-.41.71.71,0,0,0-.65.41A10.31,10.31,0,0,1,120.36,208.05Zm-.33-.2-10.69-5.11,10.7-.23v5.18h0Zm-5.41-15,2.26,1.4-7.44,7.41Zm-.2-.37H104.3l10.12-3.28Zm-44,3.82v-5.42a10.39,10.39,0,0,1,7.21-3.42.68.68,0,0,0,.58.32.72.72,0,0,0,.58-.31,10.34,10.34,0,0,1,7,3.36v5.57l-7.6,4.38Zm7.45,4.66-1.66,1-4.92-4.75Zm-19-13.84v-9l11.2,5.35v7.06l-11.2,5.35v-8.77Zm-5.74-19.3-5.34,3.61h0l-.11-.06v-9.18h0V153.4l5.45,3.23,0,0,.07,0v11l-.08,0ZM30.25,196.62l-1.12-1.93a7.75,7.75,0,0,0,6-4.26l3.7,3.71-2.83,8Zm4.8,5.06-6.6-3.81,1.65-1Zm-4.8-24.36L36,172l3.08,7.74-4,3.95a7.73,7.73,0,0,0-6-4.26Zm-.15-.3-1.49-.86,6.33-3.65Zm.15-29.93-1.12-1.93a7.75,7.75,0,0,0,6-4.26l3.7,3.71-2.83,8Zm4.8,5.07-6.6-3.82,1.65-1Zm-4.8-24.37L36,122.43l3.08,7.74-4,3.94a7.73,7.73,0,0,0-6-4.26Zm-.15-.3-1.49-.86L34.94,123Zm.15-29.93-1.12-1.93a7.75,7.75,0,0,0,6-4.26l3.7,3.71-2.83,8Zm4.8,5.07-6.6-3.81,1.65-1Zm-4.8-24.37L36,72.9l3.08,7.74-4,3.94a7.73,7.73,0,0,0-6-4.26ZM30.1,78l-1.49-.86,6.33-3.65Zm11.54,4.19-2.14-1.5,7.31-7.29Zm.2.38H51.93L41.84,85.76Zm11.4,24.63v11l-.08,0,0,.05-5.35,3.61h0l-.11-.06v-9.17h0v-8.76l5.45,3.23,0,0ZM71.45,60a7.45,7.45,0,0,1,5.91-4.16v-.1l.58,1L74.37,63Zm2,2.45-8.51-5,1.94-1.63Zm4.78-9.94,1.61.93-1.72,3-1.68-2.89Zm-2,.77-4.92-4.75,6.58,3.8Zm2.29-.95,6.32-3.65L80,53.2ZM81.94,62.9l0,0L78.3,56.75l.52-.9a7.4,7.4,0,0,1,6,4.2Zm3.17-2.71,4.08-4.07,2.12,1.48L83,62.32ZM103,107.12l5.49-3.3v9h0v8.76L103,118.49V107.26l.07,0ZM128,49.47,135.74,54v5.58a10.34,10.34,0,0,1-7,3.32.7.7,0,0,0-1.26,0,10.39,10.39,0,0,1-7.14-3.44h0v-5.6ZM121.3,53l4.86-4.53,1.49.86Zm13.58.14-6.6-3.81,1.66-1Zm-5.92-7a7.72,7.72,0,0,0,6-4.26l3.71,3.72-2.84,8L130.09,48Zm12.51,36.05-2.13-1.5,7.3-7.29Zm.21.38h10.09l-10.09,3.23Zm11.4,24.63v11l-.09,0,0,.05-5.35,3.61h0l-.12-.06v-9.17h0v-8.76L153,107.1l0,0ZM171.28,60a7.47,7.47,0,0,1,5.92-4.16v-.1l.58,1L174.21,63Zm2,2.45-8.51-5,1.94-1.63Zm4.77-9.94,1.61.93-1.71,3-1.68-2.89Zm-2,.77-4.92-4.75,6.57,3.8Zm2.29-.95,6.32-3.65-4.83,4.51Zm3.41,10.56-.06,0-3.59-6.19.52-.9a7.41,7.41,0,0,1,6,4.2Zm3.16-2.71L189,56.12l2.11,1.48-8.33,4.72Zm17.92,46.93,5.5-3.3v9h0v8.76l-5.52-3.05V107.26l.08,0Zm11.71-24.56,9,5.25h-3.22l-5.79-1.92Zm-.11-.52-5.17-8.77,7.11,7.13Zm9.11,6.09-9,5.14V90l5.79-1.87Zm-9.31,5.25H204.14l10.12-3.28Zm.2.37,2.26,1.4-7.45,7.41Zm-.33,0-5.61,9.52-1.84-3.42-3.28-6.1Zm5.71,43.8-16.53,5.35V132ZM204.13,132h10.13v3.35Zm10.13,7.66v3.28H204.14Zm-.13,3.6-5.61,9.52-1.84-3.42-3.28-6.1Zm.33.05,2.26,1.4-7.45,7.41Zm.11-3.75,5.79-1.88h3.21l-9,5.14Zm5.79-2.19-5.79-1.92v-3.34l9,5.26Zm-5.9-5.77-5.17-8.77,7.11,7.13Zm-.32.08H203.42l5.11-9.52Zm-5.83-9.78-5.22,9.72-5.52-3.28,5.13-9.55ZM202.93,143l-5.34,3.61h0l-.11-.05v-9.18h0v-8.75l5.45,3.23v0l.07,0v11l-.09,0Zm-26.66,29,1.72-3,1.67,2.88-1.78,1Zm1.3,1.12-6.36,3.67,4.87-4.53Zm-7.62,10L159.26,178l1.54,0,9.16-.2v5.18h0Zm-6.84-5.51-4.12.09,8-8,2.91,7.73Zm1.43-9.53,2.26,1.4-7.45,7.41Zm-.2-.37H154.22l10.12-3.28ZM153,131.88l5.49-3.29v9h0v8.76l-5.51-3.06V132l.07,0ZM170,84l-10.69-5.11,10.7-.23v5.18h0Zm4.49-20.85L178,57.07l3.57,6.14L178,69.33l-3.55-6.1,0,0ZM178,70l1.67,2.88-1.78,1-1.61-.93Zm13.4,37-2.14-1.49,7.31-7.3Zm.2.39h10.1l-10.1,3.23Zm-7,58.13a7.43,7.43,0,0,1-5.93,4.2l-.54-.93,3.56-6.17h0Zm-1.84-2.29,8.31,4.78-2.32,1.22Zm-8.36-.9,3.51-6.11,3.57,6.14L178,168.39l-3.55-6.1,0,0Zm-15.69-24.69v-9l11.2,5.35,0,7.06-11.2,5.35v-8.77Zm18.62-49.5a10.7,10.7,0,0,0-7.09,3.28V84.69A10.59,10.59,0,0,0,177.35,88v0A.24.24,0,0,0,177.37,88.05ZM179.66,103,178,106l-1.68-2.89,1.78-1Zm-1.29-1.11,6.32-3.65-4.83,4.51Zm3.41,10.56-.06,0-3.59-6.18.52-.9a7.41,7.41,0,0,1,6,4.2Zm3.16-2.71,4.09-4.07,2.11,1.48-8.33,4.71Zm-15,23.84-10.69-5.11,1.54,0,9.16-.2v5.18h0Zm4.49-20.85L178,106.6l3.57,6.14L178,118.86l-3.55-6.1,0,0Zm3.55,6.78,1.67,2.88-1.78,1-1.61-.93Zm1.87,3.13,4.94,4.77-6.6-3.81Zm-2.29,1-6.36,3.67,4.87-4.53Zm-1.64-1.16-5.74,5.35-2.95-7.84,3.8-3.78a7.72,7.72,0,0,0,6.06,4.25Zm-5.75,24.67,5.75,5.55,1.14,2a7.74,7.74,0,0,0-6,4.23l-4.16-4.18Zm7.19-9.51a10.7,10.7,0,0,0-7.09,3.28v-6.64a10.63,10.63,0,0,0,7.08,3.26v0A.24.24,0,0,0,177.37,137.58Zm-6.21,10,6.57,3.8-1.65.95Zm5.11,5,1.78-1,1.61.93-1.71,3Zm2.09-1.21,6.33-3.66-4.83,4.52Zm1.64,1.15,5.74-5.36,3.08,7.74-3.95,3.95a7.76,7.76,0,0,0-6.05-4.27Zm5.65-5.72-7.6,4.38-7.76-4.48v-5.42a10.39,10.39,0,0,1,7.2-3.42.69.69,0,0,0,1.16,0,10.32,10.32,0,0,1,7,3.36Zm-7.59-10.05a.72.72,0,0,0-.64.42,10.36,10.36,0,0,1-7.15-3.44h0v-5.59l7.61-4.4,7.78,4.49v5.59a10.38,10.38,0,0,1-7,3.36A.72.72,0,0,0,178.06,136.78ZM180,122.33l-1.12-1.93a7.77,7.77,0,0,0,6-4.26l3.71,3.71-2.84,8Zm6,5.67,2.79-7.9,8.13,8.14Zm10.64.55L186,133.66v-5.34l8.28.17Zm-7.88-8.94-6-6,8.31,4.78Zm-4.15-3.71a7.43,7.43,0,0,1-5.93,4.2l-.54-.93,3.56-6.17h0Zm-8.56-13.08-4.92-4.75,6.57,3.8Zm-.15.3,1.14,2a7.76,7.76,0,0,0-6,4.23l-4.16-4.18,3.29-7.57ZM173.28,112l-8.51-5,1.94-1.63Zm-2-2.45a7.47,7.47,0,0,1,5.92-4.16v-.1l.58,1-3.56,6.2Zm2.93,3.45,3.6,6.18-.55.94a7.43,7.43,0,0,1-6-4.2Zm-7.18,6.7-2.22-1.38,8.48-4.85Zm2.87,8.21-6.79.15-4.12.09,8-8Zm.07,18.76-9.24-.2-1.46,0L170,141.32Zm-9.9.1,9.82.21-3.23,7.46L159,146.74Zm6.64,8.16,6.57,6.6-8.51-5Zm4.57,4.15a7.48,7.48,0,0,1,5.92-4.17v-.09l.58,1L174.21,162ZM181.72,162l-3.59-6.18.52-.91a7.44,7.44,0,0,1,6,4.21L181.78,162Zm3.22-2.74,4.09-4.08,2.11,1.49-8.33,4.71Zm1.1-12.18,4.15-.09,6.74-.15-7.86,7.86Zm-.08-.31v-5.34l10.69,5.11Zm-.11-5.75a10.7,10.7,0,0,0-7.09-3.42.24.24,0,0,0,0-.08,10.7,10.7,0,0,0,7.14-3.47l11.26-5.39v8.64h0v9.13Zm5.88-22.45h10.72l-5.12,9.52Zm-.14-.32v-3.4l10.15,3.4Zm5,9.17L189,119.85l2.37-1.24Zm-5.29-9.28-9.12-5.25,3.33-.08,5.79,1.94Zm-5.79-5.65-3.31.09,9.1-5.16v3.22Zm3.58-7.32-3-7.62,7.87-.17,3-.06Zm5.25-8.11-8.36.18V91.89L196.66,97Zm-5.5,8.35-3.95,3.95a7.76,7.76,0,0,0-6.05-4.27L180,103l5.74-5.36Zm-3.17-8.1-7.6,4.38-7.76-4.48V91.78a10.39,10.39,0,0,1,7.2-3.42.72.72,0,0,0,.58.33.69.69,0,0,0,.58-.32,10.32,10.32,0,0,1,7,3.36Zm-7.59-10a.72.72,0,0,0-.64.42,10.36,10.36,0,0,1-7.15-3.44h0V78.63l7.61-4.4,7.78,4.49v5.59a10.33,10.33,0,0,1-7,3.36A.72.72,0,0,0,178.06,87.25Zm-6.85-9.53,4.87-4.53,1.49.86Zm7-3.67,1.66-1,4.94,4.76ZM180,72.8l-1.12-1.93a7.77,7.77,0,0,0,6-4.26l3.7,3.71-2.83,8Zm-4.07.1-5.74,5.34-2.95-7.84,3.8-3.78a7.75,7.75,0,0,0,6.06,4.26ZM160.07,97.23l9.82.22-3.23,7.45L159,97.21Zm-.8-.33L170,91.79v5.34L161.83,97Zm7.21,8.27-1.94,1.63L159.38,98Zm-1.83,2.15,9,5.26h-3.21l-5.8-1.92Zm9,5.57-9,5.14v-3.26l5.79-1.88Zm-6.85,7-7.45,7.41,5.19-8.81Zm-2.46-1.77H154.22l10.12-3.28Zm-.13.31L158.6,128l-5.11-9.53Zm-5.59,28.43,5.6,9.53H153.5Zm5.72,9.84v3.35l-10.13-3.35Zm-5-9.16,7.1,7.13-1.94,1.63Zm5.27,9.28,9,5.25h-3.22l-5.79-1.91Zm9,5.57-9,5.14V164.3l5.79-1.88Zm-8.84,5.42,8.48-4.85L167,169.22Zm9.4-5.32,3.6,6.18-.55.94a7.43,7.43,0,0,1-6-4.2Zm5.65,9.63,4.94,4.77-6.6-3.81Zm.14-.29-1.12-1.94a7.75,7.75,0,0,0,6-4.26l3.71,3.72-2.84,8Zm6,5.67,2.79-7.91,8.13,8.15Zm10.64.54L186,183.18v-5.34l8,.18ZM189,169.38l2.37-1.25,5.18,8.81Zm2.26-1.72-9.12-5.25,3.33-.09,5.79,1.94ZM185.49,162l-3.31.08,9.1-5.15v3.22Zm3.76-7.06,7.31-7.3-5.17,8.79Zm2.34,1.88h10.1l-10.1,3.23Zm.12-.32,5.52-9.37.05.08.12-.08,5,9.37Zm10.83-38.33L186,112.64l16.52-5.28ZM191.71,107l5.52-9.37.05.08.12-.08,5,9.37Zm5.47-19.21h0v9.12l-11.32-5.41a10.7,10.7,0,0,0-7.09-3.42.24.24,0,0,0,0-.08,10.7,10.7,0,0,0,7.14-3.47l11.26-5.39Zm-11.2-9,9.15.19,1.54,0L186,84.13Zm.05-.32,2.79-7.9L197,78.71Zm2.76-8.39-6-6,8.31,4.78Zm-4.15-3.71a7.46,7.46,0,0,1-5.93,4.21l-.54-.94,3.56-6.17,0,0Zm-10.43-2.91,3.6,6.19-.55.93a7.42,7.42,0,0,1-6-4.19ZM167,70.16l-2.22-1.38,8.48-4.85Zm2.87,8.22-8.91.19-2,0,8-8Zm0,6,0,7.06-11.2,5.35V88h0V79Zm-5.73,22.51H153.5l5.12-9.52Zm.12.31v3.35l-10.13-3.35Zm5.58,5.54-16.53,5.35V107.26Zm-11.53,15.51-5.59,3.35-5.06-9.4,5.43-3.67ZM134.72,190.2a7.46,7.46,0,0,1-5.93,4.2l-.54-.93,3.57-6.17h0Zm-1.84-2.29,8.31,4.78-2.32,1.22ZM128,197.69l-1.62-.93,1.72-3,1.68,2.88Zm2-.77,4.94,4.76-6.6-3.81Zm-2.29,1-6.35,3.67,4.86-4.53Zm-3.36-10.59,3.6,6.19-.54.93a7.42,7.42,0,0,1-6-4.19Zm-7.18,6.7-2.22-1.38,8.48-4.85Zm-8.27-31.67v-9L120,158.67l0,7.06-11.2,5.36v-8.78Zm12.53-77.53a7.46,7.46,0,0,1,5.91-4.17v-.09l.58,1-3.56,6.19Zm2,2.44-8.51-5,1.94-1.63Zm4.77-9.94,1.62.94-1.72,3-1.68-2.89Zm-2,.78-4.92-4.75,6.58,3.79Zm2.29-1,6.32-3.65L129.94,78Zm3.41,10.57-.05,0-3.6-6.18.53-.91a7.44,7.44,0,0,1,6,4.21ZM135,85l4.09-4.08,2.11,1.48-8.32,4.72Zm-10.5,102,3.51-6.11L131.6,187l-3.53,6.12-3.55-6.1,0,0Zm3.51-6.74-1.68-2.89,1.78-1,1.62.93Zm-8-21.94-10.69-5.11L120,153v5.18h0Zm-5.41-15,2.26,1.4-7.44,7.41Zm-.2-.37H104.3l10.12-3.28ZM120,108.8l-10.69-5.11,1.54,0,9.16-.19v5.17h0Zm4.49-20.86L128,81.83,131.6,88l-3.53,6.12L124.52,88l0,0Zm3.55,6.78,1.68,2.89-1.78,1-1.62-.93Zm6.65,45.95a7.44,7.44,0,0,1-5.93,4.2l-.54-.93,3.57-6.17h0Zm-1.84-2.29,8.31,4.78-2.32,1.22ZM128,148.16l-1.62-.93,1.72-3,1.68,2.88Zm2-.77,4.94,4.77-6.6-3.82Zm-2.29,1L121.3,152l4.86-4.53Zm-3.36-10.59,3.6,6.19-.54.94a7.45,7.45,0,0,1-6-4.2Zm-7.18,6.7-2.22-1.37,8.48-4.86Zm10.34-31.63a10.64,10.64,0,0,0-7.08,3.27l0-6.64a10.67,10.67,0,0,0,7.08,3.27v0A.31.31,0,0,0,127.45,112.82Zm2.3,14.93-1.72,3-1.68-2.89,1.78-1Zm-1.3-1.12,6.32-3.65-4.83,4.51Zm-3.93,10.84,3.51-6.11,3.57,6.15-3.53,6.11-3.55-6.1,0,0Zm1.64-9.88-4.92-4.76,6.58,3.8Zm-.15.29,1.14,2a7.77,7.77,0,0,0-6,4.23L117,129.9l3.29-7.57Zm-2.65,8.87-8.51-5,1.94-1.63Zm-2-2.45a7.45,7.45,0,0,1,5.91-4.16v-.09l.58,1-3.56,6.19Zm10.44,2.93-3.6-6.18.53-.91a7.44,7.44,0,0,1,6,4.2l-2.86,2.86Zm3.21-2.74,4.09-4.08,2.11,1.48-8.32,4.72Zm1.1-12.18,8.67-.19,2.23-.05-7.87,7.85Zm7.93-.49-8,.17v-5.34l10.69,5.11Zm-5.14,8.35-4,3.94a7.73,7.73,0,0,0-6-4.26l1.19-2.06,5.74-5.36Zm-3.18-8.11-7.6,4.39L120.37,122v-5.42a10.3,10.3,0,0,1,7.2-3.42.69.69,0,0,0,1.17,0,10.37,10.37,0,0,1,7,3.37Zm-7.58-10a.71.71,0,0,0-.65.42,10.36,10.36,0,0,1-7.14-3.45h0v-5.6L128,99l7.77,4.49v5.59a10.34,10.34,0,0,1-7,3.35A.72.72,0,0,0,128.15,112Zm-6.85-9.54L126.16,98l1.49.87Zm7-3.66,1.66-1,4.94,4.77Zm1.81-1.26L129,95.63a7.72,7.72,0,0,0,6-4.26l3.71,3.71-2.84,8Zm-4.08.1L120.27,103l-3-7.85,3.8-3.78a7.74,7.74,0,0,0,6.06,4.26ZM109.51,122l10.46.23-3.22,7.46-7.67-7.7Zm-.15-.31,10.69-5.11v5.34Zm7.21,8.26-1.95,1.64-5.16-8.77Zm-1.83,2.15,9,5.26h-3.21l-5.79-1.92Zm9,5.58-9,5.14v-3.27l5.79-1.88Zm-6.66,7.28,2.91,7.73-8.8.19-2.11,0Zm.25-.25,3.8-3.78a7.74,7.74,0,0,0,6.06,4.26l-1.17,2-5.74,5.35Zm2.94,27.17,5.75,5.55,1.14,2a7.75,7.75,0,0,0-6,4.23L117,179.42Zm7.19-9.51a10.6,10.6,0,0,0-7.08,3.27l0-6.64a10.67,10.67,0,0,0,7.08,3.27h0A.29.29,0,0,0,127.45,162.35Zm-6.21,10,6.58,3.8-1.66,1Zm7.21,3.8,6.32-3.65L129.94,177Zm1.64,1.16,5.74-5.37,3.08,7.74-4,3.95a7.73,7.73,0,0,0-6-4.26Zm5.64-5.73-7.6,4.39-7.76-4.49v-5.41a10.36,10.36,0,0,1,7.2-3.43.7.7,0,0,0,.59.33.71.71,0,0,0,.58-.32,10.41,10.41,0,0,1,7,3.36Zm-7.58-10a.71.71,0,0,0-.65.42,10.36,10.36,0,0,1-7.14-3.45h0v-5.59l7.62-4.39,7.77,4.49v5.59a10.34,10.34,0,0,1-7,3.35A.72.72,0,0,0,128.15,161.55Zm1.94-14.46L129,145.16a7.72,7.72,0,0,0,6-4.26l3.71,3.71-2.84,8Zm6,5.67,2.79-7.9L147,153Zm10.64.55-10.68,5.11v-5.34Zm-7.65-8.7,2.37-1.24,5.18,8.81Zm2.26-1.72-9.12-5.24,3.33-.09,5.79,1.94Zm-5.79-5.65-3.3.09,9.09-5.15v3.21Zm3.77-7.06,7.3-7.29-5.17,8.79Zm2.34,1.88h10.09l-10.09,3.23Zm.11-.31,5.52-9.37.05.07.12-.08,5,9.38Zm5.47-19.22h0v9.12l-11.32-5.41a10.66,10.66,0,0,0-7.09-3.42.19.19,0,0,0,0-.08,10.68,10.68,0,0,0,7.14-3.47l11.26-5.38Zm-11.2-9,10.69.23-10.68,5.11Zm.05-.31,2.79-7.91,8.13,8.14Zm2.76-8.39-6-6,8.31,4.78Zm-4.15-3.71a7.42,7.42,0,0,1-5.93,4.2l-.54-.93,3.57-6.17h0Zm-10.43-2.92,3.6,6.19-.54.94a7.43,7.43,0,0,1-6-4.2Zm-7.18,6.71-2.22-1.38,8.48-4.85Zm2.87,8.21-8.39.18-2.52.06,8-8Zm0,6,0,7-11.2,5.36v-8.78h0v-9Zm-5.73,22.5H103.58l5.12-9.52Zm.12.32v3.35L104.3,132ZM120,137.5l-16.53,5.35V132Zm-5.72,5.73-5.61,9.52-1.83-3.42-3.28-6.1Zm5.76,28.2-10.69-.24,10.69-5.11Zm-9.9.1,9.82.21-3.22,7.46-7.67-7.7Zm6.64,8.16,6.57,6.59-8.51-5Zm4.58,4.14a7.45,7.45,0,0,1,5.91-4.16v-.09l.58,1-3.56,6.19Zm10.44,2.93-3.6-6.19.53-.9a7.41,7.41,0,0,1,6,4.2l-2.86,2.85ZM135,184l4.09-4.07,2.11,1.48-8.32,4.72Zm1.1-12.18,9.11-.19,1.79,0-7.87,7.85Zm-.07-.31v-5.34l10.69,5.11-2.41.05Zm-.12-5.75a10.68,10.68,0,0,0-7.09-3.42.24.24,0,0,0,0-.08A10.68,10.68,0,0,0,136,158.8l11.26-5.38v8.64h0v9.12Zm5.88-22.45h10.72l-5.12,9.53Zm-.13-.31v-3.4l10.15,3.4Zm-5.58-5.61,16.52-5.28v10.82Zm11.31-34.08-5.6-9.52h10.72Zm-5.73-9.84v-3.4l10.15,3.4Zm5,9.17-7.55-7.57,2.37-1.24Zm-5.29-9.29-9.12-5.24,3.33-.09L141.36,90Zm-5.79-5.64-3.3.08,9.09-5.15v3.21Zm3.58-7.33-3-7.61,8.67-.19,2.23,0Zm4.9-8.1-8,.17V67.12l10.69,5.11Zm-5.14,8.35-4,3.94a7.73,7.73,0,0,0-6-4.26l1.19-2.06,5.74-5.36Zm-3.18-8.11-7.6,4.39-7.76-4.48V67a10.3,10.3,0,0,1,7.2-3.42.69.69,0,0,0,1.17,0,10.37,10.37,0,0,1,7,3.37Zm-8.28-9.24a10.69,10.69,0,0,0-7.08,3.27l0-6.63a10.7,10.7,0,0,0,7.08,3.26v0A.24.24,0,0,0,127.45,63.29ZM126,78.35l1.14,2a7.77,7.77,0,0,0-6,4.23L117,80.37l3.29-7.57Zm-15-5.86,8.93.19-3.22,7.46-7.67-7.69Zm-1.68-.35L120.05,67v5.34l-9.24-.2Zm7.21,8.26L114.62,82l-5.16-8.77Zm-1.83,2.16,9,5.25h-3.21l-5.79-1.92Zm9,5.57-9,5.14V90l5.79-1.87Zm-6.85,7-7.44,7.41,5.18-8.81Zm-2.46-1.77H104.3l10.12-3.28Zm-.13.32-5.61,9.52-1.83-3.42-3.28-6.1Zm-5.81,28.17-5.22,9.72-5.53-3.28,5.13-9.55ZM103.1,143l-5.35,3.61h0l-.11-.05v-9.18h0v-8.75l5.45,3.23,0,0,.07,0v11l-.08,0ZM76.43,172l1.72-3,1.68,2.88-1.78,1Zm1.3,1.12-6.35,3.67,4.86-4.53Zm-7.62,10L59.43,178,61,178l9.16-.2v5.18h0Zm-6.84-5.51-4.12.09,8-8,2.91,7.73Zm1.44-9.53,2.26,1.4-7.45,7.41Zm-.21-.37H54.39L64.5,164.4Zm-11.39-35.8,5.49-3.29v9h0v8.76l-5.52-3.06V132l.07,0ZM70.11,84,59.43,78.92l10.69-.23v5.18h0Zm4.5-20.85,3.51-6.11,3.56,6.14-3.53,6.12-3.54-6.1,0,0ZM78.15,70l1.68,2.88-1.78,1-1.62-.93Zm13.4,37-2.13-1.49,7.31-7.3Zm.21.39h10.09l-10.09,3.23Zm-7,58.13a7.42,7.42,0,0,1-5.92,4.2l-.54-.93,3.56-6.17h0ZM83,163.14l8.3,4.78L89,169.14Zm-8.36-.9,3.51-6.11,3.56,6.14-3.53,6.12-3.54-6.1,0,0ZM58.92,137.55v-9l11.2,5.35V141l-11.2,5.35v-8.77Zm18.61-49.5a10.66,10.66,0,0,0-7.08,3.28l0-6.64A10.66,10.66,0,0,0,77.52,88s0,0,0,0S77.53,88,77.53,88.05ZM79.83,103l-1.72,3-1.68-2.89,1.79-1Zm-1.3-1.11,6.32-3.65L80,102.73ZM82,112.43l-.06,0-3.59-6.18.52-.9a7.4,7.4,0,0,1,6,4.2Zm3.16-2.71,4.08-4.07,2.12,1.48L83,111.85Zm-15,23.84-10.68-5.11,1.53,0,9.16-.2v5.18h0Zm4.5-20.85,3.51-6.11,3.56,6.14-3.53,6.12-3.54-6.1,0,0Zm3.54,6.78,1.68,2.88-1.78,1-1.62-.93ZM80,122.62l5,4.77-6.61-3.81Zm-2.29,1-6.35,3.67,4.86-4.53Zm-1.64-1.16-5.74,5.35-2.95-7.84,3.8-3.78a7.73,7.73,0,0,0,6.06,4.25Zm-5.74,24.67,5.74,5.56,1.14,2a7.74,7.74,0,0,0-6,4.23l-4.16-4.18Zm7.18-9.51a10.66,10.66,0,0,0-7.08,3.28l0-6.64a10.66,10.66,0,0,0,7.09,3.26s0,0,0,0S77.53,137.55,77.53,137.58Zm-6.21,10,6.58,3.8-1.66.95Zm5.11,5,1.79-1,1.61.93-1.72,3Zm2.1-1.21,6.32-3.66L80,152.26Zm1.64,1.15,5.74-5.36L89,154.93l-4,3.95a7.73,7.73,0,0,0-6-4.27Zm5.64-5.72-7.6,4.38-7.76-4.48v-5.42a10.39,10.39,0,0,1,7.21-3.42.68.68,0,0,0,.58.32.72.72,0,0,0,.58-.31,10.34,10.34,0,0,1,7,3.36Zm-7.58-10.05a.73.73,0,0,0-.65.42,10.35,10.35,0,0,1-7.14-3.44h0v-5.59l7.61-4.4,7.78,4.49v5.59a10.35,10.35,0,0,1-7,3.36A.7.7,0,0,0,78.23,136.78Zm1.94-14.45-1.12-1.93a7.74,7.74,0,0,0,6-4.26l3.71,3.71-2.83,8Zm6,5.67,2.8-7.9,8.12,8.14Zm10.65.55-10.69,5.11v-5.34l8.29.17ZM89,119.61l-6-6,8.3,4.78ZM84.8,115.9a7.42,7.42,0,0,1-5.92,4.2l-.54-.93L81.9,113h0Zm-8.56-13.08-4.92-4.75,6.58,3.8Zm-.15.3,1.14,2a7.76,7.76,0,0,0-6,4.23l-4.16-4.18,3.29-7.57ZM73.44,112l-8.51-5,1.94-1.63Zm-2-2.45a7.45,7.45,0,0,1,5.91-4.16v-.1l.58,1-3.56,6.2ZM74.37,113l3.6,6.18-.54.94a7.43,7.43,0,0,1-6-4.2Zm-7.17,6.7L65,118.31l8.48-4.85Zm2.87,8.21-6.8.15-4.12.09,8-8Zm.06,18.76-9.24-.2-1.45,0,10.69-5.11Zm-9.8.1,9.72.21-3.22,7.46-7.67-7.69Zm6.54,8.16,6.57,6.59-8.51-5Zm4.58,4.15a7.46,7.46,0,0,1,5.91-4.17v-.09l.58,1L74.37,162ZM81.89,162l-3.59-6.18.52-.91a7.43,7.43,0,0,1,6,4.21L82,162Zm3.22-2.74,4.08-4.08,2.12,1.49L83,161.37Zm1.09-12.18,4.16-.09,6.74-.15-7.87,7.86Zm-.07-.31v-5.34l10.68,5.11ZM86,141a10.66,10.66,0,0,0-7.08-3.42s0-.05,0-.08A10.66,10.66,0,0,0,86.08,134l11.26-5.39v8.64h0v9.13Zm5.88-22.45h10.72l-5.11,9.52Zm-.13-.32v-3.4l10.15,3.4Zm5,9.17-7.55-7.56,2.36-1.24Zm-5.3-9.28-9.12-5.25,3.34-.08,5.78,1.94Zm-5.79-5.65-3.3.09,9.09-5.16v3.22Zm3.58-7.32-3-7.62,7.88-.17,3-.06Zm5.19-8.11-8.29.18V91.89L96.82,97ZM89,105.4l-4,3.95a7.73,7.73,0,0,0-6-4.27L80.17,103l5.74-5.36Zm-3.18-8.1-7.59,4.38L70.45,97.2V91.78a10.39,10.39,0,0,1,7.21-3.42.69.69,0,0,0,.58.33.71.71,0,0,0,.58-.32,10.34,10.34,0,0,1,7,3.36Zm-7.58-10a.73.73,0,0,0-.65.42,10.35,10.35,0,0,1-7.14-3.44h0V78.63l7.61-4.4,7.78,4.49v5.59a10.31,10.31,0,0,1-7,3.36A.7.7,0,0,0,78.23,87.25Zm-6.85-9.53,4.86-4.53,1.49.86Zm7-3.67,1.66-1,5,4.76Zm1.81-1.25-1.12-1.93a7.74,7.74,0,0,0,6-4.26l3.71,3.71-2.83,8Zm-4.08.1-5.74,5.34L67.4,70.4l3.8-3.78a7.76,7.76,0,0,0,6.06,4.26ZM60.33,97.24l9.72.21-3.22,7.45-7.67-7.69Zm-.89-.34,10.69-5.11v5.34L62,97Zm7.21,8.27-2,1.63L59.54,98Zm-1.83,2.15,9,5.26H70.61l-5.79-1.92Zm9,5.57-9,5.14v-3.26l5.79-1.88Zm-6.84,7-7.45,7.41,5.19-8.81Zm-2.47-1.77H54.39l10.11-3.28Zm-.13.31L58.77,128l-5.12-9.53Zm-5.59,28.43,5.61,9.53H53.66Zm5.72,9.84v3.35l-10.12-3.35Zm-5-9.16,7.11,7.13-2,1.63Zm5.28,9.28,9,5.25H70.61l-5.79-1.91Zm9,5.57-9,5.14V164.3l5.79-1.88ZM65,167.84,73.45,163l-6.25,6.23Zm9.4-5.32L78,168.7l-.54.94a7.43,7.43,0,0,1-6-4.2ZM80,172.15l5,4.77-6.61-3.81Zm.15-.29-1.12-1.94a7.72,7.72,0,0,0,6-4.26l3.71,3.72-2.83,8Zm6,5.67,2.8-7.91,8.12,8.15Zm10.65.54-10.69,5.11v-5.34l8,.18Zm-7.65-8.69,2.36-1.25,5.19,8.81Zm2.25-1.72-9.12-5.25,3.34-.09,5.78,1.94ZM85.65,162l-3.3.08,9.09-5.15v3.22ZM89.42,155l7.31-7.3-5.18,8.79Zm2.34,1.88h10.09l-10.09,3.23Zm.12-.32,5.51-9.37.06.08.11-.08,5,9.37Zm10.82-38.33-16.51-5.54,16.51-5.28ZM91.88,107l5.51-9.37.06.08.11-.08,5,9.37Zm5.46-19.21h0v9.12L86,91.48a10.66,10.66,0,0,0-7.08-3.42s0,0,0-.08a10.66,10.66,0,0,0,7.14-3.47l11.26-5.39Zm-11.2-9L95.3,79l1.54,0L86.15,84.13Zm0-.32,2.8-7.9,8.12,8.14ZM89,70.08l-6-6,8.3,4.78ZM84.8,66.37a7.45,7.45,0,0,1-5.92,4.21l-.54-.94,3.56-6.17,0,0ZM74.37,63.46,78,69.65l-.54.93a7.42,7.42,0,0,1-6-4.19Zm-7.17,6.7L65,68.78l8.48-4.85Zm2.87,8.22-8.91.19-2,0,8-8Zm.05,6v7.06l-11.2,5.35V88h0V79Zm-5.73,22.51H53.66l5.12-9.52Zm.11.31v3.35L54.38,107.2Zm5.59,5.54-16.53,5.35V107.26ZM58.55,128.25,53,131.6l-5.05-9.4,5.42-3.67ZM36.28,152.76l2.79-7.9L47.2,153Zm10.64.55-10.69,5.11v-5.34Zm-2-31.19,2.22-.05-7.87,7.85-3-7.61ZM36.21,122v-5.34l10.69,5.11-2.7.06Zm5.63,10.07H51.93l-10.09,3.23Zm-.2-.38-2.14-1.5,7.31-7.29Zm.32.07,5.52-9.37.05.07.11-.08,5,9.38Zm-.57.14-8.33,4.72,2.13-2.12,4.08-4.08Zm.14.29v3.21l-5.79,1.85-3.31.09Zm-5.79,5.38,5.79,1.94v3.39l-9.13-5.24Zm5.89,5.81,5.19,8.81-7.55-7.57Zm-.27-.21L39,144.38l-6-6Zm.61.16H52.69l-5.11,9.53Zm-.13-.31v-3.4L52,143Zm-5.57-5.61,16.52-5.28v10.82Zm11.31-34.08L42,93.8H52.69Zm-11.3-.08,2.79-7.91,8.13,8.14Zm10.64.54-10.69,5.11v-5.34ZM39,94.85l-6-6,8.31,4.78Zm2.81-1.37v-3.4L52,93.48Zm5,9.17-7.55-7.57,2.36-1.24Zm-5.29-9.29L32.4,88.12,35.74,88,41.53,90Zm-5.79-5.64-3.31.08,9.1-5.15v3.21Zm-2.68-.64L35.19,85l4.08-4.08,2.12,1.48Zm6.25-6.69-3-7.61L45,72.59l2.22,0Zm4.9-8.1-8,.17V67.12l10.69,5.11ZM34.88,84.82,32,87.67l-.06,0-3.59-6.18.52-.91A7.42,7.42,0,0,1,34.88,84.82ZM32,88.24h0l2.89,2.89A7.43,7.43,0,0,1,29,95.34l-.54-.93Zm4.18,21,11.27-5.38v8.64h0v9.12l-11.32-5.41A10.66,10.66,0,0,0,29,112.82s0,0,0-.08A10.66,10.66,0,0,0,36.16,109.27Zm-1.28,25.08L32,137.2l-.06,0-3.59-6.18.52-.91A7.42,7.42,0,0,1,34.88,134.35ZM32,137.77h0l2.89,2.89a7.45,7.45,0,0,1-5.93,4.2l-.54-.93Zm4.18,21,11.27-5.38v8.64h0v9.12l-11.32-5.41A10.66,10.66,0,0,0,29,162.35s0,0,0-.08A10.66,10.66,0,0,0,36.16,158.8Zm.12,13,9.11-.19,1.79,0-7.87,7.85Zm5.11,9.59-8.33,4.72L35.19,184l4.08-4.07Zm-5.18-9.9v-5.34l10.69,5.11-2.41.05Zm-1.33,12.35L32,186.72l-.06,0-3.59-6.19.52-.9A7.4,7.4,0,0,1,34.88,183.87ZM32,187.3h0l2.89,2.89A7.47,7.47,0,0,1,29,194.4l-.54-.93Zm1.07.61,8.31,4.78L39,193.91Zm3.23,14.38,2.79-7.9,8.13,8.14Zm10.64.55L36.23,208v-5.34l8.29.18Zm-7.65-8.7,2.36-1.24,5.19,8.8Zm2.26-1.72-9.13-5.25,3.34-.08L41.53,189Zm-5.79-5.65-3.31.09,9.1-5.15v3.21Zm3.76-7.06,7.31-7.29-5.17,8.79Zm2.34,1.88H51.93l-10.09,3.23Zm.12-.31,5.52-9.38.05.08.11-.08,5,9.38Zm5.85-28.2,5.13-9.56,5.62,3.12-5.22,9.71Zm5.75,3.71,16.53,5.47-16.53,5.35ZM64.37,168l-5.6,9.52L53.65,168Zm-2.59,28-2.34,0,10.69-5.11v5.34Zm8.27.49L66.83,204l-7.67-7.69,1.23,0Zm-2.65-27,3.8-3.79a7.72,7.72,0,0,0,6.06,4.26l-1.17,2-5.74,5.35Zm3,8.23,7.61-4.4,7.78,4.49v5.59a10.34,10.34,0,0,1-7,3.35.71.71,0,0,0-1.29,0,10.35,10.35,0,0,1-7.14-3.44h0ZM77.52,187s0,0,0,0,0,.05,0,.08a10.66,10.66,0,0,0-7.08,3.28l0-6.64A10.7,10.7,0,0,0,77.52,187Zm7.33,10.26L80,201.79l-1.49-.87Zm-4.68,4.81,5.74-5.36L89,204.46l-4,3.95a7.71,7.71,0,0,0-6-4.27Zm4.94,6.7,4.08-4.08,2.12,1.48L83,210.9ZM86.2,196.6l8.68-.19,2.22,0-7.87,7.86Zm-.07-.31v-5.35l10.68,5.11ZM86,190.54a10.62,10.62,0,0,0-7.08-3.42s0-.06,0-.08a10.66,10.66,0,0,0,7.14-3.47l11.26-5.39v8.64h0V196Zm5.88-22.45h10.72l-5.11,9.52Zm-.13-.32v-3.4l10.15,3.4Zm-5.57-5.6,16.51-5.28v10.82ZM97.82,147l5.43-3.66,5.22,9.71-5.59,3.36Zm5.2,9.82.07,0-.06-.11,5.49-3.3v9h0v8.76L103,168Zm5.68,14.88,5.6,9.52H103.58Zm5.72,9.84v3.35L104.3,181.5Zm-5-9.17,7.11,7.13-1.95,1.64Zm5.28,9.28,9,5.26h-3.21L114.74,185Zm9,5.57-9,5.15v-3.27l5.79-1.88Zm-6.66,7.29L120,202.2l-8.39.18-2.52.05Zm.25-.25,3.8-3.78a7.74,7.74,0,0,0,6.06,4.26l-1.17,2-5.74,5.35Zm12.77,2.4L129,194.69a7.72,7.72,0,0,0,6-4.26l3.71,3.71-2.84,8Zm6,5.67,2.8-7.9,8.12,8.14Zm10.64.55L136.07,208v-5.34l8.29.18Zm-7.65-8.7,2.37-1.24,5.18,8.8Zm2.26-1.72-9.12-5.25,3.33-.08,5.79,1.94Zm-5.79-5.65-3.3.09,9.09-5.15v3.21Zm3.77-7.06,7.3-7.29-5.17,8.79Zm2.34,1.88h10.09l-10.09,3.23Zm.11-.31,5.52-9.38.05.08.12-.08,5,9.38Zm5.86-28.2,5.13-9.56,5.62,3.12-5.23,9.71Zm5.74,3.71,16.53,5.47-16.53,5.35ZM164.21,168l-5.61,9.52L153.49,168Zm-2.6,28-2.34,0L170,190.85v5.34Zm8.28.49L166.66,204,159,196.27l1,0Zm-2.65-27,3.8-3.79a7.7,7.7,0,0,0,6.06,4.26l-1.17,2-5.74,5.35Zm3,8.23,7.61-4.4,7.78,4.49v5.59a10.36,10.36,0,0,1-7,3.35.73.73,0,0,0-.65-.41.7.7,0,0,0-.64.42,10.36,10.36,0,0,1-7.15-3.44h0Zm7.08,9.32v0a.24.24,0,0,0,0,.08,10.7,10.7,0,0,0-7.09,3.28v-6.64A10.63,10.63,0,0,0,177.35,187Zm7.34,10.26-4.83,4.52-1.49-.87ZM180,202.08l5.74-5.36,3.08,7.74-3.95,3.95a7.74,7.74,0,0,0-6.05-4.27Zm4.94,6.7L189,204.7l2.11,1.48-8.33,4.72ZM186,196.6l8.67-.19,2.22,0-7.86,7.86Zm-.08-.31v-5.35l10.69,5.11Zm-.11-5.75a10.66,10.66,0,0,0-7.09-3.42.31.31,0,0,0,0-.08,10.7,10.7,0,0,0,7.14-3.47l11.26-5.39v8.64h0V196Zm5.88-22.45h10.72l-5.12,9.52Zm-.14-.32v-3.4l10.15,3.4Zm-5.57-5.6,16.52-5.28v10.82ZM197.66,147l5.42-3.66L208.3,153l-5.59,3.36Zm5.19,9.82.08,0-.07-.11,5.5-3.3v9h0v8.76l-5.52-3Zm5.68,14.88,5.61,9.52H203.42Zm5.73,9.84v3.35l-10.13-3.35Zm-5-9.17,7.11,7.13-1.94,1.64Zm5.28,9.28,9,5.26h-3.22L214.57,185Zm9,5.57-9,5.15v-3.27l5.79-1.88Zm-8.85,5.42,8.49-4.85L217,194Zm9.41-5.32,3.59,6.19-.54.93a7.4,7.4,0,0,1-6-4.19Zm-.94-1-8.5-5,1.93-1.62Zm-6.61-7.08-7.67-7.7,1.08,0,9.82.21Zm-7.39-8,10.69-5.11v5.35Zm-.51-.1v-8.78h0v-9l11.2,5.35,0,7.06Zm11.19-12.93h0v.16l-10.69-5.11,10.69-.23Zm-8.86-5.3-2.11,0,8-8,2.91,7.73Zm3.71-9.78,8.49-4.86L217,144.45Zm9.41-5.33,3.59,6.19-.54.94a7.45,7.45,0,0,1-6-4.2Zm-.94-1-8.5-5,1.93-1.63Zm-6.61-7.08-7.67-7.7h.43l10.47.23Zm-7.39-8,10.69-5.11v5.34Zm-.51-.11v-8.78h0v-9l11.2,5.36,0,7Zm11.19-12.93h0v.17l-10.69-5.11,1.54,0,9.15-.19Zm-8.44-5.31-2.53.06,8-8,2.91,7.73Zm3.29-9.77,8.49-4.85L217,94.93Zm9.41-5.33,3.59,6.19-.54.94a7.43,7.43,0,0,1-6-4.2Zm-.94-1-8.5-5,1.93-1.63Zm-6.61-7.08-7.67-7.69,2,0,8.94.19Zm-5.85-8-1.54,0L219.88,67v5.34Zm3.41,10H203.42l5.11-9.52Zm.12.32v3.35l-10.13-3.35ZM219.84,88l-16.53,5.35V82.5ZM208.3,103.49l-5.59,3.35-5.05-9.41,5.42-3.66Zm-11-24.94L191.73,69h10.72Zm-5.74-9.83V65.31l10.15,3.41Zm5,9.16L189,70.32l2.37-1.24Zm-5.29-9.28-9.12-5.25,3.33-.08,5.79,1.94ZM185.49,63l-3.31.09,9.1-5.16V61.1Zm3.58-7.32L186,48l8.67-.18,2.22,0Zm6.14-8.13-9.25.2V42.36l10.69,5.11Zm-6.39,8.37-3.95,4a7.76,7.76,0,0,0-6.05-4.27L180,53.49l5.74-5.36Zm-3.17-8.1-7.6,4.39-7.76-4.49V42.25a10.39,10.39,0,0,1,7.2-3.42.72.72,0,0,0,.58.33.69.69,0,0,0,.58-.32,10.36,10.36,0,0,1,7,3.36Zm-8.28-9.25a10.7,10.7,0,0,0-7.09,3.28V35.16a10.59,10.59,0,0,0,7.08,3.26v0A.19.19,0,0,0,177.37,38.52Zm-1.44,15.07,1.14,2a7.76,7.76,0,0,0-6,4.23l-4.16-4.18L170.18,48Zm-16.37-5.9,10.33.23-3.23,7.45L159,47.68Zm-.29-.32L170,42.26V47.6Zm7.21,8.27-1.94,1.64-5.16-8.77Zm-1.83,2.15,9,5.26h-3.21l-5.8-1.92Zm9,5.57-9,5.15V65.24l5.79-1.88Zm-6.85,7-7.45,7.41L164.54,69Zm-2.46-1.77H154.22l10.12-3.28Zm-.13.31-5.61,9.53-5.11-9.53ZM158.4,97.11l-5.23,9.72-5.52-3.28L152.78,94Zm-5.78-3.7L136.1,87.88l16.52-5.29ZM141.79,82.22l5.52-9.37.05.07.12-.08,5,9.38ZM147.26,63h0v9.13l-11.32-5.42a10.65,10.65,0,0,0-7.09-3.41.29.29,0,0,0,0-.09A10.6,10.6,0,0,0,136,59.74l11.26-5.38Zm-11.2-9,10.69.23-10.68,5.11Zm.05-.31,2.79-7.91L147,53.94Zm2.76-8.39-6-6,8.31,4.78Zm-4.15-3.71a7.42,7.42,0,0,1-5.93,4.2l-.54-.93,3.57-6.17h0Zm-5,6.47-1.78,1-1.62-.94,1.72-3Zm-3.74.05-5.74,5.35-3-7.84,3.8-3.79a7.72,7.72,0,0,0,6.06,4.26Zm-6,11.14-10.69-5.11,1.54,0,9.16-.19V59.1h0ZM117.11,45.4,114.89,44l8.48-4.85ZM120,53.61l-8.39.18-2.52.06,8-8Zm0,6,0,7.05L108.85,72V63.25h0v-9Zm-5.73,22.5H103.58l5.12-9.52Zm.12.32v3.35L104.3,82.44ZM120,88l-16.53,5.35V82.5Zm-11.54,15.52-5.59,3.35-5.06-9.41,5.43-3.66Zm-11-24.94L91.89,69h10.72Zm-5.74-9.83V65.31l10.15,3.41Zm5,9.16-7.55-7.56,2.36-1.24Zm-5.3-9.28-9.12-5.25,3.34-.08,5.78,1.94ZM85.65,63l-3.3.09,9.09-5.16V61.1Zm3.58-7.32L86.2,48l8.68-.18,2.22,0Zm6.06-8.13-9.16.2V42.36l10.68,5.11ZM89,55.87l-4,4a7.73,7.73,0,0,0-6-4.27l1.18-2.06,5.74-5.36Zm-3.18-8.1-7.6,4.39-7.76-4.49V42.25a10.39,10.39,0,0,1,7.21-3.42.69.69,0,0,0,.58.33.71.71,0,0,0,.58-.32,10.38,10.38,0,0,1,7,3.36Zm-8.28-9.25a10.66,10.66,0,0,0-7.08,3.28l0-6.64a10.61,10.61,0,0,0,7.09,3.26v0S77.53,38.5,77.53,38.52ZM76.09,53.59l1.14,2a7.76,7.76,0,0,0-6,4.23L67.06,55.6,70.35,48ZM59.83,47.7l10.22.22-3.22,7.45-7.67-7.69Zm-.39-.33,10.69-5.11V47.6Zm7.21,8.27-2,1.64-5.16-8.77Zm-1.83,2.15,9,5.26H70.61l-5.79-1.92Zm9,5.57-9,5.15V65.24l5.79-1.88Zm-6.84,7L59.52,77.8,64.71,69ZM64.5,68.62H54.39L64.5,65.34Zm-.13.31-5.6,9.53-5.12-9.53ZM58.56,97.11l-5.22,9.72-5.53-3.28L52.94,94Zm-5.77-3.7L36.27,87.88l16.52-5.29ZM42,82.22l5.52-9.37.05.07.11-.08,5,9.38ZM47.43,63h0v9.13L36.09,66.71A10.65,10.65,0,0,0,29,63.3s0-.06,0-.09a10.57,10.57,0,0,0,7.13-3.47l11.27-5.38ZM30.25,48,29.13,46.1a7.75,7.75,0,0,0,6-4.26l3.7,3.72-2.83,8Zm4.8,5.06-6.6-3.81,1.65-1Zm1.17.92,10.7.23L36.23,59.36Zm.06-.31,2.79-7.91,8.13,8.14ZM39,45.32l-6-6,8.31,4.78Zm-4.14-3.71A7.43,7.43,0,0,1,29,45.81l-.54-.93L32,38.71h0Zm-5,6.47-1.78,1-1.61-.94,1.72-3Zm-2.09,1.21L21.46,53l4.86-4.52Zm.31.18L35.91,54v5.59a10.39,10.39,0,0,1-7,3.35.7.7,0,0,0-.64-.41.69.69,0,0,0-.64.42,10.4,10.4,0,0,1-7.15-3.44h0v-5.6ZM27.6,63.19v0s0,0,0,.08a10.71,10.71,0,0,0-7.08,3.27l0-6.63A10.7,10.7,0,0,0,27.6,63.19Zm.13.41a.69.69,0,0,0,1.16,0,10.33,10.33,0,0,1,7,3.37v5.56l-7.6,4.39-7.77-4.48V67A10.31,10.31,0,0,1,27.73,63.6ZM28,77.1l-1.65,1-4.92-4.75Zm.32.18,1.61.94-1.71,3-1.68-2.89Zm-.06,17.44,1.67,2.89-1.78,1-1.61-.93Zm-.42,4.1-6.36,3.66L26.32,98Zm.31.18,7.78,4.49v5.59a10.39,10.39,0,0,1-7,3.35.7.7,0,0,0-.64-.41.69.69,0,0,0-.64.42A10.37,10.37,0,0,1,20.52,109h0v-5.6Zm-.53,13.72v0s0,.05,0,.08a10.67,10.67,0,0,0-7.08,3.27l0-6.64A10.67,10.67,0,0,0,27.6,112.72Zm.13.41a.69.69,0,0,0,1.16,0,10.33,10.33,0,0,1,7,3.37v5.56l-7.6,4.39L20.53,122v-5.42A10.27,10.27,0,0,1,27.73,113.13Zm.25,13.5-1.65,1-4.92-4.76Zm.32.18,1.61.94-1.71,3-1.68-2.89Zm-.06,17.44,1.67,2.88-1.78,1-1.61-.93Zm-.42,4.09L21.46,152l4.86-4.53Zm.31.19L35.91,153v5.59A10.39,10.39,0,0,1,29,162a.7.7,0,0,0-.64-.41.69.69,0,0,0-.64.42,10.37,10.37,0,0,1-7.15-3.45h0v-5.6Zm-.53,13.72h0s0,.06,0,.09a10.62,10.62,0,0,0-7.08,3.27l0-6.64A10.67,10.67,0,0,0,27.6,162.25Zm.13.4a.68.68,0,0,0,.58.33.69.69,0,0,0,.58-.32,10.33,10.33,0,0,1,7,3.37v5.56L28.3,176l-7.77-4.49v-5.41A10.32,10.32,0,0,1,27.73,162.65ZM28,176.16l-1.65,1-4.92-4.76Zm.32.18,1.61.93-1.71,3-1.68-2.89Zm-.06,17.44,1.67,2.88-1.78,1-1.61-.93Zm-.42,4.09-6.36,3.67L26.32,197Zm.31.19,7.78,4.49v5.58a10.36,10.36,0,0,1-7,3.36.7.7,0,0,0-1.28,0,10.32,10.32,0,0,1-7.15-3.44h0v-5.59Zm-.53,13.71v0s0,.06,0,.08a10.68,10.68,0,0,0-7.08,3.28l0-6.64A10.61,10.61,0,0,0,27.6,211.77ZM34.94,222l-4.84,4.51-1.49-.86Zm-4.69,4.8L36,221.48l3.08,7.74-4,3.95a7.76,7.76,0,0,0-6-4.27Zm4.94,6.7,4.08-4.07L41.39,231l-8.33,4.72Zm1.09-12.18,8.68-.18,2.22-.05L39.31,229Zm-.07-.31v-5.34l10.69,5.11-1.54,0Zm-.12-5.75A10.66,10.66,0,0,0,29,211.88s0,0,0-.08a10.66,10.66,0,0,0,7.13-3.47L47.43,203v8.64h0v9.12ZM42,192.85H52.69l-5.11,9.52Zm-.13-.31v-3.41L52,192.54Zm-5.57-5.61,16.52-5.28v10.82Zm11.64-15.21,5.42-3.66,5.22,9.72L53,181.13Zm5.19,9.83.07,0-.06-.12,5.49-3.3v9h0v8.75l-5.52-3.05Zm5.68,14.87L64.39,206H53.66Zm5.72,9.84v3.35l-10.12-3.35Zm-5-9.16,7.11,7.13-2,1.63Zm7.33,7.35L73.44,211l-8.51-5Zm.19-.26,3.29-7.57,5.74,5.55,1.14,2a7.78,7.78,0,0,0-6,4.24Zm9.37-2.06,1.79-1,1.61.93-1.72,3Zm2.39,2.3a7.43,7.43,0,0,1,6,4.21L82,211.49l-.06,0-3.59-6.18Zm6.83,7.11-3.3.08,9.09-5.15v3.22Zm0,.31,5.78,1.94v3.4l-9.12-5.25Zm3.76-7.37,7.31-7.3L91.55,206Zm2.34,1.88h10.09l-10.09,3.22Zm.12-.32,5.51-9.37.06.07.11-.07,5,9.37Zm5.85-28.2,5.13-9.55,5.62,3.11-5.22,9.72Zm5.75,3.72L120,187l-16.53,5.35Zm10.81,11.2-5.61,9.52-3.19-6-1.92-3.56ZM120.05,221l-8.13-.17-2.56-.06,10.69-5.11Zm-9.9.11,9.82.21-3.22,7.45L109.08,221Zm6.64,8.15,6.57,6.6-8.51-5ZM117,229l3.29-7.56,5.75,5.55,1.14,2a7.75,7.75,0,0,0-6,4.23Zm4.27-7.06,6.58,3.8-1.66.95Zm-.87-.87V215.6a10.39,10.39,0,0,1,7.2-3.42.72.72,0,0,0,.59.33.71.71,0,0,0,.58-.32,10.41,10.41,0,0,1,7,3.36v5.57l-7.6,4.39Zm14.4,1-4.83,4.51-1.49-.86Zm-4.68,4.8,5.74-5.36,3.08,7.74-4,3.95a7.76,7.76,0,0,0-6-4.27Zm4.93,6.7,4.09-4.07,2.11,1.48-8.32,4.72Zm1.1-12.18,8.67-.18,2.23-.05L139.15,229Zm-.07-.31v-5.34l10.69,5.11-1.54,0Zm-.12-5.75a10.66,10.66,0,0,0-7.09-3.42.24.24,0,0,0,0-.08,10.68,10.68,0,0,0,7.14-3.47L147.26,203v8.64h0v9.12Zm5.88-22.45h10.72l-5.12,9.52Zm-.13-.31v-3.41l10.15,3.41Zm-5.58-5.61,16.52-5.28v10.82Zm11.64-15.21,5.43-3.66,5.22,9.72-5.59,3.35Zm5.2,9.83.07,0-.06-.12,5.49-3.3v9h0v8.75l-5.51-3.05Zm5.68,14.87,5.6,9.53H153.5Zm5.72,9.84v3.35l-10.13-3.35Zm-5-9.16,7.1,7.13-1.94,1.63Zm7.33,7.35,6.57,6.59-8.51-5Zm.18-.26,3.29-7.57,5.75,5.55,1.14,2a7.78,7.78,0,0,0-6,4.24Zm9.38-2.06,1.78-1,1.61.93L178,205Zm2.38,2.3a7.44,7.44,0,0,1,6,4.21l-2.86,2.85-.06,0-3.59-6.18Zm6.84,7.11-3.31.08,9.1-5.15v3.22Zm0,.31,5.79,1.94v3.4l-9.12-5.25Zm3.76-7.37,7.31-7.3L191.39,206Zm2.34,1.88h10.1l-10.1,3.22Zm.12-.32,5.52-9.37.05.07.12-.07,5,9.37Zm5.86-28.2,5.13-9.55,5.61,3.11-5.22,9.72Zm5.74,3.72L219.84,187l-16.53,5.35Zm10.82,11.2-5.61,9.52-3.2-6-1.92-3.56ZM219.89,221l-8-.17-2.69-.06,10.69-5.11Zm-9.9.11,9.82.21-3.23,7.45L208.91,221Zm6.63,8.15,6.57,6.6-8.5-5Zm.53-35,3.8-3.78A7.76,7.76,0,0,0,227,194.7l-1.16,2-5.74,5.35ZM226,197l1.5.86-6.36,3.67Zm1.91-3.86-3.54-6.1,0,0,0,0,3.51-6.11,3.57,6.14Zm-1.9-16-4.92-4.76,6.57,3.8Zm-.15.29,1.13,2a7.76,7.76,0,0,0-6,4.23l-4.16-4.18,3.29-7.56Zm-8.7-32.72,3.8-3.78a7.76,7.76,0,0,0,6.06,4.26l-1.16,2-5.74,5.35Zm8.84,2.79,1.5.86L221.13,152Zm1.91-3.86-3.54-6.1,0,0,0,0,3.51-6.11,3.57,6.15Zm-1.9-16-4.92-4.75,6.57,3.79Zm-.15.29,1.13,2a7.79,7.79,0,0,0-6,4.23l-4.16-4.17,3.29-7.57Zm-8.7-32.72,3.8-3.78A7.76,7.76,0,0,0,227,95.64l-1.16,2L220.11,103ZM226,98l1.5.87-6.36,3.66Zm1.91-3.85L224.36,88l0,0,0,0,3.51-6.11L231.44,88Zm-1.9-16-4.92-4.75,6.57,3.79Zm-.15.29,1.13,2a7.79,7.79,0,0,0-6,4.23l-4.16-4.17,3.29-7.57Zm-8.7-32.71,3.8-3.79A7.74,7.74,0,0,0,227,46.11l-1.16,2-5.74,5.35ZM226,48.43l1.5.86L221.13,53Zm1.91-3.86-3.54-6.1,0,0,0,0,3.51-6.11,3.57,6.15Zm-.18.31-.54.94a7.41,7.41,0,0,1-6-4.2l2.94-2.92Zm-4.15-6.28-9,5.14V40.47l5.79-1.87Zm-9-2.23V33l9,5.25h-3.22Zm2.15,9.25L209.27,53l5.19-8.81Zm-2.46-1.76H204.14l10.12-3.28Zm-.13.31-5.61,9.52-1.84-3.42-3.28-6.1Zm-5.82,28.17-5.22,9.72-5.52-3.28,5.13-9.55Zm-5.77-3.69L186,63.11l16.52-5.28Zm-10.83-11.2,5.52-9.37.05.08.12-.08,5,9.37Zm5.47-19.21h0v9.12L185.85,42a10.7,10.7,0,0,0-7.09-3.42.24.24,0,0,0,0-.08A10.7,10.7,0,0,0,185.92,35l11.26-5.38Zm-11.2-9,9.15.2,1.54,0L186,34.6Zm.05-.32,2.79-7.9L197,29.18Zm2.76-8.38-6-6,8.31,4.78Zm-.22.23-2.83,8L180,23.27l-1.12-1.93a7.77,7.77,0,0,0,6-4.26Zm-8.91,2.52-1.78,1-1.61-.93,1.72-3Zm-3.73.06-5.74,5.35-2.95-7.85,3.8-3.78a7.73,7.73,0,0,0,6.06,4.26ZM170,34.5l-10.69-5.11,2.69-.06,8-.17v5.18h0ZM167,20.63l-2.22-1.38,8.48-4.85Zm2.87,8.22-8.39.18-2.52,0,8-8Zm0,6,0,7.06-11.2,5.36V38.49h0v-9Zm-5.73,22.51H153.5l5.12-9.52Zm.12.31V61l-10.13-3.36Zm5.58,5.54-16.53,5.35V57.74ZM158.39,78.72l-5.59,3.36-5.06-9.41L153.17,69Zm-11-24.93-5.6-9.52h10.72ZM141.68,44v-3.4L151.83,44Zm5,9.17-7.55-7.57,2.37-1.24Zm-5.29-9.28-9.12-5.25,3.33-.09,5.79,1.94Zm-5.79-5.65-3.3.08,9.09-5.15v3.21Zm-2.67-.64L135,35.43l4.09-4.08,2.11,1.48Zm-1,.59-.05,0L128.21,32l.53-.91a7.44,7.44,0,0,1,6,4.21Zm-.26.31-3.53,6.12-3.55-6.1,0,0,0,0L128,32.3Zm-3.71,6.43-.54.94a7.43,7.43,0,0,1-6-4.2l2.94-2.92Zm-4.16-6.28-9,5.14V40.47l5.79-1.87Zm-9-2.23V33l9,5.25h-3.21Zm2.14,9.25L109.44,53l5.18-8.81Zm-2.46-1.76H104.3l10.12-3.28Zm-.13.31-5.61,9.52-1.83-3.42-3.28-6.1Zm-5.81,28.17-5.22,9.72-5.53-3.28,5.13-9.55Zm-5.78-3.69L86.19,63.11l16.51-5.28ZM91.88,57.45l5.51-9.37.06.08.11-.08,5,9.37Zm5.46-19.21h0v9.12L86,42a10.66,10.66,0,0,0-7.08-3.42s0-.05,0-.08A10.66,10.66,0,0,0,86.08,35L97.34,29.6Zm-11.2-9,9.16.2,1.54,0L86.15,34.6Zm0-.32L89,21l8.12,8.14ZM89,20.56l-6-6,8.3,4.78Zm-.21.23-2.83,8-5.74-5.53-1.12-1.93a7.74,7.74,0,0,0,6-4.26Zm-8.91,2.52-1.78,1-1.62-.93,1.72-3Zm-3.74.06-5.74,5.35L67.4,20.87l3.8-3.78a7.74,7.74,0,0,0,6.06,4.26Zm-6,11.13L59.43,29.39l2.69-.06,8-.17v5.18h0ZM67.2,20.63,65,19.25l8.48-4.85Zm2.87,8.22L61.68,29l-2.53,0,8-8Zm.05,6v7.06l-11.2,5.36V38.49h0v-9ZM64.39,57.36H53.66l5.12-9.52Zm.11.31V61L54.38,57.67Zm5.59,5.54L53.56,68.56V57.74ZM58.55,78.72,53,82.08l-5.05-9.41L53.33,69Zm-11-24.93L42,44.27H52.69ZM41.84,44v-3.4L52,44Zm5,9.17-7.55-7.57,2.36-1.24Zm-5.29-9.28L32.4,38.59l3.34-.09,5.79,1.94Zm-5.79-5.65-3.31.08,9.1-5.15v3.21Zm-2.68-.64,2.13-2.12,4.08-4.08,2.12,1.48Zm-1,.59-.06,0L28.38,32l.52-.91a7.42,7.42,0,0,1,6,4.21Zm-.26.31-3.53,6.12-3.55-6.1,0,0,0,0L28.2,32.3Zm-3.72,6.43-.54.94a7.41,7.41,0,0,1-6-4.2l2.94-2.92Zm-10.77.52L15.05,44l8.49-4.85Zm4-3.55a7.7,7.7,0,0,0,6.05,4.26l-1.16,2-5.74,5.35-3-7.84ZM20.43,72.8l5.75,5.55,1.14,2a7.79,7.79,0,0,0-6,4.23l-4.16-4.17Zm3.09,14.42-8.5-5L17,80.63Zm-2-2.44a7.46,7.46,0,0,1,5.91-4.17v-.09l.59,1-3.56,6.19Zm2.93,3.44,3.59,6.19-.54.94a7.43,7.43,0,0,1-6-4.2Zm-7.18,6.71-2.23-1.38,8.49-4.85Zm4-3.55a7.73,7.73,0,0,0,6.05,4.26l-1.16,2L20.44,103l-3-7.85Zm-.86,31,5.75,5.55,1.14,2a7.79,7.79,0,0,0-6,4.23l-4.16-4.17Zm3.09,14.42-8.5-5L17,130.16Zm-2-2.45a7.45,7.45,0,0,1,5.91-4.16v-.09l.59,1-3.56,6.19Zm2.93,3.45,3.59,6.19-.54.94a7.43,7.43,0,0,1-6-4.2Zm-7.18,6.7-2.23-1.37,8.49-4.86Zm4-3.54a7.76,7.76,0,0,0,6.06,4.26l-1.16,2-5.74,5.35-3-7.85Zm-.85,31,5.75,5.55,1.14,2a7.76,7.76,0,0,0-6,4.23l-4.16-4.18Zm3.09,14.42-8.5-5L17,179.69Zm-2-2.45a7.45,7.45,0,0,1,5.91-4.16v-.09l.59,1-3.56,6.19Zm2.93,3.45,3.59,6.19-.54.93a7.4,7.4,0,0,1-6-4.19ZM17.28,194l-2.23-1.38,8.49-4.85Zm4-3.54a7.73,7.73,0,0,0,6.05,4.26l-1.16,2-5.74,5.35-3-7.85Zm-.86,30.95,5.75,5.55,1.14,2a7.76,7.76,0,0,0-6,4.23L17.14,229Zm3.09,14.42-8.5-5L17,229.21Zm-2-2.45a7.45,7.45,0,0,1,5.91-4.16v-.1l.59,1-3.56,6.2Zm5-6.46,1.78-1,1.61.93-1.71,3Zm2.38,2.3a7.38,7.38,0,0,1,6,4.2L32,236.25l-.06,0-3.59-6.19Zm6.83,7.1-3.3.09,9.1-5.16v3.22Zm0,.32,5.79,1.94V242L32.4,236.7Zm3.76-7.38,7.31-7.3-5.17,8.8Zm2.34,1.88H51.93l-10.09,3.23Zm.12-.31,5.52-9.38.05.08.11-.08,5,9.38Zm5.85-28.21,5.13-9.55,5.62,3.11-5.22,9.72Zm5.75,3.72,16.53,5.47-16.53,5.35Zm10.94,7.61v3.28H54.39Zm-.13,3.59L58.77,227l-1.84-3.42-3.28-6.1Zm.34.06L67,219l-7.45,7.41Zm.11-3.76L70.61,212h3.2l-9,5.14Zm5.79-2.19-5.79-1.91v-3.34l9,5.25Zm.84-3a7.46,7.46,0,0,1,5.91-4.17v-.09l.58,1-3.56,6.19Zm10.45,3.46h0L84.8,215a7.42,7.42,0,0,1-5.92,4.2l-.54-.93Zm1.07.61,8.3,4.78L89,218.67Zm8.58,5,5.19,8.81-7.55-7.57Zm-5.36-6,16.51-5.29v10.83Zm15.72,5.6H91.76v-3.4Zm-4.09-20.81,5.43-3.66,5.22,9.71-5.59,3.36Zm5.2,9.82.07,0-.06-.11,5.49-3.3v9h0v8.76L103,217.54Zm5.68,14.88,5.6,9.52H103.58Zm5.72,9.83v3.36L104.3,231Zm-5-9.16,7.11,7.13-1.95,1.64Zm11.91,11.5a7.45,7.45,0,0,1,5.91-4.16v-.1l.58,1-3.56,6.2Zm5-6.46,1.78-1,1.62.93-1.72,3Zm2.39,2.3a7.41,7.41,0,0,1,6,4.2l-2.86,2.85-.05,0-3.6-6.19Zm6.83,7.1-3.3.09,9.09-5.16v3.22Zm0,.32,5.79,1.94V242l-9.12-5.25Zm3.77-7.38,7.3-7.3-5.17,8.8Zm2.34,1.88h10.09l-10.09,3.23Zm.11-.31,5.52-9.38.05.08.12-.08,5,9.38Zm5.86-28.21,5.13-9.55,5.62,3.11-5.23,9.72Zm5.74,3.72,16.53,5.47-16.53,5.35Zm11,7.61v3.28H154.22Zm-.13,3.59L158.6,227l-1.84-3.42-3.27-6.1Zm.33.06,2.26,1.4-7.45,7.41Zm.11-3.76,5.79-1.87h3.21l-9,5.14Zm5.79-2.19-5.79-1.91v-3.34l9,5.25Zm.84-3a7.48,7.48,0,0,1,5.92-4.17v-.09l.58,1-3.56,6.19Zm10.45,3.46h0l2.89,2.89a7.43,7.43,0,0,1-5.93,4.2l-.54-.93Zm1.07.61,8.31,4.78-2.32,1.22Zm8.59,5,5.18,8.81L189,218.9Zm-5.37-6,16.52-5.29v10.83Zm15.72,5.6H191.59v-3.4Zm-4.08-20.81,5.42-3.66,5.22,9.71-5.59,3.36Zm5.19,9.82.08,0-.07-.11,5.5-3.3v9h0v8.76l-5.52-3.06Zm5.68,14.88,5.61,9.52H203.42Zm5.73,9.83v3.36L204.13,231Zm-5-9.16L216.4,229l-1.94,1.64Zm11.91,11.5a7.45,7.45,0,0,1,5.91-4.16v-.1l.58,1-3.55,6.2Zm5-6.46,1.78-1,1.61.93-1.71,3Zm2.09-1.21,6.33-3.65-4.84,4.51Zm.29,3.51a7.4,7.4,0,0,1,6,4.2l-2.85,2.85-.06,0-3.59-6.19Zm6.29,4.34,4.08-4.07,2.12,1.48-8.33,4.72Zm-.07-.37a7.76,7.76,0,0,0-6-4.27l1.18-2.06,5.74-5.36,3.08,7.74Zm.78-12-7.6,4.39L220.2,221V215.6a10.35,10.35,0,0,1,7.2-3.42.7.7,0,0,0,.58.33.69.69,0,0,0,.58-.32,10.36,10.36,0,0,1,7,3.36Zm-7.59-10a.7.7,0,0,0-.64.41,10.32,10.32,0,0,1-7.15-3.44h0v-5.59l7.61-4.39,7.78,4.49v5.58a10.36,10.36,0,0,1-7,3.36A.7.7,0,0,0,228,211.08Zm1.94-14.46-1.12-1.93a7.75,7.75,0,0,0,6-4.26l3.7,3.71-2.83,8Zm2.8-8.71,8.31,4.78-2.33,1.22Zm1.83,2.29a7.44,7.44,0,0,1-5.92,4.2l-.54-.93,3.56-6.17h0Zm-2.91-3.44-3.59-6.19.52-.9a7.4,7.4,0,0,1,6,4.2l-2.85,2.85Zm3.22-2.75,4.08-4.07,2.12,1.48-8.33,4.72Zm-.07-.37a7.73,7.73,0,0,0-6-4.26l1.18-2.06,5.74-5.37,3.08,7.74Zm.78-12L228,176l-7.77-4.49v-5.42a10.35,10.35,0,0,1,7.2-3.42.68.68,0,0,0,.58.33.69.69,0,0,0,.58-.32,10.36,10.36,0,0,1,7,3.36Zm-7.59-10a.69.69,0,0,0-.64.42,10.37,10.37,0,0,1-7.15-3.45h0v-5.59l7.61-4.39,7.78,4.49v5.59a10.39,10.39,0,0,1-7,3.35A.7.7,0,0,0,228,161.55Zm1.94-14.46-1.12-1.93a7.75,7.75,0,0,0,6-4.26l3.7,3.71-2.83,8Zm2.8-8.71,8.31,4.78-2.33,1.22Zm1.83,2.29a7.42,7.42,0,0,1-5.92,4.2l-.54-.93,3.56-6.17h0Zm-2.91-3.44-3.59-6.18.52-.91a7.44,7.44,0,0,1,6,4.2l-2.85,2.86Zm3.22-2.74,4.08-4.08,2.12,1.48-8.33,4.72Zm-.07-.38a7.73,7.73,0,0,0-6-4.26l1.18-2.06,5.74-5.36,3.08,7.74Zm.78-12.05-7.6,4.39L220.2,122v-5.42a10.27,10.27,0,0,1,7.2-3.42.69.69,0,0,0,1.16,0,10.33,10.33,0,0,1,7,3.37ZM228,112a.69.69,0,0,0-.64.42,10.37,10.37,0,0,1-7.15-3.45h0v-5.6L227.8,99l7.78,4.49v5.59a10.39,10.39,0,0,1-7,3.35A.7.7,0,0,0,228,112Zm1.94-14.46-1.12-1.93a7.75,7.75,0,0,0,6-4.26l3.7,3.71-2.83,8Zm2.8-8.71L241,93.63l-2.33,1.22Zm1.83,2.29a7.4,7.4,0,0,1-5.92,4.2l-.54-.93,3.56-6.17h0Zm-2.91-3.44-3.59-6.18.52-.91a7.43,7.43,0,0,1,6,4.21l-2.85,2.85ZM234.86,85l4.08-4.08,2.12,1.48-8.33,4.72Zm-.07-.38a7.73,7.73,0,0,0-6-4.26l1.18-2.06,5.74-5.36,3.08,7.74Zm.78-12L228,76.92l-7.77-4.48V67a10.27,10.27,0,0,1,7.2-3.42.69.69,0,0,0,1.16,0,10.33,10.33,0,0,1,7,3.37Zm-7.59-10a.69.69,0,0,0-.64.42,10.4,10.4,0,0,1-7.15-3.44h0v-5.6l7.61-4.39L235.58,54v5.59a10.39,10.39,0,0,1-7,3.35A.7.7,0,0,0,228,62.49ZM229.92,48,228.8,46.1a7.75,7.75,0,0,0,6-4.26l3.7,3.71-2.83,8Zm2.8-8.72L241,44.1l-2.33,1.22Zm1.83,2.29a7.4,7.4,0,0,1-5.92,4.2l-.54-.93,3.56-6.17h0Zm-2.91-3.44L228.05,32l.52-.91a7.43,7.43,0,0,1,6,4.21l-2.85,2.85Zm3.22-2.74,4.08-4.08,2.12,1.48-8.33,4.72Zm-.07-.37a7.74,7.74,0,0,0-6-4.27l1.18-2.06,5.74-5.36,3.08,7.74Zm-5-6.62-1.49-.87,6.33-3.65Zm-6.58,9.25-8.5-5,1.93-1.63Zm-6.61-7.08-7.67-7.69,1.08,0,9.82.21Zm-.18.27-1.94,1.63-5.17-8.76Zm3.44,7.56-16.53,5.35V33Zm-15.71-5.53h10.13v3.35ZM208.3,54l-5.59,3.35-5.05-9.41,5.42-3.66ZM197.33,29l-5.6-9.52h10.72Zm-5.74-9.83V15.78l10.15,3.41Zm5,9.16L189,20.79l2.37-1.24Zm-5.29-9.28-9.12-5.25,3.33-.08,5.79,1.94Zm-6.64-2.22a7.47,7.47,0,0,1-5.93,4.2l-.54-.93L181.73,14h0ZM178,19.8l-3.55-6.1,0,0,0,0L178,7.54l3.57,6.14Zm-.18.32-.55.93a7.42,7.42,0,0,1-6-4.19l2.94-2.93ZM164.65,19V15.71l5.79-1.88h3.21Zm2.15,1.88-7.45,7.41,5.19-8.81Zm-2.46-1.77H154.22l10.12-3.28Zm-.13.32-5.61,9.52-1.84-3.42-3.27-6.1ZM158.4,47.58l-5.23,9.72L147.65,54l5.13-9.55Zm-5.78-3.69L136.1,38.35l16.52-5.29Zm-10.94-7.66V33h10.09Zm-.21-3.61-2.13-1.49,7.3-7.3Zm-2.32-1.75-3-7.62,9.22-.2L147,23Zm-3.1-7.94V17.59l10.69,5.11Zm2.86,8.18-4,4a7.74,7.74,0,0,0-6-4.27l1.19-2.06,5.74-5.36Zm-9-2.67-1.49-.87,6.32-3.65Zm-6.58,9.25-8.51-5,1.94-1.63Zm-6.61-7.08-7.67-7.69,1.07,0,9.82.21Zm-.18.27-1.95,1.63-5.16-8.76ZM120,38.44l-16.53,5.35V33ZM104.3,32.91h10.12v3.35ZM108.47,54l-5.59,3.35L97.82,47.9l5.43-3.66ZM97.5,29,91.89,19.5h10.72Zm-5.74-9.83V15.78l10.15,3.41Zm5,9.16-7.55-7.56,2.36-1.24Zm-5.3-9.28-9.12-5.25,3.34-.08,5.78,1.94ZM84.8,16.85a7.46,7.46,0,0,1-5.92,4.2l-.54-.93L81.9,14h0ZM78.15,19.8l-3.54-6.1,0,0,0,0,3.52-6.11,3.56,6.14Zm-.18.32-.54.93a7.42,7.42,0,0,1-6-4.19l2.94-2.93ZM64.82,19V15.71l5.79-1.88h3.2ZM67,20.86l-7.45,7.41,5.19-8.81ZM64.5,19.09H54.39L64.5,15.81Zm-.13.32-5.6,9.52-1.84-3.42-3.28-6.1ZM58.56,47.58,53.34,57.3,47.81,54l5.13-9.55Zm-5.77-3.69L36.27,38.35l16.52-5.29ZM41.84,36.23V33H51.93Zm-.2-3.61L39.5,31.13l7.31-7.3Zm-2.33-1.75-3-7.62,9.23-.2,1.67,0Zm-3.1-7.94V17.59L46.91,22.7Zm2.86,8.18-4,4a7.74,7.74,0,0,0-6-4.27l1.18-2.06L36,23.37Zm-9-2.67-1.49-.87,6.33-3.65Zm-6.58,9.25-8.5-5L17,31.1Zm-6.61-7.08L9.25,22.92l1.17,0,9.72.21Zm-.18.27-1.94,1.63L9.63,23.75ZM14.9,33l9,5.25H20.69L14.9,36.37Zm9,5.57-9,5.14V40.47l5.79-1.87Zm-6.66,7.28,2.91,7.73-8.3.18-2.62.06Zm3,26.49L11,72.17l-1.46,0L20.21,67Zm-8.86.12,8.78.19-3.23,7.46L9.25,72.45Zm5.37,7.91L14.79,82,9.63,73.27ZM14.9,82.56l9,5.25H20.69L14.9,85.89Zm9,5.57-9,5.14V90l5.79-1.87Zm-6.66,7.28,2.91,7.73-8.3.18-2.62.06Zm3,26.49-10.7-.23,10.69-5.11ZM9.78,122l10.36.22-3.23,7.46L9.25,122Zm7,7.94-1.94,1.64L9.63,122.8Zm-1.83,2.15,9,5.26H20.69l-5.79-1.92Zm9,5.58-9,5.14v-3.27l5.79-1.88Zm-6.66,7.28,2.91,7.73-8.71.19-2.21,0Zm3,26.49-10.7-.24,10.69-5.11Zm-9.8.1,9.72.21-3.23,7.46-7.66-7.7Zm6.31,7.93-1.94,1.64-5.16-8.77Zm-1.83,2.15,9,5.26H20.69L14.9,185Zm9,5.57-9,5.15v-3.27l5.79-1.88Zm-6.66,7.29,2.91,7.73-8.3.18-2.62.05Zm3,26.48-8.14-.17-2.56-.06,10.69-5.11Zm-9.8.11,9.72.21-3.23,7.45L9.25,221ZM16.73,229l-1.94,1.64-5.16-8.77Zm-1.83,2.15,9,5.26H20.69l-5.79-1.92Zm9,5.57-9,5.15v-3.27l5.79-1.88Zm-8.85,5.42,8.49-4.85-6.26,6.23Zm9.41-5.32L28.05,243l-.54.93a7.42,7.42,0,0,1-6-4.19Zm.23-.23,0,0,0,0,3.51-6.11,3.57,6.14-3.53,6.12Zm7.29.24,0,0,2.89,2.89a7.47,7.47,0,0,1-5.93,4.2l-.54-.93Zm1.07.62,8.31,4.78L39,243.44Zm8.58,5,5.19,8.8-7.55-7.56Zm-5.36-6,16.52-5.28V242ZM52,242.07H41.84v-3.41Zm-4.08-20.82,5.42-3.66,5.22,9.72L53,230.66Zm5.19,9.83.07,0-.06-.12,5.49-3.3v9h0v8.75l-5.52-3.05Zm17,1.37h0v.17l-10.68-5.11,2.4,0,8.29-.18Zm-8.86-5.3-2.11,0,8-8L70.07,227ZM65,217.37l8.48-4.85-6.25,6.23Zm9.4-5.32,3.6,6.18-.54.94a7.43,7.43,0,0,1-6-4.2ZM80,221.68l5,4.77-6.61-3.81Zm.15-.29-1.12-1.94a7.72,7.72,0,0,0,6-4.26l3.71,3.72-2.83,8Zm6,5.67,2.8-7.91,8.12,8.14Zm10.65.54-10.69,5.11v-5.34l8,.18Zm-5-10h10.72l-5.11,9.52Zm5.84,9.75,5.13-9.55,5.62,3.11-5.22,9.72Zm5.75,3.72L120,236.56l-16.53,5.35Zm10.94,7.6V242H104.3Zm.2,3.65,2.26,1.4-7.44,7.41Zm.27-.21,8.48-4.85-6.26,6.23Zm9.4-5.32,3.6,6.19-.54.93a7.42,7.42,0,0,1-6-4.19Zm.23-.23,0,0,0,0,3.51-6.11,3.57,6.14-3.53,6.12Zm7.3.24,0,0,2.88,2.89a7.46,7.46,0,0,1-5.93,4.2l-.54-.93Zm1.06.62,8.31,4.78-2.32,1.22Zm8.59,5,5.18,8.8-7.55-7.56Zm-5.37-6,16.52-5.28V242Zm15.73,5.61H141.68v-3.41Zm-4.09-20.82,5.43-3.66,5.22,9.72-5.59,3.35Zm5.2,9.83.07,0-.06-.12,5.49-3.3v9h0v8.75l-5.51-3.05Zm17,1.37h0v.17l-10.69-5.11,2.41,0,8.29-.18Zm-8.85-5.3-2.11,0,8-8L169.9,227Zm3.71-9.78,8.48-4.85L167,218.75Zm9.4-5.32,3.6,6.18-.55.94a7.43,7.43,0,0,1-6-4.2Zm5.65,9.63,4.94,4.77-6.6-3.81Zm.14-.29-1.12-1.94a7.75,7.75,0,0,0,6-4.26l3.7,3.72-2.83,8Zm6,5.67,2.79-7.91,8.13,8.14Zm10.64.54L186,232.71v-5.34l8,.18Zm-4.94-10h10.72l-5.12,9.52Zm5.84,9.75,5.13-9.55,5.61,3.11-5.22,9.72Zm5.74,3.72,16.53,5.47-16.53,5.35Zm10.95,7.6V242H204.14Zm.2,3.65,2.26,1.4-7.45,7.41Zm.26-.21,8.49-4.85L217,243.51Zm9.41-5.32,3.59,6.19-.54.93a7.42,7.42,0,0,1-6-4.19Zm.23-.23,0,0,0,0,3.51-6.11,3.57,6.14-3.54,6.12Zm7.29.24,0,0,2.88,2.88a7.43,7.43,0,0,1-5.92,4.21l-.54-.93Zm1.07.62,8.31,4.78-2.33,1.21Zm8.58,5,5.19,8.8-7.55-7.56Zm-.1-.48-9.13-5.25,3.34-.08,5.79,1.94Zm-5.8-5.65-3.3.09,9.1-5.16v3.22ZM239,229l-3-7.62,8.68-.18,2.22-.05Zm-3.1-7.93v-5.34l10.69,5.11-1.46,0Zm-.12-5.75a10.66,10.66,0,0,0-7.08-3.42s0,0,0-.08a10.66,10.66,0,0,0,7.13-3.47L247.1,203v8.64h0v9.12Zm.13-12.69,8.29.18,2.41.05L235.9,208Zm.06-.32,2.79-7.9,8.13,8.14Zm3-8.15,2.36-1.24,5.19,8.8Zm2.26-1.72-9.13-5.25,3.34-.08L241.2,189Zm-5.8-5.65-3.3.09,9.1-5.15v3.21Zm3.58-7.32-3-7.62,9.11-.19,1.79,0Zm-3.1-7.93v-5.34l10.69,5.11-2.34.05Zm-.12-5.75a10.66,10.66,0,0,0-7.08-3.42s0,0,0-.08a10.66,10.66,0,0,0,7.13-3.47l11.27-5.38v8.64h0v9.12Zm.13-12.69,10.7.23-10.69,5.11Zm.06-.32,2.79-7.9,8.13,8.14Zm3-8.15,2.36-1.24,5.19,8.81Zm2.26-1.72-9.13-5.24,3.34-.09,5.79,1.94Zm-5.8-5.65-3.3.09,9.1-5.15v3.21Zm3.58-7.32-3-7.61,8.68-.19,2.22-.05Zm-3.1-7.93v-5.34l10.69,5.11-2.56.06Zm-.12-5.75a10.66,10.66,0,0,0-7.08-3.42s0,0,0-.08a10.66,10.66,0,0,0,7.13-3.47l11.27-5.38v8.64h0v9.12Zm.13-12.69,10.7.23-10.69,5.11Zm.06-.31,2.79-7.91,8.13,8.14Zm3-8.16,2.36-1.24,5.19,8.81Zm2.26-1.72-9.13-5.24,3.34-.09L241.2,90Zm-5.8-5.64-3.3.08,9.1-5.15v3.21ZM239,80.39l-3-7.61,8.68-.19,2.22,0Zm-3.1-7.93V67.12l10.69,5.11-2.56.06Zm-.12-5.75a10.65,10.65,0,0,0-7.08-3.41s0-.06,0-.09a10.57,10.57,0,0,0,7.13-3.47l11.27-5.38V63h0v9.13ZM235.89,54l10.7.23L235.9,59.36Zm.06-.31,2.79-7.91,8.13,8.14Zm3-8.16,2.36-1.24,5.19,8.81Zm2.26-1.71-9.13-5.25,3.34-.09,5.79,1.94Zm-5.8-5.65-3.3.08,9.1-5.15v3.21ZM239,30.87l-3-7.62,9.23-.2,1.67,0Zm-3.1-7.94V17.59l10.69,5.11Zm-8.48-8.86a.69.69,0,0,0,.58.32.71.71,0,0,0,.58-.31,10.32,10.32,0,0,1,7,3.36V23L228,27.39l-7.77-4.48V17.49A10.35,10.35,0,0,1,227.4,14.07Zm-.13-.41v0s0,.05,0,.08A10.68,10.68,0,0,0,220.2,17l0-6.64A10.7,10.7,0,0,0,227.27,13.66Zm-1.42,15.16,1.13,2A7.78,7.78,0,0,0,221,35l-4.16-4.18,3.29-7.57Zm-15.12-6.18-1.54,0,10.69-5.11v5.34Zm.86-18.06,8.28-.18V9.58h0v.17L209.18,4.63Zm-2.92.16,11.2,5.35,0,7.06L208.68,22.5V13.73h0Zm-.14,18.33,5.61,9.52H203.42ZM202.85,8.2l.08,0-.07-.12,5.5-3.3v9h0v8.75l-5.52-3.05Zm5.46,14.61-5.22,9.72-5.52-3.28,5.13-9.55ZM191.59,8.24h10.1l-10.1,3.23Zm10.95.06V19.12L186,13.58Zm-11.26,3.27-5.79,1.85-3.31.09,9.1-5.16Zm-6.34-.91L189,6.59l2.11,1.48-8.33,4.72Zm-.3-.14-2.86,2.85-.06,0-3.59-6.18.52-.91A7.41,7.41,0,0,1,184.64,10.52ZM176.27,4l1.78-1,1.61.93-1.71,3Zm.93,2.3V6.23l.58,1-3.56,6.19-2.93-2.94A7.45,7.45,0,0,1,177.2,6.32Zm-10.49,0,6.57,6.59-8.51-5Zm-2.06,1.92,9,5.26h-3.22l-5.79-1.92Zm-.31-.11V11.5L154.21,8.15Zm-11,.06,16.53,5.47L153.39,19Zm5,21-5.59,3.36-5.06-9.41,5.43-3.66ZM147.56,13.57h0V4.81L153,8.05l0,0,.07,0v11l-.09,0,0,0-5.35,3.61h0l-.12-.05Zm-.2,9.82.12-.07,5,9.37H141.79l5.52-9.37Zm-3.3-18.72,2.69,0L136.07,9.83V4.49Zm-15.2,9A10.68,10.68,0,0,0,136,10.22l11.26-5.39v8.64h0V22.6l-11.32-5.42a10.65,10.65,0,0,0-7.09-3.41A.31.31,0,0,0,128.86,13.69Zm-1.3.38a.71.71,0,0,0,.59.32.72.72,0,0,0,.58-.31,10.36,10.36,0,0,1,7,3.36V23l-7.6,4.39-7.76-4.48V17.49A10.39,10.39,0,0,1,127.56,14.07Zm-.13-.41v0a.24.24,0,0,0,0,.08A10.66,10.66,0,0,0,120.37,17l0-6.64A10.7,10.7,0,0,0,127.43,13.66ZM126,28.82l1.14,2a7.76,7.76,0,0,0-6,4.24L117,30.84l3.29-7.57Zm-15.2-6.18-1.45,0,10.69-5.11v5.34Zm.94-18.06L120,4.4V9.58h0v.17L109.34,4.63Zm-2.91.16L120,10.09l0,7.06-11.2,5.35V13.73h0Zm-.14,18.33,5.6,9.52H103.58ZM103,8.2l.07,0L103,8.06l5.49-3.3v9h0v8.75L103,19.43Zm5.46,14.61-5.22,9.72-5.53-3.28,5.13-9.55ZM91.76,8.24h10.09L91.76,11.47Zm10.94.06V19.12L86.19,13.58ZM91.44,11.57l-5.79,1.85-3.3.09,9.09-5.16Zm-6.33-.91,4.08-4.07,2.12,1.48L83,12.79Zm-.31-.14L82,13.37l-.06,0L78.3,7.22l.52-.9A7.4,7.4,0,0,1,84.8,10.52ZM76.43,4l1.79-1,1.61.93-1.72,3Zm.93,2.3V6.23l.58,1-3.56,6.19-2.92-2.94A7.45,7.45,0,0,1,77.36,6.32Zm-10.49,0,6.57,6.59L64.93,8ZM64.82,8.26l9,5.26H70.61L64.82,11.6Zm-.32-.11V11.5L54.38,8.15Zm-10.94.06,16.53,5.47L53.56,19Zm5,21L53,32.55l-5.05-9.41,5.42-3.66ZM47.73,13.57h0V4.81l5.45,3.24,0,0,.07,0v11l-.08,0,0,0-5.34,3.61h0l-.11-.05Zm-.2,9.82.11-.07,5,9.37H42l5.52-9.37ZM44.23,4.67l2.69,0L36.23,9.83V4.49Zm-15.2,9a10.66,10.66,0,0,0,7.13-3.47L47.43,4.83v8.64h0V22.6L36.09,17.18A10.65,10.65,0,0,0,29,13.77S29,13.71,29,13.69Zm-1.3.38a.69.69,0,0,0,.58.32.71.71,0,0,0,.58-.31,10.32,10.32,0,0,1,7,3.36V23l-7.6,4.39-7.77-4.48V17.49A10.35,10.35,0,0,1,27.73,14.07Zm-.13-.41v0s0,.05,0,.08A10.68,10.68,0,0,0,20.53,17l0-6.64A10.7,10.7,0,0,0,27.6,13.66ZM26.18,28.82l1.14,2a7.78,7.78,0,0,0-6,4.24l-4.16-4.18,3.29-7.57ZM11,22.64l-1.46,0L20.21,17.5v5.34Zm.87-18.06L20.2,4.4V9.58h0v.17L9.51,4.63ZM9,4.74l11.2,5.35,0,7.06L9,22.5V13.73H9ZM3.18,19.43V8.2l.08,0-.07-.12,5.5-3.3v9h0v8.75Zm5.68,3.64,5.61,9.52H3.75Zm5.73,9.84v3.35L4.46,32.91ZM3.64,33l16.53,5.47L3.64,43.79ZM5.77,48l-2-3.79H14.46L8.85,53.69ZM3.18,69V57.73l.08,0-.07-.11,5.5-3.3v9h0V72ZM8.86,72.6l5.61,9.52H3.75Zm5.73,9.84v3.35L4.46,82.44ZM3.64,82.5,20.17,88,3.64,93.32Zm2.13,15-2-3.79H14.46l-5.61,9.52Zm-2.59,21V107.26l.08,0-.07-.11,5.5-3.3v9h0v8.76Zm5.68,3.64,5.61,9.52H3.75ZM14.59,132v3.35L4.46,132ZM3.64,132l16.53,5.47L3.64,142.85Zm2.13,15-2-3.79H14.46l-5.61,9.52ZM3.18,168V156.78l.08,0-.07-.11,5.5-3.3v9h0v8.76Zm5.68,3.64,5.61,9.52H3.75Zm5.73,9.84v3.35L4.46,181.5Zm-10.95.06L20.17,187,3.64,192.38ZM4.78,194.7l-1.05-1.94H14.46l-5.61,9.52Zm-1.6,22.84V206.31l.08,0-.07-.11,5.5-3.3v9h0v8.76Zm5.68,3.65,5.61,9.52H3.75ZM14.59,231v3.36L4.46,231Zm-10.95.07,16.53,5.47L3.64,241.91Zm5.21,20.72-4.07-7.58-1.05-1.94H14.46Zm3,.1L9.23,252l8-8,2.91,7.74Zm8.59-.31-3-7.85L21.29,240a7.75,7.75,0,0,0,6.05,4.26l-1.16,2Zm1-.53,4.86-4.53,1.5.86Zm6.67-3.85-1.61-.93,1.72-3,1.67,2.88Zm.32.18,1.65-1,4.95,4.76ZM36,251.68l-5.74-5.53-1.12-1.93a7.77,7.77,0,0,0,6-4.26l3.7,3.71Zm.29.14,2.79-7.9,8.13,8.14Zm11.3.08L42,242.38H52.69Zm5.76,3.51-5.53-3.28,5.13-9.55,5.62,3.11Zm.32.06L58.78,246l5.61,9.52Zm11-.08-5.16-8.77,7.11,7.13Zm2.13-1.9-7.67-7.69,2.12,0,8.77.19Zm-7.39-8,10.69-5.11v5.34Zm8-26.5,3.8-3.79a7.72,7.72,0,0,0,6.06,4.26l-1.17,2-5.74,5.35Zm3,8.22,7.61-4.39,7.78,4.49v5.59a10.34,10.34,0,0,1-7,3.35.71.71,0,0,0-1.29,0,10.39,10.39,0,0,1-7.14-3.44h0Zm7.08,9.33s0,0,0,0,0,.05,0,.08a10.66,10.66,0,0,0-7.08,3.28l0-6.64A10.7,10.7,0,0,0,77.52,236.54Zm-6.2,10.12,6.58,3.79-1.66,1Zm6.79,7.89-1.68-2.89,1.79-1,1.61.93ZM80,251.31l-1.49-.86,6.32-3.65Zm5.79-5.43-7.59,4.39-7.77-4.48v-5.42A10.35,10.35,0,0,1,77.65,237a.68.68,0,0,0,.58.32.71.71,0,0,0,.58-.32,10.4,10.4,0,0,1,7,3.37Zm-6.88-9.23s0-.06,0-.09a10.57,10.57,0,0,0,7.14-3.47l11.26-5.38v8.64h0v9.13L86,240.06A10.65,10.65,0,0,0,78.93,236.65Zm7.21,3.82,10.68,5.11-10.69.23Zm.06,5.66,9.11-.2,1.79,0-7.87,7.85Zm5.35,9.37L89.42,254l7.31-7.29Zm.33.07,5.51-9.37.06.07.11-.08,5,9.38Zm11-.14L97.82,246l5.43-3.66,5.22,9.71Zm5.8-3.62-3.19-6-1.92-3.56h10.72Zm2.91.1-2.52.05,8-8,2.91,7.74Zm8.68-.31-3-7.85,3.8-3.78a7.76,7.76,0,0,0,6.06,4.26l-1.17,2Zm1-.53,4.86-4.53,1.49.86Zm6.67-3.85-1.62-.93,1.72-3,1.68,2.88Zm.31.18,1.66-1,4.94,4.76Zm7.54,4.28-5.73-5.53L129,244.22a7.74,7.74,0,0,0,6-4.26l3.71,3.71Zm.29.14,2.8-7.9,8.12,8.14Zm11.3.08-5.6-9.52h10.72Zm5.76,3.51-5.52-3.28,5.13-9.55,5.62,3.11Zm.33.06,5.12-9.52,5.6,9.52Zm11-.08-5.16-8.77,7.1,7.13Zm2.12-1.9L159,245.8l1.95,0,8.94.19Zm-7.39-8L170,240.38v5.34Zm8-26.5,3.8-3.79a7.7,7.7,0,0,0,6.06,4.26l-1.17,2-5.74,5.35Zm3,8.22,7.61-4.39,7.78,4.49v5.59a10.36,10.36,0,0,1-7,3.35.73.73,0,0,0-.65-.41.7.7,0,0,0-.64.42,10.4,10.4,0,0,1-7.15-3.44h0Zm7.08,9.33v0a.24.24,0,0,0,0,.08,10.74,10.74,0,0,0-7.09,3.27v-6.63A10.68,10.68,0,0,0,177.35,236.54Zm-6.19,10.12,6.57,3.79-1.65,1Zm6.79,7.89-1.68-2.89,1.78-1,1.61.93Zm1.91-3.24-1.49-.86,6.32-3.65Zm5.79-5.43-7.6,4.39-7.76-4.48v-5.42a10.34,10.34,0,0,1,7.2-3.42.71.71,0,0,0,.58.32.69.69,0,0,0,.58-.32,10.37,10.37,0,0,1,7,3.37Zm-6.89-9.23a.29.29,0,0,0,0-.09,10.64,10.64,0,0,0,7.14-3.47l11.26-5.38v8.64h0v9.13l-11.32-5.42A10.69,10.69,0,0,0,178.76,236.65Zm7.21,3.82,10.69,5.11-10.7.23Zm.07,5.66,9.11-.2,1.78,0-7.86,7.85Zm5.35,9.37-2.14-1.5,7.31-7.29Zm.32.07,5.52-9.37.05.07.12-.08,5,9.38Zm11-.14L197.66,246l5.42-3.66,5.22,9.71Zm5.81-3.62-3.2-6-1.92-3.56h10.73Zm2.91.1-2.53.05,8-8,2.91,7.74Zm8.68-.31-3-7.85L221,240a7.78,7.78,0,0,0,6.06,4.26l-1.16,2Zm1-.53,4.86-4.53,1.5.86Zm6.67-3.85-1.61-.93,1.72-3,1.67,2.88Zm.32.18,1.65-1,4.95,4.76Zm7.54,4.28-5.74-5.53-1.12-1.93a7.77,7.77,0,0,0,6-4.26l3.7,3.71Zm.29.14,2.79-7.9,8.13,8.14Zm11.3.08-5.61-9.52h10.72Zm-5.74-9.83v-3.41l10.15,3.41Zm11-.07-16.52-5.54,16.52-5.28Zm-.11-11.19H241.63l5.52-9.38,0,.08.11-.08Zm.51-24.65,0,0,.07,0v11l-.08,0,0,0-5.35,3.61h0l-.11-.06v-9.18h0v-8.75Zm-5.61-3.79-5.61-9.52h10.72Zm-5.74-9.83v-3.41l10.15,3.41Zm11-.07-16.52-5.54,16.52-5.28Zm-.11-11.19H241.63l5.52-9.38,0,.08.11-.08Zm.51-24.65,0,0,.07,0v11l-.08,0,0,0-5.34,3.61h0l-.11-.06v-9.18h0V153.4Zm-5.61-3.78-5.61-9.53h10.72ZM241.51,143v-3.4l10.15,3.4Zm11-.07-16.52-5.54,16.52-5.28Zm-.11-11.19H241.63l5.52-9.37,0,.07.11-.08Zm.51-24.65,0,0,.07,0v11l-.08,0,0,.05-5.35,3.61h0l-.11-.06v-9.17h0v-8.76Zm-5.61-3.78-5.61-9.52h10.72Zm-5.74-9.84v-3.4l10.15,3.4Zm11-.07-16.52-5.53,16.52-5.29Zm-.11-11.19H241.63l5.52-9.37,0,.07.11-.08Zm.51-24.65,0,0,.07,0v11l-.08,0,0,0-5.35,3.61h0l-.11,0V63.1h0V54.34Zm-5.61-3.78-5.61-9.52h10.72ZM241.51,44v-3.4L251.66,44Zm11-.06-16.52-5.54,16.52-5.29Zm-.11-11.2H241.63l5.52-9.37,0,.07.11-.07Zm.56-13.56-.08,0,0,0-5.34,3.61h0l-.11-.05V13.57h0V4.81l5.45,3.24,0,0,.07,0Z"/></g></svg>