<svg id="seamless_pattern20" xmlns="http://www.w3.org/2000/svg" viewBox="0 0 256 256"><defs><style>.cls-1{fill:#ba776e;}</style></defs><title>seamless_pattern20</title><path class="cls-1" d="M256,9.23V8.9l-9.08-5.34L253.1,0h-.59l-5.82,3.36V0h-.29V3.53l-9.64,5.56-9.65-5.56V0h-.29V3.36L221,0h-.58l16.07,9.27L226.9,14.8,207.79,3.56,214,0h-.58l-5.82,3.36V0h-.29V3.53l-9.65,5.56L188,3.53V0h-.29V3.36L181.87,0h-.58l16.07,9.27-9.6,5.53L168.65,3.56,174.83,0h-.58l-5.83,3.36V0h-.29V3.53l-9.64,5.56-9.64-5.56V0h-.29V3.36L142.73,0h-.58l16.07,9.27-9.59,5.53L129.52,3.56,135.69,0h-.58l-5.82,3.36V0H129V3.53l-9.64,5.56-9.65-5.56V0h-.29V3.36L103.6,0H103l16.07,9.27-9.6,5.53L90.39,3.56,96.56,0H96L90.16,3.36V0h-.29V3.53L80.22,9.09,70.58,3.53V0h-.29V3.36L64.46,0h-.58L80,9.27,70.36,14.8,51.25,3.56,57.42,0h-.58L51,3.36V0h-.29V3.53L41.09,9.09,31.44,3.53V0h-.29V3.36L25.33,0h-.58L40.82,9.27,31.23,14.8,12.12,3.56,18.29,0h-.58L11.89,3.36V0H11.6V3.53L2,9.09,0,8V8.3l1.69,1L0,10.24v.33L2,9.45,11.6,15v5.35L6.3,23.42,1.93,20.94,0,22v.34l1.93-1.1L6,23.59,2,25.93,0,24.8v.34l1.81,1v5.53L0,30.68V31L1.65,32,0,32.89v.33l1.81-1v5.1L0,38.34v.34l2-1.13L6.38,40.1,2,42.62,0,41.51v.34L2,43l4.72-2.69,4.93,2.84v5.6L2,54.27,0,53.15v.33l1.69,1L0,55.43v.33l2-1.12L11.6,60.2v5.35L6.3,68.61,1.93,66.13,0,67.22v.34l1.93-1.1L6,68.78,2,71.11,0,70v.33l1.81,1.05V76.9L0,75.87v.34l1.65.93L0,78.08v.33l1.81-1v5.11L0,83.53v.34l2-1.13,4.43,2.55L2,87.81,0,86.7V87l2,1.11,4.72-2.69L11.6,88.3v5.6L2,99.46,0,98.34v.33l1.69,1-1.69,1V101l2-1.13,9.65,5.57v5.35L6.3,113.8l-4.37-2.49L0,112.41v.33l1.93-1.09L6,114,2,116.3,0,115.18v.33l1.81,1v5.54l-1.81-1v.33l1.65.94L0,123.27v.33l1.81-1v5.11l-1.81,1v.33l2-1.12,4.43,2.55L2,133,0,131.89v.33l2,1.11,4.72-2.68,4.93,2.84v5.6L2,144.65,0,143.52v.34l1.69,1L0,145.8v.34L2,145l9.65,5.56v5.36L6.3,159,1.93,156.5,0,157.6v.33l1.93-1.09L6,159.15,2,161.49,0,160.36v.34l1.81,1v5.54l-1.81-1v.33l1.65.94L0,168.45v.34l1.81-1v5.1l-1.81,1v.33l2-1.12,4.43,2.55L2,178.19,0,177.08v.33l2,1.11,4.72-2.69,4.93,2.85v5.6L2,189.84,0,188.71v.34l1.69,1L0,191v.34l2-1.13,9.65,5.56v5.36l-5.3,3-4.37-2.48L0,202.79v.33L1.93,202,6,204.34,2,206.68,0,205.55v.34l1.81,1v5.54l-1.81-1v.33l1.65.94L0,213.64V214l1.81-1v5.1L0,219.1v.33l2-1.13,4.43,2.56L2,223.38,0,222.27v.33l2,1.11L6.67,221l4.93,2.85v5.6L2,235,0,233.9v.34l1.69,1-1.69,1v.33l2-1.12L11.6,241v5.36l-5.3,3.05-4.37-2.48L0,248v.33l1.93-1.1L6,249.53,2,251.87,0,250.74v.34l1.81,1V256H2.1v-3.88l4.2-2.42,4.87,2.77L5,256h.58l6.06-3.44V256h.29v-9.36l9.47,5.47V256h.32v-3.89l9.47-5.47V256h.29v-3.42l6,3.42H38l-6.2-3.53,4.88-2.79,4.22,2.44V256h.29v-3.88l4.2-2.42,4.88,2.77L44.09,256h.59l6-3.44V256H51v-9.36l9.48,5.47V256h.31v-3.89l9.48-5.47V256h.29v-3.42l6,3.42h.58L71,252.47l4.89-2.79,4.22,2.44V256h.29v-3.88l4.2-2.42,4.87,2.77L83.22,256h.59l6.06-3.44V256h.29v-9.36l9.47,5.47V256H100v-3.89l9.47-5.47V256h.29v-3.42l6,3.42h.59l-6.21-3.53,4.89-2.79,4.22,2.44V256h.29v-3.88l4.2-2.42,4.87,2.77L122.36,256h.58l6.06-3.44V256h.29v-9.36l9.48,5.47V256h.31v-3.89l9.48-5.47V256h.29v-3.42l6,3.42h.59l-6.2-3.53,4.88-2.79,4.22,2.44V256h.29v-3.88l4.2-2.42,4.88,2.77L161.49,256h.59l6-3.44V256h.29v-9.36l9.48,5.47V256h.31v-3.89l9.48-5.47V256H188v-3.42l6,3.42h.59l-6.21-3.53,4.89-2.79,4.22,2.44V256h.29v-3.88l4.2-2.42,4.87,2.77L200.63,256h.58l6.06-3.44V256h.29v-9.36l9.47,5.47V256h.32v-3.89l9.47-5.47V256h.29v-3.42l6,3.42h.59l-6.2-3.53,4.88-2.79,4.22,2.44V256h.29v-3.88l4.2-2.42,4.88,2.77L239.76,256h.59l6.05-3.44V256h.29v-9.36L256,252v-.34l-9.31-5.36v-5.19l9.31,5.36v-.33l-19-10.94,9.6-5.54,9.37,5.51v-.34l-9.08-5.34,9.08-5.23v-.34l-9.31,5.37v-5.43L256,218.5v-.34l-9.31,5.37V201.45l9.31,5.37v-.34l-9.31-5.36v-5.19L256,201.3V201L237,190l9.6-5.54L256,190v-.34l-9.08-5.34,9.08-5.23v-.34l-9.31,5.37v-5.43l9.31-5.37V173l-9.31,5.36V156.26l9.31,5.37v-.33l-9.31-5.37v-5.19l9.31,5.37v-.34l-19-10.94,9.61-5.54L256,144.8v-.34l-9.08-5.34,9.08-5.23v-.34l-9.31,5.37v-5.43l9.31-5.37v-.33l-9.31,5.36V111.08l9.31,5.36v-.33l-9.31-5.37v-5.19l9.31,5.37v-.33l-19-11,9.6-5.54L256,99.61v-.33l-9.08-5.34L256,88.7v-.33l-9.31,5.36V88.3L256,82.93V82.6L246.69,88V65.89L256,71.26v-.34l-9.31-5.37V60.36L256,65.73V65.4L237,54.46l9.6-5.55L256,54.42v-.33l-9.08-5.34L256,43.51v-.33l-9.31,5.37V43.11L256,37.75v-.34l-9.31,5.37V20.7L256,26.07v-.34l-9.31-5.37V15.18L256,20.54v-.33L237,9.27l9.61-5.54ZM11.6,252.37l-5-2.84,5-2.89ZM227.11,20.7l5,2.88-5,2.84Zm9.65,16.85,4.42,2.55-4.42,2.52-4.43-2.51ZM232,39.94l-4.52-2.57,9.1-5.17v5.1Zm4.87-2.64V32.2L246,37.37l-4.51,2.57Zm-.14-11.37-4.08-2.35,4-2.31,4.08,2.32Zm4.34-2.17L246,26.53l-9.08,5.15v-5.5Zm-4.49,2.42v5.53l-9.1-5.18,4.88-2.79Zm-9.5.46L236.45,32l-9.34,5.31Zm0,10.84,4.63,2.63-4.63,2.67Zm.4,45.08,9.1-5.18v5.11L232,85.13Zm4.23,2.74L227.11,88v-5.3Zm-4.63-2.85V71.82l9.34,5.32Zm9.65.29,4.42,2.55-4.42,2.52-4.43-2.51Zm.14-.25v-5.1L246,82.56l-4.51,2.56Zm-.14-11.38-4.08-2.35,4-2.3,4.08,2.32Zm4.34-2.17L246,71.71l-9.08,5.16v-5.5Zm-4.49,2.43V76.9l-9.1-5.19,4.88-2.78Zm-9.5.23V65.89l5,2.87ZM226.9,60,207.79,48.75l9.4-5.42,19.3,11.13Zm.61,67.75,9.1-5.17v5.11L232,130.32Zm4.23,2.75-4.63,2.66v-5.29Zm-4.63-2.86V117l9.34,5.32Zm9.65.3,4.42,2.55L236.76,133l-4.43-2.52Zm.14-.25v-5.11l9.08,5.17-4.51,2.57Zm-.14-11.38L232.68,114l4-2.3,4.08,2.32Zm4.34-2.17L246,116.9l-9.08,5.16v-5.51Zm-4.49,2.42v5.54l-9.1-5.19,4.88-2.78Zm-9.5.24v-5.71l5,2.87Zm-.22-11.61-19.1-11.24,9.4-5.43,19.3,11.13Zm.62,67.75,9.1-5.17v5.1L232,175.5Zm4.23,2.74-4.63,2.67V173Zm-4.63-2.85V162.2l9.34,5.32Zm9.65.3,4.42,2.55-4.42,2.52-4.43-2.52Zm.14-.26v-5.1l9.08,5.17-4.51,2.57Zm-.14-11.37-4.08-2.35,4-2.3,4.08,2.31Zm4.34-2.17,4.88,2.77-9.08,5.16v-5.51Zm-4.49,2.42v5.54l-9.1-5.19,4.88-2.78Zm-9.5.24v-5.72l5,2.88Zm-.21-11.62-19.11-11.24,9.4-5.42,19.3,11.13Zm.61,67.76,9.1-5.17v5.1L232,220.69Zm4.23,2.74-4.63,2.67v-5.3ZM227.11,218V207.39l9.34,5.32Zm9.65.29,4.42,2.56-4.42,2.52-4.43-2.52Zm.14-.25V213l9.08,5.17-4.51,2.57Zm-.14-11.37-4.08-2.35,4-2.31,4.08,2.32Zm4.34-2.17,4.88,2.77-9.08,5.16v-5.51Zm-4.49,2.42v5.54l-9.1-5.19,4.88-2.78Zm-9.5.24v-5.72l5,2.88Zm-.21-11.62-19.11-11.24,9.4-5.42L236.49,190Zm-19.34,28V201.45l9.47,5.47v11.15ZM217,218.4v5.43l-9.47,5.47v-5.43Zm-9.47-17.28v-5.19l9.47,5.46v5.19ZM197.89,190l9.61-5.54,19.11,11.24-9.42,5.43Zm-29.47,33.51V201.45l9.48,5.47v11.15Zm9.48-5.13v5.43l-9.48,5.47v-5.43Zm-9.48-17.28v-5.19l9.48,5.46v5.19ZM158.76,190l9.61-5.54,19.1,11.24-9.41,5.43Zm-29.47,33.51V201.45l9.48,5.47v11.15Zm9.48-5.13v5.43l-9.48,5.47v-5.43Zm-9.48-17.28v-5.19l9.48,5.46v5.19ZM119.62,190l9.61-5.54,19.11,11.24-9.42,5.43ZM90.16,223.53V201.45l9.47,5.47v11.15Zm9.47-5.13v5.43l-9.47,5.47v-5.43Zm-9.47-17.28v-5.19l9.47,5.46v5.19ZM80.49,190l9.61-5.54,19.11,11.24-9.42,5.43ZM51,223.53V201.45l9.48,5.47v11.15Zm9.48-5.13v5.43L51,229.3v-5.43ZM51,201.12v-5.19l9.48,5.46v5.19ZM41.36,190l9.6-5.54,19.11,11.24-9.42,5.43Zm-19.68,28V206.92l9.47-5.47v22.08Zm9.47,5.8v5.43l-9.47-5.47V218.4Zm-9.47-17.29v-5.19l9.47-5.46v5.19Zm-.32-44.85v11.15l-9.47,5.46V156.26Zm-9.47-5.8v-5.19l9.47,5.47v5.18Zm9.47,17.28v5.44l-9.47,5.46v-5.43Zm.16,5.68L40.82,190l-9.6,5.53-19.1-11.24Zm-.16-62.35v11.15l-9.47,5.46V111.08Zm-9.47-5.8v-5.19L21.36,111v5.19ZM21.36,128v5.44l-9.47,5.46v-5.43Zm.16,5.68,19.3,11.13-9.6,5.53-19.1-11.24Zm-.16-62.35V82.5L11.89,88V65.89Zm-9.47-5.8V60.36l9.47,5.47V71Zm9.47,17.29v5.43l-9.47,5.46V88.3Zm.16,5.67,19.3,11.13-9.6,5.54L12.12,93.94Zm9.63-22.62V88L21.68,82.5V71.35ZM21.68,71V65.83l9.47-5.47v5.19ZM31.15,88.3v5.43l-9.47-5.46V82.84ZM50.31,26.53l-9.08,5.15v-5.5l4.2-2.42Zm-4.59-2.94,5-2.89v5.73Zm5,3V37.28l-9.36-5.34Zm-9.64-.69L37,23.58l4.05-2.31,4.08,2.32Zm-.15.25v5.53l-9.1-5.18,4.88-2.79Zm.15,11.37,4.42,2.55-4.42,2.52-4.43-2.51Zm-4.73,2.39-4.52-2.57,9.1-5.17v5.1Zm4.87-2.64V32.2l9.08,5.17L45.8,39.94Zm9.5.16v5.32L46.09,40.1ZM51,48.91,70.07,60.15l-9.42,5.43L41.36,54.46ZM60.5,26.16V37.31L51,42.78V20.7ZM51,20.36V15.18l9.48,5.46v5.19ZM60.5,37.65v5.43L51,48.55V43.11ZM89.44,26.53l-9.07,5.15v-5.5l4.2-2.42Zm-4.58-2.94,5-2.89v5.73Zm5,3V37.28L80.5,31.94Zm-9.65-.69-4.07-2.35,4-2.31,4.08,2.32Zm-.14.25v5.53L71,26.53l4.89-2.79Zm.14,11.37,4.42,2.55-4.42,2.52-4.43-2.51ZM75.5,39.94,71,37.37l9.11-5.17v5.1Zm4.87-2.64V32.2l9.07,5.17-4.5,2.57Zm9.5.16v5.32L85.23,40.1Zm.23,11.45,19.11,11.24-9.42,5.43L80.49,54.46Zm9.53-22.75V37.31l-9.47,5.47V20.7Zm-9.47-5.8V15.18l9.47,5.46v5.19Zm9.47,17.29v5.43l-9.47,5.47V43.11Zm28.94-11.12-9.07,5.15v-5.5l4.2-2.42ZM124,23.59l5-2.89v5.73Zm5,3V37.28l-9.36-5.34Zm-9.64-.69-4.08-2.35,4-2.31,4.08,2.32Zm-.15.25v5.53l-9.11-5.18L115,23.74Zm.15,11.37,4.42,2.55-4.42,2.52-4.44-2.51Zm-4.73,2.39-4.53-2.57,9.11-5.17v5.1Zm4.87-2.64V32.2l9.08,5.17-4.51,2.57Zm9.5.16v5.32l-4.64-2.68Zm.23,11.45,19.11,11.24-9.42,5.43-19.3-11.12Zm9.54-22.75V37.31l-9.48,5.47V20.7Zm-9.48-5.8V15.18l9.48,5.46v5.19Zm9.48,17.29v5.43l-9.48,5.47V43.11Zm28.94-11.12-9.08,5.15v-5.5l4.2-2.42Zm-4.58-2.94,5-2.89v5.73Zm5,3V37.28l-9.36-5.34Zm-9.64-.69-4.07-2.35,4-2.31,4.08,2.32Zm-.15.25v5.53l-9.1-5.18,4.88-2.79Zm.15,11.37,4.42,2.55-4.42,2.52-4.43-2.51Zm-4.72,2.39-4.53-2.57,9.1-5.17v5.1Zm4.86-2.64V32.2l9.08,5.17-4.5,2.57Zm9.5.16v5.32L163.5,40.1Zm.24,11.45,19.1,11.24-9.41,5.43-19.3-11.12Zm9.53-22.75V37.31l-9.48,5.47V20.7Zm-9.48-5.8V15.18l9.48,5.46v5.19Zm9.48,17.29v5.43l-9.48,5.47V43.11Zm28.94-11.12-9.07,5.15v-5.5l4.2-2.42Zm-4.58-2.94,5-2.89v5.73Zm5,3V37.28l-9.37-5.34Zm-9.65-.69-4.07-2.35,4-2.31,4.08,2.32Zm-.14.25v5.53l-9.11-5.18,4.89-2.79Zm.14,11.37,4.43,2.55-4.43,2.52-4.43-2.51Zm-4.72,2.39-4.53-2.57,9.11-5.17v5.1Zm4.87-2.64V32.2l9.07,5.17-4.5,2.57Zm9.5.16v5.32l-4.64-2.68Zm.23,11.45,19.11,11.24-9.42,5.43-19.3-11.12ZM217,26.16V37.31l-9.47,5.47V20.7Zm-9.47-5.8V15.18L217,20.64v5.19ZM217,37.65v5.43l-9.47,5.47V43.11Zm.32,44.85V71.35l9.47-5.46V88Zm9.47,5.8v5.43l-9.47-5.46V82.84ZM217.35,71V65.83l9.47-5.47v5.19Zm0,56.67V116.54l9.47-5.46v22.07Zm9.47,5.8v5.43l-9.47-5.46V128Zm-9.47-17.28V111l9.47-5.47v5.19Zm-.16-5.44-19.3-11.13,9.61-5.54,19.11,11.24Zm.16,62.11V161.73l9.47-5.47v22.08Zm9.47,5.8v5.43l-9.47-5.46v-5.44Zm-9.47-17.29v-5.18l9.47-5.47v5.19Zm-.16-5.43-19.3-11.13,9.61-5.54,19.11,11.24Zm-9.63,22.38V156.26l9.47,5.47v11.15Zm9.47-5.13v5.44l-9.47,5.46v-5.43Zm-9.47-17.28v-5.19l9.47,5.47v5.18Zm-39.14,22.41V156.26l9.48,5.47v11.15Zm9.48-5.13v5.44l-9.48,5.46v-5.43Zm-9.48-17.28v-5.19l9.48,5.47v5.18Zm-9.66-11.1,9.61-5.54,19.1,11.24L178.06,156Zm-29.47,33.51V156.26l9.48,5.47v11.15Zm9.48-5.13v5.44l-9.48,5.46v-5.43Zm-9.48-17.28v-5.19l9.48,5.47v5.18Zm-9.67-11.1,9.61-5.54,19.11,11.24L138.92,156ZM90.16,178.34V156.26l9.47,5.47v11.15Zm9.47-5.13v5.44l-9.47,5.46v-5.43Zm-9.47-17.28v-5.19l9.47,5.47v5.18Zm-9.67-11.1,9.61-5.54,19.11,11.24L99.79,156ZM51,178.34V156.26l9.48,5.47v11.15Zm9.48-5.13v5.44L51,184.11v-5.43ZM51,155.93v-5.19l9.48,5.47v5.18Zm-9.66-11.1,9.6-5.54,19.11,11.24L60.65,156Zm-.27,28.29,4.42,2.55-4.42,2.52-4.43-2.52Zm-4.73,2.38-4.52-2.57,9.1-5.17v5.1Zm4.87-2.64v-5.1l9.08,5.17L45.8,175.5Zm-.14-11.37L37,159.14l4.05-2.3,4.08,2.31Zm4.34-2.17,4.88,2.77-9.08,5.16v-5.51Zm-4.49,2.42v5.54l-9.1-5.19,4.88-2.78Zm-9.5.24v-5.72l5,2.88Zm9.34,5.54-9.34,5.3V162.2Zm-4.71,8.15-4.63,2.67V173Zm.3.17,4.72,2.68,4.71-2.69,4.93,2.85v5.6l-9.64,5.56-9.65-5.56v-5.6Zm9.72-.17L50.73,173v5.31Zm-4.72-8.17,9.36-5.32v10.66Zm4.35-8.35,5-2.89V162Zm-.29-.16-4.37-2.49L36.72,159l-5.28-3v-5.36L41.09,145l9.64,5.56v5.36Zm4.88-87.28-9.08,5.16v-5.5l4.2-2.43Zm-4.59-2.93,5-2.89v5.73Zm5,3V82.46l-9.36-5.33Zm-9.64-.7L37,68.76l4.05-2.3,4.08,2.32Zm-.15.26V76.9l-9.1-5.19,4.88-2.78Zm.15,11.37,4.42,2.55-4.42,2.52L36.66,85.3Zm-4.73,2.39-4.52-2.57,9.1-5.18v5.11Zm4.87-2.64v-5.1l9.08,5.17L45.8,85.12Zm9.5.16V88l-4.64-2.68ZM51,94.1l19.11,11.24-9.42,5.43L41.36,99.64ZM60.5,71.35V82.5L51,88V65.89ZM51,65.55V60.36l9.48,5.47V71ZM60.5,82.84v5.43L51,93.73V88.3Zm.31,44.85V116.54l9.48-5.46v22.07Zm9.48,5.8v5.43l-9.48-5.46V128Zm-9.48-17.28V111l9.48-5.47v5.19ZM51,133.15V111.08l9.48,5.46v11.15ZM60.5,128v5.44L51,138.92v-5.43ZM51,110.74v-5.19L60.5,111v5.19Zm-.29-5.35v5.35l-5.3,3.06-4.37-2.49-4.34,2.48-5.28-3.05v-5.35l9.65-5.57ZM41.09,116.3,37,114l4.05-2.3L45.14,114Zm4.34-2.17,4.88,2.77-9.08,5.16v-5.51Zm-4.49,2.42v5.54l-9.1-5.19,4.88-2.78Zm.15,11.38,4.42,2.55L41.09,133l-4.43-2.52Zm-4.73,2.39-4.52-2.58,9.1-5.17v5.11Zm4.87-2.64v-5.11l9.08,5.17-4.51,2.57Zm9.5.16v5.31l-4.64-2.67Zm-9.36-5.52L50.73,117v10.66ZM45.72,114l5-2.88v5.73Zm-9.29,0-5,2.84v-5.71Zm4.35,8.38-9.34,5.3V117Zm-4.71,8.16-4.63,2.66v-5.29Zm.3.16,4.72,2.68,4.71-2.68,4.93,2.84v5.6l-9.64,5.56-9.65-5.56v-5.6Zm24.44,42.56,9.48,5.47v5.43l-9.48-5.46Zm0-.33V161.73l9.48-5.47v22.08Zm0-11.49v-5.18l9.48-5.47v5.19Zm-9.56-22.27,9.4-5.42L80,144.83l-9.59,5.53ZM89.44,71.71l-9.07,5.16v-5.5l4.2-2.43Zm-4.58-2.93,5-2.89v5.73Zm5,3V82.46L80.5,77.13Zm-9.65-.7-4.07-2.35,4-2.3,4.08,2.32Zm-.14.26V76.9L71,71.71l4.89-2.78Zm.14,11.37,4.42,2.55-4.42,2.52L75.79,85.3ZM75.5,85.13,71,82.56l9.11-5.18v5.11Zm4.87-2.64v-5.1l9.07,5.17-4.5,2.56Zm9.5.16V88l-4.64-2.68ZM90.1,94.1l19.11,11.24-9.42,5.43L80.49,99.64Zm9.53-22.75V82.5L90.16,88V65.89Zm-9.47-5.8V60.36l9.47,5.47V71Zm9.47,17.29v5.43l-9.47,5.46V88.3Zm.32,44.85V116.54l9.47-5.46v22.07Zm9.47,5.8v5.43L100,133.46V128ZM100,116.21V111l9.47-5.47v5.19Zm-9.79,16.94V111.08l9.47,5.46v11.15ZM99.63,128v5.44l-9.47,5.46v-5.43Zm-9.47-17.28v-5.19L99.63,111v5.19Zm-.29-5.35v5.35l-5.3,3.06-4.38-2.49-4.33,2.48-5.28-3.05v-5.35l9.64-5.57ZM80.22,116.3,76.15,114l4-2.3L84.27,114Zm4.35-2.17,4.87,2.77-9.07,5.16v-5.51Zm-4.49,2.42v5.54L71,116.9l4.89-2.78Zm.14,11.38,4.42,2.55L80.22,133l-4.43-2.52Zm-4.72,2.39L71,127.74l9.11-5.17v5.11Zm4.87-2.64v-5.11l9.07,5.17-4.5,2.57Zm9.5.16v5.31l-4.64-2.67Zm-9.37-5.52L89.87,117v10.66ZM84.86,114l5-2.88v5.73Zm-9.3,0-5,2.84v-5.71Zm4.35,8.38-9.33,5.3V117Zm-4.7,8.16-4.63,2.66v-5.29Zm.29.16,4.72,2.68,4.72-2.68,4.93,2.84v5.6l-9.65,5.56-9.64-5.56v-5.6ZM71,172.93l9.11-5.17v5.1L75.5,175.5Zm4.24,2.74-4.63,2.67V173Zm-4.63-2.85V162.2l9.33,5.32Zm9.64.3,4.42,2.55-4.42,2.52-4.43-2.52Zm.15-.26v-5.1l9.07,5.17-4.5,2.57Zm-.15-11.37-4.07-2.35,4-2.3,4.08,2.31Zm4.35-2.17,4.87,2.77-9.07,5.16v-5.51Zm-4.49,2.42v5.54L71,162.09l4.89-2.78Zm-9.5.24v-5.72l5,2.88Zm0,16.7,4.92-2.84,4.72,2.68,4.72-2.69,4.93,2.85v5.6l-9.65,5.56-9.64-5.56Zm14.65-3L89.87,173v5.31ZM80.5,167.5l9.37-5.32v10.66Zm4.36-8.35,5-2.89V162Zm-.29-.16-4.38-2.49L75.86,159l-5.28-3v-5.36L80.22,145l9.65,5.56v5.36ZM100,173.21l9.47,5.47v5.43L100,178.65Zm0-.33V161.73l9.47-5.47v22.08Zm0-11.49v-5.18l9.47-5.47v5.19Zm-9.56-22.27,9.4-5.42,19.3,11.13-9.6,5.53Zm38.18-67.41-9.07,5.16v-5.5l4.2-2.43ZM124,68.78l5-2.89v5.73Zm5,3V82.46l-9.36-5.33Zm-9.64-.7-4.08-2.35,4-2.3,4.08,2.32Zm-.15.26V76.9l-9.11-5.19L115,68.93Zm.15,11.37,4.42,2.55-4.42,2.52-4.44-2.51Zm-4.73,2.39-4.53-2.57,9.11-5.18v5.11Zm4.87-2.64v-5.1l9.08,5.17-4.51,2.56Zm9.5.16V88l-4.64-2.68Zm.23,11.45,19.11,11.24-9.42,5.43-19.3-11.13Zm9.54-22.75V82.5L129.29,88V65.89Zm-9.48-5.8V60.36l9.48,5.47V71Zm9.48,17.29v5.43l-9.48,5.46V88.3Zm.31,44.85V116.54l9.48-5.46v22.07Zm9.48,5.8v5.43l-9.48-5.46V128Zm-9.48-17.28V111l9.48-5.47v5.19Zm-9.79,16.94V111.08l9.48,5.46v11.15Zm9.48-5.13v5.44l-9.48,5.46v-5.43Zm-9.48-17.28v-5.19l9.48,5.47v5.19Zm-.29-5.35v5.35l-5.3,3.06-4.37-2.49L115,113.79l-5.28-3.05v-5.35l9.65-5.57Zm-9.64,10.91L115.28,114l4-2.3,4.08,2.32Zm4.34-2.17,4.87,2.77-9.07,5.16v-5.51Zm-4.49,2.42v5.54l-9.11-5.19,4.89-2.78Zm.15,11.38,4.42,2.55L119.36,133l-4.44-2.52Zm-4.73,2.39-4.53-2.58,9.11-5.17v5.11Zm4.87-2.64v-5.11l9.08,5.17-4.51,2.57Zm9.5.16v5.31l-4.64-2.67Zm-9.36-5.52L129,117v10.66ZM124,114l5-2.88v5.73Zm-9.29,0-5,2.84v-5.71Zm4.35,8.38-9.34,5.3V117Zm-4.71,8.16-4.63,2.66v-5.29Zm.29.16,4.73,2.68,4.71-2.68,4.93,2.84v5.6l-9.64,5.56-9.65-5.56v-5.6Zm-4.53,42.28,9.11-5.17v5.1l-4.58,2.64Zm4.24,2.74-4.63,2.67V173Zm-4.63-2.85V162.2l9.34,5.32Zm9.65.3,4.42,2.55-4.42,2.52-4.44-2.52Zm.14-.26v-5.1l9.08,5.17-4.51,2.57Zm-.14-11.37-4.08-2.35,4-2.3,4.08,2.31Zm4.34-2.17,4.87,2.77-9.07,5.16v-5.51Zm-4.49,2.42v5.54l-9.11-5.19,4.89-2.78Zm-9.5.24v-5.72l5,2.88Zm0,16.7,4.92-2.84,4.73,2.68,4.71-2.69,4.93,2.85v5.6l-9.64,5.56-9.65-5.56Zm14.65-3L129,173v5.31Zm-4.72-8.17,9.36-5.32v10.66Zm4.35-8.35,5-2.89V162Zm-.29-.16-4.37-2.49L115,159l-5.28-3v-5.36l9.65-5.56,9.64,5.56v5.36Zm15.38,14.22,9.48,5.47v5.43l-9.48-5.46Zm0-.33V161.73l9.48-5.47v22.08Zm0-11.49v-5.18l9.48-5.47v5.19Zm-9.56-22.27,9.4-5.42,19.3,11.13-9.59,5.53Zm38.19-67.41-9.08,5.16v-5.5l4.2-2.43Zm-4.58-2.93,5-2.89v5.73Zm5,3V82.46l-9.36-5.33Zm-9.64-.7-4.07-2.35,4-2.3,4.08,2.32Zm-.15.26V76.9l-9.1-5.19,4.88-2.78Zm.15,11.37,4.42,2.55-4.42,2.52-4.43-2.51Zm-4.72,2.39-4.53-2.57,9.1-5.18v5.11Zm4.86-2.64v-5.1l9.08,5.17-4.5,2.56Zm9.5.16V88l-4.63-2.68Zm.24,11.45,19.1,11.24-9.41,5.43-19.3-11.13Zm9.53-22.75V82.5L168.42,88V65.89Zm-9.48-5.8V60.36l9.48,5.47V71Zm9.48,17.29v5.43l-9.48,5.46V88.3Zm.31,44.85V116.54l9.48-5.46v22.07Zm9.48,5.8v5.43l-9.48-5.46V128Zm-9.48-17.28V111l9.48-5.47v5.19Zm-9.79,16.94V111.08l9.48,5.46v11.15ZM177.9,128v5.44l-9.48,5.46v-5.43Zm-9.48-17.28v-5.19L177.9,111v5.19Zm-.29-5.35v5.35l-5.3,3.06-4.37-2.49-4.34,2.48-5.27-3.05v-5.35l9.64-5.57Zm-9.64,10.91L154.42,114l4-2.3,4.08,2.32Zm4.34-2.17,4.88,2.77-9.08,5.16v-5.51Zm-4.49,2.42v5.54l-9.1-5.19,4.88-2.78Zm.15,11.38,4.42,2.55L158.49,133l-4.43-2.52Zm-4.72,2.39-4.53-2.58,9.1-5.17v5.11Zm4.86-2.64v-5.11l9.08,5.17-4.5,2.57Zm9.5.16v5.31l-4.63-2.67Zm-9.36-5.52,9.36-5.33v10.66Zm4.36-8.36,5-2.88v5.73Zm-9.3,0-5,2.84v-5.71Zm4.35,8.38-9.33,5.3V117Zm-4.71,8.16-4.62,2.66v-5.29Zm.3.16,4.72,2.68,4.71-2.68,4.93,2.84v5.6l-9.64,5.56-9.64-5.56v-5.6Zm-4.53,42.28,9.1-5.17v5.1l-4.57,2.64Zm4.23,2.74-4.62,2.67V173Zm-4.62-2.85V162.2l9.33,5.32Zm9.64.3,4.42,2.55-4.42,2.52-4.43-2.52Zm.14-.26v-5.1l9.08,5.17-4.5,2.57Zm-.14-11.37-4.07-2.35,4-2.3,4.08,2.31Zm4.34-2.17,4.88,2.77-9.08,5.16v-5.51Zm-4.49,2.42v5.54l-9.1-5.19,4.88-2.78Zm-9.49.24v-5.72l5,2.88Zm0,16.7,4.92-2.84,4.72,2.68,4.71-2.69,4.93,2.85v5.6l-9.64,5.56-9.64-5.56Zm14.65-3,4.63-2.64v5.31Zm-4.73-8.17,9.36-5.32v10.66Zm4.36-8.35,5-2.89V162Zm-.3-.16-4.37-2.49L154.12,159l-5.27-3v-5.36l9.64-5.56,9.64,5.56v5.36Zm15.38,14.22,9.48,5.47v5.43l-9.48-5.46Zm0-.33V161.73l9.48-5.47v22.08Zm0-11.49v-5.18l9.48-5.47v5.19Zm-9.56-22.27,9.41-5.42,19.3,11.13-9.6,5.53Zm29-22.82L193.55,114l4-2.3,4.08,2.32Zm4.35-2.17,4.87,2.77-9.07,5.16v-5.51Zm-4.49,2.42v5.54l-9.11-5.19,4.89-2.78Zm.14,11.38,4.43,2.55L197.62,133l-4.43-2.52Zm-4.72,2.39-4.53-2.58,9.11-5.17v5.11Zm4.87-2.64v-5.11l9.07,5.17-4.5,2.57Zm9.5.16v5.31l-4.64-2.67Zm-9.37-5.52,9.37-5.33v10.66Zm4.36-8.36,5-2.88v5.73Zm-.29-.16-4.37-2.49-4.34,2.48L188,110.74v-5.35l9.64-5.57,9.65,5.57v5.35Zm-9,.15-5,2.84v-5.71Zm4.35,8.38-9.34,5.3V117Zm-4.71,8.16L188,133.15v-5.29Zm.29.16,4.72,2.68,4.72-2.68,4.93,2.84v5.6l-9.65,5.56L188,139.09v-5.6Zm-4.53,42.28,9.11-5.17v5.1l-4.58,2.64Zm4.24,2.74L188,178.34V173ZM188,172.82V162.2l9.34,5.32Zm9.64.3,4.43,2.55-4.43,2.52-4.43-2.52Zm.15-.26v-5.1l9.07,5.17-4.5,2.57Zm-.15-11.37-4.07-2.35,4-2.3,4.08,2.31Zm4.35-2.17,4.87,2.77-9.07,5.16v-5.51Zm-4.49,2.42v5.54l-9.11-5.19,4.89-2.78ZM188,162v-5.72l5,2.88Zm0,16.7,4.92-2.84,4.72,2.68,4.72-2.69,4.93,2.85v5.6l-9.65,5.56L188,184.28Zm14.65-3,4.64-2.64v5.31Zm-4.73-8.17,9.37-5.32v10.66Zm4.36-8.35,5-2.89V162ZM202,159l-4.37-2.49L193.26,159l-5.28-3v-5.36l9.64-5.56,9.65,5.56v5.36Zm5.59-25.84V111.08l9.47,5.46v11.15ZM217,128v5.44l-9.47,5.46v-5.43Zm-9.47-17.28v-5.19L217,111v5.19Zm-.72-39-9.07,5.16v-5.5l4.2-2.43Zm-4.58-2.93,5-2.89v5.73Zm5,3V82.46l-9.37-5.33Zm-9.65-.7-4.07-2.35,4-2.3,4.08,2.32Zm-.14.26V76.9l-9.11-5.19,4.89-2.78Zm.14,11.37,4.43,2.55-4.43,2.52-4.43-2.51Zm-4.72,2.39-4.53-2.57,9.11-5.18v5.11Zm4.87-2.64v-5.1l9.07,5.17-4.5,2.56Zm9.5.16V88l-4.64-2.68Zm.29,5.32V65.89L217,71.35V82.5ZM217,82.84v5.43l-9.47,5.46V88.3Zm-9.47-17.29V60.36L217,65.83V71Zm-.29-5.35v5.35L202,68.61l-4.37-2.48-4.34,2.47-5.28-3V60.2l9.64-5.56ZM193,68.76l-5,2.84V65.89Zm4.35,8.38L188,82.45V71.83Zm-4.71,8.16L188,88v-5.3Zm.29.16,4.72,2.69,4.72-2.69,4.93,2.84v5.6l-9.65,5.56L188,93.9V88.3Zm4.46,14.18-9.6,5.54L168.65,93.94l9.41-5.43ZM187.69,88.3v5.43l-9.48-5.46V82.84Zm-9.48-5.8V71.35l9.48-5.46V88Zm9.48-17L178.21,71V65.83l9.48-5.47ZM168.13,60.2v5.35l-5.3,3.06-4.37-2.48-4.34,2.47-5.27-3V60.2l9.64-5.56Zm-14.3,8.56-5,2.84V65.89Zm4.35,8.38-9.33,5.31V71.83Zm-4.71,8.16L148.85,88v-5.3Zm.3.16,4.72,2.69,4.71-2.69,4.93,2.84v5.6l-9.64,5.56-9.64-5.56V88.3Zm4.45,14.18-9.59,5.54L129.52,93.94l9.4-5.43ZM148.56,88.3v5.43l-9.48-5.46V82.84Zm-9.48-5.8V71.35l9.48-5.46V88Zm9.48-17L139.08,71V65.83l9.48-5.47ZM129,60.2v5.35l-5.3,3.06-4.37-2.48L115,68.6l-5.28-3V60.2l9.65-5.56Zm-14.3,8.56-5,2.84V65.89Zm4.35,8.38-9.34,5.31V71.83Zm-4.71,8.16L109.71,88v-5.3Zm.29.16,4.73,2.69,4.71-2.69L129,88.3v5.6l-9.64,5.56-9.65-5.56V88.3Zm4.46,14.18-9.6,5.54L90.38,93.94l9.41-5.43ZM109.42,88.3v5.43L100,88.27V82.84ZM100,82.5V71.35l9.47-5.46V88Zm9.47-17L100,71V65.83l9.47-5.47ZM89.87,60.2v5.35l-5.3,3.06-4.38-2.48L75.86,68.6l-5.28-3V60.2l9.64-5.56ZM75.56,68.76l-5,2.84V65.89Zm4.35,8.38-9.33,5.31V71.83Zm-4.7,8.16L70.58,88v-5.3Zm.29.16,4.72,2.69,4.72-2.69,4.93,2.84v5.6l-9.65,5.56L70.58,93.9V88.3ZM80,99.64l-9.59,5.54L51.25,93.94l9.4-5.43ZM70.29,88.3v5.43l-9.48-5.46V82.84Zm-9.48-5.8V71.35l9.48-5.46V88Zm9.48-17L60.81,71V65.83l9.48-5.47ZM50.73,60.2v5.35l-5.3,3.06-4.37-2.48L36.72,68.6l-5.28-3V60.2l9.65-5.56Zm-14.3,8.56-5,2.84V65.89Zm4.35,8.38-9.34,5.31V71.83ZM36.07,85.3,31.44,88v-5.3Zm.3.16,4.72,2.69,4.71-2.69,4.93,2.84v5.6l-9.64,5.56L31.44,93.9V88.3Zm-5.22,25.62v22.07l-9.47-5.46V116.54Zm-9.47,5.13V111l9.47-5.47v5.19Zm9.47,17.28v5.43l-9.47-5.46V128Zm0,22.77v22.08l-9.47-5.46V161.73Zm-9.47,5.13v-5.18l9.47-5.47v5.19Zm9.47,17.29v5.43l-9.47-5.46v-5.44Zm.69,39.44,9.1-5.17v5.1l-4.58,2.64Zm4.23,2.74-4.63,2.67v-5.3ZM31.44,218V207.39l9.34,5.32Zm9.65.29,4.42,2.56-4.42,2.52-4.43-2.52Zm.14-.25V213l9.08,5.17-4.51,2.57Zm-.14-11.37L37,204.33,41.06,202l4.08,2.32Zm4.34-2.17,4.88,2.77-9.08,5.16v-5.51Zm-4.49,2.42v5.54l-9.1-5.19,4.88-2.78Zm-9.5.24v-5.72l5,2.88Zm0,16.7L36.37,221l4.72,2.68L45.8,221l4.93,2.85v5.6L41.09,235l-9.65-5.56Zm14.65-3,4.64-2.65v5.32Zm-4.72-8.17,9.36-5.32V218Zm4.35-8.35,5-2.89v5.74Zm-.29-.17-4.37-2.48-4.34,2.47-5.28-3v-5.36l9.65-5.56,9.64,5.56v5.36ZM60.81,218.4l9.48,5.47v5.43l-9.48-5.47Zm0-.33V206.92l9.48-5.47v22.08Zm0-11.49v-5.19l9.48-5.46v5.19Zm-9.56-22.27,9.4-5.42L80,190l-9.59,5.53ZM71,218.12,80.08,213v5.1l-4.58,2.64Zm4.24,2.74-4.63,2.67v-5.3ZM70.58,218V207.39l9.33,5.32Zm9.64.29,4.42,2.56-4.42,2.52-4.43-2.52Zm.15-.25V213l9.07,5.17-4.5,2.57Zm-.15-11.37-4.07-2.35,4-2.31,4.08,2.32Zm4.35-2.17,4.87,2.77-9.07,5.16v-5.51Zm-4.49,2.42v5.54L71,207.28l4.89-2.78Zm-9.5.24v-5.72l5,2.88Zm0,16.7L75.5,221l4.72,2.68L84.94,221l4.93,2.85v5.6L80.22,235l-9.64-5.56Zm14.65-3,4.64-2.65v5.32Zm-4.73-8.17,9.37-5.32V218Zm4.36-8.35,5-2.89v5.74Zm-.29-.17-4.38-2.48-4.33,2.47-5.28-3v-5.36l9.64-5.56,9.65,5.56v5.36ZM100,218.4l9.47,5.47v5.43L100,223.83Zm0-.33V206.92l9.47-5.47v22.08Zm0-11.49v-5.19l9.47-5.46v5.19Zm-9.56-22.27,9.4-5.42L119.09,190l-9.6,5.53Zm19.71,33.81,9.11-5.17v5.1l-4.58,2.64Zm4.24,2.74-4.63,2.67v-5.3ZM109.71,218V207.39l9.34,5.32Zm9.65.29,4.42,2.56-4.42,2.52-4.44-2.52Zm.14-.25V213l9.08,5.17-4.51,2.57Zm-.14-11.37-4.08-2.35,4-2.31,4.08,2.32Zm4.34-2.17,4.87,2.77-9.07,5.16v-5.51Zm-4.49,2.42v5.54l-9.11-5.19L115,204.5Zm-9.5.24v-5.72l5,2.88Zm0,16.7,4.92-2.84,4.73,2.68,4.71-2.69,4.93,2.85v5.6L119.36,235l-9.65-5.56Zm14.65-3,4.64-2.65v5.32Zm-4.72-8.17,9.36-5.32V218Zm4.35-8.35,5-2.89v5.74Zm-.29-.17-4.37-2.48L115,204.16l-5.28-3v-5.36l9.65-5.56,9.64,5.56v5.36Zm15.38,14.23,9.48,5.47v5.43l-9.48-5.47Zm0-.33V206.92l9.48-5.47v22.08Zm0-11.49v-5.19l9.48-5.46v5.19Zm-9.56-22.27,9.4-5.42L158.22,190l-9.59,5.53Zm19.72,33.81,9.1-5.17v5.1l-4.57,2.64Zm4.23,2.74-4.62,2.67v-5.3ZM148.85,218V207.39l9.33,5.32Zm9.64.29,4.42,2.56-4.42,2.52-4.43-2.52Zm.14-.25V213l9.08,5.17-4.5,2.57Zm-.14-11.37-4.07-2.35,4-2.31,4.08,2.32Zm4.34-2.17,4.88,2.77-9.08,5.16v-5.51Zm-4.49,2.42v5.54l-9.1-5.19,4.88-2.78Zm-9.49.24v-5.72l5,2.88Zm0,16.7,4.92-2.84,4.72,2.68L163.2,221l4.93,2.85v5.6L158.49,235l-9.64-5.56Zm14.65-3,4.63-2.65v5.32Zm-4.73-8.17,9.36-5.32V218Zm4.36-8.35,5-2.89v5.74Zm-.3-.17-4.37-2.48-4.34,2.47-5.27-3v-5.36l9.64-5.56,9.64,5.56v5.36Zm15.38,14.23,9.48,5.47v5.43l-9.48-5.47Zm0-.33V206.92l9.48-5.47v22.08Zm0-11.49v-5.19l9.48-5.46v5.19Zm-9.56-22.27,9.41-5.42L197.36,190l-9.6,5.53Zm19.72,33.81,9.11-5.17v5.1l-4.58,2.64Zm4.24,2.74L188,223.53v-5.3ZM188,218V207.39l9.34,5.32Zm9.64.29,4.43,2.56-4.43,2.52-4.43-2.52Zm.15-.25V213l9.07,5.17-4.5,2.57Zm-.15-11.37-4.07-2.35,4-2.31,4.08,2.32Zm4.35-2.17,4.87,2.77-9.07,5.16v-5.51Zm-4.49,2.42v5.54l-9.11-5.19,4.89-2.78Zm-9.5.24v-5.72l5,2.88Zm0,16.7L192.9,221l4.72,2.68,4.72-2.69,4.93,2.85v5.6L197.62,235,188,229.47Zm14.65-3,4.64-2.65v5.32Zm-4.73-8.17,9.37-5.32V218Zm4.36-8.35,5-2.89v5.74Zm-.29-.17-4.37-2.48-4.34,2.47-5.28-3v-5.36l9.64-5.56,9.65,5.56v5.36Zm15.38,14.23,9.47,5.47v5.43l-9.47-5.47Zm0-.33V206.92l9.47-5.47v22.08Zm0-11.49v-5.19l9.47-5.46v5.19Zm9.47-163.47v5.44l-9.47-5.47V37.65Zm-9.47-5.8V26.16l9.47-5.46V42.78Zm9.47-17-9.47,5.47V20.64l9.47-5.46ZM207.5,3.73,226.61,15l-9.42,5.43L197.89,9.27ZM188,15l9.64-5.56L207.27,15v5.35L202,23.42l-4.37-2.48-4.34,2.47L188,20.36Zm0,5.69,5,2.88-5,2.84Zm0,5.94L197.32,32,188,37.26Zm0,10.84,4.63,2.63L188,42.78Zm0,5.63,4.92-2.84L197.62,43l4.72-2.69,4.93,2.84v5.6l-9.65,5.56L188,48.71Zm9.38,11.35L187.76,60,168.65,48.75l9.41-5.42Zm-9.67-11.35v5.44l-9.48-5.47V37.65Zm-9.48-5.8V26.16l9.48-5.46V42.78Zm9.48-17-9.48,5.47V20.64l9.48-5.46ZM168.37,3.73,187.47,15l-9.41,5.43L158.76,9.27ZM148.85,15l9.64-5.56L168.13,15v5.35l-5.3,3.06-4.37-2.48-4.34,2.47-5.27-3.05Zm0,5.69,5,2.88-5,2.84Zm0,5.94L158.18,32l-9.33,5.31Zm0,10.84,4.62,2.63-4.62,2.67Zm0,5.63,4.92-2.84L158.49,43l4.71-2.69,4.93,2.84v5.6l-9.64,5.56-9.64-5.56Zm9.37,11.35L148.63,60,129.52,48.75l9.4-5.42Zm-9.66-11.35v5.44l-9.48-5.47V37.65Zm-9.48-5.8V26.16l9.48-5.46V42.78Zm9.48-17-9.48,5.47V20.64l9.48-5.46ZM129.23,3.73,148.34,15l-9.42,5.43L119.62,9.27ZM109.71,15l9.65-5.56L129,15v5.35l-5.3,3.06-4.37-2.48L115,23.41l-5.28-3.05Zm0,5.69,5,2.88-5,2.84Zm0,5.94L119.05,32l-9.34,5.31Zm0,10.84,4.63,2.63-4.63,2.67Zm0,5.63,4.92-2.84L119.36,43l4.71-2.69L129,43.11v5.6l-9.64,5.56-9.65-5.56Zm9.38,11.35L109.49,60,90.39,48.75l9.4-5.42Zm-9.67-11.35v5.44L100,43.08V37.65ZM100,37.31V26.16l9.47-5.46V42.78Zm9.47-17L100,25.83V20.64l9.47-5.46ZM90.1,3.73,109.21,15,99.79,20.4,80.49,9.27ZM70.58,15l9.64-5.56L89.87,15v5.35l-5.3,3.06-4.38-2.48-4.33,2.47-5.28-3.05Zm0,5.69,5,2.88-5,2.84Zm0,5.94L79.91,32l-9.33,5.31Zm0,10.84,4.63,2.63-4.63,2.67Zm0,5.63,4.92-2.84L80.22,43l4.72-2.69,4.93,2.84v5.6l-9.65,5.56-9.64-5.56ZM80,54.46,70.36,60,51.25,48.75l9.4-5.42ZM70.29,43.11v5.44l-9.48-5.47V37.65Zm-9.48-5.8V26.16l9.48-5.46V42.78Zm9.48-17-9.48,5.47V20.64l9.48-5.46ZM51,3.73,70.07,15,60.65,20.4,41.36,9.27ZM31.44,15l9.65-5.56L50.73,15v5.35l-5.3,3.06-4.37-2.48-4.34,2.47-5.28-3.05Zm0,5.69,5,2.88-5,2.84Zm0,5.94L40.78,32l-9.34,5.31Zm0,10.84,4.63,2.63-4.63,2.67Zm0,5.63,4.93-2.84L41.09,43l4.71-2.69,4.93,2.84v5.6l-9.64,5.56-9.65-5.56Zm9.38,11.35L31.22,60,12.12,48.75l9.4-5.42ZM21.36,26.16V37.31l-9.47,5.47V20.7Zm-9.47-5.8V15.18l9.47,5.46v5.19Zm9.47,17.29v5.43l-9.47,5.47V43.11Zm9.79,5.46v5.44l-9.47-5.47V37.65Zm-9.47-5.8V26.16l9.47-5.46V42.78Zm9.47-17-9.47,5.47V20.64l9.47-5.46ZM2.22,9.27l9.61-5.54L30.94,15,21.52,20.4ZM11.6,20.7v5.73l-5-2.84ZM2.1,26.18l4.2-2.42,4.87,2.77L2.1,31.68Zm9.5.44V37.28L2.23,31.94ZM2.1,37.3V32.2l9.07,5.17-4.5,2.57ZM7,40.1l4.64-2.64v5.32ZM2.22,54.46l9.61-5.55L30.94,60.15l-9.42,5.43ZM11.6,65.89v5.73l-5-2.84ZM2.1,71.37l4.2-2.43,4.87,2.77L2.1,76.87Zm9.5.44V82.46L2.23,77.13ZM2.1,82.49v-5.1l9.07,5.17-4.5,2.56ZM7,85.29l4.64-2.64V88ZM2.22,99.64l9.61-5.54,19.11,11.24-9.42,5.43Zm9.38,11.44v5.73l-5-2.85Zm-9.5,5.47,4.2-2.42,4.87,2.77L2.1,122.06Zm9.5.44v10.66l-9.37-5.33ZM2.1,127.68v-5.11l9.07,5.17-4.5,2.57ZM7,130.48l4.64-2.64v5.31ZM2.22,144.83l9.61-5.54,19.11,11.24L21.52,156Zm9.38,11.43V162l-5-2.85Zm-9.5,5.48,4.2-2.42,4.87,2.77L2.1,167.25Zm9.5.44v10.66L2.23,167.5ZM2.1,172.86v-5.1l9.07,5.17-4.5,2.57ZM7,175.67,11.6,173v5.31ZM2.22,190l9.61-5.54,19.11,11.24-9.42,5.43Zm9.67,33.51V201.45l9.47,5.47v11.15Zm9.47-5.13v5.43l-9.47,5.47v-5.43Zm-9.47-17.28v-5.19l9.47,5.46v5.19Zm-.29.33v5.74l-5-2.85Zm-9.5,5.48,4.2-2.42,4.87,2.77L2.1,212.44Zm9.5.44V218l-9.37-5.34ZM2.1,218.05V213l9.07,5.17-4.5,2.57ZM7,220.86l4.64-2.65v5.32Zm14.4,30.91-9.47-5.46v-5.19l9.47,5.46Zm.16-5.43L2.22,235.21l9.61-5.54,19.11,11.24Zm9.63,0-9.47,5.46v-5.19l9.47-5.46Zm.07-5.57L12.12,229.5l9.4-5.42,19.3,11.13Zm.22,11.62v-5.72l5,2.88Zm9.65-.49L37,249.52l4.05-2.31,4.08,2.32Zm9.64.5-5-2.84,5-2.89Zm0-6.06-5.3,3.05-4.37-2.48-4.34,2.47-5.28-3V241l9.65-5.56L50.73,241Zm9.77,5.46L51,246.31v-5.19l9.48,5.46Zm.15-5.43L41.36,235.21l9.6-5.54,19.11,11.24Zm9.64,0-9.48,5.46v-5.19l9.48-5.46Zm.07-5.57L51.25,229.5l9.4-5.42L80,235.21Zm.22,11.62v-5.72l5,2.88Zm9.64-.49-4.07-2.35,4-2.31,4.08,2.32Zm9.65.5-5-2.84,5-2.89Zm0-6.06-5.3,3.05-4.38-2.48-4.33,2.47-5.28-3V241l9.64-5.56L89.87,241Zm9.76,5.46-9.47-5.46v-5.19l9.47,5.46Zm.16-5.43-19.3-11.13,9.61-5.54,19.11,11.24Zm9.63,0L100,251.77v-5.19l9.47-5.46Zm.07-5.57L90.38,229.5l9.41-5.42,19.3,11.13Zm.22,11.62v-5.72l5,2.88Zm9.65-.49-4.08-2.35,4-2.31,4.08,2.32Zm9.64.5-5-2.84,5-2.89Zm0-6.06-5.3,3.05-4.37-2.48L115,249.35l-5.28-3V241l9.65-5.56L129,241Zm9.77,5.46-9.48-5.46v-5.19l9.48,5.46Zm.15-5.43-19.3-11.13,9.61-5.54,19.11,11.24Zm9.64,0-9.48,5.46v-5.19l9.48-5.46Zm.07-5.57L129.52,229.5l9.4-5.42,19.3,11.13Zm.22,11.62v-5.72l5,2.88Zm9.64-.49-4.07-2.35,4-2.31,4.08,2.32Zm9.64.5-5-2.84,5-2.89Zm0-6.06-5.3,3.05-4.37-2.48-4.34,2.47-5.27-3V241l9.64-5.56,9.64,5.56Zm9.77,5.46-9.48-5.46v-5.19l9.48,5.46Zm.16-5.43-19.3-11.13,9.61-5.54,19.1,11.24Zm9.63,0-9.48,5.46v-5.19l9.48-5.46Zm.07-5.57L168.65,229.5l9.41-5.42,19.3,11.13Zm.22,11.62v-5.72l5,2.88Zm9.64-.49-4.07-2.35,4-2.31,4.08,2.32Zm9.65.5-5-2.84,5-2.89Zm0-6.06-5.3,3.05-4.37-2.48-4.34,2.47-5.28-3V241l9.64-5.56,9.65,5.56Zm9.76,5.46-9.47-5.46v-5.19l9.47,5.46Zm.16-5.43-19.3-11.13,9.61-5.54,19.11,11.24Zm9.63,0-9.47,5.46v-5.19l9.47-5.46Zm.07-5.57-19.1-11.24,9.4-5.42,19.3,11.13Zm.22,11.62v-5.72l5,2.88Zm9.65-.49-4.08-2.35,4-2.31,4.08,2.32Zm9.64.5-5-2.84,5-2.89Zm0-11.42v5.36l-5.3,3.05-4.37-2.48-4.34,2.47-5.28-3V241l9.65-5.56Zm0-11.48L236.76,235l-9.65-5.56v-5.6L232,221l4.72,2.68,4.71-2.69,4.93,2.85Zm0-5.94-4.64-2.67,4.64-2.65Zm0-5.5L237,212.69l9.36-5.32Zm0-10.84-5-2.85,5-2.89Zm0-11.43v5.36l-5.3,3-4.37-2.48-4.34,2.47-5.28-3v-5.36l9.65-5.56Zm0-11.48-9.64,5.56-9.65-5.56v-5.6l4.93-2.84,4.72,2.68,4.71-2.69,4.93,2.85Zm0-5.94-4.64-2.67L246.4,173Zm0-5.5L237,167.5l9.36-5.32Zm0-10.84-5-2.85,5-2.89Zm0-11.43v5.36L241.1,159l-4.37-2.49L232.39,159l-5.28-3v-5.36l9.65-5.56Zm0-11.48-9.64,5.56-9.65-5.56v-5.6l4.93-2.84,4.72,2.68,4.71-2.68,4.93,2.84Zm0-5.94-4.64-2.67,4.64-2.64Zm0-5.5L237,122.32,246.4,117Zm0-10.84-5-2.85,5-2.88Zm0-11.42v5.35l-5.3,3.06-4.37-2.49-4.34,2.48-5.28-3.05v-5.35l9.65-5.57Zm0-11.49-9.64,5.56-9.65-5.56V88.3L232,85.46l4.72,2.69,4.71-2.69,4.93,2.84Zm0-5.93-4.64-2.68,4.64-2.64Zm0-5.51L237,77.13l9.36-5.32Zm0-10.84-5-2.84,5-2.89Zm0-11.42v5.35l-5.3,3.06-4.37-2.48-4.34,2.47-5.28-3V60.2l9.65-5.56Zm0-11.49-9.64,5.56-9.65-5.56v-5.6L232,40.27,236.76,43l4.71-2.69,4.93,2.84Zm0-5.93-4.64-2.68,4.64-2.64Zm0-5.5L237,31.94l9.36-5.32Zm0-10.85-5-2.84,5-2.89Zm0-11.42v5.35l-5.3,3.06-4.37-2.48-4.34,2.47-5.28-3.05V15l9.65-5.56Z"/></svg>