<svg xmlns="http://www.w3.org/2000/svg" viewBox="0 0 256 256"><defs><style>.cls-1{fill:#595854;}</style></defs><title>seamless_pattern03</title><g id="seamless_pattern03"><path class="cls-1" d="M252.91,8.26,250.74,12h0l-.7,1.22L247,8l4.61-8h-.26l-4.48,7.74-3.1-5.37h0L242.4,0h-.25l7.76,13.45-3,5.24-.05.08-3-5.26,0-.09h0l-3.23-5.59h0l-3.07-5.36L238.9,0h-.23l-4.48,7.73-.09-.16L229.63,0h-.26l1.39,2.41h0l-3.16,5.52-.05,0,0,0-.54.93-1,1.67L225.24,12h0l-.69,1.2-3.07-5.32L226,0h-.23l-4.46,7.69-3.07-5.3h0L216.91,0h-.24l1.41,2.44-3.34,5.82h0L212.57,12h0l-.7,1.22-3-5.26,4.61-8h-.26l-4.48,7.74-3.1-5.37h0L204.23,0H204l7.76,13.45-3,5.22-.05.1-3-5.26-.05-.09h0l-3.23-5.59h0l-3.08-5.36L200.73,0h-.23L196,7.73l-.1-.16L191.47,0h-.27l1.39,2.41h0l-3.16,5.52,0,0V8l-.54.94-1,1.67L187.07,12h0l-.69,1.2L183.3,7.92,187.87,0h-.23l-4.46,7.69-3.07-5.3h0L178.74,0h-.24l1.41,2.44-3.34,5.82h0L174.4,12h0l-.7,1.22-3-5.26,4.61-8H175l-4.48,7.74-3.1-5.37h0L166.06,0h-.25l7.77,13.45-3,5.22-.06.1-3-5.26,0-.09h0l-3.23-5.59h0l-3.08-5.36L162.57,0h-.24l-4.47,7.73-.09-.16L153.3,0H153l1.39,2.41h0l-3.17,5.52,0,0V8l-.45.79-1.08,1.88L148.9,12h0l-.69,1.2-3.08-5.32L149.7,0h-.23L145,7.69l-3.08-5.3h0L140.57,0h-.24l1.41,2.44L138.4,8.26h0L136.23,12h0l-.7,1.22-3-5.26,4.61-8h-.26l-4.48,7.74-3.1-5.37h0L127.9,0h-.26l7.77,13.45-3,5.23-.05.09-3-5.26-.05-.09h0l-3.23-5.59h0L123,2.47,124.4,0h-.24l-4.47,7.73-.09-.16L115.13,0h-.27l1.4,2.41h0l-3.17,5.52,0,0V8l-.68,1.2-.75,1.29L110.73,12h0l-.69,1.2L107,7.92,111.53,0h-.23l-4.45,7.69-3.07-5.3h0L102.4,0h-.24l1.41,2.44-3.34,5.82h0L98.06,12h0l-.71,1.22L94.31,8l4.62-8h-.27L94.19,7.74,91.08,2.37h0L89.73,0h-.25l7.76,13.45-3,5.24,0,.08-3-5.26-.05-.09h0L87.88,7.82h0L84.8,2.47,86.23,0H86L81.52,7.73l-.09-.16L77,0h-.27l1.4,2.41h0L74.94,7.92l0,0V8L74.2,9.21l-.78,1.36L72.56,12h0l-.69,1.2L68.79,7.92,73.37,0h-.24L68.68,7.69l-3.07-5.3h0L64.24,0H64l1.42,2.44L62.06,8.26h0L59.9,12h0l-.7,1.22L56.15,8l4.61-8h-.27L56,7.74,52.91,2.37h0L51.56,0h-.25l7.76,13.45-3,5.22-.06.1-3-5.26,0-.09h0L49.72,7.82h0L46.64,2.47,48.06,0h-.23L43.35,7.73l-.09-.16L38.79,0h-.26l1.39,2.41h0L36.77,7.92l0,0,0,0-.54.94-1,1.67L34.4,12h0l-.69,1.2L30.63,7.92,35.2,0H35L30.51,7.69l-3.07-5.3h0L26.07,0h-.24l1.41,2.44L23.89,8.26h0L21.73,12h0L21,13.25,18,8l4.61-8h-.26L17.85,7.74l-3.1-5.37h0L13.39,0h-.25L20.9,13.45l-3,5.22,0,.1-3-5.26-.05-.09h0L11.55,7.82h0L8.47,2.47,9.89,0H9.66L5.18,7.73l-.09-.16L.62,0H.36L1.75,2.41h0L0,5.49v.4L1.9,2.57,5.09,8V8h0l3.16,5.46h0L6.58,16.41,5.19,18.8l-.1-.17L0,10H0v.42l1.76,3.05h0L0,16.55V17l1.91-3.33L5.09,19l0,.05h0l3.15,5.46,0,0L5.74,29l-.5.87-.15-.26L4.73,29,0,21v.39l1.24,2.09L0,25.57V26l1.36-2.28L4.5,29l.59,1,0,.06v0l0,0,0,0h0l.1.06L6,29l5.58-9.7,2.5,4.34-2.52,4.23h0l-.08.14h0v0h0l-.56,1L10,30.47,5.18,38.78l-.09-.16L0,30H0v.44l1.75,3h0L0,36.53v.4l1.9-3.31L5.09,39v0h0l3.16,5.46h0l-1.73,3L5.19,49.85l-.1-.18L0,41H0v.43l1.76,3h0L0,47.59V48l1.91-3.33,3.18,5.4,0,.06h0l3.15,5.45h0L5.74,60l-.48.85,0,0-.15-.25L4.73,60,0,52v.39l1.24,2.09L0,56.61V57l1.36-2.29L4.5,60l.59,1,0,.07v0h0l0,0,0,0h0l.1.06L6,60l5.58-9.69,2.5,4.34-2.52,4.22h0l-.1.17h0l-.56,1-.95,1.64L5.19,69.82l-.1-.16L0,61H0v.44l1.75,3h0L0,67.58V68l1.9-3.32,3.19,5.42v0h0l3.16,5.46h0l-1.7,3L5.19,80.89l-.1-.17L0,72.07H0v.42l1.76,3h0L0,78.64V79l1.91-3.32,3.18,5.4,0,0h0l3.15,5.45h0L5.74,91l-.5.87-.15-.26L4.73,91,0,83.09v.38l1.24,2.1L0,87.65V88l1.36-2.28L4.5,91l.59,1,0,.06v0l0,0,0,0h0l.1.06L6,91l5.58-9.7,2.5,4.34-2.52,4.23h0l-.1.17h0l-.56,1L10,92.61l-4.78,8.25-.09-.15L0,92.07H0v.43l1.75,3,0,0L0,98.62V99l1.9-3.31,3.19,5.41v0h0l3.16,5.46h0l-1.69,2.94-1.39,2.39-.1-.17L0,103.12H0v.43l1.76,3h0L0,109.68v.4l1.91-3.33,3.18,5.4,0,0h0l3.15,5.45h0l-2.55,4.43-.5.87-.15-.26-.36-.61-4.73-8v.39l1.24,2.09L0,118.7v.39l1.36-2.29,3.14,5.28.59,1,0,.07v0l0,0,0,0h0l.1.06L6,122.08l5.58-9.7,2.5,4.34L11.53,121h0l-.08.14h0v0h0l-.56,1L10,123.6l-4.81,8.31-.09-.16L0,123.12H0v.44l1.75,3h0L0,129.67v.39l1.9-3.31,3.19,5.42v0h0l3.16,5.47,0,0-1.69,2.94L5.19,143l-.1-.18L0,134.16H0v.43l1.76,3,0,0L0,140.73v.39l1.91-3.32,3.18,5.39,0,.06h0l3.15,5.45h0l-2.55,4.44-.48.84,0,0-.15-.25-.36-.61-4.73-8v.39l1.24,2.09L0,149.74v.39l1.36-2.28,3.14,5.28.59,1,0,.06v0h0l0,0,0,0h0l.1.06L6,153.13l5.58-9.7,2.5,4.34L11.53,152h0l-.1.17h0l-.56,1-.95,1.63L5.19,163l-.1-.16L0,154.16H0v.43l1.75,3,0,0L0,160.71v.4l1.9-3.32,3.19,5.42v0h0l3.16,5.46h0l-1.7,3L5.19,174l-.1-.17L0,165.21H0v.43l1.76,3h0L0,171.77v.4l1.91-3.33,3.18,5.4,0,0h0l3.15,5.46,0,0-2.55,4.44-.48.85,0,0-.15-.26-.36-.61L0,176.22v.39l1.24,2.09L0,180.79v.38l1.36-2.28,3.14,5.28.59,1,0,.07v0h0l0,0,0,0h0l.1,0L6,184.17l5.58-9.7,2.5,4.34L11.53,183h0l-.1.16h0l-.56,1L10,185.75,5.19,194l-.1-.16L0,185.21H0v.44l1.75,3h0L0,191.76v.39l1.9-3.31,3.19,5.42v0h0l3.16,5.46h0l-1.69,2.94-1.39,2.4-.1-.18L0,196.25H0v.43l1.76,3,0,0L0,202.81v.4l1.91-3.33,3.18,5.4,0,.06h0l3.15,5.45h0l-2.55,4.43-.5.87-.15-.25-.36-.62-4.73-8v.39l1.24,2.09L0,211.83v.39l1.36-2.28,3.14,5.27.59,1,0,.07v0l0,0,0,0h0l.1.06L6,215.21l5.58-9.69,2.5,4.34-2.52,4.22h0l-.08.14h0v0h0l-.56,1L10,216.73,5.18,225l-.09-.16L0,216.25H0v.43l1.75,3h0L0,222.8v.4l1.9-3.32,3.19,5.42v0h0l3.16,5.46h0l-1.69,2.94-1.39,2.39-.1-.17L0,227.29H0v.42l1.76,3.05h0L0,233.86v.4l1.91-3.33,3.18,5.4,0,0h0l3.15,5.46,0,0-2.55,4.44-.48.85,0,0-.15-.26-.36-.61L0,238.31v.38l1.24,2.1L0,242.88v.38L1.36,241l3.14,5.28.59,1,0,.06v0h0l0,0,0,0h0l.1.06L6,246.26l5.58-9.7,2.5,4.34-2.52,4.23h0l-.1.17h0l-.56,1-.95,1.64L5.23,256h.25l2.87-5,2.86,5h.23l-3-5.18,2.63-4.56.37-.63,0-.09.41.72L17.55,256h.25l-3.05-5.27h0l-2.58-4.46-.54-.94,2.52-4.22,3,5.16.66,1.14.1-.06.07,0,.64-1.12,3.31-5.76h0l1.58-2.76.7-1.21,2.52,4.38-2.6,4.36,0,0h0l-.54.93L17.9,256h.27l5.63-9.74.35-.61.06-.1.41.71,2.62,4.54-3,5.2h.23l2.87-5,2.89,5h.25l-3-5.26h0l-2.58-4.48-.55-.94,2.51-4.21,3,5.15.66,1.16.11-.06.06,0,.66-1.13,3.3-5.74h0l1.73-3,.57-1,2.54,4.27-2.38,4-.17.29h0l-.22.39-.46.8L30.54,256h.24l5.32-9.22.31-.52.45-.79.46.79,2.6,4.51h0l-3,5.24h.23l2.91-5.07,3,5.07h.24l0-.07-5.7-9.67-.58-1,.22-.38L39.53,241l3.14,5.28.59,1,0,.06v0h0l0,0,0,0h0l.1.06.68-1.18,5.58-9.7,2.49,4.34-2.51,4.23h0l-.1.17h0l-.56,1-.95,1.64L43.4,256h.25l2.87-5,2.86,5h.23l-3-5.18,2.63-4.56.36-.63,0-.09.42.72L55.72,256H56l-3.06-5.27h0l-2.58-4.46-.54-.94,2.52-4.22,3,5.16.65,1.14.11-.06.07,0,.64-1.12,3.31-5.76h0l1.61-2.81.67-1.16,2.51,4.38-2.59,4.36,0,0h0l-.54.93L56.07,256h.27L62,246.26l.35-.61.06-.1.4.71,2.63,4.54-3,5.2h.23l2.87-5,2.89,5h.24l-3-5.26h0L63,246.26l-.55-.94L65,241.11l3,5.15.67,1.16.11-.06.06,0,.65-1.13,3.31-5.74h0l2-3.41.34-.59,2.54,4.27-2.38,4-.17.29h0l-.22.39-.47.8L68.71,256H69l5.52-9.57.11-.17.45-.79.45.79,2.61,4.51h0l-3,5.24h.23l2.91-5.07,3,5.07h.24l0-.07-5.7-9.67-.51-.87,0-.08h0l0,0,.22-.38L77.7,241l3.13,5.28.6,1,0,.06v0h0l0,0,0,0h0l.1.06.68-1.18,5.58-9.7,2.49,4.34-2.51,4.23h0l-.08.14h0v0h0l-.55,1-.89,1.53L81.57,256h.24l2.88-5,2.86,5h.23l-3-5.18,2.64-4.56.37-.64,0-.08.42.72L93.89,256h.24l-3-5.27h0l-2.57-4.46-.54-.94,2.52-4.22,3,5.16.65,1.14.11-.06.06,0,.65-1.12,3.31-5.76h0l1.84-3.19.45-.78,2.51,4.38-2.59,4.36,0,0h0l-.54.93L94.24,256h.27l5.63-9.74.35-.62.05-.09.41.71,2.62,4.54-3,5.2h.22l2.88-5,2.89,5h.24l-3-5.26h0l-2.59-4.48-.54-.94,2.51-4.21,3,5.15.67,1.16.1-.06.07,0,.65-1.13,3.3-5.74h0l2-3.41.34-.59,2.54,4.27-2.38,4-.17.29h0l-.09.15-.6,1L106.87,256h.25l5.5-9.53.12-.21.46-.79.45.79,2.61,4.51h0l-3,5.24h.22l2.92-5.07,3,5.07h.25l0-.07-5.71-9.67-.58-1,.23-.38,2.32-3.91,3.14,5.28.6,1,0,.06,0,0h0l0,0,0,0h0l.11.06.68-1.18,5.58-9.7,2.49,4.34L126,245.13h0l-.09.17h0l-.55,1-.89,1.53L119.74,256H120l2.88-5,2.86,5H126l-3-5.18,2.64-4.56.36-.64,0-.08.41.72,5.63,9.74h.24l-3.05-5.27h0l-2.57-4.46-.54-.94,2.51-4.22,3,5.16.65,1.14.11-.06.06,0,.65-1.12,3.31-5.76h0l1.84-3.19.45-.78,2.51,4.38-2.6,4.36,0,0h0l-.54.93L132.41,256h.27l5.62-9.74.36-.62.05-.09.41.71,2.62,4.54-3,5.2H139l2.88-5,2.89,5H145l-3-5.26h0l-2.59-4.48-.54-.94,2.5-4.21,3,5.15.67,1.16.1-.06.07,0,.65-1.13,3.3-5.74h0l1.78-3.1.52-.9,2.54,4.27-2.39,4-.16.29h0l-.23.39-.46.8L145,256h.25l5.53-9.59.09-.15.46-.79.45.79,2.6,4.51h0l-3,5.24h.23l2.92-5.07,3,5.07h.25l0-.07-5.71-9.67-.51-.87-.05-.08h0l0,0,.22-.38L154,241l3.14,5.28.6,1,0,.06v0h0l0,0,0,0h0l.1.06.69-1.18,5.58-9.7,2.49,4.34-2.52,4.23h0l-.1.17h0l-.56,1-.83,1.43-4.8,8.31h.24l2.88-5,2.86,5h.22l-3-5.18,2.64-4.56.36-.63.05-.09.41.72,5.63,9.74h.24l-3.05-5.27h0l-2.58-4.46-.53-.94,2.51-4.22,3,5.16.66,1.14.11-.06.06,0,.64-1.12,3.32-5.76h0l1.66-2.89.62-1.08,2.52,4.38-2.6,4.36,0,0h0l-.54.93L170.57,256h.28l5.62-9.74.36-.62,0-.09.41.71,2.62,4.54-3,5.2h.23l2.87-5,2.89,5h.25l-3-5.26h0l-2.59-4.48-.54-.94,2.5-4.21,3,5.15.66,1.16.11-.06.07,0,.65-1.13,3.3-5.74h0l1.7-3,.61-1,2.53,4.27-2.38,4h0l-.16.29h0l-.22.39-.46.8L183.21,256h.25l5.32-9.22.3-.52.46-.79.45.79,2.6,4.51h0l-3,5.24h.23l2.91-5.07,3,5.07H196l0-.07-5.7-9.67-.51-.87-.05-.08h0l0,0,.22-.38h0L192.2,241l3.14,5.28.59,1,0,.06v0h0l0,0v0h0l.1.06.68-1.18,5.59-9.7,2.49,4.34-2.52,4.23h0l-.08.14h0v0h0l-.56,1-1,1.69L196.08,256h.24l2.87-5,2.86,5h.23l-3-5.18,2.63-4.56.37-.63.05-.09.41.72,5.62,9.74h.25l-3-5.27h0L203,246.26l-.54-.94L205,241.1l3,5.16.66,1.14.11-.06.06,0,.64-1.12,3.32-5.76h0l1.58-2.76.7-1.21,2.52,4.38-2.6,4.36h0l0,0h0l-.54.93L208.74,256H209l5.62-9.74.35-.61.06-.1.41.71,2.62,4.54-3,5.2h.23l2.87-5,2.89,5h.25l-3.05-5.26h0l-2.58-4.48-.54-.94,2.5-4.21,3,5.15.66,1.16.11-.06.06,0,.66-1.13,3.3-5.74h0l2-3.41.34-.59,2.54,4.27-2.38,4h0l-.17.29h0l-.08.15-.6,1L221.38,256h.24l5.33-9.22.3-.52.45-.79.46.79,2.6,4.51h0l-3,5.24H228l2.91-5.07,3,5.07h.24l0-.07-5.7-9.67-.58-1,.22-.38h0l2.33-3.91,3.14,5.28.59,1,0,.06v0h0l0,0,0,0h0l.1.06.68-1.18,5.58-9.7,2.5,4.34-2.52,4.23h0l-.08.14h0v0h0l-.56,1-.92,1.58L234.24,256h.25l2.87-5,2.86,5h.23l-3-5.18,2.63-4.56.37-.64.05-.08.41.72,5.62,9.74h.25l-3.05-5.27h0l-2.58-4.46-.54-.94,2.52-4.22,3,5.16.66,1.14.1-.06.07,0,.64-1.12,3.31-5.76h0l1.83-3.19.45-.78,2.52,4.38-2.6,4.36h0l0,0h0l-.54.93L246.91,256h.27l5.63-9.74.35-.61.06-.1.41.71,2.37,4.11V250h0l-2.13-3.69-.55-.94,2.51-4.21.17.3V241l-2.69-4.68,2.69-4.68v-.4l-3.33,5.8-1.92,3.34h0l-.7,1.22L247,236.28l6.22-10.8,2.81,4.9V230h0l-2.7-4.66,2.7-4.7v-.4l-3.1,5.39h0l-2.17,3.77h0l-.7,1.23-3-5.26,5.82-10.09.41-.7.41.7,2.37,4.12v-.4h0l-2.13-3.7-.55-.94,2.51-4.21.17.3V210l-2.69-4.68L256,200.6v-.39l-3.19,5.55-2.06,3.58h0l-.7,1.22L247,205.24l6.22-10.8,2.81,4.9v-.43h0l-2.7-4.67,2.7-4.69v-.4l-3.1,5.39h0l-2.17,3.76h0l-.7,1.22-3-5.26,5.82-10.08.35-.6.06-.11v0l.4.68,2.37,4.11v-.41h0l-2.13-3.69-.55-.94,2.51-4.21.17.3v-.4l-2.69-4.68,2.69-4.68v-.4l-3.23,5.63-2,3.51h0l-.7,1.23L247,174.19l6.22-10.8,2.81,4.9v-.44l-2.7-4.66,2.7-4.7v-.4l-3.1,5.39h0l-2.16,3.77h0l-.7,1.22-3-5.26,5.82-10.08.35-.61.06-.1,0,0,.39.68,2.37,4.11v-.4h0l-2.13-3.69-.55-.95,2.51-4.2.17.29v-.39l-2.69-4.68,2.69-4.68v-.4l-3.33,5.79-1.92,3.34h0l-.7,1.22L247,143.15l6.22-10.8,2.81,4.9v-.43h0l-2.7-4.66,2.7-4.7v-.4l-3.1,5.39h0l-2.17,3.77h0l-.7,1.23-3-5.27,5.82-10.08.41-.71.41.71,2.37,4.11v-.39h0l-2.13-3.7-.55-.94,2.51-4.21.17.3v-.4l-2.69-4.68,2.69-4.68v-.4l-3.19,5.56-2.06,3.58h0l-.7,1.23L247,112.1l6.22-10.8,2.81,4.9v-.42h0l-2.7-4.67,2.7-4.7V96l-3.1,5.39h0l-2.17,3.76h0l-.7,1.22-3-5.26L252.81,91l.35-.61.06-.1v0l.4.69L256,95.15v-.4h0L253.87,91l-.55-.94,2.51-4.21.17.29v-.39l-2.69-4.68L256,76.43V76l-3.37,5.87-1.88,3.26h0l-.7,1.22L247,81.06l6.22-10.8,2.81,4.9v-.43h0l-2.7-4.66,2.7-4.7V65l-3.1,5.39h0l-2.16,3.77h0l-.7,1.23-3-5.27L252.81,60l.35-.61.06-.1,0,0,.39.67L256,64.11v-.4h0L253.87,60l-.55-.94,2.51-4.21.17.3v-.4l-2.69-4.68L256,45.38V45l-3.33,5.79-1.92,3.34h0l-.7,1.22L247,50l6.22-10.79,2.81,4.9v-.43h0L253.3,39l2.7-4.7v-.39l-3.1,5.39h0l-2.17,3.76h0l-.7,1.22L247,39,252.81,29l.41-.71.41.71L256,33.06v-.4h0L253.87,29l-.55-.94,2.51-4.21.17.3v-.4L253.31,19,256,14.34v-.4l-3.19,5.55-2.06,3.59h0L250,24.3,247,19l6.22-10.8,2.81,4.9v-.43h0L253.3,8l2.7-4.7v-.4l-3.1,5.39ZM1.78,13.45h0l0,0Zm0,31h0l0,0Zm0,31.05,0,0,0,0Zm0,31h0l0,0Zm0,31h0l0,0Zm0,31h0l0,0Zm0,31h0l0,0Zm0,31,0,0,0,0Zm38.16,20h0l0,0Zm38.17,0h0l0,0Zm38.17,0h0l0,0Zm38.17,0h0l0,0Zm38.17,0h0l0,0Zm38.17,0h0l0,0Zm9.75-191.89h0l-.08.14h0v0h0l-.56,1L239,61.58l-4.77,8.24-.09-.16L228.4,60l-.47-.8-.09-.15h0l0,0,.22-.39h0l2.33-3.91L233.51,60l.59,1,0,.07v0h0l0,0,0,0h0l.1.06L235,60l5.58-9.69,2.5,4.34Zm0,31.05h0l-.08.15h0v0h0l-.56,1L239,92.56l-4.81,8.3-.09-.15L228.4,91l-.58-1,.22-.38h0l2.33-3.91L233.51,91l.59,1,0,.06v0l0,0,0,0h0l.1.06L235,91l5.58-9.7,2.49,4.34Zm0,62.09h0l-.08.14h0v0h0l-.56,1-.92,1.58L234.19,163l-.09-.16-5.7-9.66-.47-.8-.09-.16h0l0,0,.22-.38h0l2.33-3.91,3.14,5.28.59,1,0,.06v0h0l0,0,0,0h0l.1.06.68-1.18,5.58-9.7,2.5,4.34Zm0,31h0l-.08.14h0l-.56,1L239,185.7l-4.81,8.3-.09-.16-5.7-9.67-.58-1,.22-.39h0l2.33-3.91,3.14,5.28.59,1,0,.07v0h0l0,0,0,0h0l.1,0,.68-1.18,5.58-9.7,2.49,4.34Zm-9.73,47.7,0,0,0,0Zm-38.17,0,0,0,0,0Zm-38.16,0,0,0-.05,0Zm-38.17,0,0,0,0,0Zm-38.17,0,0,0,0,0Zm-38.17,0,0,0,0,0Zm-25.21,0h0l-3.23-5.59h0l-3.07-5.35,2.63-4.57.42-.71.05.1.36.61,9,15.55-3,5.32-3.07-5.3Zm7-21.39h0L21,210.56,18,205.24l6.22-10.8,3.06,5.33-3.68,6.41Zm-7-9.65h0l-3.23-5.6h0l-3.07-5.36,2.63-4.56.37-.63,0-.09.41.72,9,15.54-3,5.23,0,.1-3-5.26Zm7-21.39h0L21,179.52,18,174.19l6.22-10.8,3.06,5.34-3.74,6.52Zm-7-9.66h0L11.55,163h0l-3.07-5.36,2.63-4.56.37-.63,0-.09.41.72,9,15.54-3,5.22-.06.1-3-5.21Zm7-21.39h0L21,148.47,18,143.15l6.22-10.8,3.06,5.33-3.82,6.66Zm-7-9.65h0L11.55,132h0l-3.07-5.35,2.63-4.57.42-.71.05.09.36.62,9,15.54-3,5.33-3.07-5.31Zm7-21.39h0L21,117.43,18,112.1l6.22-10.8,3.06,5.34-3.68,6.41Zm-7-9.65h0L11.55,101h0L8.47,95.6,11.1,91l.37-.63,0-.09.41.72,9,15.54-3,5.22,0,.1-3-5.26Zm7-21.4h0L21,86.38,18,81.06l6.22-10.8,3.06,5.34-3.88,6.75Zm-7-9.65h0l-3.23-5.59h0L8.47,64.56,11.1,60l.37-.63,0-.08.41.71,9,15.55-3,5.21-.06.11-3-5.22Zm7-21.39h0L21,55.34,18,50l6.22-10.79,3.06,5.33-3.82,6.66Zm-7-9.65h0l-3.23-5.6h0L8.47,33.51,11.1,29l.42-.72.05.1.36.62,9,15.54-3,5.33-3.07-5.31ZM36.87,8.17l.26.44,2.8,4.85h0L36.76,19h0l-.65,1.12-1.7,3h0l-.69,1.2L30.64,19l3.17-5.5.75-1.31h0l.53-.91,1.7-3Zm19.25,21.9L56.76,29l3.31-5.76h0l1.57-2.75.71-1.23,2.51,4.38L62.28,28l0,.05h0l-.54.93L56,38.78l-3.11-5.36h0L50.35,29,49.81,28l2.52-4.22,3,5.16.65,1.14.11-.06ZM75,8.17l.29.49,2.77,4.8h0L74.92,19h0l-.42.74-1.92,3.34h0l-.69,1.2L68.81,19,72,13.47l.75-1.31h0l.4-.7L75,8.3Zm19.25,21.9L94.93,29l3.31-5.76h0L100,20.08l.5-.86L103,23.6,100.45,28l0,.05h0l-.53.93-5.69,9.83-3.11-5.36h0L88.52,29,88,28l2.52-4.22,3,5.16.65,1.14.11-.06ZM113.2,8.17l.27.45,2.79,4.84h0L113.09,19h0l-.43.74-1.92,3.34h0l-.69,1.2L107,19l3.17-5.51.75-1.3h0l.5-.87,1.72-3Zm19.25,21.9L133.1,29l3.31-5.76h0l1.79-3.12.5-.86,2.51,4.38L138.61,28l0,.05h0L138,29l-5.69,9.83-3.1-5.36h0L126.69,29l-.54-.94,2.51-4.22,3,5.16.65,1.14.11-.06Zm18.92-21.9.27.45,2.79,4.84h0L151.26,19h0l-.59,1-1.76,3.05h0l-.69,1.2L145.15,19l3-5.25.9-1.56h0l.49-.87,1.73-3Zm19.25,21.9.64-1.12,3.32-5.76h0l1.62-2.82.66-1.16,2.52,4.38L176.78,28l0,.05h0l-.54.93-5.69,9.83-3.1-5.36h0L164.85,29l-.53-.94,2.51-4.22,3,5.16.66,1.14.11-.06Zm18.92-21.9.26.44,2.8,4.85h0L189.43,19h0l-.67,1.17-1.68,2.91h0l-.69,1.2L183.31,19l3.17-5.5.75-1.31h0l.52-.91,1.7-3Zm19.25,21.9.64-1.12,3.32-5.76h0l1.54-2.7.74-1.28,2.52,4.38L215,28h0l0,.05h0l-.54.93-5.69,9.83-3.1-5.36h0L203,29l-.54-.94L205,23.79,208,29l.66,1.14.11-.06Zm18.92-21.9.29.49,2.77,4.8h0L227.6,19h0l-.43.74-1.92,3.34h0l-.69,1.2L221.48,19l3.17-5.5.75-1.31h0l.53-.91,1.7-3Zm7,20.78-.5.87-.15-.26-.36-.61L227.83,19l3.09-5.39L234.1,19l0,.05h0l3.15,5.46,0,0Zm.77,18.62-1.32,2.28-.1-.18-6-10.25-.24-.42,3.09-5.38L234.1,39v0h0l3.16,5.46h0ZM234.75,60l-.48.84,0,0-.15-.26-.36-.61-5.91-9.94,3.09-5.39,3.18,5.4,0,.06h0l3.15,5.45h0Zm.79,18.58-1.34,2.32-.1-.18-6-10.22-.26-.44,3.09-5.39,3.19,5.42v0h0l3.16,5.46h0ZM234.75,91l-.5.87-.15-.26-.36-.61-5.91-9.94,3.09-5.39,3.18,5.39,0,.06h0l3.15,5.45h0Zm.81,18.56-1.36,2.33-.1-.17-6-10.22-.26-.45,3.09-5.38,3.19,5.41v0h0l3.16,5.46h0Zm-.81,12.48-.5.87-.15-.26-.36-.61-5.91-9.94,3.09-5.39,3.18,5.4,0,0h0l3.15,5.45h0Zm.81,18.56L234.2,143l-.1-.18-6-10.24-.24-.43,3.09-5.38,3.19,5.42v0h0l3.16,5.47,0,0Zm-.81,12.49-.48.83,0,0-.15-.25-.36-.61-5.91-9.95,3.09-5.38,3.18,5.39,0,.06h0l3.15,5.45h0Zm.79,18.58L234.2,174l-.1-.17-6-10.22-.26-.45,3.09-5.39,3.19,5.42v0h0l3.16,5.46h0Zm-.79,12.46-.48.83,0,0-.15-.26-.36-.61-5.91-9.94,3.09-5.39,3.18,5.4,0,0h0l3.15,5.46,0,0Zm.81,18.56-1.36,2.34-.1-.18-6-10.22-.26-.45,3.09-5.38,3.19,5.42v0h0l3.16,5.46h0Zm-.81,12.48-.5.87-.15-.25-.36-.62-5.91-9.94,3.09-5.39,3.18,5.4,0,.06h0l3.15,5.45h0Zm.81,18.56-1.36,2.34-.1-.17-6-10.25-.24-.42,3.09-5.39,3.19,5.42v0h0l3.16,5.46h0Zm-8-8.52,0,0-.36.62L226,228l-.79,1.37h0l-.69,1.2-3.07-5.32,5.48-9.49.3-.53.45-.78.46.78,2.6,4.51h0l-3.16,5.51Zm-25.3.08h0l-2.34,4.08h0l-.69,1.2-3.08-5.32,3.06-5.3,3.08,5.35Zm-12.86-.08v0l-.35.62L187.86,228l-.79,1.37h0l-.69,1.2-3.07-5.32,5.48-9.49.3-.53.46-.78.45.78,2.6,4.51h0l-3.16,5.51Zm-25.31.08h0l-2.35,4.08h0l-.69,1.2L158,225.28,161,220l3.07,5.35Zm-12.86-.08v0l-.26.46L149.66,228l-.76,1.31h0l-.69,1.2-3.08-5.32,5.69-9.86.09-.16.46-.78.45.78,2.6,4.51h0l-3.17,5.51Zm-25.31.08h0l-2.35,4.08h0l-.69,1.2-3.07-5.32,3.06-5.3,3.07,5.35Zm-12.86-.08v0l-.49.87-1,1.72-.86,1.49h0l-.69,1.2L107,225.23l5.66-9.8.12-.22.46-.78.45.78,2.61,4.51h0l-3.17,5.51Zm-38.17,0v0l-.51.9-1,1.81-.8,1.37h0l-.69,1.2-3.08-5.32,5.68-9.84.11-.18.45-.78.45.78,2.61,4.51h0l-3.17,5.51Zm-25.31.08h0l-2.35,4.08h0l-.69,1.2-3.08-5.32,3.06-5.3,3.08,5.35Zm-12.86-.08,0,0-.36.62L35.19,228l-.79,1.37h0l-.69,1.2-3.07-5.32,5.47-9.49.31-.53.45-.78.46.78,2.6,4.51h0l-3.16,5.51Zm0-20-.65,1.12-1.7,3h0l-.69,1.2-3.07-5.31,3.25-5.64.67-1.17h0l.55-1,1.68-2.91.08-.14.26.45,2.8,4.85,0,0-3.19,5.56h0Zm-15-7h0l-.7,1.22-3-5.26,5.82-10.08.35-.6.06-.11v0l.4.69,2.62,4.54-3.35,5.82h0Zm15-24.06-.52.89-1.83,3.19h0l-.69,1.2-3.07-5.32,2.93-5.08,1-1.72h0l.47-.82,1.76-3,.08-.13.26.44,2.8,4.85h0l-3.19,5.56h0Zm-15-7h0l-.7,1.22-3-5.26,5.82-10.08.35-.61.06-.1v0l.4.69,2.62,4.53-3.35,5.82h0Zm15-24.06-.58,1-1.77,3.09h0l-.69,1.21-3.07-5.32,3-5.23.91-1.58h0l.49-.84,1.82-3.15.23.39,2.83,4.9,0,0-3.19,5.56h0Zm-15-7h0l-.7,1.23-3-5.27,5.82-10.08.41-.71.41.71,2.62,4.54-3.35,5.82h0Zm15-24.07-.65,1.13-1.7,3h0l-.69,1.2-3.07-5.32,3.25-5.63.67-1.17h0l.55-1,1.68-2.91.08-.14.26.44,2.8,4.85h0l-3.19,5.56h0Zm-15-7h0l-.7,1.22-3-5.26L23.8,91l.35-.61.06-.1h0l.4.7,2.62,4.54-3.35,5.82h0Zm15-24.06-.52.89-1.83,3.19h0l-.69,1.2-3.07-5.32L33.57,76l1-1.72h0l.47-.81,1.76-3,.08-.13.26.44,2.8,4.85h0L36.76,81.1h0Zm-15-7h0L21,75.34l-3-5.27L23.8,60l.35-.61.06-.1v0l.4.68,2.62,4.54-3.35,5.82h0Zm15-24.07-.7,1.22-1.65,2.87h0l-.69,1.2L30.64,50l3-5.22.91-1.58h0l.49-.85,1.82-3.15.23.4,2.83,4.89h0l-3.19,5.56h0Zm-15-7h0L21,44.29,18,39,23.8,29l.41-.71.41.71,2.62,4.54-3.35,5.82h0ZM65,23.8l3,5.15.67,1.16.11-.06.06,0L69.43,29l3.31-5.74h0L74.57,20l.47-.81,2.54,4.27-2.38,4-.17.29h0l-.22.38-.46.81-5.67,9.79-3.07-5.31h0L63,29,62.48,28ZM78.14,13.43l0,0,0,0Zm.11.19L81.43,19l0,.05h0l3.14,5.46,0,0L82.08,29l-.5.87-.15-.26L81.06,29,75.15,19ZM103.16,23.8l3,5.15.67,1.16.11-.06.06,0L107.6,29l3.3-5.74h0L112.74,20l.47-.81,2.54,4.27-2.38,4-.17.29h0l-.09.14-.6,1-5.66,9.79-3.07-5.31h0L101.19,29l-.54-.94Zm38.16,0,3,5.15.67,1.16.1-.06.07,0,.65-1.13,3.3-5.74h0l1.66-2.89.64-1.11,2.54,4.27-2.39,4-.16.29h0l-.23.39-.46.8L145,38.74,142,33.43h0L139.36,29l-.54-.94Zm38.17,0,3,5.15.66,1.16.11-.06.07,0,.65-1.13,3.3-5.74h0l1.59-2.76.72-1.24,2.53,4.27-2.38,4h0l-.16.29h0l-.21.38-.47.81-5.67,9.79-3.07-5.31h0L177.53,29,177,28Zm13.15-10.37,0,0,0,0Zm.11.19,3.18,5.4,0,.05h0l3.15,5.46,0,0L196.58,29l-.49.87-.16-.26-.36-.61L189.66,19Zm38.06,19.81,0,0,0,0ZM228.16,29l2.6,4.51h0L227.62,39l-.05,0,0,0-.36.63-1.18,2-.81,1.41h0l-.69,1.2L221.47,39,227,29.47l.3-.52.45-.79Zm-.56,21.1h0l-.48.83-1.87,3.26h0l-.69,1.2L221.48,50l3-5.22.91-1.58h0l.49-.85,1.82-3.15.26.44,2.8,4.85h0Zm3.21,14.43,0,0,0,0Zm0,0L227.62,70l-.05,0,0,0-.49.86L226,72.79l-.77,1.34h0l-.69,1.2L221.47,70l5.74-9.94,0-.08.45-.78.46.78,2.6,4.51ZM227.6,81.1h0l-.29.5-2.06,3.58h0l-.69,1.2-3.07-5.32L224.41,76l1-1.72h0l.47-.81,1.76-3,.08-.13.29.49,2.77,4.8h0Zm3.21,14.42,0,0-.05,0ZM228.16,91l2.6,4.51,0,0-3.16,5.52-.05,0,0,0-.54.94-1,1.66-.85,1.48h0l-.69,1.21-3.07-5.33,5.7-9.87.08-.14.45-.79Zm-.56,21.1h0l-.43.75-1.92,3.33h0l-.69,1.2-3.07-5.32,3.25-5.63.67-1.17h0l.55-1,1.68-2.91.08-.14.29.49,2.77,4.8h0Zm3.21,14.43,0,0,0,0Zm-2.65-4.49,2.6,4.51h0l-3.16,5.51-.05,0,0,0-.36.62-1.2,2.09-.79,1.37h0l-.69,1.2-3.07-5.33,5.48-9.48.3-.53.45-.78Zm-.56,21.1h0l-.34.58-2,3.5h0l-.69,1.21-3.07-5.32,3-5.23.91-1.58h0l.49-.84,1.82-3.15.26.44,2.8,4.85,0,0Zm3.21,14.43,0,0,0,0Zm0,0-3.16,5.52-.05,0,0,0-.49.85L226,165.92l-.77,1.35h0l-.69,1.2-3.07-5.32,5.74-9.94,0-.07.45-.79.46.79,2.6,4.51Zm-3.18,16.61h0l-.29.5-2.06,3.58h0l-.69,1.2-3.07-5.32,2.93-5.08,1-1.72h0l.47-.82,1.76-3,.08-.13.29.49,2.77,4.8h0Zm3.21,14.42,0,0-.05,0Zm-2.65-4.48,2.6,4.51h0l-3.16,5.51-.05,0,0,0-.54.94-1,1.67-.85,1.47h0l-.69,1.2-3.07-5.33,5.74-9.94,0-.07.45-.79Zm-.56,21.1h0l-.43.74-1.92,3.34h0l-.69,1.2-3.07-5.31,3.25-5.64.67-1.17h0l.55-1,1.68-2.91.08-.14.29.49,2.77,4.81,0,0Zm-12.65,9,0,0h0l-.54.93L208.69,225l-3.1-5.36h0L203,215.21l-.54-.93,2.52-4.23,3,5.16.66,1.15.11-.07.06,0,.64-1.12,3.32-5.75h0l1.54-2.69.74-1.29,2.52,4.39-2.6,4.36Zm-12.58-.15-.08.14h0v0h0l-.56,1-.91,1.57L196,225l-.1-.16-5.7-9.67-.51-.86-.05-.09h0l0,0,.22-.38h0l2.33-3.91,3.14,5.27.59,1,0,.07v0l0,0v0h0l.1.06.68-1.19,5.59-9.69,2.49,4.34-2.52,4.22ZM189.53,214l-.21.38-.47.8L183.18,225l-3.07-5.3h0l-2.59-4.48-.54-.94,2.5-4.21,3,5.15.66,1.16.11-.06.07,0,.65-1.14,3.3-5.74h0l1.59-2.76.72-1.25,2.53,4.27-2.38,4h0l-.16.28Zm-12.77.24h0l-.54.93L170.52,225l-3.1-5.36h0l-2.58-4.47-.53-.93,2.51-4.23,3,5.16.66,1.15.11-.07.06,0,.64-1.12,3.32-5.75h0l1.62-2.81.66-1.17,2.52,4.39-2.6,4.36Zm-12.56-.19-.08.14h0l0,0h0l-.56,1-.77,1.34L157.86,225l-.09-.16-5.71-9.67-.51-.86-.05-.09h0l0,0,.22-.39,2.33-3.9,3.14,5.27.6,1,0,.07v0l0,0,0,0h0l.1.06.69-1.19,5.58-9.69,2.49,4.34-2.52,4.22ZM151.37,214l-.23.38-.46.8L145,225,142,219.7h0l-2.59-4.48-.54-.94,2.5-4.21,3,5.15.67,1.16.1-.06.07,0,.65-1.14,3.3-5.74h0l1.66-2.89.64-1.12,2.54,4.27-2.39,4-.16.29Zm-12.78.25h0l-.54.93L132.35,225l-3.1-5.36h0l-2.57-4.47-.54-.93,2.51-4.23,3,5.16.65,1.15.11-.07.06,0,.65-1.12,3.31-5.75h0l1.79-3.11.5-.87,2.51,4.39-2.6,4.36Zm-12.56-.2-.08.14h0v0h0l-.55,1-.82,1.42L119.69,225l-.09-.16-5.71-9.67-.58-1,.23-.39,2.32-3.9,3.14,5.27.6,1,0,.07,0,0,0,0,0,0h0l.11.06.68-1.19,5.58-9.69,2.49,4.34L126,214.08ZM113.2,214l-.09.15-.6,1L106.85,225l-3.07-5.3h0l-2.59-4.48-.54-.94,2.51-4.21,3,5.15.67,1.16.11-.06.06,0,.65-1.14,3.3-5.74h0l1.83-3.2.47-.81,2.54,4.27-2.38,4-.17.29Zm-12.78.25h0l-.53.93-5.69,9.84-3.11-5.37h0l-2.57-4.47-.54-.93,2.52-4.23,3,5.16.65,1.15.11-.07.06,0,.65-1.12,3.31-5.75h0l1.79-3.11.5-.87,2.51,4.39-2.59,4.36Zm-12.56-.2-.08.14h0v0h0l-.55,1-.82,1.42L81.52,225l-.09-.16-5.7-9.67-.51-.86,0-.09h0l0,0,.22-.39,2.33-3.9,3.13,5.27.6,1,0,.07v0l0,0,0,0h0l.1.06.68-1.19,5.58-9.69,2.49,4.34-2.51,4.22ZM75,214l-.22.38-.46.8L68.68,225l-3.07-5.3h0L63,215.21l-.55-.94L65,210.06l3,5.15.67,1.16.11-.06.06,0,.65-1.14,3.31-5.74h0l1.83-3.2.47-.81,2.54,4.27-2.38,4L75,214Zm-12.78.25h0l-.54.93L56,225l-3.11-5.36h0l-2.58-4.47-.54-.93,2.52-4.23,3,5.16.65,1.15.11-.07.07,0,.64-1.12,3.31-5.75h0l1.57-2.74.71-1.24,2.51,4.39-2.59,4.36Zm-15-4.87h0l-.69,1.21-3.08-5.33,3.06-5.3,3.08,5.36h0ZM40,199.7l0,0,0,0Zm-2.73-5-.26-.45,3.09-5.38,3.19,5.42v0h0l3.15,5.46h0l-1.72,3-1.36,2.34-.1-.18Zm10-16.31h0l-.69,1.2-3.08-5.32,3.06-5.31,3.08,5.37,0,0ZM40,168.66l0,0,0,0Zm-2.73-5-.26-.45,3.09-5.39,3.19,5.42v0h0l3.15,5.46h0l-1.74,3L43.36,174l-.1-.17Zm10-16.31h0l-.69,1.2-3.08-5.33,3.06-5.3,3.08,5.36h0ZM40,137.61l0,0,0,0Zm-2.75-5.05-.24-.43,3.09-5.38,3.19,5.42v0h0l3.15,5.47,0,0-1.72,3L43.36,143l-.1-.18Zm10-16.28h0l-.69,1.2-3.08-5.32,3.06-5.3,3.08,5.36h0ZM40,106.57l0,0,0,0Zm-2.73-5-.26-.45,3.09-5.38,3.19,5.41v0h0l3.15,5.46h0l-1.72,3-1.36,2.33-.1-.17Zm10-16.31h0l-.69,1.2L43.48,81.1l3.06-5.3,3.08,5.36h0ZM40,75.52l0,0,0,0Zm-2.73-5L37,70.05l3.09-5.39,3.19,5.42v0h0l3.15,5.46h0l-1.74,3-1.34,2.32-.1-.18Zm10-16.3h0l-.69,1.2-3.08-5.32,3.06-5.3,3.08,5.36h0ZM40,44.48l0,0,0,0Zm-2.75-5.06L37,39l3.09-5.38L43.26,39v0h0l3.15,5.46h0l-1.76,3.06-1.32,2.28-.1-.18Zm2.74-6,0,0,0,0Zm9.78-5.1.36.62,9,15.54L56,49.82,53,44.51l0,0h0l-3.22-5.6h0l-3.07-5.36L49.27,29l.41-.72Zm31.7,10.73h0l3.15,5.46h0l-1.79,3.13-1.28,2.21-.1-.18-6-10.25L75.15,39l3.09-5.38L81.43,39Zm6.48-10.72.35.61,9,15.54-3.06,5.33-3.06-5.31,0,0h0l-3.23-5.6h0L84.8,33.51,87.44,29l.41-.72Zm31.69,10.72h0l3.15,5.46h0L121,47.64l-1.28,2.21-.1-.18-6-10.24-.24-.43,3.09-5.38L119.6,39Zm6.47-10.72.35.61,9,15.54-3.06,5.33-3.06-5.31,0,0h0l-3.23-5.6h0L123,33.51,125.61,29l.41-.72Zm31.7,10.72h0l3.15,5.46h0l-1.79,3.13-1.28,2.21-.1-.18-6-10.24-.25-.43,3.1-5.38L157.77,39Zm6.47-10.73.35.62,9,15.54-3.06,5.33-3.06-5.31,0,0h0l-3.23-5.6h0l-3.08-5.36L163.78,29l.41-.72Zm31.69,10.73h0l3.16,5.46h0l-1.73,3L196,49.85l-.11-.18-6-10.25-.24-.42,3.09-5.38L195.93,39Zm6.47-10.73.36.62,9,15.54-3.05,5.33-3.06-5.31,0,0h0l-3.23-5.6h0l-3.08-5.36L201.94,29l.42-.72Zm11.85,22.88-1.68,2.91h0l-.71,1.22L208.8,50,215,39.22l3.06,5.33Zm-.06,31.14-1.62,2.81h0l-.71,1.22-3.07-5.32L215,70.26l3.06,5.34Zm.2,30.7-1.82,3.16h0l-.71,1.23-3.07-5.33L215,101.3l3.06,5.34Zm-.14,31.29-1.68,2.91h0l-.71,1.22-3.07-5.32,6.22-10.8,3.06,5.33Zm.08,30.91-1.76,3.05h0l-.71,1.23-3.07-5.33,6.22-10.8,3.06,5.34Zm.06,30.93-1.82,3.16h0l-.71,1.22-3.07-5.32,6.22-10.8,3.06,5.33Zm-15.07-6.4,3-5.17.07-.11,3.23,5.6,3,5.21h0l3.15,5.46-2.56,4.45-.5.89-.51-.89Zm-9.67,5.49,3.09-5.39,3.18,5.4,0,.06h0l3.15,5.45h0l-2.55,4.43-.49.87-.16-.25-.36-.62Zm-.23,0-.67,1.17-1.68,2.92h0l-.69,1.2-3.07-5.31,3.25-5.64.67-1.17h0l.54-1,1.68-2.91.08-.14.26.45,2.8,4.85,0,0-3.19,5.56Zm-12.45,0L180,200l3.07,5.36,0,0,3.13,5.43h0l-2.57,4.48-.46.8-.06.1-.51-.9Zm-15.82-5.5,3-5.16.07-.12,3.23,5.6,3,5.21h0l3.15,5.46L171,215.21l-.5.89-.51-.89Zm-9.67,5.49,3.09-5.39,3.19,5.4,0,.06h0l3.15,5.45h0l-2.54,4.43-.5.87-.15-.25-.37-.62Zm-.23,0-.59,1-1.76,3.05h0l-.69,1.2-3.06-5.31,3.1-5.4.82-1.41h0l.52-.9,1.7-3,.08-.14.27.45,2.79,4.85,0,0-3.19,5.56Zm-12.45,0,3.05-5.31,3.07,5.36,0,0,3.13,5.43h0l-2.58,4.48-.46.8-.06.1-.51-.9ZM123,199.78l3-5.16.07-.12,3.22,5.59,3,5.22h0l3.15,5.46-2.55,4.45-.51.89-.51-.89Zm-9.67,5.49,3.1-5.39,3.18,5.4,0,.06h0l3.14,5.45h0l-2.54,4.43-.5.87-.15-.25-.37-.62Zm-.23,0-.43.74-1.92,3.34h0l-.69,1.2L107,205.24l3.25-5.66.67-1.15h0l.52-.9,1.7-3,.08-.14.27.45,2.79,4.85,0,0-3.19,5.56h0Zm-12.45,0,3-5.31,3.08,5.36,0,0,3.14,5.43h0l-2.58,4.48-.45.79-.06.11-.52-.9Zm-15.81-5.5,3-5.16.06-.12,3.23,5.6,3,5.21h0l3.15,5.46-2.56,4.45-.51.89-.5-.89Zm-9.68,5.49,3.1-5.39,3.18,5.4,0,.06h0l3.14,5.45h0l-2.55,4.43-.5.87-.15-.25-.37-.62Zm-.23,0-.42.74-1.92,3.34h0l-.69,1.2-3.07-5.31,3.24-5.64.68-1.17h0l.42-.74L75,194.57l.07-.14.29.49,2.77,4.81,0,0-3.2,5.56h0Zm-12.45,0,3-5.31,3.08,5.36,0,0,3.14,5.43h0l-2.58,4.48-.45.79-.06.11-.52-.9Zm-2.56,4.06h0l-.7,1.22-3.07-5.32,6.22-10.8,3.06,5.33-3.66,6.38ZM49.59,194.29h0l-2.35,4.08h0l-.69,1.2-3.08-5.33,3.06-5.3,3.08,5.36Zm3.34,5.4h0l-3.22-5.6h0l-3.07-5.36,2.63-4.56.36-.63,0-.09.42.72,9,15.54-3,5.23L56,205l-3-5.26Zm7-21.39h0l-.7,1.23-3.07-5.33,6.22-10.8,3.06,5.34-3.72,6.48ZM49.59,163.25h0l-2.35,4.08h0l-.69,1.2-3.08-5.32,3.06-5.3,3.08,5.35Zm3.34,5.39h0L49.72,163h0l-3.07-5.36,2.63-4.56.36-.63,0-.09.42.72,9,15.54-3,5.22L56,174l-3-5.21Zm7-21.39h0l-.7,1.22-3.07-5.32,6.22-10.8,3.06,5.33-3.8,6.61ZM49.59,132.2h0l-2.35,4.08h0l-.69,1.2-3.08-5.32,3.06-5.31,3.08,5.36Zm3.34,5.4h0L49.72,132h0l-3.07-5.35,2.63-4.57.41-.71.06.09.36.62,9,15.54L56,143,53,137.64Zm7-21.39h0l-.7,1.23-3.07-5.33,6.22-10.8,3.06,5.34L61.75,113Zm-10.32-15h0l-2.35,4.08h0l-.69,1.2-3.08-5.33,3.06-5.3,3.08,5.35Zm3.34,5.4h0L49.72,101h0L46.64,95.6,49.27,91l.36-.63,0-.09.42.72,9,15.54-3,5.22-.06.1-3-5.26Zm7-21.4h0l-.7,1.22-3.07-5.32,6.22-10.8,3.06,5.34-3.85,6.7Zm-10.32-15h0l-2.35,4.08h0l-.69,1.2-3.08-5.32,3.06-5.3,3.08,5.35Zm3.34,5.4h0l-3.22-5.59h0l-3.07-5.35L49.27,60l.36-.63,0-.08.42.71,9,15.55-3,5.21-.07.11-3-5.22Zm7-21.39h0l-.7,1.22L56.13,50l6.22-10.79,3.06,5.33-3.8,6.61Zm28-14.84L91,44.74l3.07,5.35h0l3.15,5.46L94.7,60l-.44.77-.07.11-.5-.88L84.83,44.56l3-5.17Zm38.17,0,3.15,5.46,3.07,5.35h0l3.14,5.46L132.87,60l-.44.77-.07.11-.51-.88L123,44.56l3-5.17Zm38.17,0,3.15,5.46,3.07,5.35h0l3.15,5.46L171,60l-.44.78-.06.1L170,60l-8.86-15.43,3-5.17Zm35.72,14.91h0l-.69,1.2-3.07-5.32,3.06-5.3,3.07,5.36h0Zm-4-4.07h0l3.15,5.45h0L196.58,60l-.48.85v0l-.16-.26-.36-.61-5.91-9.94,3.09-5.39,3.18,5.4Zm6.39,9.16.41.71,9,15.55-3,5.21-.06.11-3-5.22-.08-.13h0l-3.23-5.59h0l-3.08-5.35L201.94,60l.37-.63Zm0,31,.41.72,9,15.54-3,5.22-.05.1-3-5.26-.05-.08h0L202.39,101h0l-3.08-5.36L201.94,91l.37-.63ZM208.69,143l-3.06-5.31,0,0h0l-3.23-5.6h0l-3.08-5.35,2.63-4.57.42-.71,0,.09.36.62,9,15.54Zm-12.6,11-.16-.25-.36-.61-5.91-9.95,3.09-5.39,3.18,5.4,0,.06h0l3.15,5.45h0l-2.55,4.44-.48.84Zm6.27-1.58.41.72,9,15.54-3,5.22-.06.1-3-5.21-.08-.14h0L202.39,163h0l-3.08-5.36,2.63-4.56.37-.63ZM196.09,185l-.16-.26-.36-.61-5.91-9.94,3.09-5.39,3.18,5.4,0,0h0l3.15,5.46,0,0-2.55,4.44-.48.84Zm6.27-1.59.41.72,9,15.54-3,5.23-.05.1-3-5.26-.05-.09h0l-3.23-5.6h0l-3.08-5.36,2.63-4.56.37-.63Zm-9.72,16.25,0,0,0,0Zm-38.16,0,0,0,0,0ZM132.35,205l-3-5.27-.05-.08h0l-3.23-5.6h0L123,188.73l2.64-4.56.36-.63,0-.09.41.72,9,15.54-3,5.24Zm-16-5.34,0,0,0,0Zm-38.17,0,0,0,0,0ZM59.9,198.29h0l-.7,1.22-3-5.26L62,184.17l.34-.6.07-.11v0l.4.69,2.63,4.54-3.35,5.82h0Zm15-24.06-.28.5-2.06,3.58h0l-.69,1.2-3.07-5.32,2.93-5.08,1-1.72h0l.35-.61L75,163.52l.07-.13.29.49,2.77,4.8h0l-3.2,5.56Zm-15-7h0l-.7,1.22-3-5.26L62,153.13l.35-.61.06-.1v0l.39.69,2.63,4.53-3.35,5.82h0Zm15-24.06-.33.58-2,3.5h0l-.69,1.21-3.07-5.32,3-5.23.91-1.58h0l.37-.64L75,132.35l.25.44,2.8,4.85,0,0-3.19,5.56Zm-15-7h0l-.7,1.23-3-5.27L62,122.08l.41-.71.4.71,2.63,4.54-3.35,5.82h0Zm15-24.07-.42.75-1.92,3.33h0l-.69,1.2-3.07-5.32,3.24-5.63.68-1.17h0l.42-.74L75,101.44l.07-.14.29.49,2.77,4.8h0l-3.2,5.56Zm-15-7h0l-.7,1.22-3-5.26L62,91l.34-.61.07-.1h0l.4.7,2.63,4.54-3.35,5.82h0Zm15-24.06-.28.5-2.06,3.58h0l-.69,1.2-3.07-5.32L71.74,76l1-1.72h0l.35-.6L75,70.39l.07-.13.29.49,2.77,4.8h0l-3.2,5.56Zm-15-7h0l-.7,1.23-3-5.27L62,60l.35-.61.06-.1v0l.39.68,2.63,4.54-3.35,5.82h0Zm15-24.07-.47.83-1.87,3.26h0l-.69,1.2L68.81,50l3-5.22.91-1.58h0l.37-.65L75,39.21l.25.44,2.8,4.85h0l-3.19,5.56Zm3.22-5.57,0,0,0,0Zm.11.18,3.18,5.4,0,.06h0l3.14,5.45h0L82.08,60l-.48.84,0,0-.15-.26L81.06,60l-5.91-9.94Zm7.17,9.53h0l-.69,1.2-3.08-5.32,3.06-5.3,3.08,5.36h0Zm-7.72.52L80.83,60l.6,1,0,.07v0h0l0,0,0,0h0l.1.06L82.31,60l5.58-9.69,2.49,4.34-2.51,4.22h0l-.08.14h0v0h0l-.55,1-.89,1.53-4.8,8.3-.09-.16L75.73,60l-.24-.39L75.17,59h0v0l.22-.39Zm16.52,6.36.06,0L94.93,60l3.31-5.75h0l1.84-3.2.45-.78L103,54.65,100.45,59l0,0h0l-.53.93-5.69,9.83-3.11-5.36h0L88.52,60,88,59.06l2.52-4.23,3,5.16.65,1.15Zm9.47-16.32,3.08,5.36,0,0,3.14,5.43h0L107.37,60l-.51.9-.52-.9-5.7-9.93Zm7.21-1.54.46-.81,1.84-3.19.24.4,2.82,4.89h0l-3.2,5.56h0l-.47.83-1.88,3.26h0l-.69,1.2L107,50l3-5.21.92-1.59Zm5.41,1.27,0,0,0,0Zm3.31,16.6h0l0,0,0,0h0l.11.06.68-1.19,5.58-9.69,2.49,4.34L126,58.86h0L126,59h0v0h0l-.55,1-.89,1.53-4.8,8.3-.09-.16L113.89,60l-.47-.8-.09-.15h0l0,0,.23-.39,2.32-3.91L119,60l.6,1,0,.07,0,0Zm3.27-5.7-3.07-5.32,3.06-5.3L126,50.12h0l-2.35,4.08h0Zm9.5,5.69.06,0L133.1,60l3.31-5.75h0l1.84-3.2.45-.78,2.51,4.39L138.61,59l0,0h0L138,60l-5.69,9.83-3.1-5.36h0L126.69,60l-.54-.93,2.51-4.23,3,5.16.65,1.15Zm9.47-16.32,3.07,5.36,0,0,3.13,5.43h0L145.54,60l-.52.9-.51-.9-5.7-9.93Zm7.21-1.54.46-.81,1.84-3.19.24.4,2.82,4.89h0l-3.19,5.56h0l-.65,1.14-1.7,3h0l-.69,1.2L145.15,50,148,45l1.06-1.83Zm5.41,1.27,0,0-.05,0Zm3.31,16.6h0l0,0,0,0h0l.1.06.69-1.19,5.58-9.69,2.49,4.34-2.52,4.22h0l-.1.17h0l-.56,1-.83,1.44-4.85,8.39-.09-.16L152.06,60l-.23-.39L151.5,59h0l0,0,.22-.39L154,54.71,157.17,60l.6,1,0,.07v0Zm3.27-5.7L158,50.06l3.06-5.3,3.08,5.36h0l-2.35,4.08h0Zm9.5,5.69.06,0,.64-1.12,3.32-5.75h0l1.66-2.89.62-1.09,2.52,4.39L176.78,59l0,0h0l-.54.93-5.69,9.83-3.1-5.36h0L164.85,60l-.53-.93,2.51-4.23,3,5.16.66,1.15ZM180,44.75l3.07,5.36,0,0,3.13,5.43h0L183.71,60l-.52.9-.51-.9L177,50.06Zm7.21-1.54.49-.85,1.81-3.15.23.4,2.83,4.89h0l-3.19,5.56h0l-.73,1.27-1.62,2.82h0l-.69,1.2L183.31,50l3-5.22.91-1.58Zm5.4,1.27,0,0,0,0Zm3.3,25.62h0l3.16,5.46h0l-1.7,3L196,80.89l-.11-.18-6-10.22-.26-.44,3.09-5.39,3.19,5.42Zm6.33,0h0l-2.34,4.08h0l-.69,1.2-3.08-5.32,3.06-5.3,3.08,5.35Zm-12.84,11h0l-.53.92-1.82,3.16h0l-.69,1.2-3.07-5.32L186.24,76l1-1.72h0l.46-.81,1.77-3,.07-.13.26.44,2.8,4.85h0Zm6.51,20h0l3.16,5.46h0l-1.69,2.94L196,111.93l-.11-.17-6-10.22-.26-.45,3.09-5.38,3.19,5.41Zm6.33,0h0l-2.34,4.08h0l-.69,1.2-3.08-5.33,3.06-5.3,3.08,5.35Zm-12.84,11h0l-.67,1.17-1.68,2.92h0l-.69,1.2-3.07-5.32,3.25-5.63.67-1.17h0l.54-1,1.68-2.91.08-.14.26.44,2.8,4.85h0Zm6.51,20h0l3.16,5.47,0,0-1.69,2.94L196,143l-.11-.18-6-10.24-.24-.43,3.09-5.38,3.19,5.42Zm6.33,0h0l-2.34,4.08h0l-.69,1.2-3.08-5.32,3.06-5.31,3.08,5.36Zm-12.84,11h0l-.6,1-1.75,3.05h0l-.69,1.21-3.07-5.32,3-5.23.91-1.58h0l.48-.84,1.82-3.15.23.39,2.83,4.9,0,0Zm6.51,20h0l3.16,5.46h0l-1.7,3L196,174l-.11-.17-6-10.22-.26-.45,3.09-5.39,3.19,5.42Zm6.33,0h0l-2.34,4.08h0l-.69,1.21-3.08-5.33,3.06-5.3,3.08,5.35Zm-12.84,11h0l-.53.93-1.82,3.15h0l-.69,1.2-3.07-5.32,2.93-5.08,1-1.72h0l.46-.82,1.77-3,.07-.13.26.44,2.8,4.85h0Zm3.21,14.42,0,0,0,0Zm0,0-3.16,5.51,0,0v0l-.54.94-1,1.67-.85,1.47h0l-.69,1.2-3.07-5.33,5.74-9.94,0-.07.45-.79.46.79,2.6,4.51Zm-6.34,11h0L183.2,205,177,194.23l3.05-5.32,6.23,10.79Zm-22.17-5.39h0l-2.35,4.08h0l-.69,1.2L158,194.23l3.06-5.3,3.07,5.36Zm-12.85-.06-.45.79-1.08,1.87-.82,1.42h0l-.69,1.2-3.08-5.33,5.78-10,.19-.32.27-.47.45.79,2.6,4.51h0l-3.17,5.51,0,0ZM126,183l-.08.14h0v0h0l-.56,1-.85,1.47L119.69,194l-.09-.16-5.71-9.67-.58-1,.23-.39,2.32-3.91,3.14,5.28.6,1,0,.07,0,0h0l0,0,0,0h0l.11,0,.68-1.18,5.58-9.7,2.49,4.34L126,183Zm-.1,11.25h0l-2.35,4.08h0l-.69,1.2-3.07-5.33,3.06-5.3,3.07,5.36Zm-12.85-.06-.68,1.2-.75,1.29-.92,1.59h0l-.69,1.2L107,194.18l5.78-10,.17-.28.29-.51.45.79,2.61,4.51h0l-3.17,5.51,0,0ZM85.42,178.36h0l-.69,1.2-3.08-5.32,3.06-5.31,3.08,5.37,0,0Zm-7.28-9.7,0,0,0,0Zm7.28-21.34h0l-.69,1.2-3.08-5.33,3.06-5.3,3.08,5.36h0Zm-7.28-9.71,0,0,0,0Zm7.28-21.33h0l-.69,1.2-3.08-5.32,3.06-5.3,3.08,5.36h0Zm-7.28-9.71,0,0,0,0Zm3.29,5.19-6-10.22-.26-.45,3.09-5.38,3.19,5.41v0h0l3.15,5.46h0l-1.75,3.06-1.32,2.27Zm4-26.53h0l-.69,1.2L81.65,81.1l3.06-5.3,3.08,5.36h0Zm-7.28-9.71,0,0,0,0Zm98,6.69-1.69,3h0l-.7,1.22-3.08-5.32,6.22-10.8,3.06,5.34Zm.21,30.69-1.9,3.31h0l-.7,1.23-3.08-5.33,6.22-10.8,3.06,5.34Zm-.15,31.3-1.75,3.05h0l-.7,1.22-3.08-5.32,6.22-10.8,3.06,5.33Zm.09,30.9-1.84,3.2h0l-.7,1.23-3.08-5.33,6.22-10.8,3.06,5.34Zm-15.1-6.36,3.05-5.28,3.15,5.46,3.07,5.35h0l3.15,5.45L171,184.17l-.5.88-.51-.88Zm-3.39,16-.37-.61-5.91-9.94,3.09-5.39,3.19,5.4,0,0h0l3.15,5.46,0,0-2.54,4.44-.49.85v0Zm-6.4-1.79h0l-.09.15-.6,1L145,194l-3.08-5.31h0l-2.59-4.48-.54-.94,2.5-4.21,3,5.15.67,1.16.1-.06.07,0,.65-1.13,3.3-5.74h0l1.61-2.81.69-1.19,2.54,4.27-2.39,4Zm-12.78.24h0l-.54.93L132.35,194l-3.1-5.36h0l-2.57-4.46-.54-.93,2.51-4.23,3,5.16.65,1.14.11-.06.06,0,.65-1.12,3.31-5.76h0l2-3.42.33-.56,2.51,4.38-2.6,4.36ZM119.75,185l-.15-.26-.37-.61-5.91-9.94,3.09-5.39,3.19,5.4,0,0h0l3.14,5.46,0,0-2.54,4.44-.48.83Zm-6.55-2h0l-.09.15-.6,1L106.85,194l-3.07-5.31h0l-2.59-4.48-.54-.94,2.51-4.21,3,5.15.67,1.16.1-.06.07,0,.65-1.13,3.3-5.74h0l1.79-3.11.51-.89,2.54,4.27-2.38,4ZM98.08,178.3h0l-.7,1.23-3.07-5.33,6.21-10.8,3.07,5.34-3.49,6.06Zm0-31.05h0l-.7,1.22-3.07-5.32,6.21-10.8,3.07,5.33L100,143.91ZM87.76,132.2h0l-2.35,4.08h0l-.69,1.2-3.07-5.32,3.06-5.31,3.07,5.36Zm3.34,5.4h0L87.88,132h0l-3.08-5.35,2.64-4.57.41-.71.07.1.35.61,9,15.54L94.18,143l-3.06-5.31Zm7-21.39h0l-.7,1.23L94.3,112.1l6.21-10.8,3.07,5.34-3.44,6Zm0-31h0l-.7,1.22L94.3,81.06l6.21-10.8,3.07,5.34L100,81.9ZM100.14,60l.35-.61.05-.1,0,0L101,60l2.62,4.54-3.34,5.82h0l-2.17,3.77h0l-.71,1.23-3-5.27Zm16.16,4.49,0,0,0,0Zm.11.18,3.19,5.42v0h0l3.15,5.46h0L121,78.64l-1.3,2.25-.1-.17-6-10.25-.24-.42Zm15.85,16.47h0l3.14,5.45L132.87,91l-.51.88-.51-.88L123,75.6,126,70.32l3.15,5.46Zm6-21.14.36-.61.05-.1,0,0,.39.68,2.62,4.54-3.34,5.82h0l-2.17,3.77h0l-.7,1.23-3-5.27Zm16.17,4.49,0,0,0,0Zm.11.18,3.19,5.42v0h0l3.15,5.46h0l-1.77,3.08-1.3,2.25-.1-.17-6-10.22-.27-.45Zm9.56-5.3.05-.08.41.71,9,15.55-3,5.21-.06.11-3-5.22-.08-.13h0l-3.23-5.59h0l-3.08-5.35L163.78,60Zm6.44,52.44-.06.1-3-5.26,0-.08h0L164.22,101h0l-3.08-5.36L163.77,91l.37-.63.05-.09.41.72,9,15.54ZM170.52,143l-3.06-5.31,0,0h0l-3.23-5.6h0l-3.08-5.35,2.64-4.57.41-.71.06.09.35.62,9,15.54Zm-12.75,10.79-.37-.61-5.91-9.95,3.09-5.38,3.19,5.39,0,.06h0l3.15,5.45h0l-2.54,4.44-.49.84v0ZM170.52,174l-3-5.21-.08-.14h0L164.22,163h0l-3.08-5.36,2.64-4.56.36-.63.05-.09.41.72,9,15.54-3,5.22Zm-19.26.24h0l-.45.78-1.9,3.3h0l-.69,1.2-3.06-5.32,2.77-4.82,1.15-2h0l.44-.77,1.78-3.1.08-.13.27.45,2.79,4.84h0Zm-12.45,0,3.05-5.31,3.07,5.35h0l3.13,5.43,0,0-2.58,4.49-.52.9-.51-.9Zm-2.56,4.06h0l-.7,1.23-3.08-5.33,6.22-10.8,3.06,5.34-3.48,6.06Zm-23.16-4.07h0l-.29.5-2.06,3.58h0l-.69,1.2L107,174.19l2.91-5.05,1-1.75h0l.44-.77,1.79-3.1.07-.13.27.45,2.79,4.84h0Zm0-31-.33.58-2,3.5h0l-.69,1.21L107,143.15l3-5.21.92-1.6h0l.46-.79,1.84-3.2.24.39,2.82,4.9,0,0-3.2,5.56Zm-15-7h0l-.71,1.23-3-5.27,5.83-10.08.4-.71.41.71,2.62,4.54-3.34,5.82h0Zm15-24.07-.43.75-1.92,3.33h0l-.69,1.2L107,112.1l3.25-5.66.67-1.14h0l.52-.91,1.7-3,.08-.14.27.45,2.79,4.84h0l-3.19,5.56Zm3.22-36.62,0,0,0,0Zm.1.19,3.19,5.4,0,0h0l3.14,5.45h0L120.25,91l-.5.87-.15-.26-.37-.61-5.91-9.94Zm7.18,9.52h0l-.69,1.2-3.07-5.33,3.06-5.3L126,81.16h0Zm-7.73.53L119,91l.6,1,0,.06,0,0,0,0,0,0h0l.11.06.68-1.18,5.58-9.7,2.49,4.34L126,89.91h0l-.08.15h0v0h0l-.56,1-.85,1.47-4.83,8.35-.09-.15L113.89,91l-.58-1,.23-.38Zm32.23.8h0L145.54,91l-.52.89-.51-.89-5.7-9.93,3.05-5.32,3.07,5.36h0Zm-9.41-16.3,3.06,5.34-3.62,6.3-1.87,3.26h0l-.7,1.22-3.08-5.32Zm-6.23,21.9L133.1,91l3.31-5.76h0l1.69-2.94.6-1,2.51,4.38-2.6,4.36,0,0h0L138,91l-5.69,9.83-3.1-5.36h0L126.69,91l-.54-.94,2.51-4.22,3,5.16.65,1.14.11-.06Zm25.33,9h0l3.15,5.46h0l-1.75,3.06-1.32,2.27-.1-.17-6-10.22-.27-.45,3.1-5.38,3.19,5.41Zm6.32,0h0l-2.35,4.08h0l-.69,1.2L158,101.1,161,95.8l3.07,5.35Zm-12.84,11h0l-.59,1-1.76,3h0l-.69,1.2-3.06-5.32,3.1-5.39.82-1.41h0l.52-.91,1.7-3,.08-.14.27.45,2.79,4.84h0Zm6.52,20h0l3.15,5.47,0,0-1.75,3.06L157.87,143l-.1-.18-6-10.24-.25-.43,3.1-5.38,3.19,5.42Zm6.32,0h0l-2.35,4.08h0l-.69,1.2L158,132.15l3.06-5.31,3.07,5.36Zm-12.84,11h0l-.51.88-1.84,3.2h0l-.69,1.21-3.06-5.32,2.86-5,1.06-1.83h0l.45-.79,1.85-3.2.24.39,2.82,4.9,0,0Zm3.21,14.43,0,0,0,0Zm0,0-3.17,5.52,0,0v0l-.41.71-1.2,2.08-.74,1.29h0l-.69,1.2-3.08-5.32,5.78-10,.19-.33.27-.46.45.79,2.6,4.51Zm-18.22,9.63h0l-.7,1.22-3-5.26,5.82-10.08.36-.62.05-.09,0,0,.39.69,2.62,4.53-3.34,5.82h0Zm11.83,1.47L145,174l-6.23-10.77,3.06-5.33,6.22,10.79h0Zm-9.45-16.58,0,.05h0l-.54.94L132.35,163l-3.1-5.37h0l-2.57-4.46-.54-.94,2.51-4.22,3,5.16.65,1.14.11-.06.06,0,.65-1.11,3.31-5.76h0l1.84-3.19.45-.78,2.51,4.38Zm-15-4.82h0l-.69,1.2-3.07-5.33,3.06-5.3,3.08,5.36h0Zm-7.28-9.71,0,0,0,0Zm-2.75-5.05-.24-.43,3.09-5.38,3.19,5.42v0h0l3.15,5.47,0,0L121,140.7,119.7,143l-.1-.18Zm24.61,11.35-1.92,3.34h0l-.7,1.22-3.08-5.32,6.22-10.8,3.06,5.33ZM125.93,132.2h0l-2.35,4.08h0l-.69,1.2-3.07-5.32,3.06-5.31,3.07,5.36Zm3.33,5.4h0l-3.23-5.6h0L123,126.65l2.64-4.57.41-.71.06.1.35.61,9,15.54L132.35,143l-3.06-5.31ZM145,142.92l-6.23-10.77,3.06-5.33,6.22,10.79,0,0Zm-6.63-10.48h0l-2.17,3.77h0l-.7,1.23-3-5.27,5.82-10.08.41-.71.41.71,2.62,4.54Zm-22.1-5.87,0,0,0,0ZM123,137.69l3-5.16.07-.12,3.15,5.46,3.07,5.35h0l3.14,5.45-2.55,4.46-.44.76-.07.12-.51-.88Zm15.82,5.51,3.05-5.32,3.07,5.36,0,0,3.13,5.43h0l-2.58,4.49L145,154l-.51-.89Zm15.67-5.59,0,0-.05,0Zm0-11h0l0,0Zm0,0-3.17,5.51,0,0v0l-.26.46-1.33,2.3-.76,1.32h0l-.69,1.2-3.08-5.33,5.69-9.86.09-.15.46-.78.45.78,2.6,4.51Zm-15.84-5.48,0,0h0l-.54.93-5.69,9.83-3.1-5.36h0l-2.57-4.46-.54-.93,2.51-4.23,3,5.16.65,1.14.11-.06.06,0,.65-1.12,3.31-5.75h0l1.79-3.12.5-.86,2.51,4.38Zm-15-4.82h0l-.69,1.2-3.07-5.32,3.06-5.3,3.08,5.36h0Zm-7.28-9.71,0,0,0,0Zm-2.75-5-.24-.43,3.09-5.38,3.19,5.41v0h0l3.15,5.46h0L121,109.66l-1.32,2.27-.1-.17Zm24.75,11.11-2.06,3.58h0l-.7,1.23-3.08-5.33,6.22-10.79,3.06,5.33Zm9.75-6-3,5.24L138.8,101.1l3.06-5.33,6.22,10.79h0Zm-9.66-5.23h0l-2.17,3.76h0l-.7,1.22-3-5.26L138.3,91l.35-.61.06-.1v0l.4.69,2.62,4.54ZM126,90.32l.41.72,9,15.54-3,5.23-.05.09-3-5.26-.05-.08h0L126.05,101h0L123,95.6,125.61,91l.36-.64Zm-.09,10.84h0l-2.35,4.08h0l-.69,1.2-3.07-5.33,3.06-5.3,3.07,5.35Zm-9.63-5.64,0,0,0,0ZM123,106.65l3-5.17.07-.11,3.22,5.59,3,5.22h0l3.15,5.46-2.55,4.45-.51.88-.51-.88Zm15.82,5.5,3.05-5.31,3.07,5.35h0l3.13,5.43,0,0-2.58,4.49-.46.8-.06.1-.51-.9Zm15.67-5.58,0,0,0,0Zm0-11h0l0,0Zm0,0-3.17,5.52,0,0v0l-.45.79-1.08,1.87-.82,1.42h0l-.69,1.21-3.08-5.33,5.78-10,.16-.28.3-.51.45.79,2.6,4.51ZM113.65,91l2.61,4.51,0,0-3.17,5.52,0,0v0l-.68,1.2-.75,1.28-.92,1.6h0l-.69,1.21L107,101.05l5.78-10,.14-.23.32-.56Zm-3.73,15.52h0l0,.08-3,5.24-6.23-10.77,3.06-5.33Zm6.5.19,3.18,5.4,0,0h0l3.14,5.45h0l-2.54,4.43-.5.87-.15-.26-.37-.61-5.91-9.94Zm-.56,10,3.14,5.28.6,1,0,.07,0,0,0,0,0,0h0l.11.06.68-1.19,5.58-9.7,2.49,4.34L126,121h0l-.08.14h0v0h0l-.55,1-.82,1.42-4.87,8.41-.09-.16-5.71-9.67-.58-1,.23-.39Zm-2.21,5.28,2.61,4.51h0l-3.17,5.51,0,0v0l-.49.86-1,1.73-.86,1.49h0l-.69,1.2L107,132.09l5.66-9.79.12-.22.46-.78Zm-3.71,15.51-3.08,5.33-6.23-10.77,3.06-5.33,6.23,10.79Zm6.48.21,3.18,5.39,0,.06h0l3.14,5.45h0l-2.54,4.44-.48.83,0,0-.15-.25-.37-.61-5.91-9.95Zm-.56,10,3.14,5.28.6,1,0,.06,0,0h0l0,0,0,0h0l.11.06.68-1.18,5.58-9.7,2.49,4.34L126,152h0l-.08.14h0v0h0l-.55,1-.89,1.53-4.8,8.29-.09-.16-5.71-9.66-.47-.8-.09-.16h0l0,0,.23-.38Zm10.07,15.4h0l-2.35,4.08h0l-.69,1.21-3.07-5.33,3.06-5.3,3.07,5.35Zm-9.63-5.64,0,0,0,0Zm-2.65-4.48,2.61,4.51,0,0-3.17,5.52,0,0v0l-.63,1.1-.86,1.48-.86,1.5h0l-.69,1.2L107,163.14l5.78-10,.17-.29.29-.5Zm-3.73,15.52h0l0,0L106.86,174l-6.23-10.77,3.06-5.33Zm6.39,0,0,0,0,0Zm-2.75-5-.24-.43,3.09-5.39,3.19,5.42v0h0l3.15,5.46h0L121,171.77,119.7,174l-.1-.17Zm15.7,5h0L126.05,163h0L123,157.69l2.64-4.56.36-.64,0-.08.41.72,9,15.54-3,5.23-.06.09-3-5.22Zm25.22,0,0,0,0,0Zm-2.73-5-.27-.45,3.1-5.39,3.19,5.42v0h0l3.15,5.46h0l-1.77,3.08-1.3,2.25-.1-.17Zm12.35-.38h0l-2.35,4.08h0l-.69,1.21L158,163.19l3.06-5.3,3.07,5.35Zm-12.73-11.31h0l-.09.15-.6,1L145,162.91l-3.08-5.3h0l-2.59-4.47-.54-.95,2.51-4.2,2.95,5.15.67,1.15.1-.06.07,0,.65-1.13,3.3-5.74h0l1.78-3.11.52-.9,2.54,4.27-2.39,4Zm10.39-4.62h0l-.69,1.2L158,143.19l3.06-5.3,3.08,5.36h0ZM151.37,120.9h0l-.23.38-.46.8L145,131.87,142,126.56h0l-2.59-4.48-.54-.94,2.5-4.21,3,5.15.67,1.16.1-.06.07,0,.65-1.14,3.3-5.74h0l1.66-2.89.64-1.11,2.54,4.27-2.39,4Zm.12-8.76,3.09-5.39,3.19,5.4,0,0h0l3.15,5.45h0l-2.54,4.43-.5.87-.15-.26-.37-.61Zm10.27,4.14h0l-.69,1.2L158,112.15l3.06-5.3,3.08,5.36h0ZM151.37,89.85h0l-.09.15-.6,1L145,100.82l-3.08-5.3h0L139.36,91l-.54-.94,2.5-4.21,3,5.15L145,92.2l.1-.07.07,0,.65-1.13,3.3-5.74h0l1.61-2.81.69-1.2,2.54,4.28-2.39,4Zm.12-8.75,3.09-5.39,3.19,5.4,0,0h0l3.15,5.45h0L158.42,91l-.5.87-.15-.26L157.4,91Zm3-5.58,0,0,0,0Zm7.28,9.71h0l-.69,1.2L158,81.1l3.06-5.3,3.08,5.36h0Zm2.34-15.12h0l-2.35,4.08h0l-.69,1.2L158,70.06l3.06-5.3Zm-12.73.15.27.45,2.79,4.84h0l-3.19,5.56h0l-.45.78-1.9,3.3h0l-.69,1.2-3.06-5.32,2.77-4.82,1.15-2h0l.44-.76,1.78-3.1Zm-3.31,5.33-3,5.24L138.8,70.06l3.06-5.33,6.22,10.79,0,0Zm-22.13-5.48h0l-2.35,4.08h0l-.69,1.2-3.07-5.32,3.06-5.3,3.07,5.35Zm-12.73.15.27.45,2.79,4.84h0l-3.19,5.56h0l-.29.5-2.06,3.58h0l-.69,1.2L107,81.06,109.89,76l1-1.75h0l.44-.76,1.79-3.1Zm-3.28,5.28-3.06,5.29-6.23-10.77,3.06-5.33,6.23,10.79h0Zm-6.23.25,3.08,5.36h0l3.14,5.42h0L107.37,91l-.51.89-.52-.89-5.7-9.93Zm-.53,10.1,3,5.15.67,1.16.1-.07.07,0L107.6,91l3.3-5.74h0l1.79-3.11.51-.9,2.54,4.28-2.38,4-.17.28h0l-.09.15-.6,1-5.66,9.78-3.07-5.3h0L101.19,91l-.54-.94Zm-3,5.15.36-.61.05-.1,0,0L101,91l2.62,4.54-3.34,5.82h0l-2.17,3.76h0l-.71,1.22-3-5.26Zm3.56,15.8,3.08,5.35h0l3.14,5.43h0l-2.58,4.48-.45.78-.06.12-.52-.9-5.7-9.93Zm-.53,10.09,3,5.15.67,1.16.11-.06.06,0,.65-1.14,3.3-5.74h0l1.83-3.19.47-.81,2.54,4.27-2.38,4-.17.29h0l-.09.15-.6,1-5.66,9.79-3.07-5.31h0l-2.59-4.48-.54-.94Zm.53,20.95,3.08,5.36,0,0,3.14,5.43h0l-2.58,4.49-.51.89-.52-.89-5.7-9.93Zm-.53,10.1,3,5.15.67,1.15.1-.06.07,0,.65-1.13,3.3-5.74h0l2-3.42.34-.59,2.54,4.27-2.38,4-.17.28h0l-.09.15-.6,1-5.66,9.78-3.07-5.3h0l-2.59-4.47-.54-.95Zm-3,5.15.35-.62.05-.09,0,0,.39.68,2.62,4.53-3.34,5.82h0l-2.17,3.77h0l-.71,1.22-3-5.26Zm3.55,15.8,3.08,5.35h0l3.14,5.43,0,0-2.58,4.49-.51.9-.52-.9-5.7-9.93Zm19.9,9.43h0l-.69,1.2-3.07-5.32,3.06-5.31L126,174.3l0,0Zm-.6-9.62,3.05-5.28,3.15,5.45,3.07,5.36h0l3.14,5.45-2.55,4.46-.51.88-.51-.88Zm38.77,9.62h0l-.69,1.2L158,174.24l3.06-5.31,3.08,5.37,0,0ZM183.2,174,177,163.19l3.05-5.33,6.23,10.79h0Zm-6.59-10.55-2.21,3.84h0l-.7,1.22-3-5.26,5.82-10.08.36-.62,0-.09v0l.4.69,2.62,4.54ZM164.2,152h0l-.1.17h0l-.56,1-.83,1.43L157.86,163l-.09-.16-5.71-9.66-.23-.4-.33-.56h0l0,0,.22-.38,2.33-3.91,3.14,5.28.6,1,0,.06v0h0l0,0,0,0h0l.1.06.69-1.18,5.58-9.7,2.49,4.34Zm-3-14.3,3-5.16.07-.12,3.15,5.47,3.07,5.34h0l3.15,5.45L171,153.13l-.44.78-.06.1-.51-.88Zm22,5.23L177,132.15l3.05-5.33,6.23,10.79,0,0Zm-6.63-10.48h0l-2.17,3.77h0l-.7,1.23-3-5.27,5.82-10.08.41-.71.41.71,2.62,4.54ZM164.2,121h0l-.08.14h0l0,0h0l-.56,1-.77,1.33-4.91,8.5-.09-.16-5.71-9.67-.51-.86-.05-.09h0l0,0,.22-.39L154,116.8l3.14,5.28.6,1,0,.07v0l0,0,0,0h0l.1.06.69-1.19,5.58-9.7,2.49,4.34Zm-3-14.3,3-5.17.07-.11,3.23,5.59,3,5.22h0l3.15,5.46L171,122.08l-.5.88-.51-.88Zm25.11-.1-3.07,5.32L177,101.1,180,95.78l6.23,10.78Zm-9.7-5.15h0l-2.17,3.76h0l-.7,1.22-3-5.26L176.47,91l.35-.61.06-.1h0l.4.7,2.62,4.54ZM164.2,89.91h0l-.1.17h0l-.56,1-.8,1.38-4.88,8.44-.09-.15L152.06,91l-.35-.61-.21-.34h0l0,0,.22-.38L154,85.76,157.17,91l.6,1,0,.06v0l0,0,0,0h0l.1.06.69-1.18,5.58-9.7,2.49,4.34Zm-3-14.31,3.05-5.28,3.15,5.47,3.07,5.34h0l3.15,5.45L171,91l-.5.88L170,91Zm22,5.23L177,70.06,180,64.73l6.23,10.79,0,0Zm-6.59-10.55-2.21,3.84h0l-.7,1.23-3-5.27L176.47,60l.36-.61,0-.09v0l.4.68,2.62,4.54ZM151.82,60l2.6,4.51h0L151.28,70l0,0v0l-.41.71-1.2,2.09-.74,1.28h0l-.69,1.2L145.13,70l5.78-10,.19-.32.27-.46ZM126,59.28l.41.71,9,15.55-3,5.22-.06.1-3-5.22-.08-.13h0l-3.23-5.59h0L123,64.56,125.61,60l.36-.63ZM113.65,60l2.61,4.51h0L113.11,70l0,0v0l-.63,1.1-.86,1.49-.86,1.49h0l-.69,1.2L107,70l5.78-10,.17-.28.29-.5Zm-25.8-.71.42.71,9,15.55-3,5.23,0,.09-3-5.22-.07-.13h0l-3.23-5.59h0L84.8,64.56,87.44,60l.37-.63Zm-.09,10.83h0L85.4,74.19h0l-.69,1.2-3.07-5.32,3.06-5.3,3.07,5.35Zm-9.63-5.63,0,0,0,0Zm.11.18,3.19,5.42v0h0l3.15,5.46h0l-1.77,3.08-1.3,2.25-.1-.18-6-10.22-.26-.44ZM84.83,75.6l3-5.28L91,75.79l3.07,5.34h0l3.15,5.45L94.7,91l-.51.88-.5-.88ZM90.5,85.88l3,5.16.65,1.14.11-.06.06,0L94.93,91l3.31-5.76h0l1.69-2.94.6-1L103,85.69l-2.59,4.36,0,0h0l-.53.93-5.69,9.83-3.11-5.36h0L88.52,91,88,90.1Zm-2.65,4.44.42.72,9,15.54-3,5.24,0,.08-3-5.26-.05-.08h0L87.88,101h0L84.8,95.6,87.44,91l.37-.64Zm-.09,10.84h0l-2.35,4.08h0l-.69,1.2-3.07-5.33,3.06-5.3,3.07,5.35Zm-9.63-5.64,0,0,0,0Zm6.7,11.13,3-5.17.06-.11L91.1,107l3,5.22h0l3.15,5.46-2.56,4.45-.51.88-.5-.88Zm5.67,10.27,3,5.16.65,1.14.11-.06.06,0,.65-1.12,3.31-5.75h0l1.79-3.12.5-.86,2.51,4.38-2.59,4.37,0,0h0l-.53.93-5.69,9.83-3.11-5.36h0l-2.57-4.46-.54-.93Zm-12.37,9.65,0,0,0,0Zm.11.18,3.19,5.42v0h0l3.15,5.47,0,0-1.75,3.06L81.53,143l-.1-.18-6-10.24-.24-.43Zm6.59,10.94,3-5.16.06-.12L91,137.88l3.07,5.34h0l3.15,5.45-2.56,4.46-.44.76-.07.12-.5-.88ZM90.5,148l3,5.16.65,1.14.11-.06.06,0,.65-1.11,3.31-5.76h0l1.84-3.19.45-.78,2.51,4.38-2.59,4.36,0,.05h0l-.53.94L94.19,163l-3.11-5.37h0l-2.57-4.46-.54-.94Zm-2.65,4.44.42.72,9,15.54-3,5.23,0,.09-3-5.21-.07-.14h0L87.88,163h0l-3.08-5.36,2.64-4.56.37-.64Zm-.09,10.84h0l-2.35,4.08h0l-.69,1.2-3.07-5.32,3.06-5.3,3.07,5.35Zm-9.63-5.64,0,0,0,0Zm.11.18,3.19,5.42v0h0l3.15,5.46h0l-1.77,3.08L81.53,174l-.1-.17-6-10.22-.26-.45Zm6.59,11,3-5.28L91,168.92l3.07,5.35h0l3.15,5.45-2.56,4.46-.51.88-.5-.88ZM90.5,179l3,5.16.65,1.14.11-.06.06,0,.65-1.12,3.31-5.76h0l2-3.42.33-.56,2.51,4.38-2.59,4.36,0,0h0l-.53.93L94.19,194l-3.11-5.36h0l-2.57-4.46-.54-.93Zm19.42,20.69,0,0,0,.08-3,5.24-6.23-10.77,3.06-5.32Zm6.38-11,0,0,0,0Zm31.78,11,0,0-.05.08L145,205l-6.23-10.77,3.06-5.32Zm6.39-11,0,0,0,0ZM164.2,183l-.1.16h0l-.56,1-.8,1.38L157.86,194l-.09-.16-5.71-9.67-.37-.62-.19-.33h0l0,0,.22-.39,2.33-3.91,3.14,5.28.6,1,0,.07v0h0l0,0,0,0h0l.1,0,.69-1.18,5.58-9.7,2.49,4.34L164.2,183Zm12.58.14,0,0h0l-.54.93L170.52,194l-3.1-5.36h0l-2.57-4.46-.54-.93,2.51-4.23,3,5.16.66,1.14.11-.06.06,0,.64-1.12,3.32-5.76h0l1.78-3.11.5-.87,2.52,4.38Zm.2-8.94,3.05-5.31,3.07,5.35h0l3.13,5.43,0,0-2.57,4.49-.52.9-.51-.9Zm15.66-5.58,0,0,0,0Zm0-11h0l0,0Zm0,0-3.16,5.52,0,0v0l-.49.85-1.07,1.85-.79,1.38h0l-.69,1.2-3.07-5.32L189,153.2l0-.07.45-.79.46.79,2.6,4.51Zm-15.83-5.48,0,.05h0l-.54.93L170.52,163l-3.1-5.37h0l-2.58-4.46-.53-.94,2.51-4.22,3,5.16.66,1.14.11-.06.06,0,.64-1.11,3.32-5.76h0l1.66-2.89.62-1.08,2.52,4.38Zm.2-8.94,3.05-5.32,3.07,5.36,0,0,3.13,5.43h0l-2.57,4.49-.52.89-.51-.89Zm15.66-5.59,0,0,0,0Zm0-11h0l0,0Zm0,0-3.16,5.51,0,0v0l-.35.62-1.21,2.09-.79,1.37h0l-.69,1.2-3.07-5.33,5.48-9.48.3-.53.46-.78.45.78,2.6,4.51Zm-15.83-5.48,0,0h0l-.54.93-5.69,9.83-3.1-5.36h0l-2.58-4.46-.53-.93,2.51-4.23,3,5.16.66,1.14.11-.06.06,0,.64-1.12,3.32-5.75h0l1.62-2.82.66-1.16,2.52,4.38Zm.2-8.95,3.05-5.31,3.07,5.35h0l3.13,5.43,0,0-2.57,4.49-.46.8-.06.1-.51-.9Zm15.66-5.58,0,0,0,0Zm0-11h0l0,0Zm0,0-3.16,5.52,0,0v0l-.54.94-1,1.66-.85,1.48h0l-.69,1.21-3.07-5.33,5.7-9.87.08-.14.45-.79L190,91l2.6,4.51Zm-15.83-5.48,0,0h0l-.54.93-5.69,9.83-3.1-5.36h0L164.86,91l-.54-.94,2.51-4.22,3,5.16.66,1.14.11-.06.06,0,.64-1.12,3.32-5.76h0l1.51-2.63.77-1.34,2.52,4.38Zm.2-8.94L180,75.79l3.07,5.36h0l3.13,5.42h0L183.71,91l-.52.89-.51-.89Zm15.66-5.59,0,0,0,0Zm0-11h0l0,0Zm0,0L189.45,70l0,0v0l-.49.86-1.07,1.85-.79,1.37h0l-.69,1.2L183.3,70,189,60.07l0-.08.45-.78L190,60l2.6,4.51Zm-41.08-6-.16.29h0l-.09.15-.6,1L145,69.78l-3.08-5.31h0L139.36,60l-.54-.94,2.51-4.21L144.28,60l.67,1.16.1-.06.07,0,.65-1.14,3.3-5.74h0l1.51-2.63.79-1.38,2.54,4.27Zm-38.16,0-.17.29h0l-.09.15-.6,1-5.66,9.79-3.07-5.31h0L101.19,60l-.54-.94,2.51-4.21,3,5.15.67,1.16.1-.06.07,0L107.6,60l3.31-5.74h0l1.69-2.95.61-1.06,2.54,4.27ZM75.48,60l2.61,4.51h0L74.94,70l0,0v0l-.65,1.15-.9,1.56-.8,1.37h0l-.69,1.2L68.79,70l5.79-10,.17-.3.28-.48Zm-13,10.07,3.06-5.33,6.23,10.79h0l0,.07-3,5.25L62.46,70.06Zm15.79,5.65,3.18,5.39,0,.06h0l3.14,5.45h0L82.08,91l-.5.87-.15-.26L81.07,91,75.15,81.1ZM77.7,85.76,80.83,91l.6,1,0,.06v0l0,0,0,0h0l.1.06L82.31,91l5.58-9.7,2.49,4.34-2.51,4.23h0l-.08.15h0v0h0l-.55,1-.85,1.47-4.84,8.35-.09-.15L75.73,91l-.36-.61-.2-.34h0v0l.22-.38ZM75.48,91l2.61,4.51,0,0-3.17,5.52,0,0v0l-.71,1.25-.78,1.35-.86,1.48h0l-.69,1.21-3.08-5.33,5.79-10,.14-.25.31-.54Zm-13,10.06,3.06-5.33,6.23,10.79h0l-.07.12-3,5.2-6.23-10.76Zm15.79,5.65,3.18,5.4,0,0h0l3.14,5.45h0l-2.55,4.43-.5.87-.15-.26-.37-.61-5.91-9.94Zm-.55,10,3.13,5.28.6,1,0,.07v0l0,0,0,0h0l.1.06.68-1.19,5.58-9.7,2.49,4.34L87.87,121h0l-.08.14h0v0h0l-.55,1-.82,1.42-4.87,8.41-.09-.16-5.7-9.67-.51-.86,0-.09h0l0,0,.22-.39Zm-2.22,5.28,2.61,4.51h0l-3.17,5.51,0,0v0l-.51.9-1,1.81-.8,1.37h0l-.69,1.2-3.08-5.33,5.68-9.83.11-.18.45-.78Zm-13,10.07,3.06-5.33,6.23,10.79,0,0,0,0-3.06,5.3-6.23-10.77Zm15.79,5.65,3.18,5.39,0,.06h0l3.14,5.45h0l-2.55,4.44-.48.83,0,0-.15-.25-.37-.61-5.91-9.95Zm-.55,10,3.13,5.28.6,1,0,.06v0h0l0,0,0,0h0l.1.06.68-1.18,5.58-9.7,2.49,4.34L87.87,152h0l-.08.14h0v0h0l-.55,1-.89,1.53L81.52,163l-.09-.16-5.7-9.66-.24-.4-.32-.56h0v0l.22-.38Zm-2.22,5.28,2.61,4.51,0,0-3.17,5.52,0,0v0l-.65,1.14-.9,1.56-.8,1.38h0l-.69,1.2-3.08-5.32,5.79-10,.17-.31.28-.48Zm-13,10.06,3.06-5.33,6.23,10.79h0l0,.08-3,5.24-6.23-10.77Zm15.79,5.65,3.18,5.4,0,0h0l3.14,5.46,0,0-2.55,4.44-.48.83,0,0-.15-.26-.36-.61-5.92-9.94Zm-.55,10,3.13,5.28.6,1,0,.07v0h0l0,0,0,0h0l.1,0,.68-1.18,5.58-9.7,2.49,4.34L87.87,183h0l-.08.14h0v0h0l-.55,1-.85,1.47L81.52,194l-.09-.16-5.7-9.67-.37-.62-.19-.33h0v0l.22-.39Zm10.06,15.4h0l-2.35,4.08h0l-.69,1.2-3.07-5.33,3.06-5.3,3.07,5.36Zm-9.63-5.64,0,0,0,0Zm-2.65-4.48,2.61,4.51h0l-3.17,5.51,0,0v0l-.71,1.25-.78,1.36-.86,1.47h0l-.69,1.2-3.08-5.33,5.79-10,.17-.3.28-.49Zm-13,10.06,3.06-5.32,6.23,10.79,0,0-.07.12-3,5.2-6.23-10.76Zm19,10.66-6-10.22-.26-.45,3.09-5.38,3.19,5.42v0h0l3.15,5.46h0l-1.75,3.06-1.32,2.28Zm9.67-5.2h0l-3.23-5.6h0l-3.08-5.36,2.64-4.56.37-.63,0-.09.42.72,9,15.54-3,5.24,0,.09-3-5.26Zm7-1.4h0l-.71,1.22-3-5.26,5.82-10.08.36-.61.05-.1,0,0,.39.68,2.62,4.54-3.34,5.82h0Zm15.5-3.64-.24-.43,3.09-5.38,3.19,5.42v0h0l3.15,5.46h0L121,202.79l-1.32,2.28-.1-.18Zm22.67,3.64h0l-.7,1.22-3-5.26,5.82-10.08.35-.61.06-.1v0l.4.69,2.62,4.54-3.34,5.82h0Zm15.52-3.61-.27-.46,3.1-5.38,3.19,5.42v0h0l3.15,5.46h0l-1.75,3.06-1.32,2.28-.1-.18Zm15.68,5h0l-3.23-5.6h0l-3.08-5.36,2.63-4.56.37-.63.05-.09.41.72,9,15.54-3,5.23-.06.1-3-5.26Zm7-1.4h0l-.7,1.22-3-5.26,5.82-10.08.35-.61.06-.1v0l.4.69,2.62,4.54-3.34,5.82h0Zm15.51-3.62-.26-.45,3.09-5.38,3.19,5.42v0h0l3.16,5.46h0l-1.69,2.94-1.38,2.4-.11-.18Zm12.36-.38h0l-2.34,4.08h0l-.69,1.2-3.08-5.33,3.06-5.3,3.08,5.36ZM189.54,183h0l-.08.15-.6,1L183.18,194l-3.07-5.31h0l-2.59-4.48-.54-.94,2.5-4.21,3,5.15.66,1.16.11-.06.07,0,.65-1.13,3.3-5.74h0l1.55-2.69.76-1.31,2.53,4.27-2.38,4h0Zm10.39-4.63h0l-.69,1.2-3.07-5.32,3.06-5.31,3.07,5.37,0,0Zm-10.39-26.42h0l-.08.15-.6,1-5.67,9.78-3.07-5.3h0l-2.59-4.47-.54-.95,2.5-4.2,3,5.15.66,1.15.11-.06.07,0,.65-1.13,3.3-5.74h0l1.7-3,.61-1.05,2.53,4.27-2.38,4h0Zm10.39-4.62h0l-.69,1.2-3.07-5.33,3.06-5.3,3.07,5.36h0ZM189.54,120.9h0l-.21.38-.47.8-5.67,9.79-3.07-5.31h0l-2.59-4.48-.54-.94,2.5-4.21,3,5.15.66,1.16.11-.06.07,0,.65-1.14,3.3-5.74h0l1.59-2.76.72-1.24,2.53,4.27-2.38,4h0Zm.12-8.76,3.09-5.39,3.18,5.4,0,0h0l3.15,5.45h0l-2.55,4.43-.49.87-.16-.26-.36-.61Zm10.27,4.14h0l-.69,1.2-3.07-5.32,3.06-5.3,3.07,5.36h0ZM189.54,89.86h0l-.08.15-.6,1-5.67,9.78-3.07-5.3h0L177.53,91,177,90.1l2.5-4.21,3,5.15.66,1.16.11-.07.07,0,.65-1.13,3.3-5.74h0l1.55-2.69.76-1.32,2.53,4.28-2.38,4h0Zm.12-8.76,3.09-5.39,3.18,5.39,0,.06h0l3.15,5.45h0L196.58,91l-.49.87-.16-.26-.36-.61Zm10.27,4.13h0l-.69,1.2-3.07-5.33,3.06-5.3,3.07,5.36h0ZM189.54,58.81h0l-.08.15-.6,1-5.67,9.79-3.07-5.31h0L177.53,60l-.54-.94,2.5-4.21,3,5.15.66,1.16.11-.06.07,0,.65-1.14,3.3-5.74h0l1.45-2.51.86-1.5,2.53,4.27-2.38,4h0Zm-6.34-9L177,39,180,33.69l6.23,10.78h0Zm-6.35-10.56,3.06,5.33-3.74,6.52-1.75,3h0l-.7,1.22L170.63,50Zm-19,10.9h0l3.15,5.45h0L158.42,60l-.49.85v0l-.15-.25L157.4,60l-5.91-9.94,3.09-5.39,3.19,5.4ZM145,49.78,138.8,39l3.06-5.32,6.22,10.78h0Zm-6.35-10.56,3.06,5.33-3.57,6.23-1.92,3.34h0l-.7,1.22L132.46,50Zm-19.05,10.9h0l3.14,5.45h0L120.25,60l-.48.84,0,0-.15-.26-.37-.61-5.91-9.94,3.1-5.39,3.18,5.4Zm-12.77-.34L100.63,39l3.06-5.32,6.23,10.78h0Zm-6.35-10.56,3.07,5.33L100,50.78l-1.92,3.34h0l-.7,1.22L94.3,50ZM68.69,49.78,62.46,39h0l3.06-5.32,6.23,10.78h0Zm-3.17-5,3.08,5.36,0,0,3.14,5.43h0L69.2,60l-.51.9-.52-.9-5.7-9.93ZM65,54.84l3,5.15.67,1.16.11-.06.06,0L69.43,60l3.31-5.74h0l1.69-2.95L75,50.25l2.54,4.27-2.38,4-.17.29h0l-.09.15-.59,1-5.67,9.79-3.07-5.31h0L63,60l-.55-.94Zm.53,21,3.08,5.36h0l3.14,5.42h0L69.2,91l-.51.89L68.17,91l-5.7-9.93ZM65,85.89l3,5.15.67,1.16.11-.07.06,0L69.43,91l3.31-5.74h0l1.79-3.11.51-.9,2.54,4.28-2.38,4-.17.28h0l-.09.15-.6,1-5.66,9.78-3.07-5.3h0L63,91l-.55-.94Zm.53,21,3.08,5.35h0l3.14,5.43h0l-2.58,4.48-.45.78-.06.12-.52-.9-5.7-9.93ZM65,116.93l3,5.15.67,1.16.11-.06.06,0,.65-1.14,3.31-5.74h0l1.83-3.19.47-.81,2.54,4.27-2.38,4-.17.29h0l-.22.38-.46.8-5.67,9.79-3.07-5.31h0L63,122.08l-.55-.94Zm.53,20.95,3.08,5.36,0,0,3.14,5.43h0l-2.58,4.49-.51.89-.52-.89-5.7-9.93ZM65,148l3,5.15.67,1.15.11-.06.06,0,.65-1.13,3.31-5.74h0l2-3.42.34-.59,2.54,4.27-2.38,4-.17.28h0l-.09.15-.59,1-5.67,9.78-3.07-5.3h0L63,153.13l-.55-.95Zm.53,21,3.08,5.35h0l3.14,5.43,0,0-2.58,4.49-.51.9-.52-.9-5.7-9.93ZM65,179l3,5.15.67,1.16.11-.06.06,0,.65-1.13,3.31-5.74h0l1.79-3.11.51-.89,2.54,4.27-2.38,4L75,183h0l-.09.15-.6,1L68.68,194l-3.07-5.31h0L63,184.17l-.55-.94Zm20.43,30.39h0l-.69,1.21-3.08-5.33,3.06-5.3,3.08,5.36h0Zm12.66-.07h0l-.7,1.22-3.07-5.32,6.21-10.8,3.07,5.33-3.44,6Zm25.51.07h0l-.69,1.21-3.07-5.33,3.06-5.3,3.08,5.36h0Zm12.66-.07h0l-.7,1.22-3.08-5.32,6.22-10.8,3.06,5.33-3.43,6Zm25.51.07h0l-.69,1.21L158,205.28l3.06-5.3,3.08,5.36h0Zm12.66-.07h0l-.7,1.22-3.08-5.32,6.22-10.8,3.06,5.33L176.32,206Zm25.51.07h0l-.69,1.21-3.07-5.33,3.06-5.3,3.07,5.36h0Zm24.51-9.72L221.36,205l-6.22-10.76h0l3.06-5.32,6.23,10.79,0,0Zm-9.7-5.16h0l-2.17,3.76h0l-.7,1.22-3-5.26,5.82-10.08.35-.6.06-.11v0l.4.69,2.62,4.54ZM202.37,183h0l-.08.14h0l-.56,1-.94,1.63L196,194l-.1-.16-5.7-9.67-.38-.64-.18-.31h0l0,0,.22-.39h0l2.33-3.91,3.14,5.28.59,1,0,.07v0h0l0,0v0h0l.1,0,.68-1.18,5.59-9.7,2.49,4.34Zm-3-14.3,3-5.28,3.15,5.46,3.07,5.35h0l3.15,5.45-2.56,4.46-.5.88-.51-.88Zm25.11-.1L221.36,174l-6.22-10.77h0l3.06-5.33,6.23,10.79Zm-9.7-5.16h0l-2.17,3.77h0l-.7,1.22-3-5.26,5.82-10.08.35-.61.06-.1v0l.4.69,2.62,4.53ZM202.37,152h0l-.08.14h0v0h0l-.56,1-1,1.69L196,163l-.1-.16-5.7-9.66-.24-.42-.32-.54h0l0,0,.22-.38h0l2.33-3.91,3.14,5.28.59,1,0,.06v0h0l0,0v0h0l.1.06.68-1.18,5.59-9.7,2.49,4.34Zm-3-14.31,3-5.17.07-.11,3.15,5.47,3.07,5.34h0l3.15,5.45-2.56,4.46-.45.78-.05.1-.51-.88Zm22,5.23-6.22-10.77h0l3.06-5.33,6.23,10.79,0,0Zm-6.62-10.48h0l-2.17,3.77h0l-.7,1.23-3-5.27,5.82-10.08.41-.71.41.71,2.62,4.54ZM202.37,121h0l-.08.14h0v0h0l-.56,1-.91,1.57L196,131.91l-.1-.16-5.7-9.67-.51-.87-.05-.08h0l0,0,.22-.39h0l2.33-3.91,3.14,5.28.59,1,0,.07v0l0,0v0h0l.1.06.68-1.19,5.59-9.7,2.49,4.34Zm-3-14.3,3-5.17.07-.11,3.23,5.59,3,5.22h0l3.15,5.46-2.56,4.45-.5.88-.51-.88Zm25.11-.1-3.08,5.32-6.22-10.76h0l3.06-5.33,6.23,10.79Zm-9.7-5.15h0l-2.17,3.76h0l-.7,1.22-3-5.26L214.64,91l.35-.61.06-.1h0l.4.7,2.62,4.54ZM202.37,89.91h0l-.08.15h0v0h0l-.56,1-.94,1.63L196,100.86l-.1-.15L190.23,91l-.37-.62-.19-.33h0l0,0,.22-.38h0l2.33-3.91L195.34,91l.59,1,0,.06v0l0,0v0h0l.1.06.68-1.18,5.59-9.7,2.49,4.34Zm-3-14.31,3-5.28,3.15,5.47,3.07,5.34h0l3.15,5.45L209.2,91l-.5.88-.51-.88Zm25.11-.09-3.08,5.32-6.22-10.77h0l3.06-5.33,6.23,10.79,0,0Zm-9.7-5.16h0l-2.17,3.77h0l-.7,1.23-3-5.27L214.64,60l.35-.61.06-.1v0l.4.68,2.62,4.54ZM202.37,58.86h0l-.08.14h0v0h0l-.56,1-1,1.7L196,69.82l-.1-.16L190.23,60l-.24-.41-.32-.54h0l0,0,.22-.39h0l2.33-3.91L195.34,60l.59,1,0,.07v0h0l0,0v0h0l.1.06.68-1.19,5.59-9.69,2.49,4.34Zm-3-14.3,3-5.17.07-.11,3.15,5.46,3.07,5.35h0l3.15,5.46L209.2,60l-.45.78-.05.1-.51-.88Zm22,5.22L215.14,39h0l3.06-5.32,6.23,10.78h0Zm-6.62-10.47h0l-2.17,3.76h0l-.7,1.22-3-5.26L214.64,29l.41-.71.41.71,2.62,4.54Zm-12.47-.25h0l-2.34,4.08h0l-.69,1.2L196.13,39l3.06-5.3Zm-9.65-5.62h0l0,0Zm0,0L189.45,39l0,0v0l-.36.63-1.18,2-.81,1.41h0l-.69,1.2L183.3,39l5.48-9.49.3-.52.46-.79L190,29l2.6,4.51Zm-12.7,0-3.34,5.82h0l-2.17,3.76h0l-.7,1.22-3-5.26L176.47,29l.41-.71.41.71ZM164.1,39.06h0l-2.35,4.08h0l-.69,1.2L158,39l3.06-5.3Zm-9.65-5.62h0l0,0Zm0,0L151.28,39l0,0v0l-.27.47-1.3,2.26-.78,1.35h0l-.69,1.2L145.13,39l5.69-9.86.09-.15.46-.79.45.79,2.6,4.51Zm-12.71,0-3.34,5.82h0l-2.17,3.76h0l-.7,1.22-3-5.26L138.3,29l.41-.71.41.71Zm-15.81,5.57h0l-2.35,4.08h0l-.69,1.2L119.8,39l3.06-5.3Zm-9.65-5.62h0l0,0ZM113.65,29l2.61,4.51h0L113.11,39l0,0v0l-.5.88-1,1.68-.88,1.52h0l-.69,1.2L107,39l5.66-9.8.12-.21.46-.79Zm-10.08,4.54-3.34,5.82h0l-2.17,3.76h0l-.71,1.22-3-5.26L100.14,29l.4-.71L101,29ZM87.76,39.06h0L85.4,43.14h0l-.69,1.2L81.63,39l3.06-5.3Zm-9.65-5.62h0l0,0Zm0,0L74.94,39l0,0v0l-.52.92-1,1.75-.82,1.41h0l-.69,1.2L68.79,39l5.68-9.84.11-.17.45-.79.45.79,2.61,4.51Zm-12.7,0-3.35,5.82h0L59.9,43.07h0l-.7,1.22-3-5.26L62,29l.41-.71.4.71ZM49.6,39.06h0l-2.35,4.08h0l-.69,1.2L43.46,39l3.06-5.3Zm-2.94,5.5,3-5.17.06-.11,3.16,5.46,3.07,5.35h0l3.15,5.46L56.53,60l-.45.78-.06.1-.5-.88Zm5.67,10.27,3,5.16.65,1.15.11-.07.07,0L56.76,60l3.31-5.75h0l1.61-2.81.67-1.17,2.51,4.39L62.28,59l0,0h0l-.54.93L56,69.82l-3.11-5.36h0L50.35,60l-.54-.93ZM40,64.48l0,0,0,0Zm6.7,11.12,3-5.28,3.16,5.47,3.07,5.34h0l3.15,5.45L56.53,91l-.51.88-.5-.88Zm5.67,10.28,3,5.16.65,1.14.11-.06.07,0L56.76,91l3.31-5.76h0l1.47-2.57.81-1.4,2.51,4.38-2.59,4.36,0,0h0l-.54.93L56,100.87l-3.11-5.36h0L50.35,91l-.54-.94ZM40,95.52l0,0-.05,0Zm6.7,11.13,3-5.17.06-.11L52.93,107l3,5.22h0l3.15,5.46-2.56,4.45L56,123l-.5-.88Zm5.67,10.27,3,5.16.65,1.14.11-.06.07,0,.64-1.12,3.31-5.75h0l1.57-2.75.71-1.23,2.51,4.38-2.59,4.37,0,0h0l-.54.93L56,131.91l-3.11-5.36h0l-2.58-4.46-.54-.93ZM40,126.57l0,0,0,0Zm6.7,11.12,3-5.17.06-.11,3.16,5.47,3.07,5.34h0l3.15,5.45-2.56,4.46-.45.77L56,154l-.5-.88ZM52.33,148l3,5.16.65,1.14.11-.06.07,0,.64-1.11,3.31-5.76h0l1.61-2.81.67-1.16,2.51,4.38-2.59,4.36,0,.05h0l-.54.94L56,163l-3.11-5.37h0l-2.58-4.46-.54-.94ZM40,157.61l0,0,0,0Zm6.7,11.13,3-5.28,3.16,5.46,3.07,5.35h0l3.15,5.45-2.56,4.46-.51.88-.5-.88ZM52.33,179l3,5.16.65,1.14.11-.06.07,0,.64-1.12,3.31-5.76h0l1.72-3,.56-1,2.51,4.38-2.59,4.36,0,0h0l-.54.93L56,194l-3.11-5.36h0l-2.58-4.46-.54-.93ZM40,188.65l0,0-.05,0Zm6.7,11.13,3-5.17.06-.11,3.23,5.6,3,5.21h0l3.15,5.46-2.56,4.45-.51.89-.5-.89ZM78.13,219.7l0,0,0,0Zm137-14.42,3-5.31,3.07,5.36,0,0,3.13,5.43h0l-2.57,4.48-.45.79-.07.11-.51-.9Zm15.66-5.58,0,0,0,0ZM215,183.18h0l0,0h0l-.54.93L208.69,194l-3.1-5.36h0L203,184.17l-.54-.93L205,179l3,5.16.66,1.14.11-.06.06,0,.64-1.12,3.32-5.76h0l1.7-3,.58-1,2.52,4.38Zm.2-8.94,3-5.31,3.07,5.35h0l3.13,5.43,0,0-2.57,4.49-.52.9-.51-.9Zm15.66-5.58,0,0,0,0ZM215,152.14h0l0,.05h0l-.54.94L208.69,163l-3.1-5.37h0L203,153.13l-.54-.94L205,148l3,5.16.66,1.14.11-.06.06,0,.64-1.11,3.32-5.76h0l1.58-2.76.7-1.21,2.52,4.38Zm.2-8.94,3-5.32,3.07,5.36,0,0,3.13,5.43h0l-2.57,4.49-.52.89-.51-.89Zm15.66-5.59,0,0,0,0ZM215,121.1h0l0,0h0l-.54.93-5.69,9.83-3.1-5.36h0L203,122.08l-.54-.93,2.52-4.23,3,5.16.66,1.14.11-.06.06,0,.64-1.12,3.32-5.75h0l1.54-2.69.74-1.29,2.52,4.38Zm.2-8.95,3-5.31,3.07,5.35h0l3.13,5.43h0l-2.57,4.48-.45.78-.07.12-.51-.9Zm15.66-5.58,0,0,0,0ZM215,90.05h0l0,0h0l-.54.93-5.69,9.83-3.1-5.36h0L203,91l-.54-.94L205,85.88,208,91l.66,1.14.11-.06.06,0,.64-1.12,3.32-5.76h0l1.44-2.51.84-1.46,2.52,4.38Zm.2-8.94,3-5.32,3.07,5.36h0l3.13,5.42h0L221.88,91l-.52.89-.51-.89Zm15.66-5.59,0,0,0,0ZM215,59h0l0,0h0l-.54.93-5.69,9.83-3.1-5.36h0L203,60l-.54-.93L205,54.83,208,60l.66,1.15.11-.07.06,0,.64-1.12,3.32-5.75h0l1.58-2.76.7-1.22,2.52,4.39Zm.2-8.95,3-5.31,3.07,5.36,0,0,3.13,5.43h0L221.88,60l-.52.9-.51-.9Zm15.66-5.58,0,0,0,0ZM37.32,29l2.6,4.51h0L36.78,39l-.05,0,0,0-.37.63-1.17,2-.81,1.41h0l-.69,1.2L30.63,39l5.47-9.49.31-.52.45-.79ZM24.29,39l3.06-5.32,6.23,10.78h0l-3.08,5.32L24.3,39Zm15.79,5.65,3.18,5.4,0,.06h0l3.15,5.45h0L43.91,60l-.48.84,0,0-.15-.26L42.9,60,37,50.05Zm-.55,10.05L42.67,60l.59,1,0,.07v0h0l0,0,0,0h0l.1.06L44.14,60l5.58-9.69,2.49,4.34L49.7,58.86h0l-.1.17h0L49,60l-.95,1.64-4.74,8.19-.09-.16L37.56,60l-.47-.8L37,59h0l0,0,.22-.39ZM37.32,60l2.6,4.51h0L36.77,70l0,0,0,0-.5.86-1.08,1.88-.77,1.34h0l-.69,1.2L30.63,70l5.74-9.94,0-.08.45-.78Zm-13,10.07,3.06-5.33,6.23,10.79,0,0h0l-3.08,5.32L24.3,70.06Zm15.79,5.65,3.18,5.39,0,.06h0l3.15,5.45h0L43.91,91l-.5.87-.15-.26L42.9,91,37,81.1Zm-.55,10.05L42.67,91l.59,1,0,.06v0l0,0,0,0h0l.1.06L44.14,91l5.58-9.7,2.49,4.34L49.7,89.91h0l-.1.17h0L49,91l-.91,1.57-4.78,8.25-.09-.15L37.56,91l-.58-1,.22-.38ZM37.32,91l2.6,4.51,0,0-3.16,5.52-.05,0,0,0-.54.94-1,1.66-.85,1.48h0l-.69,1.21-3.07-5.33,5.7-9.87.08-.14.45-.79Zm-13,10.06,3.06-5.33,6.23,10.79h0l-3.08,5.32-6.23-10.76Zm15.79,5.65,3.18,5.4,0,0h0l3.15,5.45h0l-2.55,4.43-.5.87-.15-.26-.36-.61L37,112.14Zm-.55,10,3.14,5.28.59,1,0,.07v0l0,0,0,0h0l.1.06.68-1.19,5.58-9.7,2.49,4.34L49.7,121h0l-.09.14h0v0h0l-.56,1-.88,1.52-4.81,8.31-.09-.16-5.7-9.67-.58-1,.22-.39Zm-2.21,5.28,2.6,4.51h0l-3.16,5.51-.05,0,0,0-.36.62-1.2,2.09-.79,1.37h0l-.69,1.2-3.07-5.33,5.47-9.48.31-.53.45-.78Zm-13,10.07,3.06-5.33,6.23,10.79,0,0-3.08,5.33L24.3,132.15Zm15.79,5.64,3.18,5.4,0,.06h0l3.15,5.45h0l-2.55,4.44-.48.83,0,0-.15-.25-.36-.61L37,143.18Zm-.55,10.06,3.14,5.28.59,1,0,.06v0h0l0,0,0,0h0l.1.06.68-1.18,5.58-9.7,2.49,4.34L49.7,152h0l-.1.17h0l-.56,1-.95,1.63L43.35,163l-.09-.16-5.7-9.66-.47-.8-.09-.16h0l0,0,.22-.38Zm-2.21,5.28,2.6,4.51,0,0-3.17,5.52,0,0,0,0-.5.85-1.08,1.88-.77,1.35h0l-.69,1.2-3.07-5.32,5.74-9.94,0-.07.45-.79Zm-13,10.06,3.06-5.33,6.23,10.79h0L30.52,174,24.3,163.19Zm15.79,5.65,3.18,5.4,0,0h0l3.15,5.46,0,0-2.55,4.44-.48.83,0,0-.15-.26-.36-.61L37,174.23Zm-.55,10,3.14,5.28.59,1,0,.07v0h0l0,0,0,0h0l.1,0,.68-1.18,5.58-9.7,2.49,4.34L49.7,183h0l-.1.16h0l-.56,1-.91,1.58L43.35,194l-.09-.16-5.7-9.67-.58-1,.22-.39Zm-2.21,5.28,2.6,4.51h0l-3.16,5.51-.05,0,0,0-.54.94-1,1.67-.85,1.47h0l-.69,1.2-3.07-5.33,5.74-9.94,0-.07.45-.79Zm-13,10.06,3.06-5.32,6.23,10.79,0,0h0L30.52,205l-6.23-10.76Zm15.79,5.65,3.18,5.4,0,.06h0l3.15,5.45h0l-2.55,4.43-.5.87-.15-.25-.36-.62L37,205.27Zm-.55,10.06,3.14,5.27.59,1,0,.07v0l0,0,0,0h0l.1.06.68-1.19,5.58-9.69,2.49,4.34-2.51,4.22h0l-.09.14h0v0h0l-.56,1-.88,1.52L43.35,225l-.09-.16-5.7-9.67-.58-1,.22-.39ZM40,219.7l0,0,0,0Zm38.28.18,3.19,5.42v0h0l3.15,5.46h0l-1.75,3.05-1.32,2.28-.1-.17-6-10.25-.24-.42Zm9.52,5.45h0l-2.35,4.08h0l-.69,1.2-3.07-5.32,3.06-5.3,3.07,5.35Zm22.16,5.41h0l-3.08,5.32-6.23-10.77,3.06-5.33Zm6.38-11,0,0,0,0Zm31.78,11h0L145,236.05l-6.23-10.77,3.06-5.33Zm6.39-11,0,0,0,0Zm31.78,11h0l-3.07,5.32L177,225.28,180,220Zm6.39-11,0,0,0,0Zm38.17,0,0,0,0,0ZM227.7,214h0l-.08.15-.6,1L221.35,225l-3.07-5.3h0l-2.58-4.48-.54-.94,2.5-4.21,3,5.15.66,1.16.11-.06.06,0,.66-1.14,3.3-5.74h0l1.84-3.2.46-.81,2.54,4.27-2.38,4h0Zm0-31h0l-.08.15-.6,1L221.35,194l-3.07-5.31h0l-2.58-4.48-.54-.94,2.5-4.21,3,5.15.66,1.16.11-.06.06,0,.66-1.13,3.3-5.74h0l1.79-3.11.51-.89,2.54,4.27-2.38,4h0Zm0-31.05h0l-.08.15-.6,1-5.67,9.78-3.07-5.3h0l-2.58-4.47-.54-.95,2.5-4.2,3,5.15.66,1.15.11-.06.06,0,.66-1.13,3.3-5.74h0l2-3.42.34-.59,2.54,4.27-2.38,4h0Zm0-31h0l-.08.15-.6,1-5.67,9.79-3.07-5.31h0l-2.58-4.48-.54-.94,2.5-4.21,3,5.15.66,1.16.11-.06.06,0,.66-1.14,3.3-5.74h0l1.84-3.19.46-.81,2.54,4.27-2.38,4h0Zm0-31h0l-.08.15-.6,1-5.67,9.78-3.07-5.3h0L215.7,91l-.54-.94,2.5-4.21,3,5.15.66,1.16.11-.07.06,0,.66-1.13,3.3-5.74h0l1.79-3.11.51-.9,2.54,4.28-2.38,4h0Zm0-31h0l-.08.15-.6,1-5.67,9.79-3.07-5.31h0L215.7,60l-.54-.94,2.5-4.21,3,5.15.66,1.16.11-.06.06,0,.66-1.14,3.3-5.74h0l1.69-2.95.61-1.06,2.54,4.27-2.38,4h0Zm0-31h0l-.08.14-.6,1-5.67,9.79-3.07-5.31h0L215.7,29l-.54-.94,2.5-4.21,3,5.15.66,1.16.11-.06.06,0,.66-1.13,3.3-5.74h0L227.25,20l.46-.81,2.54,4.27-2.38,4h0Zm3.11-14.34,0,0,0,0Zm-12.61.28,3.07,5.35h0l3.13,5.43,0,0L221.88,29l-.45.78-.07.12-.51-.9L215.15,19ZM202.37,27.82h0l-.08.14h0v0h0l-.56,1-.91,1.57L196,38.78l-.1-.16L190.23,29l-.51-.87-.05-.08h0l0,0,.22-.38h0l2.33-3.91L195.34,29l.59,1,0,.06v0l0,0v0h0l.1.06.68-1.18,5.59-9.7,2.49,4.34Zm-.1-8.76-2.34,4.08h0l-.69,1.2L196.16,19l3.06-5.3,3.07,5.36ZM180,13.71l3.07,5.35h0l3.13,5.43,0,0L183.71,29l-.46.8-.06.1-.51-.9L177,19ZM164.2,27.82h0l-.08.14h0l0,0h0l-.56,1-.77,1.33-4.91,8.5-.09-.16L152.06,29l-.51-.86L151.5,28h0l0,0,.22-.38L154,23.67,157.17,29l.6,1,0,.06v0l0,0,0,0h0l.1.06.69-1.18,5.58-9.7,2.49,4.34Zm-.09-8.76-2.35,4.08h0l-.69,1.2L158,19l3.06-5.31,3.08,5.36Zm-6.31,0h0l3.15,5.46,0,0L158.42,29l-.5.87-.15-.26L157.4,29,151.49,19l3.09-5.39,3.19,5.4Zm-3.32-5.63,0,0,0,0Zm-12.62.27,3.07,5.35h0l3.13,5.43,0,0L145.54,29l-.46.8-.06.1-.51-.9L138.81,19ZM126,27.82h0L126,28h0v0h0l-.55,1-.82,1.42-4.87,8.41-.09-.16L113.89,29l-.58-1,.23-.38,2.32-3.91L119,29l.6,1,0,.06,0,0,0,0,0,0h0l.11.06.68-1.18,5.58-9.7,2.49,4.34Zm-.09-8.76-2.35,4.08h0l-.69,1.2L119.82,19l3.06-5.31L126,19.07Zm-6.31,0h0l3.14,5.46,0,0L120.25,29l-.5.87-.15-.26-.37-.61L113.32,19l3.1-5.39L119.6,19Zm-3.32-5.63,0,0,0,0Zm-12.62.27,3.08,5.35h0l3.14,5.43,0,0L107.37,29l-.45.78-.06.12-.52-.9L100.64,19ZM87.87,27.82h0l-.08.14h0v0h0l-.55,1-.82,1.42-4.87,8.41-.09-.16L75.73,29l-.51-.86,0-.09h0l0,0,.22-.38,2.33-3.91L80.83,29l.6,1,0,.06v0l0,0,0,0h0l.1.06L82.31,29l5.58-9.7,2.49,4.34Zm-.1-8.76-2.35,4.08h0l-.69,1.2L81.65,19l3.06-5.3,3.08,5.36ZM65.52,13.71l3.08,5.35h0l3.14,5.43,0,0L69.2,29l-.45.78-.06.12-.52-.9L62.47,19ZM49.7,27.82h0l-.09.14h0v0h0L49,29l-.88,1.52-4.81,8.31-.09-.16L37.56,29,37,28l.22-.38,2.33-3.91L42.67,29l.59,1,0,.06v0l0,0,0,0h0l.1.06L44.14,29l5.58-9.7,2.49,4.34ZM40,13.43l0,0,0,0Zm.11.19L43.26,19l0,.05h0l3.15,5.46,0,0L43.91,29l-.5.87-.15-.26L42.9,29,37,19Zm9.52,5.44-2.35,4.08h0l-.69,1.2L43.48,19l3.06-5.3,3.08,5.36ZM27.35,13.71l3.08,5.35h0l3.13,5.43,0,0L31,29l-.46.79-.06.11L30,29,24.3,19ZM26.82,23.8l3,5.15.66,1.16.11-.06.06,0L31.27,29l3.3-5.74h0l1.62-2.81.68-1.19,2.54,4.27-2.38,4-.17.29h0l-.22.38-.46.81-5.67,9.79-3.07-5.31h0L24.86,29,24.31,28Zm.53,21,3.08,5.36,0,0,3.13,5.43h0L31,60l-.52.9L30,60l-5.7-9.93Zm-.53,10.09,3,5.15.66,1.16.11-.06.06,0L31.27,60l3.3-5.74h0l1.48-2.58.82-1.43,2.54,4.27-2.38,4-.17.29h0l-.08.15-.6,1-5.67,9.79-3.07-5.31h0L24.86,60l-.55-.94Zm.53,21,3.08,5.36h0l3.13,5.42h0L31,91l-.52.89L30,91l-5.7-9.93Zm-.53,10.1,3,5.15.66,1.16.11-.07.06,0L31.27,91l3.3-5.74h0l1.58-2.74.72-1.26,2.54,4.27-2.38,4-.17.29h0l-.08.15-.6,1-5.67,9.78-3.07-5.3h0L24.86,91l-.55-.94Zm.53,21,3.08,5.35h0l3.13,5.43h0L31,122.08l-.46.79-.06.11-.52-.9-5.7-9.93Zm-.53,10.09,3,5.15.66,1.16.11-.06.06,0,.66-1.14,3.3-5.74h0l1.62-2.81.68-1.19,2.54,4.27-2.38,4-.17.29h0l-.22.38-.46.8-5.67,9.79-3.07-5.31h0l-2.58-4.48-.55-.94Zm.53,20.95,3.08,5.36,0,0,3.13,5.43h0L31,153.13l-.52.89-.52-.89-5.7-9.93ZM26.82,148l3,5.15.66,1.15.11-.06.06,0,.66-1.13,3.3-5.74h0l1.73-3,.57-1,2.54,4.27-2.38,4-.17.28h0l-.08.15-.6,1-5.67,9.78-3.07-5.3h0l-2.58-4.47-.55-.94Zm.53,21,3.08,5.35h0l3.13,5.43,0,0L31,184.17l-.52.9-.52-.9-5.7-9.93ZM26.82,179l3,5.15.66,1.16.11-.06.06,0,.66-1.13,3.3-5.74h0l1.58-2.74.72-1.26,2.54,4.27-2.38,4-.17.29h0l-.08.15-.6,1L30.51,194l-3.07-5.31h0l-2.58-4.48-.55-.94ZM27.35,200l3.08,5.36,0,0,3.13,5.43h0L31,215.21l-.46.8-.06.1-.52-.9-5.7-9.93Zm-.53,10.09,3,5.15.66,1.16.11-.06.06,0,.66-1.14,3.3-5.74h0l1.62-2.82.68-1.19,2.54,4.27-2.38,4-.17.29h0l-.22.38-.46.8L30.51,225l-3.07-5.3h0l-2.58-4.48-.55-.94Zm-5.09,19.28h0l-.7,1.23-3-5.26,5.82-10.09.41-.7.41.7,2.62,4.54-3.35,5.82h0Zm2.56-4.06L27.35,220l6.23,10.79h0l-3.08,5.32L24.3,225.28Zm12.93.41-.24-.42,3.09-5.39,3.19,5.42v0h0l3.15,5.46h0l-1.72,3-1.36,2.34-.1-.17Zm15.71,5h0l-3.22-5.59h0l-3.07-5.35,2.63-4.57.41-.71.06.1.36.61,9,15.55L56,236.08,53,230.78Zm7-1.39h0l-.7,1.23-3-5.26L62,215.21l.41-.7.4.7,2.63,4.54-3.35,5.82h0Zm2.56-4.06L65.52,220l6.23,10.79h0l0,0-3.06,5.29-6.23-10.77Zm28.64,5.45h0l-3.23-5.59h0l-3.08-5.35,2.64-4.57.41-.71.07.11.35.6,9,15.55-3.06,5.32-3.06-5.3Zm7-1.39h0l-.71,1.23-3-5.27,5.83-10.08.4-.7.41.7,2.62,4.54-3.34,5.82h0Zm15.5-3.65-.24-.42,3.09-5.39,3.19,5.42v0h0l3.15,5.46h0L121,233.83l-1.32,2.28-.1-.17Zm15.7,5h0l-3.23-5.59h0L123,219.78l2.64-4.57.41-.71.06.11.35.6,9,15.55-3.06,5.32-3.06-5.3Zm7-1.39h0l-.7,1.23-3-5.27,5.82-10.08.41-.7.41.7,2.62,4.54-3.34,5.82h0Zm15.5-3.65-.25-.42,3.1-5.39,3.19,5.42v0h0l3.15,5.46h0l-1.75,3.05-1.32,2.28-.1-.17Zm15.7,5h0l-3.23-5.59h0l-3.08-5.35,2.64-4.57.41-.71.06.1.35.61,9,15.55-3.06,5.32-3.06-5.3Zm7-1.39h0l-.7,1.23-3-5.26,5.82-10.09.41-.7.41.7,2.62,4.54-3.34,5.82h0Zm15.49-3.65-.24-.42,3.09-5.39,3.19,5.42v0h0l3.16,5.46h0l-1.69,2.94L196,236.11l-.11-.17Zm15.71,5h0l-3.23-5.59h0l-3.08-5.35,2.63-4.57.42-.71,0,.1.36.61,9,15.55-3.05,5.32-3.06-5.3Zm7-1.39h0l-.7,1.23-3-5.26,5.82-10.09.41-.7.41.7,2.62,4.54-3.34,5.82h0Zm2.56-4.06,3.06-5.33,6.23,10.79h0l-3.08,5.32-6.22-10.77Zm25.31.05h0l-2.35,4.08h0l-.69,1.2-3.08-5.32,3.06-5.3,3.08,5.35Zm.1-11.25h0l-.08.14h0v0h0l-.56,1-.85,1.48L234.19,225l-.09-.16-5.7-9.67-.58-1,.22-.38h0l2.33-3.91,3.14,5.27.59,1,0,.07v0l0,0,0,0h0l.1.06.68-1.19,5.58-9.69,2.5,4.34Zm-.1-8.75-2.35,4.08h0l-.69,1.21-3.07-5.33,3-5.3,3.08,5.36Zm0-11h0l-2.35,4.08h0l-.69,1.2-3.08-5.33,3.06-5.3,3.08,5.36Zm0-20-2.34,4.08h0l-.69,1.2-3.07-5.32,3-5.31,3.08,5.37Zm0-11h0l-2.35,4.08h0l-.69,1.2-3.08-5.32,3.06-5.3,3.08,5.35Zm0-20-2.34,4.08h0l-.69,1.2-3.07-5.33,3-5.3,3.08,5.36Zm0-11h0l-2.35,4.08h0l-.69,1.2-3.08-5.32,3.06-5.31,3.08,5.36Zm.1-11.25h0l-.08.14h0v0h0l-.56,1-.85,1.47-4.84,8.36-.09-.16-5.7-9.67-.58-1,.22-.39h0l2.33-3.91,3.14,5.28.59,1,0,.07v0l0,0,0,0h0l.1.06.68-1.19,5.58-9.7,2.5,4.34Zm-.1-8.75-2.35,4.08h0l-.69,1.2-3.07-5.32,3-5.3,3.08,5.36Zm0-11h0l-2.35,4.08h0l-.69,1.2-3.08-5.33,3.06-5.3,3.08,5.35Zm0-20-2.34,4.08h0l-.69,1.2-3.07-5.33,3-5.3,3.08,5.36Zm0-11h0l-2.35,4.08h0l-.69,1.2-3.08-5.32,3.06-5.3,3.08,5.35Zm0-20-2.34,4.08h0l-.69,1.2-3.07-5.32,3-5.3,3.08,5.36Zm0-11h0l-2.35,4.08h0l-.69,1.2L234.3,39l3.06-5.3,3.08,5.35Zm.1-11.25h0l-.08.14h0v0h0l-.56,1L239,30.42l-4.84,8.36-.09-.16L228.4,29l-.58-1,.22-.38h0l2.33-3.91L233.51,29l.59,1,0,.06v0l0,0,0,0h0l.1.06L235,29l5.58-9.7,2.5,4.34Zm-.1-8.76-2.35,4.08h0l-.69,1.2L234.33,19l3-5.3,3.08,5.36Zm0-11h0l-2.35,4.08h0l-.69,1.2L234.3,8l3.06-5.3Zm-9.63-5.63,0,0-.05,0Zm.1.18L234.1,8V8h0l3.16,5.46h0l-1.72,3L234.2,18.8l-.1-.17-6-10.2L227.82,8Zm-12.72.07,6.23,10.79h0l-3.08,5.32L215.14,8h0ZM215,8.17l3.06,5.34-3.68,6.41-1.82,3.16h0l-.71,1.23L208.8,19Zm-3.26,16.32L209.2,29l-.5.88-.51-.88-8.86-15.43,3-5.18.07-.1,3.23,5.59,3,5.21h0ZM202.27,8h0l-2.34,4.08h0l-.69,1.2L196.13,8l3.06-5.3Zm-9.63-5.63,0,0,0,0Zm.1.18L195.93,8V8h0l3.16,5.46h0l-1.69,2.94L196,18.8l-.11-.17-6-10.2L189.65,8ZM180,2.64l6.23,10.79h0l-3.07,5.32L177,8Zm-3.17,5.53,3.06,5.34-3.59,6.26-1.9,3.31h0l-.7,1.23L170.63,19Zm-3.26,16.32L171,29l-.5.88L170,29l-8.86-15.44,3-5.16.07-.11,3.23,5.59,3,5.21h0ZM164.1,8h0l-2.35,4.08h0l-.69,1.2L158,8,161,2.67Zm-9.63-5.63,0,0,0,0Zm.11.18L157.77,8V8h0l3.15,5.46h0l-1.75,3-1.32,2.28-.1-.17-6-10.19L151.48,8Zm-12.72.07,6.22,10.79h0l-.05.08-3,5.24L138.8,8Zm-3.18,5.53,3.06,5.34-3.43,6-2.06,3.59h0l-.7,1.23L132.46,19Zm-3.26,16.32L132.87,29l-.51.88-.51-.88L123,13.51l3-5.16.07-.11,3.22,5.58,3,5.22h0ZM125.93,8h0l-2.35,4.08h0l-.69,1.2L119.8,8l3.06-5.3ZM116.3,2.39l0,0,0,0Zm.11.18L119.6,8V8h0l3.15,5.46h0l-1.75,3L119.7,18.8l-.1-.17-6-10.22L113.32,8Zm-12.72.07,6.23,10.79h0l0,.08-3,5.24L100.63,8Zm-3.18,5.53,3.07,5.34-3.44,6-2.06,3.59h0l-.7,1.23L94.3,19ZM97.26,24.49,94.7,29l-.51.88-.5-.88L84.83,13.51l3-5.16.06-.12,3.23,5.6,3,5.21h0ZM87.76,8h0L85.4,12.1h0l-.69,1.2L81.63,8l3.06-5.3ZM78.13,2.39l0,0,0,0Zm.11.18L81.43,8V8h0l3.15,5.46h0l-1.75,3L81.53,18.8l-.1-.17-6-10.2L75.15,8Zm-12.72.07,6.23,10.79h0l-.07.12-3,5.2L62.46,8h0ZM62.34,8.17l3.07,5.34-3.66,6.37-1.84,3.2h0l-.7,1.23L56.13,19ZM59.09,24.49,56.53,29l-.51.88-.5-.88L46.66,13.52l3-5.18.06-.1,3.23,5.59,3,5.21h0ZM49.6,8h0L47.23,12.1h0l-.69,1.2L43.46,8l3.06-5.3ZM40,2.39l0,0-.05,0Zm.11.18L43.26,8V8h0l3.15,5.46h0l-1.72,3L43.36,18.8l-.1-.17-6-10.2L37,8Zm-12.72.07,6.23,10.79h0l-3.08,5.32L24.29,8h0ZM24.18,8.17l3.06,5.34-3.68,6.41-1.82,3.16h0L21,24.3,18,19ZM1.78,2.4h0l0,0ZM5.29,8l3.06-5.3L11.43,8h0L9.06,12.1h0l-.69,1.2Zm6.14,11.09L9.09,23.14h0l-.69,1.2L5.32,19l3-5.3,3.08,5.36ZM8.49,13.52l3-5.18.07-.1,3.22,5.59,3,5.21h0l3.15,5.45L18.36,29l-.5.88L17.35,29Zm5.67,10.27,3,5.16.66,1.14.1-.06.07,0L18.59,29l3.31-5.76h0l1.54-2.7.74-1.28,2.52,4.38L24.11,28l0,.05h0l-.54.93-5.69,9.83-3.1-5.36h0L12.18,29,11.64,28ZM1.78,33.44h0l0,0ZM5.29,39l3.06-5.3,3.08,5.35h0L9.06,43.14h0l-.69,1.2Zm6.14,11.1L9.09,54.19h0l-.69,1.2L5.32,50.06l3-5.3,3.08,5.36ZM8.49,44.56l3-5.17.07-.11,3.15,5.46,3.07,5.35h0l3.15,5.46L18.36,60l-.45.78-.05.1L17.35,60Zm5.67,10.27,3,5.16.66,1.15.1-.07.07,0L18.59,60l3.31-5.75h0l1.58-2.76.7-1.22,2.52,4.39L24.11,59l0,0h0l-.54.93-5.69,9.83-3.1-5.36h0L12.18,60l-.54-.93ZM1.78,64.49h0l0,0Zm3.51,5.57,3.06-5.3,3.08,5.35h0L9.06,74.19h0l-.69,1.2Zm6.14,11.09L9.09,85.23h0l-.69,1.2L5.32,81.1l3-5.3,3.08,5.36ZM8.49,75.6l3-5.28,3.15,5.47,3.07,5.34h0l3.15,5.45L18.36,91l-.5.88L17.35,91Zm5.67,10.28,3,5.16.66,1.14.1-.06.07,0L18.59,91l3.31-5.76h0l1.44-2.51.84-1.46,2.52,4.38-2.6,4.36,0,0h0l-.54.93-5.69,9.83-3.1-5.36h0L12.18,91l-.54-.94ZM1.78,95.53h0l0,0Zm3.51,5.57,3.06-5.3,3.08,5.35h0l-2.35,4.08h0l-.69,1.2Zm6.14,11.1-2.34,4.08h0l-.69,1.2-3.07-5.32,3-5.3,3.08,5.36Zm-2.94-5.55,3-5.17.07-.11L14.76,107l3,5.22h0l3.15,5.46-2.56,4.45-.5.88-.51-.88Zm5.67,10.27,3,5.16.66,1.14.1-.06.07,0,.64-1.12,3.31-5.75h0l1.54-2.69.74-1.29,2.52,4.39-2.6,4.36,0,0h0l-.54.93-5.69,9.83-3.1-5.36h0l-2.58-4.46-.54-.93ZM1.78,126.58h0l0,0Zm3.51,5.57,3.06-5.31,3.08,5.36h0l-2.35,4.08h0l-.69,1.2Zm6.14,11.09-2.34,4.08h0l-.69,1.2-3.07-5.33,3-5.3,3.08,5.36Zm-2.94-5.55,3-5.17.07-.11,3.15,5.47,3.07,5.34h0l3.15,5.45-2.56,4.46-.45.78-.05.1-.51-.88ZM14.16,148l3,5.16.66,1.14.1-.06.07,0,.64-1.11,3.31-5.76h0l1.58-2.76.7-1.21,2.52,4.38-2.6,4.36,0,.05h0l-.54.93L17.85,163l-3.1-5.37h0l-2.58-4.46-.54-.94ZM1.78,157.62h0l0,0Zm3.51,5.57,3.06-5.3,3.08,5.35h0l-2.35,4.08h0l-.69,1.21Zm6.14,11.09-2.34,4.08h0l-.69,1.2-3.07-5.32,3.06-5.31,3.07,5.37Zm-2.94-5.54,3-5.28,3.15,5.46,3.07,5.35h0l3.15,5.45-2.56,4.46-.5.88-.51-.88ZM14.16,179l3,5.16.66,1.14.1-.06.07,0,.64-1.12,3.31-5.76h0l1.7-3,.58-1,2.52,4.38-2.6,4.36,0,0h0l-.54.93L17.85,194l-3.1-5.36h0l-2.58-4.46-.54-.93ZM1.78,188.67l0,0,0,0Zm3.51,5.56,3.06-5.3,3.08,5.36h0l-2.35,4.08h0l-.69,1.2Zm6.14,11.1-2.34,4.08h0l-.69,1.21-3.07-5.33,3-5.3,3.08,5.36Zm-2.94-5.55,3-5.17.07-.11,3.22,5.6,3,5.21h0l3.15,5.46-2.56,4.45-.5.89-.51-.89Zm5.67,10.27,3,5.16.66,1.15.1-.07.07,0,.64-1.12,3.31-5.75h0l1.54-2.69.74-1.29,2.52,4.39-2.6,4.36,0,0h0l-.54.93L17.85,225l-3.1-5.36h0l-2.58-4.47-.54-.93ZM1.78,219.71h0l0,0Zm3.51,5.57L8.35,220l3.08,5.35h0l-2.35,4.08h0l-.69,1.2Zm6.14,11.09-2.34,4.08h0l-.69,1.2-3.07-5.33,3-5.3,3.08,5.36Zm5.92,9.89L8.49,230.82l3-5.17.07-.11L14.69,231l3.07,5.34h0l3.15,5.45-2.56,4.46-.45.78-.05.1Zm6.07-8.79-1.68,2.92h0L21,241.6,18,236.28l6.22-10.8,3.06,5.34ZM30,246.26l-5.7-9.93L27.35,231l3.08,5.36h0l3.13,5.42h0L31,246.26l-.52.9Zm6.18-8.95-1.77,3.09h0l-.69,1.2-3.07-5.32,3-5.23.91-1.58h0l.49-.84,1.82-3.15.23.39,2.83,4.9h0l-3.19,5.56h0Zm7.25,9.78,0,0-.15-.26-.36-.61L37,236.32l3.1-5.39,3.18,5.4,0,0h0l3.15,5.46,0,0-2.55,4.44Zm6.17-10.72-2.35,4.08h0l-.69,1.2-3.08-5.33,3.06-5.3,3.08,5.36Zm5.92,9.89-8.86-15.44,3-5.17.06-.11L52.86,231l3.07,5.34h0l3.15,5.45-2.56,4.46-.45.77-.06.11Zm6.09-8.83-1.7,3h0l-.7,1.22-3.07-5.32,6.22-10.8,3.06,5.34Zm6.56,8.83-5.7-9.93,3-5.32,3.08,5.36h0l3.14,5.42h0l-2.58,4.49-.51.9Zm6.42-9.36-2,3.5h0l-.69,1.2-3.07-5.32,3-5.23.91-1.58h0l.37-.63L75,225.48l.25.44,2.8,4.85h0l-3.19,5.56h0Zm7,10.19,0,0-.15-.26-.37-.61-5.91-9.94,3.1-5.39,3.18,5.4,0,0h0l3.14,5.46,0,0-2.55,4.44Zm6.17-10.72-2.35,4.08h0l-.69,1.2-3.08-5.33,3.06-5.3,3.08,5.36Zm5.92,9.89-8.86-15.44,3-5.16.06-.12L91,231l3.07,5.34h0l3.15,5.45-2.56,4.46-.44.76-.07.12Zm6.31-9.21-1.92,3.34h0l-.7,1.22-3.07-5.32,6.21-10.8,3.07,5.34Zm6.34,9.21-5.7-9.93,3-5.32,3.08,5.36h0l3.14,5.42h0l-2.58,4.49-.51.9Zm6.42-9.36-2,3.5h0l-.69,1.2L107,236.28l3-5.21.92-1.6h0l.46-.79,1.84-3.2.24.4,2.82,4.89h0l-3.2,5.56h0Zm7,10.19,0,0-.15-.26-.37-.61-5.91-9.94,3.1-5.39,3.18,5.4,0,0h0l3.14,5.46,0,0-2.54,4.44Zm6.17-10.72-2.35,4.08h0l-.69,1.2-3.07-5.33,3.06-5.3,3.08,5.36Zm5.91,9.89L123,230.82l3-5.16.07-.12,3.15,5.46,3.07,5.35h0l3.14,5.45-2.55,4.46-.44.76-.07.12Zm6.32-9.21-1.92,3.34h0l-.7,1.22-3.08-5.32,6.22-10.8,3.06,5.34Zm6.34,9.21-5.7-9.93,3.05-5.31,3.07,5.35h0l3.13,5.42h0l-2.58,4.49-.52.9Zm6.24-9.06-1.84,3.2h0l-.69,1.2-3.06-5.32,2.86-5,1.06-1.83h0l.45-.79,1.85-3.2.24.4,2.82,4.89h0l-3.19,5.56h0Zm7.18,9.91v0l-.15-.26-.37-.61-5.91-9.94,3.09-5.39,3.19,5.4,0,0h0l3.15,5.46,0,0-2.54,4.44Zm6.18-10.74-2.35,4.08h0l-.69,1.2L158,236.32l3.06-5.3,3.08,5.36Zm5.91,9.89-8.86-15.44,3-5.16.07-.12,3.15,5.47,3.07,5.34h0l3.15,5.45L171,246.26l-.44.78-.06.1Zm6.15-8.92-1.75,3h0l-.7,1.22-3.08-5.32,6.22-10.8,3.06,5.34Zm6.51,8.92-5.7-9.93L180,231l3.07,5.35h0l3.13,5.42h0l-2.57,4.49-.52.9Zm6.15-8.9-1.75,3h0l-.69,1.2-3.07-5.32,3-5.23.91-1.58h0l.48-.84,1.82-3.15.23.39,2.83,4.9h0l-3.19,5.56h0Zm7.27,9.74v0l-.16-.26-.36-.61-5.91-9.94,3.09-5.39,3.18,5.4,0,0h0l3.15,5.46,0,0-2.55,4.44Zm6.17-10.73-2.34,4.08h0l-.69,1.2-3.07-5.33,3.06-5.3,3.07,5.36Zm5.92,9.89-8.86-15.44,3-5.17.07-.11,3.15,5.47,3.07,5.34h0l3.15,5.45-2.56,4.46-.45.78-.05.1Zm6.07-8.79-1.68,2.92h0l-.71,1.22-3.07-5.32,6.22-10.8,3.06,5.34Zm6.59,8.79-5.7-9.93,3-5.32,3.07,5.36h0l3.13,5.42h0l-2.57,4.49-.52.9Zm6.41-9.36-2,3.5h0l-.69,1.2-3.07-5.32,3-5.23.91-1.58h0l.49-.84,1.82-3.15.26.44,2.8,4.85h0l-3.19,5.56h0Zm7,10.19,0,0-.15-.26-.36-.61-5.91-9.94,3.09-5.39,3.18,5.4,0,0h0l3.15,5.46,0,0-2.55,4.44Zm6.17-10.72-2.34,4.08h0l-.69,1.2-3.07-5.33,3-5.3,3.08,5.36Zm9.49,5.43-2.56,4.46-.44.76-.07.12-.5-.88-8.86-15.44,3-5.17.07-.11L243.7,231l3.07,5.34h0Zm0-11-3.06,5.32-3.06-5.3,0-.05h0l-3.23-5.59h0l-3.07-5.35,2.63-4.57.42-.71.05.1.36.61Zm5.81-20.89-2.6,4.36h0l0,0h0l-.54.93L246.86,225l-3.1-5.36h0l-2.58-4.47-.54-.93,2.52-4.23,3,5.16.66,1.15.1-.07.07,0,.64-1.12,3.31-5.75h0l1.78-3.11.5-.87Zm-5.79.89-2.56,4.45-.51.89-.5-.89-8.86-15.43,3-5.17.07-.11,3.22,5.6,3,5.21h0Zm0-11-3,5.24-.05.09-3-5.26,0-.09h0l-3.23-5.6h0l-3.07-5.36,2.63-4.56.37-.63.05-.09.41.72Zm3-24.71.32-.56,2.52,4.38-2.6,4.36h0l0,0h0l-.54.93L246.86,194l-3.1-5.36h0l-2.58-4.46-.54-.93,2.52-4.23,3,5.16.66,1.14.1-.06.07,0,.64-1.12,3.31-5.76h0Zm-2.95,4.71-2.56,4.46-.51.88-.5-.88-8.86-15.43,3.05-5.28,3.15,5.46,3.07,5.35h0Zm0-11-3,5.23,0,.09-3-5.21-.08-.14h0L240.56,163h0l-3.07-5.36,2.63-4.56.37-.64.05-.08.41.72Zm2.84-24.49.45-.78,2.52,4.38-2.6,4.36h0l0,.05h0l-.54.94L246.86,163l-3.1-5.37h0l-2.58-4.46-.54-.94,2.52-4.22,3,5.16.66,1.14.1-.06.07,0,.64-1.11,3.31-5.76h0Zm-2.82,4.49-2.56,4.46-.44.76-.07.12-.5-.88-8.86-15.44,3-5.17.07-.11,3.15,5.47,3.07,5.34h0Zm0-11L246.85,143l-3.06-5.31,0,0h0l-3.23-5.6h0l-3.07-5.35,2.63-4.57.42-.71.05.09.36.62Zm5.81-20.89-2.6,4.37h0l0,0h0l-.54.93-5.69,9.83-3.1-5.36h0l-2.58-4.46-.54-.93,2.52-4.23,3,5.16.66,1.14.1-.06.07,0,.64-1.12,3.31-5.75h0l1.78-3.12.5-.86Zm-5.79.9-2.56,4.45-.51.88-.5-.88-8.86-15.43,3-5.17.07-.11,3.22,5.59,3,5.22h0Zm0-11-3,5.24-.05.08-3-5.26,0-.08h0L240.56,101h0l-3.07-5.36L240.11,91l.37-.64.05-.08.41.72Zm5.81-20.89-2.6,4.36h0l0,0h0l-.54.93-5.69,9.83-3.1-5.36h0L241.19,91l-.54-.94,2.52-4.22,3,5.16.66,1.14.1-.06.07,0L247.6,91l3.31-5.76h0l1.69-2.94.59-1Zm-5.79.89L247.37,91l-.51.88-.5-.88L237.5,75.6l3.05-5.28,3.15,5.47,3.07,5.34h0Zm0-11-3,5.23,0,.09-3-5.22-.08-.13h0l-3.23-5.59h0l-3.07-5.35L240.11,60l.37-.63.05-.08.41.71ZM252.75,51l.45-.78,2.52,4.39L253.12,59h0l0,0h0l-.54.93-5.69,9.83-3.1-5.36h0L241.19,60l-.54-.93,2.52-4.23,3,5.16.66,1.15.1-.07.07,0L247.6,60l3.31-5.75h0Zm-2.82,4.5L247.37,60l-.44.77-.07.11-.5-.88L237.5,44.56l3-5.17.07-.11,3.15,5.46,3.07,5.35h0Zm0-11-3.06,5.33-3.06-5.31,0,0h0l-3.23-5.6h0l-3.07-5.36L240.11,29l.42-.72.05.1.36.62Zm5.81-20.89L253.12,28h0l0,.05h0l-.54.93-5.69,9.83-3.1-5.36h0L241.19,29l-.54-.94,2.52-4.22,3,5.16.66,1.14.1-.06.07,0L247.6,29l3.31-5.76h0l1.78-3.12.5-.86Zm-5.79.89L247.37,29l-.51.88-.5-.88L237.5,13.52l3-5.18.07-.1,3.22,5.59,3,5.21h0Z"/></g></svg>