<svg xmlns="http://www.w3.org/2000/svg" viewBox="0 0 256 256"><defs><style>.cls-1{fill:#969487;}</style></defs><title>seamless_pattern06</title><g id="seamless_pattern06"><path class="cls-1" d="M239.71,256,238,253l6.65-3.85V256h.33v-6.89L251.6,253l-1.76,3h.38l1.6-2.77,1.6,2.77h.38l-1.69-2.94H256v-.33h-3.89L256,246v-.66l-4.24,7.35-6.65-3.85L256,242.53v-.38l-11.06,6.39v-7.7H256v-.32h-3.57l3.57-6.19v-.65l-1,1.8-2.87,5h0l-6.6-3.81L256,230.59v-.38l-10.68,6.17v-7.62H256v-.32H245.44l6.39-11.72L256,224v-.66l-3.95-6.86,3.95-2.28v-.38l-4.12,2.38-6.65-11.55L256,210.84v-.38l-10.61-6.13H256V204H245.06l6.76-11.73,4.18,7.25v-.66l-3.89-6.75H256v-.33h-3.89L256,185v-.66l-4.24,7.35-6.65-3.85L256,181.58v-.38l-11.06,6.39v-7.7H256v-.33h-3.57l3.57-6.18v-.65l-.22.38-3.69,6.4h0l-6.6-3.81L256,169.64v-.38l-10.68,6.17v-7.62H256v-.33H245.44l6.39-11.72L256,163v-.65l-3.95-6.86L256,153.2v-.38l-4.12,2.38-6.65-11.54L256,149.89v-.38l-10.61-6.13H256v-.33H245.06l6.76-11.73,4.18,7.25v-.66l-3.89-6.75H256v-.33h-3.89l3.89-6.75v-.66l-3.18,5.52-1.06,1.83-6.65-3.85,10.89-6.3v-.38l-11.06,6.4v-7.7H256v-.33h-3.57l3.57-6.18v-.65l-1,1.77-2.89,5h0l-6.6-3.8L256,108.68v-.37l-10.68,6.16v-7.61H256v-.33H245.44l6.39-11.72,4.17,7.24v-.66l-3.95-6.85L256,92.25v-.38l-4.12,2.38-6.65-11.54L256,88.94v-.38l-10.61-6.14H256v-.33H245.06l6.76-11.72L256,77.62V77l-3.89-6.75H256v-.33h-3.89L256,63.12v-.65l-4.24,7.35L245.11,66,256,59.67v-.38l-11.06,6.39V58H256v-.33h-3.57L256,51.47v-.65l-1,1.66-2.95,5.12h0l-6.6-3.81L256,47.73v-.37l-10.68,6.16V45.91H256v-.33H245.44l6.39-11.72L256,41.1v-.66l-3.95-6.85L256,31.3v-.38l-4.12,2.38-6.65-11.54L256,28v-.37l-10.61-6.14H256v-.33H245.06l6.76-11.72L256,16.66V16l-3.89-6.76H256V8.92h-3.89L254.37,5,256,2.17V1.52l-4.24,7.35L245.11,5l8.67-5h-.65l-8.19,4.73V0h-.33V4.73L236.43,0h-.66l8.68,5-6.66,3.84L232.68,0h-.38l1.08,1.87,4.07,7.05h-6.76v.33h6.76L230.66,21,223.87,9.25h6.76V8.92h-6.76L229,0h-.38l-.81,1.4h0l-4.3,7.46L216.87,5l8.68-5h-.66l-8.1,4.69,0-4.69h-.33l0,4.78L208.2,0h-.66l8.68,5-6.66,3.85L204.45,0h-.38l1.19,2.06,4,6.86H195.7L200,1.49,200.84,0h-.38l-5.11,8.86L188.7,5l8.67-5h-.65l-8.19,4.73V0h-.33V4.73L180,0h-.66L188,5l-6.66,3.84L176.27,0h-.38l2.8,4.84L181,8.92h-6.76v.33H181L174.25,21,167.46,9.25h6.76V8.92h-6.76L172.61,0h-.38l-.81,1.4h0l-4.3,7.46L160.46,5l8.68-5h-.66l-8.1,4.69,0-4.69h-.33l0,4.78L151.79,0h-.66l8.68,5-6.66,3.85L148,0h-.38l2.89,5,2.26,3.92H139.29l1-1.77L144.43,0h-.38l-5.11,8.86L132.29,5,141,0h-.65l-8.19,4.73V0h-.33V4.73L123.61,0H123l8.68,5L125,8.86,119.86,0h-.38l2.8,4.84,2.35,4.08h-6.76v.33h6.76L117.84,21,111.05,9.25h6.76V8.92h-6.76L116.2,0h-.38L115,1.4h0l-4.3,7.46L104.05,5l8.68-5h-.66L104,4.69,104,0h-.33l0,4.78L95.38,0h-.66l8.68,5L96.74,8.87,91.63,0h-.38l2.89,5L96.4,8.92H82.88l1-1.66L88,0h-.38L82.53,8.86,75.88,5l8.67-5H83.9L75.71,4.73V0h-.33V4.73L67.2,0h-.66l8.68,5L68.56,8.86,63.45,0h-.38l2.79,4.83,2.36,4.09H61.46v.33h6.76L61.43,21,54.64,9.25H61.4V8.92H54.64L59.79,0h-.38L58.6,1.4h0L54.3,8.86,47.64,5l8.68-5h-.66l-8.1,4.69,0-4.69h-.33l0,4.78L39,0h-.66L47,5,40.33,8.87,35.22,0h-.38l2.89,5L40,8.92H26.47l1-1.66L31.61,0h-.38L26.12,8.86,19.47,5l8.67-5h-.65L19.3,4.73V0H19V4.73L10.79,0h-.66l8.68,5L12.15,8.87,7,0H6.66l5.15,8.92H5.05v.33h6.76L5,21,0,12.32V13l4.71,8.17H0v.33H4.83v7.7L0,26.37v.38l4.67,2.7L0,32.15v.38l4.83-2.79V45.13L0,36.75v.66l4.71,8.17H0v.33H4.39L0,48.44v.37l4.55-2.62L0,54.07v.65l5.09-8.81h.37l3.16,5.47,3.63,6.28H0V58H4.38L0,60.52v.38l4.55-2.63L0,66.16v.66l2.48-4.3h0L5,58.1l6.79,11.78H5.05v.33h6.76L5,82,0,73.27v.66l4.71,8.16H0v.33H4.83v7.7L0,87.33v.38L4.67,90.4,0,93.1v.38l4.83-2.79v15.39L0,97.7v.66l4.71,8.17H0v.33H4.38L0,109.39v.38l4.55-2.63L0,115v.65l5.09-8.81h.37l2.78,4.81,4,6.94H0v.33H4.38L0,121.47v.38l4.55-2.63L2.19,123.3h0l-2,3.47-.19.34v.66l2.48-4.3h0L5,119.06l6.79,11.77H5.05v.33h6.76L5,142.93l-5-8.71v.66l4.71,8.17H0v.33H4.83v7.69L0,148.28v.38l4.67,2.7L0,154.05v.38l4.83-2.79V167L0,158.66v.65l4.71,8.17H0v.33H4.38L0,170.34v.38l4.55-2.63L0,176v.65l5.09-8.81h.37L7.86,172l4.39,7.61H0v.33H4.38L0,182.43v.38l4.55-2.63L0,188.06v.66l2.48-4.3h0L5,180l6.79,11.77H5.05v.33h6.76L5,203.88l-5-8.71v.66L4.71,204H0v.33H4.83V212L0,209.23v.38l4.67,2.7L0,215v.38l4.83-2.8V228L0,219.61v.66l4.71,8.17H0v.32H4.38L0,231.3v.37L4.55,229,0,236.93v.65l5.09-8.82h.37l2.9,5,3.89,6.74H0v.32H4.38L0,243.38v.38l4.55-2.63-2.36,4.08h0L0,249v.66l2.48-4.3h0L5,241l6.79,11.77H5.05v.33h6.76L10.12,256h.38l1.59-2.77,1.6,2.77h.38l-1.74-3h0L19,249.11V256h.33v-6.89L26,253l-1.75,3h.37l.61-1.05,1-1.72,1.6,2.77h.38l-1.69-2.94H40L38.29,256h.38l1.6-2.77,1.6,2.77h.38l-1.75-3,6.73-3.89,0,6.93h.32l0-6.85L54.14,253l-.15.25L52.38,256h.38l1.6-2.77L56,256h.38l-1.7-2.94H61.4v-.33H54.64l4.25-7.36h0L61.43,241l6.79,11.77H61.46v.33h6.76L66.53,256h.38l1.59-2.77L70.1,256h.38l-1.61-2.8-.14-.24,6.65-3.85V256h.33v-6.89L82.37,253l-1.76,3H81L81.6,255l1-1.72,1.6,2.77h.38l-1.69-2.94H96.4L94.7,256h.38l1.6-2.77,1.6,2.77h.38l-1.75-3,6.73-3.89,0,6.93h.32l0-6.85,6.58,3.81-.15.25L108.79,256h.38l.15-.26,1.45-2.51,1.6,2.77h.38l-1.7-2.94h6.76v-.33h-6.76l4.25-7.36h0l2.54-4.41,6.79,11.77h-6.76v.33h6.76L122.94,256h.37l1.6-2.77,1.6,2.77h.38l-1.74-3h0l6.65-3.85V256h.33v-6.89l6.66,3.85L137,256h.38l.54-.93,1.06-1.84,1.6,2.77H141l-1.69-2.94h13.52l-1.7,2.94h.38l1.6-2.77,1.6,2.77h.38l-1.75-3,6.73-3.89,0,6.93h.32l0-6.85L167,253l-1.76,3h.38l1.6-2.77,1.6,2.77h.38l-1.7-2.94h6.76v-.33h-6.76l4.25-7.36h0l2.54-4.41L181,252.73h-6.76v.33H181L179.35,256h.37l1.6-2.77,1.6,2.77h.38l-1.74-3h0l6.65-3.85V256h.33v-6.89l6.66,3.85-1.76,3h.38l1.6-2.77L197,256h.38l-1.69-2.94h13.52l-1.7,2.94h.38l1.6-2.77,1.6,2.77h.38l-1.75-3,6.73-3.89,0,6.93h.33l0-6.85,6.58,3.81-.52.89L221.61,256H222l1.6-2.77,1.6,2.77h.38l-1.7-2.94h6.76v-.33h-6.76l4.25-7.36h0l2.54-4.41,5.79,10,1,1.73h-6.76v.33h6.76L235.76,256h.37l1.6-2.77,1.6,2.77ZM250.58,71.87l-5.64,9.78V66.25l6.66,3.85ZM230.41,240.52h-6.47l6.79-11.76h.37l6.79,11.76h-7.48ZM12.15,191.72,5.5,180.18l13.31,7.69Zm0-121.9L5.5,58.27,18.81,66ZM238.23,57.6h0l-2.62-4.54-4-6.87,13.19,7.61-6.59,3.81Zm0,61h0L235.61,114l-4-6.87,13.19,7.62-6.59,3.8Zm0,61h0L235.61,175l-4-6.87,13.19,7.62-6.59,3.81Zm0,61h0L236,236.63,231.64,229l13.19,7.62-6.59,3.81Zm-35.68.06-.09-.17-.1.17H196l6.69-11.6L208,238l1.45,2.51h-6.85Zm-20.15,0,6.19-3.58v3.58Zm-36.26,0-.09-.17-.1.17h-6.34l6.69-11.6,5.24,9.09,1.45,2.51h-6.85Zm-20.15,0,6.19-3.58v3.58Zm-36.26,0-.09-.17-.1.17H83.2l6.69-11.6,3.6,6.24,3.09,5.36H89.73Zm-20.15,0,6.19-3.58v3.58Zm-36.26,0-.09-.17-.1.17H26.79l6.69-11.6,3.6,6.24,3.09,5.36H33.32ZM231,90.4l13.31-7.69-6.66,11.54Zm0,61,13.31-7.7-6.66,11.54Zm0,60.95,13.31-7.7-6.66,11.55Zm-49.2,28.15h0l-2.22-3.86L175.23,229l13.19,7.62-6.59,3.81Zm-141.3,0-.74-1.28L33.93,229l13.19,7.62-6.6,3.81Zm-28.14-85.2,6.76-11.72,6.76,11.72Zm13.53.33-6.4,11.73-7.12-11.73ZM12.38,94.31l6.76-11.72L25.9,94.31Zm13.53.33-6.4,11.73L12.39,94.64ZM12.38,33.36l6.76-11.72L25.9,33.36Zm13.53.33-6.4,11.72L12.39,33.69Zm134.23-12,4.74,8.22,2,3.5H153.38l2-3.48ZM33.68,119.22,47,126.92l-6.66,3.85-1-1.83Zm147.93,97,1.07-1.87,5.69-9.86,6.76,11.73Zm13.53.33-6.4,11.72-7.12-11.72Zm-69.94-.33,1.07-1.87,5.69-9.86,6.76,11.73Zm13.53.33-6.4,11.72-7.12-11.72Zm-69.94-.33L70,214.08l5.53-9.59,6.76,11.73Zm13.53.33-6.4,11.72L68.8,216.55Zm-35.16-171H33.57l0-.06,6.73-11.67Zm-6.6-11.89H54.08L47.44,45.41Zm63,11.89H90l0-.06,6.73-11.67ZM97,33.69h13.52l-6.64,11.72ZM195.68,57.6h0l-6.6-3.81,13.2-7.61-2.47,4.27-4.12,7.14Zm0,61h0l-6.6-3.8,13.2-7.62-2.57,4.45-4,7Zm2.55,7.23-2.88,5-6.65-3.85,13.31-7.7Zm-2.55,53.73h0l-6.6-3.81,13.2-7.62-1.7,2.95-4.89,8.47Zm-14.42,36.65-6.65-3.85,13.31-7.7-4.12,7.15Zm-56.41,0-6.65-3.85,13.31-7.7-4.12,7.15Zm-56.41,0-6.65-3.85,13.31-7.7-3.6,6.24ZM118.1,45.91h.18l2.27,3.93,4.52,7.82H111.12l6.79-11.75Zm56.41,0h.18l6.79,11.75H167.53l6.79-11.75Zm7.31,11.69h0l-2.62-4.54-4-6.87,13.19,7.61-6.59,3.81Zm6.77-4.08L175.4,45.91h13.19Zm.32-7.61H202.1l-13.19,7.61Zm34.4,170.31H209.79l6.76-11.73,5.68,9.86Zm0,.33-6.64,11.72-6.88-11.72Zm-69.93-.33,3.37-5.85,3.39-5.88,2.54,4.42,4.22,7.31Zm13.52.33-6.64,11.72-6.88-11.72ZM97,216.22l6.76-11.73,4.18,7.26,2.58,4.47Zm13.52.33-6.64,11.72L97,216.55Zm-69.93-.33,6.76-11.73,4.18,7.26,2.58,4.47Zm13.52.33-6.64,11.72-6.88-11.72ZM202.62,228v-15.4l6.66,3.85-3.43,5.95Zm6.82-11.83-6.65-3.85,13.31-7.7ZM202.62,212v-7.69h13.31Zm-.33,0L189,204.33h13.31Zm-35,4.14-2.54-4.4-4.12-7.15,13.32,7.7Zm-28.18,0-6.65-11.55,13.31,7.7Zm-56.41,0L76,204.61l13.31,7.7ZM68.73,192l6.65-3.85v15.39l-5.45-9.46ZM40.56,155.26l6.76-11.72,6.76,11.72Zm13.52.33-6.64,11.73-6.88-11.73Zm14.65-24.54,6.65-3.84V142.6l-6.57-11.4Zm0-61,6.65-3.85v15.4l-5.47-9.5Zm140.55,85.39-2.07,3.59L202.62,167V151.64ZM181,192.11l-6.79,11.77-6.79-11.77h6.76v-.33h-6.76l4.25-7.36h0l2.54-4.41L181,191.78h-6.76v.33Zm-34.66,20.2,13.31-7.7L153,216.16Zm-21.75-20.2-6.79,11.77-6.79-11.77h6.76v-.33h-6.76l4.25-7.36h0l2.54-4.41,6.79,11.77h-6.76v.33ZM68.79,155.26h0l6.76-11.72,6.76,11.72Zm13.53.33-6.4,11.73L68.8,155.59ZM68.79,94.31l.08-.13,6.68-11.59,6.76,11.72Zm13.53.33-6.4,11.73L68.8,94.64Zm-41.76-.33,6.76-11.72L54,94.21l.07.1Zm13.52.33-6.64,11.73L40.56,94.64Zm98.91-37h-6.85l-.09-.16-.1.16h-6.34l6.69-11.59,5,8.61Zm30.81,78,4.28,7.43H174.56l6.76-11.73Zm-93.71-16.4,13.31,7.7-6.66,3.85-1-1.83Zm77.09-48.85,6.76,11.72H160.42l2.78-4.81Zm14.43,23.94,6.76-11.72,6.76,11.72Zm13.53.33-6.4,11.73-7.12-11.73Zm-28,36.68,6.76,11.73H160.42l3.46-6Zm14.43,23.94,6.76-11.72,6.76,11.72Zm13.53.33-6.4,11.73-7.12-11.73ZM181.31,94.16l-.05.09-6.65-3.85,13.31-7.69Zm-42,24.39h0l-6.6-3.8,13.2-7.62-2.57,4.45-4,7Zm42,36.65-6.65-3.84,13.31-7.7Zm-42,24.31h0l-6.6-3.81,13.2-7.62-1.7,2.95-4.89,8.47Zm-13.28.05,6.19-3.57v3.57ZM82.65,155.2,76,143.66l13.31,7.7Zm70.73.06,3.17-5.51,3.59-6.21,3.58,6.21,3.18,5.51Zm13.52.33-6.64,11.73-6.88-11.73ZM97,155.26l6.76-11.72,6.76,11.72Zm13.52.33-6.64,11.73L97,155.59Zm14.71-.33L132,143.54l6.76,11.72Zm13.53.33-6.4,11.73-7.12-11.73Zm14.14-.1L146.21,167V151.64Zm-7-3.85V167l-6.65-11.54Zm-6.82,3.56-6.65-11.54,13.31,7.7Zm-14.21,0-6.65-3.84,13.31-7.7Zm-14,0-6.66-11.54,13.32,7.7Zm.16.29,6.66-3.85V167l-4.51-7.82Zm7-3.85,6.66,3.85L118,167Zm35,3.56-6.65-3.84,13.31-7.7Zm-7.15-4.13-13.31-7.69h13.31Zm-27.85,0v-7.69h13.32Zm-.38,0-13.31-7.69h13.31Zm7.27,4.68,7.13,11.73h-13.9Zm14.09,0,6.75,11.71H132.62Zm-6.83,12v7.62L119,167.81Zm14-16.74v-7.69h13.31Zm-.45-8H132.24L139,131.32Zm-6.47-11.89h13.52l-6.76,11.72Zm-14.15-.11,6.65-3.84V142.6Zm2.25,4.57,4.28,7.43H118.15l6.76-11.73Zm-9.48,7.43,0-.07.12.07Zm-13.9,0,6.5-11.28.26-.45,6.76,11.73Zm-14.21.33h13.31L89.8,151.07Zm13.48.28L96.62,155.2,90,151.36ZM90,167.43l6.73-11.67,6.89,11.72H90Zm20.82-11.67,6.76,11.72h-13.4Zm21.24,20-6.59,3.81-6.6-11.43Zm.49-7.9h13.19l-13.19,7.62Zm13.89-.33,0,0,6.73-11.67L160,167.48Zm20.79-11.72,6.76,11.72h-13.4Zm.22-.27,6.66-3.85V167Zm-.16-.29-6.66-11.54,13.32,7.7Zm-20.91-12.15,6.76-11.73,6.76,11.73Zm-7-12.22,6.76-11.73,6.76,11.73Zm-.51.22-6.66,11.55V127.21ZM125,130.77l-6.65-11.55,13.31,7.7Zm-.34.06h-6.76v.33h6.76l-6.79,11.77-6.79-11.77h6.76v-.33h-6.76l4.25-7.36h0l2.54-4.41Zm-14.08.22-6.66,11.54.08-15.34Zm-20.63,12,6.76-11.73,6.76,11.73Zm-.45,8-13.31-7.69H89.47Zm7,4.42L89.8,167V151.64ZM104,167.81H117.2L104,175.43Zm13.35.28-6.6,11.43-6.59-3.81ZM132.5,176l6.19,3.57H132.5Zm27.6-8.18v7.62l-13.19-7.62Zm14-16.74-13.31-7.69h13.31Zm-32.24-25.29-2.88,5-6.65-3.85,13.31-7.7Zm-23.34-6.84h13.31v7.7ZM82.65,94.25,76,82.71,89.31,90.4Zm14-23.88,6.76,11.72H89.92Zm-7,11.56L82.88,70.21H96.4ZM166.9,94.31H153.38l3.37-5.84,3.39-5.88,3.33,5.79Zm0,.33-6.64,11.73-6.88-11.73Zm-56.41-.33H97l6.76-11.72,6.69,11.62Zm0,.33-6.64,11.73L97,94.64Zm-6.92,11.89H90l0,0L96.68,94.8Zm7.2-11.72,6.76,11.72h-13.4Zm42.1-.27-6.66,11.54V90.69Zm-7,11.54-6.65-11.54,6.65-3.85ZM153,94.25l-6.65-3.85,13.31-7.69Zm-14,0-6.65-11.54,13.31,7.69Zm-.34.06H125.2L132,82.59Zm0,.33-6.4,11.73-7.12-11.73Zm-13.81.16,7.13,11.73h-13.9Zm14.09,0,6.75,11.72H132.62Zm-6.83,12v7.61L119,106.86Zm14-16.74v-7.7h13.31Zm-.33,0-13.31-7.7h13.31Zm-21.19,4.42L118,106.08V90.69Zm-7,11.54-3.27-5.67L111,94.54l6.66-3.85ZM89.8,82.42h13.31L89.8,90.12Zm13.48.29L96.62,94.25,90,90.4Zm.74,24.15H117.2L104,114.47Zm28,7.9-6.59,3.8-6.6-11.42Zm.49-7.9h13.19l-13.19,7.61Zm13.89-.33,0,0,6.73-11.68L160,106.53Zm20.79-11.72,6.76,11.72h-13.4Zm.22-.27,6.66-3.85v15.39Zm-.16-.29-.05-.09-6.61-11.45L173.9,90.4ZM146.33,82.09l6.76-11.72,6.76,11.72Zm-.28-.16-6.76-11.72h13.52Zm-6.76-12.05,6.76-11.73,6.76,11.73Zm6.47,12.21H132.24L139,70.37ZM124.9,94.16l-.05.09L118.2,90.4l13.31-7.69Zm-14.07.09-6.66-11.54,13.32,7.69ZM89.47,90.12l-13.31-7.7H89.47Zm7,4.42L89.8,106.08V90.69Zm7.23,12.32v7.61L90.5,106.86Zm13.68.28-6.6,11.42-6.59-3.8ZM126,118.61l6.19-3.57v3.57ZM132.5,115l6.19,3.57H132.5Zm27.6-8.18v7.61l-13.19-7.61Zm14-16.74-13.31-7.7h13.31Zm-56,0v-7.7h13.32Zm-.38,0-13.31-7.7h13.31ZM96.4,69.88H82.88l6.76-11.73ZM89.35,82.09H75.83l6.76-11.72Zm.12,8.6v15.39L82.82,94.54Zm14.06,24.07-6.6,3.8-6.59-11.42Zm6.68,3.85H104V115Zm7.7-11.75h.37l1.66,2.87,5.13,8.88H111.12ZM115,123.3h0l-2,3.47-2.3,4-6.66-3.85,13.32-7.7Zm-11.45,19.3-6.65-11.55,6.73-3.89Zm-13.92.28-6.76-11.72H96.4Zm-.29.17H75.83l6.76-11.73Zm.12,8.59V167l-6.65-11.54Zm14.22,16.17v7.62L90.5,167.81Zm6.52,11.75H104V176Zm7.7-11.75h.37l1.32,2.29,5.47,9.46H111.12Zm.57,12.08h13.31v7.7Zm20.46,11.83-6.65-3.85,13.31-7.69Zm7.11-11.66,6.76,11.72H139.29Zm6.76,12.05-6.76,11.73-6.76-11.73Zm.28.16L159.85,204H146.33ZM160,203.56l-3.42-5.94L153.32,192l6.73-3.9Zm-27.85-16v-7.7h13.31Zm14.62-19.5,13.2,7.62-6.6,3.81Zm13.69-.28h13.18l-13.18,7.62Zm14-16.17,6.66,3.85L174.44,167Zm0-.57v-7.69h13.32Zm-.12-8,0-.07.12.07ZM160,142.6l-5.59-9.69-1.06-1.86,6.73-3.89Zm-27.85-16v-7.7h13.31Zm14.62-19.5,13.2,7.62-6.6,3.8Zm13.69-.28h13.18l-13.18,7.61Zm14-16.17,6.66,3.85-6.66,11.54Zm0-.57v-7.7h13.32Zm-.12-8,0-.06.12.06ZM160,81.65l-2.64-4.58-4-7,6.73-3.89ZM138.78,70.1l-2.65,4.59-4,7V66.25Zm-7.11,12H118.15l6.76-11.72Zm-13.76,0,0-.06.12.06Zm-13.9,0,5.44-9.44,1.32-2.28,6.76,11.72Zm-.45-.44-5.64-9.78-1-1.77,6.73-3.89Zm.13,33.39v3.57H97.5Zm7.2,3.9,0,0h0v0h6.27L104,126.59l0-7.65ZM96.4,130.83H82.88l6.76-11.73Zm7.13,44.88-6.6,3.81-6.6-11.43Zm.16.28v3.57H97.5Zm7.2,3.9,0,0h0v0h6.27L104,187.54l0-7.65ZM110.55,192l-6.66,11.54L104,188.2Zm-13.64,0,6.73-3.9-.08,15.45Zm-.51-.23H82.88l6.76-11.72Zm0,.33-6.76,11.73-6.76-11.73Zm.28.16L103.44,204H89.92Zm.06-.55-6.65-11.54,13.31,7.69Zm-14.15.55L89.35,204H75.83Zm20.52,12.06L89.8,212v-7.69Zm7.6-12.61-6.66-3.85,13.32-7.69Zm14.26,0-6.65-11.54,13.31,7.69Zm13.81.29-6.66,11.54V188.16Zm.22.26L145.76,204H132.24Zm20.52,12.06L146.21,212v-7.69Zm3.68-5.15,4-6.91L173.94,204H160.42ZM167,192l-1.53,2.64-5.13,8.9.08-15.35Zm-13.81-.29-6.65-11.54,13.31,7.69Zm-7-12.16-.09-.16-.1.16h-6.34L146.3,168l1.93,3.34,4.76,8.25h-6.85Zm14-3.57v3.57h-6.19Zm13.68-7.9-6.6,11.43-6.59-3.81Zm7.55-12.34,7.13,11.73h-13.9Zm14.09,0,6.75,11.71H189ZM181,131.16l-6.79,11.77-6.79-11.77h6.76v-.33h-6.76l4.25-7.36h0l2.54-4.41L181,130.83h-6.76v.33ZM167,131.05l-1.15,2-5.51,9.56.08-15.34Zm-13.81-.28-6.65-11.55,13.31,7.7Zm-7-12.16-.09-.16-.1.16h-6.34L146.3,107,153,118.61h-6.85Zm14-3.57v3.57h-6.19Zm13.68-7.9-6.6,11.42-6.59-3.8Zm7.55-12.34,7.13,11.73h-13.9Zm14.09,0,6.75,11.72H189Zm6.87,11.27-2.83-4.91-3.82-6.63,6.65-3.85Zm-27.73-24,6.76-11.72,6.76,11.72ZM181,70.21,174.25,82l-6.79-11.77h6.76v-.33h-6.76l4.25-7.36h0l2.54-4.42L181,69.88h-6.76v.33ZM167,70.1,166,71.72l-5.72,9.92.08-15.34Zm-13.81-.28L146.5,58.27,159.81,66Zm-14.21,0L132.29,66l13.31-7.7Zm-7.15,11.83-5.62-9.75-1-1.8,6.65-3.85Zm-7.16-11.77h-6.76v.33h6.76L117.84,82l-6.79-11.77h6.76v-.33h-6.76l4.25-7.36h0l2.54-4.42Zm-14.08.22-6.66,11.54L104,66.3Zm-13.81-.28L90.09,58.27,103.4,66Zm-14.37.28-2.32,4-4.34,7.52V66.25ZM68.94,93.4l-.5.85L61.79,90.4,75.1,82.71Zm-7.7-2.71v15.39L54.58,94.54Zm-6.82,3.56L47.76,82.71,61.08,90.4Zm7.2-3.56,6.66,3.85-6.66,11.54Zm14.47,16.17H89.28l-13.19,7.61Zm13.36.28L88.37,109l-5.51,9.54h0l-6.6-3.8ZM96.78,119l0,0h6.87l0,7.74-13.39-7.74h6.52v0ZM82.37,131.05,75.71,142.6V127.21ZM68.48,155.14l0,.06-6.65-3.84,13.31-7.7Zm-7.24-3.5V167l-6.66-11.54Zm-6.82,3.56-6.66-11.54,13.32,7.7Zm7.2-3.56,6.66,3.85L61.62,167Zm14.47,16.17H89.28l-13.19,7.62Zm13.36.28-6.59,11.42h0l-6.6-3.81Zm7.32,11.8v0l0,0h6.87l0,7.74-13.39-7.74ZM82.37,192l-6.66,11.54V188.16Zm7.1,12.32V212l-13.31-7.69Zm13.81.28-6.66,11.55L90,212.31Zm6.17-10.05,1.32-2.29L117.53,204H104ZM125.14,192l6.65-3.85v15.39l-5.6-9.72Zm20.74,12.32V212l-13.31-7.69Zm28.18,0V212l-13.31-7.69Zm-2.64-20.07h0l-4.3,7.46-6.66-3.85,13.32-7.69Zm-24.76-4.37h6.52v0l0,0h6.87l0,7.74Zm13.77-3.9,6.19,3.57h-6.19Zm41.86-9-4.44-7.71-2.21-3.83,6.65-3.85ZM171.42,123.3h0l-4.3,7.47-6.66-3.85,13.32-7.7Zm-24.76-4.36h6.52v0h0l0,0h6.87l0,7.74Zm13.77-3.9,6.19,3.57h-6.19Zm42.19-9V90.69l6.66,3.85-3.43,5.95Zm6.82-11.83-6.65-3.85,13.31-7.69Zm-14,0-6.65-11.54,13.31,7.69Zm-24.05-31.9h0l-4.3,7.47L160.46,66l13.32-7.7ZM146.66,58h6.52v0h0l0,0h6.87l0,7.74Zm7.25-.33,6.19-3.57v3.57Zm6.52-3.57,6.19,3.57h-6.19Zm-7.09,3.52-6.6-11.42,13.2,7.61Zm-21.16,0H126l6.19-3.57Zm.32-3.57,6.19,3.57H132.5Zm6.91,3.9h6l-13.31,7.69V58ZM125,69.82l-6.65-11.55L131.63,66Zm-14.26,0L104.05,66l13.32-7.7ZM90.25,58h6.52v0h0l0,0h6.87l0,7.74Zm7.25-.33,6.19-3.57v3.57ZM104,54.09l6.19,3.57H104Zm-7.09,3.52L90.34,46.19l13.19,7.61Zm-7-11.54,2.91,5,3.78,6.56H89.73l-.09-.16-.1.16H83.2ZM82.53,69.82,75.88,66l13.31-7.7ZM61.62,90.12v-7.7H74.94Zm-.38,0-13.31-7.7H61.24ZM47.16,106.53H33.57l0,0L40.27,94.8Zm7.2-11.72,6.76,11.72H47.72Zm14.15,0,7.13,11.73H61.74Zm14.09,0,6.75,11.72H76.21Zm-6.83,12v7.61l-13.19-7.61Zm6.51,11.75H76.09V115ZM89.89,107l6.69,11.59H89.73l-.09-.16-.1.16H83.2ZM85,126.43l-2.5,4.34-6.65-3.85,13.31-7.7ZM61.62,151.07v-7.69H74.94Zm-.38,0-13.31-7.69H61.24Zm7.27,4.68,7.13,11.73H61.74Zm14.09,0,6.75,11.71H76.21Zm-6.83,12v7.62l-13.19-7.62Zm6.51,11.75H76.09V176ZM89.89,168l.66,1.14,6,10.45H89.73l-.09-.16-.1.16H83.2Zm-7.36,23.75-6.65-3.85,13.31-7.69Zm13.93,24.72L89.8,228v-15.4Zm21.19-12.11V212l-13.31-7.69Zm.26-.33,0-.07.12.07Zm7-11.73,2.22,3.85,4.54,7.88H118.15Zm28,24.17L146.21,228v-15.4ZM174.32,204l0-.07.12.07Zm7-11.73,2.22,3.85,4.54,7.88H174.56Zm1.28,1.56-1-1.82,6.65-3.85v15.39Zm-22.22-6.29,0-7.65h6.88l0,0h0v0h6.27Zm28.21-19.73v7.62l-13.19-7.62Zm20.85-12.61-6.65-3.84,13.31-7.7Zm-14,0-6.65-11.54,13.31,7.7Zm-13.92-24.15,6.65-3.84V142.6Zm-21.17-4.46,0-7.65h6.88l0,0h0v0h6.27Zm28.21-19.73v7.61l-13.19-7.61Zm14-16.74v-7.7h13.31Zm-.33,0L189,82.42h13.31ZM182.58,71.9l-1-1.8,6.65-3.85v15.4Zm-22.2-6.26,0-7.65h6.88l0,0h0v0h6.27Zm6.8-8-6.59-3.81,13.19-7.61Zm-7.08-4.09-13.19-7.61H160.1Zm-16.71-3.06-4.12,7.14h0l-6.6-3.81,13.2-7.61Zm-11.21,3.06L119,45.91h13.19Zm-.17.28-6.59,3.81-6.6-11.42ZM131.79,58v7.69L118.48,58ZM104,65.64,104,58h6.88l0,0h0v0h6.27Zm6.8-8-6.59-3.81,13.19-7.61Zm-7.08-4.09L90.5,45.91h13.19Zm-15.1-5.86L82.86,57.6h0l-6.6-3.81,13.2-7.61Zm-6.31,10H76.09V54.09Zm-6.51-4.14L62.58,45.91H75.77Zm-.17.28L69,57.61l-6.6-11.42Zm.17.29v3.57H69.58ZM83,58h6L75.71,65.68V58ZM68.56,69.82,61.91,58.27,75.22,66Zm.11.83,6.59,11.44H61.74L68.5,70.37ZM61.5,82.09l0-.06.12.06Zm-13.9,0,4.31-7.48,2.45-4.24,6.76,11.72ZM40.21,94.25,33.56,90.4l13.31-7.69Zm7.4,12.61H60.79l-13.18,7.61Zm28,7.9L69,118.56l-6.6-11.42Zm.17.28v3.57H69.58Zm7.23,3.9h6l-13.31,7.7v-7.7ZM68.56,130.77l-6.65-11.55,13.31,7.7Zm2.94,5.75,3.76,6.53H61.74l6.76-11.73Zm-10,6.53,0-.07.12.07Zm-13.9,0,4.92-8.53,1.84-3.2,6.76,11.73ZM40.21,155.2l-6.65-3.84,13.31-7.7Zm-6.67,12.23,6.73-11.67,6.89,11.72H33.57Zm20.82-11.67,6.76,11.72H47.72Zm21.24,20L69,179.52l-6.6-11.43Zm.17.28v3.57H69.58Zm7.23,3.9h6l-13.31,7.7v-7.7ZM68.56,191.72l-6.65-11.54,13.31,7.69Zm2.63,5.21L75.26,204H61.74l6.76-11.73ZM54.42,216.16l-1.06-1.84-5.6-9.71,13.32,7.7ZM61.24,212l-13.31-7.69H61.24Zm.26-8,0-.07.12.07Zm-13.9,0,4.31-7.48,2.45-4.25L61.12,204Zm-7.39,12.16-6.65-3.85,13.31-7.7Zm21-3.57V228l-6.66-11.55Zm.38-.57v-7.69H74.94Zm27.85.57V228l-6.65-11.55Zm21.36,3.57-6.66-11.55,13.32,7.7ZM118,212v-7.69h13.32Zm27.85.57V228l-6.65-11.55Zm28.18,0V228l-6.66-11.55Zm.38-.57v-7.69h13.32Zm21,4.14-6.65-11.55,13.31,7.7ZM216.26,204H202.74l6.76-11.73Zm-13.8-.16-6.76-11.73h13.52Zm-.29.16H188.65l6.76-11.73Zm-7-12-6.66,11.54V188.16Zm-13.81-.29-6.65-11.54L188,187.87ZM174,179.56h-6.47l6.79-11.75h.37l6.79,11.75H174Zm7.82-.05h0L179.2,175l-4-6.88,13.19,7.62-6.59,3.81Zm7.09-11.7H202.1l-13.19,7.62Zm13.89-.33,0,0,6.73-11.67,6.89,11.72Zm7-11.89h13.52l-6.64,11.73Zm0-.33,6.76-11.72,6.76,11.72Zm-7.17-4.19v-7.69h13.31Zm-.33,0L189,143.38h13.31Zm-7.1-20-6.66,11.55V127.21Zm-13.81-.28-6.65-11.55,13.31,7.7ZM174,118.61h-6.47l6.79-11.75h.37l6.79,11.75H174Zm7.82-.06h0L179.2,114l-4-6.88,13.19,7.62-6.59,3.8Zm7.09-11.69H202.1l-13.19,7.61Zm13.89-.33,0,0L209.5,94.8l6.89,11.73Zm7-11.89h13.52l-6.64,11.73Zm0-.33,6.77-11.72,6.76,11.72Zm-7-12.22,6.76-11.72,6.76,11.72Zm-.28-.16L195.7,70.21h13.52Zm-.29.16H188.65l6.76-11.72Zm-7-12-2.65,4.59-4,7V66.25Zm-13.81-.28-6.65-11.55L188,66Zm-20.95-16.3V45.91h13.18Zm-27.93,0V45.91h13.19Zm-28.48,0V45.91H117.2Zm-27.93,0V45.91H89.28ZM75.38,58v7.69L62.07,58ZM68.22,69.88H61.46v.33h6.76L61.43,82,54.64,70.21H61.4v-.33H54.64l4.25-7.36h0l2.54-4.42Zm-14.08.22L47.48,81.64l.08-15.34Zm-20.75,20v-7.7H46.7Zm6.66,4.42-6.66,11.54V90.69Zm7.23,12.32v7.61l-13.19-7.61Zm13.68.28-6.6,11.42-6.59-3.8Zm14.42,11.8v7.7l-13.31-7.7Zm-7.16,11.89H61.46v.33h6.76l-6.79,11.77-6.79-11.77H61.4v-.33H54.64l4.25-7.36h0l2.54-4.41Zm-14.08.22-6.66,11.54.08-15.34Zm-20.75,20v-7.69H46.7Zm6.66,4.42L33.39,167V151.64Zm7.56,12.32H60.79l-13.18,7.62Zm13.35.28-6.6,11.43-6.59-3.81Zm14.42,11.8v7.7l-13.31-7.7Zm-7.16,11.89H61.46v.33h6.76l-6.79,11.77-6.79-11.77H61.4v-.33H54.64l4.25-7.36h0L61.43,180ZM54.14,192l-6.66,11.54.08-15.35ZM33.39,212v-7.69H46.7Zm6.66,4.42L33.39,228v-15.4Zm-6.48,12,0-.06,6.73-11.67,6.89,11.73Zm20.79-11.73,6.76,11.73H47.72ZM90,228.44l0-.06,6.73-11.67,6.89,11.73Zm20.79-11.73,6.76,11.73h-13.4Zm.22-.27,6.66-3.85V228l-5.6-9.71Zm35.4,12,0-.06,6.73-11.67L160,228.44Zm20.79-11.73,6.76,11.73h-13.4Zm28.46-.27,6.65-3.85V228l-2.83-4.92Zm7.16,12,0-.06,6.73-11.67,6.89,11.73Zm20.79-11.73,6.76,11.73H217Zm.06-.55-2.54-4.4L217,204.61l13.32,7.7Zm-14.43-24.38H195.7l3.52-6.11,3.24-5.61,3.58,6.21Zm-13.87-.06-6.65-3.85L202,180.18Zm-20.46-11.83H188.2v7.7Zm7.51-.33,6.19-3.57v3.57Zm6.51-3.57,6.19,3.57h-6.19Zm27.6-8.18v7.62l-13.19-7.62Zm.44-.33,6.64-11.72,6.76,11.72Zm6.7-12.28L217,143.66l13.32,7.7Zm-7.39-12.15H202.74l6.76-11.73Zm-13.8-.17-6.76-11.72h13.52Zm-.29.17H188.65l6.76-11.73Zm-27.28-24.11H188.2v7.7Zm7.51-.33,6.19-3.57v3.57Zm6.51-3.57,6.19,3.57h-6.19Zm27.6-8.18v7.61l-13.19-7.61Zm.44-.33,6.64-11.72,6.76,11.72Zm6.7-12.28-.05-.09L217,82.71l13.32,7.69ZM209.22,69.88H195.7l3.52-6.12,3.24-5.61L206,64.37Zm-13.87-.06L188.7,66,202,58.27ZM174.89,58H188.2v7.69Zm7.51-.33,6.19-3.57v3.57Zm6.51-3.57,6.19,3.57h-6.19Zm27.6-8.18v7.61l-13.19-7.61Zm-168.9,0H60.79L47.61,53.52ZM61,46.19l-6.6,11.42L47.77,53.8Zm-13.68-.28v7.61L34.09,45.91ZM53.8,57.66H47.61V54.09Zm7.7-11.75h.37l2.27,3.93,4.52,7.82H54.71ZM54.3,69.82,47.64,66,61,58.27ZM47.15,81.65l-5.64-9.78-1-1.77,6.73-3.89ZM40,69.88H26.47l6.76-11.73Zm0,.33L33.23,81.93,26.47,70.21Zm.28.16L47,82.09H33.51ZM33.06,90.12l-13.31-7.7H33.06Zm-.16.28-6.66,3.85L19.59,82.71Zm.16.29v15.39L26.41,94.54Zm14.06,24.07-6.6,3.8-6.59-11.42Zm6.68,3.85H47.61V115Zm7.7-11.75h.37l1.66,2.87,5.13,8.88H54.71ZM58.6,123.3h0l-2,3.47-2.3,4-6.66-3.85L61,119.22ZM47.15,142.6,40.5,131.05l6.73-3.89Zm-6.88-11.28L47,143.05H33.51Zm-7,11.56-6.76-11.72H40Zm-.17,8.19-13.31-7.69H33.06Zm-.16.29-6.66,3.84-6.65-11.54Zm.16.28V167l-6.65-11.54Zm14.22,16.17v7.62l-13.19-7.62Zm6.52,11.75H47.61V176Zm7.7-11.75h.37l1.33,2.29,5.46,9.46H54.71Zm-7.2,23.91-6.66-3.85L61,180.18Zm-7.15,11.84L40.5,192l6.73-3.9ZM40,191.78H26.47l6.76-11.72Zm0,.33-6.76,11.73-6.76-11.73Zm.28.16L47,204H33.51ZM33.06,212l-13.31-7.69H33.06Zm-.16.29-6.66,3.85-6.65-11.55Zm.16.28V228l-6.65-11.55Zm28.56,0,6.66,3.85L61.62,228Zm56.41,0,6.66,3.85L118,228Zm56.41,0,6.66,3.85L174.44,228Zm49.37,3.85,6.66-3.85V228Zm6.66-4.42-13.31-7.69h13.31Zm-14.09-8.46L209.73,192l6.73-3.9Zm-27.85-16v-7.7h13.31Zm14.62-19.5,13.2,7.62-6.6,3.81Zm13.68-.28H230l-13.19,7.62Zm7-12.32,6.66-3.85V167Zm6.66-4.42-13.31-7.69h13.31Zm-14.09-8.47-6.65-11.55,6.73-3.89Zm-7.16-11.77H195.7l3.76-6.53,3-5.2,3.39,5.88Zm-20.69-4.19v-7.7h13.31Zm14.62-19.5,13.2,7.62-6.6,3.8Zm13.68-.28H230l-13.19,7.61Zm7-12.32,6.66-3.85v15.39Zm6.66-4.42-13.31-7.7h13.31Zm-14.09-8.47-4.33-7.52-2.32-4,6.73-3.89Zm-27.85-16V58h13.31Zm14.62-19.49,13.2,7.61-6.6,3.81Zm13.68-.28H230l-13.19,7.61Zm.12-.33,6.64-11.72,6.76,11.72Zm-.28-.17-6.88-11.72h13.52Zm-6.88-12,6.76-11.72,6.76,11.72Zm6.6,12.22H202.8l0-.06,6.73-11.67Zm-27.36,0,6.39-11.72,6.75,11.72Zm-.29-.17-7.12-11.72h13.52Zm-7.13-12,6.76-11.72,6.76,11.72Zm-.28.49,7.13,11.73h-13.9Zm-7.39,11.73h-13.4l6.64-11.72Zm-13.68-.17-6.88-11.72H166.9Zm-.28.17H146.39l0-.06,6.73-11.67Zm-27.36,0L139,33.86l6.75,11.72Zm-.29-.17-7.12-11.72h13.52Zm-7.13-12L132,21.64l6.76,11.72Zm-.28.49,7.13,11.73h-13.9ZM104.13,45.58l6.64-11.72,6.76,11.72ZM97,33.36l6.76-11.72,6.76,11.72ZM76.21,45.58,82.6,33.86l6.75,11.72Zm-.29-.17L68.8,33.69H82.32Zm-.28.17H61.74l6.77-11.73Zm-27.92,0,6.64-11.72,6.76,11.72ZM40.56,33.36l6.76-11.72,6.76,11.72ZM47.12,53.8l-6.6,3.81L33.93,46.19Zm.16.29v3.57H41.09Zm7.2,3.9,0,0h0v0h6.27L47.56,65.64l0-7.65ZM40.33,69.82,33.68,58.27,47,66ZM32.94,82.09H19.42l6.76-11.72Zm14.34,33v3.57H41.09Zm7.2,3.9,0,0h0v0h6.27l-13.23,7.65,0-7.65ZM40,130.83H26.47l6.76-11.73Zm-7.05,12.22H19.42l6.76-11.73Zm14.18,32.66-6.6,3.81-6.59-11.43Zm.16.28v3.57H41.09Zm7.2,3.9,0,0h0v0h6.27l-13.23,7.65,0-7.65ZM40.33,191.72l-6.65-11.54L47,187.87ZM32.94,204H19.42l6.76-11.73Zm14.34,24.76v7.62l-13.19-7.62ZM68.51,216.7l7.13,11.74H61.74Zm14.09,0,6.75,11.72H76.21Zm-6.83,12v7.62l-13.19-7.62Zm.32,0H89.28l-13.19,7.62Zm27.6,0v7.62L90.5,228.76Zm21.23-12.06,7.13,11.74h-13.9Zm14.09,0,6.75,11.72H132.62Zm-6.83,12v7.62L119,228.76Zm.32,0h13.19l-13.19,7.62Zm27.6,0v7.62l-13.19-7.62Zm21.23-12.06,7.13,11.74h-13.9Zm14.09,0,6.75,11.72H189Zm-6.83,12v7.62l-13.19-7.62Zm.32,0H202.1l-13.19,7.62Zm27.6,0v7.62l-13.19-7.62ZM230.85,212v-7.69h13.32Zm.12-8,6.76-11.73L244.49,204Zm-.24,0,0-.07.12.07Zm-13.9,0,1.91-3.31,4.85-8.42L230.35,204Zm6.54-12-6.66,11.54.08-15.35Zm-13.81-.29-6.66-11.54,13.32,7.69Zm-7-12.16-.09-.16-.1.16H196L202.71,168l1.93,3.34,4.76,8.25h-6.85Zm14-3.57v3.57h-6.19Zm13.68-7.9-6.6,11.43L217,175.71Zm.66-17v-7.69h13.32Zm.12-8,6.76-11.73,6.76,11.73Zm-.24,0,0-.07.12.07Zm-13.9,0,2.12-3.67,4.64-8.06,6.76,11.73Zm6.54-12-6.66,11.54.08-15.34Zm-13.81-.28-2.5-4.34-4.16-7.21,13.32,7.7Zm-7-12.16-.09-.16-.1.16H196L202.71,107l6.69,11.59h-6.85Zm14-3.57v3.57h-6.19Zm13.68-7.9-6.6,11.42-6.59-3.8Zm.66-17v-7.7h13.32Zm.12-8,6.76-11.72,6.76,11.72Zm-.24,0,0-.06.12.06Zm-13.9,0,1.91-3.3,4.85-8.42,6.76,11.72Zm6.54-12-6.66,11.54.08-15.34Zm-13.81-.28L202.9,58.27,216.22,66Zm-7-12.16-.09-.16-.1.16H196l6.69-11.59,5,8.61,1.71,3h-6.85Zm14-3.57v3.57h-6.19Zm13.68-7.9-6.6,11.42L217,53.8ZM82.31,33.36H68.79l6.76-11.72ZM19.68,45.91H32.87L19.68,53.52ZM33,46.19l-.86,1.47L26.45,57.6h0l-6.6-3.81ZM40.36,58v0h0l0,0h6.87l0,7.74L33.84,58ZM19.68,106.86H32.87l-13.19,7.61Zm13.36.28L32,109l-5.51,9.54h0l-6.6-3.8ZM40.37,119l0,0h6.87l0,7.74-13.39-7.74h6.52v0ZM19.68,167.81H32.87l-13.19,7.62Zm13.36.28-6.59,11.42h0l-6.6-3.81Zm7.32,11.8v0l0,0h6.87l0,7.74-13.39-7.74ZM19.68,228.76H32.87l-13.19,7.62ZM33,229l-1.13,2-5.46,9.47h0l-6.6-3.81Zm14.57-.28H60.79l-13.18,7.62Zm28,7.9L69,240.47,62.41,229ZM89.45,229l-1.13,2-5.46,9.47h0l-6.6-3.81Zm.89,0,13.19,7.62-6.6,3.81Zm13.68-.28H117.2L104,236.38Zm28,7.9-6.59,3.81L118.82,229ZM145.86,229l-2.59,4.48-4,6.94h0l-6.6-3.81Zm.88,0,13.2,7.62-6.6,3.81Zm13.69-.28h13.18l-13.18,7.62Zm41.84.28-2.59,4.48-4,6.94h0l-6.6-3.81Zm.88,0,13.2,7.62-6.6,3.81Zm13.68-.28H230l-13.19,7.62Zm20.62-37h-6.76v.33h6.76l-6.79,11.77-6.79-11.77h6.76v-.33h-6.76l4.25-7.36h0l2.54-4.41,5.75,10Zm-9.62-7.52h0l-3.27,5.68-1,1.78-6.66-3.85,13.32-7.69Zm-24.76-4.37h6.52v0l0,0h6.87l0,7.74Zm13.76-3.9,6.19,3.57h-6.19Zm20.62-45.16h-6.76v.33h6.76l-6.79,11.77-6.79-11.77h6.76v-.33h-6.76l4.25-7.36h0l2.54-4.41,5.79,10Zm-9.62-7.53h0L224,130l-.47.82-6.66-3.85,13.32-7.7Zm-24.76-4.36h6.52v0h0l0,0h6.87l0,7.74Zm13.76-3.9,6.19,3.57h-6.19Zm20.62-45.16h-6.76v.33h6.76L230.66,82l-6.79-11.77h6.76v-.33h-6.76l4.25-7.36h0l2.54-4.42,3.51,6.09Zm-9.62-7.53h0L225,67.29l-1.46,2.53L216.87,66l13.32-7.7ZM203.07,58h6.52v0h0l0,0h6.87l0,7.74Zm13.76-3.9L223,57.66h-6.19Zm13.64-9-6.66-11.54,6.66-3.85ZM209.28,33.59,206,39.2l-3.42,5.93V29.74Zm-7,11.54-3.07-5.32-3.58-6.22,6.65-3.85ZM181.1,33.59l-6.66,11.54V29.74Zm-7,11.54L167.4,33.59l6.66-3.85ZM152.87,33.59l-6.66,11.54V29.74Zm-7,11.54-6.65-11.54,6.65-3.85ZM124.69,33.59,118,45.13V29.74Zm-7,11.54-3.32-5.75L111,33.59l6.66-3.85ZM96.46,33.59,89.8,45.13V29.74Zm-7,11.54L82.82,33.59l6.65-3.85ZM68.28,33.59,61.62,45.13V29.74Zm-7,11.54L54.58,33.59l6.66-3.85ZM40.05,33.59,33.39,45.13V29.74Zm-7,11.54L26.41,33.59l6.65-3.85Zm-21-11.28,7.13,11.73H5.33Zm14.09,0,6.75,11.72H19.8Zm-6.83,12v7.61L6.17,45.91Zm6.51,11.75H19.68V54.09Zm7.61-11.59,2.91,5,3.78,6.56H33.32l-.09-.16-.1.16H26.79ZM26.12,69.82,19.47,66l13.31-7.7ZM26,70.1l-2.32,4L19.3,81.65V66.25ZM12.1,94.8l7.13,11.73H5.33Zm14.09,0,6.75,11.72H19.8Zm-6.83,12v7.61L6.17,106.86Zm6.51,11.75H19.68V115ZM33.48,107l6.69,11.59H33.32l-.09-.16-.1.16H26.79Zm-4.86,19.41-2.5,4.34-6.65-3.85,13.31-7.7ZM26,131.05,19.3,142.6V127.21ZM12.1,155.75l7.13,11.73H5.33Zm14.09,0,6.75,11.71H19.8Zm-6.83,12v7.62L6.17,167.81Zm6.51,11.75H19.68V176ZM33.48,168l.66,1.14,6,10.45H33.32l-.09-.16-.1.16H26.79Zm-7.36,23.75-6.65-3.85,13.31-7.69ZM26,192,19.3,203.55V188.16Zm-6.82,12.48,6.76,11.73H12.38l1.07-1.87Zm6.77,12.06-6.4,11.72-7.12-11.72Zm-13.81.15,7.13,11.74H5.33Zm14.09,0,6.75,11.72H19.8Zm-6.83,12v7.62L6.17,228.76Zm6.51,11.76H19.68v-3.58Zm21.41-3.58v3.58H41.09ZM61,229l-6.6,11.43-6.59-3.81Zm15.13,7.9,6.19,3.58H76.09Zm27.6,0v3.58H97.5Zm13.68-7.9-6.6,11.43-6.59-3.81Zm15.13,7.9,6.19,3.58H132.5Zm27.6,0v3.58h-6.19Zm13.68-7.9-6.6,11.43-6.59-3.81Zm15.13,7.9,6.19,3.58h-6.19Zm27.6,0v3.58h-6.19Zm13.68-7.9-6.6,11.43L217,236.66Zm.66-1v-15.4l6.66,3.85-1.06,1.84ZM242,199,238,192l6.65-3.85v15.39Zm-25.23-11.5,0-7.65h6.88l0,0h0v0H230ZM230.85,167V151.64l6.66,3.85-2.14,3.72Zm9.31-32.16-2.2-3.82,6.65-3.84V142.6Zm-23.37-8.28,0-7.65h6.88l0,0h0v0H230Zm14.06-20.51V90.69l6.66,3.85-3.38,5.87Zm11.12-29-4-7,6.65-3.85v15.4ZM216.79,65.64l0-7.65h6.88l0,0h0v0H230Zm14.06-20.51V29.74l6.66,3.85-3.34,5.79Zm6.82-11.83L231,29.45l13.31-7.69Zm-14,0L217,21.76l13.32,7.69Zm-14.21,0-6.65-3.85,13.31-7.69Zm-14,0-6.65-11.54,13.31,7.69Zm-14.21,0-6.65-3.85,13.31-7.69Zm-14,0-6.66-11.54,13.32,7.69ZM153,33.3l-6.65-3.85,13.31-7.69Zm-14,0-6.65-11.54,13.31,7.69Zm-14.21,0-6.65-3.85,13.31-7.69Zm-14,0-6.66-11.54,13.32,7.69Zm-14.21,0L90,29.45l13.31-7.69Zm-14,0L76,21.76l13.31,7.69Zm-14-.38-.23.38-6.65-3.85L75.1,21.76Zm-14.25.38L47.76,21.76l13.32,7.69Zm-14.21,0-6.65-3.85,13.31-7.69Zm-14,0L19.59,21.76,32.9,29.45Zm-11-5.55L12,33.3,5.38,29.45l13.31-7.69Zm-3.37,5.84L5.21,45.13V29.74ZM19.19,53.8,12.6,57.61,6,46.19Zm.17.29v3.57H13.17ZM26.59,58h6L19.3,65.68V58ZM15.48,88.28l-3.45,6L5.38,90.4l13.31-7.69Zm-3.61,6.26L5.21,106.08V90.69Zm7.32,20.22-6.59,3.8L6,107.14Zm.17.28v3.57H13.17Zm7.23,3.9h6l-13.31,7.7v-7.7ZM12.15,130.77,5.5,119.22l13.31,7.7ZM19,127.21V142.6l-6.65-11.55Zm-4.91,24.48-2,3.51-6.65-3.84,13.31-7.7Zm-2.19,3.8L5.21,167V151.64Zm7.32,20.22-6.59,3.81L6,168.09Zm.17.28v3.57H13.17Zm7.23,3.9h6l-13.31,7.7v-7.7Zm-10.35,29L12,216.16l-6.65-3.85,13.31-7.7Zm-4.37,7.57L5.21,228v-15.4Zm7.32,20.22-6.59,3.81L6,229Zm.17.28v3.58H13.17Zm7.23,3.9h6l-13.31,7.7v-7.7Zm7.25,0h6.52v0h0l0,0h6.87l0,7.75Zm13.77-3.9,6.19,3.58H47.61Zm13.89-8.18h.37l2.07,3.58,4.72,8.18H54.71Zm.57,12.08H75.38v7.7Zm13.64,0H89l-13.31,7.7Zm14.54,0h6.52v0h0l0,0h6.87l0,7.75Zm13.77-3.9,6.19,3.58H104Zm13.89-8.18h.37l2.07,3.58,4.72,8.18H111.12Zm.57,12.08h13.31v7.7Zm13.64,0h13.31l-13.31,7.7Zm14.54,0h6.52v0h0l0,0h6.87l0,7.75Zm13.77-3.9,6.19,3.58h-6.19Zm13.89-8.18h.37l6.79,11.76H167.53Zm.57,12.08H188.2v7.7Zm13.64,0h13.31l-13.31,7.7Zm14.54,0h6.52v0h0l0,0h6.87l0,7.75Zm13.76-3.9,6.19,3.58h-6.19Zm28.49,0,6.19,3.58h-6.19Zm-.32,3.58h-6.19l6.19-3.58Zm-13.19-11.76H245v7.62Zm10.42-19.85,2.55-4.42,6.76,11.73H238Zm2.71-5.36V188.16L251.6,192Zm-7.15-11.83-6.65-11.54,13.31,7.69Zm-7.38-12.16h-6.47l6.79-11.75h.37l6.79,11.75h-7.48ZM245.32,176l6.19,3.57h-6.19Zm-.32,3.57h-6.19L245,176Zm-13.19-11.75H245v7.62Zm9.39-18.06,3.58-6.21,6.76,11.72H238Zm3.74-7.15V127.21l6.66,3.84Zm-7.15-11.83-6.65-11.55,13.31,7.7Zm-7.38-12.16h-6.47l6.79-11.75h.37l6.79,11.75h-7.48ZM245.32,115l6.19,3.57h-6.19Zm-.32,3.57h-6.19L245,115Zm-13.19-11.75H245v7.61Zm9.63-18.48,3.34-5.79,6.76,11.72H238Zm-3.65-18.56-6.65-11.55L244.45,66Zm-7.38-12.16h-6.47l6.79-11.75h.37l6.79,11.75h-7.48Zm14.91-3.57,6.19,3.57h-6.19ZM245,57.66h-6.19L245,54.09ZM231.81,45.91H245v7.61Zm8.23-16,4.74-8.22,6.76,11.72H238Zm4.9-9.17V5.3l6.66,3.85Zm-.33,0-3.41-5.92L238,9.15l6.65-3.85Zm-13.76,8.48v-7.7h13.32Zm-.38,0-13.31-7.7h13.31ZM219.86,15.23l-3.15,5.46.08-15.34,6.58,3.8Zm-3.48,5.47L209.73,9.15l6.73-3.89Zm-13.76,8.47v-7.7h13.31Zm-.33,0L189,21.47h13.31Zm-13.76-8.48V5.3l6.66,3.85Zm-.33,0L181.55,9.15,188.2,5.3Zm-13.76,8.48v-7.7h13.32Zm-.38,0-13.31-7.7h13.31ZM161.5,18.61l-1.2,2.08.08-15.34L167,9.15ZM160,20.7l-3.42-5.94-3.23-5.61,6.73-3.89Zm-13.76,8.47v-7.7h13.31Zm-.33,0-13.31-7.7h13.31Zm-13.76-8.48V5.3l6.66,3.85Zm-.33,0L125.14,9.15l6.65-3.85ZM118,29.17v-7.7h13.32Zm-.38,0-13.31-7.7h13.31ZM105.44,18l-1.55,2.69L104,5.35l6.58,3.8Zm-1.88,2.7L96.91,9.15l6.73-3.89ZM89.8,29.17v-7.7h13.31Zm-.33,0-13.31-7.7H89.47ZM75.71,20.69V5.3l6.66,3.85Zm-.33,0L68.79,9.26l-.06-.11L75.38,5.3ZM61.62,29.17v-7.7H74.94Zm-.38,0-13.31-7.7H61.24ZM49,18l-1.55,2.69.08-15.34,6.58,3.8Zm-1.88,2.7L40.5,9.15l6.73-3.89ZM33.39,29.17v-7.7H46.7Zm-.33,0-13.31-7.7H33.06ZM19.3,20.69V5.3L26,9.15Zm-.33,0L12.32,9.15,19,5.3ZM5.21,29.17v-7.7H18.53ZM19,58v7.69L5.66,58ZM12.32,70.1,19,66.25v15.4L13.35,71.9Zm-7.11,20v-7.7H18.53ZM19,118.94v7.7l-13.31-7.7ZM5.21,151.07v-7.69H18.53ZM19,179.89v7.7l-13.31-7.7ZM12.32,192,19,188.16v15.39l-5.6-9.72ZM5.21,212v-7.69H18.53ZM19,240.84v7.7l-13.31-7.7Zm-13.47.29,13.31,7.69-6.66,3.85Zm27.28,0-6.66,11.54-6.65-3.85Zm.9,0L47,248.82l-6.66,3.85Zm13.92-.29h6.88l0,0h0v0h6.27l-13.23,7.65Zm14.31.29,13.31,7.69-6.66,3.85Zm27.28,0-6.66,11.54-6.65-3.85Zm.9,0,13.31,7.69-6.66,3.85Zm13.92-.29h6.88l0,0h0v0h6.27L104,248.49Zm14.31.29,13.31,7.69L125,252.67Zm27.28,0-6.66,11.54-6.65-3.85Zm.9,0,13.31,7.69-6.66,3.85Zm13.92-.29h6.88l0,0h0v0h6.27l-13.23,7.65Zm14.31.29L188,248.82l-6.66,3.85Zm27.28,0-6.66,11.54-6.65-3.85Zm.89,0,13.32,7.69-6.66,3.85Zm13.93-.29h6.88l0,0h0v0H230l-13.23,7.65Zm14.31.29,13.31,7.69-6.66,3.85Zm13.47,7.41-13.31-7.7h13.31ZM231,228.44l6.77-11.74,7.13,11.74Zm14.18-.17L238,216.55h13.52Zm-.54-40.68-13.31-7.7h13.31ZM231,167.48l6.77-11.73,7.13,11.73Zm14.18-.16L238,155.59h13.52Zm-.54-40.68-13.31-7.7h13.31ZM231,106.53l6.77-11.73,7.13,11.73Zm14.18-.16L238,94.64h13.52Zm-.54-40.69L231.3,58h13.31ZM231,45.58l6.77-11.73,7.13,11.73Zm14.18-.17L238,33.69h13.52Zm-7.42-36,6.76,11.72H231Zm-6.92,11.72h-.08l0-.07Zm-.46,0H216.83l6.76-11.72Zm-14.09,0H202.74L209.5,9.42ZM202.46,21,195.7,9.25h13.52Zm-.29.16H188.65l6.76-11.72ZM181.32,9.42l6.76,11.72H174.56ZM174.4,21.14h-.08l0-.07Zm-.46,0H160.42l6.76-11.72Zm-14.09,0H146.33l6.76-11.72ZM146.05,21,139.29,9.25h13.52Zm-.29.16H132.24L139,9.42ZM124.91,9.42l6.76,11.72H118.15ZM118,21.14h-.08l0-.07Zm-.46,0H104l6.76-11.72Zm-14.09,0H89.92L96.68,9.42Zm-7-11.89L89.64,21,82.88,9.25ZM89.35,21.14H75.83L82.59,9.42ZM68.5,9.42l6.76,11.72H61.74ZM61.58,21.14H61.5l0-.07Zm-.46,0H47.6L54.36,9.42ZM47,21.14H33.51L40.27,9.42ZM40,9.25,33.23,21,26.47,9.25ZM32.94,21.14H19.42L26.18,9.42ZM12.09,9.42,13,11l5.86,10.16H5.33ZM5.17,21.14H5.09l0-.07Zm6.92,49.23,3.15,5.45,3.61,6.27H5.33ZM5.17,82.09H5.09l0-.06Zm6.92,49.23,4.15,7.19,2.61,4.54H5.33ZM5.17,143.05H5.09l0-.07Zm6.92,49.22L16,199.09,18.85,204H5.33ZM5.17,204H5.09l0-.07Zm21.3,48.73L33.23,241,40,252.73Zm32.13-7.52-4.3,7.46-6.66-3.85L61,241.13l-2.36,4.08Zm24.28,7.52L89.64,241l6.76,11.72ZM115,245.21l-4.3,7.46-6.66-3.85,13.32-7.69L115,245.21Zm24.28,7.52L146.05,241l6.76,11.72Zm32.13-7.52-4.3,7.46-6.66-3.85,13.32-7.69-2.36,4.08Zm24.28,7.52,1.1-1.91,5.66-9.81,5.75,10,1,1.74Zm32.13-7.52-4.3,7.46-6.66-3.85,13.32-7.69-2.36,4.08Z"/></g></svg>