<svg xmlns="http://www.w3.org/2000/svg" viewBox="0 0 256 256"><defs><style>.cls-1{fill:#a6a6a6;}</style></defs><title>seamless_pattern01</title><g id="seamless_pattern01"><path class="cls-1" d="M256,6.79V6.65L247.49,2.4V0h-.12V2.4L236.09,8.05l-.62-.38V0h-.13V7.67l-.61.38L223.45,2.4V0h-.13V2.4L212.05,8.05l-.63-.38V0h-.12V7.67l-.62.38L199.4,2.4V0h-.12V2.4L188,8.05l-.63-.38V0h-.12V7.67l-.62.38L175.36,2.4V0h-.12V2.4L164,8.05l-.62-.38V0h-.13V7.67l-.62.38L151.31,2.4V0h-.12V2.4L139.92,8.05l-.63-.38V0h-.12V7.67l-.62.38L127.27,2.4V0h-.12V2.4L115.87,8.05l-.62-.38V0h-.12V7.67l-.62.38L103.23,2.4V0h-.13V2.4L91.83,8.05l-.63-.38V0h-.12V7.67l-.62.38L79.18,2.4V0h-.12V2.4L67.79,8.05l-.63-.38V0H67V7.67l-.62.38L55.14,2.4V0H55V2.4L43.74,8.05l-.62-.38V0H43V7.67l-.62.38L31.09,2.4V0H31V2.4L19.7,8.05l-.63-.38V0H19V7.67l-.62.38L7.05,2.4V0H6.93V2.4L0,5.87V6l7-3.5L18.28,8.16v.6L7,14.41l-7-3.5v.14l6.93,3.46v11.2l-.62.37L0,22.92v.14L6.26,26.2v.59L0,29.92v.14l6.32-3.17.61.39V38.47L0,41.94v.14l7-3.5,11.29,5.65v.6L7,50.48,0,47v.13l6.93,3.47v11.2l-.62.37L0,59v.14l6.26,3.14v.59L0,66v.14L6.32,63l.61.39V74.54L0,78v.13l7-3.49L18.28,80.3v.6L7,86.54,0,83.05v.13l6.93,3.47V97.84l-.62.38L0,95.06v.14l6.26,3.13v.6L0,102.06v.14L6.32,99l.61.38v11.2L0,114.08v.13l7-3.5,11.29,5.66v.6L7,122.61l-7-3.5v.14l6.93,3.47v11.19l-.62.38L0,131.13v.14l6.26,3.13v.6L0,138.13v.14l6.32-3.17.61.38v11.2L0,150.14v.14l7-3.5,11.29,5.66V153L7,158.68l-7-3.5v.14l6.93,3.47V170l-.62.38L0,167.2v.14l6.26,3.13v.6L0,174.2v.13l6.32-3.16.61.38v11.2L0,186.21v.14l7-3.5,11.29,5.66v.59L7,194.75l-7-3.5v.14l6.93,3.47v11.19l-.62.38L0,203.27v.13l6.26,3.14v.6L0,210.27v.13l6.32-3.16.61.38v11.19L0,222.28v.14l7-3.5,11.29,5.65v.6L7,230.82l-7-3.5v.14l6.93,3.47v11.19l-.62.37L0,239.34v.13l6.26,3.14v.6L0,246.33v.14l6.32-3.16.61.38v11.19L4.69,256H5l2-1,2,1h.27l-2.23-1.12V243.69l.6-.39L19,249v7h.12v-7l11.29-5.65.61.38v11.19L28.74,256H29l2-1,2,1h.28l-2.24-1.12V243.69l.61-.39L43,249v7h.13v-7l11.29-5.65.61.38v11.19L52.78,256h.28l2-1,2,1h.27l-2.23-1.12V243.69l.6-.39L67,249v7h.12v-7l11.29-5.65.61.38v11.19L76.83,256h.27l2-1,2,1h.28l-2.24-1.12V243.69l.6-.39L91.08,249v7h.12v-7l11.3-5.65.6.38v11.19L100.87,256h.27l2-1,2,1h.27l-2.23-1.12V243.69l.6-.39,11.3,5.66v7h.12v-7l11.29-5.65.61.38v11.19L124.91,256h.28l2-1,2,1h.27l-2.23-1.12V243.69l.6-.39,11.3,5.66v7h.12v-7l11.29-5.65.61.38v11.19L149,256h.27l2-1,2,1h.28l-2.24-1.12V243.69l.61-.39L163.21,249v7h.13v-7l11.29-5.65.61.38v11.19L173,256h.28l2-1,2,1h.27l-2.23-1.12V243.69l.6-.39,11.3,5.66v7h.12v-7l11.29-5.65.61.38v11.19L197.05,256h.27l2-1,2,1h.27l-2.23-1.12V243.69l.6-.39L211.3,249v7h.12v-7l11.3-5.65.6.38v11.19L221.09,256h.27l2-1,2,1h.27l-2.23-1.12V243.69l.6-.39L235.34,249v7h.13v-7l11.29-5.65.61.38v11.19L245.13,256h.28l2-1,2,1h.27l-2.23-1.12V243.69l.6-.39,7.89,3.95v-.13l-7.81-3.91v-.6l7.82-3.92v-.14l-7.86,3.94-.63-.37v-11.2l8.49-4.25v-.13l-8.55,4.28-11.28-5.65v-.6l11.29-5.65L256,223.2v-.14l-8.49-4.25V207.62l.6-.38,7.89,3.95v-.14l-7.81-3.91v-.6l7.82-3.92v-.13l-7.86,3.93-.63-.37V194.86l8.49-4.25v-.14l-8.55,4.28-11.28-5.65v-.6l11.29-5.65,8.55,4.28V187l-8.49-4.25v-11.2l.6-.38,7.89,4V175l-7.81-3.91v-.6l7.82-3.92v-.13l-7.86,3.93-.63-.37V158.79l8.49-4.25v-.14l-8.55,4.28L236.15,153v-.6l11.29-5.65,8.55,4.28v-.13l-8.49-4.25v-11.2l.6-.38,7.89,4v-.14L248.17,135v-.6l7.82-3.92v-.13l-7.86,3.94-.63-.38V122.72l8.49-4.25v-.14l-8.55,4.28L236.15,117v-.61l11.29-5.65L256,115v-.14l-8.49-4.25V99.41l.6-.38,7.89,4v-.14l-7.81-3.91v-.6L256,94.42v-.14l-7.86,3.94-.63-.38V86.65L256,82.4v-.14l-8.55,4.28L236.15,80.9v-.6l11.29-5.65L256,78.93v-.14l-8.49-4.25V63.34l.6-.38L256,66.91v-.14l-7.81-3.91v-.6L256,58.35v-.14l-7.86,3.94-.63-.38V50.58L256,46.33V46.2l-8.55,4.28-11.28-5.65v-.6l11.29-5.65L256,42.86v-.14l-8.49-4.25V27.28l.6-.39L256,30.84v-.13l-7.81-3.92v-.6L256,22.28v-.14l-7.86,3.94-.63-.37V14.51L256,10.26v-.13l-8.55,4.28L236.15,8.76v-.6l11.29-5.65ZM235.41,20.54,246.7,26.2v.59l-11.28,5.65-11.28-5.65v-.6Zm-.68,167.85-11.28-5.64v-11.2l.6-.38,11.29,5.65V188Zm.61,1.2v11.19l-11.27,5.64-.62-.37V194.86l11.29-5.66Zm-24.66-1.2-11.28-5.64v-11.2l.6-.38,11.3,5.65V188Zm.62,1.2v11.19L200,206.42l-.63-.37V194.86l11.29-5.66Zm-24.66-1.2-11.28-5.64v-11.2l.6-.38,11.3,5.65V188Zm.62,1.2v11.19L176,206.42l-.62-.37V194.86l11.29-5.66Zm-24.67-1.2-11.28-5.64v-11.2l.61-.38,11.29,5.65V188Zm.62,1.2v11.19l-11.27,5.64-.63-.37V194.86l11.3-5.66Zm-24.66-1.2-11.28-5.64v-11.2l.6-.38,11.3,5.65V188Zm.62,1.2v11.19l-11.27,5.64-.63-.37V194.86l11.29-5.66Zm-24.66-1.2-11.28-5.64v-11.2l.6-.38,11.3,5.65V188Zm.62,1.2v11.19l-11.28,5.64-.62-.37V194.86l11.29-5.66Zm-24.67-1.2-11.28-5.64v-11.2l.6-.38,11.3,5.65V188Zm.62,1.2v11.19l-11.27,5.64-.63-.37V194.86l11.29-5.66Zm-24.66-1.2-11.28-5.64v-11.2l.6-.38L67,176.82V188Zm.62,1.2v11.19l-11.28,5.64-.62-.37V194.86l11.29-5.66Zm-24.67-1.2-11.28-5.64v-11.2l.61-.38L43,176.82V188Zm.62,1.2v11.19l-11.27,5.64-.63-.37V194.86l11.3-5.66ZM30.35,170.36l-11.28-5.65V153.52l.6-.39L31,158.79V170Zm.62,1.19v11.2L19.7,188.39l-.63-.38V176.82l11.29-5.65ZM31.7,63,43,68.62V79.81l-.62.38L31.09,74.54V63.34Zm-.61-1.19V50.58l11.3-5.65.6.38V56.5L31.72,62.15ZM55.74,63,67,68.62V79.81l-.62.38L55.14,74.54V63.34Zm-.6-1.19V50.58l11.29-5.65.61.38V56.5L55.76,62.15ZM79.78,63l11.3,5.66V79.81l-.62.38L79.18,74.54V63.34Zm-.6-1.19V50.58l11.29-5.65.61.38V56.5L79.81,62.15ZM103.83,63l11.3,5.66V79.81l-.62.38-11.28-5.65V63.35Zm-.6-1.19V50.58l11.29-5.65.61.38V56.5l-11.28,5.65ZM127.87,63l11.3,5.66V79.81l-.62.38-11.28-5.65V63.35Zm-.6-1.19V50.58l11.29-5.65.61.38V56.5L127.9,62.15ZM151.92,63l11.29,5.66V79.81l-.62.38-11.28-5.65V63.35Zm-.61-1.19V50.58l11.3-5.65.6.38V56.5l-11.27,5.65ZM176,63l11.3,5.66V79.81l-.62.38-11.28-5.65V63.35Zm-.6-1.19V50.58l11.29-5.65.61.38V56.5L176,62.15ZM200,63l11.3,5.66V79.81l-.62.38L199.4,74.54V63.35Zm-.6-1.19V50.58l11.29-5.65.61.38V56.5L200,62.15Zm11.28,90.55-11.28-5.64v-11.2l.6-.38,11.3,5.65V152Zm.62,1.2v11.19L200,170.35l-.63-.37V158.79l11.29-5.65Zm-24.66-1.2-11.28-5.64v-11.2l.6-.38,11.3,5.65V152Zm.62,1.2v11.19L176,170.35l-.62-.37V158.79l11.29-5.65Zm-24.67-1.2-11.28-5.64v-11.2l.61-.38,11.29,5.65V152Zm.62,1.2v11.19l-11.27,5.64-.63-.37V158.79l11.3-5.65Zm-24.66-1.2-11.28-5.64v-11.2l.6-.38,11.3,5.65V152Zm.62,1.2v11.19l-11.27,5.64-.63-.37V158.79l11.29-5.65Zm-24.66-1.2-11.28-5.64v-11.2l.6-.38,11.3,5.65V152Zm.62,1.2v11.19l-11.28,5.64-.62-.37V158.79l11.29-5.65Zm-24.67-1.2-11.28-5.64v-11.2l.6-.38,11.3,5.65V152Zm.62,1.2v11.19l-11.27,5.64-.63-.37V158.79l11.29-5.65Zm-24.66-1.2-11.28-5.64v-11.2l.6-.38L67,140.75V152Zm.62,1.2v11.19l-11.28,5.64-.62-.37V158.79l11.29-5.65Zm-24.67-1.2-11.28-5.64v-11.2l.61-.38L43,140.75V152Zm.62,1.2v11.19l-11.27,5.64-.63-.37V158.79l11.3-5.65ZM31.7,99,43,104.69v11.19l-.62.37-11.28-5.64V99.41Zm-.61-1.19V86.65L42.39,81l.6.38V92.57L31.72,98.22ZM43,117.45v11.19l-11.27,5.65-.63-.38V122.72l11.3-5.65Zm-.66-1.08,0,.6L31,122.61,19.75,117v-.61L31,110.71ZM31.77,135v-.6l11.28-5.65,11.3,5.65v.6l-11.29,5.65Zm11.35,5.75,11.29-5.65.61.38v11.2l-11.28,5.64-.62-.37Zm11.28-6.46-11.28-5.65V117.45l.6-.39L55,122.72v11.19ZM43.12,115.88V104.69L54.41,99l.61.38v11.2l-11.28,5.64ZM43.8,117v-.61l11.29-5.65,11.29,5.66v.6l-11.28,5.64ZM55.74,99,67,104.69v11.19l-.62.37-11.28-5.64V99.41Zm-.6-1.19V86.65L66.43,81l.61.38V92.57L55.76,98.22ZM67,117.45v11.19l-11.28,5.65-.62-.38V122.72l11.29-5.65ZM55.82,135v-.6l11.29-5.65,11.29,5.65v.6L67.1,140.65Zm11.34,5.75,11.29-5.65.61.38v11.2l-11.27,5.64-.63-.37Zm11.28-6.46-11.28-5.65V117.45l.6-.39,11.3,5.66v11.19ZM67.16,115.88V104.69L78.45,99l.61.38v11.2l-11.27,5.64Zm.68,1.09v-.61l11.29-5.65,11.3,5.66,0,.6-11.28,5.64ZM79.78,99l11.3,5.66v11.19l-.62.37-11.28-5.64V99.41Zm-.6-1.19V86.65L90.47,81l.61.38V92.57L79.81,98.22Zm11.9,19.61v11.19l-11.27,5.65-.63-.38V122.72l11.29-5.65ZM79.86,135v-.6l11.29-5.65,11.3,5.65v.6l-11.28,5.65Zm11.34,5.75,11.3-5.65.6.38v11.2l-11.27,5.64L91.2,152Zm11.28-6.46L91.2,128.64V117.45l.61-.39,11.29,5.66v11.19ZM91.2,115.88V104.69L102.5,99l.6.38v11.2l-11.27,5.64Zm.68,1.09v-.61l11.28-5.65,11.3,5.66v.6l-11.29,5.64Zm12-17.94,11.3,5.66v11.19l-.62.37-11.28-5.64V99.41Zm-.6-1.19V86.65L114.52,81l.61.38V92.57l-11.28,5.65Zm11.9,19.61v11.19l-11.28,5.65-.62-.38V122.72l11.29-5.65ZM103.9,135v-.6l11.29-5.65,11.29,5.65v.6l-11.28,5.65Zm11.35,5.75,11.29-5.65.61.38v11.2l-11.28,5.64-.62-.37Zm11.28-6.46-11.28-5.65V117.45l.6-.39,11.3,5.66v11.19Zm-11.28-18.41V104.69L126.54,99l.61.38v11.2l-11.28,5.64Zm.68,1.09v-.61l11.29-5.65,11.29,5.66v.6l-11.28,5.64ZM127.87,99l11.3,5.66v11.19l-.62.37-11.28-5.64V99.41Zm-.6-1.19V86.65L138.56,81l.61.38V92.57L127.9,98.22Zm11.9,19.61v11.19l-11.27,5.65-.63-.38V122.72l11.29-5.65ZM128,135v-.6l11.29-5.65,11.3,5.65v.6l-11.28,5.65Zm11.34,5.75,11.29-5.65.61.38v11.2l-11.27,5.64-.63-.37Zm11.28-6.46-11.28-5.65V117.45l.6-.39,11.3,5.66v11.19Zm-11.28-18.41V104.69L150.58,99l.61.38v11.2l-11.27,5.64ZM140,117v-.61l11.29-5.65,11.3,5.66,0,.6-11.28,5.64ZM151.92,99l11.29,5.66v11.19l-.62.37-11.28-5.64V99.41Zm-.61-1.19V86.65L162.61,81l.6.38V92.57l-11.27,5.65Zm11.9,19.61v11.19l-11.27,5.65-.63-.38V122.72l11.3-5.65ZM152,135v-.6l11.28-5.65,11.3,5.65v.6l-11.29,5.65Zm11.35,5.75,11.29-5.65.61.38v11.2L164,152.32l-.62-.37Zm11.28-6.46-11.28-5.65V117.45l.6-.39,11.3,5.66v11.19Zm-11.28-18.41V104.69L174.63,99l.61.38v11.2L164,116.25ZM164,117v-.61l11.29-5.65,11.29,5.66v.6l-11.28,5.64ZM176,99l11.3,5.66v11.19l-.62.37-11.28-5.64V99.41Zm-.6-1.19V86.65L186.65,81l.61.38V92.57L176,98.22Zm11.9,19.61v11.19L176,134.29l-.62-.38V122.72l11.29-5.65ZM176,135v-.6l11.29-5.65,11.29,5.65v.6l-11.28,5.65Zm11.34,5.75,11.29-5.65.61.38v11.2L188,152.32l-.63-.37Zm11.28-6.46-11.28-5.65V117.45l.6-.39,11.3,5.66v11.19Zm-11.28-18.41V104.69L198.67,99l.61.38v11.2L188,116.25Zm.68,1.09v-.61l11.29-5.65,11.3,5.66,0,.6-11.28,5.64ZM200,99l11.3,5.66v11.19l-.62.37-11.28-5.64V99.41Zm-.6-1.19V86.65L210.69,81l.61.38V92.57L200,98.22Zm11.9,19.61v11.19L200,134.29l-.63-.38V122.72l11.29-5.65ZM200.08,135v-.6l11.29-5.65,11.3,5.65v.6l-11.28,5.65Zm11.34,5.75,11.3-5.65.6.38v11.2l-11.27,5.64-.63-.37Zm11.28-6.46-11.28-5.65V117.45l.61-.39,11.29,5.66v11.19Zm-11.28-18.41V104.69L222.72,99l.6.38v11.2l-11.27,5.64Zm.68,1.09v-.61l11.28-5.65,11.3,5.66v.6l-11.29,5.64Zm0-36.07v-.6l11.28-5.65,11.3,5.65v.6l-11.29,5.64Zm11.22-6.36-11.27,5.64-.63-.37V68.62L222.72,63l.6.39ZM212,81l11.29,5.65V97.84l-.62.38-11.28-5.65V81.38Zm10.63,17.33v.6l-11.28,5.65-11.28-5.65v-.6l11.29-5.65Zm-12-18,0,.6-11.28,5.64L188.06,80.9v-.6l11.29-5.65Zm-11.36-5.76L188,80.18l-.63-.37V68.62L198.67,63l.61.38ZM188,81l11.3,5.65V97.84l-.62.38-11.28-5.65V81.38Zm10.63,17.33v.6l-11.28,5.65L176,98.93v-.6l11.29-5.65Zm-12-18v.6L175.3,86.54,164,80.9v-.6l11.29-5.65Zm-11.35-5.76L164,80.18l-.62-.37V68.62L174.63,63l.61.38ZM163.94,81l11.3,5.65V97.84l-.62.38-11.28-5.65V81.38Zm10.63,17.33v.6l-11.29,5.65L152,98.93v-.6l11.28-5.65Zm-12-18,0,.6-11.28,5.64L140,80.9v-.6l11.29-5.65Zm-11.36-5.76-11.27,5.64-.63-.37V68.62L150.58,63l.61.38ZM139.89,81l11.3,5.65V97.84l-.62.38-11.28-5.65V81.38Zm10.64,17.33v.6l-11.28,5.65L128,98.93v-.6l11.29-5.65Zm-12-18v.6l-11.28,5.64L115.93,80.9v-.6l11.29-5.65Zm-11.35-5.76-11.28,5.64-.62-.37V68.62L126.54,63l.61.38ZM115.85,81l11.3,5.65V97.84l-.62.38-11.28-5.65V81.38Zm10.63,17.33v.6l-11.28,5.65L103.9,98.93v-.6l11.29-5.65Zm-12-18v.6l-11.29,5.64L91.88,80.9v-.6l11.28-5.65ZM103.1,74.54,91.83,80.18l-.63-.37V68.62L102.5,63l.6.38ZM91.81,81l11.29,5.65V97.84l-.62.38L91.2,92.57V81.38Zm10.63,17.33v.6l-11.28,5.65L79.86,98.93v-.6l11.29-5.65Zm-12-18,0,.6L79.12,86.54,67.84,80.9v-.6l11.29-5.65ZM79.06,74.54,67.79,80.18l-.63-.37V68.62L78.45,63l.61.39ZM67.76,81l11.3,5.65V97.84l-.62.38L67.16,92.57V81.38ZM78.39,98.33v.6L67.1,104.58,55.82,98.93v-.6L67.1,92.68Zm-12-18v.6L55.08,86.54,43.8,80.9v-.6l11.29-5.65ZM55,74.54,43.74,80.18l-.62-.37V68.62L54.41,63l.61.39ZM43.72,81,55,86.65V97.84l-.62.38L43.12,92.57V81.38ZM54.35,98.33v.6l-11.29,5.65L31.77,98.93v-.6l11.28-5.65Zm-12-18,0,.6L31,86.54,19.75,80.9v-.6L31,74.65ZM31,74.54,19.7,80.18l-.63-.37V68.62L30.36,63l.61.39ZM19.67,81,31,86.65V97.84l-.62.38L19.07,92.57V81.38ZM30.36,99l.61.38v11.2L19.7,116.25l-.63-.37V104.69Zm-10.69,18L31,122.72v11.19l-.62.38-11.28-5.65V117.45Zm10.69,18,.61.38v11.2L19.7,152.32l-.63-.37v-11.2ZM19.75,153v-.6L31,146.78l11.3,5.66,0,.59L31,158.68Zm12,18v-.6l11.28-5.65,11.3,5.65v.6l-11.29,5.65Zm11.35,5.75,11.29-5.65.61.38v11.2l-11.28,5.64-.62-.38Zm11.28-6.46-11.28-5.65V153.52l.6-.39L55,158.79V170ZM43.8,153v-.6l11.29-5.65,11.29,5.66V153l-11.28,5.65Zm12,18v-.6l11.29-5.65,11.29,5.65v.6L67.1,176.72Zm11.34,5.75,11.29-5.65.61.38v11.2l-11.27,5.64-.63-.38Zm11.28-6.46-11.28-5.65V153.52l.6-.39,11.3,5.66V170ZM67.84,153v-.6l11.29-5.65,11.3,5.66,0,.59-11.28,5.65Zm12,18v-.6l11.29-5.65,11.3,5.65v.6l-11.28,5.65Zm11.34,5.75,11.3-5.65.6.38v11.2l-11.27,5.64L91.2,188Zm11.28-6.46L91.2,164.71V153.52l.61-.39,11.29,5.66V170ZM91.88,153v-.6l11.28-5.65,11.3,5.66V153l-11.29,5.65Zm12,18v-.6l11.29-5.65,11.29,5.65v.6l-11.28,5.65Zm11.35,5.75,11.29-5.65.61.38v11.2l-11.28,5.64-.62-.38Zm11.28-6.46-11.28-5.65V153.52l.6-.39,11.3,5.66V170ZM115.93,153v-.6l11.29-5.65,11.29,5.66V153l-11.28,5.65Zm12,18v-.6l11.29-5.65,11.3,5.65v.6l-11.28,5.65Zm11.34,5.75,11.29-5.65.61.38v11.2l-11.27,5.64-.63-.38Zm11.28-6.46-11.28-5.65V153.52l.6-.39,11.3,5.66V170ZM140,153v-.6l11.29-5.65,11.3,5.66,0,.59-11.28,5.65Zm12,18v-.6l11.28-5.65,11.3,5.65v.6l-11.29,5.65Zm11.35,5.75,11.29-5.65.61.38v11.2L164,188.39l-.62-.38Zm11.28-6.46-11.28-5.65V153.52l.6-.39,11.3,5.66V170ZM164,153v-.6l11.29-5.65,11.29,5.66V153l-11.28,5.65Zm12,18v-.6l11.29-5.65,11.29,5.65v.6l-11.28,5.65Zm11.34,5.75,11.29-5.65.61.38v11.2L188,188.39l-.63-.38Zm11.28-6.46-11.28-5.65V153.52l.6-.39,11.3,5.66V170ZM188.06,153v-.6l11.29-5.65,11.3,5.66,0,.59-11.28,5.65Zm12,18v-.6l11.29-5.65,11.3,5.65v.6l-11.28,5.65Zm11.34,5.75,11.3-5.65.6.38v11.2l-11.27,5.64-.63-.38Zm11.28-6.46-11.28-5.65V153.52l.61-.39,11.29,5.66V170ZM212.1,153v-.6l11.28-5.65,11.3,5.66V153l-11.29,5.65ZM223.45,170V158.79l11.29-5.65.6.38v11.19l-11.27,5.64Zm11.28-17.66-11.28-5.64v-11.2l.6-.38,11.29,5.65V152Zm-11.28-18.41V122.72l11.29-5.65.6.38v11.19l-11.27,5.65Zm11.28-17.66-11.28-5.64V99.41l.6-.38,11.29,5.66v11.19ZM223.45,97.84V86.65L234.74,81l.6.38V92.57l-11.27,5.65Zm11.28-17.65-11.28-5.65V63.34l.6-.38,11.29,5.66V79.81ZM223.45,61.77V50.58l11.29-5.65.6.38V56.5l-11.27,5.65Zm11.28-17.65-11.28-5.65V27.28l.6-.39,11.29,5.66V43.74Zm0,.11v.6l-11.29,5.65L212.1,44.83v-.6l11.28-5.65Zm-11.36-5.76-11.27,5.64-.63-.37V32.55l11.3-5.66.6.39ZM212,44.93l11.29,5.65v11.2l-.62.37L211.42,56.5V45.31Zm10.63,17.34v.59l-11.28,5.65-11.28-5.65v-.6l11.29-5.65ZM211.3,43.74l-.62.38L199.4,38.47V27.28l.6-.39,11.3,5.66Zm-.66.49,0,.6-11.28,5.65-11.28-5.65v-.6l11.29-5.65Zm-11.36-5.76L188,44.11l-.63-.37V32.55l11.29-5.66.61.39ZM188,44.93l11.3,5.65v11.2l-.62.37L187.38,56.5V45.31Zm10.63,17.34v.59l-11.28,5.65L176,62.86v-.6l11.29-5.65ZM187.26,43.74l-.62.38-11.28-5.65V27.28l.6-.39,11.3,5.66Zm-.67.49v.6L175.3,50.48,164,44.83v-.6l11.29-5.65Zm-11.35-5.76L164,44.11l-.62-.37V32.55l11.29-5.66.61.39Zm-11.3,6.46,11.3,5.65v11.2l-.62.37L163.34,56.5V45.31Zm10.63,17.34v.59l-11.29,5.65L152,62.86v-.6l11.28-5.65ZM163.21,43.74l-.62.38-11.28-5.65V27.28l.61-.39,11.29,5.66Zm-.66.49,0,.6-11.28,5.65L140,44.83v-.6l11.29-5.65Zm-11.36-5.76-11.27,5.64-.63-.37V32.55l11.29-5.66.61.39Zm-11.3,6.46,11.3,5.65v11.2l-.62.37L139.29,56.5V45.31Zm10.64,17.34v.59l-11.28,5.65L128,62.86v-.6l11.29-5.65ZM139.17,43.74l-.62.38-11.28-5.65V27.28l.6-.39,11.3,5.66Zm-.67.49v.6l-11.28,5.65-11.28-5.65v-.6l11.29-5.65Zm-11.35-5.76-11.28,5.64-.62-.37V32.55l11.29-5.66.61.39Zm-11.3,6.46,11.3,5.65v11.2l-.62.37L115.25,56.5V45.31Zm10.63,17.34v.59l-11.28,5.65L103.9,62.86v-.6l11.29-5.65ZM115.13,43.74l-.62.38-11.28-5.65V27.28l.6-.39,11.3,5.66Zm-.67.49v.6l-11.29,5.65L91.88,44.83v-.6l11.28-5.65ZM103.1,38.47,91.83,44.11l-.63-.37V32.55l11.3-5.66.6.39ZM91.81,44.93l11.29,5.65v11.2l-.62.37L91.2,56.5V45.31Zm10.63,17.34v.59L91.14,68.51,79.86,62.86v-.6l11.29-5.65ZM91.08,43.74l-.62.38L79.18,38.47V27.28l.6-.39,11.3,5.66Zm-.66.49,0,.6L79.12,50.48,67.84,44.83v-.6l11.29-5.65ZM79.06,38.47,67.79,44.11l-.63-.37V32.55l11.29-5.66.61.39Zm-11.3,6.46,11.3,5.65v11.2l-.62.37L67.16,56.5V45.31ZM78.39,62.27v.59L67.1,68.51,55.82,62.86v-.6L67.1,56.61ZM67,43.74l-.62.38L55.14,38.47V27.28l.6-.39L67,32.55Zm-.67.49v.6L55.08,50.48,43.8,44.83v-.6l11.29-5.65ZM55,38.47,43.74,44.11l-.62-.37V32.55l11.29-5.66.61.39Zm-11.3,6.46L55,50.58v11.2l-.62.37L43.12,56.5V45.31ZM54.35,62.27v.59L43.05,68.51,31.77,62.86v-.6l11.28-5.65ZM43,43.74l-.62.38L31.09,38.47V27.28l.61-.39L43,32.55Zm-.66.49,0,.6L31,50.48,19.75,44.83v-.6L31,38.58ZM31,38.47,19.7,44.11l-.63-.37V32.55l11.29-5.66.61.39Zm-11.3,6.46L31,50.58v11.2l-.62.37L19.07,56.5V45.31ZM30.31,62.27v.59L19,68.51,7.73,62.86v-.6L19,56.61Zm0,36.06v.6L19,104.58,7.73,98.93v-.6L19,92.68Zm0,36.07v.6L19,140.65,7.73,135v-.6L19,128.75Zm0,36.07v.6L19,176.72,7.73,171.07v-.6L19,164.82Zm0,36.07v.6L19,212.79,7.73,207.14v-.6L19,200.89Zm-11.24,6.35,11.29-5.65.61.38v11.19L19.7,224.46l-.63-.38Zm11.28-6.46-11.28-5.65V189.59l.6-.39L31,194.86v11.19ZM19.75,189.1v-.6L31,182.85l11.3,5.66,0,.59L31,194.75Zm11.34,18.52.61-.38L43,212.89v11.19l-.62.38-11.28-5.65Zm.68-.48v-.6l11.28-5.65,11.3,5.65v.6l-11.29,5.65Zm11.35,5.75,11.29-5.65.61.38v11.19l-11.28,5.65-.62-.38Zm11.28-6.46-11.28-5.65V189.59l.6-.39L55,194.86v11.19ZM43.8,189.1v-.6l11.29-5.65,11.29,5.66v.59l-11.28,5.65Zm11.34,18.52.6-.38L67,212.89v11.19l-.62.38-11.28-5.65Zm.68-.48v-.6l11.29-5.65,11.29,5.65v.6L67.1,212.79Zm11.34,5.75,11.29-5.65.61.38v11.19l-11.27,5.65-.63-.38Zm11.28-6.46-11.28-5.65V189.59l.6-.39,11.3,5.66v11.19ZM67.84,189.1v-.6l11.29-5.65,11.3,5.66,0,.59-11.28,5.65Zm11.34,18.52.6-.38,11.3,5.65v11.19l-.62.38-11.28-5.65Zm.68-.48v-.6l11.29-5.65,11.3,5.65v.6l-11.28,5.65Zm11.34,5.75,11.3-5.65.6.38v11.19l-11.27,5.65-.63-.38Zm11.28-6.46L91.2,200.78V189.59l.61-.39,11.29,5.66v11.19ZM91.88,189.1v-.6l11.28-5.65,11.3,5.66v.59l-11.29,5.65Zm11.35,18.52.6-.38,11.3,5.65v11.19l-.62.38-11.28-5.65Zm.67-.48v-.6l11.29-5.65,11.29,5.65v.6l-11.28,5.65Zm11.35,5.75,11.29-5.65.61.38v11.19l-11.28,5.65-.62-.38Zm11.28-6.46-11.28-5.65V189.59l.6-.39,11.3,5.66v11.19Zm-10.6-17.33v-.6l11.29-5.65,11.29,5.66v.59l-11.28,5.65Zm11.34,18.52.6-.38,11.3,5.65v11.19l-.62.38-11.28-5.65Zm.68-.48v-.6l11.29-5.65,11.3,5.65v.6l-11.28,5.65Zm11.34,5.75,11.29-5.65.61.38v11.19l-11.27,5.65-.63-.38Zm11.28-6.46-11.28-5.65V189.59l.6-.39,11.3,5.66v11.19ZM140,189.1v-.6l11.29-5.65,11.3,5.66,0,.59-11.28,5.65Zm11.34,18.52.61-.38,11.29,5.65v11.19l-.62.38-11.28-5.65Zm.68-.48v-.6l11.28-5.65,11.3,5.65v.6l-11.29,5.65Zm11.35,5.75,11.29-5.65.61.38v11.19L164,224.46l-.62-.38Zm11.28-6.46-11.28-5.65V189.59l.6-.39,11.3,5.66v11.19ZM164,189.1v-.6l11.29-5.65,11.29,5.66v.59l-11.28,5.65Zm11.34,18.52.6-.38,11.3,5.65v11.19l-.62.38-11.28-5.65Zm.68-.48v-.6l11.29-5.65,11.29,5.65v.6l-11.28,5.65Zm11.34,5.75,11.29-5.65.61.38v11.19L188,224.46l-.63-.38Zm11.28-6.46-11.28-5.65V189.59l.6-.39,11.3,5.66v11.19Zm-10.6-17.33v-.6l11.29-5.65,11.3,5.66,0,.59-11.28,5.65Zm11.34,18.52.6-.38,11.3,5.65v11.19l-.62.38-11.28-5.65Zm.68-.48v-.6l11.29-5.65,11.3,5.65v.6l-11.28,5.65Zm11.34,5.75,11.3-5.65.6.38v11.19l-11.27,5.65-.63-.38Zm11.28-6.46-11.28-5.65V189.59l.61-.39,11.29,5.66v11.19ZM212.1,189.1v-.6l11.28-5.65,11.3,5.66v.59l-11.29,5.65Zm11.35,18.52.6-.38,11.29,5.65v11.19l-.61.38-11.28-5.65Zm.68-.48v-.6l11.29-5.65,11.29,5.65v.6l-11.28,5.65Zm0-36.07v-.6l11.29-5.65,11.29,5.65v.6l-11.28,5.65Zm0-36.07v-.6l11.29-5.65,11.29,5.65v.6l-11.28,5.65Zm0-36.07v-.6l11.29-5.65,11.29,5.65v.6l-11.28,5.65Zm0-36.07v-.6l11.29-5.65,11.29,5.66v.59l-11.28,5.65Zm10.61-54,.6.38v11.2l-11.27,5.64-.62-.37V14.51ZM223.38,2.51l11.3,5.65v.6l-11.29,5.65L212.1,8.76v-.6Zm-12,6.73.61-.38,11.29,5.65v11.2l-.62.37-11.28-5.64Zm-.06,11.3,11.3,5.66v.59l-11.28,5.65-11.28-5.65v-.6Zm-.67-11.68.61.38v11.2L200,26.08l-.63-.37V14.51ZM199.34,2.51l11.3,5.65,0,.6-11.28,5.65L188.06,8.76v-.6Zm-12,6.73.6-.38,11.3,5.65v11.2l-.62.37-11.28-5.64Zm-.06,11.3,11.29,5.66v.59l-11.28,5.65L176,26.79v-.6Zm-.67-11.68.61.38v11.2L176,26.08l-.62-.37V14.51ZM175.3,2.51h0l11.29,5.65v.6L175.3,14.41,164,8.76v-.6Zm-12,6.73.6-.38,11.3,5.65v11.2l-.62.37-11.28-5.64Zm-.07,11.3,11.3,5.66v.59l-11.29,5.65L152,26.79v-.6Zm-.66-11.68.6.38v11.2l-11.27,5.64-.63-.37V14.51ZM151.25,2.51h0l11.3,5.65,0,.6-11.28,5.65L140,8.76v-.6Zm-12,6.73.6-.38,11.3,5.65v11.2l-.62.37-11.28-5.64Zm-.06,11.3,11.3,5.66v.59l-11.28,5.65L128,26.79v-.6Zm-.67-11.68.61.38v11.2L127.9,26.08l-.63-.37V14.51ZM127.21,2.51h0L138.5,8.16v.6l-11.28,5.65L115.93,8.76v-.6Zm-12,6.73.6-.38,11.3,5.65v11.2l-.62.37-11.28-5.64Zm-.06,11.3,11.29,5.66v.59l-11.28,5.65L103.9,26.79v-.6Zm-.67-11.68.61.38v11.2l-11.28,5.64-.62-.37V14.51ZM103.16,2.51l11.3,5.65v.6l-11.29,5.65L91.88,8.76v-.6Zm-12,6.73.61-.38,11.29,5.65v11.2l-.62.37L91.2,20.44Zm-.06,11.3,11.3,5.66v.59L91.14,32.44,79.86,26.79v-.6ZM90.47,8.86l.61.38v11.2L79.81,26.08l-.63-.37V14.51ZM79.12,2.51l11.3,5.65,0,.6L79.12,14.41,67.84,8.76v-.6Zm-12,6.73.6-.38,11.3,5.65v11.2l-.62.37L67.16,20.44Zm-.06,11.3L78.39,26.2v.59L67.1,32.44,55.82,26.79v-.6ZM66.43,8.86l.61.38v11.2L55.76,26.08l-.62-.37V14.51ZM55.08,2.51h0L66.37,8.16v.6L55.08,14.41,43.8,8.76v-.6Zm-12,6.73.6-.38L55,14.51v11.2l-.62.37L43.12,20.44Zm-.07,11.3,11.3,5.66v.59L43.05,32.44,31.77,26.79v-.6ZM42.39,8.86l.6.38v11.2L31.72,26.08l-.63-.37V14.51ZM31,2.51h0l11.3,5.65,0,.6L31,14.41,19.75,8.76v-.6Zm-12,6.73.6-.38L31,14.51v11.2l-.62.37L19.07,20.44ZM19,20.54l11.3,5.66v.59L19,32.44,7.73,26.79v-.6Zm-12-6L18.34,8.86l.61.38v11.2L7.68,26.08l-.63-.37Zm0,24V27.28l.6-.39L19,32.55V43.74l-.62.38Zm0,12.11,11.29-5.65.61.38V56.5L7.68,62.15l-.63-.38Zm0,24V63.34l.6-.38L19,68.62V79.81l-.62.38Zm0,12.11L18.34,81l.61.38V92.57L7.68,98.22l-.63-.38Zm0,24V99.41l.6-.38L19,104.69v11.19l-.62.37Zm0,12.11,11.29-5.65.61.38v11.19L7.68,134.29l-.63-.38Zm0,24v-11.2l.6-.38L19,140.75V152l-.62.37Zm0,12.11,11.29-5.65.61.38v11.19L7.68,170.35,7.05,170Zm0,24v-11.2l.6-.38L19,176.82V188l-.62.37Zm0,12.11,11.29-5.66.61.39v11.19L7.68,206.42l-.63-.37Zm0,23.95V207.62l.6-.38L19,212.89v11.19l-.62.38Zm0,23.31v-11.2l11.29-5.65.61.38v11.2L7.68,242.49Zm23.25.78v.31L19,248.85,7.73,243.21v-.6L19,237l11.3,5.66Zm.67-.78-.62.37-11.28-5.64v-11.2l.6-.38L31,230.93Zm.06-11.3h0l-11.28-5.65v-.6L31,218.92l11.3,5.65,0,.6Zm.06,11.3v-11.2l11.3-5.65.6.38v11.2l-11.27,5.64Zm23.25.78v.31l-11.29,5.64-11.28-5.64v-.6L43.05,237l11.3,5.66Zm.68-.78-.62.37-11.28-5.64v-11.2l.6-.38L55,230.93Zm.06-11.3h0L43.8,225.17v-.6l11.29-5.65,11.29,5.65v.6Zm.06,11.3v-11.2l11.29-5.65.61.38v11.2l-11.28,5.64Zm23.25.78v.31L67.1,248.85l-11.28-5.64v-.6L67.1,237l11.29,5.66Zm.67-.78-.62.37-11.28-5.64v-11.2l.6-.38,11.3,5.66Zm.06-11.3-11.28-5.65v-.6l11.29-5.65,11.3,5.65,0,.6Zm.06,11.3V230.93l11.29-5.66.61.38v11.2l-11.27,5.64Zm23.25.78v.31l-11.28,5.64-11.28-5.64v-.6L91.14,237l11.3,5.66Zm.67-.78-.62.37L91.2,236.85v-11.2l.61-.38,11.29,5.66Zm.06-11.3-11.28-5.65v-.6l11.28-5.65,11.3,5.65v.6Zm.07,11.3V230.93l11.29-5.66.61.38v11.2l-11.28,5.64Zm23.25.78v.31l-11.28,5.64-11.29-5.64v-.6L115.19,237l11.29,5.66Zm.67-.78-.62.37-11.28-5.64v-11.2l.6-.38,11.3,5.66Zm.06-11.3h0l-11.28-5.65v-.6l11.29-5.65,11.29,5.65v.6Zm.06,11.3V230.93l11.29-5.66.61.38v11.2l-11.27,5.64Zm23.25.78v.31l-11.28,5.64L128,243.21v-.6L139.23,237l11.3,5.66Zm.67-.78-.62.37-11.28-5.64v-11.2l.6-.38,11.3,5.66Zm.06-11.3h0L140,225.17v-.6l11.29-5.65,11.3,5.65,0,.6Zm.06,11.3V230.93l11.3-5.66.6.38v11.2l-11.27,5.64Zm23.25.78v.31l-11.29,5.64L152,243.21v-.6L163.27,237l11.3,5.66Zm.68-.78-.62.37-11.28-5.64v-11.2l.6-.38,11.3,5.65Zm.06-11.3h0L164,225.17v-.6l11.29-5.65,11.29,5.65v.6Zm.06,11.3V230.93l11.29-5.66.61.38v11.2L176,242.49Zm23.25.78v.31l-11.28,5.64L176,243.21v-.6L187.32,237l11.29,5.66Zm.67-.78-.62.37-11.28-5.64v-11.2l.6-.38,11.3,5.65Zm.06-11.3-11.28-5.65v-.6l11.29-5.65,11.3,5.65,0,.6Zm.06,11.3V230.93l11.29-5.66.61.38v11.2L200,242.49Zm23.25.78v.31l-11.28,5.64-11.28-5.64v-.6L211.36,237l11.3,5.66Zm.67-.78-.62.37-11.28-5.64v-11.2l.61-.38,11.29,5.66Zm.06-11.3-11.28-5.65v-.6l11.28-5.65,11.3,5.65v.6Zm.07,11.3v-11.2l11.29-5.65.6.38v11.2l-11.27,5.64Zm23.25.78v.31l-11.28,5.64-11.28-5.64v-.6L235.41,237l11.29,5.66Zm.67-12v11.19l-.62.37-11.28-5.64v-11.2l.6-.38Zm0-12.12-11.28,5.65-.62-.38V212.89l11.29-5.65.61.38Zm0-23.95v11.19l-.62.38-11.28-5.65V189.59l.6-.39Zm0-12.11-11.28,5.64-.62-.38V176.82l11.29-5.65.61.38Zm0-24V170l-.62.38-11.28-5.65V153.52l.6-.39Zm0-12.11-11.28,5.64-.62-.37v-11.2l11.29-5.65.61.38Zm0-24v11.19l-.62.38-11.28-5.65V117.45l.6-.39Zm0-12.11-11.28,5.64-.62-.37V104.69L246.76,99l.61.38Zm0-24V97.84l-.62.38-11.28-5.65V81.38l.6-.38Zm0-12.11-11.28,5.64-.62-.37V68.62L246.76,63l.61.39Zm0-24v11.2l-.62.37L235.47,56.5V45.31l.6-.38Zm0-12.11-11.28,5.64-.62-.37V32.55l11.29-5.66.61.39Zm0-24v11.2l-.62.37-11.28-5.64V9.24l.6-.38Z"/></g></svg>