<svg xmlns="http://www.w3.org/2000/svg" viewBox="0 0 256 256"><defs><style>.cls-1{fill:#667bbf;}</style></defs><title>seamless_pattern18</title><g id="seamless_pattern18"><path class="cls-1" d="M256,23.9l-2.27,4L247.39,16.8H256v-.33h-.37l.37-.65v-.66l-.75,1.31H247.2l-6.3-11H256V5.13H240.84L243.78,0h-.38l-2.7,4.72L238,0h-.38l3,5.25L234.2,16.47h-8.06L219.72,5.25l3-5.25h-.38l-2.81,4.92L216.71,0h-.38l3,5.25-6.43,11.22h-12.6l6.36-11.22h0l3-5.25h-.38l-2.74,4.83L203.77,0h-.39l3,5.17L200,16.34,193.65,5.25l3-5.25h-.38l-2.82,4.92L190.65,0h-.38l2.94,5.13H172.43L175.37,0H175l-2.7,4.72L169.59,0h-.38l3,5.25-6.43,11.22h-8L151.31,5.25l3-5.25h-.38l-2.82,4.92L148.3,0h-.38l3,5.25L144.5,16.47H131.91l6.35-11.22h0l3-5.25h-.38l-2.73,4.83L135.36,0H135l2.95,5.17L131.6,16.33,125.25,5.25l3-5.25h-.38l-2.81,4.92L122.24,0h-.38l2.94,5.13H104L107,0h-.38l-2.71,4.72L101.18,0h-.38l3,5.25L97.38,16.47h-8L82.9,5.25l3-5.25h-.38L82.71,4.92,79.9,0h-.38l3,5.25L76.09,16.47H63.5L69.85,5.25h0l3-5.25h-.39L69.71,4.83,67,0h-.38l3,5.17L63.19,16.34,56.84,5.25l3-5.25h-.37L56.65,4.92,53.83,0h-.38l2.94,5.13H35.62L38.56,0h-.38l-2.7,4.72L32.78,0H32.4l3,5.25L29,16.47H20.92L14.5,5.25,17.5,0h-.38L14.31,4.92,11.49,0h-.38l3,5.25L7.68,16.47H.12v.33H7.5L1.27,27.66l-1.15-2v.66L1.2,28.19.12,30.07v.66l1.15-2L7.4,39.41H.12v.33H7.51l-6.21,11L.12,48.66v.67l1,1.73-1,1.74v.68l1.33-2.34h0L7.74,40l6.38,11.12L7.68,62.36H.12v.33H7.5L1.27,73.55l-1.15-2v.67L1.2,74.09.12,76v.67l1.15-2L7.4,85.3H.12v.33H7.51l-6.21,11L.12,94.55v.67l1,1.73-1,1.74v.68L1.45,97h0L7.74,85.91,14.12,97,7.68,108.26H.12v.32H7.5L1.27,119.45l-1.15-2v.66L1.2,120,.12,121.86v.66l1.15-2L7.4,131.19H.12v.33H7.51l-6.21,11L.12,140.44v.67l1,1.73-1,1.74v.68l1.33-2.34h0L7.74,131.8l6.38,11.12L7.68,154.15H.12v.33H7.5L1.27,165.34l-1.15-2V164l1.08,1.88L.12,167.75v.66l1.15-2L7.4,177.09H.12v.33H7.51l-6.21,11L.12,186.33V187l1,1.73-1,1.75v.68l1.33-2.34h0l6.29-11.13,6.38,11.12L7.68,200H.12v.33H7.5L1.27,211.23l-1.15-2v.66l1.08,1.88L.12,213.64v.66l1.15-2L7.4,223H.12v.33H7.51l-6.21,11L.12,232.22v.67l1,1.73-1,1.75v.68l1.33-2.34h0l6.29-11.13,6.38,11.12L7.68,245.93H.12v.33H7.5L1.92,256H2.3l5.58-9.74h7.85L21.31,256h.38l-5.58-9.74H28.79L23.2,256h.38L29,246.53,34.42,256h.38l-5.56-9.75H41.72L36.2,256h.39L42,246.53,47.37,256h.38l-5.58-9.75H54.84L49.26,256h.38l5.58-9.74h7.86L68.66,256H69l-5.58-9.74H75.9L70.32,256h.38l5.58-9.74h7.86L89.72,256h.38l-5.58-9.74H97.19L91.61,256H92l5.43-9.47,5.4,9.47h.39l-5.57-9.75h12.48L104.61,256H105l5.36-9.47,5.43,9.47h.38l-5.58-9.75h12.67L117.67,256h.38l5.58-9.74h7.86l5.58,9.74h.38l-5.58-9.74h12.44L138.73,256h.38l5.58-9.74h7.85l5.58,9.74h.38l-5.58-9.74H165.6L160,256h.37l5.43-9.47,5.41,9.47h.39l-5.57-9.75h12.48L173,256h.38l5.36-9.47,5.43,9.47h.38L179,246.25h12.68L186.08,256h.38l5.58-9.74h7.85l5.58,9.74h.38l-5.58-9.74h12.45L207.14,256h.38l5.58-9.74H221l5.58,9.74h.38l-5.58-9.74H234L228.42,256h.38l5.43-9.47,5.41,9.47H240l-5.56-9.75h12.48L241.42,256h.39l5.36-9.47L252.6,256H253l-5.58-9.75H256v-.34h-.37l.37-.64v-.66l-.75,1.3H247.2l-6.3-11H256v-.33H240.84l6.46-11.28h7.85l.85,1.48v-.66l-.46-.82H256V223h-8.51l6.24-10.89,2.27,4v-.66l-2.08-3.63,2.08-3.63v-.66l-2.27,4-6.34-11.07H256V200h-.37l.37-.64v-.66l-.75,1.3H247.2l-6.3-11H256v-.32H240.84l6.46-11.28h7.85l.85,1.48v-.67l-.46-.81H256v-.33h-8.51l6.24-10.89,2.27,4v-.66l-2.08-3.63,2.08-3.63v-.67l-2.27,4-6.34-11.07H256v-.34h-.37l.37-.64v-.66l-.75,1.3H247.2l-6.3-11H256v-.33H240.84l6.46-11.27h7.85L256,133v-.67l-.46-.81H256v-.34h-8.51l6.24-10.89,2.27,4v-.66L253.92,120l2.08-3.63v-.67l-2.27,4-6.34-11.06H256v-.33h-.37l.37-.64V107l-.75,1.3H247.2l-6.3-11H256v-.33H240.84l6.46-11.27h7.85l.85,1.48v-.67l-.46-.81H256V85.3h-8.51l6.24-10.89,2.27,4v-.66l-2.08-3.63L256,70.45v-.66l-2.27,4-6.34-11.06H256v-.33h-.37l.37-.64v-.67l-.75,1.31H247.2l-6.3-11H256V51H240.84l6.46-11.27h7.85l.85,1.47v-.66l-.46-.81H256v-.34h-8.51l6.24-10.9,2.27,4v-.66l-2.08-3.63L256,24.56ZM234.2,62.36h-8.06l-6.42-11.22,6.52-11.39h7.86l6.52,11.39Zm0,45.89h-8.06L219.72,97l6.52-11.39h7.86L240.62,97Zm0,45.89h-8.06l-6.42-11.22,6.52-11.39h7.86l6.52,11.39Zm0,45.89h-8.06l-6.42-11.22,6.52-11.39h7.86l6.52,11.39ZM16.21,223l6.24-10.89L28.69,223H16.21ZM14.5,188.81,21,177.42h7.86l6.52,11.39L29,200H20.92Zm0-45.89L21,131.53h7.86l6.52,11.39L29,154.14H20.92ZM14.5,97,21,85.64h7.86L35.4,97,29,108.25h-8Zm0-45.89L21,39.75h7.86L35.4,51.14,29,62.36H20.92ZM213,223l-6.31-11h20.67l-6.31,11Zm-68.41,0-6.31-11H159l-6.31,11Zm-68.41,0-6.3-11H90.54l-6.3,11ZM35.65,28.2h0L42,17.07l6.37,11.12L41.89,39.42H29.3ZM54.84,16.8,48.51,27.86,42.17,16.8H54.84Zm49.22,11.4h0l6.29-11.13,6.38,11.12-6.44,11.23H97.7Zm19.19-11.4-6.33,11.06L110.58,16.8h12.67Zm49.22,11.4h0l6.3-11.13,6.37,11.12L178.7,39.42H166.11Zm19.19-11.4-6.34,11.06L179,16.8h12.68ZM213,39.41l-6.31-11h20.67l-6.31,11Zm0,45.89-6.31-11h20.67l-6.31,11Zm0,45.89-6.31-11h20.67l-6.31,11Zm0,45.9-6.31-11h20.67l-6.31,11Zm-46.95,23.27h12.48l-6.21,11Zm-68.41,0h12.48l-6.21,11Zm-68.4,0H41.72l-6.21,11ZM63.21,40l6.31,11.05L63.19,62.23,56.84,51.14Zm68.41,0,6.3,11.05L131.6,62.23l-6.35-11.09Zm20.74,160h-7.48l6.24-10.9L157.36,200h-5Zm-14.27,11.19-6.22-10.86h12.44ZM84,200H76.47l6.24-10.9L89,200H84ZM69.68,211.23l-6.22-10.86H75.9ZM50.41,200l6.24-10.89L62.89,200H50.41ZM69.85,51.14h0L76.15,40l6.37,11.12L76.09,62.36H63.5Zm68.41,0h0L144.56,40l6.37,11.12L144.5,62.36H131.91ZM56.84,188.81l6.37-11.12,6.31,11L63.19,199.9Zm0-45.89,6.37-11.12,6.31,11L63.19,154Zm0-45.89,6.37-11.12,6.31,11-6.33,11.17ZM97.42,63l6.3,11L97.39,85.17,91,74.08Zm68.4,0,6.31,11L165.8,85.17l-6.35-11.09Zm.23-.27h12.48l-6.21,11Zm-21.46,114.4-6.3-11H159l-6.31,11Zm-68.41,0-6.3-11H90.54l-6.3,11Zm27.88-103h0L110.35,63l6.38,11.12-6.44,11.23H97.7Zm19.19-11.4-6.33,11.06-6.34-11.06h12.67Zm42.54,45.56h-8L151.31,97l6.53-11.39h7.85L172.22,97Zm0,45.89h-8l-6.43-11.22,6.53-11.39h7.85l6.53,11.39Zm-68.15.33h12.48l-6.21,11ZM82.9,142.92l6.53-11.39h7.85l6.53,11.39-6.43,11.22h-8ZM82.9,97l6.53-11.39h7.85L103.81,97l-6.43,11.22h-8Zm6.15-11.39L82.71,96.7,76.37,85.63H89.05Zm42.57.27,6.3,11-6.32,11.17L125.25,97Zm25.84-.27L151.12,96.7l-6.34-11.07h12.68Zm-5.1,68.51h-7.48l6.24-10.9,6.24,10.89h-5Zm-7.86,0H131.91l6.35-11.23h0l6.3-11.12,6.37,11.12Zm-6.41,11.19-6.22-10.86h12.44Zm-14.37-33.82h7.68l-6.34,11.07-6.34-11.06h5Zm-.19-.33L117.11,120l6.52-11.4h7.86L138,120l-6.42,11.21Zm-.28-22.61-6.33,11.06-6.34-11.06h12.67Zm-12.86-.33-6.31-11h20.67l-6.31,11Zm-12.75.33h12.48l-6.21,11Zm6.42,11.4h0l6.29-11.13L116.73,120,110.3,131.2H97.7Zm12.86.33,6.23,10.88H110.67Zm1.42,11.22,6.46,11.27H104l6.46-11.27Zm6.91,11.39,6.37-11.12,6.3,11L131.6,154Zm12.87-.42-6.27-11h12.48ZM132,131.19l6.13-10.68,6.12,10.68Zm6.13-11.74-6.22-10.87h12.44Zm-14.27-11.19h-5l6.24-10.89,6.24,10.9Zm-13.81,0H97.76l6.12-10.69Zm-12.59.6,6.3,11.05-6.33,11.16L91,120Zm12.69,22.68-6.23,10.86-6.22-10.86Zm-.1,22.61H97.76l6.12-10.69Zm-5.93-11h20.67l-6.31,11h-8Zm14.74,11,6.24-10.89,6.24,10.9H118.82Zm26-22.62h12.68l-6.34,11.06Zm-.19-.33-6.3-11H159l-6.31,11Zm-6.36-11.33,6.46-11.28h7.85L159,119.86Zm14.12-11.6h-7.47l6.24-10.9,6.24,10.89h-5Zm-7.85,0H131.91L138.26,97h0l6.3-11.12L150.93,97Zm-6.38-11.65-6.27-11h12.48Zm-34.09.3,6.46-11.27h7.85l6.46,11.27Zm-.15-.41L97.66,85.64h12.45ZM89.52,108.58h7.67l-6.34,11.07-6.33-11.07Zm7.57,22.62H84.61l6.24-10.88Zm-8,.33-6.34,11.06-6.34-11.07H89.05Zm.47,22.94h7.67l-6.34,11.07-6.33-11.06h5Zm28.73,0h5l-6.33,11.06-6.34-11.07Zm5.38,0h7.86L138,165.87l-6.42,11.22h-8.06l-6.42-11.22Zm14.6,11.27,6.46-11.27h7.85L159,165.75Zm14.69-11.27H165.6l-6.34,11.07ZM158,131.2h-5l6.24-10.88,6.24,10.89Zm-5.1-22.62H165.6l-6.34,11.06ZM158,85.31h-5l6.24-10.88,6.24,10.89Zm-5.38,0h-8l-6.31-11H159Zm-8.43,0H132l6.13-10.69ZM125.06,96.7l-6.34-11.06H131.4Zm-6.91-11.39h-7.48l6.25-10.89,6.23,10.88h-5Zm-28.53,0h-5l6.24-10.88,6.24,10.89Zm-5.38,0H76.18l-6.3-11H90.54Zm-20.8.33H75.92l-6.21,11ZM69.85,97h0l6.3-11.12L82.52,97l-6.43,11.23H63.5Zm12.86.33L89,108.25H76.47Zm1.43,11.22,6.45,11.28H69.82l6.46-11.28Zm6.4,11.61-6.3,11H76.18l-6.3-11Zm-27.1,11.33H75.92l-6.21,11Zm6.41,11.4h0l6.3-11.12,6.37,11.12-6.43,11.23H63.5Zm12.86.33L89,154.14H76.47Zm1.43,11.23,6.46,11.27H69.82l6.46-11.27Zm13.28.26,6.3,11L97.39,177,91,165.87Zm6.64,11.13h0l6.29-11.13,6.38,11.13-6.44,11.22H97.7Zm12.86.33,6.23,10.89H110.67Zm1.42,11.22,6.46,11.28H104l6.46-11.28Zm.38,0H131.4l-6.34,11.06Zm19.37-11,6.12,10.69H132Zm27.73-11.66,6.31,11L165.8,177l-6.35-11.09Zm.23-.27h12.48l-6.21,11Zm.12-.33,6.12-10.69,6.13,10.69Zm6.12-11.75-6.22-10.86h12.44ZM159.45,120l6.37-11.13,6.31,11.05-6.33,11.16Zm6.6-11.4h12.48l-6.21,11Zm.12-.33,6.12-10.69,6.13,10.69Zm6.12-11.75-6.22-10.86h12.44ZM138.23,74l6.46-11.28h7.85L159,74Zm-.14-.42-6.22-10.86h12.44Zm-.08.54L131.59,85.3h-8.06l-6.42-11.21,6.52-11.4h7.86ZM110.39,62.36l-6.31-11h20.67l-6.31,11Zm-6.48,11.31-6.27-11h12.48ZM69.82,74l6.46-11.28h7.86L90.59,74Zm-.14-.42L63.46,62.69H75.9ZM75.81,85.3H63.56l6.12-10.69Zm.09,23.28-6.22,10.87-6.22-10.87Zm-.1,22.61H63.56l6.12-10.68Zm.1,23.29-6.22,10.86-6.22-10.86Zm-.1,22.61H63.56l6.12-10.69Zm-12.36.33H75.92l-6.21,11Zm20.61,0h5l-6.34,11.06-6.34-11.06Zm.56-.33,6.24-10.89,6.24,10.89H84.61Zm25.5.33-6.23,10.86-6.22-10.86Zm15.14,11.39,6.37-11.12,6.3,11L131.6,199.9Zm12.87-.41-6.27-11h12.48Zm14.34-11h5l-6.34,11.06-6.34-11.06Zm.56-.33,6.24-10.89,6.24,10.89H153Zm19.27,11.19-6.22-10.86h12.44Zm.14.42,6.46-11.28h7.86l6.46,11.28Zm14.13-11.61h-7.48l6.24-10.89,6.24,10.89h-5Zm-7.86,0H166.11l6.36-11.22h0l6.3-11.13,6.37,11.13Zm.28-22.62h12.68l-6.34,11.06Zm-.19-.33-6.3-11h20.66l-6.3,11Zm-6.36-11.34,6.46-11.27h7.86l6.46,11.27Zm14.13-11.6h-7.48l6.24-10.89,6.24,10.88h-5Zm-7.86,0H166.11L172.47,120h0l6.3-11.13L185.13,120Zm.28-22.62h12.68l-6.34,11.06Zm-.19-.33-6.3-11h20.66l-6.3,11Zm-6.36-11.34,6.46-11.27h7.86l6.46,11.27Zm14.13-11.6h-7.48l6.24-10.89,6.24,10.88h-5Zm-7.86,0H166.11l6.36-11.22h0L178.76,63l6.37,11.12ZM179,62.69h12.68l-6.34,11.06Zm-.19-.33-6.3-11h20.66l-6.3,11Zm-.37,0H166.17l6.12-10.69ZM159.26,73.75l-6.34-11.06H165.6Zm-6.9-11.39h-7.48l6.24-10.89,6.24,10.89h-5Zm-28.54,0h-5l6.24-10.89,6.24,10.89Zm-13.81,0H97.76l6.12-10.69ZM90.85,73.75,84.52,62.69H97.19ZM84,62.36H76.47l6.24-10.89L89,62.36H84Zm-33.54,0,6.24-10.89,6.24,10.89H50.41Zm4.43.33L48.51,73.75,42.17,62.69H54.84Zm.38,0h7.86l6.53,11.4L63.18,85.3h-8L48.7,74.09Zm.09,22.94H63L56.65,96.7,50.31,85.64h5Zm7.58,22.63H50.41l6.24-10.89Zm-8,.32-6.34,11.06-6.34-11.06H54.85Zm.38,0h7.85L69.61,120l-6.43,11.21h-8L48.7,120Zm.08,22.94H63l-6.34,11.07-6.34-11.06h5Zm7.58,22.63H50.41l6.24-10.89Zm-8,.33-6.33,11.06-6.34-11.07H54.84Zm.38,0h7.86l6.53,11.39-6.43,11.22h-8L48.7,165.87Zm.09,22.94H63l-6.34,11.06-6.34-11.06h5ZM63.5,200l6.35-11.22h0l6.3-11.13,6.37,11.12L76.09,200Zm19.4-11.23,6.53-11.39h7.85l6.53,11.39L97.38,200h-8Zm21,.53L110,200H97.76Zm.2-.32h20.67l-6.31,11h-8Zm14.74,11,6.24-10.89L131.3,200H118.82Zm13.09,0,6.35-11.22h0l6.3-11.13,6.37,11.12L144.5,200Zm19.4-11.23,6.53-11.39h7.85l6.53,11.39L165.79,200h-8Zm21,.53L178.42,200H166.17Zm.2-.32h20.66l-6.3,11h-8.06Zm14.74,11,6.23-10.89L199.7,200H187.23Zm-.1-22.61H199.8l-6.34,11.06Zm4.81-.33-6.43-11.22L192,154.48h7.85l6.53,11.39L200,177.09Zm.29-22.94h-5l6.23-10.89,6.24,10.9Zm-5.1-22.62H199.8l-6.34,11.07Zm4.81-.34L185.51,120l6.53-11.4h7.85l6.53,11.4L200,131.19Zm.29-22.93h-5l6.24-10.89,6.24,10.9Zm-5.1-22.62H199.8L193.46,96.7Zm4.81-.34-6.43-11.21L192,62.69h7.85l6.53,11.4L200,85.3Zm.29-22.94h-5l6.23-10.89,6.24,10.89ZM172.43,51l6.46-11.27h7.86L193.21,51Zm-.14-.41-6.22-10.86h12.44Zm-.07.53-6.43,11.22h-8l-6.43-11.22,6.53-11.39h7.85ZM157.46,39.75l-6.34,11.06-6.34-11.07h12.68Zm-19.34,11-6.27-11h12.48ZM104,51l6.46-11.27h7.85L124.8,51Zm-.15-.41L97.66,39.75h12.45Zm-.07.53L97.38,62.36h-8L82.9,51.14l6.53-11.39h7.85ZM89.05,39.75,82.71,50.81,76.37,39.74H89.05Zm-19.34,11-6.27-11H75.92ZM35.62,51l6.46-11.27h7.85L56.39,51Zm20.72.33L50,62.36H42l-6.31-11ZM29.24,62.69H41.72l-6.21,11Zm6.41,11.4h0L42,63l6.37,11.12L41.89,85.31H29.3Zm12.86.33L54.75,85.3H42.27Zm1.42,11.22,6.46,11.27H35.62l6.46-11.27Zm6.41,11.6-6.31,11H42l-6.31-11Zm-27.1,11.34H41.72l-6.21,11ZM35.65,120h0L42,108.85,48.32,120,41.89,131.2H29.3Zm12.86.33,6.24,10.88H42.27Zm1.42,11.22,6.46,11.27H35.62l6.46-11.27Zm6.41,11.6-6.31,11H42l-6.31-11Zm-27.1,11.34H41.72l-6.21,11Zm6.41,11.4h0L42,154.74l6.37,11.13-6.43,11.22H29.3Zm12.86.33,6.24,10.89H42.27Zm1.42,11.22,6.46,11.28H35.62l6.46-11.28ZM56.34,189,50,200H42l-6.31-11Zm-6.5,11.34h5l-6.33,11.06-6.34-11.07Zm5.38,0h7.86l6.53,11.39L63.18,223h-8L48.7,211.76Zm14.6,11.27,6.46-11.27h7.86l6.45,11.27Zm14.7-11.27H97.19l-6.34,11.07Zm33.73,0h5l-6.33,11.06-6.34-11.07Zm5.38,0h7.86L138,211.76,131.59,223h-8.06l-6.42-11.22Zm14.6,11.27,6.46-11.27h7.85L159,211.64Zm14.69-11.27H165.6l-6.34,11.07Zm33.74,0h5l-6.34,11.06L179,200.36Zm5.38,0h7.85l6.53,11.39L200,223h-8.05l-6.43-11.22Zm14.6,11.27,6.46-11.27H221l6.46,11.27Zm-.14-.41-6.23-10.86h12.45Zm-12.85-22.42L200,177.69l6.3,11L200,199.9Zm12.87-.41-6.27-11h12.49Zm-6.15-11.31,6.13-10.69,6.12,10.69Zm6.27-11.34,6.46-11.27H221l6.46,11.27Zm-.14-.41-6.23-10.86h12.45Zm-12.85-22.42L200,131.8l6.3,11L200,154Zm12.87-.42-6.27-11h12.49Zm-6.15-11.31,6.13-10.68,6.12,10.68Zm6.27-11.33,6.46-11.28H221l6.46,11.28Zm-.14-.41-6.23-10.87h12.45ZM193.65,97,200,85.9l6.3,11L200,108.12Zm12.87-.42-6.27-11h12.49ZM200.37,85.3l6.13-10.69,6.12,10.69ZM206.64,74l6.46-11.28H221L227.41,74Zm-.14-.42-6.23-10.86h12.45ZM193.65,51.14,200,40l6.3,11.05L200,62.23Zm12.87-.42-6.27-11h12.49Zm6.1-11.31H200.37l6.13-10.69Zm-19.16,11.4-6.33-11.06H199.8Zm-6.9-11.39h-7.48l6.24-10.9,6.24,10.89h-5Zm-28.54,0h-5l6.24-10.89,6.24,10.9Zm-5.38,0h-8l-6.3-11H159Zm-8.43,0H132l6.13-10.69Zm-19.15,11.4-6.34-11.06H131.4Zm-6.91-11.39h-7.48l6.25-10.9,6.23,10.89h-5Zm-28.53,0h-5l6.24-10.89,6.24,10.9Zm-5.38,0H76.18l-6.3-11H90.54Zm-8.44,0H63.56l6.12-10.69ZM56.65,50.81,50.31,39.75H63ZM49.74,39.42H42.27l6.24-10.9,6.24,10.89h-5Zm-8,.33L35.48,50.61,29.26,39.75Zm-.1,22.61H29.35l6.13-10.69ZM29,63l6.3,11L29,85.17,22.64,74.08ZM41.7,85.64,35.48,96.5,29.26,85.64Zm-.1,22.61H29.35l6.13-10.69Zm-12.59.6,6.3,11.05L29,131.06,22.63,120ZM41.7,131.53l-6.22,10.86-6.22-10.86Zm-.1,22.61H29.35l6.13-10.69Zm-12.59.6,6.3,11L29,177l-6.35-11.09ZM41.7,177.42l-6.22,10.86-6.22-10.86ZM41.6,200H29.35l6.13-10.69Zm-12.59.6,6.3,11.05L29,222.85l-6.35-11.09Zm6.64,11.13h0L42,200.64l6.37,11.12L41.89,223H29.3Zm12.86.33L54.75,223H42.27Zm1.42,11.22,6.46,11.28H35.62l6.46-11.28Zm.38,0H63l-6.34,11.06Zm19.37-11L75.8,223H63.56Zm27.74-11.66,6.3,11.05-6.33,11.17L91,211.76Zm6.64,11.13h0l6.29-11.12,6.38,11.12L110.29,223H97.7Zm12.86.33L123.15,223H110.67Zm1.42,11.22,6.46,11.28H104l6.46-11.28Zm.38,0H131.4l-6.34,11.06Zm19.37-11L144.21,223H132Zm27.73-11.66,6.31,11.05-6.33,11.17-6.35-11.09Zm6.65,11.13h0l6.3-11.12,6.37,11.12L178.7,223H166.11Zm12.85.33L191.56,223H179.08Zm1.43,11.22,6.46,11.28H172.43l6.46-11.28Zm.38,0H199.8l-6.34,11.06Zm19.37-11L212.62,223H200.37Zm14.83-11.92H234l-6.34,11.07Zm-.57-.33h-7.47l6.24-10.9L225.77,200h-5Zm-7.85,0h-12.6l6.36-11.22h0L213,177.69l6.38,11.12Zm.28-22.62h12.67l-6.33,11.06Zm8.24-.33,6.24-10.89,6.24,10.89H221.43Zm-.1-22.61H234l-6.34,11.07Zm-.57-.33h-7.47l6.24-10.9,6.24,10.89h-5Zm-7.85,0h-12.6l6.36-11.23h0L213,131.8l6.37,11.12Zm.28-22.63h12.67l-6.33,11.06Zm8.24-.33,6.24-10.88,6.24,10.89H221.43Zm-.1-22.61H234l-6.34,11.06Zm-.57-.32h-7.47l6.24-10.9,6.24,10.89h-5Zm-7.85,0h-12.6L206.67,97h0L213,85.91,219.34,97Zm.28-22.63h12.67L219.53,96.7Zm8.24-.33,6.24-10.88,6.24,10.89H221.43Zm-.1-22.61H234l-6.34,11.06Zm-.57-.33h-7.47l6.24-10.89,6.24,10.89Zm-7.85,0h-12.6l6.36-11.22h0L213,40l6.38,11.12Zm.28-22.62h12.67l-6.33,11.06Zm8.24-.33,6.24-10.89,6.24,10.9H221.43ZM206.64,28.08,213.1,16.8H221l6.46,11.28ZM200,39.41h-8.05l-6.43-11.22L192,16.8h7.85l6.53,11.39Zm-7.76-22.94h-5l6.23-10.89,6.24,10.89Zm.92-11-6.3,11h-8.06l-6.3-11ZM172.32,27.78l-6.27-11h12.48Zm-6.5-10.71,6.31,11L165.8,39.28l-6.35-11.09Zm-27.59,11,6.46-11.28h7.85L159,28.08Zm-6.64,11.33h-8.06l-6.42-11.22,6.52-11.39h7.86L138,28.19Zm-7.77-22.94h-5l6.24-10.89,6.24,10.89Zm.93-11-6.31,11h-8l-6.31-11ZM103.91,27.78l-6.27-11h12.48ZM97.42,17.07l6.3,11L97.39,39.28,91,28.19Zm-27.6,11L76.28,16.8h7.86L90.6,28.08ZM63.18,39.41h-8L48.7,28.19,55.22,16.8h7.86l6.53,11.39ZM55.41,16.47h-5L56.65,5.58l6.24,10.89Zm.93-11L50,16.47H42l-6.31-11ZM35.51,27.78l-6.27-11H41.72ZM29,17.07l6.3,11L29,39.28,22.64,28.19Zm-.32,22.35H16.21l6.24-10.89ZM21.11,62.69h7.68L22.45,73.75,16.11,62.69Zm7.58,22.62H16.21l6.24-10.88Zm-7.58,23.27h7.68l-6.34,11.07-6.34-11.07Zm7.58,22.62H16.21l6.23-10.88Zm-7.58,23.27h7.68l-6.34,11.07-6.34-11.06h5Zm7.58,22.62H16.21l6.24-10.89Zm-7.58,23.27h7.68l-6.34,11.07-6.34-11.06h5ZM41.7,223.31l-6.22,10.86-6.22-10.86Zm-.1,22.61H29.35l6.13-10.68ZM56.84,234.7l6.37-11.12,6.31,11-6.33,11.17Zm6.6-11.39H75.92l-6.21,11Zm20.61,0h5l-6.34,11.06-6.34-11.06Zm.56-.33,6.24-10.89L97.09,223H84.61Zm25.5.33-6.23,10.86-6.22-10.86Zm-.1,22.61H97.76l6.12-10.68Zm15.24-11.22,6.37-11.12,6.3,11-6.32,11.17Zm12.87-.41-6.27-11h12.48Zm14.34-11h5l-6.34,11.06-6.34-11.06ZM153,223l6.24-10.89L165.5,223H153Zm25.49.33-6.22,10.86-6.22-10.86Zm-.09,22.61H166.17l6.12-10.68Zm15.23-11.22L200,223.58l6.3,11L200,245.79Zm12.87-.41-6.27-11h12.49Zm14.34-11h5l-6.33,11.06-6.34-11.06Zm.57-.33,6.24-10.89L233.91,223H221.43Zm6.43-11.22,6.37-11.13,6.3,11.05-6.32,11.17Zm6.6-11.4h12.48l-6.21,11Zm-6.6-34.49,6.37-11.13,6.3,11L234.21,177Zm6.6-11.4h12.48l-6.21,11ZM227.86,120l6.37-11.13,6.3,11.05-6.32,11.16Zm6.6-11.4h12.48l-6.21,11Zm-6.6-34.5L234.23,63l6.3,11-6.32,11.17Zm6.6-11.39h12.48l-6.21,11Zm-6.6-34.5,6.37-11.12,6.3,11-6.32,11.17Zm6.6-11.39h12.48l-6.21,11Zm6.24-11,6.12,10.69H234.57ZM234,16.8l-6.34,11.06L221.33,16.8H234ZM219.53,5.58l6.24,10.89H213.29ZM212.72,16.8,206.5,27.66,200.27,16.8Zm-40.43-11,6.13,10.69H166.17Zm-6.69,11-6.34,11.06L152.92,16.8H165.6ZM151.12,5.58l6.24,10.89H144.88ZM144.31,16.8l-6.22,10.86L131.87,16.8Zm-40.43-11L110,16.47H97.76Zm-6.69,11L90.85,27.86,84.52,16.8H97.19ZM82.71,5.58,89,16.47H76.47ZM75.9,16.8,69.68,27.66,63.46,16.8Zm-40.42-11L41.6,16.47H29.35Zm-6.69,11L22.45,27.86,16.11,16.8H28.79ZM14.31,5.58l6.23,10.89H8.06ZM15.73,16.8l6.46,11.28H1.42L7.88,16.8ZM1.47,28.41H22.13l-6.3,11h-8ZM8,39.74H20.64L14.31,50.81Zm6.34,11.73,6.23,10.89H8.06Zm1.42,11.22L22.19,74H1.42L7.88,62.69ZM1.47,74.3H22.14l-6.31,11h-8ZM8,85.63H20.64L14.31,96.7Zm6.34,11.73,6.23,10.89H8.06Zm1.42,11.22,6.46,11.28H1.42l6.46-11.28ZM1.47,120.19H22.13l-6.3,11h-8ZM8,131.52H20.64l-6.33,11.06Zm6.34,11.73,6.23,10.89H8.06Zm1.42,11.23,6.46,11.27H1.42l6.46-11.27ZM1.47,166.08H22.13l-6.3,11h-8ZM8,177.42H20.64l-6.33,11.06Zm6.34,11.72L20.54,200H8.06Zm1.42,11.23,6.46,11.27H1.42l6.46-11.27ZM1.47,212H22.14l-6.31,11h-8ZM8,223.31H20.64l-6.33,11.06Zm.09,22.62L14.31,235l6.23,10.88H8.06Zm12.86,0L14.5,234.71,21,223.31h7.86l6.52,11.4L29,245.92Zm14.75-11H56.34l-6.31,11H42Zm19.74,11h-5L56.65,235l6.24,10.89Zm8.09,0,6.35-11.22h0l6.3-11.13,6.37,11.12-6.43,11.23Zm13,0L82.71,235,89,245.92H76.47Zm12.86,0L82.9,234.71l6.53-11.4h7.85l6.53,11.4-6.43,11.21Zm14.75-11h20.67l-6.31,11h-8Zm19.74,11h-5L125.06,235l6.24,10.89Zm8.09,0,6.35-11.22h0l6.3-11.13,6.37,11.12-6.43,11.23Zm13,0L151.12,235l6.24,10.88H144.88Zm12.86,0-6.43-11.21,6.53-11.4h7.85l6.53,11.4-6.43,11.21Zm14.75-11h20.66l-6.3,11h-8.06Zm19.74,11h-5L193.46,235l6.24,10.89Zm8.08,0,6.36-11.22h0L213,223.58l6.38,11.12-6.43,11.23Zm13,0L219.53,235l6.24,10.88H213.29Zm12.85,0-6.42-11.21,6.52-11.4h7.86l6.52,11.4-6.42,11.21Zm8.43,0,6.13-10.68,6.12,10.68Zm6.13-11.75-6.22-10.86h12.44ZM247.11,223H234.52l6.35-11.22h0l6.3-11.12,6.37,11.12ZM234.57,200l6.13-10.69L246.82,200Zm6.13-11.75-6.22-10.86h12.44Zm6.41-11.19H234.52l6.35-11.22h0l6.3-11.13,6.37,11.13Zm-12.54-23,6.13-10.69,6.12,10.69Zm6.13-11.75-6.22-10.86h12.44Zm6.41-11.19H234.52L240.87,120h0l6.3-11.13L253.54,120Zm-12.54-22.95,6.13-10.69,6.12,10.69ZM240.7,96.5l-6.22-10.86h12.44Zm6.41-11.19H234.52l6.35-11.22h0L247.17,63l6.37,11.12Zm-12.54-23,6.13-10.69,6.12,10.69Zm6.13-11.75-6.22-10.86h12.44Zm6.41-11.19H234.52l6.35-11.22h0l6.3-11.13,6.37,11.12Z"/></g></svg>