<svg xmlns="http://www.w3.org/2000/svg" viewBox="0 0 256 256"><defs><style>.cls-1{fill:#ba776e;}</style></defs><title>seamless_pattern07</title><g id="seamless_pattern07"><path class="cls-1" d="M249.13,14.33h-.21a7.74,7.74,0,0,1-7.72-7.58A8.45,8.45,0,0,0,249,0h-.34a8.09,8.09,0,0,1-7.44,6.42A8,8,0,0,0,237.66,0H237a7.66,7.66,0,0,1,3.83,6.45,8,8,0,0,0-7.64,7.88H233a7.73,7.73,0,0,1-7.72-7.56A8.06,8.06,0,0,0,233.07,0h-.33a7.72,7.72,0,0,1-7.45,6.44A8,8,0,0,0,221.82,0h-.62A7.71,7.71,0,0,1,225,6.47a8,8,0,0,0-7.5,7.86h-.21a7.73,7.73,0,0,1-7.72-7.56A8.08,8.08,0,0,0,217.3,0H217a7.72,7.72,0,0,1-7.45,6.44A8.07,8.07,0,0,0,206.05,0h-.63a7.73,7.73,0,0,1,3.76,6.47,8,8,0,0,0-7.51,7.86h-.21a7.72,7.72,0,0,1-7.71-7.58,8.62,8.62,0,0,0,5.47-2.47A7.87,7.87,0,0,0,201.51,0h-.34A7.63,7.63,0,0,1,199,4.06a8.29,8.29,0,0,1-5.26,2.36A7.87,7.87,0,0,0,191.28.85,7.74,7.74,0,0,0,190.22,0h-.63a8.53,8.53,0,0,1,1.46,1.09,7.58,7.58,0,0,1,2.35,5.36,8,8,0,0,0-7.64,7.88h-.2a7.72,7.72,0,0,1-7.71-7.56A8.08,8.08,0,0,0,185.62,0h-.34a7.72,7.72,0,0,1-7.45,6.44A8,8,0,0,0,174.36,0h-.62a7.71,7.71,0,0,1,3.76,6.47A8,8,0,0,0,170,14.33h-.21a7.72,7.72,0,0,1-7.71-7.56A8.07,8.07,0,0,0,169.84,0h-.34a7.72,7.72,0,0,1-7.45,6.44A8.07,8.07,0,0,0,158.59,0H158a7.72,7.72,0,0,1,3.75,6.47,8,8,0,0,0-7.51,7.86H154a7.73,7.73,0,0,1-7.71-7.58A8.43,8.43,0,0,0,154.05,0h-.34a8.08,8.08,0,0,1-7.43,6.42A7.93,7.93,0,0,0,143.82.85,7.18,7.18,0,0,0,142.76,0h-.62a8.09,8.09,0,0,1,1.45,1.09,7.54,7.54,0,0,1,2.35,5.36,8,8,0,0,0-7.64,7.88h-.2a7.72,7.72,0,0,1-7.71-7.56A8.07,8.07,0,0,0,138.16,0h-.34a7.72,7.72,0,0,1-7.45,6.44A8,8,0,0,0,126.91,0h-.63A7.71,7.71,0,0,1,130,6.47a8,8,0,0,0-7.51,7.86h-.21a7.73,7.73,0,0,1-7.71-7.56A8.06,8.06,0,0,0,122.38,0H122a7.71,7.71,0,0,1-7.45,6.44A8,8,0,0,0,111.13,0h-.62a7.72,7.72,0,0,1,3.75,6.47,8,8,0,0,0-7.51,7.86h-.2a7.74,7.74,0,0,1-7.72-7.58,8.62,8.62,0,0,0,5.48-2.47A7.94,7.94,0,0,0,106.6,0h-.34a7.58,7.58,0,0,1-2.19,4.06,8.29,8.29,0,0,1-5.25,2.36A7.88,7.88,0,0,0,96.36.85a7.66,7.66,0,0,0-1-.85h-.63a8.09,8.09,0,0,1,1.45,1.09,7.59,7.59,0,0,1,2.36,5.36,8,8,0,0,0-7.65,7.88h-.2a7.73,7.73,0,0,1-7.71-7.56A8.06,8.06,0,0,0,90.7,0h-.34a7.71,7.71,0,0,1-7.45,6.44A8,8,0,0,0,79.45,0h-.63a7.69,7.69,0,0,1,3.76,6.47,8,8,0,0,0-7.5,7.86h-.21a7.73,7.73,0,0,1-7.72-7.56A8.06,8.06,0,0,0,74.92,0h-.33a7.73,7.73,0,0,1-7.45,6.44A8.07,8.07,0,0,0,63.67,0h-.62A7.72,7.72,0,0,1,66.8,6.47a8,8,0,0,0-7.5,7.86h-.21a7.74,7.74,0,0,1-7.72-7.58A8.45,8.45,0,0,0,59.14,0H58.8a8.09,8.09,0,0,1-7.44,6.42A7.87,7.87,0,0,0,48.91.85,7.74,7.74,0,0,0,47.85,0h-.63a8.09,8.09,0,0,1,1.45,1.09A7.55,7.55,0,0,1,51,6.45a8,8,0,0,0-7.64,7.88h-.2a7.73,7.73,0,0,1-7.72-7.56A8.06,8.06,0,0,0,43.24,0h-.33a7.73,7.73,0,0,1-7.45,6.44A8,8,0,0,0,32,0h-.62a7.71,7.71,0,0,1,3.75,6.47,8,8,0,0,0-7.5,7.86h-.21a7.73,7.73,0,0,1-7.72-7.56A8.08,8.08,0,0,0,27.47,0h-.34a7.72,7.72,0,0,1-7.45,6.44A8.07,8.07,0,0,0,16.22,0h-.63a7.72,7.72,0,0,1,3.75,6.47,8,8,0,0,0-7.5,7.86h-.21A7.72,7.72,0,0,1,3.92,6.76,8.62,8.62,0,0,0,9.39,4.29,7.87,7.87,0,0,0,11.68,0h-.34A7.63,7.63,0,0,1,9.16,4.06,8.29,8.29,0,0,1,3.9,6.42,8,8,0,0,0,.37,0H0V.15a7.67,7.67,0,0,1,3.57,6.3A8.11,8.11,0,0,0,0,7.49v.38A7.62,7.62,0,0,1,3.58,6.79v.1h0a8.06,8.06,0,0,0,8,7.78h.19a7.71,7.71,0,0,1-7.55,7.55H3.94A7.77,7.77,0,0,1,0,21.14v.39a8.09,8.09,0,0,0,3.94,1H4a7.87,7.87,0,0,1-2.07,5.6A6.79,6.79,0,0,1,0,29.46v.36a6.85,6.85,0,0,0,2.15-1.43,8.13,8.13,0,0,0,2.16-5.8c3.8.15,6.85,3.45,7.07,7.67a8.06,8.06,0,0,0-7.86,7.87A7.62,7.62,0,0,1,0,37.21v.37a8.1,8.1,0,0,0,3.5.89A7.68,7.68,0,0,1,0,44.77v.39a8,8,0,0,0,3.84-6.68,7.73,7.73,0,0,1,7.55,7.57,8,8,0,0,0-7.5,7.86H3.68A7.62,7.62,0,0,1,0,53v.38a8,8,0,0,0,3.68.89h.19A8,8,0,0,1,0,60.69v.39A8.39,8.39,0,0,0,4.19,54.5h0a1.93,1.93,0,0,1,0-.24A7.74,7.74,0,0,1,11.77,62h0v.17a8,8,0,0,1-8,7.71H3.6a8.23,8.23,0,0,1-3.6-1v.38a8.66,8.66,0,0,0,3.58.92,8.07,8.07,0,0,0,7.87,7.88,7.46,7.46,0,0,1-2.29,5.17A8.29,8.29,0,0,1,3.9,85.58,8,8,0,0,0,0,78.92v.39a7.65,7.65,0,0,1,3.57,6.3,7.85,7.85,0,0,0-3.57,1V87A7.62,7.62,0,0,1,3.58,86v.1h0a8.06,8.06,0,0,0,8,7.78h.19a7.71,7.71,0,0,1-7.55,7.55H3.94A7.68,7.68,0,0,1,0,100.29v.4a8.09,8.09,0,0,0,3.94,1H4a7.85,7.85,0,0,1-2.07,5.59A6.39,6.39,0,0,1,0,108.61V109a6.66,6.66,0,0,0,2.15-1.42,8.14,8.14,0,0,0,2.16-5.81c3.8.16,6.85,3.46,7.07,7.68a8,8,0,0,0-7.86,7.87A7.62,7.62,0,0,1,0,116.37v.37a8.1,8.1,0,0,0,3.5.89,7.7,7.7,0,0,1-3.5,6.3v.39a8,8,0,0,0,3.84-6.68,7.73,7.73,0,0,1,7.55,7.57,8,8,0,0,0-7.5,7.86H3.68A7.62,7.62,0,0,1,0,132.14v.37a8,8,0,0,0,3.68.9h.19A8,8,0,0,1,0,139.85v.38a8.36,8.36,0,0,0,4.19-6.57h0a1.93,1.93,0,0,1,0-.24,7.74,7.74,0,0,1,7.55,7.69h0v.16a8,8,0,0,1-8,7.72H3.6A8.23,8.23,0,0,1,0,148v.38a8.82,8.82,0,0,0,3.58.92,8.07,8.07,0,0,0,7.87,7.88,7.42,7.42,0,0,1-2.29,5.16,8.3,8.3,0,0,1-5.26,2.37A8,8,0,0,0,0,158.08v.39a7.65,7.65,0,0,1,3.57,6.3,7.85,7.85,0,0,0-3.57,1v.38a7.62,7.62,0,0,1,3.58-1.08v.1h0a8.06,8.06,0,0,0,8,7.78h.19a7.71,7.71,0,0,1-7.57,7.55H3.94A7.68,7.68,0,0,1,0,179.45v.39a8,8,0,0,0,3.94,1H4a7.85,7.85,0,0,1-2.07,5.59A6.39,6.39,0,0,1,0,187.77v.36a6.66,6.66,0,0,0,2.15-1.42,8.15,8.15,0,0,0,2.16-5.81c3.8.16,6.85,3.46,7.07,7.68a8.06,8.06,0,0,0-7.86,7.87A7.5,7.5,0,0,1,0,195.52v.38a8,8,0,0,0,3.5.88A7.7,7.7,0,0,1,0,203.09v.39a8,8,0,0,0,3.84-6.68,7.72,7.72,0,0,1,7.55,7.57,8,8,0,0,0-7.5,7.86H3.68A7.62,7.62,0,0,1,0,211.3v.37a8,8,0,0,0,3.68.9h.19A8,8,0,0,1,0,219v.38a8.36,8.36,0,0,0,4.19-6.57h0a1.93,1.93,0,0,1,0-.24,7.73,7.73,0,0,1,7.55,7.69h0v.16a8,8,0,0,1-8,7.72H3.6a8.23,8.23,0,0,1-3.6-1v.37a8.66,8.66,0,0,0,3.58.92,8.05,8.05,0,0,0,7.87,7.88,7.42,7.42,0,0,1-2.29,5.17A8.3,8.3,0,0,1,3.9,243.9,8,8,0,0,0,0,237.24v.39a7.65,7.65,0,0,1,3.57,6.3A7.85,7.85,0,0,0,0,245v.38a7.62,7.62,0,0,1,3.58-1.08v.1h0a8.06,8.06,0,0,0,8,7.78h.19A7.67,7.67,0,0,1,10.69,256h.39a8,8,0,0,0,1.08-3.84A7.12,7.12,0,0,1,18.29,256h.39a7.47,7.47,0,0,0-6.51-4.17,7.71,7.71,0,0,1,7.19-7.54,8.06,8.06,0,0,0,8.05,7.86h.19A7.35,7.35,0,0,1,26.37,256h.4a7.76,7.76,0,0,0,1.15-3.6h0a1.93,1.93,0,0,1,0-.24A7.7,7.7,0,0,1,34.44,256h.4A8.06,8.06,0,0,0,28,251.83a7.69,7.69,0,0,1,7.19-7.54,8.06,8.06,0,0,0,8,7.86h.16c0,.1,0,.2,0,.3A7.6,7.6,0,0,1,42.25,256h.39a7.85,7.85,0,0,0,.89-2.29,8.14,8.14,0,0,0,.89,2.29h.39a7.72,7.72,0,0,1-1.11-3.55c0-.16,0-.31,0-.47h0A7.7,7.7,0,0,1,51,244.27v.1h0a8.05,8.05,0,0,0,8,7.78h.19A7.67,7.67,0,0,1,58.15,256h.39a8,8,0,0,0,1.07-3.84A7.14,7.14,0,0,1,65.75,256h.39a7.47,7.47,0,0,0-6.51-4.17,7.69,7.69,0,0,1,7.19-7.54,8.06,8.06,0,0,0,8.05,7.86h.19A7.35,7.35,0,0,1,73.83,256h.4a7.88,7.88,0,0,0,1.15-3.6h0v-.24A7.7,7.7,0,0,1,81.9,256h.39a8,8,0,0,0-6.88-4.17,7.69,7.69,0,0,1,7.19-7.54,8.06,8.06,0,0,0,8,7.86h.17c0,.1,0,.2,0,.3A7.72,7.72,0,0,1,89.71,256h.39a8.14,8.14,0,0,0,.89-2.29,7.85,7.85,0,0,0,.89,2.29h.39a7.6,7.6,0,0,1-1.11-3.55c0-.16,0-.31,0-.47h0a7.69,7.69,0,0,1,7.32-7.71.34.34,0,0,1,0,.1h0a8.07,8.07,0,0,0,8,7.78h.19a7.67,7.67,0,0,1-1.13,3.86H106a8.06,8.06,0,0,0,1.07-3.84,7.15,7.15,0,0,1,6.14,3.84h.38a7.47,7.47,0,0,0-6.5-4.17,7.69,7.69,0,0,1,7.19-7.54,8.06,8.06,0,0,0,8,7.86h.2a7.53,7.53,0,0,1-1.23,3.85h.39a7.77,7.77,0,0,0,1.16-3.6h0a1.93,1.93,0,0,0,0-.24,7.71,7.71,0,0,1,6.5,3.84h.39a8,8,0,0,0-6.88-4.17,7.69,7.69,0,0,1,7.18-7.54,8.07,8.07,0,0,0,8,7.86h.16c0,.1,0,.2,0,.3a7.73,7.73,0,0,1-1.12,3.55h.39a7.87,7.87,0,0,0,.9-2.29,7.85,7.85,0,0,0,.89,2.29h.39a7.73,7.73,0,0,1-1.12-3.55c0-.16,0-.31,0-.47h0a7.69,7.69,0,0,1,7.32-7.71v.1h0a8.06,8.06,0,0,0,8,7.78h.2a7.67,7.67,0,0,1-1.13,3.86h.39a8.06,8.06,0,0,0,1.07-3.84,7.15,7.15,0,0,1,6.14,3.84h.38a7.47,7.47,0,0,0-6.5-4.17,7.69,7.69,0,0,1,7.18-7.54,8.07,8.07,0,0,0,8.05,7.86H170a7.43,7.43,0,0,1-1.22,3.85h.39a7.65,7.65,0,0,0,1.15-3.6h0a1.93,1.93,0,0,1,0-.24,7.73,7.73,0,0,1,6.5,3.84h.39a8.06,8.06,0,0,0-6.89-4.17,7.7,7.7,0,0,1,7.19-7.54,8.07,8.07,0,0,0,8.05,7.86h.16c0,.1,0,.2,0,.3a7.73,7.73,0,0,1-1.12,3.55H185a7.58,7.58,0,0,0,.89-2.29,7.87,7.87,0,0,0,.9,2.29h.39a7.73,7.73,0,0,1-1.12-3.55c0-.16,0-.31,0-.47h0a7.68,7.68,0,0,1,7.32-7.71v.1h0a8.05,8.05,0,0,0,8,7.78h.19a7.67,7.67,0,0,1-1.13,3.86h.39a8,8,0,0,0,1.08-3.84,7.15,7.15,0,0,1,6.14,3.84h.38a7.47,7.47,0,0,0-6.51-4.17,7.7,7.7,0,0,1,7.19-7.54,8.07,8.07,0,0,0,8.05,7.86h.19A7.35,7.35,0,0,1,216.2,256h.4a7.76,7.76,0,0,0,1.15-3.6h0a1.93,1.93,0,0,1,0-.24,7.73,7.73,0,0,1,6.5,3.84h.39a8.06,8.06,0,0,0-6.89-4.17,7.69,7.69,0,0,1,7.19-7.54,8.06,8.06,0,0,0,8.05,7.86h.16c0,.1,0,.2,0,.3a7.6,7.6,0,0,1-1.11,3.55h.39a7.85,7.85,0,0,0,.89-2.29,8.14,8.14,0,0,0,.89,2.29h.39a7.72,7.72,0,0,1-1.11-3.55c0-.16,0-.31,0-.47h0a7.7,7.7,0,0,1,7.33-7.71v.1h0a8.05,8.05,0,0,0,8,7.78h.19A7.67,7.67,0,0,1,248,256h.39a8.07,8.07,0,0,0,1.08-3.84,7.13,7.13,0,0,1,6.13,3.84H256a7.47,7.47,0,0,0-6.51-4.17,7.71,7.71,0,0,1,6.54-7.48V244a8,8,0,0,0-6.87,7.8h-.21a7.73,7.73,0,0,1-7.72-7.57,8.34,8.34,0,0,0,7.87-7.86A7.72,7.72,0,0,1,256,241v-.77a8.05,8.05,0,0,0-6.91-4.2,7.72,7.72,0,0,1,6.91-7.52v-.34a8.06,8.06,0,0,0-7.24,7.84h0a7.72,7.72,0,0,1-7.55-7.55,8.33,8.33,0,0,0,8.18-7.88,7.33,7.33,0,0,1,6.62,4.55v-.79a7.64,7.64,0,0,0-5.6-4,8.09,8.09,0,0,0,5.6-3.62v-.65a7.74,7.74,0,0,1-6.62,4,8.05,8.05,0,0,0-7.87-7.87,7.69,7.69,0,0,1,7.19-7.54,8.06,8.06,0,0,0,7.3,7.82v-.33a7.72,7.72,0,0,1-7-7.53,8,8,0,0,0,7-4.33v-.79a7.73,7.73,0,0,1-7,4.79,8.05,8.05,0,0,0-7.87-7.87,7.74,7.74,0,0,1,7.56-7.56,8.07,8.07,0,0,0,7.3,7.85v-.34a7.72,7.72,0,0,1-7-7.52,8.07,8.07,0,0,0,7-4.34v-.79a7.74,7.74,0,0,1-7,4.8,8.24,8.24,0,0,0-6.11-7.83,8.08,8.08,0,0,0,6.55-7.74,7.23,7.23,0,0,1,6.55,4.72v-.82a7.47,7.47,0,0,0-6.54-4.23,7.71,7.71,0,0,1,6.54-7.48v-.34a8,8,0,0,0-6.87,7.8h-.21a7.74,7.74,0,0,1-7.72-7.58,8.34,8.34,0,0,0,7.87-7.86,7.72,7.72,0,0,1,6.93,4.64v-.77a8.05,8.05,0,0,0-6.91-4.2,7.72,7.72,0,0,1,6.91-7.52V149a8.06,8.06,0,0,0-7.24,7.84h0a7.72,7.72,0,0,1-7.55-7.55,8.33,8.33,0,0,0,8.18-7.88A7.33,7.33,0,0,1,256,146v-.79a7.64,7.64,0,0,0-5.6-4,8.05,8.05,0,0,0,5.6-3.62v-.65a7.72,7.72,0,0,1-6.62,4,8.05,8.05,0,0,0-7.87-7.87,7.69,7.69,0,0,1,7.19-7.54,8.06,8.06,0,0,0,7.3,7.82V133a7.72,7.72,0,0,1-7-7.53,8,8,0,0,0,7-4.33v-.79a7.72,7.72,0,0,1-7,4.79,8.05,8.05,0,0,0-7.87-7.87,7.74,7.74,0,0,1,7.56-7.56,8.07,8.07,0,0,0,7.3,7.85v-.34a7.72,7.72,0,0,1-7-7.52,8.07,8.07,0,0,0,7-4.34v-.78a7.75,7.75,0,0,1-7,4.79,8.24,8.24,0,0,0-6.11-7.83,8.08,8.08,0,0,0,6.55-7.74A7.23,7.23,0,0,1,256,98.56v-.82a7.47,7.47,0,0,0-6.54-4.23A7.69,7.69,0,0,1,256,86v-.35a8,8,0,0,0-6.87,7.8h-.21a7.74,7.74,0,0,1-7.72-7.58,8.34,8.34,0,0,0,7.87-7.86A7.74,7.74,0,0,1,256,82.7v-.76a8,8,0,0,0-6.91-4.21A7.73,7.73,0,0,1,256,70.21v-.34a8.06,8.06,0,0,0-7.24,7.84h0a7.72,7.72,0,0,1-7.55-7.55,8.33,8.33,0,0,0,8.18-7.88A7.35,7.35,0,0,1,256,66.83V66a7.64,7.64,0,0,0-5.6-4,8.05,8.05,0,0,0,5.6-3.62v-.64a7.73,7.73,0,0,1-6.62,4,8.05,8.05,0,0,0-7.87-7.87,7.69,7.69,0,0,1,7.19-7.54,8.07,8.07,0,0,0,7.3,7.83v-.34a7.72,7.72,0,0,1-7-7.52A8.07,8.07,0,0,0,256,42v-.79A7.72,7.72,0,0,1,249,46a8.05,8.05,0,0,0-7.87-7.87,7.74,7.74,0,0,1,7.56-7.56,8.06,8.06,0,0,0,7.3,7.85V38.1a7.72,7.72,0,0,1-7-7.52,8.07,8.07,0,0,0,7-4.34v-.78a7.73,7.73,0,0,1-7,4.79,8.24,8.24,0,0,0-6.11-7.83,8.08,8.08,0,0,0,6.55-7.74A7.23,7.23,0,0,1,256,19.4v-.82a7.47,7.47,0,0,0-6.54-4.23A7.69,7.69,0,0,1,256,6.88V6.53A8,8,0,0,0,249.13,14.33Zm-15.77,1.9a8.06,8.06,0,0,0,7.87,6.33h0a7.87,7.87,0,0,1-2.07,5.6,8.29,8.29,0,0,1-6,2.09,7.85,7.85,0,0,0-6.57-7.78A8.08,8.08,0,0,0,233.36,16.23ZM11.74,188.9a8.07,8.07,0,0,0,7.77-6.74,7.47,7.47,0,0,0,2.16,4.33,8.36,8.36,0,0,0,5.64,2.41,8.05,8.05,0,0,0,7.87,7.88,8,8,0,0,1-7.55,7.54,8.13,8.13,0,0,0-8.17-7.86h0A7.73,7.73,0,0,1,11.74,188.9Zm0-79.16A8.07,8.07,0,0,0,19.51,103a7.47,7.47,0,0,0,2.16,4.33,8.41,8.41,0,0,0,5.64,2.42,8.07,8.07,0,0,0,7.87,7.88,8,8,0,0,1-7.55,7.53,8.13,8.13,0,0,0-8.17-7.86h0A7.73,7.73,0,0,1,11.74,109.74Zm0-79.16a8.06,8.06,0,0,0,7.77-6.74,7.53,7.53,0,0,0,2.16,4.34,8.45,8.45,0,0,0,5.64,2.41,8.07,8.07,0,0,0,7.87,7.88A8,8,0,0,1,27.63,46a8.13,8.13,0,0,0-8.17-7.86h0A7.73,7.73,0,0,1,11.74,30.58ZM177.91,196.47a7.72,7.72,0,0,1,7.55-7.56,8.06,8.06,0,0,0,7.87,7.87,7.71,7.71,0,0,1-7.55,7.56A8.05,8.05,0,0,0,177.91,196.47Zm7.71,8h0Zm-55.17-8a7.74,7.74,0,0,1,7.56-7.56,8.05,8.05,0,0,0,7.87,7.87,7.73,7.73,0,0,1-7.56,7.56A8.05,8.05,0,0,0,130.45,196.47Zm7.71,8h0Zm-55.17-8a7.74,7.74,0,0,1,7.56-7.56,8.05,8.05,0,0,0,7.87,7.87,7.71,7.71,0,0,1-7.56,7.56A8.05,8.05,0,0,0,83,196.47Zm7.72,8h0Zm-55.17-8a7.72,7.72,0,0,1,7.55-7.56A8.05,8.05,0,0,0,51,196.78a7.71,7.71,0,0,1-7.55,7.56A8.05,8.05,0,0,0,35.54,196.47Zm7.71,8h0ZM20,212.4a7.7,7.7,0,0,1,7.33-7.71v.1h0a8.05,8.05,0,0,0,8,7.78h.19A7.72,7.72,0,0,1,28,220.12h-.32a7.73,7.73,0,0,1-7.7-7.26c0-.16,0-.31,0-.47Zm15.38-.16a7.72,7.72,0,0,1-7.71-7.58,8.34,8.34,0,0,0,7.86-7.86,7.71,7.71,0,0,1,7.56,7.57,8,8,0,0,0-7.5,7.86ZM20,133.25a7.71,7.71,0,0,1,7.33-7.72v.1h0a8.05,8.05,0,0,0,8,7.78h.19A7.71,7.71,0,0,1,28,141h-.31a7.73,7.73,0,0,1-7.7-7.26c0-.16,0-.31,0-.46Zm0-79.16a7.71,7.71,0,0,1,7.33-7.72v.1h0a8,8,0,0,0,8,7.78h.19A7.71,7.71,0,0,1,28,61.8h-.32A7.73,7.73,0,0,1,20,54.55c0-.16,0-.31,0-.46Zm31.16.16h.19a8.22,8.22,0,0,1-8,7.68c-.09-4.44-3.31-7.91-7.45-8a7.7,7.7,0,0,1,7.19-7.54A8.06,8.06,0,0,0,51.14,54.25Zm-7.89-8.06Zm55.34,8.06h.2a8.23,8.23,0,0,1-8,7.68c-.09-4.44-3.31-7.91-7.45-8a7.69,7.69,0,0,1,7.19-7.54A8.06,8.06,0,0,0,98.59,54.25Zm-7.88-8.06Zm55.34,8.06h.19a8.21,8.21,0,0,1-8,7.68c-.08-4.44-3.3-7.91-7.44-8A7.69,7.69,0,0,1,138,46.39,8.06,8.06,0,0,0,146.05,54.25Zm-7.89-8.06Zm55.35,8.06h.19a8.21,8.21,0,0,1-8,7.68c-.08-4.44-3.31-7.91-7.44-8a7.69,7.69,0,0,1,7.18-7.54A8.07,8.07,0,0,0,193.51,54.25Zm-7.89-8.06Zm32.16,47.65a7.74,7.74,0,0,1,7.55,7.69h0v.17a8,8,0,0,1-8,7.71h-.14a7.58,7.58,0,0,1-7.56-7.57,8.59,8.59,0,0,0,8.15-7.76h0A1.93,1.93,0,0,1,217.78,93.84Zm0,79.16a7.74,7.74,0,0,1,7.55,7.69h0v.16a8,8,0,0,1-8,7.72h-.14a8.08,8.08,0,0,1-5.42-2.31A7.21,7.21,0,0,1,209.6,181a8.59,8.59,0,0,0,8.15-7.76h0A1.93,1.93,0,0,1,217.78,173Zm-16.21,15.9a8.07,8.07,0,0,0,7.77-6.74,7.47,7.47,0,0,0,2.16,4.33,8.36,8.36,0,0,0,5.64,2.41,8.05,8.05,0,0,0,7.87,7.88,7.51,7.51,0,0,1-2.29,5.17,8.32,8.32,0,0,1-5.26,2.37,8.13,8.13,0,0,0-8.17-7.86h0A7.73,7.73,0,0,1,201.57,188.9Zm-47.45,0a8.07,8.07,0,0,0,7.76-6.74,7.59,7.59,0,0,0,2.16,4.33,8.38,8.38,0,0,0,5.64,2.41,8.05,8.05,0,0,0,7.87,7.88,8,8,0,0,1-7.55,7.54,7.86,7.86,0,0,0-2.45-5.57,8.28,8.28,0,0,0-5.72-2.29h0A7.72,7.72,0,0,1,154.12,188.9Zm-47.46,0a8.07,8.07,0,0,0,7.76-6.74,7.55,7.55,0,0,0,2.17,4.33,8.36,8.36,0,0,0,5.64,2.41,8,8,0,0,0,7.86,7.88A7.42,7.42,0,0,1,127.8,202a8.3,8.3,0,0,1-5.25,2.37,8.14,8.14,0,0,0-8.18-7.86h0A7.72,7.72,0,0,1,106.66,188.9Zm-47.46,0A8.08,8.08,0,0,0,67,182.16a7.47,7.47,0,0,0,2.16,4.33,8.36,8.36,0,0,0,5.64,2.41,8,8,0,0,0,7.87,7.88A7.51,7.51,0,0,1,80.35,202a8.35,8.35,0,0,1-5.26,2.37,7.87,7.87,0,0,0-2.46-5.57,8.25,8.25,0,0,0-5.71-2.29h0A7.73,7.73,0,0,1,59.2,188.9ZM51.68,54.26A7.74,7.74,0,0,1,59.23,62h0v.17a8,8,0,0,1-8,7.71h-.15a8.08,8.08,0,0,1-5.41-2.31,7.19,7.19,0,0,1-2.14-5.26,8.59,8.59,0,0,0,8.15-7.76h0Zm47.46,0A7.73,7.73,0,0,1,106.68,62h0v.17a8,8,0,0,1-8,7.71h-.15A7.56,7.56,0,0,1,91,62.26a8.59,8.59,0,0,0,8.15-7.76h0Zm47.45,0A7.74,7.74,0,0,1,154.14,62h0v.17a8,8,0,0,1-8,7.71H146a8.08,8.08,0,0,1-5.42-2.31,7.23,7.23,0,0,1-2.14-5.26,8.59,8.59,0,0,0,8.16-7.76h0A1.93,1.93,0,0,0,146.59,54.26Zm47.46,0A7.74,7.74,0,0,1,201.6,62h0v.17a8,8,0,0,1-8,7.71h-.14a7.57,7.57,0,0,1-7.56-7.57A8.59,8.59,0,0,0,194,54.5h0A1.93,1.93,0,0,1,194.05,54.26ZM35.47,149.32a8.07,8.07,0,0,0,7.77-6.74,7.47,7.47,0,0,0,2.16,4.33A8.41,8.41,0,0,0,51,149.33a8.07,8.07,0,0,0,7.87,7.88,8,8,0,0,1-7.55,7.53,7.9,7.9,0,0,0-2.45-5.57,8.29,8.29,0,0,0-5.72-2.29h0A7.73,7.73,0,0,1,35.47,149.32Zm8.24-55.65A7.71,7.71,0,0,1,51,86v.1h0a8.05,8.05,0,0,0,8,7.78h.19a7.72,7.72,0,0,1-7.56,7.55H51.4a7.73,7.73,0,0,1-7.7-7.26c0-.16,0-.31,0-.46Zm-.32-.18h-.2a7.73,7.73,0,0,1-7.72-7.57,8,8,0,0,0,7.87-7.87,7.88,7.88,0,0,1,5.33,2.19A7.55,7.55,0,0,1,51,85.61,8,8,0,0,0,43.39,93.49Zm134.46,55.83a8.07,8.07,0,0,0,7.76-6.74,8,8,0,0,0,7.8,6.74,8.07,8.07,0,0,0,7.87,7.89,7.42,7.42,0,0,1-2.29,5.16,8.3,8.3,0,0,1-5.26,2.37,7.86,7.86,0,0,0-2.45-5.57,8.28,8.28,0,0,0-5.72-2.29h0A7.72,7.72,0,0,1,177.85,149.32Zm-23.67,7.57a7.72,7.72,0,0,1,7.55-7.56,8.07,8.07,0,0,0,7.88,7.88,7.72,7.72,0,0,1-7.56,7.55A8.05,8.05,0,0,0,154.18,156.89Zm7.71,8h0Zm-31.5-15.61a8.07,8.07,0,0,0,7.76-6.74,7.55,7.55,0,0,0,2.17,4.33,8.41,8.41,0,0,0,5.64,2.42,8.05,8.05,0,0,0,7.86,7.88,8,8,0,0,1-7.54,7.53,7.91,7.91,0,0,0-2.46-5.57,8.26,8.26,0,0,0-5.72-2.29h0A7.72,7.72,0,0,1,130.39,149.32Zm-47.46,0a8.07,8.07,0,0,0,7.76-6.74,8,8,0,0,0,7.81,6.74,8.06,8.06,0,0,0,7.87,7.89,7.47,7.47,0,0,1-2.3,5.16,8.3,8.3,0,0,1-5.25,2.37,7.87,7.87,0,0,0-2.46-5.57,8.26,8.26,0,0,0-5.72-2.29h0A7.73,7.73,0,0,1,82.93,149.32Zm-23.67,7.57a7.74,7.74,0,0,1,7.56-7.56,8.06,8.06,0,0,0,7.87,7.88,7.71,7.71,0,0,1-7.55,7.55A8.06,8.06,0,0,0,59.26,156.89Zm7.72,8h0Zm7.89-71.1h.19a8.22,8.22,0,0,1-8,7.68c-.09-4.44-3.31-7.91-7.45-8A7.69,7.69,0,0,1,66.82,86,8.06,8.06,0,0,0,74.87,93.83ZM67,85.77Zm8.43,8.07A7.73,7.73,0,0,1,83,101.53h0v.17a8,8,0,0,1-8,7.71h-.15a8.08,8.08,0,0,1-5.41-2.31,7.21,7.21,0,0,1-2.14-5.26,8.59,8.59,0,0,0,8.15-7.76h0Zm47.45,0a7.73,7.73,0,0,1,7.55,7.69h0v.17a8,8,0,0,1-8,7.71h-.15a7.59,7.59,0,0,1-7.56-7.57,8.59,8.59,0,0,0,8.16-7.76h0A1.93,1.93,0,0,0,122.86,93.84Zm46.92,0H170a8.21,8.21,0,0,1-8,7.68c-.08-4.44-3.31-7.91-7.44-8A7.69,7.69,0,0,1,161.73,86,8.07,8.07,0,0,0,169.78,93.83Zm-7.89-8.06Zm8.43,8.07a7.74,7.74,0,0,1,7.55,7.69h0v.17a8,8,0,0,1-8,7.71h-.14a8.08,8.08,0,0,1-5.42-2.31,7.21,7.21,0,0,1-2.14-5.26,8.57,8.57,0,0,0,8.15-7.76h0A1.93,1.93,0,0,1,170.32,93.84ZM59.2,109.74A8.08,8.08,0,0,0,67,103a7.47,7.47,0,0,0,2.16,4.33,8.41,8.41,0,0,0,5.64,2.42,8.06,8.06,0,0,0,7.87,7.88,7.5,7.5,0,0,1-2.29,5.16,8.29,8.29,0,0,1-5.26,2.37,7.87,7.87,0,0,0-2.46-5.57,8.21,8.21,0,0,0-5.71-2.29h0A7.73,7.73,0,0,1,59.2,109.74Zm102.63,23.34a7.72,7.72,0,0,1-7.71-7.57,8.05,8.05,0,0,0,7.87-7.87,7.92,7.92,0,0,1,5.33,2.19,7.58,7.58,0,0,1,2.35,5.36,8,8,0,0,0-7.64,7.88Zm.18.63a7.72,7.72,0,0,1-7.54,7.25,8.06,8.06,0,0,0-7.87-7.87,7.69,7.69,0,0,1,7.18-7.54,8.07,8.07,0,0,0,8.05,7.86H162C162,133.51,162,133.61,162,133.71Zm.35-.46a7.69,7.69,0,0,1,7.32-7.72v.1h0a8.06,8.06,0,0,0,8,7.78h.19a7.71,7.71,0,0,1-7.57,7.55H170a7.73,7.73,0,0,1-7.7-7.26c0-.16,0-.31,0-.46Zm15.37-.17A7.72,7.72,0,0,1,170,125.5a8.36,8.36,0,0,0,7.87-7.86,7.73,7.73,0,0,1,7.56,7.57,8,8,0,0,0-7.51,7.86Zm-.16-15.79h0a7.73,7.73,0,0,1-7.55-7.55,8.33,8.33,0,0,0,8.18-7.88,7.5,7.5,0,0,1,7.26,7.56A8.07,8.07,0,0,0,177.57,117.29Zm0,.34a8,8,0,0,1-7.55,7.53,7.86,7.86,0,0,0-2.45-5.57,8.28,8.28,0,0,0-5.72-2.29h0a7.72,7.72,0,0,1-7.71-7.56,8.07,8.07,0,0,0,7.76-6.74,7.59,7.59,0,0,0,2.16,4.33,8.43,8.43,0,0,0,5.64,2.42A8.07,8.07,0,0,0,177.55,117.63Zm-15.9,0a7.71,7.71,0,0,1-7.55,7.55,8.05,8.05,0,0,0-7.87-7.87,7.72,7.72,0,0,1,7.55-7.56A8.07,8.07,0,0,0,161.65,117.63Zm-7.88,7.58a8,8,0,0,0-7.51,7.86h-.21a7.72,7.72,0,0,1-7.71-7.57,8.05,8.05,0,0,0,7.87-7.87A7.74,7.74,0,0,1,153.77,125.21Zm-15.45,0a8.05,8.05,0,0,0-7.87-7.87,7.74,7.74,0,0,1,7.56-7.56,8.06,8.06,0,0,0,7.87,7.88A7.72,7.72,0,0,1,138.32,125.18Zm-.16.17h0Zm-23.79,7.73a7.72,7.72,0,0,1-7.71-7.57,8,8,0,0,0,7.87-7.87,7.79,7.79,0,0,1,7.68,7.55,8,8,0,0,0-7.64,7.88Zm.18.63A7.72,7.72,0,0,1,107,141a8.05,8.05,0,0,0-7.87-7.87,7.69,7.69,0,0,1,7.19-7.54,8.06,8.06,0,0,0,8,7.86h.17C114.54,133.51,114.54,133.61,114.55,133.71Zm.35-.46a7.7,7.7,0,0,1,7.32-7.72v.1h0a8.07,8.07,0,0,0,8,7.78h.2a7.73,7.73,0,0,1-7.58,7.55h-.31a7.72,7.72,0,0,1-7.69-7.26c0-.16,0-.31,0-.46Zm15.37-.17a7.73,7.73,0,0,1-7.71-7.58A8.62,8.62,0,0,0,128,123a7.79,7.79,0,0,0,2.39-5.39,7.72,7.72,0,0,1,7.56,7.57,8,8,0,0,0-7.51,7.86Zm-.15-15.79h0a7.71,7.71,0,0,1-7.54-7.55,8.32,8.32,0,0,0,8.17-7.88,7.5,7.5,0,0,1,7.26,7.56A8.05,8.05,0,0,0,130.12,117.29Zm0,.34a7.42,7.42,0,0,1-2.29,5.16,8.25,8.25,0,0,1-5.25,2.37,8.14,8.14,0,0,0-8.18-7.86h0a7.72,7.72,0,0,1-7.71-7.56,8.06,8.06,0,0,0,7.76-6.74,8,8,0,0,0,7.81,6.75A8.06,8.06,0,0,0,130.09,117.63Zm-15.89,0a7.72,7.72,0,0,1-7.56,7.55,8.05,8.05,0,0,0-7.87-7.87,7.73,7.73,0,0,1,7.56-7.56A8.06,8.06,0,0,0,114.2,117.63Zm-7.89,7.58a8,8,0,0,0-7.51,7.86h-.21a7.73,7.73,0,0,1-7.71-7.57,8.05,8.05,0,0,0,7.87-7.87A7.74,7.74,0,0,1,106.31,125.21Zm-15.45,0A8.05,8.05,0,0,0,83,117.31a7.74,7.74,0,0,1,7.56-7.56,8.06,8.06,0,0,0,7.87,7.88A7.71,7.71,0,0,1,90.86,125.18Zm-.15.17h0Zm-23.27,7.9a7.7,7.7,0,0,1,7.32-7.72s0,.07,0,.1h0a8.07,8.07,0,0,0,8,7.78H83A7.73,7.73,0,0,1,75.43,141h-.3a7.72,7.72,0,0,1-7.7-7.26c0-.16,0-.31,0-.46Zm15.38-.17a7.74,7.74,0,0,1-7.72-7.58A8.62,8.62,0,0,0,80.58,123,7.79,7.79,0,0,0,83,117.64a7.71,7.71,0,0,1,7.56,7.57,8,8,0,0,0-7.5,7.86Zm-.16-15.79h0a7.72,7.72,0,0,1-7.55-7.55,8.31,8.31,0,0,0,8.17-7.88,7.5,7.5,0,0,1,7.26,7.56A8.05,8.05,0,0,0,82.66,117.29Zm-15.59.35a7.9,7.9,0,0,1,5.33,2.19,7.55,7.55,0,0,1,2.36,5.36,8,8,0,0,0-7.64,7.88h-.2a7.73,7.73,0,0,1-7.72-7.57A8.05,8.05,0,0,0,67.07,117.64ZM67.26,135a8.06,8.06,0,0,0,7.87,6.33h0a7.85,7.85,0,0,1-2.07,5.59,8.25,8.25,0,0,1-6,2.1,7.84,7.84,0,0,0-6.58-7.78A8.08,8.08,0,0,0,67.26,135Zm6.08,12.16a8.18,8.18,0,0,0,2.16-5.81c3.79.16,6.85,3.46,7.07,7.68a8,8,0,0,0-7.86,7.87,7.72,7.72,0,0,1-7.56-7.55A8.58,8.58,0,0,0,73.34,147.13Zm3.46-6a8.06,8.06,0,0,0,6.54-7.74c4,.09,7.14,3.5,7.14,7.85h0A7.74,7.74,0,0,1,82.91,149,8.26,8.26,0,0,0,76.8,141.16Zm6.56-8.07a7.69,7.69,0,0,1,7.19-7.54,8.06,8.06,0,0,0,8,7.86h.2a8.23,8.23,0,0,1-8,7.68C90.72,136.65,87.5,133.18,83.36,133.09Zm15.75.57h0v-.24a7.73,7.73,0,0,1,7.54,7.69h0v.16a8,8,0,0,1-8,7.72h-.15A7.57,7.57,0,0,1,91,141.42,8.59,8.59,0,0,0,99.11,133.66Zm7.89,7.78a7.5,7.5,0,0,1,7.26,7.56,8.05,8.05,0,0,0-7.87,7.87h0a7.72,7.72,0,0,1-7.55-7.55A8.31,8.31,0,0,0,107,141.44Zm1-.23a8.08,8.08,0,0,0,6.7-6.24,8.05,8.05,0,0,0,7.86,6.33h0a7.89,7.89,0,0,1-2.06,5.59,8.28,8.28,0,0,1-6,2.1A7.83,7.83,0,0,0,108,141.21Zm12.77,5.92a8.2,8.2,0,0,0,2.17-5.81c3.79.16,6.84,3.46,7.07,7.68a8,8,0,0,0-7.86,7.87,7.72,7.72,0,0,1-7.56-7.55A8.54,8.54,0,0,0,120.79,147.13Zm3.47-6a8.06,8.06,0,0,0,6.54-7.74c4,.09,7.14,3.5,7.14,7.85h0a7.73,7.73,0,0,1-7.56,7.72A8.27,8.27,0,0,0,124.26,141.16Zm6.56-8.07a7.69,7.69,0,0,1,7.19-7.54,8.06,8.06,0,0,0,8,7.86h.19a8.21,8.21,0,0,1-8,7.68C138.18,136.65,135,133.18,130.82,133.09Zm15.75.57h0a1.93,1.93,0,0,0,0-.24,7.74,7.74,0,0,1,7.55,7.69h0v.16a8,8,0,0,1-8,7.72H146a8.08,8.08,0,0,1-5.42-2.31,7.25,7.25,0,0,1-2.14-5.26A8.59,8.59,0,0,0,146.57,133.66Zm7.89,7.78a7.5,7.5,0,0,1,7.26,7.56,8.05,8.05,0,0,0-7.87,7.87h0a7.73,7.73,0,0,1-7.55-7.55A8.32,8.32,0,0,0,154.46,141.44Zm1-.23a8.07,8.07,0,0,0,6.69-6.24A8.07,8.07,0,0,0,170,141.3h0a7.85,7.85,0,0,1-2.07,5.59,8.25,8.25,0,0,1-6,2.1A7.83,7.83,0,0,0,155.48,141.21Zm12.77,5.92a8.19,8.19,0,0,0,2.17-5.81c3.79.16,6.84,3.46,7.06,7.68a8.06,8.06,0,0,0-7.86,7.87,7.71,7.71,0,0,1-7.55-7.55A8.56,8.56,0,0,0,168.25,147.13Zm3.46-6a8.08,8.08,0,0,0,6.55-7.74c4,.09,7.13,3.5,7.13,7.85h0a7.74,7.74,0,0,1-7.57,7.72A8.24,8.24,0,0,0,171.71,141.16Zm6.57-8.07a7.69,7.69,0,0,1,7.18-7.54,8.07,8.07,0,0,0,8,7.86h.19a8.21,8.21,0,0,1-8,7.68C185.64,136.65,182.41,133.18,178.28,133.09Zm7.34-7.74Zm-7.71-8a7.72,7.72,0,0,1,7.55-7.56,8.07,8.07,0,0,0,7.87,7.88,7.71,7.71,0,0,1-7.55,7.55A8.05,8.05,0,0,0,177.91,117.31Zm1.3-15.68a8.07,8.07,0,0,0,6.69-6.24,8.07,8.07,0,0,0,7.87,6.33h0a7.85,7.85,0,0,1-2.07,5.59,8.25,8.25,0,0,1-6,2.1A7.84,7.84,0,0,0,179.21,101.63Zm-1-.25a8.06,8.06,0,0,0-7.88-7.87A7.7,7.7,0,0,1,177.51,86a8.07,8.07,0,0,0,8.05,7.86h.16c0,.1,0,.2,0,.3A7.72,7.72,0,0,1,178.2,101.38Zm-16.53.31h0a7.73,7.73,0,0,1-7.57,7.72,8.25,8.25,0,0,0-6.1-7.83,8.06,8.06,0,0,0,6.54-7.74C158.54,93.93,161.67,97.34,161.67,101.69Zm-7.92,7.73a8.06,8.06,0,0,0-7.86,7.87,7.72,7.72,0,0,1-7.55-7.55,8.54,8.54,0,0,0,6.18-2.19,8.19,8.19,0,0,0,2.17-5.81C150.48,101.9,153.53,105.2,153.75,109.42Zm-9.46-2.11a8.28,8.28,0,0,1-6,2.1,7.84,7.84,0,0,0-6.57-7.78,8.08,8.08,0,0,0,6.7-6.24,8.05,8.05,0,0,0,7.86,6.33h0A7.89,7.89,0,0,1,144.29,107.31Zm-13.55-5.93a8.06,8.06,0,0,0-7.87-7.87A7.69,7.69,0,0,1,130.05,86a8.07,8.07,0,0,0,8,7.86h.16c0,.1,0,.2,0,.3A7.72,7.72,0,0,1,130.74,101.38Zm-16.21.13c-.08-4.44-3.3-7.91-7.44-8A7.69,7.69,0,0,1,114.28,86a8.06,8.06,0,0,0,8,7.86h.2A8.23,8.23,0,0,1,114.53,101.51Zm-.32.18h0a7.74,7.74,0,0,1-7.57,7.72,8.27,8.27,0,0,0-6.11-7.83,8.06,8.06,0,0,0,6.54-7.74C111.09,93.93,114.21,97.34,114.21,101.69Zm-7.91,7.73a8,8,0,0,0-7.86,7.87,7.72,7.72,0,0,1-7.56-7.55,8.54,8.54,0,0,0,6.18-2.19,8.19,8.19,0,0,0,2.17-5.81C103,101.9,106.07,105.2,106.3,109.42Zm-9.47-2.11a8.26,8.26,0,0,1-6,2.1,7.83,7.83,0,0,0-6.57-7.78A8.08,8.08,0,0,0,91,95.39a8.06,8.06,0,0,0,7.87,6.33h0A7.85,7.85,0,0,1,96.83,107.31Zm-13.55-5.93a8.05,8.05,0,0,0-7.87-7.87A7.69,7.69,0,0,1,82.6,86a8.06,8.06,0,0,0,8,7.86h.17c0,.1,0,.2,0,.3A7.72,7.72,0,0,1,83.28,101.38Zm-16.53.31h0a7.74,7.74,0,0,1-7.57,7.72,8.24,8.24,0,0,0-6.11-7.83,8.06,8.06,0,0,0,6.54-7.74C63.63,93.93,66.75,97.34,66.75,101.69Zm0,15.94a7.71,7.71,0,0,1-7.56,7.55,8.05,8.05,0,0,0-7.87-7.87,7.74,7.74,0,0,1,7.56-7.56A8.06,8.06,0,0,0,66.74,117.63Zm.18,15.78h.16c0,.1,0,.2,0,.3A7.72,7.72,0,0,1,59.55,141a8.05,8.05,0,0,0-7.87-7.87,7.69,7.69,0,0,1,7.19-7.54A8.06,8.06,0,0,0,66.92,133.41ZM66.8,149a8.06,8.06,0,0,0-7.87,7.87h0a7.72,7.72,0,0,1-7.55-7.55,8.33,8.33,0,0,0,8.18-7.88A7.49,7.49,0,0,1,66.8,149Zm-7.56,8.22a7.71,7.71,0,0,1,7.56,7.57,8,8,0,0,0-7.5,7.86h-.21a7.74,7.74,0,0,1-7.72-7.58A8.34,8.34,0,0,0,59.24,157.22Zm15.78,0a7.73,7.73,0,0,1,7.56,7.57,8,8,0,0,0-7.5,7.86h-.21a7.73,7.73,0,0,1-7.72-7.57A8.05,8.05,0,0,0,75,157.22Zm0-.33a7.74,7.74,0,0,1,7.56-7.56,8.06,8.06,0,0,0,7.87,7.88,7.72,7.72,0,0,1-7.56,7.55A8.05,8.05,0,0,0,75,156.89Zm29.27,5.72a7.79,7.79,0,0,0,2.39-5.39,7.72,7.72,0,0,1,7.56,7.57,8,8,0,0,0-7.51,7.86h-.2a7.74,7.74,0,0,1-7.72-7.58A8.67,8.67,0,0,0,104.31,162.61Zm2.41-5.72a7.74,7.74,0,0,1,7.56-7.56,8.06,8.06,0,0,0,7.87,7.88,7.72,7.72,0,0,1-7.56,7.55A8.05,8.05,0,0,0,106.72,156.89Zm15.76.33a7.73,7.73,0,0,1,7.56,7.57,8,8,0,0,0-7.51,7.86h-.21a7.73,7.73,0,0,1-7.71-7.57A8.05,8.05,0,0,0,122.48,157.22Zm0-.33a7.72,7.72,0,0,1,7.55-7.56,8.07,8.07,0,0,0,7.88,7.88,7.72,7.72,0,0,1-7.56,7.55A8.05,8.05,0,0,0,122.5,156.89Zm31.66.33a7.72,7.72,0,0,1,7.56,7.57,8,8,0,0,0-7.51,7.86H154a7.73,7.73,0,0,1-7.71-7.58A8.36,8.36,0,0,0,154.16,157.22Zm15.78,0a7.73,7.73,0,0,1,7.56,7.57,8,8,0,0,0-7.51,7.86h-.21a7.72,7.72,0,0,1-7.71-7.57A8.05,8.05,0,0,0,169.94,157.22Zm0-.33a7.72,7.72,0,0,1,7.55-7.56,8.07,8.07,0,0,0,7.87,7.88,7.71,7.71,0,0,1-7.55,7.55A8.05,8.05,0,0,0,170,156.89Zm23.47-7.9a7.58,7.58,0,0,1-7.56-7.57,8.59,8.59,0,0,0,8.15-7.76h0a1.93,1.93,0,0,1,0-.24,7.74,7.74,0,0,1,7.55,7.69h0v.16a8,8,0,0,1-8,7.72Zm.29-15.92h-.21a7.72,7.72,0,0,1-7.71-7.57,8.05,8.05,0,0,0,7.87-7.87,7.73,7.73,0,0,1,7.55,7.57A8,8,0,0,0,193.72,133.07Zm-.37-15.78a7.71,7.71,0,0,1-7.55-7.55,8.57,8.57,0,0,0,6.18-2.19,8.14,8.14,0,0,0,2.16-5.81c3.8.16,6.85,3.46,7.07,7.68A8.06,8.06,0,0,0,193.35,117.29Zm.75-15.91h-.33a7.73,7.73,0,0,1-7.7-7.26c0-.16,0-.31,0-.46h0A7.69,7.69,0,0,1,193.41,86v.1h0a8.05,8.05,0,0,0,8,7.78h.19A7.71,7.71,0,0,1,194.1,101.38Zm-8.34-7.89h-.2a7.72,7.72,0,0,1-7.71-7.57,8.05,8.05,0,0,0,7.87-7.87,7.92,7.92,0,0,1,5.33,2.19,7.58,7.58,0,0,1,2.35,5.36A8,8,0,0,0,185.76,93.49Zm-7.93-7.89A8.05,8.05,0,0,0,170,77.73a7.72,7.72,0,0,1,7.55-7.56,8.07,8.07,0,0,0,7.87,7.88A7.71,7.71,0,0,1,177.83,85.6Zm-.33,0A8,8,0,0,0,170,93.49h-.21a7.72,7.72,0,0,1-7.71-7.57,8.05,8.05,0,0,0,7.87-7.87A7.74,7.74,0,0,1,177.5,85.63Zm-15.45,0a8.05,8.05,0,0,0-7.87-7.87,7.72,7.72,0,0,1,7.55-7.56,8.07,8.07,0,0,0,7.88,7.88A7.72,7.72,0,0,1,162.05,85.6Zm-.33,0a8,8,0,0,0-7.51,7.86H154a7.73,7.73,0,0,1-7.71-7.58,8.36,8.36,0,0,0,7.87-7.86A7.72,7.72,0,0,1,161.72,85.63ZM154,93.83h.2a7.72,7.72,0,0,1-7.56,7.55h-.33a7.74,7.74,0,0,1-7.7-7.26c0-.16,0-.31,0-.46h0A7.7,7.7,0,0,1,146,86v.1h0A8.06,8.06,0,0,0,154,93.83Zm-15.7-.34h-.2a7.72,7.72,0,0,1-7.71-7.57,8,8,0,0,0,7.87-7.87,7.9,7.9,0,0,1,5.33,2.19,7.54,7.54,0,0,1,2.35,5.36A8,8,0,0,0,138.3,93.49Zm-7.93-7.89a8.05,8.05,0,0,0-7.87-7.87,7.72,7.72,0,0,1,7.55-7.56,8.07,8.07,0,0,0,7.88,7.88A7.72,7.72,0,0,1,130.37,85.6Zm-.33,0a8,8,0,0,0-7.51,7.86h-.21a7.73,7.73,0,0,1-7.71-7.57,8.05,8.05,0,0,0,7.87-7.87A7.74,7.74,0,0,1,130,85.63Zm-15.45,0a8.05,8.05,0,0,0-7.87-7.87,7.74,7.74,0,0,1,7.56-7.56,8.06,8.06,0,0,0,7.87,7.88A7.72,7.72,0,0,1,114.59,85.6Zm-.33,0a8,8,0,0,0-7.51,7.86h-.2a7.74,7.74,0,0,1-7.72-7.58,8.62,8.62,0,0,0,5.48-2.47,7.79,7.79,0,0,0,2.39-5.39A7.72,7.72,0,0,1,114.26,85.63Zm-7.71,8.2h.19a7.72,7.72,0,0,1-7.56,7.55h-.32a7.72,7.72,0,0,1-7.7-7.26c0-.16,0-.31,0-.46h0A7.7,7.7,0,0,1,98.49,86a.34.34,0,0,1,0,.1h0A8.07,8.07,0,0,0,106.55,93.83Zm-15.71-.34h-.2a7.73,7.73,0,0,1-7.71-7.57,8,8,0,0,0,7.87-7.87,7.9,7.9,0,0,1,5.33,2.19,7.59,7.59,0,0,1,2.36,5.36A8,8,0,0,0,90.84,93.49ZM82.91,85.6A8.05,8.05,0,0,0,75,77.73a7.74,7.74,0,0,1,7.56-7.56,8.06,8.06,0,0,0,7.87,7.88A7.72,7.72,0,0,1,82.91,85.6Zm-.33,0a8,8,0,0,0-7.5,7.86h-.21a7.73,7.73,0,0,1-7.72-7.57A8.05,8.05,0,0,0,75,78.06,7.74,7.74,0,0,1,82.58,85.63Zm-15.44,0a8.06,8.06,0,0,0-7.88-7.87,7.74,7.74,0,0,1,7.56-7.56,8.06,8.06,0,0,0,7.87,7.88A7.71,7.71,0,0,1,67.14,85.6Zm-.34,0a8,8,0,0,0-7.5,7.86h-.21a7.74,7.74,0,0,1-7.72-7.58,8.34,8.34,0,0,0,7.87-7.86A7.71,7.71,0,0,1,66.8,85.63Zm-15,16.11c3.8.16,6.85,3.46,7.07,7.68A8,8,0,0,0,51,117.29a7.72,7.72,0,0,1-7.56-7.55,8.58,8.58,0,0,0,6.19-2.19A8.14,8.14,0,0,0,51.77,101.74Zm-.47,15.9a7.73,7.73,0,0,1,7.55,7.57,8,8,0,0,0-7.5,7.86h-.21a7.73,7.73,0,0,1-7.72-7.57A8.06,8.06,0,0,0,51.3,117.64Zm.35,16h0v-.24a7.74,7.74,0,0,1,7.55,7.69h0v.16a8,8,0,0,1-8,7.72h-.15a8.08,8.08,0,0,1-5.41-2.31,7.21,7.21,0,0,1-2.14-5.26A8.59,8.59,0,0,0,51.65,133.66Zm-8.31,23.56a7.88,7.88,0,0,1,5.33,2.19A7.55,7.55,0,0,1,51,164.77a8,8,0,0,0-7.64,7.88h-.2a7.73,7.73,0,0,1-7.72-7.57A8.05,8.05,0,0,0,43.34,157.22Zm.37,15.6A7.71,7.71,0,0,1,51,165.11v.1h0a8.05,8.05,0,0,0,8,7.78h.19a7.73,7.73,0,0,1-7.58,7.55h-.3a7.73,7.73,0,0,1-7.7-7.26c0-.16,0-.31,0-.47Zm15.9.18c4,.09,7.14,3.5,7.14,7.85h0a7.74,7.74,0,0,1-7.57,7.72,8.24,8.24,0,0,0-6.11-7.83A8.06,8.06,0,0,0,59.61,173Zm0-.33a7.69,7.69,0,0,1,7.19-7.54A8.06,8.06,0,0,0,74.87,173h.19a8.23,8.23,0,0,1-8,7.68C67,176.23,63.77,172.76,59.63,172.67Zm15.75.57h0V173A7.73,7.73,0,0,1,83,180.69h0v.16a8,8,0,0,1-8,7.72h-.14a8.08,8.08,0,0,1-5.42-2.31A7.21,7.21,0,0,1,67.23,181,8.59,8.59,0,0,0,75.38,173.24Zm0-.57a7.69,7.69,0,0,1,7.19-7.54,8.06,8.06,0,0,0,8,7.86h.17c0,.1,0,.2,0,.3a7.72,7.72,0,0,1-7.54,7.25A8.05,8.05,0,0,0,75.41,172.67Zm15.23,0a7.73,7.73,0,0,1-7.71-7.57,8.05,8.05,0,0,0,7.87-7.87,7.9,7.9,0,0,1,5.33,2.19,7.59,7.59,0,0,1,2.36,5.36,8,8,0,0,0-7.65,7.88Zm.53.16a7.7,7.7,0,0,1,7.32-7.71.34.34,0,0,1,0,.1h0a8.07,8.07,0,0,0,8,7.78h.19a7.73,7.73,0,0,1-7.58,7.55h-.3a7.72,7.72,0,0,1-7.7-7.26c0-.16,0-.31,0-.47Zm15.9.18c4,.09,7.14,3.5,7.14,7.85h0a7.74,7.74,0,0,1-7.57,7.72,8.27,8.27,0,0,0-6.11-7.83A8.06,8.06,0,0,0,107.07,173Zm0-.33a7.69,7.69,0,0,1,7.19-7.54,8.06,8.06,0,0,0,8,7.86h.2a8.23,8.23,0,0,1-8,7.68C114.45,176.23,111.23,172.76,107.09,172.67Zm15.75.57h0a1.93,1.93,0,0,0,0-.24,7.73,7.73,0,0,1,7.55,7.69h0v.16a8,8,0,0,1-8,7.72h-.14a8.13,8.13,0,0,1-5.43-2.31,7.25,7.25,0,0,1-2.14-5.26A8.59,8.59,0,0,0,122.84,173.24Zm0-.57a7.69,7.69,0,0,1,7.18-7.54,8.07,8.07,0,0,0,8,7.86h.16c0,.1,0,.2,0,.3a7.72,7.72,0,0,1-7.54,7.25A8.06,8.06,0,0,0,122.87,172.67Zm15.23,0a7.72,7.72,0,0,1-7.71-7.57,8.05,8.05,0,0,0,7.87-7.87,7.9,7.9,0,0,1,5.33,2.19,7.54,7.54,0,0,1,2.35,5.36,8,8,0,0,0-7.64,7.88Zm.53.16a7.7,7.7,0,0,1,7.32-7.71v.1h0a8.06,8.06,0,0,0,8,7.78h.2a7.73,7.73,0,0,1-7.58,7.55h-.31a7.74,7.74,0,0,1-7.7-7.26c0-.16,0-.31,0-.47Zm15.9.18c4,.09,7.14,3.5,7.14,7.85h0a7.73,7.73,0,0,1-7.57,7.72,8.25,8.25,0,0,0-6.1-7.83A8.06,8.06,0,0,0,154.53,173Zm0-.33a7.69,7.69,0,0,1,7.18-7.54,8.07,8.07,0,0,0,8.05,7.86H170a8.21,8.21,0,0,1-8,7.68C161.91,176.23,158.68,172.76,154.55,172.67Zm15.74.57h0a1.93,1.93,0,0,1,0-.24,7.74,7.74,0,0,1,7.55,7.69h0v.16a8,8,0,0,1-8,7.72h-.14a8.1,8.1,0,0,1-5.42-2.31,7.21,7.21,0,0,1-2.14-5.26A8.57,8.57,0,0,0,170.29,173.24Zm0-.57a7.7,7.7,0,0,1,7.19-7.54,8.07,8.07,0,0,0,8.05,7.86h.16c0,.1,0,.2,0,.3a7.72,7.72,0,0,1-7.54,7.25A8.06,8.06,0,0,0,170.32,172.67Zm15.24,0a7.72,7.72,0,0,1-7.71-7.57,8.06,8.06,0,0,0,7.87-7.87,7.92,7.92,0,0,1,5.33,2.19,7.58,7.58,0,0,1,2.35,5.36,8,8,0,0,0-7.64,7.88Zm.53.16a7.69,7.69,0,0,1,7.32-7.71v.1h0a8.05,8.05,0,0,0,8,7.78h.19a7.71,7.71,0,0,1-7.57,7.55h-.31a7.73,7.73,0,0,1-7.7-7.26c0-.16,0-.31,0-.47ZM202,173c4,.09,7.13,3.5,7.13,7.85h0a7.74,7.74,0,0,1-7.57,7.72,8.24,8.24,0,0,0-6.11-7.83A8.08,8.08,0,0,0,202,173Zm-.32-.35h-.21a7.72,7.72,0,0,1-7.71-7.58,8.67,8.67,0,0,0,5.47-2.47,7.8,7.8,0,0,0,2.4-5.39,7.73,7.73,0,0,1,7.56,7.57A8,8,0,0,0,201.67,172.65Zm-.37-15.78h0a7.73,7.73,0,0,1-7.55-7.55,8.33,8.33,0,0,0,8.18-7.88,7.49,7.49,0,0,1,7.25,7.56A8.06,8.06,0,0,0,201.3,156.87Zm-7.25-23.78a7.7,7.7,0,0,1,7.19-7.54,8.06,8.06,0,0,0,8,7.86h.16c0,.1,0,.2,0,.3a7.73,7.73,0,0,1-7.55,7.25A8.05,8.05,0,0,0,194.05,133.09Zm-.36-15.78a7.72,7.72,0,0,1,7.55-7.56,8.06,8.06,0,0,0,7.87,7.88,7.71,7.71,0,0,1-7.55,7.55A8.06,8.06,0,0,0,193.69,117.31Zm1.75-15.73A8.08,8.08,0,0,0,202,93.84c4,.09,7.13,3.5,7.13,7.85h0a7.74,7.74,0,0,1-7.57,7.72A8.24,8.24,0,0,0,195.44,101.58Zm6.23-8.09h-.21a7.72,7.72,0,0,1-7.71-7.58,8.62,8.62,0,0,0,5.47-2.47,7.8,7.8,0,0,0,2.4-5.39,7.73,7.73,0,0,1,7.56,7.57A8,8,0,0,0,201.67,93.49Zm-.37-15.78h0a7.73,7.73,0,0,1-7.55-7.55,8.33,8.33,0,0,0,8.18-7.88,7.49,7.49,0,0,1,7.25,7.56A8.06,8.06,0,0,0,201.3,77.71Zm-7.89-7.54a8.07,8.07,0,0,0,7.87,7.88A7.46,7.46,0,0,1,199,83.22a8.29,8.29,0,0,1-5.26,2.36A7.86,7.86,0,0,0,191.28,80a8.24,8.24,0,0,0-5.72-2.29h0a7.72,7.72,0,0,1-7.71-7.56,8.06,8.06,0,0,0,7.76-6.74A8,8,0,0,0,193.41,70.17Zm-7.85-8.06h-.17a7.74,7.74,0,0,1-7.57,7.72A8.24,8.24,0,0,0,171.71,62a8.08,8.08,0,0,0,6.55-7.74c4,.09,7.13,3.5,7.13,7.85Zm-8.08,7.73a8.06,8.06,0,0,0-7.86,7.87,7.71,7.71,0,0,1-7.55-7.55A8.56,8.56,0,0,0,168.25,68a8.19,8.19,0,0,0,2.17-5.81C174.21,62.32,177.26,65.62,177.48,69.84ZM168,67.73a8.25,8.25,0,0,1-6,2.1,7.84,7.84,0,0,0-6.57-7.78,8.07,8.07,0,0,0,6.69-6.24A8.07,8.07,0,0,0,170,62.14h0A7.83,7.83,0,0,1,168,67.73Zm-6.29,2.11a8.05,8.05,0,0,0-7.87,7.87h0a7.73,7.73,0,0,1-7.55-7.55,8.32,8.32,0,0,0,8.18-7.88A7.5,7.5,0,0,1,161.72,69.84Zm-21.4-2.09A8.41,8.41,0,0,0,146,70.17a8.05,8.05,0,0,0,7.86,7.88,8,8,0,0,1-7.54,7.53A7.91,7.91,0,0,0,143.82,80a8.28,8.28,0,0,0-5.72-2.29h0a7.72,7.72,0,0,1-7.71-7.56,8.06,8.06,0,0,0,7.76-6.74A7.55,7.55,0,0,0,140.32,67.75Zm-2.22-5.64h-.17a7.73,7.73,0,0,1-7.56,7.72A8.27,8.27,0,0,0,124.26,62a8.06,8.06,0,0,0,6.54-7.74c4,.09,7.14,3.5,7.14,7.85ZM130,69.84a8,8,0,0,0-7.86,7.87,7.72,7.72,0,0,1-7.56-7.55A8.54,8.54,0,0,0,120.79,68,8.19,8.19,0,0,0,123,62.16C126.75,62.32,129.8,65.62,130,69.84Zm-9.47-2.11a8.28,8.28,0,0,1-6,2.1A7.83,7.83,0,0,0,108,62.05a8.08,8.08,0,0,0,6.7-6.24,8.05,8.05,0,0,0,7.86,6.33h0A7.87,7.87,0,0,1,120.56,67.73Zm-6.3,2.11a8.05,8.05,0,0,0-7.87,7.87h0a7.72,7.72,0,0,1-7.55-7.55A8.31,8.31,0,0,0,107,62.28,7.5,7.5,0,0,1,114.26,69.84Zm-15.76.33a8.06,8.06,0,0,0,7.87,7.88,7.51,7.51,0,0,1-2.3,5.17,8.29,8.29,0,0,1-5.25,2.36A7.87,7.87,0,0,0,96.36,80a8.26,8.26,0,0,0-5.72-2.29h0a7.73,7.73,0,0,1-7.71-7.56,8.06,8.06,0,0,0,7.76-6.74A8,8,0,0,0,98.5,70.17Zm-7.85-8.06h-.17a7.74,7.74,0,0,1-7.57,7.72A8.26,8.26,0,0,0,76.8,62a8.06,8.06,0,0,0,6.54-7.74c4,.09,7.14,3.5,7.14,7.85Zm-8.08,7.73a8,8,0,0,0-7.86,7.87,7.72,7.72,0,0,1-7.56-7.55A8.58,8.58,0,0,0,73.34,68a8.18,8.18,0,0,0,2.16-5.81C79.29,62.32,82.35,65.62,82.57,69.84ZM73.1,67.73a8.25,8.25,0,0,1-6,2.1,7.85,7.85,0,0,0-6.58-7.78,8.08,8.08,0,0,0,6.7-6.24,8.06,8.06,0,0,0,7.87,6.33h0A7.83,7.83,0,0,1,73.1,67.73Zm-6.3,2.11a8.06,8.06,0,0,0-7.87,7.87h0a7.72,7.72,0,0,1-7.55-7.55,8.33,8.33,0,0,0,8.18-7.88A7.49,7.49,0,0,1,66.8,69.84ZM45.4,67.75A8.41,8.41,0,0,0,51,70.17a8.07,8.07,0,0,0,7.87,7.88,8,8,0,0,1-7.55,7.53A7.86,7.86,0,0,0,48.91,80a8.26,8.26,0,0,0-5.72-2.29h0a7.73,7.73,0,0,1-7.72-7.56,8.06,8.06,0,0,0,7.77-6.74A7.47,7.47,0,0,0,45.4,67.75Zm-2.21-5.64H43a7.74,7.74,0,0,1-7.57,7.72A8.24,8.24,0,0,0,29.34,62a8.08,8.08,0,0,0,6.55-7.74c4,.09,7.13,3.5,7.13,7.85ZM43,78.05a7.71,7.71,0,0,1-7.55,7.55,8.06,8.06,0,0,0-7.88-7.87,7.74,7.74,0,0,1,7.56-7.56A8.06,8.06,0,0,0,43,78.05Zm.18,15.78h.16c0,.1,0,.2,0,.3a7.71,7.71,0,0,1-7.54,7.25A8.05,8.05,0,0,0,28,93.51,7.69,7.69,0,0,1,35.14,86,8.06,8.06,0,0,0,43.19,93.83Zm.34,1.56a8.06,8.06,0,0,0,7.87,6.33h0a7.85,7.85,0,0,1-2.07,5.59,8.25,8.25,0,0,1-6,2.1,7.85,7.85,0,0,0-6.57-7.78A8.08,8.08,0,0,0,43.53,95.39ZM51,117.63a7.71,7.71,0,0,1-7.55,7.55,8.05,8.05,0,0,0-7.87-7.87,7.72,7.72,0,0,1,7.55-7.56A8.06,8.06,0,0,0,51,117.63Zm-7.71,7.72h0Zm7.89,8.06h.19a8.22,8.22,0,0,1-8,7.68c-.09-4.44-3.31-7.91-7.45-8a7.7,7.7,0,0,1,7.19-7.54A8.06,8.06,0,0,0,51.14,133.41ZM43,141.27h0A7.74,7.74,0,0,1,35.45,149a8.24,8.24,0,0,0-6.11-7.83,8.08,8.08,0,0,0,6.55-7.74C39.9,133.51,43,136.92,43,141.27Zm0,15.94a7.71,7.71,0,0,1-7.55,7.55,8.06,8.06,0,0,0-7.88-7.87,7.74,7.74,0,0,1,7.56-7.56A8.06,8.06,0,0,0,43,157.21ZM43.19,173h.16c0,.1,0,.2,0,.3a7.71,7.71,0,0,1-7.54,7.25A8.05,8.05,0,0,0,28,172.67a7.69,7.69,0,0,1,7.19-7.54A8.06,8.06,0,0,0,43.19,173Zm.34,1.56a8.06,8.06,0,0,0,7.87,6.33h0a7.85,7.85,0,0,1-2.07,5.59,8.25,8.25,0,0,1-6,2.1,7.84,7.84,0,0,0-6.57-7.78A8.08,8.08,0,0,0,43.53,174.55Zm6.08,12.16a8.15,8.15,0,0,0,2.16-5.81c3.8.16,6.85,3.46,7.07,7.68A8,8,0,0,0,51,196.45a7.72,7.72,0,0,1-7.56-7.55A8.58,8.58,0,0,0,49.61,186.71Zm9.26,2.2a8.05,8.05,0,0,0,7.87,7.87,7.71,7.71,0,0,1-7.56,7.56,8.05,8.05,0,0,0-7.87-7.87A7.74,7.74,0,0,1,58.87,188.91Zm16.23,0A8.31,8.31,0,0,0,83.27,181a7.5,7.5,0,0,1,7.26,7.56,8.05,8.05,0,0,0-7.87,7.87h0A7.72,7.72,0,0,1,75.1,188.9Zm9.19-8.11a8.08,8.08,0,0,0,6.7-6.24,8.06,8.06,0,0,0,7.87,6.33h0a7.85,7.85,0,0,1-2.07,5.59,8.26,8.26,0,0,1-6,2.1A7.82,7.82,0,0,0,84.29,180.79Zm12.77,5.92a8.2,8.2,0,0,0,2.17-5.81c3.79.16,6.84,3.46,7.07,7.68a8,8,0,0,0-7.86,7.87,7.72,7.72,0,0,1-7.56-7.55A8.54,8.54,0,0,0,97.06,186.71Zm9.27,2.2a8.05,8.05,0,0,0,7.87,7.87,7.73,7.73,0,0,1-7.56,7.56,8.05,8.05,0,0,0-7.87-7.87A7.73,7.73,0,0,1,106.33,188.91Zm16.23,0a8.32,8.32,0,0,0,8.17-7.88,7.5,7.5,0,0,1,7.26,7.56,8.05,8.05,0,0,0-7.87,7.87h0A7.71,7.71,0,0,1,122.56,188.9Zm9.19-8.11a8.08,8.08,0,0,0,6.7-6.24,8.05,8.05,0,0,0,7.86,6.33h0a7.89,7.89,0,0,1-2.06,5.59,8.28,8.28,0,0,1-6,2.1A7.83,7.83,0,0,0,131.75,180.79Zm12.77,5.92a8.2,8.2,0,0,0,2.17-5.81c3.79.16,6.84,3.46,7.06,7.68a8.06,8.06,0,0,0-7.86,7.87,7.72,7.72,0,0,1-7.55-7.55A8.54,8.54,0,0,0,144.52,186.71Zm9.26,2.2a8.06,8.06,0,0,0,7.87,7.87,7.71,7.71,0,0,1-7.55,7.56,8.05,8.05,0,0,0-7.87-7.87A7.72,7.72,0,0,1,153.78,188.91Zm16.23,0a8.33,8.33,0,0,0,8.18-7.88,7.5,7.5,0,0,1,7.26,7.56,8.07,8.07,0,0,0-7.88,7.87h0A7.73,7.73,0,0,1,170,188.9Zm9.2-8.11a8.07,8.07,0,0,0,6.69-6.24,8.07,8.07,0,0,0,7.87,6.33h0a7.85,7.85,0,0,1-2.07,5.59,8.25,8.25,0,0,1-6,2.1A7.83,7.83,0,0,0,179.21,180.79ZM192,186.71a8.15,8.15,0,0,0,2.16-5.81c3.8.16,6.85,3.46,7.07,7.68a8.06,8.06,0,0,0-7.86,7.87,7.71,7.71,0,0,1-7.55-7.55A8.57,8.57,0,0,0,192,186.71Zm9.26,2.2a8.05,8.05,0,0,0,7.87,7.87,7.71,7.71,0,0,1-7.55,7.56,8.06,8.06,0,0,0-7.87-7.87A7.72,7.72,0,0,1,201.24,188.91Zm8.21-8.24a7.82,7.82,0,0,0-7.45-8,7.7,7.7,0,0,1,7.19-7.54,8.06,8.06,0,0,0,8.05,7.86h.19A8.22,8.22,0,0,1,209.45,180.67Zm-7.81-23.78a7.72,7.72,0,0,1,7.55-7.56,8.06,8.06,0,0,0,7.87,7.88,7.71,7.71,0,0,1-7.55,7.55A8.05,8.05,0,0,0,201.64,156.89Zm1.3-15.68a8.07,8.07,0,0,0,6.69-6.24,8.07,8.07,0,0,0,7.87,6.33h0a7.85,7.85,0,0,1-2.07,5.59,8.25,8.25,0,0,1-6,2.1A7.85,7.85,0,0,0,202.94,141.21Zm6.55-8.14h-.2a7.73,7.73,0,0,1-7.72-7.57,8.05,8.05,0,0,0,7.88-7.87,7.8,7.8,0,0,1,7.68,7.55A8,8,0,0,0,209.49,133.07Zm-.2-15.77h0a7.73,7.73,0,0,1-7.72-7.56,8.06,8.06,0,0,0,7.77-6.74,8,8,0,0,0,7.8,6.75,8.07,8.07,0,0,0,7.87,7.88,7.5,7.5,0,0,1-2.29,5.16,8.27,8.27,0,0,1-5.26,2.37A8.13,8.13,0,0,0,209.29,117.3Zm.16-15.79a7.82,7.82,0,0,0-7.45-8A7.7,7.7,0,0,1,209.19,86a8.07,8.07,0,0,0,8.05,7.86h.19A8.22,8.22,0,0,1,209.45,101.51Zm-7.81-23.78a7.72,7.72,0,0,1,7.55-7.56,8.06,8.06,0,0,0,7.87,7.88,7.71,7.71,0,0,1-7.55,7.55A8.05,8.05,0,0,0,201.64,77.73Zm1.3-15.68a8.07,8.07,0,0,0,6.69-6.24,8.07,8.07,0,0,0,7.87,6.33h0a7.83,7.83,0,0,1-2.07,5.59,8.25,8.25,0,0,1-6,2.1A7.85,7.85,0,0,0,202.94,62.05Zm6.55-8.14h-.2a7.73,7.73,0,0,1-7.72-7.56,8.07,8.07,0,0,0,7.88-7.88A7.8,7.8,0,0,1,217.13,46,8,8,0,0,0,209.49,53.91Zm-.2.34h.16c0,.1,0,.2,0,.3a7.73,7.73,0,0,1-7.55,7.25,8.05,8.05,0,0,0-7.87-7.87,7.7,7.7,0,0,1,7.19-7.54A8.06,8.06,0,0,0,209.29,54.25Zm-15.57-.34h-.21a7.72,7.72,0,0,1-7.71-7.56,8.06,8.06,0,0,0,7.87-7.88,7.73,7.73,0,0,1,7.55,7.57A8,8,0,0,0,193.72,53.91Zm-15.78,0h-.21A7.72,7.72,0,0,1,170,46.34a8.36,8.36,0,0,0,7.87-7.86,7.73,7.73,0,0,1,7.56,7.57A8,8,0,0,0,177.94,53.91Zm-.21.34h.19a7.71,7.71,0,0,1-7.55,7.55H170a7.73,7.73,0,0,1-7.7-7.26c0-.16,0-.31,0-.46h0a7.69,7.69,0,0,1,7.32-7.72v.1h0A8.05,8.05,0,0,0,177.73,54.25ZM162,53.91h-.2a7.72,7.72,0,0,1-7.71-7.56A8.07,8.07,0,0,0,162,38.49a8,8,0,0,1,5.33,2.18A7.58,7.58,0,0,1,169.67,46,8,8,0,0,0,162,53.91Zm-.2.34H162c0,.1,0,.2,0,.3a7.72,7.72,0,0,1-7.54,7.25,8.06,8.06,0,0,0-7.87-7.87,7.69,7.69,0,0,1,7.18-7.54A8.07,8.07,0,0,0,161.83,54.25Zm-15.57-.34h-.21a7.72,7.72,0,0,1-7.71-7.56,8.06,8.06,0,0,0,7.87-7.88,7.74,7.74,0,0,1,7.56,7.57A8,8,0,0,0,146.26,53.91Zm-15.78,0h-.21a7.73,7.73,0,0,1-7.71-7.58A8.62,8.62,0,0,0,128,43.87a7.79,7.79,0,0,0,2.39-5.39A7.72,7.72,0,0,1,138,46.05,8,8,0,0,0,130.48,53.91Zm-.21.34h.2a7.72,7.72,0,0,1-7.56,7.55h-.33a7.72,7.72,0,0,1-7.69-7.26c0-.16,0-.31,0-.46h0a7.7,7.7,0,0,1,7.32-7.72v.1h0A8.06,8.06,0,0,0,130.27,54.25Zm-15.7-.34h-.2a7.72,7.72,0,0,1-7.71-7.56,8.06,8.06,0,0,0,7.87-7.88A7.79,7.79,0,0,1,122.21,46,8,8,0,0,0,114.57,53.91Zm-.2.34h.17c0,.1,0,.2,0,.3A7.72,7.72,0,0,1,107,61.8a8.05,8.05,0,0,0-7.87-7.87,7.69,7.69,0,0,1,7.19-7.54A8.06,8.06,0,0,0,114.37,54.25ZM98.8,53.91h-.21a7.73,7.73,0,0,1-7.71-7.56,8.06,8.06,0,0,0,7.87-7.88,7.74,7.74,0,0,1,7.56,7.57A8,8,0,0,0,98.8,53.91ZM83,53.91h-.21a7.74,7.74,0,0,1-7.72-7.58,8.62,8.62,0,0,0,5.48-2.47A7.79,7.79,0,0,0,83,38.48a7.71,7.71,0,0,1,7.56,7.57A8,8,0,0,0,83,53.91Zm-.21.34H83a7.72,7.72,0,0,1-7.56,7.55h-.32a7.72,7.72,0,0,1-7.7-7.26c0-.16,0-.31,0-.46h0a7.7,7.7,0,0,1,7.32-7.72s0,.07,0,.1h0A8.06,8.06,0,0,0,82.82,54.25Zm-15.7-.34h-.2a7.73,7.73,0,0,1-7.72-7.56,8.06,8.06,0,0,0,7.87-7.88,8,8,0,0,1,5.33,2.19A7.55,7.55,0,0,1,74.76,46,8,8,0,0,0,67.12,53.91Zm-.2.34h.16c0,.1,0,.2,0,.3a7.72,7.72,0,0,1-7.54,7.25,8.05,8.05,0,0,0-7.87-7.87,7.69,7.69,0,0,1,7.19-7.54A8.06,8.06,0,0,0,66.92,54.25Zm-15.57-.34h-.21a7.73,7.73,0,0,1-7.72-7.56,8.07,8.07,0,0,0,7.88-7.88,7.73,7.73,0,0,1,7.55,7.57A8,8,0,0,0,51.35,53.91Zm-15.78,0h-.21a7.72,7.72,0,0,1-7.71-7.58,8.34,8.34,0,0,0,7.86-7.86,7.71,7.71,0,0,1,7.56,7.57A8,8,0,0,0,35.57,53.91ZM28,62.16c3.8.16,6.85,3.46,7.07,7.68a8,8,0,0,0-7.86,7.87,7.72,7.72,0,0,1-7.56-7.55A8.58,8.58,0,0,0,25.88,68,8.14,8.14,0,0,0,28,62.16Zm-.47,15.9a7.73,7.73,0,0,1,7.55,7.57,8,8,0,0,0-7.5,7.86h-.21a7.73,7.73,0,0,1-7.72-7.57A8.06,8.06,0,0,0,27.57,78.06Zm.35,16h0a1.93,1.93,0,0,1,0-.24,7.74,7.74,0,0,1,7.55,7.69h0v.17a8,8,0,0,1-8,7.71h-.14a8.08,8.08,0,0,1-5.42-2.31,7.21,7.21,0,0,1-2.14-5.26A8.59,8.59,0,0,0,27.92,94.08Zm7.9,7.78a7.49,7.49,0,0,1,7.25,7.56,8.06,8.06,0,0,0-7.87,7.87h0a7.73,7.73,0,0,1-7.55-7.55A8.33,8.33,0,0,0,35.82,101.86Zm-.31,15.78a7.71,7.71,0,0,1,7.56,7.57,8,8,0,0,0-7.5,7.86h-.21a7.72,7.72,0,0,1-7.71-7.58A8.34,8.34,0,0,0,35.51,117.64ZM28,141.32c3.8.16,6.85,3.46,7.07,7.68a8,8,0,0,0-7.86,7.87,7.72,7.72,0,0,1-7.56-7.55,8.58,8.58,0,0,0,6.19-2.19A8.15,8.15,0,0,0,28,141.32Zm-.47,15.9a7.72,7.72,0,0,1,7.55,7.57,8,8,0,0,0-7.5,7.86h-.21a7.73,7.73,0,0,1-7.72-7.57A8.06,8.06,0,0,0,27.57,157.22Zm.35,16h0a1.93,1.93,0,0,1,0-.24,7.74,7.74,0,0,1,7.55,7.69h0v.16a8,8,0,0,1-8,7.72h-.14a8.08,8.08,0,0,1-5.42-2.31A7.21,7.21,0,0,1,19.77,181,8.59,8.59,0,0,0,27.92,173.24Zm7.9,7.78a7.49,7.49,0,0,1,7.25,7.56,8.06,8.06,0,0,0-7.87,7.87h0a7.73,7.73,0,0,1-7.55-7.55A8.33,8.33,0,0,0,35.82,181ZM51.3,196.8a7.72,7.72,0,0,1,7.55,7.57,8,8,0,0,0-7.5,7.86h-.21a7.73,7.73,0,0,1-7.72-7.57A8.06,8.06,0,0,0,51.3,196.8Zm7.57,7.91a8.06,8.06,0,0,0,8.05,7.86h.16c0,.1,0,.2,0,.3a7.72,7.72,0,0,1-7.54,7.25,8.05,8.05,0,0,0-7.87-7.87A7.69,7.69,0,0,1,58.87,204.71Zm8.05,7.53a7.73,7.73,0,0,1-7.72-7.57,8.05,8.05,0,0,0,7.87-7.87A7.9,7.9,0,0,1,72.4,199a7.55,7.55,0,0,1,2.36,5.36,8,8,0,0,0-7.64,7.88Zm.52.16a7.69,7.69,0,0,1,7.32-7.71s0,.07,0,.1h0a8.07,8.07,0,0,0,8,7.78H83a7.72,7.72,0,0,1-7.56,7.55h-.32a7.72,7.72,0,0,1-7.7-7.26c0-.16,0-.31,0-.47Zm15.38-.16a7.74,7.74,0,0,1-7.72-7.58,8.67,8.67,0,0,0,5.48-2.47A7.81,7.81,0,0,0,83,196.8a7.71,7.71,0,0,1,7.56,7.57,8,8,0,0,0-7.5,7.86ZM98.75,196.8a7.73,7.73,0,0,1,7.56,7.57,8,8,0,0,0-7.51,7.86h-.21a7.73,7.73,0,0,1-7.71-7.57A8.05,8.05,0,0,0,98.75,196.8Zm7.58,7.91a8.06,8.06,0,0,0,8,7.86h.17c0,.1,0,.2,0,.3a7.72,7.72,0,0,1-7.54,7.25,8.05,8.05,0,0,0-7.87-7.87A7.69,7.69,0,0,1,106.33,204.71Zm8,7.53a7.72,7.72,0,0,1-7.71-7.57,8.05,8.05,0,0,0,7.87-7.87,7.79,7.79,0,0,1,7.68,7.55,8,8,0,0,0-7.64,7.88Zm.53.16a7.69,7.69,0,0,1,7.32-7.71v.1h0a8.07,8.07,0,0,0,8,7.78h.2a7.72,7.72,0,0,1-7.56,7.55h-.33a7.72,7.72,0,0,1-7.69-7.26c0-.16,0-.31,0-.47Zm15.37-.16a7.73,7.73,0,0,1-7.71-7.58,8.67,8.67,0,0,0,5.48-2.47,7.81,7.81,0,0,0,2.39-5.39,7.72,7.72,0,0,1,7.56,7.57,8,8,0,0,0-7.51,7.86Zm15.94-15.44a7.73,7.73,0,0,1,7.56,7.57,8,8,0,0,0-7.51,7.86h-.21a7.72,7.72,0,0,1-7.71-7.57A8.05,8.05,0,0,0,146.21,196.8Zm7.57,7.91a8.07,8.07,0,0,0,8.05,7.86H162c0,.1,0,.2,0,.3a7.72,7.72,0,0,1-7.54,7.25,8.06,8.06,0,0,0-7.87-7.87A7.69,7.69,0,0,1,153.78,204.71Zm8.05,7.53a7.72,7.72,0,0,1-7.71-7.57A8.05,8.05,0,0,0,162,196.8a7.92,7.92,0,0,1,5.33,2.19,7.58,7.58,0,0,1,2.35,5.36,8,8,0,0,0-7.64,7.88Zm.53.16a7.68,7.68,0,0,1,7.32-7.71v.1h0a8.06,8.06,0,0,0,8,7.78h.19a7.71,7.71,0,0,1-7.55,7.55H170a7.73,7.73,0,0,1-7.7-7.26c0-.16,0-.31,0-.47Zm15.37-.16a7.72,7.72,0,0,1-7.71-7.58,8.36,8.36,0,0,0,7.87-7.86,7.73,7.73,0,0,1,7.56,7.57,8,8,0,0,0-7.51,7.86Zm15.94-15.44a7.72,7.72,0,0,1,7.55,7.57,8,8,0,0,0-7.5,7.86h-.21a7.72,7.72,0,0,1-7.71-7.57A8.05,8.05,0,0,0,193.67,196.8Zm7.57,7.91a8.06,8.06,0,0,0,8,7.86h.16c0,.1,0,.2,0,.3a7.73,7.73,0,0,1-7.55,7.25,8.05,8.05,0,0,0-7.87-7.87A7.7,7.7,0,0,1,201.24,204.71Zm8,7.53a7.73,7.73,0,0,1-7.72-7.57,8.06,8.06,0,0,0,7.88-7.87,7.8,7.8,0,0,1,7.68,7.55,8,8,0,0,0-7.64,7.88Zm.52.16a7.7,7.7,0,0,1,7.33-7.71v.1h0a8.06,8.06,0,0,0,8,7.78h.19a7.71,7.71,0,0,1-7.56,7.55h-.32a7.73,7.73,0,0,1-7.7-7.26c0-.16,0-.31,0-.47Zm15.38-.16a7.72,7.72,0,0,1-7.71-7.58,8.67,8.67,0,0,0,5.47-2.47,7.81,7.81,0,0,0,2.39-5.39,7.71,7.71,0,0,1,7.56,7.57,8,8,0,0,0-7.5,7.86ZM225,196.45h0a7.73,7.73,0,0,1-7.55-7.55,8.33,8.33,0,0,0,8.18-7.88,7.49,7.49,0,0,1,7.25,7.56A8.06,8.06,0,0,0,225,196.45Zm-7.25-23.78a7.69,7.69,0,0,1,7.19-7.54A8.06,8.06,0,0,0,233,173h.16c0,.1,0,.2,0,.3a7.71,7.71,0,0,1-7.54,7.25A8.05,8.05,0,0,0,217.78,172.67Zm-.33,0h-.21a7.73,7.73,0,0,1-7.72-7.57,8.06,8.06,0,0,0,7.88-7.87,7.72,7.72,0,0,1,7.55,7.57A8,8,0,0,0,217.45,172.65Zm-.37-15.78a7.72,7.72,0,0,1-7.56-7.55,8.58,8.58,0,0,0,6.19-2.19,8.15,8.15,0,0,0,2.16-5.81c3.8.16,6.85,3.46,7.07,7.68A8,8,0,0,0,217.08,156.87Zm.73-15.91h-.31a7.73,7.73,0,0,1-7.7-7.26c0-.16,0-.31,0-.46h0a7.71,7.71,0,0,1,7.33-7.72v.1h0a8.05,8.05,0,0,0,8,7.78h.19A7.71,7.71,0,0,1,217.81,141Zm7.38-7.88a7.72,7.72,0,0,1-7.71-7.58A8.62,8.62,0,0,0,223,123a7.79,7.79,0,0,0,2.39-5.39,7.71,7.71,0,0,1,7.56,7.57,8,8,0,0,0-7.5,7.86ZM225,117.29h0a7.73,7.73,0,0,1-7.55-7.55,8.33,8.33,0,0,0,8.18-7.88,7.49,7.49,0,0,1,7.25,7.56A8.06,8.06,0,0,0,225,117.29Zm-7.25-23.78A7.69,7.69,0,0,1,225,86,8.06,8.06,0,0,0,233,93.83h.16c0,.1,0,.2,0,.3a7.71,7.71,0,0,1-7.54,7.25A8.05,8.05,0,0,0,217.78,93.51Zm-.33,0h-.21a7.73,7.73,0,0,1-7.72-7.57,8.06,8.06,0,0,0,7.88-7.87A7.73,7.73,0,0,1,225,85.63,8,8,0,0,0,217.45,93.49Zm-.37-15.78a7.72,7.72,0,0,1-7.56-7.55A8.58,8.58,0,0,0,215.71,68a8.14,8.14,0,0,0,2.16-5.81c3.8.16,6.85,3.46,7.07,7.68A8,8,0,0,0,217.08,77.71Zm.74-15.91h-.32a7.73,7.73,0,0,1-7.7-7.26c0-.16,0-.31,0-.46h0a7.71,7.71,0,0,1,7.33-7.72v.1h0a8,8,0,0,0,8,7.78h.19A7.71,7.71,0,0,1,217.82,61.8Zm7.37-7.88a7.72,7.72,0,0,1-7.71-7.58A8.62,8.62,0,0,0,223,43.87a7.79,7.79,0,0,0,2.39-5.39,7.71,7.71,0,0,1,7.56,7.57,8,8,0,0,0-7.5,7.86ZM225,38.13h0a7.73,7.73,0,0,1-7.55-7.55,8.32,8.32,0,0,0,8.18-7.87,7.47,7.47,0,0,1,7.25,7.55A8.06,8.06,0,0,0,225,38.13Zm0,.34a7.55,7.55,0,0,1-2.29,5.17A8.31,8.31,0,0,1,217.46,46a8.13,8.13,0,0,0-8.17-7.86h0a7.73,7.73,0,0,1-7.72-7.56,8.06,8.06,0,0,0,7.77-6.74,7.53,7.53,0,0,0,2.16,4.34,8.45,8.45,0,0,0,5.64,2.41A8.07,8.07,0,0,0,225,38.47Zm-15.9,0A7.71,7.71,0,0,1,201.56,46a8.06,8.06,0,0,0-7.87-7.87,7.72,7.72,0,0,1,7.55-7.56A8.06,8.06,0,0,0,209.11,38.47Zm-15.76-.34a7.71,7.71,0,0,1-7.55-7.55A8.57,8.57,0,0,0,192,28.39a8.13,8.13,0,0,0,2.16-5.8c3.8.15,6.85,3.45,7.07,7.67A8.06,8.06,0,0,0,193.35,38.13Zm0,.34A7.71,7.71,0,0,1,185.78,46a8.05,8.05,0,0,0-7.87-7.87,7.72,7.72,0,0,1,7.55-7.56A8.07,8.07,0,0,0,193.33,38.47Zm-15.76-.34h0A7.73,7.73,0,0,1,170,30.58a8.32,8.32,0,0,0,8.18-7.87,7.49,7.49,0,0,1,7.26,7.55A8.07,8.07,0,0,0,177.57,38.13Zm0,.34A8,8,0,0,1,170,46a7.87,7.87,0,0,0-2.45-5.57,8.28,8.28,0,0,0-5.72-2.29h0a7.72,7.72,0,0,1-7.71-7.56,8.06,8.06,0,0,0,7.76-6.74A7.65,7.65,0,0,0,164,28.18a8.47,8.47,0,0,0,5.64,2.41A8.07,8.07,0,0,0,177.55,38.47Zm-15.9,0A7.71,7.71,0,0,1,154.1,46a8.05,8.05,0,0,0-7.87-7.87,7.72,7.72,0,0,1,7.55-7.56A8.07,8.07,0,0,0,161.65,38.47Zm-15.76-.34a7.72,7.72,0,0,1-7.55-7.55,8.54,8.54,0,0,0,6.18-2.19,8.18,8.18,0,0,0,2.17-5.8c3.79.15,6.84,3.45,7.06,7.67A8.06,8.06,0,0,0,145.89,38.13Zm0,.34A7.72,7.72,0,0,1,138.32,46a8.05,8.05,0,0,0-7.87-7.87A7.74,7.74,0,0,1,138,30.59,8.06,8.06,0,0,0,145.88,38.47Zm-15.76-.34h0a7.71,7.71,0,0,1-7.54-7.55,8.31,8.31,0,0,0,8.17-7.87A7.48,7.48,0,0,1,138,30.26,8.05,8.05,0,0,0,130.12,38.13Zm0,.34a7.46,7.46,0,0,1-2.29,5.17A8.29,8.29,0,0,1,122.55,46a8.14,8.14,0,0,0-8.18-7.86h0a7.72,7.72,0,0,1-7.71-7.56,8.06,8.06,0,0,0,7.76-6.74,7.6,7.6,0,0,0,2.17,4.34,8.45,8.45,0,0,0,5.64,2.41A8.06,8.06,0,0,0,130.09,38.47Zm-15.89,0A7.72,7.72,0,0,1,106.64,46a8.05,8.05,0,0,0-7.87-7.87,7.73,7.73,0,0,1,7.56-7.56A8.06,8.06,0,0,0,114.2,38.47Zm-15.76-.34a7.72,7.72,0,0,1-7.56-7.55,8.54,8.54,0,0,0,6.18-2.19,8.18,8.18,0,0,0,2.17-5.8c3.79.15,6.84,3.45,7.07,7.67A8,8,0,0,0,98.44,38.13Zm0,.34A7.71,7.71,0,0,1,90.86,46,8.05,8.05,0,0,0,83,38.15a7.74,7.74,0,0,1,7.56-7.56A8.06,8.06,0,0,0,98.42,38.47Zm-15.76-.34h0a7.72,7.72,0,0,1-7.55-7.55,8.3,8.3,0,0,0,8.17-7.87,7.48,7.48,0,0,1,7.26,7.55A8.05,8.05,0,0,0,82.66,38.13Zm0,.34a7.55,7.55,0,0,1-2.29,5.17A8.33,8.33,0,0,1,75.09,46a7.88,7.88,0,0,0-2.46-5.57,8.25,8.25,0,0,0-5.71-2.29h0a7.73,7.73,0,0,1-7.72-7.56A8.07,8.07,0,0,0,67,23.84a7.53,7.53,0,0,0,2.16,4.34,8.45,8.45,0,0,0,5.64,2.41A8.06,8.06,0,0,0,82.64,38.47Zm-15.9,0A7.71,7.71,0,0,1,59.18,46a8.05,8.05,0,0,0-7.87-7.87,7.74,7.74,0,0,1,7.56-7.56A8.06,8.06,0,0,0,66.74,38.47ZM51,38.13a7.72,7.72,0,0,1-7.56-7.55,8.58,8.58,0,0,0,6.19-2.19,8.13,8.13,0,0,0,2.16-5.8c3.8.15,6.85,3.45,7.07,7.67A8,8,0,0,0,51,38.13Zm0,.34A7.71,7.71,0,0,1,43.41,46a8.05,8.05,0,0,0-7.87-7.87,7.72,7.72,0,0,1,7.55-7.56A8.06,8.06,0,0,0,51,38.47ZM35.2,38.13h0a7.73,7.73,0,0,1-7.55-7.55,8.32,8.32,0,0,0,8.18-7.87,7.47,7.47,0,0,1,7.25,7.55A8.06,8.06,0,0,0,35.2,38.13Zm-15.58.35A7.8,7.8,0,0,1,27.3,46a8,8,0,0,0-7.64,7.88h-.2a7.73,7.73,0,0,1-7.72-7.56A8.07,8.07,0,0,0,19.62,38.48Zm.18,17.33a8.07,8.07,0,0,0,7.87,6.33h0a7.83,7.83,0,0,1-2.07,5.59,8.25,8.25,0,0,1-6,2.1,7.85,7.85,0,0,0-6.57-7.78A8.07,8.07,0,0,0,19.8,55.81Zm7.43,22.24a7.71,7.71,0,0,1-7.55,7.55,8.05,8.05,0,0,0-7.87-7.87,7.72,7.72,0,0,1,7.55-7.56A8.06,8.06,0,0,0,27.23,78.05Zm.18,15.78h.19a8.22,8.22,0,0,1-8,7.68,7.82,7.82,0,0,0-7.45-8A7.71,7.71,0,0,1,19.36,86,8.06,8.06,0,0,0,27.41,93.83Zm-7.79,23.81a7.8,7.8,0,0,1,7.68,7.55,8,8,0,0,0-7.64,7.88h-.2a7.73,7.73,0,0,1-7.72-7.57A8.05,8.05,0,0,0,19.62,117.64ZM19.8,135a8.07,8.07,0,0,0,7.87,6.33h0a7.85,7.85,0,0,1-2.07,5.59,8.25,8.25,0,0,1-6,2.1,7.85,7.85,0,0,0-6.57-7.78A8.07,8.07,0,0,0,19.8,135Zm7.43,22.24a7.71,7.71,0,0,1-7.55,7.55,8.05,8.05,0,0,0-7.87-7.87,7.72,7.72,0,0,1,7.55-7.56A8.06,8.06,0,0,0,27.23,157.21ZM27.41,173h.19a8.22,8.22,0,0,1-8,7.68,7.82,7.82,0,0,0-7.45-8,7.71,7.71,0,0,1,7.19-7.54A8.06,8.06,0,0,0,27.41,173ZM19.62,196.8a7.8,7.8,0,0,1,7.68,7.55,8,8,0,0,0-7.64,7.88h-.2a7.73,7.73,0,0,1-7.72-7.57A8.06,8.06,0,0,0,19.62,196.8Zm.18,17.33a8.07,8.07,0,0,0,7.87,6.33h0a7.85,7.85,0,0,1-2.07,5.59,8.21,8.21,0,0,1-6,2.09,7.84,7.84,0,0,0-6.57-7.77A8.07,8.07,0,0,0,19.8,214.13Zm6.08,12.16A8.15,8.15,0,0,0,28,220.48c3.8.16,6.85,3.46,7.07,7.68A8,8,0,0,0,27.25,236a7.72,7.72,0,0,1-7.56-7.55A8.58,8.58,0,0,0,25.88,226.29Zm3.46-6a8.06,8.06,0,0,0,6.55-7.73c4,.09,7.13,3.5,7.13,7.85h0a7.74,7.74,0,0,1-7.57,7.72A8.27,8.27,0,0,0,29.34,220.31Zm6.56-8.06a7.7,7.7,0,0,1,7.19-7.54,8.06,8.06,0,0,0,8,7.86h.19a8.22,8.22,0,0,1-8,7.68C43.26,215.81,40,212.34,35.9,212.25Zm15.75.57h0v-.24a7.74,7.74,0,0,1,7.55,7.69h0v.16a8,8,0,0,1-8,7.72h-.14a8.08,8.08,0,0,1-5.42-2.31,7.21,7.21,0,0,1-2.14-5.26A8.59,8.59,0,0,0,51.65,212.82Zm7.9,7.78a7.49,7.49,0,0,1,7.25,7.56A8.06,8.06,0,0,0,58.93,236h0a7.72,7.72,0,0,1-7.55-7.55A8.33,8.33,0,0,0,59.55,220.6Zm1-.23a8.08,8.08,0,0,0,6.7-6.24,8.06,8.06,0,0,0,7.87,6.33h0a7.85,7.85,0,0,1-2.07,5.59,8.21,8.21,0,0,1-6,2.09A7.84,7.84,0,0,0,60.56,220.37Zm12.78,5.92a8.2,8.2,0,0,0,2.16-5.81c3.79.16,6.85,3.46,7.07,7.68A8,8,0,0,0,74.71,236a7.72,7.72,0,0,1-7.56-7.55A8.58,8.58,0,0,0,73.34,226.29Zm3.46-6a8,8,0,0,0,6.54-7.73c4,.09,7.14,3.5,7.14,7.85h0a7.74,7.74,0,0,1-7.57,7.72A8.28,8.28,0,0,0,76.8,220.31Zm6.56-8.06a7.69,7.69,0,0,1,7.19-7.54,8.06,8.06,0,0,0,8,7.86h.2a8.23,8.23,0,0,1-8,7.68C90.72,215.81,87.5,212.34,83.36,212.25Zm15.75.57h0v-.24a7.72,7.72,0,0,1,7.54,7.69h0v.16a8,8,0,0,1-8,7.72h-.14A7.57,7.57,0,0,1,91,220.58,8.59,8.59,0,0,0,99.11,212.82ZM107,220.6a7.5,7.5,0,0,1,7.26,7.56,8.05,8.05,0,0,0-7.87,7.87h0a7.72,7.72,0,0,1-7.55-7.55A8.31,8.31,0,0,0,107,220.6Zm1-.23a8.08,8.08,0,0,0,6.7-6.24,8.05,8.05,0,0,0,7.86,6.33h0a7.89,7.89,0,0,1-2.06,5.59,8.23,8.23,0,0,1-6,2.09A7.82,7.82,0,0,0,108,220.37Zm12.77,5.92a8.2,8.2,0,0,0,2.17-5.81c3.79.16,6.84,3.46,7.07,7.68a8,8,0,0,0-7.86,7.87,7.72,7.72,0,0,1-7.56-7.55A8.54,8.54,0,0,0,120.79,226.29Zm3.47-6a8,8,0,0,0,6.54-7.73c4,.09,7.14,3.5,7.14,7.85h0a7.73,7.73,0,0,1-7.56,7.72A8.29,8.29,0,0,0,124.26,220.31Zm6.56-8.06a7.69,7.69,0,0,1,7.19-7.54,8.06,8.06,0,0,0,8,7.86h.19a8.21,8.21,0,0,1-8,7.68C138.18,215.81,135,212.34,130.82,212.25Zm15.75.57h0a1.93,1.93,0,0,0,0-.24,7.74,7.74,0,0,1,7.55,7.69h0v.16a8,8,0,0,1-8,7.72H146a8.11,8.11,0,0,1-5.43-2.31,7.25,7.25,0,0,1-2.14-5.26A8.59,8.59,0,0,0,146.57,212.82Zm7.89,7.78a7.5,7.5,0,0,1,7.26,7.56,8.05,8.05,0,0,0-7.87,7.87h0a7.73,7.73,0,0,1-7.55-7.55A8.32,8.32,0,0,0,154.46,220.6Zm1-.23a8.07,8.07,0,0,0,6.69-6.24,8.07,8.07,0,0,0,7.87,6.33h0a7.85,7.85,0,0,1-2.07,5.59,8.21,8.21,0,0,1-6,2.09A7.83,7.83,0,0,0,155.48,220.37Zm12.77,5.92a8.2,8.2,0,0,0,2.17-5.81c3.79.16,6.84,3.46,7.06,7.68a8.06,8.06,0,0,0-7.86,7.87,7.71,7.71,0,0,1-7.55-7.55A8.56,8.56,0,0,0,168.25,226.29Zm3.46-6a8.06,8.06,0,0,0,6.55-7.73c4,.09,7.13,3.5,7.13,7.85h0a7.74,7.74,0,0,1-7.57,7.72A8.27,8.27,0,0,0,171.71,220.31Zm6.57-8.06a7.69,7.69,0,0,1,7.18-7.54,8.07,8.07,0,0,0,8,7.86h.19a8.21,8.21,0,0,1-8,7.68C185.64,215.81,182.41,212.34,178.28,212.25Zm15.74.57h0a1.93,1.93,0,0,1,0-.24,7.73,7.73,0,0,1,7.55,7.69h0v.16a8,8,0,0,1-8,7.72h-.14a7.58,7.58,0,0,1-7.56-7.57A8.59,8.59,0,0,0,194,212.82Zm7.9,7.78a7.49,7.49,0,0,1,7.25,7.56A8.06,8.06,0,0,0,201.3,236h0a7.73,7.73,0,0,1-7.55-7.55A8.33,8.33,0,0,0,201.92,220.6Zm1-.23a8.07,8.07,0,0,0,6.69-6.24,8.07,8.07,0,0,0,7.87,6.33h0a7.85,7.85,0,0,1-2.07,5.59,8.21,8.21,0,0,1-6,2.09A7.84,7.84,0,0,0,202.94,220.37Zm12.77,5.92a8.15,8.15,0,0,0,2.16-5.81c3.8.16,6.85,3.46,7.07,7.68a8,8,0,0,0-7.86,7.87,7.72,7.72,0,0,1-7.56-7.55A8.58,8.58,0,0,0,215.71,226.29Zm3.46-6a8.06,8.06,0,0,0,6.55-7.73c4,.09,7.13,3.5,7.13,7.85h0a7.74,7.74,0,0,1-7.57,7.72A8.27,8.27,0,0,0,219.17,220.31Zm6.56-8.06a7.7,7.7,0,0,1,7.19-7.54,8.06,8.06,0,0,0,8.05,7.86h.19a8.22,8.22,0,0,1-8,7.68C233.09,215.81,229.87,212.34,225.73,212.25Zm-.36-15.78a7.72,7.72,0,0,1,7.55-7.56,8.05,8.05,0,0,0,7.87,7.87,7.71,7.71,0,0,1-7.55,7.56A8.06,8.06,0,0,0,225.37,196.47Zm1.3-15.68a8.08,8.08,0,0,0,6.69-6.24,8.06,8.06,0,0,0,7.87,6.33h0a7.85,7.85,0,0,1-2.07,5.59,8.25,8.25,0,0,1-6,2.1A7.84,7.84,0,0,0,226.67,180.79Zm6.55-8.14H233a7.73,7.73,0,0,1-7.72-7.57,8.07,8.07,0,0,0,7.88-7.87,7.8,7.8,0,0,1,7.68,7.55A8,8,0,0,0,233.22,172.65Zm-7.93-7.89a8.06,8.06,0,0,0-7.88-7.87,7.74,7.74,0,0,1,7.56-7.56,8.06,8.06,0,0,0,7.87,7.88A7.71,7.71,0,0,1,225.29,164.76Zm-6.12-23.6a8.08,8.08,0,0,0,6.55-7.74c4,.09,7.13,3.5,7.13,7.85h0a7.74,7.74,0,0,1-7.57,7.72A8.24,8.24,0,0,0,219.17,141.16Zm6.56-8.07a7.7,7.7,0,0,1,7.19-7.54,8.06,8.06,0,0,0,8.05,7.86h.19a8.22,8.22,0,0,1-8,7.68C233.09,136.65,229.87,133.18,225.73,133.09Zm-.36-15.78a7.72,7.72,0,0,1,7.55-7.56,8.06,8.06,0,0,0,7.87,7.88,7.71,7.71,0,0,1-7.55,7.55A8.06,8.06,0,0,0,225.37,117.31Zm1.3-15.68a8.08,8.08,0,0,0,6.69-6.24,8.06,8.06,0,0,0,7.87,6.33h0a7.85,7.85,0,0,1-2.07,5.59,8.25,8.25,0,0,1-6,2.1A7.85,7.85,0,0,0,226.67,101.63Zm6.55-8.14H233a7.73,7.73,0,0,1-7.72-7.57,8.06,8.06,0,0,0,7.88-7.87,7.8,7.8,0,0,1,7.68,7.55A8,8,0,0,0,233.22,93.49Zm-7.93-7.89a8.06,8.06,0,0,0-7.88-7.87A7.74,7.74,0,0,1,225,70.17a8.06,8.06,0,0,0,7.87,7.88A7.71,7.71,0,0,1,225.29,85.6ZM219.17,62a8.08,8.08,0,0,0,6.55-7.74c4,.09,7.13,3.5,7.13,7.85h0a7.74,7.74,0,0,1-7.57,7.72A8.24,8.24,0,0,0,219.17,62Zm6.56-8.07a7.7,7.7,0,0,1,7.19-7.54A8.06,8.06,0,0,0,241,54.25h.19a8.22,8.22,0,0,1-8,7.68C233.09,57.49,229.87,54,225.73,53.93Zm-.36-15.78a7.72,7.72,0,0,1,7.55-7.56,8.06,8.06,0,0,0,7.87,7.88A7.71,7.71,0,0,1,233.24,46,8.06,8.06,0,0,0,225.37,38.15ZM225,6.81A8.06,8.06,0,0,0,233,14.67h.16c0,.1,0,.2,0,.3a7.71,7.71,0,0,1-7.54,7.25,8.05,8.05,0,0,0-7.87-7.87A7.69,7.69,0,0,1,225,6.81Zm-7.22,8.11h0a1.93,1.93,0,0,1,0-.24,7.74,7.74,0,0,1,7.55,7.69h0v.17a8,8,0,0,1-8,7.71h-.14a8.08,8.08,0,0,1-5.42-2.31,7.19,7.19,0,0,1-2.14-5.26A8.59,8.59,0,0,0,217.75,14.92Zm-8.56-8.11a8.07,8.07,0,0,0,8.05,7.86h.19a8.22,8.22,0,0,1-8,7.68,7.82,7.82,0,0,0-7.45-8A7.7,7.7,0,0,1,209.19,6.81ZM202,14.68c4,.09,7.13,3.5,7.13,7.85h0a7.73,7.73,0,0,1-7.57,7.72,8.24,8.24,0,0,0-6.11-7.83A8.08,8.08,0,0,0,202,14.68Zm-15.9-.17a7.69,7.69,0,0,1,7.32-7.72v.1h0a8.05,8.05,0,0,0,8,7.78h.19a7.71,7.71,0,0,1-7.55,7.55h-.33a7.73,7.73,0,0,1-7.7-7.26c0-.15,0-.31,0-.46Zm-.19,1.72a8.07,8.07,0,0,0,7.87,6.33h0a7.87,7.87,0,0,1-2.07,5.6,8.29,8.29,0,0,1-6,2.09,7.84,7.84,0,0,0-6.57-7.78A8.07,8.07,0,0,0,185.9,16.23Zm-8.39-9.42a8.07,8.07,0,0,0,8.05,7.86h.16c0,.1,0,.2,0,.3a7.72,7.72,0,0,1-7.54,7.25,8.06,8.06,0,0,0-7.88-7.87A7.7,7.7,0,0,1,177.51,6.81Zm-7.22,8.11h0a1.93,1.93,0,0,1,0-.24,7.74,7.74,0,0,1,7.55,7.69h0v.17a8,8,0,0,1-8,7.71h-.14a8.1,8.1,0,0,1-5.42-2.31,7.19,7.19,0,0,1-2.14-5.26A8.57,8.57,0,0,0,170.29,14.92Zm-8.4-8.3Zm-.16.19a8.07,8.07,0,0,0,8.05,7.86H170a8.21,8.21,0,0,1-8,7.68c-.08-4.44-3.31-7.91-7.44-8A7.69,7.69,0,0,1,161.73,6.81Zm-7.2,7.87c4,.09,7.14,3.5,7.14,7.85h0a7.73,7.73,0,0,1-7.57,7.72,8.25,8.25,0,0,0-6.1-7.83A8.06,8.06,0,0,0,154.53,14.68Zm-15.9-.17A7.7,7.7,0,0,1,146,6.79v.1h0a8.05,8.05,0,0,0,8,7.78h.2a7.72,7.72,0,0,1-7.56,7.55h-.33a7.74,7.74,0,0,1-7.7-7.26c0-.15,0-.31,0-.46Zm-.18,1.72a8.05,8.05,0,0,0,7.86,6.33h0a7.91,7.91,0,0,1-2.06,5.6,8.32,8.32,0,0,1-6,2.09,7.84,7.84,0,0,0-6.57-7.78A8.08,8.08,0,0,0,138.45,16.23Zm-8.4-9.42a8.07,8.07,0,0,0,8,7.86h.16c0,.1,0,.2,0,.3a7.72,7.72,0,0,1-7.54,7.25,8.06,8.06,0,0,0-7.87-7.87A7.69,7.69,0,0,1,130.05,6.81Zm-7.21,8.11h0a1.93,1.93,0,0,0,0-.24,7.73,7.73,0,0,1,7.55,7.69h0v.17a8,8,0,0,1-8,7.71h-.14a8.13,8.13,0,0,1-5.43-2.31,7.23,7.23,0,0,1-2.14-5.26A8.59,8.59,0,0,0,122.84,14.92Zm-8.56-8.11a8.06,8.06,0,0,0,8,7.86h.2a8.23,8.23,0,0,1-8,7.68c-.08-4.44-3.3-7.91-7.44-8A7.69,7.69,0,0,1,114.28,6.81Zm-7.21,7.87c4,.09,7.14,3.5,7.14,7.85h0a7.73,7.73,0,0,1-7.57,7.72,8.27,8.27,0,0,0-6.11-7.83A8.06,8.06,0,0,0,107.07,14.68Zm-15.9-.17a7.7,7.7,0,0,1,7.32-7.72.34.34,0,0,1,0,.1h0a8.07,8.07,0,0,0,8,7.78h.19a7.72,7.72,0,0,1-7.56,7.55h-.32A7.72,7.72,0,0,1,91.16,15c0-.15,0-.31,0-.46ZM91,16.23a8.06,8.06,0,0,0,7.87,6.33h0a7.87,7.87,0,0,1-2.07,5.6,8.3,8.3,0,0,1-6,2.09,7.83,7.83,0,0,0-6.57-7.78A8.08,8.08,0,0,0,91,16.23ZM82.6,6.81a8.06,8.06,0,0,0,8,7.86h.17c0,.1,0,.2,0,.3a7.72,7.72,0,0,1-7.54,7.25,8.05,8.05,0,0,0-7.87-7.87A7.69,7.69,0,0,1,82.6,6.81Zm-7.22,8.11h0v-.24A7.73,7.73,0,0,1,83,22.37h0v.17a8,8,0,0,1-8,7.71h-.14a8.08,8.08,0,0,1-5.42-2.31,7.19,7.19,0,0,1-2.14-5.26A8.58,8.58,0,0,0,75.38,14.92ZM67,6.62Zm-.16.19a8.06,8.06,0,0,0,8.05,7.86h.19a8.23,8.23,0,0,1-8,7.68c-.09-4.44-3.31-7.91-7.45-8A7.69,7.69,0,0,1,66.82,6.81Zm-7.21,7.87c4,.09,7.14,3.5,7.14,7.85h0a7.73,7.73,0,0,1-7.57,7.72,8.24,8.24,0,0,0-6.11-7.83A8.06,8.06,0,0,0,59.61,14.68Zm-15.9-.17A7.71,7.71,0,0,1,51,6.79v.1h0a8,8,0,0,0,8,7.78h.19a7.72,7.72,0,0,1-7.56,7.55H51.4A7.73,7.73,0,0,1,43.7,15c0-.15,0-.31,0-.46Zm-.18,1.72a8.06,8.06,0,0,0,7.87,6.33h0a7.87,7.87,0,0,1-2.07,5.6,8.29,8.29,0,0,1-6,2.09,7.85,7.85,0,0,0-6.57-7.78A8.08,8.08,0,0,0,43.53,16.23ZM35.14,6.81a8.06,8.06,0,0,0,8,7.86h.16c0,.1,0,.2,0,.3a7.71,7.71,0,0,1-7.54,7.25A8.05,8.05,0,0,0,28,14.35,7.69,7.69,0,0,1,35.14,6.81Zm-7.22,8.11h0a1.93,1.93,0,0,1,0-.24,7.74,7.74,0,0,1,7.55,7.69h0v.17a8,8,0,0,1-8,7.71h-.14a8.08,8.08,0,0,1-5.42-2.31,7.19,7.19,0,0,1-2.14-5.26A8.59,8.59,0,0,0,27.92,14.92ZM19.36,6.81a8.06,8.06,0,0,0,8.05,7.86h.19a8.22,8.22,0,0,1-8,7.68,7.82,7.82,0,0,0-7.45-8A7.71,7.71,0,0,1,19.36,6.81ZM5.61,22.42a8.08,8.08,0,0,0,6.55-7.74c4,.09,7.13,3.5,7.13,7.85h0a7.73,7.73,0,0,1-7.57,7.72A8.24,8.24,0,0,0,5.61,22.42ZM3.86,38.15a7.72,7.72,0,0,1,7.55-7.56,8.06,8.06,0,0,0,7.87,7.88A7.71,7.71,0,0,1,11.73,46,8.06,8.06,0,0,0,3.86,38.15Zm.36,15.78a7.7,7.7,0,0,1,7.19-7.54,8.06,8.06,0,0,0,8.05,7.86h.16c0,.1,0,.2,0,.3A7.73,7.73,0,0,1,12.1,61.8,8.07,8.07,0,0,0,4.22,53.93ZM3.91,70.16a8.33,8.33,0,0,0,8.18-7.88,7.49,7.49,0,0,1,7.25,7.56,8.06,8.06,0,0,0-7.87,7.87h0A7.73,7.73,0,0,1,3.91,70.16ZM11.63,93.5a7.72,7.72,0,0,1-7.71-7.58,8.62,8.62,0,0,0,5.47-2.47,7.74,7.74,0,0,0,2.39-5.39,7.71,7.71,0,0,1,7.56,7.57,8,8,0,0,0-7.5,7.86Zm-6,8.08a8.08,8.08,0,0,0,6.55-7.74c4,.09,7.13,3.5,7.13,7.85h0a7.74,7.74,0,0,1-7.57,7.72A8.24,8.24,0,0,0,5.61,101.58ZM3.86,117.31a7.72,7.72,0,0,1,7.55-7.56,8.06,8.06,0,0,0,7.87,7.88,7.71,7.71,0,0,1-7.55,7.55A8.06,8.06,0,0,0,3.86,117.31Zm.36,15.78a7.7,7.7,0,0,1,7.19-7.54,8.06,8.06,0,0,0,8.05,7.86h.16c0,.1,0,.2,0,.3A7.73,7.73,0,0,1,12.1,141,8.07,8.07,0,0,0,4.22,133.09Zm-.31,16.23a8.33,8.33,0,0,0,8.18-7.88A7.49,7.49,0,0,1,19.34,149a8.06,8.06,0,0,0-7.87,7.87h0A7.73,7.73,0,0,1,3.91,149.32Zm7.72,23.34a7.72,7.72,0,0,1-7.71-7.58,8.67,8.67,0,0,0,5.47-2.47,7.74,7.74,0,0,0,2.39-5.39,7.71,7.71,0,0,1,7.56,7.57,8,8,0,0,0-7.5,7.86Zm-6,8.08A8.08,8.08,0,0,0,12.16,173c4,.09,7.13,3.5,7.13,7.85h0a7.74,7.74,0,0,1-7.57,7.72A8.24,8.24,0,0,0,5.61,180.74ZM3.86,196.47a7.72,7.72,0,0,1,7.55-7.56,8.05,8.05,0,0,0,7.87,7.87,7.71,7.71,0,0,1-7.55,7.56A8.06,8.06,0,0,0,3.86,196.47Zm.36,15.78a7.7,7.7,0,0,1,7.19-7.54,8.06,8.06,0,0,0,8.05,7.86h.16c0,.1,0,.2,0,.3a7.73,7.73,0,0,1-7.54,7.25A8.07,8.07,0,0,0,4.22,212.25Zm-.31,16.23a8.33,8.33,0,0,0,8.18-7.88,7.49,7.49,0,0,1,7.25,7.56A8.06,8.06,0,0,0,11.47,236h0A7.73,7.73,0,0,1,3.91,228.48Zm7.93,23.33h-.21a7.71,7.71,0,0,1-7.71-7.57,8.67,8.67,0,0,0,5.47-2.47,7.76,7.76,0,0,0,2.39-5.39A7.71,7.71,0,0,1,19.34,244,8,8,0,0,0,11.84,251.81Zm0-15.76a7.72,7.72,0,0,1,7.55-7.56,8.05,8.05,0,0,0,7.87,7.87,7.71,7.71,0,0,1-7.55,7.56A8.05,8.05,0,0,0,11.81,236.05Zm15.81,15.76h-.21a7.73,7.73,0,0,1-7.72-7.57,8.06,8.06,0,0,0,7.88-7.87A7.72,7.72,0,0,1,35.12,244,8,8,0,0,0,27.62,251.81Zm0-15.76a7.74,7.74,0,0,1,7.56-7.56A8.05,8.05,0,0,0,43,236.36a7.71,7.71,0,0,1-7.55,7.56A8.06,8.06,0,0,0,27.58,236.05Zm15.81,15.76h-.2a7.73,7.73,0,0,1-7.72-7.57,8.05,8.05,0,0,0,7.87-7.87,7.88,7.88,0,0,1,5.33,2.19A7.55,7.55,0,0,1,51,243.93,8,8,0,0,0,43.39,251.81Zm5.52-13.48A8.21,8.21,0,0,0,43.19,236h0a7.73,7.73,0,0,1-7.72-7.56,8.07,8.07,0,0,0,7.77-6.74,7.47,7.47,0,0,0,2.16,4.33A8.36,8.36,0,0,0,51,228.48a8.05,8.05,0,0,0,7.87,7.88,8,8,0,0,1-7.55,7.54A7.86,7.86,0,0,0,48.91,238.33ZM59.3,251.81h-.21a7.73,7.73,0,0,1-7.72-7.57,8.34,8.34,0,0,0,7.87-7.86A7.71,7.71,0,0,1,66.8,244,8,8,0,0,0,59.3,251.81ZM67,244.09Zm-7.72-8a7.74,7.74,0,0,1,7.56-7.56,8.05,8.05,0,0,0,7.87,7.87,7.71,7.71,0,0,1-7.55,7.56A8.06,8.06,0,0,0,59.26,236.05Zm15.82,15.76h-.21a7.73,7.73,0,0,1-7.72-7.57A8.05,8.05,0,0,0,75,236.38,7.73,7.73,0,0,1,82.58,244,8,8,0,0,0,75.08,251.81Zm0-15.76a7.74,7.74,0,0,1,7.56-7.56,8.05,8.05,0,0,0,7.87,7.87,7.73,7.73,0,0,1-7.56,7.56A8.05,8.05,0,0,0,75,236.05Zm15.8,15.76h-.2a7.73,7.73,0,0,1-7.71-7.57,8.05,8.05,0,0,0,7.87-7.87,7.9,7.9,0,0,1,5.33,2.19,7.59,7.59,0,0,1,2.36,5.36A8,8,0,0,0,90.84,251.81Zm5.52-13.48A8.26,8.26,0,0,0,90.64,236h0a7.73,7.73,0,0,1-7.71-7.56,8.07,8.07,0,0,0,7.76-6.74,8,8,0,0,0,7.81,6.74,8,8,0,0,0,7.87,7.88,7.48,7.48,0,0,1-2.3,5.17,8.3,8.3,0,0,1-5.25,2.37A7.87,7.87,0,0,0,96.36,238.33Zm10.39,13.48h-.2a7.73,7.73,0,0,1-7.72-7.57,8.67,8.67,0,0,0,5.48-2.47,7.81,7.81,0,0,0,2.39-5.39,7.72,7.72,0,0,1,7.56,7.57A8,8,0,0,0,106.75,251.81Zm0-15.76a7.74,7.74,0,0,1,7.56-7.56,8.05,8.05,0,0,0,7.87,7.87,7.73,7.73,0,0,1-7.56,7.56A8.05,8.05,0,0,0,106.72,236.05Zm15.81,15.76h-.21a7.73,7.73,0,0,1-7.71-7.57,8.05,8.05,0,0,0,7.87-7.87A7.73,7.73,0,0,1,130,244,8,8,0,0,0,122.53,251.81Zm0-15.76a7.72,7.72,0,0,1,7.55-7.56,8.06,8.06,0,0,0,7.88,7.87,7.73,7.73,0,0,1-7.56,7.56A8.05,8.05,0,0,0,122.5,236.05Zm15.8,15.76h-.2a7.72,7.72,0,0,1-7.71-7.57,8.05,8.05,0,0,0,7.87-7.87,7.9,7.9,0,0,1,5.33,2.19,7.54,7.54,0,0,1,2.35,5.36A8,8,0,0,0,138.3,251.81Zm5.52-13.48A8.23,8.23,0,0,0,138.1,236h0a7.72,7.72,0,0,1-7.71-7.56,8.07,8.07,0,0,0,7.76-6.74,7.55,7.55,0,0,0,2.17,4.33,8.36,8.36,0,0,0,5.64,2.41,8,8,0,0,0,7.86,7.88,8,8,0,0,1-7.54,7.54A7.91,7.91,0,0,0,143.82,238.33Zm10.39,13.48H154a7.72,7.72,0,0,1-7.71-7.57,8.36,8.36,0,0,0,7.87-7.86,7.72,7.72,0,0,1,7.56,7.57A8,8,0,0,0,154.21,251.81Zm7.68-7.72Zm-7.71-8a7.72,7.72,0,0,1,7.55-7.56,8.06,8.06,0,0,0,7.88,7.87,7.73,7.73,0,0,1-7.56,7.56A8.05,8.05,0,0,0,154.18,236.05ZM170,251.81h-.21a7.72,7.72,0,0,1-7.71-7.57,8.05,8.05,0,0,0,7.87-7.87A7.73,7.73,0,0,1,177.5,244,8,8,0,0,0,170,251.81Zm0-15.76a7.72,7.72,0,0,1,7.55-7.56,8.06,8.06,0,0,0,7.87,7.87,7.71,7.71,0,0,1-7.55,7.56A8.05,8.05,0,0,0,170,236.05Zm15.8,15.76h-.2a7.72,7.72,0,0,1-7.71-7.57,8.06,8.06,0,0,0,7.87-7.87,7.92,7.92,0,0,1,5.33,2.19,7.58,7.58,0,0,1,2.35,5.36A8,8,0,0,0,185.76,251.81Zm5.52-13.48a8.28,8.28,0,0,0-5.72-2.29h0a7.72,7.72,0,0,1-7.71-7.56,8.07,8.07,0,0,0,7.76-6.74,8,8,0,0,0,7.8,6.74,8.05,8.05,0,0,0,7.87,7.88,7.42,7.42,0,0,1-2.29,5.17,8.3,8.3,0,0,1-5.26,2.37A7.86,7.86,0,0,0,191.28,238.33Zm10.39,13.48h-.21a7.71,7.71,0,0,1-7.71-7.57,8.67,8.67,0,0,0,5.47-2.47,7.82,7.82,0,0,0,2.4-5.39,7.73,7.73,0,0,1,7.56,7.57A8,8,0,0,0,201.67,251.81Zm0-15.76a7.72,7.72,0,0,1,7.55-7.56,8.05,8.05,0,0,0,7.87,7.87,7.71,7.71,0,0,1-7.55,7.56A8.05,8.05,0,0,0,201.64,236.05Zm15.81,15.76h-.21a7.73,7.73,0,0,1-7.72-7.57,8.06,8.06,0,0,0,7.88-7.87A7.72,7.72,0,0,1,225,244,8,8,0,0,0,217.45,251.81Zm0-15.76a7.74,7.74,0,0,1,7.56-7.56,8.05,8.05,0,0,0,7.87,7.87,7.71,7.71,0,0,1-7.55,7.56A8.06,8.06,0,0,0,217.41,236.05Zm15.81,15.76H233a7.73,7.73,0,0,1-7.72-7.57,8.07,8.07,0,0,0,7.88-7.87,7.8,7.8,0,0,1,7.68,7.55A8,8,0,0,0,233.22,251.81Zm15.52-15.45a8,8,0,0,1-7.55,7.54A8.13,8.13,0,0,0,233,236h0a7.73,7.73,0,0,1-7.72-7.56,8.07,8.07,0,0,0,7.77-6.74,7.47,7.47,0,0,0,2.16,4.33,8.36,8.36,0,0,0,5.64,2.41A8.05,8.05,0,0,0,248.74,236.36Zm.32-16.09h0v.16a8,8,0,0,1-8,7.72h-.14a8.08,8.08,0,0,1-5.42-2.31,7.21,7.21,0,0,1-2.14-5.26,8.59,8.59,0,0,0,8.15-7.76h0v-.24A7.74,7.74,0,0,1,249.06,220.27Zm-.38-15.9a8,8,0,0,0-7.5,7.86H241a7.73,7.73,0,0,1-7.72-7.57,8.06,8.06,0,0,0,7.88-7.87A7.72,7.72,0,0,1,248.68,204.37Zm0-15.79a8,8,0,0,0-7.86,7.87,7.72,7.72,0,0,1-7.56-7.55,8.58,8.58,0,0,0,6.19-2.19,8.15,8.15,0,0,0,2.16-5.81C245.4,181.06,248.45,184.36,248.67,188.58Zm.25-15.59h.19a7.72,7.72,0,0,1-7.57,7.55h-.31a7.73,7.73,0,0,1-7.7-7.26c0-.16,0-.31,0-.47h0a7.71,7.71,0,0,1,7.33-7.71v.1h0A8.05,8.05,0,0,0,248.92,173Zm-.18-15.78a8,8,0,0,1-7.55,7.53,8.13,8.13,0,0,0-8.17-7.86h0a7.73,7.73,0,0,1-7.72-7.56,8.07,8.07,0,0,0,7.77-6.74,7.47,7.47,0,0,0,2.16,4.33,8.41,8.41,0,0,0,5.64,2.42A8.07,8.07,0,0,0,248.74,157.21Zm.32-16.1h0v.16a8,8,0,0,1-8,7.72h-.15a8.08,8.08,0,0,1-5.41-2.31,7.21,7.21,0,0,1-2.14-5.26,8.59,8.59,0,0,0,8.15-7.76h0v-.24A7.74,7.74,0,0,1,249.06,141.11Zm-.38-15.9a8,8,0,0,0-7.5,7.86H241a7.73,7.73,0,0,1-7.72-7.57,8.06,8.06,0,0,0,7.88-7.87A7.73,7.73,0,0,1,248.68,125.21Zm0-15.79a8,8,0,0,0-7.86,7.87,7.72,7.72,0,0,1-7.56-7.55,8.58,8.58,0,0,0,6.19-2.19,8.14,8.14,0,0,0,2.16-5.81C245.4,101.9,248.45,105.2,248.67,109.42Zm.25-15.59h.19a7.72,7.72,0,0,1-7.56,7.55h-.32a7.73,7.73,0,0,1-7.7-7.26c0-.16,0-.31,0-.46h0A7.71,7.71,0,0,1,240.87,86v.1h0A8.05,8.05,0,0,0,248.92,93.83Zm-.18-15.78a8,8,0,0,1-7.55,7.53A8.13,8.13,0,0,0,233,77.72h0a7.73,7.73,0,0,1-7.72-7.56,8.06,8.06,0,0,0,7.77-6.74,7.47,7.47,0,0,0,2.16,4.33,8.41,8.41,0,0,0,5.64,2.42A8.07,8.07,0,0,0,248.74,78.05Zm.32-16.1h0v.17a8,8,0,0,1-8,7.71h-.15a8.08,8.08,0,0,1-5.41-2.31,7.19,7.19,0,0,1-2.14-5.26,8.59,8.59,0,0,0,8.15-7.76h0v-.24A7.74,7.74,0,0,1,249.06,62Zm-.38-15.9a8,8,0,0,0-7.5,7.86H241a7.73,7.73,0,0,1-7.72-7.56,8.07,8.07,0,0,0,7.88-7.88A7.73,7.73,0,0,1,248.68,46.05Zm0-15.79a8,8,0,0,0-7.86,7.87,7.72,7.72,0,0,1-7.56-7.55,8.58,8.58,0,0,0,6.19-2.19,8.13,8.13,0,0,0,2.16-5.8C245.4,22.74,248.45,26,248.67,30.26Zm-7.12-8h-.32a7.73,7.73,0,0,1-7.7-7.26c0-.15,0-.31,0-.46h0a7.71,7.71,0,0,1,7.33-7.72v.1h0a8,8,0,0,0,8,7.78h.19A7.72,7.72,0,0,1,241.55,22.22Z"/></g></svg>