<svg xmlns="http://www.w3.org/2000/svg" viewBox="0 0 256 256"><defs><style>.cls-1{fill:#595854;}</style></defs><title>seamless_pattern12</title><g id="seamless_pattern12"><path class="cls-1" d="M250.44,0h-.34V9.65l-8.35-4.82-2.29-1.35,6-3.48h-.59l-5.67,3.28L237.33,0H237l1.92,3.33-8.12-.06L228.9,0h-.34l2,3.41L228.34,7.2H224l-2.19-3.79,2-3.41h-.34l-2,3.4-8-.07L215.33,0H215l-1.89,3.28L207.42,0h-.59l6,3.47L202.17,9.62V0h-.34V9.65l-8.37-4.83-2.27-1.34,6-3.48h-.59L191,3.28,189.06,0h-.34l1.92,3.33-8.13-.06L180.63,0h-.34l2,3.41L180.07,7.2H175.7l-2.19-3.79,2-3.41h-.34l-2,3.4-8.05-.07L167.05,0h-.34l-1.89,3.28L159.15,0h-.59l6,3.47L153.9,9.62V0h-.34V9.65l-8.38-4.83-2.26-1.34,6-3.48h-.59l-5.67,3.28L140.79,0h-.35l1.93,3.33-8.13-.06L132.36,0H132l2,3.41L131.8,7.2h-4.38l-2.18-3.79,2-3.41h-.34l-2,3.4-8-.07L118.78,0h-.34l-1.89,3.28L110.88,0h-.59l6,3.47L105.63,9.63V0h-.34V9.65L96.91,4.81,94.64,3.48l6-3.48h-.59L94.41,3.28,92.51,0h-.34l1.92,3.33L86,3.27,84.08,0h-.34l2,3.41L83.53,7.2H79.15L77,3.41l2-3.41H78.6l-2,3.4-8-.07L70.51,0h-.34L68.28,3.28,62.61,0H62l6,3.47L57.35,9.63V0H57V9.65L48.63,4.81,46.37,3.48,52.4,0h-.59L46.13,3.28,44.24,0H43.9l1.92,3.33L37.7,3.27,35.81,0h-.34l2,3.41L35.26,7.2H30.88L28.69,3.41l2-3.41h-.34l-2,3.4-8-.07L22.24,0H21.9L20,3.28,14.33,0h-.59l6,3.47L9.08,9.63V0H8.74V9.65L.36,4.81,0,4.6v.34l.21.13,8.43,5L2.41,20.83,0,19.44v.34L2.19,21,0,22.33v.34l2.32-1.36V33.65L0,32.4v.34l2.18,1.17L0,35.09v.34l2.36-1.29V46.67L0,45.26v.34L2.3,47,0,48.3v.34l2.46-1.42L8.73,58.1,0,63.14v.34l8.74-5V70.75L.38,65.92,0,65.7V66l.21.12,8.43,5L2.41,81.93,0,80.54v.34l2.19,1.26L0,83.43v.34L2.32,82.4V94.75L0,93.5v.34L2.18,95,0,96.19v.34l2.36-1.29v12.53L0,106.35v.35l2.3,1.37L0,109.4v.34l2.46-1.42,6.27,10.87-8.73,5v.35l8.74-5v12.31L.37,127,0,126.79v.35l.19.11,8.45,5L2.41,143,0,141.63V142l2.19,1.27L0,144.52v.34l2.32-1.36v12.34L0,154.6v.33l2.18,1.17L0,157.29v.34l2.36-1.29v12.52L0,167.45v.35l2.3,1.37L0,170.5v.34l2.46-1.42,6.27,10.87-8.73,5v.34l8.74-5v12.32L.37,188.11,0,187.89v.34l.19.12,8.45,5L2.41,204.12,0,202.73v.34l2.19,1.26L0,205.62V206l2.32-1.36v12.34L0,215.69V216l2.18,1.17L0,218.38v.34l2.36-1.29V230L0,228.55v.34l2.3,1.38L0,231.59v.34l2.46-1.41,6.27,10.87-8.73,5v.34l8.74-5.05V254L.38,249.21,0,249v.34l.17.1,8.47,5L7.74,256h.34l.81-1.41L9.7,256h.35l-.89-1.54L20,248.09,24.54,256h.34l-4.61-8,8.24.07,2.14,3.69L28.09,256h.34l2.49-4.11h4.34L37.67,256H38l-2.5-4.26L37.7,248l8.08.06-4.61,8h.34l4.58-7.93,2.38,1.38,8.45,5L56,256h.34l.81-1.41L58,256h.34l-.89-1.54,10.81-6.37L72.81,256h.34l-4.61-8,8.25.07,2.13,3.69L76.36,256h.34l2.5-4.11h4.33L85.94,256h.35l-2.51-4.26L86,248l8.09.06-4.62,8h.34l4.58-7.93,2.33,1.35,8.5,5-.91,1.57h.34l.81-1.41.82,1.41h.34l-.89-1.54,10.82-6.37,4.56,7.91h.34l-4.61-8,8.25.07,2.13,3.69L124.63,256H125l2.5-4.11h4.33l2.42,4.11h.34l-2.5-4.26,2.18-3.79,8.09.06-4.62,8h.35l4.57-7.93,2.37,1.37,8.46,5-.91,1.57h.34l.82-1.41.81,1.41h.34l-.89-1.54,10.82-6.37,4.57,7.91h.34l-4.61-8,8.24.07,2.13,3.69L172.9,256h.35l2.49-4.11h4.33l2.42,4.11h.34l-2.5-4.26,2.18-3.79,8.09.06L186,256h.34l4.57-7.93,2.39,1.38,8.44,5-.91,1.57h.34l.82-1.41.81,1.41h.34l-.88-1.54,10.81-6.37,4.57,7.91H218l-4.61-8,8.24.07,2.13,3.69L221.17,256h.35l2.49-4.11h4.33l2.42,4.11h.34l-2.5-4.26,2.18-3.79,8.09.06-4.61,8h.34l4.58-7.93,2.41,1.39,8.41,5-.91,1.57h.34l.82-1.41.81,1.41h.34l-.88-1.54,5.48-3.23v-.43L250.44,254V241.7l5.56,3.21v-.34l-5.51-3.18,5.51-9.54v-.59l-5.71,9.89-6.22-10.78H256v-.3H244V217.33h12V217H244V204.47h12v-.29H244.08l6.17-10.69,5.75,10v-.59l-5.48-9.49,5.48-3.23v-.43l-5.56,3.21V180.6l5.56,3.21v-.34l-5.51-3.18,5.51-9.54v-.59l-5.71,9.89-6.22-10.78H256V169H244V156.24h12v-.31H244V143.37h12v-.29H244.08l6.17-10.69,5.75,10v-.59l-5.48-9.5L256,129v-.43l-5.56,3.21V119.5l5.56,3.21v-.34l-5.51-3.18,5.51-9.53v-.59L250.29,119l-6.22-10.77H256v-.3H244V95.14h12v-.31H244V82.28h12V82H244.08l6.17-10.68,5.75,10v-.59l-5.48-9.5L256,67.94v-.43l-5.56,3.21V58.41L256,61.62v-.35l-5.51-3.17L256,48.56V48l-5.71,9.88-6.22-10.77H256v-.3H244V34h12v-.31H244V21.18h12v-.29H244.08l6.17-10.69,5.75,10v-.59l-5.48-9.49L256,6.84V6.42l-5.56,3.2ZM230.78,3.56l8.09.06-6.18,10.7-4.09-7Zm1.7,233.33-4.14,6.83H224l-4.18-6.82h6.3v-.29h-6.41l.08-3.5.2-9.35h6.13v-.3h-5.92l5.94-5.86,5.95,5.85h-5.92v.3h6.13l.22,9.88.06,3h-6.41v.3Zm-48.27,0-4.14,6.83h-4.33l-4.18-6.82h6.3v-.29h-6.41l.08-3.5.2-9.35h6.13v-.3h-5.92l5.94-5.86,6,5.85h-5.92v.3H184l.22,9.95.06,2.9h-6.41v.3Zm-48.27,0-4.14,6.83h-4.33l-4.18-6.82h6.3v-.29h-6.41l.07-3.5.21-9.35h6.13v-.3h-5.92l5.93-5.86,6,5.85h-5.91v.3h6.13l.21,9.88.07,3h-6.41v.3Zm-48.27,0-4.14,6.83H79.2L75,236.9h6.3v-.29H74.91l.07-3.5.2-9.35h6.14v-.3H75.4l5.93-5.86,6,5.85H81.36v.3H87.5l.21,9.64.07,3.21H81.36v.3Zm-48.28,0-4.13,6.83H30.92l-4.17-6.82h6.3v-.29H26.64l.07-3.5.2-9.35h6.14v-.3H27.13l5.93-5.86L39,223.45H33.09v.3h6.14l.21,9.64.06,3.21H33.09v.3ZM232.1,40.16h-5.92v.29h6.13l.22,9.79.06,3.06h-6.41v.3h6.3l-4.14,6.84H224l-4.18-6.82h6.3v-.29h-6.41l.08-3.48.2-9.36h6.13v-.3h-5.92l5.94-5.86Zm-5.74-6L232.54,28l11,5.91L232.36,40Zm-.22,41.77h6.41l-.13,6-.15,6.85h-6.13V89h6.07l-6.06,6L220,89h6.06V88.7H220l-.27-12.3v-.55h6.41v-.29h-6.3l4.22-7h4.33l4.1,7h-6.3v.3Zm6.34,38.81-4.14,6.83H224l-4.18-6.81h6.3v-.3h-6.41l.08-3.48.2-9.36h6.13v-.3h-5.92l5.94-5.86,5.95,5.85h-5.92v.29h6.13l.22,9.86.06,3h-6.41v.29ZM226.14,137h6.41l-.13,6.06-.15,6.78h-6.13v.3h6.07l-6.06,6-6.12-6h6.06v-.29H220L219.68,137h6.41v-.3h-6.3l4.22-7h4.33l4.1,7h-6.3V137Zm6.34,38.82-4.14,6.83H224l-4.18-6.82h6.3v-.3h-6.41l.08-3.49.2-9.36h6.13v-.29h-5.92l5.94-5.86,5.95,5.84h-5.92v.3h6.13l.22,9.89.06,3h-6.41v.29Zm-6.34,22.28h6.41l-.13,6.07-.15,6.78h-6.13v.29h6.07l-6.06,6-6.12-6h6.06v-.3H220l-.27-12.31v-.53h6.41v-.3h-6.3l4.22-7h4.33l4.1,7h-6.3v.3Zm-6.61-.46-6.17-10.69,8.24.06,2.13,3.7Zm.13,13.17-11-6.45,10.7-6.18.15,7.06Zm-35.36,0,.12-5.73.15-6.91,10.7,6.18Zm11.11-6.19v12.34l-11-5.89Zm-11-7-4.09-7,2.18-3.79,8.09.06Zm-.48,13.59-6.07,6-6.11-6h6.06v-.3h-6.14l-.26-12.28v-.56h6.41v-.3h-6.3l4.22-7h4.33l4.1,7h-6.31v.3h6.42l-.14,6.07-.14,6.78h-6.14v.29Zm-12.68-13.59-6.17-10.69,8.24.06,2.13,3.7Zm.13,13.17-11-6.45,10.69-6.18.11,5Zm-35.37,0,.13-5.63.15-7,10.7,6.18Zm11.11-6.19v12.34l-11-5.89Zm-11-7-4.09-7,2.18-3.79,8.09.06Zm-.49,13.59-6.06,6-6.11-6h6.06v-.3h-6.14l-.28-12.84h6.42v-.3h-6.3l4.22-7h4.33l4.1,7h-6.31v.3H136l-.12,5.82-.15,7h-6.14v.29ZM123,197.61l-6.18-10.69,8.25.06,2.13,3.7Zm.13,13.17-11-6.45,10.69-6.18.11,5Zm-35.37,0,.12-5.63.16-7,10.7,6.18Zm11.11-6.19v12.34l-11-5.89Zm-11-7-4.1-7L86,186.85l8.09.06Zm-.49,13.59-6.06,6-6.11-6h6.06v-.3H75.14l-.28-12.84h6.42v-.3H75l4.23-7h4.33l4.1,7H81.32v.3h6.41v.7l-.26,12.15H81.32v.29ZM74.72,197.61l-6.18-10.69,8.25.06,2.13,3.7Zm.12,13.17-11-6.45,10.69-6.18.11,5Zm-35.36,0,.1-4.41.17-8.23,10.71,6.18Zm11.11-6.19v12.34l-11-5.89Zm-11-7-4.1-7,2.19-3.79,8.08.06Zm-.49,13.59-6.06,6-6.11-6H33v-.3H26.87l-.28-12.84H33v-.3H26.7l4.22-7h4.34l4.09,7h-6.3v.3h6.41l-.13,6-.15,6.86H33.05v.29ZM26.44,197.61l-6.17-10.69,8.24.06,2.14,3.7Zm.13,13.17-11-6.45,10.69-6.18.11,5Zm0-170.39-.27,12.8L15.58,47Zm-11.1,6.29V34.16l11,6Zm11,7.06,4.17,6.8-2.29,3.95-8-.06Zm13.17,0,6.17,10.68-8.12-.06-2.19-3.78Zm-.12-13.36,11,6.6L39.8,53.19Zm35.36,0-.28,12.8L63.86,47ZM63.78,46.68V34.16l11,6Zm11,7.06,4.16,6.8-2.29,3.95-8-.06Zm13.16,0,6.17,10.68L86,64.36l-2.19-3.78ZM87.8,40.38l11,6.6L88.07,53.19Zm35.36,0-.27,12.8L112.13,47Zm-11.11,6.29V34.16l11,6Zm11,7.06,4.16,6.8-2.28,3.95-8-.06Zm13.17,0,6.17,10.68-8.13-.06-2.18-3.78Zm-.13-13.36,11,6.6-10.77,6.21Zm35.36,0-.27,12.8L160.4,47Zm-11.11,6.29V34.16l11,6Zm11,7.06,4.16,6.8-2.28,3.95-8.05-.06Zm13.17,0,6.17,10.68-8.13-.06-2.18-3.78Zm-.13-13.36,11,6.6-10.77,6.21Zm35.36,0-.27,12.8L208.67,47Zm-11.11,6.29V34.16l11,6Zm11,7.06,4.16,6.8-2.28,3.95-8-.06Zm2,11.05,2.13,3.69-4.2,6.94-6.17-10.7Zm-2.17,110.6-10.76-6.21,11-6.59Zm4.3,7.34-2.28,4-8-.07,6.17-10.68Zm-28-13.76V156.24H208.3V169Zm12.49.3L202,180.05l-6.22-10.78Zm-24,6.52-4.14,6.83h-4.33l-4.18-6.82h6.3v-.3h-6.41l.07-3.24.21-9.61h6.13v-.29h-5.92l5.94-5.86,6,5.84h-5.92v.3H184l.22,9.91.06,2.93h-6.41v.29ZM147.47,169V156.24H160V169Zm12.5.3-6.22,10.78-6.22-10.78Zm-24,6.52-4.14,6.83h-4.33l-4.18-6.82h6.3v-.3h-6.41l.07-3.24.21-9.61h6.13v-.29h-5.92l5.93-5.86,6,5.84h-5.91v.3h6.13l.21,9.91.07,2.93h-6.41v.29ZM99.2,169V156.24h12.55V169Zm12.5.3-6.22,10.78-6.22-10.78Zm-24,6.52-4.14,6.83H79.2L75,175.8h6.3v-.3H74.91l.07-3.24.2-9.61h6.14v-.29H75.4l5.93-5.86,6,5.84H81.36v.3H87.5l.21,9.65.07,3.19H81.36v.29ZM50.93,169V156.24H63.48V169Zm12.5.3-6.22,10.78L51,169.27Zm-24,6.52-4.13,6.83H30.92l-4.17-6.82h6.3v-.3H26.64l.07-3.24.2-9.61h6.14v-.29H27.13l5.93-5.86L39,162.35H33.09v.3h6.14l.21,9.65.06,3.19H33.09v.29Zm-2,10.91-2.18,3.79H30.88l-2.19-3.79,2.19-3.78h4.38Zm-10.74-50,4.22-7h4.34l4.09,7h-6.3V137h6.41l-.13,6-.15,6.86H33.05v.3h6.07l-6.06,6-6.11-6H33v-.29H26.87L26.59,137H33v-.3Zm6.35-22.25H26.64l.07-3.24.2-9.6h6.14v-.3H27.13l5.93-5.86L39,101.26H33.09v.29h6.14l.21,9.62.06,3.23H33.09v.29h6.3l-4.13,6.83H30.92l-4.17-6.81h6.3v-.3Zm0-38.83H26.7l4.22-7h4.34l4.09,7h-6.3v.3h6.41l-.13,5.92-.15,6.92H33.05V89h6.07l-6.06,6L27,89H33V88.7H26.87l-.28-12.85H33v-.29Zm30.44,6.71V94.83H50.89V82.28ZM51,82,57.16,71.3,63.33,82Zm30.29-6.41H75l4.23-7h4.33l4.1,7H81.32v.3h6.41l-.21,9.95-.06,2.89H81.32V89h6.07l-6.06,6-6.11-6h6.06V88.7H75.14l-.28-12.85h6.42v-.29Zm30.43,6.71V94.83H99.16V82.28ZM99.27,82l6.16-10.68L111.6,82Zm30.28-6.41h-6.3l4.22-7h4.33l4.1,7h-6.31v.3H136l-.12,5.92-.15,6.92h-6.14V89h6.07l-6.06,6-6.11-6h6.06V88.7h-6.14l-.28-12.85h6.42v-.29ZM160,82.28V94.83H147.43V82.28ZM147.54,82l6.17-10.68L159.87,82Zm30.28-6.41h-6.3l4.22-7h4.33l4.1,7h-6.31v.3h6.42l-.13,5.82-.15,7h-6.14V89h6.08l-6.07,6-6.11-6h6.06V88.7h-6.14L171.41,76v-.17h6.41v-.29Zm30.43,6.71V94.83H195.7V82.28ZM195.81,82,202,71.3,208.15,82Zm12.74,12.75V82.39l11,6.45Zm0,.53,11,6-11,6.55Zm10.78,19.34-6.28,10.87-10.87-6.28,6.28-10.87ZM202,132.39l6.17,10.69H195.81Zm-.15-.55L193.46,127l-2.27-1.34,10.64-6.14Zm-6-23.66h12.44L202,119Zm6.37,11.32,10.66,6.16-10.66,6.16Zm6.13-11.62H195.75V95.14H208.3Zm-6.48,11.31L191,125.47l-6.28-10.87,10.87-6.28ZM184.3,149.7l.12-5.81.15-6.84,10.7,6.19Zm11.11-6.2v12.34l-11-5.89Zm-11-7-4.09-7,2.18-3.78,8.09.06Zm-.48,13.59-6.07,6-6.11-6h6.06v-.29h-6.14L171.41,137h6.41v-.3h-6.3l4.22-7h4.33l4.1,7h-6.31V137h6.42l-.14,6.06-.14,6.78h-6.14v.3Zm-12.51-48.62-.27,12.8-10.76-6.21Zm-11.11,6.29V95.26l11,6Zm11,7.06,4.16,6.8-2.28,4-8.05-.07Zm.64-13.57,5.94-5.86,6,5.85h-5.92v.29H184l.22,9.86.06,3h-6.41v.29h6.3l-4.14,6.83h-4.33l-4.18-6.81h6.3v-.3h-6.41l.07-3.24.21-9.6h6.13v-.3Zm6.15-6.07,6.18-6.1,11,5.9-11.17,6.1Zm4.17,30.41-2.19,3.79H175.7l-2.19-3.79,2.19-3.79h4.37Zm-8.93.28,2.13,3.69-4.2,6.93-6.17-10.69ZM171.22,142l.17,7.67-11-6.45,10.69-6.18Zm6.44,14.29-6,5.91-11.24-6.13,11-5.91Zm4.85-30.84-2.18-3.79,4.14-6.84,6.17,10.69Zm1.83-24,11,6.59-10.77,6.22Zm11.11,6.29-11-6.55,11-6Zm0-13-11-5.89,11-6.46ZM184.3,88.6l.12-5.8.15-6.84,10.7,6.18Zm.12-13.18-4.09-7,2.18-3.79,8.09.06Zm-13,13.66,6.23,6.12-6,5.91L160.44,95Zm-.19-.24-11,5.89V82.39Zm-10.82-6.71L171.11,76l.11,5,.17,7.68ZM171.1,114.6l-6.28,10.87L154,119.19l6.28-10.87Zm-17.39,17.79,6.16,10.69H147.54Zm-.15-.55L145.18,127l-2.26-1.34,10.64-6.14Zm-6-23.66H160L153.75,119Zm6.37,11.32,10.66,6.16-10.66,6.16ZM160,107.88H147.47V95.14H160Zm-6.48,11.31-10.87,6.28L136.4,114.6l10.87-6.28ZM136,149.7l.13-5.72.15-6.93,10.7,6.19Zm11.11-6.2v12.34l-11-5.89Zm-11-7-4.09-7,2.18-3.78,8.09.06Zm-.49,13.59-6.06,6-6.11-6h6.06v-.29h-6.14L123.13,137h6.42v-.3h-6.3l4.22-7h4.33l4.1,7h-6.31V137H136l-.12,5.82-.15,7h-6.14v.3Zm-12.5-48.62-.27,12.8-10.76-6.21Zm-11.11,6.29V95.26l11,6Zm11,7.06,4.16,6.8-2.28,4-8-.07Zm.64-13.57,5.93-5.86,6,5.85h-5.91v.29h6.13l.21,9.86.07,3h-6.41v.29h6.3l-4.14,6.83h-4.33l-4.18-6.81h6.3v-.3h-6.41l.07-3.24.21-9.6h6.13v-.3Zm6.14-6.07L136,89.1,147,95l-11.18,6.1ZM134,125.61l-2.19,3.79h-4.38l-2.18-3.79,2.18-3.79h4.38Zm-8.93.28,2.13,3.69-4.2,6.93-6.18-10.69ZM123,142l.17,7.67-11-6.45,10.69-6.18Zm6.44,14.29-6,5.91-11.25-6.13,11-5.91Zm4.85-30.84-2.18-3.79,4.14-6.84,6.17,10.69Zm1.83-24,11,6.59-10.77,6.22Zm11.11,6.29-11-6.55,11-6Zm-.05-13-11-5.89,11-6.46ZM136,88.6l.07-3.1L136.3,76,147,82.14Zm.13-13.18-4.09-7,2.18-3.79,8.09.06Zm-13,13.66,6.24,6.12-6,5.91L112.16,95Zm-.18-.24-11,5.89V82.39Zm-10.82-6.71L122.84,76l.11,5,.17,7.68Zm10.68,32.47-6.28,10.87-10.87-6.28L112,108.32Zm-17.4,17.79,6.17,10.69H99.27Zm-.14-.55L96.91,127l-2.27-1.34,10.65-6.14Zm-6-23.66H111.7L105.48,119Zm6.37,11.32,10.66,6.16-10.66,6.16Zm6.12-11.62H99.2V95.14h12.55Zm-6.47,11.31L94.4,125.47,88.13,114.6,99,108.32ZM87.75,149.7l.13-5.72.15-6.93,10.7,6.19Zm11.11-6.2v12.34L87.9,150Zm-11-7-4.1-7L86,125.76l8.09.06Zm-.49,13.59-6.06,6-6.11-6h6.06v-.29H75.14L74.86,137h6.42v-.3H75l4.23-7h4.33l4.1,7H81.32V137h6.41l-.13,6-.14,6.86H81.32v.3Zm-12.5-48.62-.28,12.8-10.75-6.21Zm-11.11,6.29V95.26l11,6Zm11,7.06,4.16,6.8-2.29,4-8-.07Zm.64-13.57,5.93-5.86,6,5.85H81.36v.29H87.5l.21,9.62.07,3.23H81.36v.29h6.31l-4.14,6.83H79.2L75,114.71h6.3v-.3H74.91l.07-3.24.2-9.6h6.14v-.3Zm6.14-6.07,6.18-6.1,11,5.9-11.18,6.1Zm4.18,30.41-2.19,3.79H79.15L77,125.61l2.18-3.79h4.38Zm-8.93.28,2.13,3.69-4.2,6.93-6.18-10.69ZM74.68,142l.16,7.67-11-6.45,10.69-6.18Zm6.44,14.29-6,5.91-11.25-6.13,11-5.91ZM86,125.46l-2.19-3.79,4.14-6.84,6.17,10.69Zm1.83-24,11,6.59-10.77,6.22Zm11.11,6.29-11-6.55,11-6Zm0-13-11-5.89,11-6.46ZM87.75,88.6l.13-5.71L88,76l10.7,6.18Zm.13-13.18-4.1-7L86,64.66l8.09.06Zm-13,13.66,6.24,6.12-6,5.91L63.89,95Zm-.18-.24-11,5.89V82.39ZM63.88,82.13,74.57,76l.11,5,.16,7.68ZM74.56,114.6l-6.28,10.87-10.87-6.28,6.27-10.87Zm-17.4,17.79,6.17,10.69H51Zm-.15-.55L48.63,127l-2.26-1.33L57,119.53Zm-6-23.66H63.43L57.21,119Zm6.37,11.32L68,125.66l-10.67,6.16Zm6.13-11.62H50.93V95.14H63.48ZM57,119.19l-10.87,6.28L39.86,114.6l10.87-6.28ZM39.48,149.7l.1-4.48.17-8.17,10.71,6.19Zm11.11-6.2v12.34l-11-5.89Zm-11-7-4.1-7,2.19-3.78,8.08.06ZM37.7,125.46l-2.19-3.79,4.14-6.84,6.17,10.69Zm1.83-24,11,6.59L39.8,114.29Zm11.1,6.29-11-6.55,11-6ZM39.27,101.1l-6-5.9,6.18-6.1,11,5.9Zm11.32-6.35-11-5.89,11-6.46ZM39.48,88.6l.05-2.23L39.75,76l10.71,6.18Zm.13-13.18-4.1-7,2.19-3.79,8.08.06Zm-13,13.66,6.24,6.12-6,5.91L15.62,95Zm8.65,32.74,2.18,3.79-2.18,3.79H30.88l-2.19-3.79,2.19-3.79Zm-8.65,28.35,6.24,6.13-6,5.91-11.25-6.13Zm12.66,12-6-5.89,6.18-6.11,11,5.91Zm.4.12,11-6v12.52Zm10.9,6.86L39.8,175.39l-.27-12.82ZM39.81,136.75l6.28-10.87,2.37,1.37,8.46,5L50.68,143Zm11.08,6.62H63.44v12.56H50.89Zm6.54-11.1,10.81-6.38,6.27,10.86L63.64,143Zm6.3,11.21,11,6.46-11,5.89Zm.05,12.87,11,6-11,6.55Zm11.11,6.24-.28,12.8-10.75-6.21Zm-.13,13.35,4.16,6.79-2.29,4-8-.07Zm4.39,7h4.38l2.19,3.78-2.19,3.79H79.15L77,186.7Zm8.39-20.73-6-5.89,6.18-6.11,11,5.91Zm.4.12,11-6v12.52Zm10.9,6.86-10.77,6.22-.27-12.82ZM88.08,136.75l6.28-10.87,2.33,1.34,8.5,5L99,143Zm11.08,6.62h12.55v12.56H99.16Zm6.54-11.1,10.82-6.38,6.26,10.86L111.91,143ZM112,143.48l11,6.46-11,5.89Zm0,12.87,11,6-11,6.55Zm11.11,6.24-.27,12.8-10.76-6.21ZM123,175.94l4.16,6.79-2.28,4-8-.07Zm4.39,7h4.38L134,186.7l-2.19,3.79h-4.38l-2.18-3.79Zm8.39-20.73-6-5.89,6.19-6.11,11,5.91Zm.4.12,11-6v12.52Zm10.9,6.86-10.77,6.22-.27-12.82Zm-10.75-32.42,6.27-10.87,2.36,1.36,8.47,5L147.23,143Zm11.07,6.62H160v12.56H147.43Zm6.54-11.1,10.82-6.38,6.26,10.86L160.18,143Zm6.31,11.21,11,6.46-11,5.89Zm0,12.87,11,6-11,6.55Zm11.11,6.24-.27,12.8-10.76-6.21Zm-.13,13.35,4.16,6.79-2.28,4-8.05-.07Zm4.4,7h4.37l2.19,3.78-2.19,3.79H175.7l-2.19-3.79Zm8.39-20.73-6-5.89,6.18-6.11,11,5.91Zm.4.12,11-6v12.52Zm10.89,6.86-10.77,6.22-.27-12.82Zm-10.75-32.42,6.27-10.87,2.36,1.36,8.47,5L195.5,143Zm11.07,6.62h12.55v12.56H195.7Zm6.55-11.1,10.81-6.38,6.27,10.86L208.46,143Zm6.3,11.21,11,6.46-11,5.89Zm0,12.87,11,6-11,6.55Zm.12-.27,11-5.91,6.24,6.13-6,5.91Zm0-12.85,10.7-6.18.15,7,.12,5.61Zm10.84-6.72-6.17-10.69,8.24.07,2.13,3.69Zm1.92-10.92-8-.07,6.17-10.68,4.16,6.8Zm-2-11.3-10.76-6.21,11-6.59ZM208.71,95l11-5.9,6.24,6.12-6,5.91Zm0-12.85L219.39,76l.15,7,.12,5.62Zm10.64-6.48-10.87,6.28-6.21-10.76,10.81-6.37Zm-17.16-4.93V58.41l10.66,6.15ZM202,57.85,195.8,47.08h12.44Zm-.19,12.9-8.36-4.83-2.28-1.34,10.64-6.15Zm-8.55-4.6,8.45,5-6.23,10.8-10.87-6.28,6.27-10.87Zm-11-1.64-2.19,3.79H175.7l-2.19-3.79,2.19-3.79h4.37Zm-8.93.28,2.13,3.69-4.2,6.94-6.17-10.7Zm-2.28,10.86-10.87,6.28L154,71.17l10.82-6.37ZM153.9,70.72V58.41l10.66,6.15Zm-.15-12.87-6.22-10.77H160Zm-.19,12.9-8.36-4.83-2.28-1.34,10.64-6.15ZM145,66.16l8.45,5-6.23,10.8-10.87-6.28,6.27-10.87Zm-11-1.65L131.8,68.3h-4.38l-2.18-3.79,2.18-3.79h4.38Zm-8.93.28,2.13,3.69L123,75.42l-6.18-10.7Zm-2.28,10.86-10.87,6.28L105.7,71.17l10.82-6.37Zm-17.15-4.93V58.41l10.66,6.15Zm-.15-12.87L99.26,47.08H111.7Zm-.19,12.9-8.37-4.83-2.28-1.34,10.65-6.15Zm-8.55-4.6,8.45,5L99,81.93,88.08,75.65l6.28-10.87Zm-11-1.64L83.53,68.3H79.15L77,64.51l2.18-3.79h4.38Zm-8.93.28,2.13,3.69-4.2,6.94-6.18-10.7ZM74.51,75.65,63.64,81.93,57.43,71.17,68.24,64.8ZM57.35,70.72V58.41L68,64.56Zm-.14-12.87L51,47.08H63.43ZM57,70.75l-8.37-4.84-2.27-1.33L57,58.43ZM48.5,66.17l8.42,5-6.24,10.8L39.81,75.65l6.28-10.87ZM37.44,64.51,35.26,68.3H30.88l-2.19-3.79,2.19-3.79h4.38Zm-8.93.28,2.14,3.69-4.21,6.94-6.17-10.7Zm-2.1,16.12.16,7.68-11-6.46L26.3,76Zm0,7.93-11,5.89V82.39ZM15.51,95.26l11,6-11,6.55Zm11.1,6.23-.27,12.8-10.76-6.21Zm-.13,13.35,4.17,6.8-2.29,4-8-.07Zm2,11,2.14,3.69-4.21,6.93-6.17-10.69ZM26.41,142l.16,7.67-11-6.45,10.69-6.18Zm0,7.93-11,5.89V143.48Zm-10.91,6.41,11,6-11,6.55Zm11.1,6.24-.27,12.8-10.76-6.21Zm-.13,13.35,4.17,6.79-2.29,4-8-.07ZM37.7,186.56l-2.19-3.79,4.14-6.84,6.17,10.69Zm2.16-10.86,10.87-6.28L57,180.29l-10.87,6.28ZM57,180.62v12.32l-8.37-4.83-2.27-1.34Zm.15,12.87,6.17,10.69H51Zm.19-12.89L68,186.76l-10.67,6.16Zm.06-.31,6.27-10.87,10.88,6.28-6.28,10.87ZM86,186.56l-2.19-3.79,4.14-6.84,6.17,10.69Zm2.16-10.86L99,169.42l6.28,10.87L94.4,186.57Zm17.16,4.92v12.32l-8.38-4.83-2.27-1.34Zm.14,12.87,6.17,10.69H99.27Zm.2-12.89,10.66,6.16-10.66,6.16Zm.05-.31L112,169.42l10.87,6.28-6.28,10.87Zm28.56,6.27-2.18-3.79,4.14-6.84,6.17,10.69Zm2.16-10.86,10.87-6.28,6.28,10.87-10.87,6.28Zm17.16,4.93v12.31l-8.38-4.83-2.26-1.34Zm.15,12.86,6.16,10.69H147.54Zm.19-12.89,10.66,6.16-10.66,6.16Zm0-.31,6.28-10.87,10.87,6.28-6.28,10.87Zm28.56,6.27-2.18-3.79,4.14-6.84,6.17,10.69Zm2.16-10.86,10.87-6.28,6.28,10.87L191,186.57Zm17.16,4.93v12.31l-8.37-4.83-2.27-1.34Zm.15,12.86,6.17,10.69H195.81Zm.19-12.89,10.67,6.16-10.67,6.16Zm.05-.31,6.28-10.87,10.87,6.28-6.28,10.87Zm26.12,10.2H224l-2.19-3.79,2.19-3.78h4.37l2.19,3.78Zm4-28.3-6-5.89,6.18-6.11,11,5.91Zm-4-32.79H224l-2.19-3.79,2.19-3.79h4.37l2.19,3.79Zm4-28.3-6-5.9,6.18-6.1,11,5.9Zm-4-32.8H224l-2.19-3.79L224,60.72h4.37l2.19,3.79ZM220,40l-11.25-6.13,11-5.9,6.24,6.13Zm-.45-12.27-11,5.89V21.29ZM208.69,21l10.7-6.17.15,7.09.12,5.54ZM219.37,53.5l-6.28,10.87L202.22,58.1l6.28-10.88ZM208.3,46.78H195.75V34H208.3Zm-.05-13.05H195.7V21.18h12.55ZM201.82,58.1,191,64.37,184.67,53.5l10.87-6.28Zm-6.37-11.43-11-6.55,11-6Zm0-13-11-5.89,11-6.45ZM184.3,27.5l.12-5.76.15-6.88L195.27,21Zm11,6.41L184.09,40l-6-5.89L184.27,28Zm-11.43,6.25h-5.92v.29H184l.22,9.87.06,3h-6.41v.3h6.3l-4.14,6.84h-4.33l-4.18-6.82h6.3v-.29h-6.41l.08-3.48.2-9.36h6.13v-.3h-5.92l5.94-5.86ZM171.68,40l-11.24-6.13,11-5.9,6.23,6.13Zm-.44-12.27-11,5.89V21.29ZM160.42,21l10.69-6.17.11,5.06.17,7.57ZM171.1,53.5l-6.28,10.87L154,58.1l6.28-10.88ZM160,46.78H147.47V34H160ZM160,33.73H147.43V21.18H160ZM153.55,58.1l-10.87,6.27L136.4,53.5l10.87-6.28Zm-6.37-11.43-11-6.55,11-6Zm-.05-13-11-5.89,11-6.45ZM136,27.5l.13-5.67.15-7L147,21Zm11,6.41L135.81,40l-6-5.89L136,28Zm-11.44,6.25h-5.91v.29h6.13l.21,9.87.07,3h-6.41v.3h6.3l-4.14,6.84h-4.33l-4.18-6.82h6.3v-.29h-6.41l.07-3.48.21-9.36h6.13v-.3h-5.92l5.93-5.86ZM123.41,40l-11.25-6.13,11-5.9,6.24,6.13ZM123,27.74l-11,5.89V21.29ZM112.15,21l10.69-6.17.11,5.05.17,7.58ZM122.83,53.5l-6.28,10.87L105.68,58.1,112,47.22Zm-11.08-6.72H99.2V34h12.55Zm0-13.05H99.16V21.18h12.55ZM105.28,58.1,94.41,64.37,88.13,53.5,99,47.22ZM98.91,46.67l-11-6.55,11-6Zm0-13-11-5.89,11-6.45ZM87.75,27.5l.12-5.67.16-7L98.73,21Zm11,6.41L87.54,40l-6-5.89L87.72,28ZM87.28,40.16H81.36v.29H87.5l.21,9.63.07,3.22H81.36v.3h6.31l-4.14,6.84H79.2L75,53.61h6.3v-.29H74.91L75,49.83l.2-9.36h6.14v-.3H75.4l5.93-5.86ZM75.14,40,63.89,33.88l11-5.9,6.24,6.13ZM74.7,27.74l-11,5.89V21.29ZM63.88,21l10.69-6.17.11,5.05.16,7.58ZM74.56,53.5,68.28,64.37,57.41,58.1l6.27-10.88ZM63.48,46.78H50.93V34H63.48Zm0-13.05H50.89V21.18H63.44ZM57,58.1,46.13,64.37,39.86,53.5l10.87-6.28ZM50.63,46.67l-11-6.55,11-6Zm0-13-11-5.89,11-6.45ZM39.48,27.5l.1-4.43.17-8.21L50.46,21Zm11,6.41L39.27,40l-6-5.89L39.45,28ZM39,40.16H33.09v.29h6.14l.21,9.63.06,3.22H33.09v.3h6.3l-4.13,6.84H30.92l-4.17-6.82h6.3v-.29H26.64l.07-3.48.2-9.36h6.14v-.3H27.13l5.93-5.86ZM26.87,40,15.62,33.88l11-5.9,6.24,6.13Zm-.45-12.27-11,5.89V21.29ZM15.61,21,26.3,14.86l.11,5.05.16,7.58ZM26.28,53.5,20,64.37,9.14,58.1l6.27-10.88ZM19.75,64.56,9.08,70.72V58.41Zm.22.24,6.27,10.85L15.37,81.93,9.16,71.17Zm-4.56,43.52,10.87,6.28L20,125.47,9.14,119.19Zm4.34,17.34L9.08,131.82V119.5Zm.22.23,6.27,10.86L15.37,143,9.16,132.27Zm-4.56,43.53,10.87,6.28L20,186.57,9.14,180.29Zm4.34,17.34L9.08,192.92V180.6ZM20,187l6.27,10.86-10.87,6.27L9.16,193.37Zm-4.51,17.59,11,6.45-11,5.9Zm0,12.87,11,6-11,6.54Zm11.1,6.24-.27,12.8-10.76-6.22Zm-11-6.52,11-5.9,6.24,6.13-6,5.91Zm23.65,6.12-6-5.89,6.18-6.11,11,5.91Zm.4.12,11-6V230Zm10.9,6.86L39.8,236.48l-.27-12.81ZM39.81,197.85,46.09,187l2.38,1.37,8.45,5-6.24,10.79Zm11.08,6.62H63.44V217H50.89Zm0,12.86H63.48v12.74H50.93Zm6.5-24L68.24,187l6.27,10.86-10.87,6.27Zm6.3,11.21,11,6.45-11,5.9Zm.05,12.87,11,6-11,6.54Zm11.11,6.24-.28,12.8-10.75-6.22Zm-11-6.52,11-5.9,6.24,6.13-6,5.91Zm23.65,6.12-6-5.89,6.18-6.11,11,5.91Zm.4.12,11-6V230Zm10.9,6.86-10.77,6.21-.27-12.81ZM88.08,197.85,94.36,187l2.33,1.35,8.5,5L99,204.12Zm11.08,6.62h12.55V217H99.16Zm0,12.86h12.55v12.74H99.2Zm6.5-24L116.52,187l6.26,10.86-10.87,6.27ZM112,204.58,123,211l-11,5.9Zm0,12.87,11,6-11,6.54Zm11.11,6.24-.27,12.8-10.76-6.22Zm-11-6.52,11-5.9,6.24,6.13-6,5.91Zm23.65,6.12-6-5.89,6.19-6.11,11,5.91Zm.4.12,11-6V230Zm10.9,6.86-10.77,6.21-.27-12.81Zm-10.75-32.42L142.63,187l2.37,1.36,8.46,5-6.23,10.79Zm11.07,6.62H160V217H147.43Zm0,12.86H160v12.74H147.47Zm6.5-24L164.79,187l6.26,10.86-10.87,6.27Zm6.31,11.21,11,6.45-11,5.9Zm0,12.87,11,6-11,6.54Zm11.11,6.24-.27,12.8-10.76-6.22Zm-11-6.52,11-5.9,6.23,6.13-6,5.91Zm23.65,6.12-6-5.89,6.18-6.11,11,5.91Zm.4.12,11-6V230Zm10.89,6.86-10.77,6.21-.27-12.81Zm-10.75-32.42L190.9,187l2.36,1.36,8.47,5-6.23,10.79Zm11.07,6.62h12.55V217H195.7Zm.05,12.86H208.3v12.74H195.75Zm6.5-24L213.06,187l6.27,10.86-10.87,6.27Zm6.3,11.21,11,6.45-11,5.9Zm0,12.87,11,6-11,6.54Zm11.11,6.24-.27,12.8-10.76-6.22Zm-11-6.52,11-5.9,6.24,6.13-6,5.91Zm23.65,6.12-6-5.89,6.18-6.11,11,5.91Zm.4.12,11-6V230Zm10.9,6.86-10.77,6.21-.28-12.81Zm0-13.33-11-5.89,11-6.45Zm-11.11-6.15.12-5.73.15-6.91,10.71,6.18Zm.12-13.18-4.09-7,2.18-3.79,8.09.06Zm-1.9-11.05-2.19-3.79,4.14-6.84,6.17,10.69Zm1.82-24,11,6.6-10.77,6.22Zm.15-.26,11-6v12.52Zm10.92-6.47-11-5.89,11-6.45Zm-11.11-6.14.12-5.81.15-6.84,10.71,6.19Zm.12-13.18-4.09-7,2.18-3.78,8.09.06Zm-1.9-11.06-2.19-3.79,4.14-6.84,6.17,10.69Zm1.82-24,11,6.59-10.77,6.22Zm.15-.26,11-6v12.53Zm10.92-6.47-11-5.89,11-6.46ZM232.57,88.6l.12-5.8.15-6.84,10.7,6.18Zm.12-13.18-4.09-7,2.18-3.79,8.09.06Zm-1.9-11.06-2.19-3.78,4.14-6.84,6.17,10.68Zm1.82-24,11,6.6-10.77,6.21Zm.15-.26,11-6V46.67Zm10.92-6.47-11-5.89,11-6.45ZM232.57,27.5l.12-5.76.15-6.88L243.55,21ZM224,7.5h4.33l4.1,7h-6.3v.3h6.41l-.13,6.07-.15,6.78h-6.13v.29h6.07l-6.06,6-6.12-6h6.06v-.3H220l-.28-12.84h6.41v-.29h-6.3ZM221.6,3.69l2.13,3.7-4.2,6.93L213.36,3.63Zm-8.54,0,6.27,10.85-10.87,6.28-6.21-10.75ZM202,10.2l6.17,10.69H195.81ZM190.9,3.68l2.4,1.39,8.43,5L195.5,20.83l-10.87-6.27Zm-8.39-.12,8.09.06-6.18,10.7-4.09-7ZM175.74,7.5h4.33l4.1,7h-6.31v.3h6.42l-.13,5.89-.15,7h-6.14v.29h6.08l-6.07,6-6.11-6h6.06v-.3h-6.14l-.27-12.84h6.41v-.29h-6.3Zm-2.41-3.81,2.13,3.7-4.2,6.93L165.09,3.63Zm-8.54,0,6.26,10.86-10.87,6.27L154,10.08Zm-11.08,6.5,6.16,10.69H147.54ZM142.63,3.68,145,5.06l8.45,5-6.23,10.79-10.87-6.27Zm-8.39-.12,8.09.06-6.18,10.7-4.09-7ZM127.47,7.5h4.33l4.1,7h-6.31v.3H136l-.12,5.67-.15,7.18h-6.14v.29h6.07l-6.06,6-6.11-6h6.06v-.3h-6.14l-.28-12.84h6.42v-.29h-6.3Zm-2.41-3.81,2.13,3.7L123,14.32,116.81,3.63Zm-8.54,0,6.26,10.86-10.87,6.27L105.7,10.08Zm-11.09,6.5,6.17,10.69H99.27ZM94.36,3.68l2.37,1.37,8.46,5L99,20.83,88.08,14.56ZM86,3.56l8.09.06-6.18,10.7-4.1-7ZM79.2,7.5h4.33l4.1,7H81.32v.3h6.41l0,2.29-.22,10.56H81.32v.29h6.07l-6.06,6-6.11-6h6.06v-.3H75.14l-.28-12.84h6.42v-.29H75ZM76.79,3.69l2.13,3.7-4.2,6.93L68.54,3.63Zm-8.55,0,6.27,10.86L63.64,20.83,57.43,10.08ZM57.16,10.2l6.17,10.69H51ZM46.09,3.68l2.4,1.39,8.43,5L50.68,20.83,39.81,14.56ZM37.7,3.56l8.08.06-6.17,10.7-4.1-7ZM30.92,7.5h4.34l4.09,7h-6.3v.3h6.41l-.13,5.82-.15,7H33.05v.29h6.07l-6.06,6L27,27.9H33v-.3H26.87l-.28-12.84H33v-.29H26.7ZM28.51,3.69l2.14,3.7-4.21,6.93L20.27,3.63ZM20,3.7l6.27,10.86L15.37,20.83,9.16,10.08ZM8.89,10.2l6.17,10.69H2.72Zm-6.28,11H15.17V33.73H2.61ZM2.66,34H15.21V46.78H2.66Zm0,13H15.16L8.93,57.85ZM8.89,71.3,15.06,82H2.72Zm-6.28,11H15.17V94.83H2.61Zm.05,12.86H15.21v12.74H2.66Zm0,13H15.16L8.93,119Zm6.18,24.21,6.17,10.69H2.72Zm-6.28,11H15.17v12.56H2.61Zm.05,12.87H15.21V169H2.66Zm0,13H15.16L8.93,180.05Zm6.18,24.22,6.17,10.69H2.72Zm-6.28,11H15.17V217H2.61Zm.05,12.86H15.21v12.74H2.66Zm0,13H15.16L8.93,241.15ZM9.08,254V241.7l10.67,6.15ZM20,247.66,9.14,241.39l6.27-10.87,10.87,6.27Zm8.35.12-8-.06L26.48,237l4.17,6.8Zm6.9,3.81H30.88l-2.19-3.79L30.88,244h4.38l2.18,3.79Zm2.44-3.94-2.19-3.78L39.65,237l6.17,10.69Zm2.16-10.86,10.87-6.27L57,241.39l-10.87,6.27ZM57,254l-8.37-4.83-2.27-1.34L57,241.72Zm-6-23.67H63.43l-6.22,10.78ZM57.35,254V241.7L68,247.85Zm10.93-6.35-10.87-6.27,6.27-10.87,10.88,6.27Zm8.35.12-8-.06L74.76,237l4.16,6.8Zm6.9,3.81H79.15L77,247.8,79.15,244h4.38l2.19,3.79ZM86,247.65l-2.19-3.78L87.92,237l6.17,10.69Zm2.16-10.86L99,230.52l6.28,10.87-10.87,6.27ZM105.29,254l-8.37-4.83-2.28-1.34,10.65-6.15Zm-6-23.67H111.7l-6.22,10.78ZM105.63,254V241.7l10.66,6.15Zm10.92-6.35-10.87-6.27L112,230.52l10.87,6.27Zm8.36.12-8-.06L123,237l4.16,6.8Zm6.89,3.81h-4.38l-2.18-3.79,2.18-3.79h4.38L134,247.8Zm2.44-3.94-2.18-3.78L136.2,237l6.17,10.69Zm2.16-10.86,10.87-6.27,6.28,10.87-10.87,6.27ZM153.56,254l-8.36-4.83-2.28-1.34,10.64-6.15Zm-6-23.67H160l-6.22,10.78ZM153.9,254V241.7l10.66,6.15Zm10.92-6.35L154,241.39l6.28-10.87,10.87,6.27Zm8.36.12-8.05-.06L171.3,237l4.16,6.8Zm6.89,3.81H175.7l-2.19-3.79L175.7,244h4.37l2.19,3.79Zm2.44-3.94-2.18-3.78,4.14-6.84,6.17,10.69Zm2.16-10.86,10.87-6.27,6.28,10.87L191,247.66ZM201.83,254l-8.36-4.83-2.28-1.34,10.64-6.15Zm-6-23.67h12.44L202,241.15ZM202.17,254V241.7l10.66,6.15Zm10.92-6.35-10.87-6.27,6.28-10.87,10.87,6.27Zm8.36.12-8-.06L219.57,237l4.16,6.8Zm6.89,3.81H224l-2.19-3.79L224,244h4.37l2.19,3.79Zm2.45-3.94-2.19-3.78,4.14-6.84,6.17,10.69ZM250.1,254l-8.34-4.82-2.3-1.35,10.64-6.15Zm0-12.65-10.87,6.27-6.28-10.87,10.87-6.27Zm-6.32-37.27-10.87-6.27L239.18,187l2.4,1.38,8.42,5Zm6.33-11.18-8.35-4.82-2.29-1.35,10.64-6.14Zm0-12.65-10.87,6.28-6.28-10.87,10.87-6.28ZM243.77,143l-10.87-6.28,6.28-10.87,2.4,1.38,8.42,5Zm6.33-11.19L241.76,127l-2.3-1.36,10.64-6.14Zm0-12.65-10.87,6.28-6.28-10.87,10.87-6.28Zm-6.32-37.26L232.9,75.65l6.28-10.87,2.43,1.4L250,71.13Zm6.33-11.18-8.34-4.82-2.3-1.36,10.64-6.14Zm0-12.65-10.87,6.27L232.94,53.5l10.87-6.28Zm-6.32-37.27L232.9,14.56l6.28-10.88,2.42,1.4,8.4,5Z"/></g></svg>