<svg xmlns="http://www.w3.org/2000/svg" viewBox="0 0 256 256"><defs><style>.cls-1{fill:#ba776e;}</style></defs><title>seamless_pattern02</title><g id="seamless_pattern02"><path class="cls-1" d="M256,6.9,252.46.78a.36.36,0,0,0,.19-.31.37.37,0,0,0-.18-.3l.1-.17h-.16l0,.09V0h-.18V.14l-.06,0L252,0h-.18l.13.23L251.63,0h-.23l.57.36,0,.11,0,.14h0l-7,4.51L238.57.64l0,0,0,0,0-.09.67-.46h-.3l-.43.3,0-.09.12-.21h-.17l-.08.14-.1,0V0h-.16V.14h0L237.94,0h-.17l.15.25-.09.21.16.29-7,12L224.1.78a.36.36,0,0,0,.19-.31.37.37,0,0,0-.18-.3l.1-.17h-.15L224,.09V0h-.18V.14l-.06,0L223.67,0h-.18l.13.23L223.27,0h-.22l.56.36,0,.11.05.14h0l-7,4.51L210.21.64l0,0,0,0,0-.09.66-.46h-.3l-.43.3,0-.09.12-.21h-.17L210,.14l-.1,0V0h-.16V.14h0L209.58,0h-.16l.14.25-.09.21.16.29-7,12L195.74.78a.36.36,0,0,0,.19-.31.39.39,0,0,0-.17-.3l.09-.17h-.15l0,.09V0h-.19V.14l-.06,0L195.31,0h-.18l.13.23L194.91,0h-.22l.56.36,0,.11,0,.14h0l-7,4.51L181.85.64l0,0,0,0,0-.09L182.5,0h-.3l-.43.3,0-.09.12-.21h-.17l-.08.14-.1,0V0h-.16V.14h0L181.22,0h-.16l.14.25-.08.21.15.29-7,12L167.39.78a.37.37,0,0,0,.18-.31.36.36,0,0,0-.17-.3l.1-.17h-.16l-.05.09V0h-.19V.14l-.06,0L167,0h-.18l.14.23L166.55,0h-.22l.56.36,0,.11.05.14h0l-7,4.51L153.49.64l0,0,0,0,0-.09h0l.66-.46h-.3l-.43.3,0-.09L153.5,0h-.17l-.08.14-.1,0V0H153V.14h0L152.87,0h-.17l.14.25-.08.21.15.29-7,12L139,.78a.37.37,0,0,0,.18-.31.36.36,0,0,0-.17-.3l.1-.17H139l0,.09V0h-.18V.14l-.05,0-.1-.16h-.18l.14.23L138.19,0H138l.56.36,0,.11,0,.14h0l-7,4.51L125.13.64l0,0,0,0,0-.09.67-.46h-.3l-.44.3,0-.09.12-.21H125l-.08.14-.1,0V0h-.16V.14h0L124.51,0h-.17l.14.25-.08.21.15.29-7,12L110.67.78a.37.37,0,0,0,.18-.31.36.36,0,0,0-.17-.3l.1-.17h-.16l-.05.09V0h-.18V.14l-.06,0-.1-.16h-.18l.14.23L109.83,0h-.22l.56.36,0,.11.06.14h0l-7,4.51L96.78.64l0,0,0,0,0-.09L97.43,0h-.3l-.44.3,0-.09L96.78,0h-.17l-.08.14-.09,0V0h-.16V.14h0L96.15,0H96l.15.25L96,.46l.15.29-7,12L82.31.78a.37.37,0,0,0,.18-.31.36.36,0,0,0-.17-.3l.1-.17h-.16l-.05.09V0H82V.14L82,.16,81.87,0h-.18l.14.23L81.47,0h-.22l.57.36,0,.11.06.14h0l-7,4.51L68.42.64l0,0,0,0,0-.09L69.07,0h-.3l-.43.3,0-.09L68.42,0h-.17l-.08.14-.09,0V0h-.16V.14h0L67.79,0h-.17l.15.25-.09.21.15.29-7,12L54,.78a.38.38,0,0,0,.19-.31A.37.37,0,0,0,54,.17l.1-.17H53.9l0,.09V0h-.18V.14l-.06,0L53.51,0h-.17l.13.23L53.11,0h-.22l.57.36-.05.11.06.14h0l-7,4.51L40.06.64l0,0,0,0,0-.09L40.71,0h-.3L40,.3l0-.09L40.06,0h-.17l-.08.14-.09,0V0h-.16V.14h0L39.43,0h-.17l.15.25-.09.21.15.29-7,12L25.59.78a.38.38,0,0,0,.19-.31.37.37,0,0,0-.18-.3L25.7,0h-.16l-.05.09V0h-.18V.14l-.06,0L25.15,0H25l.13.23L24.75,0h-.22l.57.36-.05.11.06.14h0l-7,4.51L11.7.64l0,0,0,0,0-.09L12.35,0h-.3l-.43.3,0-.09L11.7,0h-.17l-.08.14-.09,0V0H11.2V.14h0L11.07,0H10.9l.15.25L11,.46l.15.29-7,12L0,5.57v.31l3.8,6.56L0,9.88v.21L3.85,12.7H0v.14l3.78,0L0,15.17v.18L3.84,13,0,19.84v.31L4,13l0,7.34L0,23.11v.19l4-2.8,6.9,4.44,0,.11,0,.13h0L4,29.69,0,26.94v.21l3.87,2.68L4,37.09,0,30v.31l3.91,6.86L0,34.46v.19l3.78,2.62H0v.16H3.67L0,39.73v.19l3.71-2.33L0,44.17v.3l4-7L11.05,49.4l-.09.22.15.29-7,12L0,54.73V55L3.8,61.6,0,59v.21l3.85,2.6L0,61.87V62H3.78L0,64.33v.17l3.84-2.37L0,69v.3l4-7.1,0,7.33L0,72.26v.2l4-2.8,6.9,4.44,0,.1,0,.14h0l-7,4.5L0,76.1v.21L3.87,79,4,86.24,0,79.16v.31l3.91,6.86L0,83.61v.19l3.78,2.63H0v.16l3.67,0L0,88.89v.18l3.71-2.32L0,93.32v.3l4-7,7.07,12-.09.21.15.3-7,12L0,103.88v.32l3.8,6.55L0,108.19v.21L3.85,111H0v.14H3.78L0,113.48v.18l3.84-2.38L0,118.15v.31l4-7.11,0,7.34L0,121.42v.2l4-2.81,6.9,4.44,0,.11,0,.14h0L4,128,0,125.25v.21l3.87,2.68L4,135.4l-4-7.09v.31l3.91,6.86L0,132.77V133l3.78,2.62L0,135.6v.15H3.67L0,138v.19l3.71-2.33L0,142.48v.3l4-7,7.07,11.94-.09.22.15.29-7,12L0,153v.31l3.8,6.56L0,157.35v.21l3.85,2.6-3.85,0v.13H3.78L0,162.64v.17l3.84-2.37L0,167.31v.31l4-7.11,0,7.34L0,170.57v.2L4,168l6.9,4.44,0,.11,0,.13h0l-7,4.5L0,174.41v.21l3.87,2.68L4,184.55l-4-7.08v.31l3.91,6.86L0,181.92v.2l3.78,2.62H0v.16H3.67L0,187.2v.18l3.71-2.32L0,191.63v.31l4-7,7.07,12-.09.22.15.29-7,12L0,202.19v.32l3.8,6.56L0,206.5v.21l3.85,2.61H0v.14H3.78L0,211.8V212l3.84-2.38L0,216.46v.31l4-7.1,0,7.33L0,219.73v.2l4-2.8,6.9,4.43,0,.11,0,.14h0l-7,4.5L0,223.56v.22l3.87,2.67L4,233.71l-4-7.09v.32l3.91,6.85L0,231.08v.19l3.78,2.62-3.78,0v.15H3.67L0,236.35v.19l3.71-2.32L0,240.79v.3l4-7L11.05,246l-.09.22.15.29L5.58,256h.17l5.47-9.31v7L7.84,256h.29l3.16-2.16L14.4,256h.27l-3.3-2.3v-7.1h0l5.36,9.4h.17l-5.39-9.46h0l6.51,4.5.12,5h.15l-.12-5,6.9-4.49L19.69,256h.18l5.39-9.44,0,0,.15,7.3h0L22.2,256h.3l3.07-2,0,0,3,2h.31l-3.27-2.2-.11-7.1,5.39,9.3H31l-5.45-9.45a.35.35,0,0,0,.19-.3.37.37,0,0,0-.18-.3l6.74-11.87L39.41,246l-.09.22.15.29L33.94,256h.17l5.47-9.31v7L36.2,256h.29l3.16-2.16L42.76,256H43l-3.3-2.3v-7.1l5.35,9.4h.18l-5.39-9.46h0l6.51,4.5.11,5h.16l-.12-5,6.9-4.49L48.05,256h.18l5.39-9.44,0,0,.15,7.3h0L50.56,256h.3l3.07-2,0,0,3,2h.31L54,253.8l-.11-7.1,5.39,9.3h.17L54,246.55a.35.35,0,0,0,.19-.3A.37.37,0,0,0,54,246l6.74-11.87L67.77,246l-.09.22.15.29L62.3,256h.17l5.46-9.31v7L64.56,256h.29L68,253.84,71.12,256h.27l-3.3-2.3v-7.1h0l5.35,9.4h.18l-5.39-9.46h0l6.51,4.5.11,5H75l-.11-5,6.9-4.49L76.41,256h.18L82,246.56l0,0,.15,7.3h0L78.92,256h.29l3.08-2,0,0,3,2h.31l-3.27-2.2-.11-7.1,5.39,9.3h.17l-5.45-9.45a.34.34,0,0,0,.18-.3.36.36,0,0,0-.17-.3l6.74-11.87L96.13,246l-.09.22.15.29L90.66,256h.17l5.46-9.31v7L92.92,256h.28l3.17-2.16,3.1,2.16h.28l-3.3-2.3v-7.1h0l5.35,9.4H102l-5.39-9.46h0l6.51,4.5.11,5h.15l-.11-5,6.9-4.49L104.77,256H105l5.39-9.44,0,0,.16,7.3h0L107.28,256h.29l3.08-2,0,0,3,2h.31l-3.27-2.2-.11-7.1L116,256h.17l-5.45-9.45a.34.34,0,0,0,.18-.3.36.36,0,0,0-.17-.3l6.73-11.87L124.48,246l-.08.22.15.29L119,256h.17l5.46-9.31v7l-3.37,2.3h.28l3.17-2.16,3.1,2.16h.28l-3.31-2.3v-7.1h0l5.36,9.4h.18L125,246.54h0l6.52,4.5.11,5h.15l-.11-5,6.9-4.49L133.13,256h.18l5.39-9.44,0,0,.16,7.3h0L135.64,256h.29l3.08-2,0,0,3,2h.31L139,253.8l-.11-7.1,5.39,9.3h.17L139,246.55a.34.34,0,0,0,.18-.3.36.36,0,0,0-.17-.3l6.73-11.87L152.84,246l-.08.22.15.29L147.38,256h.17l5.46-9.31v7l-3.38,2.3h.29l3.17-2.16,3.1,2.16h.28l-3.31-2.3v-7.1h0l5.36,9.4h.18l-5.39-9.46h0l6.52,4.5.11,5h.15l-.11-5,6.9-4.49L161.49,256h.18l5.39-9.44,0,0,.16,7.3h0L164,256h.29l3.08-2,0,0,3,2h.31l-3.27-2.2-.11-7.1,5.39,9.3h.17l-5.45-9.45a.34.34,0,0,0,.18-.3.36.36,0,0,0-.17-.3l6.73-11.87L181.2,246l-.08.22.15.29L175.74,256h.16l5.47-9.31v7L178,256h.29l3.17-2.16,3.1,2.16h.28l-3.31-2.3v-7.1h0l5.36,9.4h.18l-5.4-9.46h0l6.52,4.5.11,5h.15l-.11-5,6.89-4.49-5.4,9.46H190l5.4-9.44,0,0,.16,7.3h0L192.36,256h.29l3.08-2,0,0,3,2H199l-3.27-2.2-.11-7.1L201,256h.17l-5.46-9.45a.34.34,0,0,0,.19-.3.39.39,0,0,0-.17-.3l6.73-11.87L209.56,246l-.09.22.16.29L204.09,256h.17l5.47-9.31v7l-3.38,2.3h.29l3.17-2.16,3.1,2.16h.28l-3.31-2.3v-7.1h0l5.36,9.4h.18l-5.4-9.46h0l6.51,4.5.12,5h.15l-.11-5,6.89-4.49-5.4,9.46h.17l5.4-9.44,0,0,.15,7.3h0L220.71,256h.3l3.08-2,0,0,3,2h.31l-3.27-2.2-.12-7.1,5.39,9.3h.18l-5.46-9.45a.34.34,0,0,0,.19-.3.37.37,0,0,0-.18-.3l6.74-11.87L237.92,246l-.09.22.16.29L232.45,256h.17l5.47-9.31v7l-3.38,2.3H235l3.17-2.16,3.1,2.16h.28l-3.31-2.3v-7.1h0l5.36,9.4h.18l-5.4-9.46h0l6.51,4.5.12,5h.15l-.11-5,6.89-4.49L246.56,256h.18l5.39-9.44,0,0,.15,7.3h0L249.07,256h.3l3.08-2,0,0,3,2h.3l-3.27-2.2-.11-7.1L256,253v-.31l-3.54-6.13a.34.34,0,0,0,.19-.3.37.37,0,0,0-.18-.3l3.53-6.21v-.31l-3.64,6.44.07-7.58,3.57-2.23v-.19l-3.61,2.27,0,0-6.9-4,10.49,0v-.16l-10.52,0,6.86-4.67,3.66,2.54v-.2l-3.58-2.48V222h0l3.57,6.27V228l-3.43-6h0l3.41,2.36v-.21l-3.25-2.26,0,0,0-.05,0-.08,3.27-2.28v-.19l-3.33,2.3,0-.08,3.36-6v-.3l-3.49,6.25-.1,0-.13-7.51,3.72-2.3v-.17l-3.79,2.35-6.9-4.17,10.69,0v-.14l-10.53,0,7-4.52,0,0,3.58,2.42V207l-3.54-2.38-.11-7.1,3.65,6.29v-.3l-3.54-6.13a.36.36,0,0,0,.19-.31.34.34,0,0,0-.18-.29l3.53-6.22v-.31l-3.64,6.44.07-7.57L256,186.9v-.18L252.39,189l0,0-6.9-4,10.49,0v-.16l-10.52,0,6.86-4.67,3.66,2.54v-.19L252.42,180v-7.11h0l3.57,6.27v-.31l-3.43-6h0l3.41,2.36v-.21l-3.25-2.26,0,0,0-.05,0-.09,3.27-2.27V170l-3.33,2.3,0-.08,3.36-6v-.31l-3.49,6.26-.1,0-.13-7.51,3.72-2.3v-.17l-3.79,2.34-6.9-4.16,10.69,0v-.14l-10.53,0,7-4.51,0,0,3.58,2.42v-.21l-3.54-2.39-.11-7.1,3.65,6.3v-.31l-3.54-6.13a.34.34,0,0,0,.19-.3.37.37,0,0,0-.18-.3l3.53-6.22v-.3l-3.64,6.44.07-7.58,3.57-2.23v-.19l-3.61,2.27,0,0-6.9-4,10.49,0v-.16l-10.52,0,6.86-4.68,3.66,2.54v-.19l-3.58-2.49v-7.1h0L256,130v-.31l-3.43-6h0L256,126v-.21l-3.25-2.27,0,0,0,0,0-.09h0l3.27-2.27v-.19l-3.33,2.3,0-.09,3.36-6v-.3L252.51,123l-.1,0-.13-7.51,3.72-2.3V113l-3.79,2.35-6.9-4.17,10.69,0V111l-10.53,0,7-4.51,0,0,3.58,2.42v-.21l-3.54-2.38-.11-7.1,3.65,6.29v-.3l-3.54-6.13a.36.36,0,0,0,.19-.31.37.37,0,0,0-.18-.3L256,92.27V92l-3.64,6.44.07-7.57L256,88.59V88.4l-3.61,2.27,0,0-6.9-4,10.49,0v-.15l-10.52,0,6.86-4.67L256,84.34v-.19l-3.58-2.49V74.55h0L256,80.82v-.31l-3.43-6h0L256,76.84v-.21l-3.25-2.26,0,0,0,0,0-.09h0L256,71.92v-.19L252.67,74l0-.08,3.36-6v-.31l-3.49,6.26-.1,0-.13-7.5L256,64v-.18l-3.79,2.35L245.31,62,256,62v-.14l-10.53,0,7-4.51,0,0L256,59.77v-.21l-3.54-2.39-.11-7.1,3.65,6.3v-.31l-3.54-6.13a.35.35,0,0,0,.19-.3.36.36,0,0,0-.18-.3L256,43.11v-.3l-3.64,6.44.07-7.58L256,39.44v-.19l-3.61,2.27,0,0-6.9-4,10.49,0v-.16l-10.52,0,6.86-4.68L256,35.18V35l-3.58-2.49V25.4h0L256,31.66v-.31l-3.43-6h0L256,27.68v-.2l-3.25-2.27,0,0,0-.05,0-.09L256,22.77v-.2l-3.33,2.31,0-.09,3.36-6v-.31l-3.49,6.26-.1,0-.13-7.51,3.72-2.3V14.7l-3.79,2.35-6.9-4.17,10.69,0v-.13l-10.53,0,7-4.51,0,0L256,10.61V10.4L252.46,8l-.11-7.1L256,7.21ZM238.41.75l6.51,4.5.17,7.26L238.39.76Zm-.16.07h0L245,12.59l-6.72-4.67Zm6.58,11.87-13.53.05,6.87-4.68ZM252,49.52l0,.11,0,.13h0l-7,4.51-6.43-4.48,0,0,0,0,0-.09h0l6.52-4.54ZM245.15,45l0-7.35L252,49.39ZM252,98.68l0,.1,0,.14h0l-7,4.5L238.57,99l0,0,0,0,0-.09h0l6.52-4.54Zm-6.82-4.57,0-7.36L252,98.54ZM252,147.83l0,.11,0,.13h0l-7,4.51-6.43-4.48,0,0,0,0,0-.09,6.52-4.54Zm-6.82-4.56,0-7.36L252,147.7ZM252,197l0,.1,0,.14h0l-7,4.5-6.43-4.47,0,0,0,0,0-.09,6.52-4.54Zm-6.82-4.57,0-7.36L252,196.85ZM231.33,12.89l13.39,0-6.51,4.09,0,0Zm6.82,19.8-7,4.5L238,25.36l0,0,.15,7.3ZM238,41.62l-6.9-4.16,13.7-.05Zm6.86-4.07L238.33,49.3l-.1,0-.13-7.51Zm-13.56,24.5,13.39,0-6.51,4.08,0,0ZM238,90.78l-6.9-4.17,13.7,0Zm6.86-4.08-6.56,11.75-.1,0-.13-7.51Zm-13.56,24.51,13.39,0-6.51,4.09,0,0Zm6.7,28.73-6.9-4.17,13.7-.05Zm6.86-4.08-6.56,11.75-.1,0-.13-7.51Zm-13.56,24.5,13.39,0-6.51,4.08,0,0Zm6.7,28.73-6.9-4.16,13.7-.05Zm6.86-4.08-6.56,11.76-.1-.05-.13-7.5Zm-13.56,24.51,13.39-.05-6.51,4.09,0,0Zm6.79,4.11h0l-.11,7.7-.06,0-6.81-11.8ZM11.52,197.38h0l6.51,4.5.17,7.26Zm6.57,11.84-6.72-4.67v-7.11h0Zm-6.67-37,6.74-11.88,7.07,11.95-.09.22.15.29-7,12-6.89-11.94a.34.34,0,0,0,0-.6Zm-.11-.08.07-7.58,6.51-4.08Zm.11-49.08,6.74-11.87,7.07,11.94-.09.22.15.29-7,12-6.89-11.94a.34.34,0,0,0,.19-.3A.37.37,0,0,0,11.42,123.06Zm-.11-.08.07-7.58,6.51-4.07Zm.11-49.07L18.16,62l7.07,12-.09.22.15.29-7,12L11.41,74.51a.36.36,0,0,0,.19-.3A.34.34,0,0,0,11.42,73.91Zm-.11-.08.07-7.58,6.51-4.08ZM25.4,25.49v7l-6.86,4.66Zm-.06-.76L18.45,13.06l6.81,4.11.12,7.55Zm14.39,8,6.66,4.51-13.61,0,7-4.51Zm-.07-7.28L46.34,37,39.77,32.6Zm14.09,0v7L46.9,37.16Zm0-.76L46.81,13.06l6.81,4.11.12,7.55Zm14.39,8,6.66,4.51-13.61,0,7-4.51ZM68,25.49,74.7,37,68.13,32.6Zm14.09,0v7l-6.85,4.66Zm0-.76L75.17,13.06,82,17.17l.12,7.55Zm14.39,8,6.66,4.51-13.62,0,7-4.51Zm-.07-7.28L103.06,37,96.49,32.6Zm14.09,0v7l-6.85,4.66Zm0-.76-6.89-11.67,6.8,4.11.13,7.55Zm14.39,8,6.66,4.51-13.62,0,7-4.51Zm-.07-7.28L131.41,37l-6.56-4.42Zm14.09,0v7L132,37.16Zm-.05-.76-6.89-11.67,6.8,4.11.12,7.55Zm14.39,8,6.66,4.51-13.62,0,7-4.51Zm-.07-7.28L159.77,37l-6.56-4.42Zm14.09,0v7l-6.85,4.66Zm-.05-.76-6.9-11.67,6.81,4.11.12,7.55Zm14.39,8,6.66,4.51-13.62,0,7-4.51Zm-.07-7.28L188.13,37l-6.56-4.42Zm14.09,0v7l-6.85,4.66Zm-.06-.76L188.6,13.06l6.81,4.11.12,7.55Zm14.4,8,6.66,4.51-13.62,0,7-4.51Zm-.08-7.28L216.49,37l-6.56-4.42Zm14.1,0v7l-6.86,4.66Zm-.06-.76L217,13.06l6.81,4.11.12,7.55ZM237.92,49.4l-.09.22.16.29-7,12-6.9-11.94a.35.35,0,0,0,.19-.3.36.36,0,0,0-.18-.3l6.74-11.88Zm-6.78-11.76L238,41.75l.12,7.54,0,0Zm6.78,60.92-.09.21.16.3-7,12-6.9-11.94a.36.36,0,0,0,.19-.31.37.37,0,0,0-.18-.3l6.74-11.87ZM231.14,86.8,238,90.9l.12,7.55,0,0Zm6.78,60.91-.09.22.16.29-7,12-6.9-11.94a.34.34,0,0,0,.19-.3.37.37,0,0,0-.18-.3l6.74-11.87ZM231.14,136l6.81,4.11.12,7.55h0Zm-21.41,61.59v7l-6.85,4.66Zm-.06-.76-6.89-11.67,6.81,4.11.12,7.54Zm0-7.69-6.89-4.16,13.69-.05Zm-28.3,8.45v7l-6.85,4.66Zm-.06-.76-6.89-11.67,6.81,4.11.12,7.54Zm0-7.69-6.89-4.16,13.69-.05ZM153,197.54v7l-6.85,4.66Zm0-.76-6.9-11.67,6.81,4.11.12,7.54Zm0-7.69-6.89-4.16,13.69-.05Zm-28.3,8.45v7l-6.85,4.66Zm-.05-.76-6.89-11.67,6.8,4.11.13,7.54Zm0-7.69-6.89-4.16,13.7-.05Zm-28.3,8.45v7l-6.85,4.66Zm-.05-.76-6.89-11.67,6.81,4.11.12,7.54Zm0-7.69-6.89-4.16,13.7-.05Zm-28.3,8.45v7l-6.85,4.66Zm-.05-.76L61,185.11l6.81,4.11.12,7.54Zm0-7.69L61,184.93l13.7-.05Zm-28.29,8.45v7l-6.86,4.66Zm-.06-.76-6.89-11.67,6.81,4.11.12,7.54Zm0-7.69-6.89-4.16,13.7-.05Zm-14.4,8.14h0l-7,4.5-6.43-4.47,0,0,0,0,0-.09,6.52-4.54L25.1,197l-.05.1Zm-6.83-4.81,0-7.36,6.81,11.79Zm.16-7.43,7,4.06h0l-.11,7.7-.06,0ZM39.58,50.07v7l-6.86,4.66Zm-.06-.76L32.63,37.64l6.81,4.11.12,7.54Zm28.41.76v7l-6.85,4.66Zm-.05-.76L61,37.64l6.81,4.11.12,7.54Zm28.41.76v7l-6.85,4.66Zm-.05-.76L89.35,37.64l6.81,4.11.12,7.54Zm28.41.76v7l-6.85,4.66Zm-.05-.76-6.89-11.67,6.8,4.11.13,7.54Zm28.41.76v7l-6.85,4.66Zm0-.76-6.9-11.67,6.81,4.11.12,7.54Zm28.41.76v7l-6.85,4.66Zm-.06-.76-6.89-11.67,6.81,4.11.12,7.54Zm28.42.76v7l-6.85,4.66Zm-.06-.76-6.89-11.67,6.81,4.11.12,7.54ZM223.85,66.2,217,62l13.69,0Zm6.86-4.07-6.56,11.75-.1,0-.13-7.5Zm-13.56,24.5,13.39,0L224,90.67l0,0Zm6.7,28.73L217,111.19l13.69,0Zm6.86-4.08L224.15,123l-.1,0-.13-7.51Zm-13.56,24.5,13.39,0L224,139.83l0,0ZM25.59,148.24a.35.35,0,0,0,.19-.3.37.37,0,0,0-.18-.3l6.74-11.87,7.07,11.94-.09.22.15.29-7,12Zm6.57,11.67-6.57-4.43-.11-7.1Zm-6.67-12.35.07-7.58,6.51-4.08Zm.1-48.47a.38.38,0,0,0,.19-.31.37.37,0,0,0-.18-.3l6.74-11.87,7.07,12-.09.21.15.3-7,12Zm6.57,11.66-6.57-4.42-.11-7.1ZM25.49,98.4l.07-7.57,6.51-4.08ZM39.73,81.93l6.66,4.5-13.61,0,7-4.51Zm-.07-7.28,6.68,11.53-6.57-4.43Zm14.09,0v7L46.9,86.32Zm0-.76L46.81,62.22l6.81,4.11.12,7.54Zm14.39,8,6.66,4.5-13.61,0,7-4.51ZM68,74.65,74.7,86.18l-6.57-4.43Zm14.09,0v7l-6.85,4.66Zm0-.76L75.17,62.22,82,66.33l.12,7.54Zm14.39,8,6.66,4.5-13.62,0,7-4.51Zm-.07-7.28,6.68,11.53-6.57-4.43Zm14.09,0v7l-6.85,4.66Zm0-.76-6.89-11.67,6.8,4.11.13,7.54Zm14.39,8,6.66,4.5-13.62,0,7-4.51Zm-.07-7.28,6.67,11.53-6.56-4.43Zm14.09,0v7L132,86.32Zm-.05-.76-6.89-11.67,6.8,4.11.12,7.54Zm14.39,8,6.66,4.5-13.62,0,7-4.51Zm-.07-7.28,6.67,11.53-6.56-4.43Zm14.09,0v7l-6.85,4.66Zm-.05-.76-6.9-11.67,6.81,4.11.12,7.54Zm14.39,8,6.66,4.5-13.62,0,7-4.51Zm-.07-7.28,6.67,11.53-6.56-4.43Zm14.09,0v7l-6.85,4.66Zm-.06-.76L188.6,62.22l6.81,4.11.12,7.54Zm14.4,8,6.66,4.5-13.62,0,7-4.51Zm-.08-7.28,6.68,11.53-6.56-4.43Zm13.8,24,0,.1.05.14h0l-7,4.5L210.21,99l0,0,0,0,0-.09h0l6.51-4.54Zm-6.82-4.57,0-7.36,6.8,11.79Zm7,29-.09.22.16.29-7,12-6.9-12a.34.34,0,0,0,.19-.3.39.39,0,0,0-.17-.3l6.73-11.87ZM217,111.37l6.81,4.11.12,7.55h0Zm-7.23,37v7l-6.85,4.66Zm-.06-.76L202.78,136l6.81,4.11.12,7.55Zm0-7.68-6.89-4.17,13.69-.05Zm-28.3,8.44v7l-6.85,4.66Zm-.06-.76L174.42,136l6.81,4.11.12,7.55Zm0-7.68-6.89-4.17,13.69-.05ZM153,148.38v7l-6.85,4.66Zm0-.76L146.06,136l6.81,4.11.12,7.55Zm0-7.68-6.89-4.17,13.69-.05Zm-28.3,8.44v7l-6.85,4.66Zm-.05-.76L117.71,136l6.8,4.11.13,7.55Zm0-7.68-6.89-4.17,13.7-.05Zm-28.3,8.44v7l-6.85,4.66Zm-.05-.76L89.35,136l6.81,4.11.12,7.55Zm0-7.68-6.89-4.17,13.7-.05Zm-28.3,8.44v7l-6.85,4.66Zm-.05-.76L61,136l6.81,4.11.12,7.55Zm0-7.68L61,135.77l13.7-.05Zm-28.29,8.44v7l-6.86,4.66Zm-.06-.76L32.63,136l6.81,4.11.12,7.55Zm0-7.68-6.89-4.17,13.7-.05Zm.07-40.71v7l-6.86,4.66Zm-.06-.76L32.63,86.8l6.81,4.1.12,7.55Zm28.41.76v7l-6.85,4.66Zm-.05-.76L61,86.8l6.81,4.1.12,7.55Zm28.41.76v7l-6.85,4.66Zm-.05-.76L89.35,86.8l6.81,4.1.12,7.55Zm28.41.76v7l-6.85,4.66Zm-.05-.76L117.71,86.8l6.8,4.1.13,7.55Zm28.41.76v7l-6.85,4.66Zm0-.76-6.9-11.67,6.81,4.1.12,7.55Zm28.41.76v7l-6.85,4.66Zm-.06-.76L174.42,86.8l6.81,4.1.12,7.55Zm28.42.76v7l-6.85,4.66Zm-.06-.76L202.78,86.8l6.81,4.1.12,7.55Zm.36.6h0l6.51,4.5.17,7.26Zm6.57,11.83-6.72-4.66V99.13h0ZM210,98.45l-.1,0-.13-7.51,6.79-4.2Zm-.16,7.93,6.66,4.62-13.53,0ZM203,111.21l13.39,0-6.51,4.09,0,0ZM209.79,131l-6.95,4.5,6.76-11.83,0,0,.15,7.3Zm.12.12,0,0,6.66,4.51-13.62,0Zm0-.21-.12-7.1,6.68,11.52Zm0-15.51,6.52-4.07L209.82,123Zm-.13-.08h0l-.11,7.7-.06,0-6.81-11.79Zm-.32,7.8-6.83-4.43,0-7.36Zm0,.13,0,.11.05.14h0l-7,4.51L196,123.52l0,0,0,0,0-.09h0l6.51-4.54Zm-7-4.56-6.51,4.5,0-.09,6.56-11.75Zm-21-3.44,0,0-6.91-4,13.39,0Zm6.56-3.92L181.47,123l.07-7.58Zm.08,24-6.56-4.42-.11-7.1ZM181.44,131l-7,4.5,6.76-11.83,0,0,.16,7.3Zm.11.12,0,0,6.66,4.51-13.62,0Zm0-7.46a.34.34,0,0,0,.18-.3.39.39,0,0,0-.17-.3l6.73-11.87,7.07,11.94-.08.22.15.29-7,12Zm7-12.29,6.81,4.11.12,7.55h0Zm7,12.43v7l-6.85,4.66Zm-.06-8.44-6.89-4.17,13.69,0Zm6.86-4.08L195.79,123l-.1,0-.12-7.51Zm-13.6-.23,7-4.51,0,0,6.66,4.51Zm7-4.72-.11-7.1,6.67,11.52Zm-.08-15.66,0,0-6.91-4,13.39,0Zm6.56-3.92L195.65,98.4l.06-7.57Zm-6.62,19.68-7,4.5,6.76-11.83h0l.16,7.31Zm-7.09,4.42-.16-7.29,6.89-4.49Zm-.15,0-6.7-11.75h0l6.52,4.5Zm-.13.08-6.72-4.66V99.13h0Zm-6.63-12.45-.1,0-.12-7.51,6.78-4.2Zm-.16,7.93,6.66,4.62-13.52,0Zm0,8.94h0l-.11,7.7-.06,0-6.81-11.79Zm-.32,7.8-6.83-4.43,0-7.36Zm0,.13,0,.11.05.14h0l-7,4.51-6.43-4.48,0,0,0,0,0-.09h0l6.51-4.54Zm-7-4.56-6.51,4.5,0-.09,6.56-11.75Zm-21-3.44,0,0-6.91-4,13.39,0Zm6.55-3.92L153.11,123l.07-7.58Zm.08,24-6.56-4.42-.11-7.1ZM153.08,131l-7,4.5,6.76-11.83,0,0,.16,7.3Zm.11.12,0,0,6.66,4.51-13.62,0Zm0-7.46a.34.34,0,0,0,.18-.3.36.36,0,0,0-.17-.3L160,111.19,167,123.13l-.08.22.15.29-7,12Zm7-12.29,6.81,4.11.12,7.55h0Zm6.95,12.43v7l-6.85,4.66Zm-.06-8.44-6.89-4.17,13.69,0Zm6.86-4.08L167.43,123l-.1,0-.12-7.51Zm-13.6-.23,7-4.51,0,0L174,111Zm7-4.72-.11-7.1L174,110.75Zm-.07-15.66,0,0-6.91-4,13.39,0Zm6.55-3.92L167.29,98.4l.07-7.57Zm-6.61,19.68-7,4.5,6.76-11.83h0l.16,7.31Zm-7.09,4.42-.17-7.29,6.9-4.49Zm-.16,0-6.69-11.75h0l6.52,4.5Zm-.13.08-6.72-4.66V99.13h0Zm-6.63-12.45-.1,0L153,90.9l6.78-4.2Zm-.16,7.93,6.66,4.62-13.52,0Zm-.05,8.94h0l-.11,7.7-.06,0-6.81-11.79Zm-.31,7.8-6.84-4.43,0-7.36Zm0,.13,0,.11.05.14h0l-7,4.51-6.43-4.48,0,0,0,0,0-.09h0l6.52-4.54Zm-7-4.56-6.51,4.5,0-.09,6.57-11.75Zm-21-3.44,0,0-6.91-4,13.39,0Zm6.55-3.92L124.75,123l.07-7.58Zm.08,24-6.56-4.42-.11-7.1ZM124.72,131l-7,4.5,6.76-11.83,0,0,.16,7.3Zm.11.12,0,0,6.66,4.51-13.62,0Zm0-7.46a.34.34,0,0,0,.18-.3.36.36,0,0,0-.17-.3l6.73-11.87,7.07,11.94-.08.22.15.29-7,12Zm7-12.29,6.8,4.11.12,7.55h0Zm6.94,12.43v7L132,135.47Zm-.06-8.44-6.89-4.17,13.7,0Zm6.86-4.08L139.07,123l-.1,0-.12-7.51Zm-13.6-.23,7-4.51,0,0,6.66,4.51Zm7-4.72-.11-7.1,6.67,11.52ZM139,90.67l0,0-6.91-4,13.39,0Zm6.55-3.92L138.93,98.4l.07-7.57Zm-6.61,19.68-7,4.5L138.7,99.1h0l.16,7.31Zm-7.09,4.42-.17-7.29,6.9-4.49Zm-.16,0L125,99.07h0l6.52,4.5Zm-.13.08-6.72-4.66V99.13h0Zm-6.63-12.45-.1,0-.12-7.51,6.78-4.2Zm-.16,7.93,6.66,4.62-13.52,0Zm0,8.94h0l-.12,7.7,0,0-6.82-11.79Zm-.32,7.8-6.84-4.43,0-7.36Zm0,.13,0,.11.06.14h0l-7,4.51L111,123.52l0,0,0,0,0-.09h0l6.52-4.54Zm-7-4.56-6.51,4.5,0-.09,6.57-11.75Zm-21-3.44,0,0-6.91-4,13.39,0Zm6.55-3.92L96.39,123l.07-7.58Zm.09,24-6.57-4.42-.11-7.1ZM96.36,131l-7,4.5,6.76-11.83,0,0,.16,7.3Zm.11.12,0,0,6.66,4.51-13.62,0Zm0-7.46a.34.34,0,0,0,.18-.3.36.36,0,0,0-.17-.3l6.73-11.87,7.07,11.94-.08.22.15.29-7,12Zm7-12.29,6.8,4.11.13,7.55h0Zm6.94,12.43v7l-6.85,4.66Zm-.06-8.44-6.89-4.17,13.7,0Zm6.86-4.08L110.71,123l-.09,0-.13-7.51Zm-13.6-.23,7-4.51,0,0,6.66,4.51Zm7-4.72-.11-7.1,6.67,11.52Zm-.07-15.66,0,0-6.91-4,13.39,0Zm6.55-3.92L110.57,98.4l.07-7.57Zm-6.61,19.68-7,4.5,6.76-11.83h0l.16,7.31Zm-7.09,4.42-.17-7.29,6.9-4.49Zm-.16,0L96.6,99.07h0l6.51,4.5Zm-.13.08-6.71-4.66V99.13h0ZM96.53,98.45l-.09,0-.13-7.51,6.79-4.2Zm-.16,7.93L103,111l-13.52,0Zm0,8.94h0l-.11,7.7-.06,0-6.82-11.79Zm-.32,7.8-6.84-4.43,0-7.36Zm0,.13,0,.11.06.14h0L89,128l-6.42-4.48,0,0,0,0,0-.09h0l6.52-4.54Zm-7-4.56-6.5,4.5,0-.09,6.57-11.75Zm-21-3.44,0,0-6.9-4,13.38,0Zm6.55-3.92L68,123l.07-7.58Zm.09,24-6.57-4.42-.11-7.1ZM68,131l-7,4.5,6.76-11.83,0,0L68,131Zm.11.12,0,0,6.66,4.51-13.61,0Zm0-7.46a.34.34,0,0,0,.18-.3.36.36,0,0,0-.17-.3l6.74-11.87L82,123.13l-.09.22.15.29-7,12Zm7-12.29L82,115.48,82.1,123h0Zm6.94,12.43v7l-6.85,4.66Zm-.06-8.44-6.89-4.17,13.7,0Zm6.87-4.08L82.35,123l-.09,0-.13-7.51Zm-13.6-.23,7-4.51,0,0L88.93,111Zm7-4.72-.11-7.1,6.68,11.52Zm-.07-15.66,0,0-6.91-4,13.39,0Zm6.55-3.92L82.21,98.4l.07-7.57Zm-6.61,19.68-7,4.5L82,99.1h0l.15,7.31Zm-7.09,4.42-.17-7.29,6.9-4.49Zm-.15,0-6.7-11.75h0l6.51,4.5Zm-.14.08-6.71-4.66V99.13h0ZM68.17,98.45l-.09,0L68,90.9l6.79-4.2ZM68,106.38,74.67,111l-13.52,0Zm0,8.94h0l-.11,7.7-.06,0L61,111.26Zm-.32,7.8-6.83-4.43,0-7.36Zm0,.13,0,.11.06.14h0l-7,4.51-6.43-4.48,0,0,0,0,0-.09h0l6.52-4.54Zm-7-4.56-6.5,4.5,0-.09,6.57-11.75Zm-21-3.44,0,0-6.9-4,13.39,0Zm6.55-3.92L39.67,123l.07-7.58Zm.09,24-6.57-4.42-.11-7.1ZM39.64,131l-7,4.5,6.76-11.83,0,0,.15,7.3Zm.11.12,0,0,6.66,4.51-13.61,0Zm0-7.46a.35.35,0,0,0,.19-.3.37.37,0,0,0-.18-.3l6.74-11.87,7.07,11.94-.09.22.15.29-7,12Zm7-12.29,6.81,4.11.12,7.55h0Zm6.94,12.43v7l-6.85,4.66Zm-.06-8.44-6.89-4.17,13.7,0Zm6.87-4.08L54,123l-.09,0-.13-7.51ZM47,111.05l7-4.51,0,0L60.57,111Zm7-4.72-.11-7.1,6.68,11.52Zm-.07-15.66,0,0-6.9-4,13.39,0Zm6.55-3.92L53.85,98.4l.07-7.57Zm-6.61,19.68-7,4.5L53.62,99.1h0l.15,7.31Zm-7.09,4.42-.17-7.29,6.9-4.49Zm-.15,0-6.7-11.75h0l6.51,4.5Zm-.13.08-6.72-4.66V99.13h0ZM39.81,98.45l-.09,0-.13-7.51,6.79-4.2Zm-.16,7.93L46.31,111l-13.52,0Zm0,8.94h0l-.11,7.7-.06,0-6.82-11.79Zm-.32,7.8-6.83-4.43,0-7.36Zm0,.13-.05.11.06.14h0l-7,4.51-6.43-4.48,0,0,0,0,0-.09h0l6.52-4.54Zm0,.4-6.73,11.77-.17-7.28Zm7.1,12.21-6.57,11.75-.09,0-.13-7.51Zm.13.07,0,7.34-6.5,4.5,0-.09Zm-6.47,12,6.52-4.54,6.9,4.44-.05.11.06.13h0l-7,4.51-6.43-4.48,0,0,0,0Zm6.6-4.66,0-7.36,6.81,11.79Zm.15-7.43,7,4.06h0l-.11,7.71-.06,0Zm.2-.06,13.4,0-6.51,4.09,0,0Zm13.53,24.13L54,155.48l-.11-7.1ZM53.92,140l6.51-4.08-6.58,11.66Zm-7-4.35L53.83,131l6.67,4.63Zm6.94-4.82v-7.1h0l6.71,11.77Zm.15-7.16h0l6.51,4.5.17,7.26Zm6.68,4.49,6.9-4.49-6.73,11.77Zm14,7.72-6.57,11.75-.09,0L68,140.06Zm.13.07,0,7.34-6.5,4.5,0-.09Zm-6.47,12,6.52-4.54,6.9,4.44,0,.11.06.13h0l-7,4.51-6.42-4.48,0,0,0,0ZM75,143.27l0-7.36,6.81,11.79Zm.16-7.43,7,4.06h0L82,147.61l-.06,0Zm.2-.06,13.39,0-6.5,4.09,0,0Zm13.53,24.13-6.57-4.43-.11-7.1ZM82.28,140l6.51-4.08-6.58,11.66Zm-7-4.35L82.19,131l6.66,4.63Zm6.94-4.82v-7.1h0L89,135.48Zm.15-7.16h0l6.51,4.5.17,7.26Zm6.68,4.49,6.9-4.49-6.73,11.77Zm14,7.72-6.57,11.75-.09,0-.13-7.51Zm.13.07,0,7.34-6.51,4.5,0-.09Zm-6.47,12,6.52-4.54,6.89,4.44,0,.11.06.13h0l-7,4.51-6.42-4.48,0,0,0,0Zm6.59-4.66,0-7.36,6.81,11.79Zm.16-7.43,7,4.06h0l-.11,7.71-.06,0Zm.2-.06,13.39,0-6.5,4.09,0,0Zm13.52,24.13-6.56-4.43-.11-7.1ZM110.64,140l6.51-4.08-6.58,11.66Zm-7-4.35,6.86-4.68,6.66,4.63Zm6.94-4.82v-7.1l6.71,11.77Zm.15-7.16h0l6.51,4.5.16,7.26Zm6.68,4.49,6.9-4.49-6.73,11.77Zm14,7.72-6.56,11.75-.1,0-.12-7.51Zm.14.07,0,7.34-6.51,4.5,0-.09Zm-6.47,12,6.52-4.54,6.89,4.44,0,.11,0,.13h0l-7,4.51-6.43-4.48,0,0,0,0Zm6.59-4.66,0-7.36,6.81,11.79Zm.16-7.43,7,4.06h0l-.11,7.71-.05,0Zm.2-.06,13.39,0-6.5,4.09,0,0Zm13.52,24.13L139,155.48l-.11-7.1ZM139,140l6.51-4.08-6.58,11.66Zm-6.95-4.35,6.86-4.68,6.66,4.63Zm6.93-4.82v-7.1h0l6.71,11.77Zm.16-7.16h0l6.52,4.5.16,7.26Zm6.68,4.49,6.9-4.49L146,135.42Zm14,7.72-6.56,11.75-.1,0-.12-7.51Zm.13.07,0,7.34-6.51,4.5,0-.09Zm-6.46,12,6.52-4.54,6.89,4.44,0,.11.05.13h0l-7,4.51-6.43-4.48,0,0,0,0,0-.09Zm6.59-4.66,0-7.36,6.81,11.79Zm.16-7.43,7,4.06h0l-.11,7.71-.06,0Zm.2-.06,13.39,0-6.5,4.09,0,0ZM174,159.91l-6.56-4.43-.11-7.1ZM167.36,140l6.51-4.08-6.58,11.66Zm-7-4.35,6.86-4.68,6.66,4.63Zm6.93-4.82v-7.1h0l6.71,11.77Zm.16-7.16h0l6.52,4.5.16,7.26Zm6.68,4.49,6.9-4.49-6.74,11.77Zm14,7.72-6.56,11.75-.1,0-.12-7.51Zm.13.07,0,7.34-6.51,4.5,0-.09Zm-6.46,12,6.51-4.54,6.9,4.44,0,.11,0,.13h0l-7,4.51-6.43-4.48,0,0,0,0Zm6.59-4.66,0-7.36,6.8,11.79Zm.16-7.43,7,4.06h0l-.11,7.71-.06,0Zm.2-.06,13.39,0-6.51,4.09,0,0Zm13.52,24.13-6.56-4.43-.11-7.1ZM195.71,140l6.52-4.08-6.58,11.66Zm-7-4.35,6.87-4.68,6.66,4.63Zm6.94-4.82v-7.1h0l6.71,11.77Zm.15-7.16h0l6.51,4.5.17,7.26Zm6.69,4.49,6.89-4.49-6.73,11.77Zm14,7.72L210,147.61l-.1,0-.13-7.51Zm.13.07,0,7.34-6.51,4.5,0-.09Zm-6.46,12,6.51-4.54,6.9,4.44,0,.11.05.13h0l-7,4.51-6.43-4.48,0,0,0,0Zm6.59-4.66,0-7.36,6.8,11.79Zm-.07-39.71,6.89-4.49-6.73,11.78Zm-.08-9.45-6.51,4.5,0-.08,6.56-11.75Zm-.17-7.54-6.8,4.21-6.89-4.17Zm-6.91,12-.09.21.16.3-7,12-6.9-11.94a.36.36,0,0,0,.19-.31.39.39,0,0,0-.17-.3l6.73-11.87Zm-7.27-12.13-13.52,0,6.86-4.67Zm-6.59-4.77V74.55h0l6.71,11.78Zm-.12,9.08h0l-.11,7.7-.06,0-6.81-11.8Zm-.32,7.8-6.83-4.43,0-7.36Zm0,.14,0,.1,0,.14h0l-7,4.5L181.85,99l0,0,0,0,0-.09h0l6.51-4.54Zm-7-4.57-6.51,4.5,0-.08,6.56-11.75Zm-.17-7.54-6.8,4.21-6.89-4.17Zm-6.91,12-.08.21.15.3-7,12-6.89-11.94a.37.37,0,0,0,.18-.31.36.36,0,0,0-.17-.3l6.73-11.87Zm-7.27-12.13-13.52,0,6.86-4.67Zm-6.59-4.77V74.55h0l6.71,11.78Zm-.12,9.08h0l-.11,7.7-.06,0-6.81-11.8Zm-.31,7.8-6.84-4.43,0-7.36Zm0,.14,0,.1.05.14h0l-7,4.5L153.49,99l0,0,0,0,0-.09h0L160,94.24Zm-7-4.57-6.51,4.5,0-.08,6.56-11.75Zm-.17-7.54L153,90.78l-6.89-4.17Zm-6.91,12-.08.21.15.3-7,12L139,99.09a.37.37,0,0,0,.18-.31.36.36,0,0,0-.17-.3l6.73-11.87Zm-7.27-12.13-13.52,0,6.86-4.67ZM139,81.66V74.55h0l6.71,11.78Zm-.11,9.08h0l-.11,7.7-.05,0-6.82-11.8Zm-.32,7.8-6.84-4.43,0-7.36Zm0,.14,0,.1,0,.14h0l-7,4.5L125.13,99l0,0,0,0,0-.09h0l6.52-4.54Zm-7-4.57-6.51,4.5,0-.08,6.57-11.75Zm-.16-7.54-6.81,4.21-6.89-4.17Zm-6.92,12-.08.21.15.3-7,12-6.89-11.94a.37.37,0,0,0,.18-.31.36.36,0,0,0-.17-.3l6.73-11.87Zm-7.27-12.13-13.52,0,6.86-4.67Zm-6.58-4.77V74.55l6.71,11.78Zm-.12,9.08h0l-.11,7.7-.06,0-6.82-11.8Zm-.32,7.8-6.84-4.43,0-7.36Zm0,.14,0,.1.06.14h0l-7,4.5L96.78,99l0,0,0,0,0-.09h0l6.52-4.54Zm-7-4.57-6.51,4.5,0-.08,6.57-11.75ZM103,86.57l-6.81,4.21-6.89-4.17Zm-6.91,12-.09.21.15.3-7,12L82.31,99.09a.37.37,0,0,0,.18-.31.36.36,0,0,0-.17-.3l6.74-11.87ZM88.85,86.43l-13.52,0,6.86-4.67Zm-6.58-4.77V74.55h0L89,86.33Zm-.12,9.08h0L82,98.45l-.06,0-6.82-11.8Zm-.32,7.8L75,94.11l0-7.36Zm0,.14,0,.1.06.14h0l-7,4.5L68.42,99l0,0,0,0,0-.09h0l6.52-4.54Zm-7-4.57-6.5,4.5,0-.08,6.57-11.75Zm-.16-7.54-6.81,4.21L61,86.61Zm-6.91,12-.09.21.15.3-7,12L54,99.09a.38.38,0,0,0,.19-.31.37.37,0,0,0-.18-.3L60.7,86.61ZM60.5,86.43,47,86.47l6.86-4.67Zm-6.59-4.77V74.55h0l6.71,11.78Zm-.12,9.08h0l-.11,7.7-.06,0-6.82-11.8Zm-.32,7.8-6.83-4.43,0-7.36Zm0,.14-.05.1.06.14h0l-7,4.5L40.06,99l0,0,0,0,0-.09h0l6.52-4.54Zm-7-4.57L40,98.61l0-.08,6.57-11.75Zm-.16-7.54-6.81,4.21-6.89-4.17Zm-14,32.12-6.5,4.5,0-.09,6.57-11.75Zm-.07,9.45.17,7.26-6.7-11.75h0Zm0,7.34-6.72-4.67v-7.1h0Zm.21,25,6.81,11.79-6.83-4.44Zm.13-.07,7,4.05h0l-.11,7.7-.06,0Zm.21-.06,13.38,0-6.5,4.08,0,0Zm13.52,24.13-6.57-4.43-.11-7.1Zm-6.6-19.93,6.51-4.08-6.58,11.66Zm-7-4.35,6.86-4.68,6.66,4.63Zm6.94-4.82v-7.1h0l6.71,11.77Zm.15-7.17h0l6.51,4.5.17,7.26Zm6.68,4.5,6.9-4.49L46.73,160Zm7.06-4.47,0,0,.15,7.3h0l-7,4.5Zm.31,7.45,0,0,6.66,4.5L47,160.21Zm0-7.46a.35.35,0,0,0,.19-.3.37.37,0,0,0-.18-.3l6.74-11.87,7.07,11.94-.09.22.15.29-7,12Zm6.89,12.25,6.81,11.79-6.83-4.44Zm.13-.07,7,4.05h0l-.11,7.7-.06,0Zm.21-.06,13.38,0-6.5,4.08,0,0ZM74.7,184.49l-6.57-4.43L68,173Zm-6.6-19.93,6.51-4.08L68,172.14Zm-6.95-4.35L68,155.53l6.66,4.63Zm6.94-4.82v-7.1h0l6.7,11.77Zm.15-7.17h0l6.51,4.5.17,7.26Zm6.68,4.5,6.9-4.49L75.09,160ZM82,148.25l0,0,.15,7.3h0l-7,4.5Zm.31,7.45,0,0,6.66,4.5-13.61.05Zm0-7.46a.34.34,0,0,0,.18-.3.36.36,0,0,0-.17-.3l6.74-11.87,7.07,11.94-.09.22.15.29-7,12Zm6.89,12.25L96,172.28l-6.84-4.44Zm.13-.07,7,4.05h0l-.11,7.7-.06,0Zm.2-.06,13.39,0-6.5,4.08,0,0Zm13.53,24.13-6.57-4.43-.11-7.1Zm-6.6-19.93,6.51-4.08-6.58,11.66Zm-6.95-4.35,6.86-4.68,6.66,4.63Zm6.94-4.82v-7.1h0l6.7,11.77Zm.15-7.17h0l6.51,4.5.16,7.26Zm6.68,4.5,6.9-4.49L103.45,160Zm7.06-4.47,0,0,.16,7.3h0l-7,4.5Zm.31,7.45,0,0,6.66,4.5-13.62.05Zm0-7.46a.34.34,0,0,0,.18-.3.36.36,0,0,0-.17-.3l6.73-11.87,7.07,11.94-.08.22.15.29-7,12Zm6.89,12.25,6.81,11.79-6.84-4.44Zm.13-.07,7,4.05h0l-.12,7.7,0,0Zm.2-.06,13.39,0-6.5,4.08,0,0Zm13.52,24.13-6.56-4.43-.11-7.1Zm-6.59-19.93,6.51-4.08-6.58,11.66Zm-6.95-4.35,6.86-4.68,6.66,4.63Zm6.93-4.82v-7.1h0l6.71,11.77Zm.16-7.17h0l6.52,4.5.16,7.26Zm6.68,4.5,6.9-4.49L131.81,160Zm7.06-4.47,0,0,.16,7.3h0l-7,4.5Zm.31,7.45,0,0,6.66,4.5-13.62.05Zm0-7.46a.34.34,0,0,0,.18-.3.36.36,0,0,0-.17-.3l6.73-11.87,7.07,11.94-.08.22.15.29-7,12Zm6.89,12.25,6.81,11.79-6.84-4.44Zm.13-.07,7,4.05h0l-.11,7.7-.06,0Zm.2-.06,13.39,0-6.5,4.08,0,0Zm13.52,24.13-6.56-4.43-.11-7.1Zm-6.59-19.93,6.51-4.08-6.58,11.66Zm-7-4.35,6.86-4.68,6.66,4.63Zm6.93-4.82v-7.1h0l6.71,11.77Zm.16-7.17h0l6.52,4.5L160,160Zm6.68,4.5,6.9-4.49L160.17,160Zm7.06-4.47,0,0,.16,7.3h0l-7,4.5Zm.31,7.45,0,0,6.66,4.5-13.62.05Zm0-7.46a.34.34,0,0,0,.18-.3.36.36,0,0,0-.17-.3l6.73-11.87,7.07,11.94-.08.22.15.29-7,12Zm6.89,12.25,6.8,11.79-6.83-4.44Zm.13-.07,7,4.05h0l-.11,7.7-.06,0Zm.2-.06,13.39,0-6.51,4.08,0,0Zm13.52,24.13-6.56-4.43-.11-7.1Zm-6.59-19.93,6.51-4.08-6.58,11.66Zm-7-4.35,6.87-4.68,6.66,4.63Zm6.94-4.82v-7.1h0l6.71,11.77Zm.15-7.17h0l6.52,4.5.16,7.26Zm6.69,4.5,6.89-4.49L188.52,160Zm7.06-4.47,0,0,.16,7.3h0l-7,4.5Zm.31,7.45,0,0,6.66,4.5-13.62.05Zm0-7.46a.34.34,0,0,0,.19-.3.39.39,0,0,0-.17-.3l6.73-11.87,7.07,11.94-.09.22.16.29-7,12Zm6.9,12.25,6.8,11.79-6.83-4.44Zm.13-.07,7,4.05h0l-.11,7.7-.06,0Zm.2-.06,13.39,0-6.51,4.08,0,0Zm13.52,24.13-6.56-4.43-.12-7.1Zm-6.6-19.93,6.52-4.08-6.59,11.66Zm-6.95-4.35,6.87-4.68,6.66,4.63Zm6.94-4.82v-7.1h0l6.71,11.77Zm.15-7.17h0l6.51,4.5.17,7.26Zm6.69,4.5,6.89-4.49L216.88,160Zm7.06-4.47,0,0,.15,7.3h0l-6.95,4.5Zm.16-8.35h0l-.11,7.71-.06,0L217,135.84Zm0-16.1v7l-6.86,4.66Zm-.13-24.7h0l.15,7.31h0l-6.95,4.5Zm.16-8.36h0l-.11,7.7-.06,0L217,86.68Zm0-16.09v7l-6.86,4.66Zm-.06-.76L217,62.22l6.81,4.11.12,7.54Zm-.11.09-.09.22.16.29-7,12-6.9-11.94a.34.34,0,0,0,0-.6L216.67,62Zm-13.92-.15.07-7.58,6.52-4.08Zm0-7.74,0,0-6.91-4,13.39,0Zm-.06,15.76-6.95,4.5,6.76-11.83h0l.15,7.31Zm-7.09,4.42L202.54,79l6.89-4.48Zm-.15,0-6.7-11.75h0l6.51,4.5Zm-6.76-12.36-.1,0-.12-7.5,6.78-4.2Zm-.3-7.68L188.6,62l13.69,0ZM195.38,74l-.08.22.15.29-7,12-6.89-11.94a.37.37,0,0,0,.18-.3.36.36,0,0,0-.17-.3L188.31,62Zm-13.91-.15.07-7.58,6.51-4.08Zm0-7.74,0,0-6.91-4L188,62Zm-.05,15.76-7,4.5,6.76-11.83h0l.16,7.31Zm-7.1,4.42L174.18,79l6.9-4.48Zm-.15,0L167.5,74.49h0L174,79Zm-6.76-12.36-.1,0-.12-7.5,6.78-4.2Zm-.3-7.68L160.24,62l13.69,0ZM167,74l-.08.22.15.29-7,12-6.89-11.94a.37.37,0,0,0,.18-.3.34.34,0,0,0-.17-.3L160,62Zm-13.91-.15.07-7.58,6.51-4.08Zm0-7.74,0,0-6.91-4,13.39,0Zm-.06,15.76-7,4.5,6.76-11.83h0l.16,7.31ZM146,86.27,145.82,79l6.9-4.48Zm-.16,0-6.69-11.75h0l6.52,4.5Zm-6.76-12.36-.1,0-.12-7.5,6.78-4.2Zm-.3-7.68L131.88,62l13.7,0ZM138.66,74l-.08.22.15.29-7,12-6.89-11.94a.37.37,0,0,0,.18-.3.34.34,0,0,0-.17-.3L131.59,62Zm-13.91-.15.07-7.58,6.51-4.08Zm0-7.74,0,0-6.91-4,13.39,0Zm-.06,15.76-7,4.5,6.76-11.83h0l.16,7.31Zm-7.09,4.42L117.46,79l6.9-4.48Zm-.16,0-6.69-11.75h0l6.51,4.5Zm-6.76-12.36-.09,0-.13-7.5,6.78-4.2Zm-.3-7.68L103.52,62l13.7,0ZM110.3,74l-.08.22.15.29-7,12L96.49,74.51a.37.37,0,0,0,.18-.3.34.34,0,0,0-.17-.3L103.23,62Zm-13.91-.15.07-7.58L103,62.17Zm0-7.74,0,0-6.91-4,13.39,0Zm-.06,15.76-7,4.5,6.76-11.83h0l.16,7.31Zm-7.09,4.42L89.1,79,96,74.5Zm-.15,0-6.7-11.75h0L89,79ZM82.35,73.88l-.09,0-.13-7.5,6.79-4.2Zm-.3-7.68L75.16,62l13.7,0ZM82,74l-.09.22.15.29-7,12L68.13,74.51a.37.37,0,0,0,.18-.3.34.34,0,0,0-.17-.3L74.88,62ZM68,73.83l.07-7.58,6.51-4.08Zm0-7.74,0,0-6.9-4,13.38,0ZM68,81.85l-7,4.5L67.8,74.52h0L68,81.84Zm-7.09,4.42L60.74,79l6.9-4.48Zm-.15,0-6.7-11.75h0L60.59,79ZM54,73.88l-.09,0-.13-7.5,6.79-4.2Zm-.3-7.68L46.8,62l13.7,0ZM53.59,74l-.09.22.15.29-7,12L39.77,74.51a.38.38,0,0,0,.19-.3.34.34,0,0,0-.18-.3L46.52,62Zm-13.92-.15.07-7.58,6.51-4.08Zm0-7.74,0,0-6.9-4,13.39,0Zm-.06,15.76-7,4.5,6.76-11.83h0l.15,7.31Zm-7.09,4.42L32.38,79l6.9-4.48Zm-.15,0L25.7,74.49h0L32.23,79Zm-.13.09-6.72-4.67V74.55h0ZM25.63,73.88l-.09,0-.13-7.5,6.79-4.2Zm-.16,7.92,6.67,4.63-13.53,0ZM32,86.58l-6.51,4.09,0,0-6.9-4Zm-6.57,19.85-7,4.5L25.26,99.1h0l.15,7.31Zm.11.11,0,0L32.21,111l-13.61,0ZM25.63,123l-.09,0-.13-7.51,6.79-4.2ZM25.47,131l6.67,4.63-13.53,0ZM32,135.74l-6.51,4.09,0,0-6.9-4Zm-6.57,19.84-7,4.5,6.76-11.83,0,0,.15,7.3Zm.11.12,0,0,6.66,4.5-13.61.05Zm6.76,4.81,0,7.34-6.5,4.49,0-.08Zm-6.7,11.68-.09,0-.13-7.51,6.79-4.2Zm.23.32L32.38,168l6.9,4.44-.05.11.06.13h0l-7,4.5-6.43-4.47,0,0,0-.05Zm13.58.32h0l.15,7.31h0l-7,4.5Zm.31,7.45,0,0,6.66,4.5-13.61,0Zm0-7.46a.38.38,0,0,0,.19-.3.36.36,0,0,0-.18-.3l6.74-11.88,7.07,11.95-.09.22.15.29-7,12Zm7-12.29,6.81,4.11.12,7.54,0,0ZM53.75,173v7l-6.85,4.66Zm-.06-8.45-6.89-4.16,13.7,0Zm6.87-4.07L54,172.19l-.09,0-.13-7.51Zm.13.07,0,7.34-6.5,4.49,0-.08Zm-6.47,12L60.74,168l6.9,4.44,0,.11.06.13h0l-7,4.5-6.43-4.47,0,0,0-.05Zm13.58.32h0l.15,7.31h0l-7,4.5Zm.31,7.45,0,0,6.66,4.5-13.61,0Zm0-7.46a.37.37,0,0,0,.18-.3.35.35,0,0,0-.17-.3l6.74-11.88L82,172.29l-.09.22.15.29-7,12Zm7-12.29L82,164.64l.12,7.54,0,0ZM82.11,173v7l-6.85,4.66Zm-.06-8.45-6.89-4.16,13.7,0Zm6.87-4.07-6.57,11.75-.09,0-.13-7.51Zm.13.07,0,7.34-6.5,4.49,0-.08Zm-6.47,12L89.1,168l6.9,4.44,0,.11.06.13h0l-7,4.5-6.42-4.47,0,0,0-.05Zm13.58.32h0l.16,7.31h0l-7,4.5Zm.31,7.45,0,0,6.66,4.5-13.62,0Zm0-7.46a.37.37,0,0,0,.18-.3.35.35,0,0,0-.17-.3l6.73-11.88,7.07,11.95-.08.22.15.29-7,12Zm7-12.29,6.8,4.11.13,7.54,0,0ZM110.47,173v7l-6.85,4.66Zm-.06-8.45-6.89-4.16,13.7,0Zm6.86-4.07-6.56,11.75-.09,0-.13-7.51Zm.14.07,0,7.34-6.51,4.49,0-.08Zm-6.47,12,6.52-4.54,6.89,4.44,0,.11.06.13h0l-7,4.5L111,172.68l0,0,0-.05Zm13.58.32h0l.16,7.31h0l-7,4.5Zm.31,7.45,0,0,6.66,4.5-13.62,0Zm0-7.46a.37.37,0,0,0,.18-.3.35.35,0,0,0-.17-.3l6.73-11.88,7.07,11.95-.08.22.15.29-7,12Zm7-12.29,6.8,4.11.12,7.54,0,0ZM138.83,173v7L132,184.63Zm-.06-8.45-6.89-4.16,13.7,0Zm6.86-4.07-6.56,11.75-.1,0-.12-7.51Zm.14.07,0,7.34-6.51,4.49,0-.08Zm-6.47,12,6.52-4.54,6.89,4.44,0,.11.05.13h0l-7,4.5-6.43-4.47,0,0,0-.05Zm13.58.32h0l.16,7.31h0l-7,4.5Zm.31,7.45,0,0,6.66,4.5-13.62,0Zm0-7.46a.37.37,0,0,0,.18-.3.35.35,0,0,0-.17-.3L160,160.34,167,172.29l-.08.22.15.29-7,12Zm7-12.29,6.81,4.11.12,7.54,0,0ZM167.19,173v7l-6.85,4.66Zm-.06-8.45-6.89-4.16,13.69,0Zm6.86-4.07-6.56,11.75-.1,0-.12-7.51Zm.13.07,0,7.34-6.51,4.49,0-.08Zm-6.46,12,6.51-4.54,6.9,4.44,0,.11.05.13h0l-7,4.5-6.43-4.47,0,0,0-.05Zm13.58.32h0l.16,7.31h0l-7,4.5Zm.31,7.45,0,0,6.66,4.5-13.62,0Zm0-7.46a.34.34,0,0,0,0-.6l6.73-11.88,7.07,11.95-.08.22.15.29-7,12Zm7-12.29,6.81,4.11.12,7.54,0,0Zm7,12.43v7l-6.85,4.66Zm-.06-8.45-6.89-4.16,13.69,0Zm6.86-4.07-6.56,11.75-.1,0-.12-7.51Zm.13.07,0,7.34L196,172.34l0-.08Zm-6.46,12,6.51-4.54,6.9,4.44,0,.11.05.13h0l-7,4.5L196,172.68l0,0,0-.05Zm13.58.32h0l.15,7.31h0l-6.95,4.5Zm.31,7.45,0,0,6.66,4.5-13.62,0Zm0-7.46a.36.36,0,0,0,.19-.3.37.37,0,0,0-.17-.3l6.73-11.88,7.07,11.95-.09.22.16.29-7,12Zm7-12.29,6.81,4.11.12,7.54,0,0ZM223.91,173v7l-6.86,4.66Zm-.06-8.45L217,160.35l13.69,0Zm6.86-4.07-6.56,11.75-.1,0-.13-7.51Zm.13.07,0,7.34-6.51,4.49,0-.08Zm-13.73-.3,7-4.51,0,0,6.66,4.5Zm7-4.73-.12-7.1,6.68,11.53Zm0-15.5,6.51-4.08L224,147.56Zm-6.95-4.35L224,131l6.66,4.63Zm6.94-4.82v-7.1h0l6.71,11.77Zm.15-7.16h0l6.51,4.5.17,7.26Zm.07-.55,6.56-11.75,0,7.34-6.51,4.5Zm-7.17-12,7-4.51,0,0,6.66,4.51Zm7-4.72-.12-7.1,6.68,11.52Zm0-15.5,6.51-4.08L224,98.4Zm-6.95-4.36L224,81.8l6.66,4.63Zm6.94-4.81V74.55h0l6.71,11.78Zm.15-7.17h0l6.51,4.5.17,7.26Zm.07-.54,6.56-11.75,0,7.33L224.31,74ZM217.11,61.9l7-4.51,0,0,6.66,4.5Zm7-4.73-.12-7.1,6.68,11.53ZM224,41.52l0,0-6.9-4,13.39,0Zm6.55-3.93L224,49.25l.07-7.58ZM224,57.27,217,61.77l6.76-11.83,0,0,.15,7.3Zm-7.09,4.42-.16-7.28,6.89-4.49Zm-.15,0L210,49.91h0l6.51,4.5Zm-.13.08-6.72-4.67V50h0ZM210,49.3l-.1,0-.13-7.51,6.79-4.2Zm-.16,7.92,6.66,4.63-13.53,0Zm-.05,8.94h0l-.11,7.7-.06,0-6.81-11.8Zm-.32,7.8-6.83-4.43,0-7.36Zm0,.14,0,.1.05.14h0l-7,4.5L196,74.37l0,0,0,0,0-.09h0l6.51-4.54Zm-7-4.57L196,74l0-.08,6.56-11.75ZM188.75,61.9l7-4.51,0,0,6.66,4.5Zm7-4.73-.11-7.1,6.67,11.53Zm-.08-15.65,0,0-6.91-4,13.39,0Zm6.56-3.93-6.58,11.66.06-7.58Zm-6.62,19.68-7,4.5,6.76-11.83,0,0,.16,7.3Zm-7.09,4.42-.16-7.28,6.89-4.49Zm-.15,0-6.7-11.76h0l6.52,4.5Zm-.13.08-6.72-4.67V50h0ZM181.61,49.3l-.1,0-.12-7.51,6.78-4.2Zm-.16,7.92,6.66,4.63-13.53,0Zm0,8.94h0l-.11,7.7-.06,0-6.81-11.8Zm-.32,7.8-6.83-4.43,0-7.36Zm0,.14,0,.1.05.14h0l-7,4.5-6.43-4.47,0,0,0,0,0-.09h0l6.51-4.54Zm-7-4.57L167.59,74l0-.08,6.56-11.75ZM160.39,61.9l7-4.51,0,0,6.66,4.5Zm7-4.73-.11-7.1L174,61.6Zm-.07-15.65,0,0-6.91-4,13.39,0Zm6.55-3.93-6.58,11.66.07-7.58Zm-6.61,19.68-7,4.5,6.76-11.83,0,0,.16,7.3Zm-7.09,4.42L160,54.41l6.9-4.49Zm-.16,0-6.69-11.76h0l6.52,4.5Zm-.13.08-6.72-4.67V50h0ZM153.25,49.3l-.1,0L153,41.75l6.78-4.2Zm-.16,7.92,6.66,4.63-13.52,0ZM153,66.16h0l-.11,7.7-.06,0-6.81-11.8Zm-.31,7.8-6.84-4.43,0-7.36Zm0,.14,0,.1.05.14h0l-7,4.5-6.43-4.47,0,0,0,0,0-.09h0l6.52-4.54Zm-7-4.57L139.23,74l0-.08,6.57-11.75ZM132,61.9l7-4.51,0,0,6.66,4.5Zm7-4.73-.11-7.1,6.67,11.53ZM139,41.52l0,0-6.91-4,13.39,0Zm6.55-3.93-6.58,11.66.07-7.58ZM138.9,57.27l-7,4.5,6.76-11.83,0,0,.16,7.3Zm-7.09,4.42-.17-7.28,6.9-4.49Zm-.16,0L125,49.91h0l6.52,4.5Zm-.13.08-6.72-4.67V50h0ZM124.89,49.3l-.1,0-.12-7.51,6.78-4.2Zm-.16,7.92,6.66,4.63-13.52,0Zm0,8.94h0l-.12,7.7,0,0-6.82-11.8Zm-.32,7.8-6.84-4.43,0-7.36Zm0,.14,0,.1.06.14h0l-7,4.5L111,74.37l0,0,0,0,0-.09h0l6.52-4.54Zm-7-4.57L110.87,74l0-.08,6.57-11.75ZM103.67,61.9l7-4.51,0,0,6.66,4.5Zm7-4.73-.11-7.1,6.67,11.53Zm-.07-15.65,0,0-6.91-4,13.39,0Zm6.55-3.93-6.58,11.66.07-7.58Zm-6.61,19.68-7,4.5,6.76-11.83,0,0,.16,7.3Zm-7.09,4.42-.17-7.28,6.9-4.49Zm-.16,0L96.6,49.91h0l6.51,4.5Zm-.13.08-6.71-4.67V50h0ZM96.53,49.3l-.09,0-.13-7.51,6.79-4.2Zm-.16,7.92L103,61.85l-13.52,0Zm0,8.94h0l-.11,7.7-.06,0L89.33,62.1ZM96,74l-6.84-4.43,0-7.36Zm0,.14,0,.1.06.14h0l-7,4.5L82.6,74.37l0,0,0,0,0-.09h0l6.52-4.54Zm-7-4.57L82.52,74l0-.08L89.05,62.2ZM75.32,61.9l7-4.51,0,0,6.66,4.5Zm7-4.73-.11-7.1L88.88,61.6Zm-.07-15.65,0,0-6.91-4,13.39,0Zm6.55-3.93L82.21,49.25l.07-7.58ZM82.18,57.27l-7,4.5L82,49.94l0,0,.15,7.3Zm-7.09,4.42-.17-7.28,6.9-4.49Zm-.15,0-6.7-11.76h0l6.51,4.5Zm-.14.08-6.71-4.67V50h0ZM68.17,49.3l-.09,0L68,41.75l6.79-4.2ZM68,57.22l6.66,4.63-13.52,0Zm0,8.94h0l-.11,7.7-.06,0L61,62.1ZM67.65,74l-6.83-4.43,0-7.36Zm0,.14,0,.1.06.14h0l-7,4.5-6.43-4.47,0,0,0,0,0-.09h0l6.52-4.54Zm-7-4.57L54.16,74l0-.08L60.69,62.2ZM47,61.9l7-4.51,0,0,6.66,4.5Zm7-4.73-.11-7.1L60.52,61.6Zm-.07-15.65,0,0-6.9-4,13.38,0Zm6.55-3.93L53.85,49.25l.07-7.58ZM53.82,57.27l-7,4.5,6.76-11.83,0,0,.15,7.3Zm-7.09,4.42-.17-7.28,6.9-4.49Zm-.15,0-6.7-11.76h0l6.51,4.5Zm-.13.08-6.72-4.67V50h0ZM39.81,49.3l-.09,0-.13-7.51,6.79-4.2Zm-.16,7.92,6.67,4.63-13.53,0Zm0,8.94h0l-.11,7.7-.06,0L32.61,62.1ZM39.29,74l-6.83-4.43,0-7.36Zm0,.14-.05.1.06.14h0l-7,4.5-6.43-4.47,0,0,0,0,0-.09h0l6.52-4.54Zm-7-4.57L25.8,74l0-.08L32.33,62.2ZM18.6,61.9l7-4.51,0,0,6.66,4.5Zm7-4.73-.11-7.1L32.16,61.6Zm-.07-15.65,0,0-6.9-4,13.39,0Zm6.55-3.93L25.49,49.25l.07-7.58ZM25.46,57.27l-7,4.5,6.76-11.83,0,0,.15,7.3Zm-7.09,4.42-.17-7.28,6.9-4.49Zm13.77.3L25.33,66.2,18.44,62Zm-6.88,4.34.12,7.54,0,0L18.45,62.22Zm.14,8.32v7l-6.86,4.66Zm0,16.09h0l-.11,7.7-.06,0-6.81-11.8Zm-.32,7.8-6.83-4.43,0-7.36Zm0,.14-.05.1.06.14h0l-7,4.5L11.7,99l0,0,0,0,0-.09h0l6.52-4.54Zm0,.39-6.73,11.78-.17-7.29Zm7,12.08-6.81,4.21-6.89-4.17Zm-6.88,4.33.12,7.55h0l-6.89-11.67Zm.14,8.32v7l-6.86,4.66Zm0,16.1h0l-.11,7.71-.06,0-6.81-11.79Zm-.32,7.8-6.83-4.43,0-7.36Zm0,.13-.05.11.06.13h0l-7,4.51L11.7,148.1l0,0,0,0,0-.09,6.52-4.54Zm0,.4L18.37,160l-.17-7.28Zm7,12.07-6.81,4.21-6.89-4.16Zm-6.88,4.34.12,7.54,0,0-6.89-11.67ZM25.4,173v7l-6.86,4.66Zm-6.76,12,13.39,0L25.52,189l0,0Zm13.52,24.13-6.57-4.43-.11-7.1Zm-6.6-19.93,6.51-4.08-6.58,11.65Zm-6.95-4.36,6.86-4.67,6.67,4.63ZM25.55,180v-7.11h0l6.71,11.78Zm.15-7.17h0l6.51,4.51.17,7.25Zm6.68,4.5,6.9-4.49-6.73,11.77Zm14,7.71-6.57,11.76-.09-.05-.13-7.5Zm.13.08,0,7.33-6.5,4.5,0-.08Zm-6.47,12,6.52-4.54,6.9,4.44-.05.1.06.14h0l-7,4.5-6.43-4.47,0,0,0,0Zm6.6-4.67,0-7.36,6.81,11.79Zm.15-7.43,7,4.06h0l-.11,7.7-.06,0Zm.21-.05,13.38,0L53.88,189l0,0Zm13.52,24.13L54,204.64l-.11-7.1Zm-6.6-19.93,6.51-4.08-6.58,11.65Zm-7-4.36,6.86-4.67,6.67,4.63ZM53.91,180v-7.11h0l6.71,11.78Zm.15-7.17h0l6.51,4.51.17,7.25Zm6.68,4.5,6.9-4.49-6.73,11.77Zm14,7.71-6.57,11.76-.09-.05-.13-7.5Zm.13.08,0,7.33-6.5,4.5,0-.08Zm-6.47,12,6.52-4.54,6.9,4.44,0,.1.06.14h0l-7,4.5-6.42-4.47,0,0,0,0ZM75,192.42l0-7.36,6.81,11.79Zm.16-7.43,7,4.06h0l-.11,7.7-.06,0Zm.2-.05,13.39,0L82.24,189l0,0Zm13.53,24.13-6.57-4.43-.11-7.1Zm-6.6-19.93,6.51-4.08-6.58,11.65Zm-7-4.36,6.86-4.67,6.66,4.63ZM82.27,180v-7.11h0L89,184.64Zm.15-7.17h0L89,177.3l.17,7.25Zm6.68,4.5,6.9-4.49-6.73,11.77Zm14,7.71-6.57,11.76-.09-.05-.13-7.5Zm.13.08,0,7.33-6.51,4.5,0-.08Zm-6.47,12,6.52-4.54,6.89,4.44,0,.1.06.14h0l-7,4.5-6.42-4.47,0,0,0,0Zm6.59-4.67,0-7.36,6.81,11.79Zm.16-7.43,7,4.06h0l-.11,7.7-.06,0Zm.2-.05,13.39,0L110.6,189l0,0Zm13.52,24.13-6.56-4.43-.11-7.1Zm-6.59-19.93,6.51-4.08-6.58,11.65Zm-7-4.36,6.86-4.67,6.66,4.63Zm6.94-4.81v-7.11l6.71,11.78Zm.15-7.17h0l6.51,4.51.16,7.25Zm6.68,4.5,6.9-4.49-6.73,11.77Zm14,7.71-6.56,11.76-.1-.05-.12-7.5Zm.14.08,0,7.33-6.51,4.5,0-.08Zm-6.47,12,6.52-4.54,6.89,4.44,0,.1,0,.14h0l-7,4.5-6.43-4.47,0,0,0,0Zm6.59-4.67,0-7.36,6.81,11.79Zm.16-7.43,7,4.06h0l-.11,7.7-.05,0Zm.2-.05,13.39,0L139,189l0,0Zm13.52,24.13L139,204.64l-.11-7.1ZM139,189.14l6.51-4.08-6.58,11.65Zm-6.95-4.36,6.86-4.67,6.66,4.63ZM139,180v-7.11h0l6.71,11.78Zm.16-7.17h0l6.52,4.51.16,7.25Zm6.68,4.5,6.9-4.49L146,184.58Zm14,7.71-6.56,11.76-.1-.05-.12-7.5Zm.13.08,0,7.33-6.51,4.5,0-.08Zm-6.46,12,6.52-4.54,6.89,4.44,0,.1.05.14h0l-7,4.5-6.43-4.47,0,0,0,0,0-.09Zm6.59-4.67,0-7.36,6.81,11.79Zm.16-7.43,7,4.06h0l-.11,7.7-.06,0Zm.2-.05,13.39,0-6.5,4.08,0,0ZM174,209.07l-6.56-4.43-.11-7.1Zm-6.59-19.93,6.51-4.08-6.58,11.65Zm-7-4.36,6.86-4.67,6.66,4.63Zm6.93-4.81v-7.11h0l6.71,11.78Zm.16-7.17h0L174,177.3l.16,7.25Zm6.68,4.5,6.9-4.49-6.74,11.77Zm14,7.71-6.56,11.76-.1-.05-.12-7.5Zm.13.08,0,7.33-6.51,4.5,0-.08Zm-6.46,12,6.51-4.54,6.9,4.44,0,.1,0,.14h0l-7,4.5-6.43-4.47,0,0,0,0Zm6.59-4.67,0-7.36,6.8,11.79Zm.16-7.43,7,4.06h0l-.11,7.7-.06,0Zm.2-.05,13.39,0L195.67,189l0,0Zm13.52,24.13-6.56-4.43-.11-7.1Zm-6.6-19.93,6.52-4.08-6.58,11.65Zm-7-4.36,6.87-4.67,6.66,4.63ZM195.7,180v-7.11h0l6.71,11.78Zm.15-7.17h0l6.51,4.51.17,7.25Zm6.69,4.5,6.89-4.49-6.73,11.77Zm14,7.71L210,196.77l-.1-.05-.13-7.5Zm.13.08,0,7.33-6.51,4.5,0-.08Zm-6.46,12,6.51-4.54,6.9,4.44,0,.1.05.14h0l-7,4.5-6.43-4.47,0,0,0,0Zm6.59-4.67,0-7.36,6.8,11.79ZM217,185l7,4.06h0l-.11,7.7-.06,0Zm.2-.05,13.39,0L224,189l0,0Zm13.52,24.13-6.56-4.43-.12-7.1Zm-6.6-19.93,6.51-4.08L224,196.71Zm-6.95-4.36,6.87-4.67,6.66,4.63Zm6.94-4.81v-7.11h0l6.71,11.78Zm.15-7.17h0l6.51,4.51.17,7.25Zm6.69,4.5,6.89-4.49-6.73,11.77Zm6.89-4.65-7,4.5-6.43-4.47,0,0,0-.05,0-.09h0l6.52-4.54,6.9,4.44,0,.11.05.13ZM231,167.84l0-7.35,6.81,11.79Zm-.07-39.7,6.89-4.49-6.73,11.77Zm6.89-4.65-7,4.51-6.43-4.48,0,0,0,0,0-.09h0l6.52-4.54,6.9,4.44,0,.11.05.14Zm-6.82-4.8,0-7.36,6.81,11.79ZM230.9,79l6.89-4.48-6.73,11.77Zm6.89-4.64-7,4.5-6.43-4.47,0,0,0,0,0-.09h0l6.52-4.54,6.9,4.44,0,.1.05.14ZM231,69.53l0-7.36L237.8,74Zm-.32-32.26-13.53,0L224,32.64Zm-6.59-4.77V25.4h0l6.71,11.77Zm-.12,9.09h0l-.11,7.7-.06,0L217,37.53Zm-.32,7.8L216.79,45l0-7.35Zm0,.13,0,.11.05.13h0l-7,4.51-6.43-4.48,0,0,0,0,0-.09h0l6.51-4.54Zm-7-4.56-6.51,4.49,0-.08,6.56-11.75Zm-.17-7.55-6.8,4.21-6.89-4.16Zm-6.91,12-.09.22.16.29-7,12-6.9-11.94a.35.35,0,0,0,.19-.3.37.37,0,0,0-.17-.3l6.73-11.88Zm-7.27-12.13-13.52,0,6.86-4.68ZM195.7,32.5V25.4h0l6.71,11.77Zm-.12,9.09h0l-.11,7.7-.06,0-6.81-11.79Zm-.32,7.8L188.43,45l0-7.35Zm0,.13,0,.11,0,.13h0l-7,4.51-6.43-4.48,0,0,0,0,0-.09h0l6.51-4.54Zm-7-4.56-6.51,4.49,0-.08,6.56-11.75Zm-.17-7.55-6.8,4.21-6.89-4.16Zm-6.91,12-.08.22.15.29-7,12-6.89-11.94a.36.36,0,0,0,.18-.3.35.35,0,0,0-.17-.3l6.73-11.87Zm-7.27-12.13-13.52,0,6.86-4.68Zm-6.59-4.77V25.4h0l6.71,11.77Zm-.12,9.09h0l-.11,7.7-.06,0-6.81-11.79Zm-.31,7.8L160.07,45l0-7.35Zm0,.13,0,.11.05.13h0l-7,4.51-6.43-4.48,0,0,0,0,0-.09h0L160,45.08Zm-7-4.56-6.51,4.49,0-.08,6.56-11.75Zm-.17-7.55L153,41.62l-6.89-4.16Zm-6.91,12-.08.22.15.29-7,12L139,49.93a.36.36,0,0,0,.18-.3.35.35,0,0,0-.17-.3l6.73-11.88Zm-7.27-12.13-13.52,0,6.86-4.68ZM139,32.5V25.4h0l6.71,11.77Zm-.11,9.09h0l-.11,7.7-.05,0-6.82-11.79Zm-.32,7.8L131.71,45l0-7.35Zm0,.13,0,.11,0,.13h0l-7,4.51-6.43-4.48,0,0,0,0,0-.09h0l6.52-4.54Zm-7-4.56-6.51,4.49,0-.08,6.57-11.75Zm-.16-7.55-6.81,4.21-6.89-4.16Zm-6.92,12-.08.22.15.29-7,12-6.89-11.94a.36.36,0,0,0,.18-.3.35.35,0,0,0-.17-.3l6.73-11.87Zm-7.27-12.13-13.52,0,6.86-4.68Zm-6.58-4.77V25.4h0l6.71,11.77Zm-.12,9.09h0l-.11,7.7-.06,0-6.82-11.79Zm-.32,7.8L103.35,45l0-7.35Zm0,.13,0,.11.06.13h0l-7,4.51-6.42-4.48,0,0,0,0,0-.09h0l6.52-4.54Zm-7-4.56-6.51,4.49,0-.08,6.57-11.75ZM103,37.41l-6.81,4.21-6.89-4.16Zm-6.91,12-.09.22.15.29-7,12L82.31,49.93a.36.36,0,0,0,.18-.3.35.35,0,0,0-.17-.3l6.74-11.87ZM88.85,37.27l-13.52,0,6.86-4.68ZM82.27,32.5V25.4h0L89,37.17Zm-.12,9.09h0L82,49.29l-.06,0L75.15,37.53Zm-.32,7.8L75,45l0-7.35Zm0,.13,0,.11.06.13h0l-7,4.51-6.42-4.48,0,0,0,0,0-.09h0l6.52-4.54Zm-7-4.56-6.5,4.49,0-.08,6.57-11.75Zm-.16-7.55-6.81,4.21L61,37.46Zm-6.91,12-.09.22.15.29-7,12L54,49.93a.37.37,0,0,0,.19-.3.36.36,0,0,0-.18-.3L60.7,37.45ZM60.5,37.27,47,37.32l6.86-4.68ZM53.91,32.5V25.4h0l6.71,11.77Zm-.12,9.09h0l-.11,7.7-.06,0L46.79,37.53Zm-.32,7.8L46.64,45l0-7.35Zm0,.13-.05.11.06.13h0l-7,4.51-6.43-4.48,0,0,0,0,0-.09h0l6.52-4.54Zm-7-4.56L40,49.45l0-.08,6.57-11.75Zm-.16-7.55-6.81,4.21-6.89-4.16Zm-6.91,12-.09.22.15.29-7,12L25.59,49.93a.37.37,0,0,0,.19-.3.36.36,0,0,0-.18-.3l6.74-11.88ZM32.14,37.27l-13.53,0,6.86-4.68ZM25.55,32.5V25.4h0l6.71,11.77Zm-.12,9.09h0l-.11,7.7-.06,0L18.44,37.53Zm-.32,7.8L18.28,45l0-7.35Zm0,.13-.05.11.06.13h0l-7,4.51L11.7,49.79l0,0,0,0,0-.09h0l6.52-4.54Zm-7-4.56-6.5,4.49,0-.08,6.57-11.75Zm-.07,9.45.17,7.26-6.7-11.76h0Zm0,7.34-6.72-4.67V50h0Zm0,32.36-6.5,4.5,0-.08,6.57-11.75Zm-.07,9.45.17,7.26-6.7-11.75h0Zm0,7.34-6.72-4.66V99.13h0Zm0,32.37-6.5,4.5,0-.09,6.57-11.75Zm-.07,9.45.17,7.26-6.7-11.76h0Zm0,7.34-6.72-4.67v-7.1h0Zm0,32.36-6.5,4.5,0-.08,6.57-11.75Zm.08,9.45,6.9-4.48-6.73,11.77Zm7.06-4.46h0l.15,7.31h0l-7,4.5Zm.31,7.44,0,0,6.66,4.51-13.61.05Zm0-7.45a.38.38,0,0,0,.19-.31.34.34,0,0,0-.18-.29l6.74-11.88,7.07,12-.09.22.15.29-7,12Zm6.89,12.24,6.81,11.79L32.46,217Zm.13-.07,7,4.06h0l-.11,7.7-.06,0Zm.21,0,13.38-.05-6.5,4.09,0,0Zm13.52,24.12-6.57-4.42-.11-7.1Zm-6.6-19.92,6.51-4.08-6.58,11.65Zm-7-4.36,6.86-4.67,6.67,4.63Zm6.94-4.81v-7.11l6.71,11.78Zm.15-7.17h0l6.51,4.5.17,7.26Zm6.68,4.49,6.9-4.48-6.73,11.77Zm7.06-4.46h0l.15,7.31h0l-7,4.5Zm.31,7.44,0,0,6.66,4.51L47,209.37Zm0-7.45a.38.38,0,0,0,.19-.31.34.34,0,0,0-.18-.29l6.74-11.88,7.07,12-.09.22.15.29-7,12Zm6.89,12.24,6.81,11.79L60.82,217Zm.13-.07,7,4.06h0l-.11,7.7-.06,0Zm.21,0,13.38-.05-6.5,4.09,0,0ZM74.7,233.64l-6.57-4.42-.11-7.1Zm-6.6-19.92,6.51-4.08L68,221.29Zm-6.95-4.36L68,204.69l6.66,4.63Zm6.94-4.81v-7.11h0l6.7,11.78Zm.15-7.17h0l6.51,4.5.17,7.26Zm6.68,4.49,6.9-4.48-6.73,11.77ZM82,197.41h0l.15,7.31h0l-7,4.5Zm.31,7.44,0,0,6.66,4.51-13.61.05Zm0-7.45a.37.37,0,0,0,.18-.31.33.33,0,0,0-.17-.29l6.74-11.88,7.07,12-.09.22.15.29-7,12Zm6.89,12.24L96,221.43,89.17,217Zm.13-.07,7,4.06h0l-.11,7.7-.06,0Zm.2,0,13.39-.05-6.5,4.09,0,0Zm13.53,24.12-6.57-4.42-.11-7.1Zm-6.6-19.92,6.51-4.08-6.58,11.65Zm-6.95-4.36,6.86-4.67,6.66,4.63Zm6.94-4.81v-7.11h0l6.7,11.78Zm.15-7.17h0l6.51,4.5.16,7.26Zm6.68,4.49,6.9-4.48-6.73,11.77Zm7.06-4.46h0l.16,7.31h0l-7,4.5Zm.31,7.44,0,0,6.66,4.51-13.62.05Zm0-7.45a.37.37,0,0,0,.18-.31.33.33,0,0,0-.17-.29l6.73-11.88,7.07,12-.08.22.15.29-7,12Zm6.89,12.24,6.81,11.79L117.53,217Zm.13-.07,7,4.06h0l-.12,7.7,0,0Zm.2,0,13.39-.05-6.5,4.09,0,0Zm13.52,24.12-6.56-4.42-.11-7.1Zm-6.59-19.92,6.51-4.08-6.58,11.65Zm-6.95-4.36,6.86-4.67,6.66,4.63Zm6.93-4.81v-7.11h0l6.71,11.78Zm.16-7.17h0l6.52,4.5.16,7.26Zm6.68,4.49,6.9-4.48-6.73,11.77Zm7.06-4.46h0l.16,7.31h0l-7,4.5Zm.31,7.44,0,0,6.66,4.51-13.62.05Zm0-7.45a.37.37,0,0,0,.18-.31.33.33,0,0,0-.17-.29l6.73-11.88,7.07,12-.08.22.15.29-7,12Zm6.89,12.24,6.81,11.79L145.89,217Zm.13-.07,7,4.06h0l-.11,7.7-.06,0Zm.2,0,13.39-.05-6.5,4.09,0,0Zm13.52,24.12-6.56-4.42-.11-7.1Zm-6.59-19.92,6.51-4.08-6.58,11.65Zm-7-4.36,6.86-4.67,6.66,4.63Zm6.93-4.81v-7.11h0l6.71,11.78Zm.16-7.17h0l6.52,4.5.16,7.26Zm6.68,4.49,6.9-4.48-6.73,11.77Zm7.06-4.46h0l.16,7.31h0l-7,4.5Zm.31,7.44,0,0,6.66,4.51-13.62.05Zm0-7.45a.37.37,0,0,0,.18-.31.33.33,0,0,0-.17-.29l6.73-11.88,7.07,12-.08.22.15.29-7,12Zm6.89,12.24,6.8,11.79L174.25,217Zm.13-.07,7,4.06h0l-.11,7.7-.06,0Zm.2,0,13.39-.05-6.51,4.09,0,0Zm13.52,24.12-6.56-4.42-.11-7.1Zm-6.59-19.92,6.51-4.08-6.58,11.65Zm-6.95-4.36,6.86-4.67,6.66,4.63Zm6.93-4.81v-7.11h0l6.71,11.78Zm.15-7.17h0l6.52,4.5.16,7.26Zm6.69,4.49,6.89-4.48-6.73,11.77Zm7.06-4.46h0l.16,7.31h0l-7,4.5Zm.31,7.44,0,0,6.66,4.51-13.62.05Zm0-7.45a.36.36,0,0,0,.19-.31.35.35,0,0,0-.17-.29l6.73-11.88,7.07,12-.09.22.16.29-7,12Zm6.9,12.24,6.8,11.79L202.61,217Zm.13-.07,7,4.06h0l-.11,7.7-.06,0Zm.2,0,13.39-.05-6.51,4.09,0,0Zm13.52,24.12-6.56-4.42-.12-7.1Zm-6.6-19.92,6.52-4.08-6.59,11.65Zm-6.95-4.36,6.87-4.67,6.66,4.63Zm6.94-4.81v-7.11h0l6.71,11.78Zm.15-7.17h0l6.51,4.5.17,7.26Zm6.69,4.49,6.89-4.48-6.73,11.77Zm7.06-4.46h0l.15,7.31h0l-6.95,4.5Zm.31,7.44,0,0,6.66,4.51-13.62.05Zm0-7.45a.36.36,0,0,0,.19-.31.34.34,0,0,0-.18-.29l6.74-11.88,7.07,12-.09.22.16.29-7,12Zm7-12.29,6.81,4.11.12,7.54,0,0ZM231,209.64l6.81,11.79L231,217Zm7.1-12.1v7l-6.86,4.66ZM238,172.83h0l.15,7.31h0l-7,4.5Zm.17-8.36h0l-.11,7.7-.06,0-6.81-11.79Zm0-16.09v7l-6.86,4.66ZM238,123.67l0,0,.15,7.3h0l-7,4.5Zm.17-8.35h0L238,123l-.06,0-6.81-11.79Zm0-16.09v7l-6.86,4.66ZM238,74.52h0l.15,7.31h0l-7,4.5Zm.17-8.36h0l-.11,7.7-.06,0-6.81-11.8Zm0-16.09v7l-6.86,4.66Zm-7-13-.16-7.28,6.89-4.49Zm-.15,0-6.7-11.75h0l6.51,4.5Zm-6.76-12.37-.1,0-.13-7.51,6.79-4.2Zm-.3-7.67L217,12.88l13.69-.05Zm-.11,7.77-.09.22.16.29-7,12-6.9-11.94a.34.34,0,0,0,.19-.3.39.39,0,0,0-.17-.3l6.73-11.87Zm-13.92-.15.07-7.58L216.41,13Zm0-7.73,0,0-6.91-4,13.39,0Zm-.06,15.75-6.95,4.5,6.76-11.83,0,0,.15,7.3Zm-7.09,4.42-.16-7.28,6.89-4.49Zm-.15,0-6.7-11.75h0l6.51,4.5Zm-6.76-12.37-.1,0-.12-7.51,6.78-4.2Zm-.3-7.67-6.89-4.17,13.69-.05Zm-.11,7.77-.08.22.15.29-7,12-6.89-11.94a.34.34,0,0,0,.18-.3.39.39,0,0,0-.17-.3l6.73-11.87Zm-13.91-.15.07-7.58L188.05,13Zm0-7.73,0,0-6.91-4,13.39,0Zm-.05,15.75-7,4.5,6.76-11.83,0,0,.16,7.3Zm-7.1,4.42-.16-7.28,6.9-4.49Zm-.15,0L167.5,25.34h0l6.52,4.5Zm-6.76-12.37-.1,0-.12-7.51L174,13Zm-.3-7.67-6.89-4.17,13.69-.05ZM167,24.82l-.08.22.15.29-7,12-6.89-11.94a.34.34,0,0,0,.18-.3.36.36,0,0,0-.17-.3L160,12.88Zm-13.91-.15.07-7.58L159.69,13Zm0-7.73,0,0-6.91-4,13.39,0Zm-.06,15.75-7,4.5,6.76-11.83,0,0,.16,7.3ZM146,37.11l-.17-7.28,6.9-4.49Zm-.16,0-6.69-11.75h0l6.52,4.5Zm-6.76-12.37-.1,0-.12-7.51,6.78-4.2Zm-.3-7.67-6.89-4.17,13.7-.05Zm-.11,7.77-.08.22.15.29-7,12-6.89-11.94a.34.34,0,0,0,.18-.3.36.36,0,0,0-.17-.3l6.73-11.87Zm-13.91-.15.07-7.58L131.33,13Zm0-7.73,0,0-6.91-4,13.39,0Zm-.06,15.75-7,4.5,6.76-11.83,0,0,.16,7.3Zm-7.09,4.42-.17-7.28,6.9-4.49Zm-.16,0-6.69-11.75h0l6.51,4.5Zm-6.76-12.37-.09,0-.13-7.51,6.78-4.2Zm-.3-7.67-6.89-4.17,13.7-.05Zm-.11,7.77-.08.22.15.29-7,12L96.49,25.35a.34.34,0,0,0,.18-.3.36.36,0,0,0-.17-.3l6.73-11.87Zm-13.91-.15.07-7.58L103,13Zm0-7.73,0,0-6.91-4,13.39,0Zm-.06,15.75-7,4.5,6.76-11.83,0,0,.16,7.3Zm-7.09,4.42-.17-7.28L96,25.34Zm-.15,0-6.7-11.75h0L89,29.83ZM82.35,24.72l-.09,0-.13-7.51L88.92,13Zm-.3-7.67-6.89-4.17,13.7-.05ZM82,24.82l-.09.22.15.29-7,12L68.13,25.35a.34.34,0,0,0,.18-.3.36.36,0,0,0-.17-.3l6.74-11.87ZM68,24.67l.07-7.58L74.61,13Zm0-7.73,0,0-6.9-4,13.38,0ZM68,32.69l-7,4.5L67.8,25.36l0,0,.15,7.3Zm-7.09,4.42-.17-7.28,6.9-4.49Zm-.15,0-6.7-11.75h0l6.51,4.5ZM54,24.72l-.09,0-.13-7.51L60.56,13Zm-.3-7.67L46.8,12.88l13.7-.05Zm-.1,7.77L53.5,25l.15.29-7,12L39.77,25.35a.35.35,0,0,0,.19-.3.37.37,0,0,0-.18-.3l6.74-11.87Zm-13.92-.15.07-7.58L46.25,13Zm0-7.73,0,0-6.9-4,13.39,0Zm-.06,15.75-7,4.5,6.76-11.83,0,0,.15,7.3Zm-7.09,4.42-.17-7.28,6.9-4.49Zm-.15,0L25.7,25.34h0l6.51,4.5ZM25.63,24.72l-.09,0-.13-7.51L32.2,13Zm-.3-7.67-6.89-4.17,13.7-.05Zm-.1,7.77-.09.22.15.29-7,12L11.41,25.35a.34.34,0,0,0,.19-.3.37.37,0,0,0-.18-.3l6.74-11.87Zm-13.92-.15.07-7.58L17.89,13Zm0-7.73,0,0-6.9-4,13.39,0ZM18,37,11.41,32.6l-.11-7.11Zm-6.61-4.25L18,37.28l-13.61,0,7-4.51Zm.08,16.53-.09,0-.13-7.51L18,37.55Zm-.16,7.92L18,61.85l-13.53,0ZM17.85,62l-6.51,4.08,0,0-6.9-4ZM18,86.18l-6.57-4.43-.11-7.1Zm-6.61-4.25L18,86.43l-13.61,0,7-4.51Zm.08,16.52-.09,0-.13-7.51L18,86.7Zm-.16,7.93L18,111l-13.52,0Zm6.56,4.78-6.51,4.09,0,0-6.9-4ZM18,135.33l-6.57-4.42-.11-7.1Zm-6.61-4.25L18,135.59l-13.61,0,7-4.51Zm.08,16.53-.09,0-.13-7.51,6.79-4.2Zm-.16,7.92L18,160.16l-13.52.05Zm6.56,4.79-6.51,4.08,0,0-6.9-4ZM18,184.49l-6.57-4.43L11.3,173Zm-6.61-4.25,6.66,4.5-13.61,0,7-4.51Zm.08,16.53-.09-.05-.13-7.5L18,185Zm-.16,7.92L18,209.32l-13.53,0Zm6.56,4.78-6.51,4.09,0,0-6.9-4Zm0,.17-6.58,11.65.07-7.57Zm.09,24-6.57-4.42-.11-7.1Zm-6.61-4.25L18,233.9l-13.61,0,7-4.51Zm0-7.41a.36.36,0,0,0,.19-.31.37.37,0,0,0-.18-.3l6.74-11.87,7.07,11.95-.09.21.15.29-7,12Zm7-12.29,6.81,4.1.12,7.55,0,0Zm7,12.42v7l-6.86,4.66Zm-.07-8.44-6.89-4.17,13.7,0Zm6.87-4.08-6.57,11.75-.09,0-.13-7.51Zm.13.08,0,7.33-6.5,4.5,0-.08Zm-6.47,12,6.52-4.54,6.9,4.43-.05.11.06.14h0l-7,4.5-6.43-4.47,0,0,0-.05Zm13.58.31,0,0,.15,7.31h0l-7,4.5Zm.31,7.45,0,0,6.66,4.51-13.61,0Zm0-7.45a.38.38,0,0,0,.19-.31.37.37,0,0,0-.18-.3l6.74-11.87,7.07,11.95-.09.21.15.29-7,12Zm7-12.29,6.81,4.1.12,7.55,0,0Zm6.94,12.42v7l-6.85,4.66Zm-.06-8.44L46.8,209.5l13.7,0Zm6.87-4.08L54,221.34l-.09,0-.13-7.51Zm.13.08,0,7.33-6.5,4.5,0-.08Zm-6.47,12,6.52-4.54,6.9,4.43,0,.11.06.14h0l-7,4.5-6.43-4.47,0,0,0-.05ZM67.8,222l0,0,.15,7.31h0l-7,4.5Zm.31,7.45,0,0,6.66,4.51-13.61,0Zm0-7.45a.37.37,0,0,0,.18-.31.36.36,0,0,0-.17-.3l6.74-11.87L82,221.45l-.09.21L82,222l-7,12Zm7-12.29,6.81,4.1.12,7.55,0,0Zm6.94,12.42v7l-6.85,4.66Zm-.06-8.44-6.89-4.17,13.7,0Zm6.87-4.08-6.57,11.75-.09,0-.13-7.51Zm.13.08L89,217l-6.5,4.5,0-.08Zm-6.47,12,6.52-4.54,6.9,4.43,0,.11.06.14h0l-7,4.5-6.42-4.47,0,0,0-.05Zm13.58.31,0,0,.16,7.31h0l-7,4.5Zm.31,7.45,0,0,6.66,4.51-13.62,0Zm0-7.45a.37.37,0,0,0,.18-.31.36.36,0,0,0-.17-.3l6.73-11.87,7.07,11.95-.08.21.15.29-7,12Zm7-12.29,6.8,4.1.13,7.55,0,0Zm6.94,12.42v7l-6.85,4.66Zm-.06-8.44-6.89-4.17,13.7,0Zm6.86-4.08-6.56,11.75-.09,0-.13-7.51Zm.14.08,0,7.33-6.51,4.5,0-.08Zm-6.47,12,6.52-4.54,6.89,4.43,0,.11.06.14h0l-7,4.5L111,221.84l0,0,0-.05Zm13.58.31,0,0,.16,7.31h0l-7,4.5Zm.31,7.45,0,0,6.66,4.51-13.62,0Zm0-7.45a.37.37,0,0,0,.18-.31.36.36,0,0,0-.17-.3l6.73-11.87,7.07,11.95-.08.21.15.29-7,12Zm7-12.29,6.8,4.1.12,7.55,0,0Zm6.94,12.42v7L132,233.79Zm-.06-8.44-6.89-4.17,13.7,0Zm6.86-4.08-6.56,11.75-.1,0-.12-7.51Zm.14.08,0,7.33-6.51,4.5,0-.08Zm-6.47,12,6.52-4.54,6.89,4.43,0,.11.05.14h0l-7,4.5-6.43-4.47,0,0,0-.05Zm13.58.31,0,0,.16,7.31h0l-7,4.5Zm.31,7.45,0,0,6.66,4.51-13.62,0Zm0-7.45a.37.37,0,0,0,.18-.31.36.36,0,0,0-.17-.3L160,209.5,167,221.45l-.08.21.15.29-7,12Zm7-12.29,6.81,4.1.12,7.55,0,0Zm6.95,12.42v7l-6.85,4.66Zm-.06-8.44-6.89-4.17,13.69,0Zm6.86-4.08-6.56,11.75-.1,0-.12-7.51Zm.13.08,0,7.33-6.51,4.5,0-.08Zm-6.46,12,6.51-4.54,6.9,4.43,0,.11.05.14h0l-7,4.5-6.43-4.47,0,0,0-.05Zm13.58.31,0,0,.16,7.31h0l-7,4.5Zm.31,7.45,0,0,6.66,4.51-13.62,0Zm0-7.45a.37.37,0,0,0,.18-.31.39.39,0,0,0-.17-.3l6.73-11.87,7.07,11.95-.08.21.15.29-7,12Zm7-12.29,6.81,4.1.12,7.55,0,0Zm7,12.42v7l-6.85,4.66Zm-.06-8.44-6.89-4.17,13.69,0Zm6.86-4.08-6.56,11.75-.1,0-.12-7.51Zm.13.08,0,7.33L196,221.5l0-.08Zm-6.46,12,6.51-4.54,6.9,4.43,0,.11.05.14h0l-7,4.5L196,221.84l0,0,0-.05Zm13.58.31,0,0,.15,7.31h0l-6.95,4.5Zm.31,7.45,0,0,6.66,4.51-13.62,0Zm0-7.45a.36.36,0,0,0,.19-.31.39.39,0,0,0-.17-.3l6.73-11.87,7.07,11.95-.09.21.16.29-7,12Zm7-12.29,6.81,4.1.12,7.55,0,0Zm6.95,12.42v7l-6.86,4.66Zm-.06-8.44L217,209.5l13.69,0Zm6.86-4.08-6.56,11.75-.1,0-.13-7.51Zm.13.08,0,7.33-6.51,4.5,0-.08Zm-6.47,12,6.52-4.54,6.9,4.43,0,.11.05.14h0l-7,4.5-6.43-4.47,0,0,0-.05,0-.08ZM238,222l0,0,.15,7.31h0l-7,4.5Zm.32,7.45,0,0,6.66,4.51-13.62,0Zm0-.21-.11-7.1,6.68,11.52Zm0-15.5,6.51-4.08-6.58,11.65Zm-6.95-4.36,6.87-4.67,6.66,4.63Zm6.94-4.81v-7.11h0L245,209.22Zm.15-7.17h0l6.51,4.5.17,7.26Zm6.61-5-6.51,4.5,0-.08L245,185.09Zm-13.71-7.63,7-4.51,0,0,6.66,4.5Zm7-4.73-.11-7.1,6.68,11.53Zm0-15.5,6.51-4.08-6.58,11.66Zm-6.95-4.35,6.87-4.68,6.66,4.63Zm6.94-4.82v-7.1h0L245,160.06Zm.15-7.17h0l6.51,4.5.17,7.26Zm6.61-4.95-6.51,4.5,0-.09L245,135.93Zm-13.71-7.64,7-4.51,0,0,6.66,4.51Zm7-4.72-.11-7.1,6.68,11.52Zm0-15.51,6.51-4.07L238.18,123Zm-6.95-4.35,6.87-4.67,6.66,4.62Zm6.94-4.81V99.13h0L245,110.9Zm.15-7.17h0l6.51,4.5.17,7.26Zm6.61-5-6.51,4.5,0-.08L245,86.78Zm-13.71-7.63,7-4.51,0,0,6.66,4.5Zm7-4.73-.11-7.1,6.68,11.53Zm0-15.5,6.51-4.08-6.58,11.66Zm-6.95-4.36,6.87-4.67,6.66,4.63Zm6.94-4.81V50h0L245,61.75Zm.15-7.17h0l6.51,4.5.17,7.26ZM245,45l-6.51,4.49,0-.08L245,37.62Zm-13.71-7.64,7-4.51,0,0,6.66,4.51Zm7-4.72-.11-7.11L244.85,37Zm0-15.51L244.76,13l-6.58,11.66ZM238.09.91v7l-6.86,4.67Zm0,16.1h0L238,24.72l-.06,0L231.13,13ZM231,13l6.81,11.79L231,20.38Zm6.8,11.92,0,.11.05.13h0l-7,4.51-6.43-4.48,0,0,0-.05,0-.09h0l6.52-4.54Zm-7-4.56-6.51,4.5,0-.09L230.84,13Zm-13.71-7.64,7-4.51,0,0,6.66,4.51Zm13.56-.3L224.11,8,224,.92ZM223.78.78l0,0L224,8.11h0L217,12.61Zm-.17,0-6.73,11.78-.16-7.29Zm-13.56,0,6.51,4.5.17,7.26L210,.76Zm-.16.07h0l6.71,11.77-6.72-4.67Zm6.58,11.87-13.53.05,6.87-4.68ZM209.73.91v7l-6.85,4.67Zm0,16.1h0l-.11,7.71-.06,0L202.77,13Zm-7.12-4,6.8,11.79-6.83-4.43Zm6.79,11.92,0,.11.05.13h0l-7,4.51L196,25.21l0,0,0-.05,0-.09,6.51-4.54Zm-7-4.56L196,24.88l0-.09L202.48,13Zm-13.71-7.64,7-4.51,0,0,6.66,4.51Zm13.56-.3L195.75,8l-.11-7.1ZM195.42.78l0,0,.16,7.31h0l-7,4.5Zm-.17,0-6.73,11.78-.16-7.29Zm-13.56,0,6.52,4.5.16,7.26L181.67.76Zm-.16.07h0l6.71,11.77-6.72-4.67Zm6.58,11.87-13.53.05,6.87-4.68ZM181.37.91v7l-6.85,4.67Zm0,16.1h0l-.11,7.71-.06,0L174.41,13Zm-7.12-4,6.8,11.79-6.83-4.43Zm6.79,11.92,0,.11.05.13h0l-7,4.51-6.43-4.48,0,0,0-.05,0-.09,6.51-4.54Zm-7-4.56-6.51,4.5,0-.09L174.12,13Zm-13.71-7.64,7-4.51,0,0L174,12.7Zm13.56-.3L167.39,8l-.11-7.1ZM167.06.78l0,0,.16,7.31h0l-7,4.5Zm-.16,0-6.73,11.78L160,5.25Zm-13.57,0,6.52,4.5.16,7.26L153.32.76Zm-.16.07h0l6.71,11.77-6.72-4.67Zm6.58,11.87-13.52.05,6.86-4.68ZM153,.91v7l-6.85,4.67ZM153,17h0l-.11,7.71-.06,0L146.05,13Zm-7.12-4,6.81,11.79-6.84-4.43Zm6.79,11.92,0,.11.05.13h0l-7,4.51-6.43-4.48,0,0,0-.05,0-.09,6.52-4.54Zm-7-4.56-6.51,4.5,0-.09L145.77,13ZM132,12.74l7-4.51,0,0,6.66,4.51Zm13.56-.3L139,8l-.11-7.1ZM138.7.78l0,0,.16,7.31h0l-7,4.5Zm-.16,0-6.73,11.78-.17-7.29ZM125,.75l6.52,4.5.16,7.26L125,.76Zm-.16.07h0l6.71,11.77L124.8,7.92Zm6.58,11.87-13.52.05,6.86-4.68ZM124.65.91v7l-6.85,4.67Zm0,16.1h0l-.12,7.71,0,0L117.69,13Zm-7.13-4,6.81,11.79-6.84-4.43Zm6.79,11.92,0,.11.06.13h0l-7,4.51L111,25.21l0,0,0-.05,0-.09,6.52-4.54Zm-7-4.56-6.51,4.5,0-.09L117.41,13Zm-13.71-7.64,7-4.51,0,0,6.66,4.51Zm13.56-.3L110.67,8l-.11-7.1ZM110.34.78l0,0,.16,7.31h0l-7,4.5Zm-.16,0-6.73,11.78-.17-7.29ZM96.62.75l6.51,4.5.16,7.26L96.6.76Zm-.17.07h0l6.7,11.77L96.45,7.92ZM103,12.69l-13.52.05,6.86-4.68ZM96.29.91v7l-6.85,4.67Zm0,16.1h0l-.11,7.71-.06,0L89.33,13ZM89.2,13,96,24.81l-6.84-4.43ZM96,24.94l0,.11.06.13h0l-7,4.51L82.6,25.21l0,0,0-.05,0-.09L89.1,20.5Zm-7-4.56-6.5,4.5,0-.09L89.05,13Zm-13.7-7.64,7-4.51,0,0,6.66,4.51Zm13.56-.3L82.31,8,82.2.92ZM82,.78l0,0,.15,7.31h0l-7,4.5Zm-.16,0L75.09,12.54l-.17-7.29ZM68.26.75l6.51,4.5.17,7.26L68.24.76Zm-.17.07h0l6.7,11.77L68.09,7.92Zm6.58,11.87-13.52.05L68,8.06ZM67.93.91v7l-6.85,4.67ZM68,17h0l-.11,7.71-.06,0L61,13Zm-7.13-4,6.81,11.79-6.83-4.43Zm6.8,11.92,0,.11.06.13h0l-7,4.51-6.43-4.48,0,0,0-.05,0-.09,6.52-4.54Zm-7-4.56-6.5,4.5,0-.09L60.69,13ZM47,12.74l7-4.51,0,0,6.66,4.51Zm13.56-.3L54,8,53.84.92ZM53.62.78l0,0,.15,7.31h0l-7,4.5Zm-.16,0L46.73,12.54l-.17-7.29ZM39.9.75l6.51,4.5.17,7.26L39.88.76Zm-.16.07h0l6.71,11.77L39.73,7.92Zm6.58,11.87-13.53.05,6.86-4.68ZM39.58.91v7l-6.86,4.67Zm0,16.1h0l-.11,7.71-.06,0L32.61,13Zm-7.13-4,6.81,11.79-6.83-4.43Zm6.8,11.92-.05.11.06.13h0l-7,4.51-6.43-4.48,0,0,0-.05,0-.09,6.52-4.54Zm-7-4.56-6.5,4.5,0-.09L32.33,13ZM18.6,12.74l7-4.51,0,0,6.66,4.51Zm13.56-.3L25.59,8,25.48.92ZM25.26.78l0,0,.15,7.31h0l-7,4.5Zm-.16,0L18.37,12.54,18.2,5.25ZM11.54.75l6.51,4.5.17,7.26L11.52.76Zm-.16.07h0l6.71,11.77L11.37,7.92ZM18,12.69l-13.53.05,6.86-4.68ZM11.22.91v7L4.36,12.59Zm0,16.1h0l-.11,7.71-.06,0L4.26,13ZM4.1,20.38l0-7.36,6.81,11.79Zm7,5,0,0,.15,7.3h0l-7,4.5ZM4,29.83l6.9-4.49L4.19,37.11ZM18,37.41l-6.81,4.21L4.26,37.46Zm-13.69.23,6.81,4.11.12,7.54,0,0Zm7,12.43v7L4.36,61.74Zm0,16.09h0l-.11,7.7-.06,0L4.26,62.1ZM4.1,69.53l0-7.36L10.93,74Zm7,5h0l.15,7.31h0l-7,4.5ZM4,79l6.9-4.48L4.19,86.27ZM18,86.57l-6.81,4.21L4.26,86.61ZM4.27,86.8l6.81,4.1.12,7.55,0,0Zm7,12.43v7L4.36,110.9Zm0,16.09h0l-.11,7.7-.06,0L4.26,111.26ZM4.1,118.69l0-7.36,6.81,11.79Zm7,5,0,0,.15,7.3h0l-7,4.5ZM4,128.14l6.9-4.49L4.19,135.42ZM18,135.72l-6.81,4.22-6.89-4.17ZM4.27,136l6.81,4.11.12,7.55h0Zm7,12.43v7l-6.86,4.66Zm0,16.09h0l-.11,7.7-.06,0L4.26,160.42ZM4.1,167.84l0-7.35,6.81,11.79Zm7,5h0l.15,7.31h0l-7,4.5ZM4,177.3l6.9-4.49L4.19,184.58ZM18,184.88l-6.81,4.21-6.89-4.16Zm-13.69.23,6.81,4.11.12,7.54,0,0Zm7,12.43v7l-6.86,4.66Zm0,16.09h0l-.11,7.7-.06,0-6.81-11.8ZM4.1,217l0-7.36,6.81,11.79Zm7,5,0,0,.15,7.31h0l-7,4.5ZM4,226.45l6.9-4.49L4.19,233.74Zm7.14,19.48L4.27,234.26l6.81,4.11.12,7.55Zm0-7.68-6.89-4.17L18,234Zm.3,7.67-.09,0-.13-7.51,6.79-4.2Zm.13.07,6.57-11.75,0,7.34-6.5,4.5Zm13.51.39-7,4.51-6.43-4.48,0,0,0,0,0-.09,6.52-4.54,6.9,4.44-.05.11.06.14Zm-6.81-4.8,0-7.36L25.11,246Zm7.14-3.36-.11,7.7-.06,0-6.81-11.79,7,4.06Zm-6.78-4.12,13.38,0-6.5,4.09,0,0Zm6.85,11.77.07-7.58,6.51-4.07Zm-6.88-11.93,6.86-4.67,6.67,4.62Zm6.94-4.81V222h0l6.71,11.77ZM25.7,222h0l6.51,4.5.17,7.26Zm6.68,4.49,6.9-4.49-6.73,11.78Zm7.14,19.48-6.89-11.67,6.81,4.11.12,7.55Zm0-7.68-6.89-4.17,13.7,0Zm.3,7.67-.09,0-.13-7.51,6.79-4.2Zm.13.07,6.57-11.75,0,7.34-6.5,4.5Zm13.51.39-7,4.51-6.43-4.48,0,0,0,0,0-.09,6.52-4.54,6.9,4.44-.05.11.06.14Zm-6.81-4.8,0-7.36L53.47,246Zm7.14-3.36-.11,7.7-.06,0-6.82-11.79,7,4.06ZM47,234.1l13.38,0-6.5,4.09,0,0Zm6.85,11.77.07-7.58,6.51-4.07ZM47,233.94l6.86-4.67,6.67,4.62Zm6.94-4.81V222h0l6.71,11.77Zm.15-7.17h0l6.51,4.5.17,7.26Zm6.68,4.49,6.9-4.49-6.73,11.78Zm7.14,19.48L61,234.26l6.81,4.11.12,7.55Zm0-7.68L61,234.08l13.7,0Zm.3,7.67-.09,0L68,238.37l6.79-4.2Zm.13.07,6.57-11.75,0,7.34-6.5,4.5Zm13.51.39-7,4.51-6.42-4.48,0,0,0,0,0-.09,6.52-4.54,6.9,4.44,0,.11.06.14ZM75,241.58l0-7.36L81.83,246Zm7.15-3.36-.11,7.7-.06,0-6.82-11.79,7,4.06Zm-6.79-4.12,13.39,0-6.5,4.09,0,0Zm6.86,11.77.07-7.58,6.51-4.07Zm-6.88-11.93,6.86-4.67,6.66,4.62Zm6.94-4.81V222h0L89,233.79Zm.15-7.17h0l6.51,4.5.17,7.26Zm6.68,4.49L96,222l-6.73,11.78Zm7.14,19.48-6.89-11.67,6.81,4.11.12,7.55Zm0-7.68-6.89-4.17,13.7,0Zm.3,7.67-.09,0-.13-7.51,6.79-4.2Zm.13.07,6.57-11.75,0,7.34-6.51,4.5Zm13.51.39-7,4.51-6.42-4.48,0,0,0,0,0-.09,6.52-4.54,6.89,4.44,0,.11.06.14Zm-6.82-4.8,0-7.36L110.19,246Zm7.15-3.36-.11,7.7-.06,0-6.82-11.79,7,4.06Zm-6.79-4.12,13.39,0-6.5,4.09,0,0Zm6.86,11.77.07-7.58,6.51-4.07Zm-6.88-11.93,6.86-4.67,6.66,4.62Zm6.94-4.81V222l6.71,11.77Zm.15-7.17h0l6.51,4.5.16,7.26Zm6.68,4.49,6.9-4.49-6.73,11.78Zm7.14,19.48-6.89-11.67,6.8,4.11.13,7.55Zm0-7.68-6.89-4.17,13.7,0Zm.3,7.67-.1,0-.12-7.51,6.78-4.2Zm.13.07,6.57-11.75,0,7.34-6.51,4.5Zm13.51.39-7,4.51-6.43-4.48,0,0,0,0,0-.09,6.52-4.54,6.89,4.44,0,.11,0,.14Zm-6.82-4.8,0-7.36L138.55,246Zm7.14-3.36-.11,7.7-.05,0-6.82-11.79,7,4.06Zm-6.78-4.12,13.39,0-6.5,4.09,0,0Zm6.86,11.77.07-7.58,6.51-4.07Zm-6.88-11.93,6.86-4.67,6.66,4.62Zm6.93-4.81V222h0l6.71,11.77Zm.16-7.17h0l6.52,4.5.16,7.26Zm6.68,4.49,6.9-4.49L146,233.74ZM153,245.93l-6.9-11.67,6.81,4.11.12,7.55Zm0-7.68-6.89-4.17,13.69,0Zm.3,7.67-.1,0-.12-7.51,6.78-4.2Zm.13.07,6.56-11.75,0,7.34-6.51,4.5Zm13.51.39-7,4.51-6.43-4.48,0,0,0,0,0-.09h0L160,241.7l6.89,4.44,0,.11.05.14Zm-6.82-4.8,0-7.36L166.91,246Zm7.14-3.36-.11,7.7-.06,0-6.81-11.79,7,4.06Zm-6.78-4.12,13.39,0-6.5,4.09,0,0Zm6.86,11.77.07-7.58,6.51-4.07Zm-6.88-11.93,6.86-4.67,6.66,4.62Zm6.93-4.81V222h0l6.71,11.77Zm.16-7.17h0l6.52,4.5.16,7.26Zm6.68,4.49,6.9-4.49-6.74,11.78Zm7.13,19.48-6.89-11.67,6.81,4.11.12,7.55Zm0-7.68-6.89-4.17,13.69,0Zm.3,7.67-.1,0-.12-7.51,6.78-4.2Zm.13.07,6.56-11.75,0,7.34-6.51,4.5Zm13.51.39-7,4.51-6.43-4.48,0,0,0,0,0-.09,6.51-4.54,6.9,4.44,0,.11,0,.14Zm-6.82-4.8,0-7.36,6.8,11.79Zm7.14-3.36-.11,7.7-.06,0-6.81-11.79,7,4.06Zm-6.78-4.12,13.39,0-6.51,4.09,0,0Zm6.86,11.77.06-7.58,6.52-4.07Zm-6.89-11.93,6.87-4.67,6.66,4.62Zm6.94-4.81V222h0l6.71,11.77Zm.15-7.17h0l6.51,4.5.17,7.26Zm6.69,4.49,6.89-4.49-6.73,11.78Zm7.13,19.48-6.89-11.67,6.81,4.11.12,7.55Zm0-7.68-6.89-4.17,13.69,0Zm.3,7.67-.1,0-.13-7.51,6.79-4.2Zm.13.07,6.56-11.75,0,7.34-6.51,4.5Zm13.51.39-7,4.51-6.43-4.48,0,0,0,0,0-.09,6.51-4.54,6.9,4.44,0,.11.05.14Zm-6.82-4.8,0-7.36,6.8,11.79Zm7.14-3.36-.11,7.7-.06,0L217,234.15l7,4.06Zm-6.78-4.12,13.39,0L224,238.14l0,0ZM224,245.87l.07-7.58,6.51-4.07Zm-6.88-11.93,6.87-4.67,6.66,4.62Zm6.94-4.81V222h0l6.71,11.77Zm.15-7.17h0l6.51,4.5.17,7.26Zm6.69,4.49,6.89-4.49-6.73,11.78ZM238,245.93l-6.89-11.67,6.81,4.11.12,7.55Zm0-7.68-6.9-4.17,13.7,0Zm.3,7.67-.1,0-.13-7.51,6.79-4.2Zm.13.07L245,234.24l0,7.34-6.51,4.5Zm13.5.39-7,4.51-6.43-4.48,0,0,0,0,0-.09,6.52-4.54,6.9,4.44,0,.11,0,.14Zm-6.81-4.8,0-7.36L252,246Zm7.15-3.37h0l-.11,7.7-.06,0-6.81-11.79Zm0-9.08-6.86,4.66,6.86-11.68Zm-.14-15.34.12,7.55,0,0-6.89-11.67Zm0,7.66-.09.21.16.29-7,12L238.28,222a.36.36,0,0,0,.19-.31.37.37,0,0,0-.18-.3L245,209.5Zm-6.86-12.29-.16-7.29,6.89-4.48Zm7.09-4.42-7,4.5,6.75-11.83h0l.15,7.31Zm0-15.69h0l-.11,7.7-.06,0L245.31,185Zm0-9.08-6.86,4.66L252.27,173Zm-.14-15.33.12,7.54,0,0-6.89-11.67Zm0,7.65-.09.22.16.29-7,12-6.89-11.94a.34.34,0,0,0,0-.6L245,160.34ZM245.24,160l-.16-7.28,6.89-4.49Zm7.09-4.42-7,4.5,6.75-11.83,0,0,.15,7.3Zm0-15.68h0l-.11,7.71-.06,0-6.81-11.79Zm0-9.09-6.86,4.66,6.86-11.67Zm-.14-15.33.12,7.55h0l-6.89-11.67Zm0,7.65-.09.22.16.29-7,12-6.89-11.94a.34.34,0,0,0,.19-.3.37.37,0,0,0-.18-.3L245,111.19Zm-6.86-12.28-.16-7.29L252,99.07Zm7.09-4.42-7,4.5,6.75-11.83h0l.15,7.31Zm0-15.69h0l-.11,7.7-.06,0-6.81-11.8Zm0-9.08-6.86,4.66,6.86-11.67Zm-.14-15.33.12,7.54,0,0-6.89-11.67Zm0,7.65-.09.22.16.29-7,12-6.89-11.94a.36.36,0,0,0,.19-.3.34.34,0,0,0-.18-.3L245,62Zm-6.86-12.29-.16-7.28L252,49.92Zm7.09-4.42-7,4.5,6.75-11.83,0,0,.15,7.3Zm0-15.68h0l-.11,7.7-.06,0-6.81-11.79Zm0-9.09-6.86,4.66,6.86-11.67Zm-.14-15.33.12,7.55h0l-6.89-11.67Zm0,7.65L252,25l.16.29-7,12-6.89-11.94a.34.34,0,0,0,.19-.3.37.37,0,0,0-.18-.3L245,12.88Zm-6.86-12.28-.16-7.29L252,.76Zm.14.07L252.13.78l0,0,.15,7.31h0Z"/></g></svg>