<svg xmlns="http://www.w3.org/2000/svg" viewBox="0 0 256 256"><defs><style>.cls-1{fill:#ba776e;}</style></defs><title>seamless_pattern04</title><g id="seamless_pattern04"><path class="cls-1" d="M254,1.54l2-.36V.78l-1.87.34V0h-.39V1.26l-6.21,5.93-6.21-5.93V0h-.4V1.12L236.37.29,237.94,0h-2.18l-.22,0V0h-.41V.06L235,0l.06.25L235,.54l.11,0,1.26,5.34h-2.74L234.9.51l.12,0L235,.29,235,0l-.12,0V0h-.4V0l-.22,0h-2.19l1.57.29-4.55.83V0h-.39V1.26l-6.21,5.93L216.3,1.26V0h-.4V1.12L211.35.29,212.92,0h-2.19l-.21,0V0H210V0l-.22,0h-2.19l1.57.29-4.55.83V0h-.39V1.26L198,7.19,191.8,1.26V0h-.4V1.12L186.85.29,188.42,0h-2.18L186,0V0h-.41V.06l-.11,0,.06.25-.06.25.11,0,1.26,5.34h-2.74L185.39.51l.11,0-.06-.25L185.5,0l-.11,0,0-.06H185V0l-.22,0h-2.19l1.57.29-4.55.83V0h-.39V1.26L173,7.19l-6.21-5.93V0h-.4V1.12L161.83.29,163.4,0h-2.18L161,0V0h-.54V0l-.22,0h-2.19l1.57.29-4.55.83V0h-.39V1.26l-6.21,5.93-6.21-5.93V0h-.4V1.12L137.33.29,138.9,0h-2.18l-.22,0V0h-.4l0,.06L136,0l.06.25L136,.54l.11,0,1.26,5.34h-2.74L135.87.51l.11,0-.06-.25L136,0l-.11,0,0-.06h-.4V0l-.22,0h-2.19l1.57.29-4.55.83V0h-.39V1.26l-6.21,5.93-6.21-5.93V0h-.4V1.12L112.31.29,113.88,0H111.7l-.22,0V0H111V0l-.22,0h-2.19l1.57.29-4.55.83V0h-.39V1.26L99,7.19,92.76,1.26V0h-.39V1.12L87.82.29,89.38,0H87.2L87,0V0h-.4l0,.06-.11,0,.06.25-.06.25.11,0,1.26,5.34H85.09L86.35.51l.11,0h0L86.4.29,86.46,0h0l-.11,0,0-.06h-.4V0l-.22,0H83.53L85.1.29l-4.55.83V0h-.39V1.26L74,7.19,67.74,1.26V0h-.39V1.12L62.8.29,64.36,0H62.18L62,0V0h-.54V0l-.22,0H59l1.58.29-4.56.83V0h-.4V1.26L49.45,7.19,43.24,1.26V0h-.39V1.12L38.3.29,39.86,0H37.68l-.22,0V0h-.4l0,.06-.11,0L37,.29l-.06.25.11,0,1.26,5.34H35.57L36.83.51l.11,0L36.88.29,36.94,0l-.11,0,0-.06h-.4V0L36.2,0H34l1.57.29L31,1.12V0h-.39V1.26L24.43,7.19,18.22,1.26V0h-.39V1.12L13.28.29,14.84,0H12.66l-.22,0V0h-.54V0L11.7,0H9.51l1.58.29-4.56.83V0h-.4V1.26L0,7.12v9.77l6.13,5.85v2.47L0,31.06v9.77l6.13,5.85v2L0,54.5v9.77l6.13,5.84v2.47L0,78.43V88.2l6.13,5.85v2L0,101.87v9.77l6.13,5.85V120L0,125.81v9.77l6.13,5.85v2L0,149.25V159l6.13,5.85v2.46L0,173.18V183l6.13,5.85v2L0,196.62v9.77l6.13,5.85v2.47L0,220.56v9.77l6.13,5.85v2L0,244v9.77L2.34,256h.57L.13,253.34v-4.26l4.43,0,6.08,5.8L10.9,256h.4L11,254.77v-.05l-6.11-5.84,6-5.74h2.56l6,5.74-6.06,5.8-.05.06-.3,1.26h.41l.25-1.08,6.08-5.8,4.43,0v4.26L21.45,256H22l2.41-2.3,2.41,2.3h.57l-2.78-2.66v-4.26l4.43,0,6.08,5.8.25,1.08h.41l-.23-1h2.74l-.23,1h.41l.25-1.08,6.08-5.8,4.43,0v4.26L46.47,256H47l2.41-2.3,2.41,2.3h.57l-2.78-2.66v-4.26l4.43,0,6.08,5.8.26,1.08h.4l-.29-1.22v-.06l-6.11-5.84,6-5.74H63l6,5.74-6.07,5.8,0,.06-.3,1.26H63l.25-1.08,6.08-5.8,4.43,0v4.26L71,256h.57L74,253.7l2.41,2.3h.57l-2.78-2.66v-4.26l4.43,0,6.08,5.8.25,1.08h.41l-.23-1h2.74l-.23,1H88l.25-1.08,6.08-5.8,4.43,0v4.26L96,256h.57L99,253.7l2.41,2.3H102l-2.78-2.66v-4.26l4.43,0,6.08,5.8.25,1.08h.41l-.29-1.23,0-.05-6.1-5.84,6-5.74h2.56l6,5.74-6.07,5.8,0,.06-.3,1.26h.4l.26-1.08,6.08-5.8,4.43,0v4.26L120.49,256h.57l2.41-2.3,2.41,2.3h.57l-2.78-2.66v-4.26l4.43,0,6.08,5.8.25,1.08h.41l-.23-1h2.74l-.23,1h.4l.26-1.08,6.08-5.8,4.43,0v4.26L145.51,256h.57l2.41-2.3,2.41,2.3h.57l-2.78-2.66v-4.26l4.43,0,6.08,5.8.25,1.08h.41l-.29-1.22v-.06l-6.12-5.84,6-5.74H162l6,5.74-6.07,5.8,0,.06-.3,1.26h.4l.26-1.08,6.08-5.8,4.43,0v4.26L170,256h.57l2.41-2.3,2.41,2.3H176l-2.79-2.66v-4.26l4.44,0,6.08,5.8L184,256h.41l-.23-1h2.74l-.23,1h.4l.26-1.08,6.08-5.8,4.43,0v4.26L195,256h.57l2.41-2.3,2.41,2.3H201l-2.78-2.66v-4.26l4.43,0,6.08,5.8L209,256h.41l-.29-1.22v-.06L203,248.88l6-5.74h2.56l6,5.74-6.07,5.8,0,.06-.3,1.26h.4l.26-1.08,6.08-5.8,4.43,0v4.26L219.53,256h.57l2.41-2.3,2.4,2.3h.58l-2.79-2.66v-4.26l4.44,0,6.08,5.8.25,1.08h.41l-.23-1h2.73l-.22,1h.4l.26-1.08,6.08-5.8,4.43,0v4.26L244.55,256h.57l2.41-2.3,2.41,2.3h.57l-2.79-2.66v-4.26l4.44,0,3.84,3.67v-.55l-3.52-3.36,3.52-3.35V245l-3.84,3.67-4.44,0v-4.26l6.29-6,2-.36v-.41l-1.87.35v-1.67l1.88.34v-.4l-2-.36-6.29-6v-4.26l4.44,0,3.84,3.67v-.55l-3.52-3.36,3.52-3.35v-.55l-3.84,3.67-4.44,0V221l6.29-6,2-.36v-.41l-1.88.35v-2.17l1.89.35v-.4l-2-.37-6.29-6v-4.26l4.44,0,3.84,3.67v-.54l-3.52-3.36,3.52-3.36v-.55l-3.84,3.67-4.44,0v-4.26l6.29-6,2-.36v-.4l-1.87.34V189l1.88.35v-.4l-2-.37-6.29-6v-4.26l4.44,0L256,182v-.54l-3.52-3.36,3.52-3.36v-.54l-3.84,3.66-4.44,0v-4.26l6.29-6,2-.36v-.4l-1.88.34V165l1.89.35V165l-2-.36-6.29-6v-4.26l4.44,0L256,158v-.55l-3.52-3.36,3.52-3.35v-.55l-3.84,3.67-4.44,0v-4.26l6.29-6,2-.37v-.4l-1.87.35v-1.67l1.88.34v-.4l-2-.36-6.29-6v-4.26l4.44,0L256,134.6v-.55l-3.52-3.36,3.52-3.35v-.55l-3.84,3.67-4.44,0v-4.26l6.29-6,2-.36v-.41l-1.88.35v-2.17L256,118v-.4l-2-.37-6.29-6V107l4.44,0,3.84,3.67v-.55l-3.52-3.35L256,103.4v-.55l-3.84,3.67-4.44,0V102.3l6.29-6,2-.36v-.4l-1.87.34V94.2l1.88.35v-.4l-2-.37-6.29-6V83.52l4.44,0L256,87.22v-.54l-3.52-3.36L256,80v-.54l-3.84,3.66-4.44,0V78.86l6.29-6,2-.36v-.4l-1.88.34V70.26l1.89.35v-.4l-2-.36-6.29-6V59.58l4.44,0L256,63.28v-.54l-3.52-3.36L256,56v-.54l-3.84,3.67-4.44,0V54.92l6.29-6,2-.37v-.4l-1.87.35V46.83l1.88.34v-.4l-2-.36-6.29-6V36.14l4.44,0L256,39.85V39.3l-3.52-3.36L256,32.59V32l-3.84,3.67-4.44,0V31.48l6.29-6,2-.36v-.41l-1.88.35V22.89l1.89.35v-.41l-2-.36-6.29-6V12.21l4.44,0L256,15.91v-.55L252.48,12,256,8.65V8.1l-3.84,3.67-4.44,0V7.55Zm-18.47-1,5.5,1,6.29,6v4.26l-4.43,0L236.82,6Zm0,236.38,1.28-5.44,6.08-5.8,4.43,0v4.26l-6.29,6Zm5.38-.59V238l-4.55-.84Zm-5.84.83-.06.25.11,0,1.25,5.34h-2.73l1.25-5.34.12,0-.06-.25.06-.24-.12,0-1.25-5.34h2.73l-1.25,5.34-.11,0ZM229,235.91l-6.29-6v-4.26l4.44,0,6.08,5.8,1.28,5.44Zm4.67,1.25-4.55.84v-1.67Zm-4.74-1.09v0Zm-12.9-.16-5.5,1,1.28-5.44,6.08-5.8,4.43,0v4.26Zm.08.19Zm-.2.23V238l-4.55-.84Zm-11.41-.42-6.28-6v-4.26l4.43,0,6.08,5.8,1.28,5.44Zm4.67,1.25-4.55.84v-1.67Zm-4.74-1.09v0h0v0Zm-18.4.85,1.28-5.44,6.08-5.8,4.43,0v4.26l-6.29,6Zm5.38-.59V238l-4.55-.84Zm-5.84.83-.06.25.11,0,1.26,5.34h-2.74l1.26-5.34.11,0-.06-.25.06-.24-.11,0-1.26-5.34h2.74l-1.26,5.34-.11,0Zm-6.09-1.25-6.29-6v-4.26l4.44,0,6.08,5.8,1.28,5.44Zm4.67,1.25-4.55.84v-1.67Zm-4.74-1.09v0Zm-18.4.85,1.28-5.44,6.08-5.8,4.43,0v4.26l-6.29,6Zm5.38-.59V238l-4.55-.84Zm-11.4-.42-6.29-6v-4.26l4.43,0,6.08,5.8,1.28,5.44Zm4.67,1.25-4.56.84v-1.67Zm-4.75-1.09v0h0v0Zm-18.4.85,1.28-5.44,6.08-5.8,4.43,0v4.26l-6.29,6Zm5.38-.59V238l-4.55-.84Zm-5.84.83-.06.25.11,0,1.26,5.34h-2.74l1.26-5.34.11,0-.06-.25.06-.24-.11,0-1.26-5.34h2.74l-1.26,5.34-.11,0ZM130,235.91l-6.28-6v-4.26l4.43,0,6.08,5.8,1.28,5.44Zm4.67,1.25-4.55.84v-1.67Zm-4.74-1.09v0Zm-18.4.85,1.28-5.44,6.08-5.8,4.43,0v4.26l-6.29,6Zm5.38-.59V238l-4.55-.84Zm-11.4-.42-6.29-6v-4.26l4.43,0,6.08,5.8,1.28,5.44Zm4.67,1.25-4.56.84v-1.67Zm-4.75-1.09v0h0v0Zm-18.4.85,1.28-5.44,6.08-5.8,4.43,0v4.26l-6.29,6Zm5.39-.59V238l-4.56-.84Zm-5.85.83-.06.25.11,0,1.26,5.34H85.09l1.26-5.34.11,0h0l-.06-.25.06-.24h0l-.11,0-1.26-5.34h2.74l-1.26,5.34-.11,0Zm-6.08-1.25-6.29-6v-4.26l4.43,0,6.08,5.8,1.28,5.44Zm4.67,1.25-4.56.84v-1.67ZM62,236.92l1.28-5.44,6.08-5.8,4.43,0v4.26l-6.29,6Zm5.39-.59V238l-4.56-.84Zm-11.41-.42-6.29-6v-4.26l4.43,0,6.08,5.8,1.28,5.44Zm4.67,1.25-4.56.84v-1.67Zm-23.15-.24,1.28-5.44,6.08-5.8,4.43,0v4.26l-6.28,6Zm5.39-.59V238l-4.56-.84Zm-5.85.83-.06.25.11,0,1.26,5.34H35.57l1.26-5.34.11,0-.06-.25.06-.24-.11,0-1.26-5.34h2.74l-1.26,5.34-.11,0Zm-6.08-1.25-6.29-6v-4.26l4.43,0,6.08,5.8,1.28,5.44Zm4.67,1.25L31,238v-1.67Zm-4.75-1.09v0Zm-18.4.85,1.28-5.44,6.08-5.8,4.43,0v4.26l-6.29,6Zm5.39-.59V238l-4.56-.84ZM85.09,18.16h2.74L86.46,24l5.91-1.08v2.17L86.46,24l1.37,5.81H85.09L86.46,24h0l-5.91,1.08V22.89L86.46,24h0Zm150,29.5-.06.25.11,0,1.25,5.34h-2.73l1.25-5.34.12,0-.06-.25.06-.25-.12,0-1.25-5.34h2.73l-1.25,5.34-.11,0Zm0,47.38-.06.25.11,0,1.26,5.33h-2.74l1.25-5.33.12,0L235,95l.06-.25-.12,0-1.25-5.34h2.73l-1.25,5.34-.11,0Zm0,47.37-.06.25.11,0,1.25,5.34h-2.73l1.25-5.34.12,0-.06-.25.06-.25-.12,0-1.25-5.34h2.73l-1.25,5.34-.11,0Zm0,47.38L235,190l.11,0,1.26,5.35h-2.74L234.9,190l.12,0-.06-.25.06-.25-.12,0-1.25-5.34h2.73l-1.25,5.34-.11,0ZM19.8,201.27l-6.08-5.8L12.44,190,18,191l6.28,6v4.26Zm4.43.44V206l-6.29,6-5.5,1,1.28-5.43,6.08-5.81ZM12.44,47.41,13.72,42l6.08-5.8,4.43,0V40.4l-6.29,6Zm5.39-.58V48.5l-4.56-.84Zm.11,2.09,6.29,6v4.26l-4.43,0-6.08-5.81-1.28-5.43Zm13,0,5.5-1-1.28,5.43-6.08,5.81-4.43,0V54.92Zm-.08-2.33v0h0Zm.18.24,4.57.83L31,48.5Zm5.86.83.06-.25-.11,0L35.57,42.1h2.74l-1.26,5.34-.11,0,.06.25-.06.25.11,0,1.26,5.34H35.57l1.26-5.34.11,0Zm24.56.25-1.28,5.43-6.08,5.81-4.43,0V54.92l6.29-6ZM56,46.83l4.57.83-4.56.84ZM63,30.18l6,5.76L63,41.7H60.44l-6-5.76,6-5.76Zm-2.37-.39,1.11-4.71,1.11,4.71ZM85.94,47.91l-1.28,5.43-6.08,5.81-4.43,0V54.92l6.29-6Zm-5.4-1.08,4.57.83-4.56.84Zm5.86.83.06-.25h0l-.11,0L85.09,42.1h2.74l-1.26,5.34-.11,0,.06.25-.06.25.11,0,1.26,5.34H85.09l1.26-5.34.11,0h0Zm19.06,1.26,5.5-1-1.28,5.43-6.08,5.81-4.43,0V54.92Zm-.08-2.33v0h0v0Zm.18.24,4.57.83-4.56.84Zm6.92-16.65,6,5.76-6,5.76H110l-6-5.76,6-5.76Zm-2.37-.39,1.11-4.71,1.11,4.71ZM130,48.92l5.51-1-1.28,5.43-6.08,5.81-4.43,0V54.92Zm-.07-2.33v0h0Zm.18.24,4.56.83-4.55.84Zm5.86.83.06-.25-.11,0-1.26-5.34h2.74l-1.26,5.34-.11,0,.06.25-.06.25.11,0,1.26,5.34h-2.74l1.26-5.34.11,0ZM155,48.92l5.5-1-1.28,5.43-6.08,5.81-4.43,0V54.92Zm-.08-2.33v0h0v0Zm.18.24,4.57.83-4.56.84ZM162,30.18l6,5.76-6,5.76h-2.52l-6-5.76,6-5.76Zm-2.37-.39,1.11-4.71,1.11,4.71Zm19.84,19.13,5.51-1-1.28,5.43-6.08,5.81-4.44,0V54.92Zm-.07-2.33v0h0Zm.18.24,4.56.83-4.55.84Zm5.86.83.06-.25-.11,0-1.26-5.34h2.74l-1.26,5.34-.11,0,.06.25-.06.25.11,0,1.26,5.34h-2.74l1.26-5.34.11,0Zm19.05,1.26,5.51-1-1.28,5.43-6.08,5.81-4.43,0V54.92Zm-.07-2.33v0h0v0Zm.18.24,4.56.83-4.55.84Zm6.92-16.65,6,5.76-6,5.76H209l-6-5.76,6-5.76Zm-2.37-.39,1.11-4.71,1.11,4.71ZM229,48.92l5.51-1-1.28,5.43-6.08,5.81-4.44,0V54.92Zm-.08-2.33v0h0Zm.19.24,4.56.83-4.55.84Zm-2,12.79,6.08,5.8,1.28,5.43-5.51-1-6.29-6V59.58ZM234.5,190l-1.28,5.43-6.08,5.8-4.44,0v-4.26l6.29-6ZM229.1,189l4.56.84-4.55.83Zm-.11-.42-6.29-6v-4.26l4.44,0,6.08,5.81,1.28,5.43Zm-13,0-5.5,1,1.28-5.43,6.08-5.81,4.43,0v4.26Zm.08.19Zm-.2.23v1.67l-4.55-.83Zm-29.88.59,1.28-5.43,6.08-5.81,4.43,0v4.26l-6.29,6Zm5.38-.59v1.67l-4.55-.83Zm-5.84.84-.06.25.11,0,1.26,5.35h-2.74l1.26-5.35.11,0-.06-.25.06-.25-.11,0-1.26-5.34h2.74l-1.26,5.34-.11,0Zm-19.06-1.26-5.5,1,1.28-5.43,6.08-5.81,4.43,0v4.26Zm.08.19Zm-.2.23v1.67l-4.55-.83Zm-29.88.59,1.28-5.43,6.08-5.81,4.43,0v4.26l-6.29,6Zm5.38-.59v1.67l-4.55-.83Zm-5.84.84L136,190l.11,0,1.26,5.35h-2.74l1.26-5.35.11,0-.06-.25.06-.25-.11,0-1.26-5.34h2.74l-1.26,5.34-.11,0ZM117,188.53l-5.5,1,1.28-5.43,6.08-5.81,4.43,0v4.26Zm.08.19Zm-.2.23v1.67l-4.55-.83ZM87,189.54l1.28-5.43,6.08-5.81,4.43,0v4.26l-6.28,6Zm5.39-.59v1.67l-4.55-.83Zm-5.85.84-.06.25.11,0,1.26,5.35H85.09L86.35,190l.11,0h0l-.06-.25.06-.25h0l-.11,0-1.26-5.34h2.74l-1.26,5.34-.11,0Zm-19.06-1.26-5.5,1,1.28-5.43,6.08-5.81,4.43,0v4.26Zm.08.19Zm-.19.23v1.67l-4.55-.83Zm-29.89.59,1.28-5.43,6.08-5.81,4.43,0v4.26l-6.28,6Zm5.39-.59v1.67l-4.55-.83Zm-5.85.84-.06.25.11,0,1.26,5.35H35.57L36.83,190l.11,0-.06-.25.06-.25-.11,0-1.26-5.34h2.74l-1.26,5.34-.11,0ZM85.09,65.54h2.74l-1.37,5.81,5.91-1.08v2.16l-5.91-1.08,1.37,5.81H85.09l1.37-5.81h0l-5.91,1.08V70.27l5.91,1.08h0ZM36.42,95.29l-1.28,5.43-6.08,5.8-4.43,0V102.3l6.29-6ZM31,94.2l4.56.84L31,95.87Zm5.86.84.06-.25-.11,0-1.26-5.34h2.74l-1.26,5.34-.11,0L37,95l-.06.25.11,0,1.26,5.33H35.57l1.26-5.33.11,0Zm24.56.25-1.28,5.43-6.08,5.8-4.43,0V102.3l6.28-6ZM56,94.21l4.57.83-4.56.83ZM63,77.56l6,5.76-6,5.76H60.44l-6-5.76,6-5.76Zm-2.37-.4,1.11-4.7,1.11,4.7ZM85.94,95.29l-1.28,5.43-6.08,5.8-4.43,0V102.3l6.28-6Zm-5.4-1.08L85.1,95l-4.55.83ZM86.4,95l.06-.25h0l-.11,0-1.26-5.34h2.74l-1.26,5.34-.11,0,.06.25-.06.25.11,0,1.26,5.33H85.09l1.26-5.33.11,0h0Zm24.56.25-1.28,5.43-6.08,5.8-4.43,0V102.3l6.28-6Zm-5.4-1.09,4.56.84-4.55.83Zm6.92-16.64,6,5.76-6,5.76H110l-6-5.76,6-5.76Zm-2.37-.4,1.11-4.7,1.11,4.7Zm25.35,18.13-1.28,5.43-6.08,5.8-4.43,0V102.3l6.28-6Zm-5.4-1.09,4.56.84-4.55.83Zm5.86.84.06-.25-.11,0-1.26-5.34h2.74l-1.26,5.34-.11,0L136,95l-.06.25.11,0,1.26,5.33h-2.74l1.26-5.33.11,0Zm24.56.25-1.28,5.43-6.08,5.8-4.43,0V102.3l6.28-6Zm-5.4-1.09,4.56.84-4.55.83ZM162,77.56l6,5.76-6,5.76h-2.52l-6-5.76,6-5.76Zm-2.37-.4,1.11-4.7,1.11,4.7ZM185,95.29l-1.28,5.43-6.08,5.8-4.44,0V102.3l6.29-6Zm-5.4-1.09,4.56.84-4.55.83Zm5.86.84.06-.25-.11,0-1.26-5.34h2.74l-1.26,5.34-.11,0,.06.25-.06.25.11,0,1.26,5.33h-2.74l1.26-5.33.11,0Zm24.56.25-1.28,5.43-6.08,5.8-4.43,0V102.3l6.28-6Zm-5.4-1.09,4.56.84-4.55.83Zm6.92-16.64,6,5.76-6,5.76H209l-6-5.76,6-5.76Zm-2.37-.4,1.11-4.7,1.1,4.7Zm6.87,64-5.5,1,1.28-5.43,6.08-5.8,4.43,0v4.26Zm.08.19Zm-.2.23v1.67l-4.55-.84Zm-5.64-22.9.26,0,0-.1,5.39-1v2.16l-5.41-1,0-.09-.26,0-.26,0,0,.09-5.42,1v-2.17l5.43,1,0,.1Zm-1.17-6v-.06L203,106.76l6-5.74h2.56l6,5.74-6.07,5.79,0,.06-1.18,5Zm.06,11.89,1.11-4.71,1.11,4.71Zm2.37.4,6,5.75-6,5.76H209l-6-5.76,6-5.75ZM210,119.22l-1.28,5.43-6.08,5.81-4.43,0v-4.26l6.28-6Zm-7.36,11.71,6.08,5.8,1.28,5.43-5.51-1-6.28-6v-4.27Zm6.52,11.48-4.55.84v-1.67Zm-4.74-1.09h0v0h0Zm.07,2.35,5.51-1-1.28,5.43-6.08,5.81-4.43,0v-4.26Zm4.49,4.72h2.56l6,5.74-6.07,5.8,0,.06-1.18,5-1.17-5V160L203,154.13Zm.17-.39,1.11-4.73,1.11,4.73Zm0-11.15h2.21l-1.1,4.7Zm8.73-6.39-6.08-5.81-1.28-5.43,5.5,1,6.29,6v4.26Zm-7.36-12.23,1.28-5.43,6.08-5.81,4.43,0v4.26l-6.29,6Zm7.36-11.71-6.08-5.8-1.28-5.43,5.5,1,6.29,6v4.26ZM211.35,95l4.55-.84v1.67ZM216.1,94Zm-.08-.19-5.5,1,1.28-5.43,6.08-5.81,4.43,0v4.26Zm-4.66-4.31-1.1,4.71-1.11-4.71Zm0,11.15h-2.22l1.11-4.72ZM202.64,107l6.08,5.81,1.28,5.43-5.51-1-6.28-6V107Zm1.56,10.5V120l-6.2,5.91L191.83,120v-2.5l6.18-5.9ZM186,142.16l1.28-5.43,6.08-5.8,4.43,0v4.26l-6.29,6Zm5.38-.58v1.67l-4.55-.84Zm-5.84.83-.06.25.11,0,1.26,5.34h-2.74l1.26-5.34.11,0-.06-.25.06-.25-.11,0-1.26-5.34h2.74l-1.26,5.34-.11,0ZM187,112.52h-3l-6-5.76,6-5.76H187l6,5.76Zm6.36-5.53,4.43,0v4.26l-6.29,6-5.5,1,1.28-5.43Zm-7.88,5.92h1.37l-1.37,5.82,5.91-1.09v2.17l-5.91-1.08,1.37,5.81h-2.74l1.37-5.81-5.91,1.08v-2.17l5.91,1.09-1.37-5.82Zm1.52,12,6,5.75-6,5.76h-3l-6-5.76,6-5.75H187Zm-2-5.72-1.28,5.43-6.08,5.81-4.44,0v-4.26l6.29-6Zm-7.36,11.71,6.08,5.8,1.28,5.43-5.51-1-6.29-6v-4.26Zm6.52,11.48-4.55.84v-1.67Zm-4.74-1.09h0v0Zm.07,2.35,5.51-1-1.28,5.43-6.08,5.81-4.44,0v-4.26Zm4.5,4.71H187l6,5.75-6,5.76H184l-6-5.76Zm9.41-17.92-6.08-5.81L186,119.22l5.5,1,6.29,6v4.26Zm4.43-23.9-4.43,0-6.08-5.8L186,95.29l5.5,1,6.29,6ZM186.85,95l4.55-.84v1.67Zm-.83-.25,1.28-5.43,6.08-5.81,4.43,0v4.26l-6.29,6Zm1-5.71H184l-6-5.76,6-5.76H187l6,5.76ZM177.62,107l6.08,5.81,1.28,5.43-5.51-1-6.29-6V107Zm1.48,10.42V120L173,125.87l-6.2-5.91v-2.47l6.2-5.91ZM161,142.16l1.28-5.43,6.08-5.8,4.43,0v4.27l-6.29,6Zm5.38-.58v1.67l-4.55-.84Zm-4.42-29,0,.06-1.18,5-1.17-5v-.06l-6.12-5.83,6-5.74H162l6,5.74Zm6.4-5.56,4.43,0v4.26l-6.29,6-5.5,1,1.28-5.43Zm-7.62,11.69.26,0,0-.1,5.39-1v2.16l-5.41-1,0-.09-.26,0-.26,0,0,.09-5.42,1v-1.08h0v-1.08l5.43,1,0,.1Zm-1.11,5.86,1.11-4.71,1.11,4.71Zm2.37.4,6,5.75-6,5.76h-2.52l-6-5.76,6-5.75Zm-1.52-5.72-1.28,5.43-6.08,5.81-4.43,0v-4.26l6.29-6Zm-7.36,11.71,6.08,5.8,1.28,5.43-5.5-1-6.29-6v-4.26Zm6.53,11.48-4.56.84v-1.67Zm-4.75-1.09h0v0h0Zm.08,2.35,5.5-1-1.28,5.43-6.08,5.81-4.43,0v-4.26Zm4.48,4.72H162l6,5.74-6.07,5.8,0,.06-1.18,5-1.17-5V160l-6.12-5.84Zm.17-.39,1.11-4.73,1.11,4.73Zm0-11.15h2.22l-1.11,4.7Zm8.73-6.39-6.08-5.81L161,119.22l5.5,1,6.29,6v4.26Zm4.43-23.9-4.43,0-6.08-5.8L161,95.29l5.5,1,6.29,6ZM161.83,95l4.55-.84v1.67ZM166.58,94Zm-.08-.19-5.5,1,1.28-5.43,6.08-5.81,4.43,0v4.26Zm-4.65-4.31-1.11,4.71-1.11-4.71Zm0,11.15h-2.22l1.11-4.72ZM153.12,107l6.08,5.81,1.28,5.43-5.5-1-6.29-6V107Zm1.57,10.5v1.24h0V120l-6.2,5.91L142.31,120v-2.5l6.18-5.9ZM136.5,142.16l1.28-5.43,6.08-5.8,4.43,0v4.26l-6.29,6Zm5.38-.58v1.67l-4.55-.84Zm-5.84.83-.06.25.11,0,1.26,5.34h-2.74l1.26-5.34.11,0-.06-.25.06-.25-.11,0-1.26-5.34h2.74l-1.26,5.34-.11,0Zm1.46-29.89h-3l-6-5.76,6-5.76h3.05l6,5.76Zm6.36-5.53,4.43,0v4.26l-6.29,6-5.5,1,1.28-5.43ZM136,112.91h1.37L136,118.73l5.91-1.09v2.17L136,118.73l1.37,5.81h-2.74l1.37-5.81-5.91,1.08v-2.17l5.91,1.09-1.37-5.82Zm1.52,12,6,5.75-6,5.76h-3l-6-5.76,6-5.75h3.05Zm-2-5.72-1.28,5.43-6.08,5.81-4.43,0v-4.26l6.28-6Zm-7.36,11.71,6.08,5.8,1.28,5.43-5.51-1-6.28-6v-4.27Zm6.52,11.48-4.55.84v-1.67Zm-4.74-1.09h0v0Zm.07,2.35,5.51-1-1.28,5.43-6.08,5.81-4.43,0v-4.26Zm4.5,4.71h3.05l6,5.75-6,5.76h-3l-6-5.76Zm9.41-17.92-6.08-5.81-1.28-5.43,5.5,1,6.29,6v4.26Zm4.43-23.9-4.43,0-6.08-5.8-1.28-5.43,5.5,1,6.29,6ZM137.33,95l4.55-.84v1.67Zm-.83-.25,1.28-5.43,6.08-5.81,4.43,0v4.26l-6.29,6Zm1-5.71h-3l-6-5.76,6-5.76h3.05l6,5.76ZM128.1,107l6.08,5.81,1.28,5.43-5.51-1-6.28-6V107Zm1.48,10.42V120l-6.12,5.84-6.2-5.91v-2.47l6.2-5.91Zm-18.1,24.75,1.28-5.43,6.08-5.8,4.43,0v4.26l-6.29,6Zm5.38-.58v1.67l-4.55-.84Zm-6.75-17,1.11-4.71,1.11,4.71Zm2.37.4,6,5.75-6,5.76H110l-6-5.76,6-5.75Zm-1-6.21h0l0-.1,5.4-1v2.16l-5.41-1,0-.09Zm0-.5,1.28-5.43,6.08-5.81,4.43,0v4.26l-6.29,6Zm1-5.68,0,.06-1.18,5-1.17-5v0l-6.11-5.83,6-5.74h2.56l6,5.74ZM111,118.73h0l0,.09-5.42,1v-2.17l5.42,1,0,.1Zm0,.49-1.28,5.43-6.08,5.81-4.43,0v-4.26l6.29-6Zm-7.36,11.71,6.08,5.8,1.28,5.43-5.5-1-6.29-6v-4.26Zm6.53,11.48-4.56.84v-1.67Zm-4.75-1.09h0v0h0Zm.08,2.35,5.5-1-1.28,5.43-6.08,5.81-4.43,0v-4.26Zm4.48,4.72h2.56l6,5.74-6.07,5.8,0,.06-1.18,5-1.17-5,0-.05-6.1-5.84Zm.17-.39,1.11-4.73,1.11,4.73Zm0-11.15h2.22l-1.11,4.7Zm8.73-6.39-6.08-5.81-1.28-5.43,5.5,1,6.29,6v4.26Zm4.43-23.9-4.43,0-6.08-5.8-1.28-5.43,5.5,1,6.29,6ZM112.31,95l4.55-.84v1.67ZM117.06,94Zm-.08-.19-5.5,1,1.28-5.43,6.08-5.81,4.43,0v4.26Zm-4.65-4.31-1.11,4.71-1.11-4.71Zm-1.11,6.43,1.11,4.72h-2.22ZM103.6,107l6.08,5.81,1.28,5.43-5.5-1-6.29-6V107Zm1.57,10.5V120L99,125.87,92.79,120v-2.5l6.18-5.9ZM87,142.16l1.28-5.43,6.08-5.8,4.43,0v4.26l-6.29,6Zm5.39-.58v1.67l-4.56-.84Zm-5.85.83-.06.25.11,0L87.83,148H85.09l1.26-5.34.11,0h0l-.06-.25.06-.24h0l-.11,0-1.26-5.34h2.74l-1.26,5.34-.11,0Zm-1.43-29.5h2.74l-1.37,5.82,5.91-1.09v2.17l-5.91-1.08,1.37,5.81H85.09l1.37-5.81h0l-5.91,1.08v-2.17l5.91,1.09h0Zm2.89-.39h-3l-6-5.76,6-5.76H88l6,5.76ZM94.34,107l4.43,0v4.26l-6.29,6-5.5,1,1.28-5.43Zm-6.35,18,6,5.75-6,5.76h-3l-6-5.76,6-5.75H88Zm-2-5.72-1.28,5.43-6.08,5.81-4.43,0v-4.26l6.29-6Zm-7.36,11.71,6.08,5.8,1.28,5.43-5.5-1-6.29-6v-4.26Zm6.53,11.48-4.56.84v-1.67Zm.83.25-1.28,5.43-6.08,5.81-4.43,0v-4.26l6.29-6Zm-1,5.72h3l6,5.75-6,5.76h-3l-6-5.76Zm9.41-17.92-6.08-5.81L87,119.22l5.5,1,6.29,6v4.26Zm4.43-23.9-4.43,0-6.08-5.8L87,95.29l5.51,1,6.28,6ZM87.82,95l4.55-.84v1.67ZM87,94.79l1.28-5.43,6.08-5.81,4.43,0v4.26l-6.28,6Zm1-5.71h-3l-6-5.76,6-5.76h3l6,5.76ZM78.58,107l6.08,5.81,1.28,5.43-5.5-1-6.29-6V107Zm1.48,10.42V120L74,125.87,67.75,120v-2.47l6.2-5.91ZM62,142.16l1.28-5.43,6.08-5.8,4.43,0v4.26l-6.29,6Zm5.39-.58v1.67l-4.56-.84Zm-4.43-29,0,.06-1.18,5-1.17-5v-.06l-6.11-5.83,6-5.74H63l6,5.74Zm6.4-5.56,4.43,0v4.26l-6.29,6-5.5,1,1.28-5.43ZM61.7,118.68l.26,0,0-.1,5.4-1v2.16l-5.41-1,0-.09-.26,0-.26,0,0,.09-5.42,1v-2.17l5.42,1,0,.1Zm-1.11,5.86,1.11-4.71,1.11,4.71Zm2.37.4,6,5.75-6,5.76H60.44l-6-5.76,6-5.75Zm-1.52-5.72-1.28,5.43-6.08,5.81-4.43,0v-4.26l6.29-6Zm-7.36,11.71,6.08,5.8,1.28,5.43-5.5-1-6.29-6v-4.26Zm6.53,11.48-4.56.84v-1.67Zm.83.25-1.28,5.43-6.08,5.81-4.43,0v-4.26l6.29-6Zm-1,5.73H63l6,5.74-6.07,5.8,0,.06-1.18,5-1.17-5V160l-6.11-5.84Zm.17-.39,1.11-4.73L62.81,148Zm0-11.15h2.22l-1.11,4.7Zm8.73-6.39-6.08-5.81L62,119.22l5.5,1,6.29,6v4.26Zm4.43-23.9-4.43,0-6.08-5.8L62,95.29l5.5,1,6.29,6ZM62.8,95l4.55-.84v1.67ZM67.54,94Zm-.08-.19-5.5,1,1.28-5.43,6.08-5.81,4.43,0v4.26Zm-4.65-4.31L61.7,94.18l-1.11-4.71Zm0,11.15H60.59L61.7,95.9ZM54.08,107l6.08,5.81,1.28,5.43-5.5-1-6.29-6V107Zm1.57,10.5V120l-6.2,5.91L43.27,120v-2.5l6.18-5.9ZM37.46,142.16l1.28-5.43,6.08-5.8,4.43,0v4.27l-6.28,6Zm5.39-.58v1.67l-4.56-.84Zm-5.85.83-.06.25.11,0L38.31,148H35.57l1.26-5.34.11,0-.06-.25.06-.25-.11,0-1.26-5.34h2.74l-1.26,5.34-.11,0Zm1.47,6,6,5.75-6,5.76h-3l-6-5.76,6-5.75h3Zm0-35.86h-3l-6-5.76,6-5.76h3.06l6,5.76ZM44.82,107l4.43,0v4.26l-6.28,6-5.51,1,1.28-5.43Zm-7.88,5.92h1.37l-1.37,5.82,5.91-1.09v2.17l-5.91-1.08,1.37,5.81H35.57l1.37-5.81L31,119.81v-2.17l5.91,1.09-1.37-5.82Zm0,12h1.53l6,5.75-6,5.76h-3l-6-5.76,6-5.75Zm7.88,5.52-6.08-5.81-1.28-5.43,5.51,1,6.28,6v4.26Zm4.43-23.9-4.43,0-6.08-5.8-1.28-5.43,5.51,1,6.28,6ZM38.3,95l4.55-.84v1.67Zm-.84-.25,1.28-5.43,6.08-5.81,4.43,0v4.26l-6.28,6Zm1-5.71h-3l-6-5.76,6-5.76h3l6,5.76ZM29.06,107l6.08,5.81,1.28,5.43-5.5-1-6.29-6V107Zm7.36,12.23-1.28,5.43-6.08,5.81-4.43,0v-4.26l6.29-6Zm-7.36,11.71,6.08,5.8,1.28,5.43-5.5-1-6.29-6v-4.26Zm6.53,11.48-4.56.84v-1.67Zm-4.75-1.09h0v0Zm.08,2.35,5.5-1-1.28,5.43-6.08,5.81-4.43,0v-4.26Zm-1.86,10.7,6.08,5.8,1.28,5.43-5.5-1-6.29-6v-4.26Zm7.36,12.23L35.14,172l-6.08,5.8-4.43,0v-4.26l6.29-6Zm-1,5.71h3l6,5.76-6,5.76h-3l-6-5.76Zm1.52-.39H35.57l1.37-5.82L31,167.18V165l5.91,1.08-1.37-5.81h2.74l-1.37,5.81L42.85,165v2.16l-5.91-1.08,1.37,5.82Zm.52-6.32,1.28-5.43,6.08-5.8,4.43,0v4.26l-6.28,6Zm7.36-11.7-6.08-5.81-1.28-5.43,5.51,1,6.28,6v4.26Zm-1.58-10.51v-1.95l6.21-5.93,6.2,5.92v2l-6.21,5.92Zm6.41,10.94,4.43,0,6.08,5.8,1.28,5.43-5.5-1-6.29-6ZM61.44,166.6,60.16,172l-6.08,5.8-4.43,0v-4.26l6.29-6Zm-1,5.71H63l6,5.76-6,5.76H60.44l-6-5.76Zm.15-.39,1.11-4.71,1.11,4.71Zm1.11-5.77-.26-.05,0,.09-5.42,1V165l5.42,1,0,.09.26,0,.26,0,0-.09,5.4-1v2.16l-5.41-1,0-.09Zm.26-.55,1.28-5.43,6.08-5.8,4.43,0v4.26l-6.29,6Zm7.36-11.7-6.08-5.81L62,142.66l5.5,1,6.29,6v4.26Zm-1.58-10.51v-1.95L74,135.51l6.19,5.92,0,2L74,149.31Zm6.41,10.94,4.43,0,6.08,5.8,1.28,5.43-5.5-1-6.29-6ZM85.94,166.6,84.66,172l-6.08,5.8-4.43,0v-4.26l6.29-6Zm-1,5.71h3l6,5.76-6,5.76h-3l-6-5.76Zm1.53-.39H85.09l1.37-5.82h0l-5.91,1.08V165l5.91,1.08h0l-1.37-5.81h2.74l-1.37,5.81L92.37,165v2.16l-5.91-1.08,1.37,5.82ZM87,165.6l1.28-5.43,6.08-5.8,4.43,0v4.26l-6.29,6Zm7.36-11.7-6.08-5.81L87,142.66l5.5,1,6.29,6v4.26Zm-1.58-10.51v-1.95L99,135.51l6.2,5.92v2L99,149.31Zm6.41,10.94,4.43,0,6.08,5.8L111,165.6l-5.5-1-6.29-6ZM111,166.6,109.68,172l-6.08,5.8-4.43,0v-4.26l6.29-6Zm-1,5.71h2.52l6,5.76-6,5.76H110l-6-5.76Zm.15-.39,1.11-4.71,1.11,4.71Zm1.11-5.77-.26-.05,0,.09-5.42,1V165l5.42,1,0,.09.26,0,.26,0,0-.09,5.4-1v2.16l-5.41-1,0-.09Zm.26-.55,1.28-5.43,6.08-5.8,4.43,0v4.26l-6.29,6Zm7.36-11.7-6.08-5.81-1.28-5.43,5.5,1,6.29,6v4.26Zm-1.58-10.51v-1.95l6.21-5.93,6.19,5.92,0,2-6.21,5.92Zm6.41,10.94,4.43,0,6.08,5.8,1.28,5.43-5.51-1-6.28-6Zm11.79,12.27L134.18,172l-6.08,5.8-4.43,0v-4.26l6.28-6Zm-1,5.71h3.05l6,5.76-6,5.76h-3l-6-5.76Zm1.53-.39h-1.37L136,166.1l-5.91,1.08V165L136,166.1l-1.37-5.81h2.74L136,166.1l5.91-1.08v2.16L136,166.1l1.37,5.82Zm.52-6.32,1.28-5.43,6.08-5.8,4.43,0v4.26l-6.29,6Zm7.36-11.7-6.08-5.81-1.28-5.43,5.5,1,6.29,6v4.26Zm-1.58-10.51v-1.95l6.21-5.93,6.19,5.92,0,2-6.21,5.92Zm6.41,10.94,4.43,0,6.08,5.8,1.28,5.43-5.5-1-6.29-6Zm11.79,12.27L159.2,172l-6.08,5.8-4.43,0v-4.26l6.29-6Zm-1,5.71H162l6,5.76-6,5.76h-2.52l-6-5.76Zm.15-.39,1.11-4.71,1.11,4.71Zm1.11-5.77-.26-.05,0,.09-5.42,1V166.1h0V165l5.43,1,0,.09.26,0,.26,0,0-.09,5.39-1v2.16l-5.41-1,0-.09Zm.26-.55,1.28-5.43,6.08-5.8,4.43,0v4.26l-6.29,6Zm7.36-11.7-6.08-5.81L161,142.66l5.5,1,6.29,6v4.26Zm-1.58-10.51v-1.95l6.21-5.93,6.19,5.92,0,2L173,149.31Zm6.4,10.94,4.44,0,6.08,5.8L185,165.6l-5.51-1-6.29-6ZM185,166.6,183.7,172l-6.08,5.8-4.44,0v-4.26l6.29-6Zm-1,5.71H187l6,5.76-6,5.76H184l-6-5.76Zm1.53-.39h-1.37l1.37-5.82-5.91,1.08V165l5.91,1.08-1.37-5.81h2.74l-1.37,5.81,5.91-1.08v2.16l-5.91-1.08,1.37,5.82Zm.52-6.32,1.28-5.43,6.08-5.8,4.43,0v4.26l-6.29,6Zm7.36-11.7-6.08-5.81L186,142.66l5.5,1,6.29,6v4.26Zm-1.58-10.51v-1.95l6.21-5.93,6.19,5.92,0,2L198,149.31Zm6.41,10.94,4.43,0,6.08,5.8L210,165.6l-5.51-1-6.28-6ZM210,166.6,208.72,172l-6.08,5.8-4.43,0v-4.26l6.28-6Zm-1,5.71h2.52l6,5.76-6,5.76H209l-6-5.76Zm.15-.39,1.11-4.71,1.1,4.71Zm1.11-5.77-.26-.05,0,.09-5.42,1V165l5.43,1,0,.09.26,0,.26,0,0-.09,5.39-1v2.16l-5.41-1,0-.09Zm.26-.55,1.28-5.43,6.08-5.8,4.43,0v4.26l-6.29,6Zm7.36-11.7-6.08-5.81-1.28-5.43,5.5,1,6.29,6v4.26Zm-1.58-10.51v-1.95l6.21-5.93,6.19,5.92,0,2-6.21,5.92Zm0-23.43v-2.47l6.2-5.91,6.11,5.83V120l-6.12,5.84Zm0-23.95V94.07l6.21-5.93,6.19,5.91,0,2-6.21,5.93Zm6-12.89-4.43,0-6.08-5.8-1.28-5.43,5.5,1,6.29,6ZM210.52,70.85l1.28-5.43,6.08-5.8,4.43,0v4.26l-6.29,6Zm1-5.67,0,.06-1.18,5-1.17-5v-.06L203,59.38l6-5.74h2.56l6,5.74Zm-1.22,6.12.26,0,0-.09,5.39-1v2.16l-5.41-1,0-.09-.26.05-.26-.05,0,.09-5.42,1V70.26l5.43,1,0,.09Zm-.26.55-1.28,5.43-6.08,5.8-4.43,0V78.86l6.28-6Zm-7.36,11.7,6.08,5.81L210,94.79l-5.51-1-6.28-6V83.52Zm1.56,10.5,0,2L198,101.94,191.8,96V94.07L198,88.14Zm-6.39-10.93-4.43,0-6.08-5.8L186,71.85l5.5,1,6.29,6ZM186,70.85l1.28-5.43,6.08-5.8,4.43,0v4.26l-6.29,6Zm1-5.71H184l-6-5.76,6-5.75H187l6,5.75Zm-1.52.4h1.37l-1.37,5.81,5.91-1.08v2.16l-5.91-1.08,1.37,5.81h-2.74l1.37-5.81-5.91,1.08V70.27l5.91,1.08-1.37-5.81ZM185,71.85l-1.28,5.43-6.08,5.8-4.44,0V78.86l6.29-6Zm-7.36,11.7,6.08,5.81L185,94.79l-5.51-1-6.29-6V83.52Zm1.56,10.5,0,2L173,101.94,166.78,96v-2L173,88.14Zm-6.39-10.93-4.43,0-6.08-5.8L161,71.85l5.5,1,6.29,6ZM161,70.85l1.28-5.43,6.08-5.8,4.43,0v4.26l-6.29,6Zm1-5.67,0,.06-1.18,5-1.17-5v-.06l-6.12-5.84,6-5.74H162l6,5.74Zm-1.22,6.12.26,0,0-.09,5.39-1v2.16l-5.41-1,0-.09-.26.05-.26-.05,0,.09-5.42,1V71.35h0V70.26l5.43,1,0,.09Zm-.26.55-1.28,5.43-6.08,5.8-4.43,0V78.86l6.29-6Zm-7.36,11.7,6.08,5.81,1.28,5.43-5.51-1-6.28-6V83.52Zm1.56,10.5,0,2-6.21,5.93L142.28,96v-2l6.21-5.92Zm-6.39-10.93-4.43,0-6.08-5.8-1.28-5.43,5.5,1,6.29,6ZM136.5,70.85l1.28-5.43,6.08-5.8,4.43,0v4.26l-6.29,6Zm1-5.71h-3l-6-5.76,6-5.75h3.05l6,5.75Zm-1.52.4h1.37L136,71.35l5.91-1.08v2.16L136,71.35l1.37,5.81h-2.74L136,71.35l-5.91,1.08V70.27L136,71.35l-1.37-5.81Zm-.52,6.31-1.28,5.43-6.08,5.8-4.43,0V78.86l6.28-6Zm-7.36,11.7,6.08,5.81,1.28,5.43-5.51-1-6.28-6V83.52Zm1.56,10.5,0,2-6.21,5.93L117.26,96v-2l6.21-5.92Zm-6.39-10.93-4.43,0-6.08-5.8-1.28-5.43,5.5,1,6.29,6ZM111.48,70.85l1.28-5.43,6.08-5.8,4.43,0v4.26l-6.29,6Zm1-5.67,0,.06-1.18,5-1.17-5,0-.06-6.1-5.83,6-5.74h2.56l6,5.74Zm-1.22,6.12.26,0,0-.09,5.4-1v2.16l-5.41-1,0-.09-.26.05-.26-.05,0,.09-5.42,1V70.26l5.42,1,0,.09Zm-.26.55-1.28,5.43-6.08,5.8-4.43,0V78.86l6.29-6Zm-7.36,11.7,6.08,5.81L111,94.79l-5.51-1-6.28-6V83.52Zm1.57,10.5v2L99,101.94,92.76,96v-2L99,88.14Zm-6.4-10.93-4.43,0-6.08-5.8L87,71.85l5.5,1,6.29,6ZM87,70.85l1.28-5.43,6.08-5.8,4.43,0v4.26l-6.29,6Zm1-5.71h-3l-6-5.76,6-5.75h3l6,5.75Zm-2,6.71-1.28,5.43-6.08,5.8-4.43,0V78.86l6.29-6Zm-7.36,11.7,6.08,5.81,1.28,5.43-5.51-1-6.28-6V83.52Zm1.56,10.5,0,2L74,101.94,67.74,96v-2L74,88.14ZM73.75,83.12l-4.43,0-6.08-5.8L62,71.85l5.5,1,6.29,6ZM62,70.85l1.28-5.43,6.08-5.8,4.43,0v4.26l-6.29,6Zm1-5.67,0,.06-1.18,5-1.17-5v-.06l-6.11-5.84,6-5.74H63l6,5.74ZM61.7,71.3l.26,0,0-.09,5.4-1v2.16l-5.41-1,0-.09-.26.05-.26-.05,0,.09-5.42,1V70.27l5.42,1,0,.09Zm-.26.55-1.28,5.43-6.08,5.8-4.43,0V78.86l6.29-6Zm-7.36,11.7,6.08,5.81,1.28,5.43-5.51-1-6.28-6V83.52Zm1.57,10.5v2l-6.21,5.93L43.24,96v-2l6.21-5.92Zm-6.4-10.93-4.43,0-6.08-5.8-1.28-5.43,5.51,1,6.28,6ZM37.46,70.85l1.28-5.43,6.08-5.8,4.43,0v4.26l-6.28,6Zm1-5.71h-3l-6-5.76,6-5.75h3l6,5.75Zm-1.52.4h1.37l-1.37,5.81,5.91-1.08v2.16l-5.91-1.08,1.37,5.81H35.57l1.37-5.81L31,72.43V70.27l5.91,1.08-1.37-5.81Zm-.52,6.31-1.28,5.43-6.08,5.8-4.43,0V78.86l6.29-6Zm-7.36,11.7,6.08,5.81,1.28,5.43-5.5-1-6.29-6V83.52Zm1.57,10.5v2l-6.21,5.93L18.22,96v-2l6.21-5.92Zm-.08,23.36V120l-6.12,5.84L18.23,120v-2.47l6.2-5.91Zm.08,24v2l-6.21,5.92-6.21-5.92v-1.95l6.21-5.93Zm-.08,23.36v2.62l-6.12,5.84-6.2-5.92v-2.46l6.2-5.92Zm-5.92,13.48,4.43,0,6.08,5.81,1.28,5.43-5.5-1-6.29-6Zm11,11.52-4.55.83V189Zm.84.25-1.28,5.43-6.08,5.8-4.43,0v-4.26l6.29-6Zm-1,5.71h3l6,5.76-6,5.76h-3l-6-5.76Zm9.4-17.92L38.74,172l-1.28-5.43,5.51,1,6.28,6v4.26Zm-1.55-10.48v-2.5l6.18-5.9,6.2,5.92v2.46l-6.2,5.92Zm6.38,10.92,4.43,0,6.08,5.81,1.28,5.43-5.51-1-6.28-6Zm11,11.52-4.56.83V189Zm.83.25-1.28,5.43-6.08,5.8-4.43,0v-4.26l6.28-6Zm-1,5.73H63l6,5.74-6.07,5.79,0,.06-1.18,5-1.17-5v-.06l-6.11-5.83Zm.17-.4,1.11-4.72,1.11,4.72Zm0-11.15h2.22l-1.11,4.71Zm8.73-6.39L63.24,172,62,166.6l5.5,1,6.29,6v4.26Zm-1.57-10.5v-2.46L74,159l6.11,5.84v2.62L74,173.25Zm6.4,10.94,4.43,0,6.08,5.81,1.28,5.43-5.51-1-6.28-6ZM85.1,189.79l-4.55.83V189Zm.84.25-1.28,5.43-6.08,5.8-4.43,0v-4.26l6.28-6Zm-1,5.71H88l6,5.76-6,5.76h-3l-6-5.76Zm9.41-17.92L88.26,172,87,166.6l5.5,1,6.29,6v4.26Zm-1.55-10.48v-2.5L99,159l6.2,5.92v2.46L99,173.25Zm6.38,10.92,4.43,0,6.08,5.81,1.28,5.43-5.51-1-6.28-6Zm11,11.52-4.55.83V189Zm.84.25-1.28,5.43-6.08,5.8-4.43,0v-4.26l6.28-6Zm-1,5.73h2.56l6,5.74-6.07,5.79,0,.06-1.18,5-1.17-5v0l-6.11-5.83Zm.17-.4,1.11-4.72,1.11,4.72Zm1.11-6.44-1.11-4.71h2.22Zm7.62-11.1-6.08-5.8-1.28-5.43,5.5,1,6.29,6v4.26Zm-1.57-10.5v-2.46l6.2-5.92,6.11,5.84v2.62l-6.12,5.84Zm6.4,10.94,4.43,0,6.08,5.81,1.28,5.43-5.51-1-6.28-6Zm11,11.52-4.55.83V189Zm.84.25-1.28,5.43-6.08,5.8-4.43,0v-4.26l6.28-6Zm-1,5.71h3.05l6,5.76-6,5.76h-3l-6-5.76Zm9.41-17.92-6.08-5.8-1.28-5.43,5.5,1,6.29,6v4.26Zm-1.55-10.48v-2.5l6.18-5.9,6.2,5.92v1.23h0v1.23l-6.2,5.92Zm6.38,10.92,4.43,0,6.08,5.81,1.28,5.43-5.51-1-6.28-6Zm10.95,11.52-4.55.83V189Zm.84.25-1.28,5.43-6.08,5.8-4.43,0v-4.26l6.28-6Zm-1,5.73H162l6,5.74L162,207.3l0,.06-1.18,5-1.17-5v-.06l-6.12-5.83Zm.17-.4,1.11-4.72,1.11,4.72Zm0-11.15h2.22l-1.11,4.71Zm8.73-6.39-6.08-5.8L161,166.6l5.5,1,6.29,6v4.26Zm-1.57-10.5v-2.46L173,159l6.11,5.84v2.62L173,173.25Zm6.39,10.94,4.44,0,6.08,5.81,1.28,5.43-5.51-1-6.29-6Zm11,11.52-4.55.83V189Zm.84.25-1.28,5.43-6.08,5.8-4.44,0v-4.26l6.29-6Zm-1,5.71H187l6,5.76-6,5.76h-3l-6-5.76Zm9.41-17.92L187.3,172,186,166.6l5.5,1,6.29,6v4.26Zm-1.55-10.48v-2.5L198,159l6.19,5.92v2.46l-6.2,5.92Zm6.38,10.92,4.43,0,6.08,5.81,1.28,5.43-5.51-1-6.28-6Zm10.95,11.52-4.55.83V189Zm.84.25-1.28,5.43-6.08,5.8-4.43,0v-4.26l6.28-6Zm-1,5.73h2.56l6,5.74-6.07,5.79,0,.06-1.18,5-1.17-5v-.06L203,201.51Zm.17-.4,1.11-4.72,1.11,4.72Zm0-11.15h2.21l-1.1,4.71Zm8.73-6.39L211.8,172l-1.28-5.43,5.5,1,6.29,6v4.26Zm-1.57-10.5v-2.46l6.2-5.92,6.11,5.84v2.62l-6.12,5.84Zm6.39,10.54v-4.26l6.29-6,5.51-1L233.22,172l-6.08,5.8Zm0-19.28v-4.26l4.44,0,6.08,5.8,1.28,5.43-5.51-1Zm0-4.66v-4.26l6.29-6,5.51-1-1.28,5.43-6.08,5.81Zm6.21-12.59v0h0Zm.19.24,4.56.83-4.55.84Zm-.11-.42-6.29-6v-4.26l4.44,0,6.08,5.8,1.28,5.43Zm-6.29-10.67v-4.26l6.29-6,5.51-1-1.28,5.43-6.08,5.81Zm0-19.27V107l4.44,0,6.08,5.81,1.28,5.43-5.51-1Zm0-4.66V102.3l6.29-6,5.51-1-1.28,5.43-6.08,5.8Zm6.4-12.36,4.56.84-4.55.83Zm-.11-.42-6.29-6V83.52l4.44,0,6.08,5.81,1.28,5.43ZM222.7,83.12V78.86l6.29-6,5.51-1-1.28,5.43-6.08,5.8ZM228.62,70v2.62l-6.12,5.84-6.2-5.92V70.12l6.2-5.92Zm-6.31-10.86-4.43,0-6.08-5.81-1.28-5.43,5.5,1,6.29,6Zm-11-11.52,4.55-.83V48.5Zm4.75-1.06h0Zm-.08-.19-5.5,1L211.8,42l6.08-5.8,4.43,0V40.4Zm-4.66-4.31-1.1,4.7-1.11-4.7Zm0,11.15h-2.22l1.11-4.73Zm-8.73,6.37,6.08,5.8L210,70.85l-5.51-1-6.28-6V59.58Zm1.56,10.49v2.47L198,78.5l-6.18-5.9V70.1L198,64.2Zm-6.39-10.93-4.43,0-6.08-5.81L186,47.91l5.5,1,6.29,6Zm-11-11.52,4.55-.83V48.5Zm-.83-.25L187.3,42l6.08-5.8,4.43,0V40.4l-6.29,6Zm1-5.71h-3l-6-5.76,6-5.75H187l6,5.75Zm-9.4,17.92,6.08,5.8L185,70.85l-5.51-1-6.29-6V59.58ZM179.1,70v2.62L173,78.5l-6.2-5.92V70.12L173,64.2Zm-6.31-10.86-4.43,0-6.08-5.81L161,47.91l5.5,1,6.29,6Zm-11-11.52,4.55-.83V48.5Zm-.83-.25L162.28,42l6.08-5.8,4.43,0V40.4l-6.29,6Zm.85-5.31-1.11,4.7-1.11-4.7Zm0,11.15h-2.22l1.11-4.73Zm-8.73,6.37,6.08,5.8,1.28,5.43-5.5-1-6.29-6V59.58Zm1.57,10.49v1.24h0v1.23l-6.2,5.92-6.18-5.9V70.1l6.18-5.9Zm-6.4-10.93-4.43,0-6.08-5.81-1.28-5.43,5.5,1,6.29,6Zm-11-11.52,4.55-.83V48.5Zm-.83-.25L137.78,42l6.08-5.8,4.43,0V40.4l-6.29,6Zm1-5.71h-3l-6-5.76,6-5.75h3.05l6,5.75Zm-9.4,17.92,6.08,5.8,1.28,5.43-5.51-1-6.28-6V59.58ZM129.58,70v2.62l-6.12,5.84-6.2-5.92V70.12l6.2-5.92Zm-6.31-10.86-4.43,0-6.08-5.81-1.28-5.43,5.5,1,6.29,6Zm-11-11.52,4.55-.83V48.5Zm-.83-.25L112.76,42l6.08-5.8,4.43,0V40.4l-6.29,6Zm.85-5.31-1.11,4.7-1.11-4.7Zm0,11.15h-2.22l1.11-4.73Zm-8.73,6.37,6.08,5.8L111,70.85l-5.5-1-6.29-6V59.58Zm1.57,10.49v2.47L99,78.5l-6.18-5.9V70.1L99,64.2Zm-6.4-10.93-4.43,0-6.08-5.81L87,47.91l5.5,1,6.29,6Zm-11-11.52,4.56-.83V48.5ZM87,47.41,88.26,42l6.08-5.8,4.43,0V40.4l-6.29,6Zm1-5.71h-3l-6-5.76,6-5.75H88l6,5.75Zm-9.4,17.92,6.08,5.8,1.28,5.43-5.5-1-6.29-6V59.58ZM80.06,70v2.62L74,78.5l-6.2-5.92V70.12L74,64.2ZM73.75,59.18l-4.43,0-6.08-5.81L62,47.91l5.5,1,6.29,6Zm-11-11.52,4.56-.83V48.5ZM62,47.41,63.24,42l6.08-5.8,4.43,0V40.4l-6.29,6Zm.85-5.31L61.7,46.8l-1.11-4.7Zm0,11.15H60.59l1.11-4.73Zm-8.73,6.37,6.08,5.8,1.28,5.43-5.5-1-6.29-6V59.58Zm1.57,10.49v2.47l-6.2,5.92-6.18-5.9V70.1l6.18-5.9Zm-6.4-10.93-4.43,0-6.08-5.81-1.28-5.43,5.51,1,6.28,6Zm-11-11.52,4.56-.83V48.5Zm-.83-.25L38.74,42l6.08-5.8,4.43,0V40.4l-6.28,6Zm1-5.71h-3l-6-5.76,6-5.75h3.06l6,5.75Zm-9.4,17.92,6.08,5.8,1.28,5.43-5.5-1-6.29-6V59.58ZM30.55,70v2.62L24.43,78.5l-6.2-5.92V70.12l6.2-5.92ZM24.23,59.58v4.26l-6.29,6-5.5,1,1.28-5.43,6.08-5.8Zm0,19.28v4.26l-4.43,0-6.08-5.8-1.28-5.43,5.5,1Zm0,4.66v4.26l-6.28,6-5.51,1,1.28-5.43,6.08-5.81ZM18,94Zm-.19.23v1.67L13.28,95ZM18,96.29l6.28,6v4.26l-4.43,0-6.08-5.8-1.28-5.43ZM24.23,107v4.26l-6.29,6-5.5,1,1.28-5.43L19.8,107Zm0,19.27v4.26l-4.43,0-6.08-5.81-1.28-5.43,5.5,1Zm0,4.66v4.26l-6.29,6-5.5,1,1.28-5.43,6.08-5.8Zm-6.4,10.69v1.67l-4.56-.84Zm.11,2.09,6.29,6v4.26l-4.43,0-6.08-5.81-1.28-5.43Zm6.29,10.66v4.26l-6.29,6-5.5,1,1.28-5.43,6.08-5.8Zm0,19.28v4.26l-4.43,0L13.72,172l-1.28-5.43,5.5,1Zm0,4.66v4.26l-6.28,6-5.51,1,1.28-5.43,6.08-5.81ZM18,188.72Zm-.19.23v1.67l-4.55-.83Zm.39,1.81v-1.95l6.21-5.92,6.2,5.91v2l-6.21,5.93Zm6.41,11,4.43,0,6.08,5.81L36.42,213l-5.5-1-6.29-6ZM36.42,214l-1.28,5.43-6.08,5.81-4.43,0V221l6.29-6Zm-1,5.72h3.06l6,5.75-6,5.76h-3l-6-5.76Zm1.53-.4H35.57l1.37-5.81L31,214.56v-2.17l5.91,1.09-1.37-5.82h2.74l-1.37,5.82,5.91-1.09v2.17l-5.91-1.08,1.37,5.81Zm.52-6.31,1.28-5.43,6.08-5.81,4.43,0V206L43,212Zm7.36-11.71-6.08-5.8L37.46,190,43,191l6.28,6v4.26Zm-1.58-10.51v-1.95l6.21-5.92,6.2,5.91v2l-6.21,5.93Zm6.41,11,4.43,0,6.08,5.81L61.44,213l-5.5-1-6.29-6ZM61.44,214l-1.28,5.43-6.08,5.81-4.43,0V221l6.28-6Zm-1,5.72H63l6,5.75-6,5.76H60.44l-6-5.76Zm.15-.4,1.11-4.71,1.11,4.71Zm1.11-5.77-.26,0,0,.09-5.42,1v-2.17l5.42,1,0,.1.26,0,.26,0,0-.1,5.4-1v2.15l-5.41-1,0-.09ZM62,213l1.28-5.43,6.08-5.81,4.43,0V206l-6.29,6Zm7.36-11.71-6.08-5.8L62,190l5.5,1,6.29,6v4.26Zm-1.58-10.51v-1.95L74,182.89l6.19,5.91,0,2L74,196.69Zm6.41,11,4.43,0,6.08,5.81L85.94,213l-5.5-1-6.29-6ZM85.94,214l-1.28,5.43-6.08,5.81-4.43,0V221l6.28-6Zm-1,5.72H88l6,5.75-6,5.76h-3l-6-5.76Zm1.53-.4H85.09l1.37-5.81h0l-5.91,1.08v-2.17l5.91,1.09h0l-1.37-5.82h2.74l-1.37,5.82,5.91-1.09v2.17l-5.91-1.08,1.37,5.81ZM87,213l1.28-5.43,6.08-5.81,4.43,0V206l-6.29,6Zm7.36-11.71-6.08-5.8L87,190l5.51,1,6.28,6v4.26Zm-1.58-10.51v-1.95L99,182.89l6.2,5.91v2L99,196.69Zm6.41,11,4.43,0,6.08,5.81L111,213l-5.5-1-6.29-6ZM111,214l-1.28,5.43-6.08,5.81-4.43,0V221l6.28-6Zm-1,5.72h2.52l6,5.75-6,5.76H110l-6-5.76Zm.15-.4,1.11-4.71,1.11,4.71Zm1.11-5.77-.26,0,0,.09-5.42,1v-2.17l5.42,1,0,.1.26,0,.26,0,0-.1,5.4-1v2.15l-5.41-1,0-.09Zm.26-.54,1.28-5.43,6.08-5.81,4.43,0V206L117,212Zm7.36-11.71-6.08-5.8L111.48,190l5.5,1,6.29,6v4.26Zm-1.58-10.51v-1.95l6.21-5.92,6.19,5.91,0,2-6.21,5.93Zm6.41,11,4.43,0,6.08,5.81,1.28,5.43L130,212l-6.28-6ZM135.46,214l-1.28,5.43-6.08,5.81-4.43,0V221l6.28-6Zm-1,5.72h3.05l6,5.75-6,5.76h-3l-6-5.76Zm1.53-.4h-1.37l1.37-5.81-5.91,1.08v-2.17l5.91,1.09-1.37-5.82h2.74L136,213.48l5.91-1.09v2.17L136,213.48l1.37,5.81Zm.52-6.31,1.28-5.43,6.08-5.81,4.43,0V206L142,212Zm7.36-11.71-6.08-5.8L136.5,190l5.5,1,6.29,6v4.26Zm-1.58-10.51v-1.95l6.21-5.92,6.19,5.91,0,2-6.21,5.93Zm6.41,11,4.43,0,6.08,5.81,1.28,5.43-5.5-1-6.29-6ZM160.48,214l-1.28,5.43-6.08,5.81-4.43,0V221l6.28-6Zm-1,5.72H162l6,5.75-6,5.76h-2.52l-6-5.76Zm.15-.4,1.11-4.71,1.11,4.71Zm1.11-5.77-.26,0,0,.09-5.42,1v-1.08h0v-1.08l5.43,1,0,.1.26,0,.26,0,0-.1,5.39-1v2.15l-5.41-1,0-.09ZM161,213l1.28-5.43,6.08-5.81,4.43,0V206l-6.29,6Zm7.36-11.71-6.08-5.8L161,190l5.5,1,6.29,6v4.26Zm-1.58-10.51v-1.95l6.21-5.92,6.19,5.91,0,2L173,196.69Zm6.4,11,4.44,0,6.08,5.81L185,213l-5.51-1-6.29-6ZM185,214l-1.28,5.43-6.08,5.81-4.44,0V221l6.29-6Zm-1,5.72H187l6,5.75-6,5.76h-3l-6-5.76Zm1.53-.4h-1.37l1.37-5.81-5.91,1.08v-2.17l5.91,1.09-1.37-5.82h2.74l-1.37,5.82,5.91-1.09v2.16l-5.91-1.07,1.37,5.81ZM186,213l1.28-5.43,6.08-5.81,4.43,0V206l-6.29,6Zm7.36-11.71-6.08-5.8L186,190l5.5,1,6.29,6v4.26Zm-1.58-10.51v-1.94l6.21-5.93,6.19,5.91,0,2L198,196.69Zm6.41,11,4.43,0,6.08,5.81L210,213l-5.51-1-6.28-6ZM210,214l-1.28,5.43-6.08,5.81-4.43,0V221l6.28-6Zm-1,5.72h2.52l6,5.75-6,5.76H209l-6-5.76Zm.15-.4,1.11-4.71,1.11,4.71Zm1.11-5.77-.26,0,0,.09-5.42,1v-2.17l5.43,1,0,.1.26,0,.26,0,0-.1,5.39-1v2.15l-5.41-1,0-.09Zm.26-.54,1.28-5.43,6.08-5.81,4.43,0V206L216,212Zm7.36-11.71-6.08-5.8L210.52,190l5.5,1,6.29,6v4.26Zm-1.58-10.51v-1.94l6.21-5.93,6.19,5.91,0,2-6.21,5.93Zm6.4,11,4.44,0,6.08,5.81L234.5,213,229,212l-6.29-6ZM234.5,214l-1.28,5.43-6.08,5.81-4.44,0V221l6.29-6Zm-1,5.72h3l6,5.75-6,5.76h-3l-6-5.76Zm1.53-.4h-1.37l1.37-5.81-5.91,1.08v-2.17l5.91,1.09-1.37-5.82h2.73L235,213.48l5.91-1.09v2.17L235,213.48l1.37,5.81Zm0-12H233.5l-6-5.76,6-5.76h3l6,5.76-6,5.76Zm0-23.44h-1.53l-6-5.76,6-5.76h3l6,5.76-6,5.76Zm0-11.91h-1.37L235,166.1l-5.91,1.08V165L235,166.1l-1.37-5.81h2.73L235,166.1l5.91-1.08v2.16L235,166.1l1.36,5.82Zm0-12h-1.53l-6-5.76,6-5.75h3l6,5.75-6,5.76Zm0-23.44H233.5l-6-5.76,6-5.75h3l6,5.75-6,5.76Zm0-11.91h-1.37l1.37-5.81-5.91,1.08v-2.17l5.91,1.09-1.37-5.82h2.73L235,118.73l5.91-1.09v2.17L235,118.73l1.37,5.81Zm0-12H233.5l-6-5.76,6-5.76h3l6,5.76-6,5.76Zm0-23.44h-1.53l-6-5.76,6-5.76h3l6,5.76-6,5.76Zm0-11.92h-1.37L235,71.35l-5.91,1.08V70.27L235,71.35l-1.37-5.81h2.73L235,71.35l5.91-1.08v2.16L235,71.35l1.36,5.81Zm0-12h-1.53l-6-5.76,6-5.75h3l6,5.75-6,5.76Zm0-23.44H233.5l-6-5.76,6-5.75h3l6,5.75-6,5.76Zm0-11.91h-1.37L235,24l-5.91,1.08V22.89L235,24l-1.37-5.81h2.73L235,24l5.91-1.08v2.17L235,24l1.37,5.81Zm-.52-5.32-1.28,5.43-6.08,5.81-4.44,0V31.48l6.29-6Zm-7.36,11.71,6.08,5.8,1.28,5.43-5.51-1-6.29-6V36.14Zm1.56,10.5,0,2-6.21,5.92-6.21-5.92v-2l6.21-5.93Zm-6.39-10.94-4.43,0L211.8,29.9l-1.28-5.43,5.5,1,6.29,6ZM210.52,23.48l1.28-5.43,6.08-5.81,4.43,0v4.26l-6.29,6Zm1-5.68,0,.06-1.18,5-1.17-5v-.06L203,12l6-5.74h2.56l6,5.74Zm-1.22,6.13.26,0,0-.09,5.39-1v2.16l-5.41-1,0-.09-.26,0L210,24l0,.09-5.42,1V22.89l5.43,1,0,.09Zm-.26.54-1.28,5.43-6.08,5.81-4.43,0V31.48l6.28-6Zm-7.36,11.71,6.08,5.8L210,47.41l-5.51-1-6.28-6V36.14Zm1.56,10.5,0,2L198,54.56l-6.21-5.92v-2L198,40.76Zm-6.39-10.94-4.43,0L187.3,29.9,186,24.47l5.5,1,6.29,6ZM186,23.48l1.28-5.43,6.08-5.81,4.43,0v4.26l-6.29,6Zm-.52.49,5.91-1.08v2.17L185.5,24l1.37,5.81h-2.74L185.5,24l-5.91,1.08V22.89L185.5,24l-1.37-5.81h2.74Zm-.52.5L183.7,29.9l-6.08,5.81-4.44,0V31.48l6.29-6Zm-7.36,11.71L183.7,42,185,47.41l-5.51-1-6.29-6V36.14Zm1.56,10.5,0,2L173,54.56l-6.21-5.92v-2L173,40.76Zm-6.39-10.94-4.43,0-6.08-5.81L161,24.47l5.5,1,6.29,6ZM161,23.48l1.28-5.43,6.08-5.81,4.43,0v4.26l-6.29,6Zm1-5.68,0,.06-1.18,5-1.17-5v-.06L153.44,12l6-5.74H162L168,12Zm-1.22,6.13.26,0,0-.09,5.39-1v2.16l-5.41-1,0-.09-.26,0-.26,0,0,.09-5.42,1V24h0V22.89l5.43,1,0,.09Zm-.26.54L159.2,29.9l-6.08,5.81-4.43,0V31.48l6.29-6Zm-7.36,11.71L159.2,42l1.28,5.43-5.5-1-6.29-6V36.14Zm1.56,10.5,0,2-6.21,5.92-6.21-5.92v-2l6.21-5.93Zm-6.39-10.94-4.43,0-6.08-5.81-1.28-5.43,5.5,1,6.29,6ZM136.5,23.48l1.28-5.43,6.08-5.81,4.43,0v4.26l-6.29,6ZM136,24l5.91-1.08v2.17L136,24l1.37,5.81h-2.74L136,24l-5.91,1.08V22.89L136,24l-1.37-5.81h2.74Zm-.52.5-1.28,5.43-6.08,5.81-4.43,0V31.48l6.28-6ZM128.1,36.18l6.08,5.8,1.28,5.43-5.51-1-6.28-6V36.14Zm1.56,10.5,0,2-6.21,5.92-6.21-5.92v-2l6.21-5.93Zm-6.39-10.94-4.43,0-6.08-5.81-1.28-5.43,5.5,1,6.29,6ZM111.48,23.48l1.28-5.43,6.08-5.81,4.43,0v4.26l-6.29,6Zm1-5.68,0,.06-1.18,5-1.17-5v-.05L103.93,12l6-5.74h2.56l6,5.74Zm-1.22,6.13.26,0,0-.09,5.4-1v2.16l-5.41-1,0-.09-.26,0L111,24l0,.09-5.42,1V22.89l5.42,1,0,.09Zm-.26.54-1.28,5.43-6.08,5.81-4.43,0V31.48l6.29-6ZM103.6,36.18l6.08,5.8L111,47.41l-5.5-1-6.29-6V36.14Zm1.57,10.5v2L99,54.56l-6.21-5.92v-2L99,40.76Zm-6.4-10.94-4.43,0L88.26,29.9,87,24.47l5.5,1,6.29,6ZM87,23.48l1.28-5.43,6.08-5.81,4.43,0v4.26l-6.29,6Zm-1,1L84.66,29.9l-6.08,5.81-4.43,0V31.48l6.29-6ZM78.58,36.18,84.66,42l1.28,5.43-5.5-1-6.29-6V36.14Zm1.56,10.5,0,2L74,54.56l-6.21-5.92v-2L74,40.76ZM73.75,35.74l-4.43,0L63.24,29.9,62,24.47l5.5,1,6.29,6ZM62,23.48l1.28-5.43,6.08-5.81,4.43,0v4.26l-6.29,6Zm1-5.68,0,.06-1.18,5-1.17-5v-.06L54.41,12l6-5.74H63L69,12ZM61.7,23.93,62,24l0-.09,5.4-1v2.16l-5.41-1L62,24l-.26,0-.26,0,0,.09-5.42,1V22.89l5.42,1,0,.09Zm-.26.54L60.16,29.9l-6.08,5.81-4.43,0V31.48l6.29-6ZM54.08,36.18,60.16,42l1.28,5.43-5.5-1-6.29-6V36.14Zm1.57,10.5v2l-6.21,5.92-6.21-5.92v-2l6.21-5.93Zm-6.4-10.94-4.43,0L38.74,29.9l-1.28-5.43,5.51,1,6.28,6ZM37.46,23.48l1.28-5.43,6.08-5.81,4.43,0v4.26l-6.28,6Zm-.52.49,5.91-1.08v2.17L36.94,24l1.37,5.81H35.57L36.94,24,31,25.06V22.89L36.94,24l-1.37-5.81h2.74Zm-.52.5L35.14,29.9l-6.08,5.81-4.43,0V31.48l6.29-6ZM29.06,36.18,35.14,42l1.28,5.43-5.5-1-6.29-6V36.14Zm1.57,10.5v2l-6.21,5.92-6.21-5.92v-2l6.21-5.93Zm-6.4-10.94-4.43,0L13.72,29.9l-1.28-5.43,5.5,1,6.29,6ZM12.44,23.48l1.28-5.43,6.08-5.81,4.43,0v4.26l-6.29,6Zm1-5.68-.05.06-1.18,5-1.17-5v-.05L4.89,12l6-5.74h2.56l6,5.74Zm-1.23,6.13.26,0,0-.09,5.4-1v2.16l-5.41-1,0-.09-.26,0-.26,0,0,.09-5.42,1V22.89l5.42,1,0,.09Zm0,1.15,1.11,4.71H11.07Zm1.26,5.1,6,5.76-6,5.76H10.92l-6-5.76,6-5.76ZM13.29,42.1l-1.11,4.7-1.11-4.7Zm0,11.15H11.07l1.11-4.73Zm.17.39,6,5.74-6.06,5.8-.05.06-1.18,5-1.17-5v-.06L4.89,59.38l6-5.74ZM12.18,71.3l.26,0,0-.09,5.4-1v2.16l-5.41-1,0-.09-.26.05-.26-.05,0,.09-5.42,1V70.26l5.42,1,0,.09Zm0,1.16,1.11,4.7H11.07Zm1.26,5.1,6,5.76-6,5.76H10.92l-6-5.76,6-5.76Zm-.15,11.91-1.11,4.71-1.11-4.71ZM12.18,95.9l1.11,4.72H11.07ZM13.46,101l6,5.74-6.06,5.79-.05.06-1.18,5-1.17-5v0l-6.11-5.83,6-5.74Zm-1.28,17.66.26,0,0-.1,5.4-1v2.16l-5.41-1,0-.09-.26,0-.26,0,0,.09-5.42,1v-2.17l5.42,1,0,.1Zm0,1.15,1.11,4.71H11.07Zm1.26,5.11,6,5.75-6,5.76H10.92l-6-5.76,6-5.75Zm-.15,11.91-1.11,4.7-1.11-4.7Zm0,11.15H11.07l1.11-4.73Zm.17.39,6,5.74-6.06,5.8-.05.06-1.18,5L11,160V160l-6.11-5.84,6-5.74Zm-1.28,17.66.26,0,0-.09,5.4-1v2.16l-5.41-1,0-.09-.26.05-.26-.05,0,.09-5.42,1V165l5.42,1,0,.09Zm0,1.16,1.11,4.71H11.07Zm1.26,5.1,6,5.76-6,5.76H10.92l-6-5.76,6-5.76Zm-.15,11.91-1.11,4.71-1.11-4.71Zm-1.11,6.43,1.11,4.72H11.07Zm1.28,5.12,6,5.74-6.06,5.79-.05.06-1.18,5-1.17-5v0l-6.11-5.83,6-5.74Zm-1.28,17.66.26,0,0-.1,5.4-1v2.15l-5.41-1,0-.09-.26,0-.26,0,0,.09-5.42,1v-2.17l5.42,1,0,.1Zm0,1.15,1.11,4.71H11.07Zm1.26,5.11,6,5.75-6,5.76H10.92l-6-5.76,6-5.75Zm-.15,11.91-1.11,4.7-1.11-4.7Zm6.51-6.39-6.08-5.81L12.44,214,18,215l6.28,6v4.26Zm-1.57-10.5v-2.47l6.2-5.91,6.12,5.83v2.62l-6.12,5.84Zm26.59,10.5-6.08-5.81L37.46,214,43,215l6.28,6v4.26Zm-1.55-10.48v-2.5l6.18-5.9,6.2,5.91v2.47l-6.2,5.91ZM60.59,231.6h2.22l-1.11,4.7Zm8.73-6.39-6.08-5.81L62,214l5.5,1,6.29,6v4.26Zm-1.57-10.5v-2.47l6.2-5.91,6.11,5.83v2.62L74,220.62Zm26.59,10.5-6.08-5.81L87,214l5.51,1,6.28,6v4.26Zm-1.55-10.48v-2.5l6.18-5.9,6.2,5.91v2.47L99,220.62Zm17.32,16.87h2.22l-1.11,4.7Zm8.73-6.39-6.08-5.81L111.48,214l5.5,1,6.29,6v4.26Zm-1.57-10.5v-2.47l6.2-5.91,6.11,5.83v2.62l-6.12,5.84Zm26.59,10.5-6.08-5.81L136.5,214l5.5,1,6.29,6v4.26Zm-1.55-10.48v-2.5l6.18-5.9,6.2,5.91v1.24h0v1.23l-6.2,5.91Zm17.32,16.87h2.22l-1.11,4.7Zm8.73-6.39-6.08-5.81L161,214l5.5,1,6.29,6v4.26Zm-1.57-10.5v-2.47l6.2-5.91,6.11,5.83v2.62L173,220.62Zm26.59,10.5-6.08-5.81L186,214l5.5,1,6.29,6v4.26Zm-1.55-10.48v-2.5l6.18-5.9,6.19,5.91v2.47l-6.2,5.91Zm17.32,16.87h2.21l-1.1,4.7Zm8.73-6.39-6.08-5.81L210.52,214l5.5,1,6.29,6v4.26Zm-1.57-10.5v-2.47l6.2-5.91,6.11,5.83v2.62l-6.12,5.84Zm26.59,10.5-6.08-5.81L235.54,214l5.5,1,6.29,6v4.26ZM241,212l-5.5,1,1.28-5.43,6.08-5.81,4.43,0V206Zm1.86-10.7-6.08-5.8L235.54,190l5.5,1,6.29,6v4.26Zm-6.53-11.48,4.55-.84v1.67Zm-.83-.25,1.28-5.43,6.08-5.81,4.43,0v4.26l-6.29,6Zm7.36-11.71-6.08-5.8-1.28-5.43,5.5,1,6.29,6v4.26Zm-7.36-12.23,1.28-5.43,6.08-5.8,4.43,0v4.26l-6.29,6Zm7.36-11.7-6.08-5.81-1.28-5.43,5.5,1,6.29,6v4.26Zm-6.53-11.49,4.55-.83v1.67Zm-.83-.25,1.28-5.43,6.08-5.8,4.43,0v4.27l-6.29,6Zm7.36-11.7-6.08-5.81-1.28-5.43,5.5,1,6.29,6v4.26Zm-7.36-12.23,1.28-5.43L242.9,107l4.43,0v4.26l-6.29,6Zm7.36-11.71-6.08-5.8-1.28-5.43,5.5,1,6.29,6v4.26ZM236.37,95l4.55-.84v1.67Zm-.83-.25,1.28-5.43,6.08-5.81,4.43,0v4.26l-6.29,6Zm7.36-11.71-6.08-5.8-1.28-5.43,5.5,1,6.29,6v4.26Zm-7.36-12.23,1.28-5.43,6.08-5.8,4.43,0v4.26l-6.29,6Zm7.36-11.7-6.08-5.81-1.28-5.43,5.5,1,6.29,6v4.26Zm-6.53-11.49,4.55-.83V48.5Zm-.83-.25L236.82,42l6.08-5.8,4.43,0V40.4l-6.29,6Zm7.36-11.7-6.08-5.81-1.28-5.43,5.5,1,6.29,6v4.26Zm-7.36-12.23,1.28-5.43,6.08-5.81,4.43,0v4.26l-6.29,6ZM235,6.25h1.52l6,5.76-6,5.76h-3l-6-5.76,6-5.76ZM222.7,7.55l6.29-6,5.51-1L233.22,6l-6.08,5.8-4.44,0Zm0,4.66,4.44,0,6.08,5.81,1.28,5.43-5.51-1-6.29-6Zm5.92,10.45v2.62l-6.12,5.84-6.2-5.91V22.74l6.2-5.91ZM216,1.54l6.29,6v4.26l-4.43,0L211.8,6,210.52.54Zm-5.76-.39,1.11,4.72h-2.22Zm-12,6.4,6.28-6,5.51-1L208.72,6l-6.08,5.8-4.43,0Zm0,4.66,4.43,0,6.08,5.81L210,23.48l-5.51-1-6.28-6Zm6,10.53v2.47L198,31.12l-6.18-5.89v-2.5l6.18-5.9ZM186,.54l5.5,1,6.29,6v4.26l-4.43,0L187.3,6Zm-.52,5.71H187l6,5.76-6,5.76h-3l-6-5.76,6-5.76Zm-12.32,1.3,6.29-6,5.51-1L183.7,6l-6.08,5.8-4.44,0Zm0,4.66,4.44,0,6.08,5.81L185,23.48l-5.51-1-6.29-6Zm5.92,10.45v2.62L173,31.12l-6.2-5.91V22.74l6.2-5.91ZM166.5,1.54l6.29,6v4.26l-4.43,0L162.28,6,161,.54Zm-5.76-.39,1.11,4.72h-2.22Zm-12.05,6.4,6.28-6,5.51-1L159.2,6l-6.08,5.8-4.43,0Zm0,4.66,4.43,0,6.08,5.81,1.28,5.43-5.5-1-6.29-6Zm6,10.53V24h0v1.23l-6.2,5.91-6.18-5.89v-2.5l6.18-5.9ZM136.5.54l5.5,1,6.29,6v4.26l-4.43,0L137.78,6ZM136,6.25h1.52l6,5.76-6,5.76h-3l-6-5.76,6-5.76Zm-12.31,1.3,6.28-6,5.51-1L134.18,6l-6.08,5.8-4.43,0Zm0,4.66,4.43,0,6.08,5.81,1.28,5.43-5.51-1-6.28-6Zm5.91,10.45v2.62l-6.12,5.84-6.2-5.91V22.74l6.2-5.91ZM117,1.54l6.29,6v4.26l-4.43,0L112.76,6,111.48.54Zm-5.76-.39,1.11,4.72h-2.22Zm-12,6.4,6.28-6,5.51-1L109.68,6l-6.08,5.8-4.43,0Zm0,4.66,4.43,0,6.08,5.81L111,23.48l-5.5-1-6.29-6Zm6,10.53v2.47L99,31.12l-6.18-5.89v-2.5L99,16.83ZM87,.54l5.51,1,6.28,6v4.26l-4.43,0L88.26,6Zm-.52,5.71H88L94,12l-6,5.76h-3L78.9,12l6-5.76ZM74.15,7.55l6.28-6,5.51-1L84.66,6l-6.08,5.8-4.43,0Zm0,4.66,4.43,0,6.08,5.81,1.28,5.43-5.5-1-6.29-6Zm5.91,10.45v2.62L74,31.12l-6.2-5.91V22.74L74,16.83ZM67.46,1.54l6.29,6v4.26l-4.43,0L63.24,6,62,.54ZM61.7,1.15l1.11,4.72H60.59ZM49.65,7.55l6.28-6,5.51-1L60.16,6l-6.08,5.8-4.43,0Zm0,4.66,4.43,0,6.08,5.81,1.28,5.43-5.5-1-6.29-6Zm6,10.53v2.47l-6.2,5.91-6.18-5.89v-2.5l6.18-5.9ZM37.46.54l5.51,1,6.28,6v4.26l-4.43,0L38.74,6Zm-.52,5.71h1.53l6,5.76-6,5.76h-3l-6-5.76,6-5.76ZM24.63,7.55l6.29-6,5.5-1L35.14,6l-6.08,5.8-4.43,0Zm0,4.66,4.43,0,6.08,5.81,1.28,5.43-5.5-1-6.29-6Zm5.92,10.45v2.62l-6.12,5.84-6.2-5.91V22.74l6.2-5.91ZM18,1.54l6.28,6v4.26l-4.43,0L13.72,6,12.44.54Zm-5.77-.39,1.11,4.72H11.07Zm-12,6.4,6.29-6,5.5-1L10.64,6l-6.08,5.8-4.43,0Zm0,8.92V12.21l4.43,0,6.08,5.81,1.28,5.43-5.5-1Zm0,15,6.29-6,5.5-1L10.64,29.9,4.56,35.71l-4.43,0Zm0,8.92V36.14l4.43,0L10.64,42l1.28,5.43-5.5-1Zm11,7.26-4.56.84V46.83ZM6.34,46.57v0h0v0ZM.13,54.92l6.29-6,5.5-1-1.28,5.43L4.56,59.15l-4.43,0Zm0,8.92V59.58l4.43,0,6.08,5.8,1.28,5.43-5.5-1Zm0,15,6.29-6,5.5-1-1.28,5.43-6.08,5.8-4.43,0Zm0,8.92V83.52l4.43,0,6.08,5.81,1.28,5.43-5.5-1Zm11,7.26-4.56.83V94.2Zm-11,7.26,6.29-6,5.5-1-1.28,5.43-6.08,5.8-4.43,0Zm0,8.92V107l4.43,0,6.08,5.81,1.28,5.43-5.5-1Zm0,15,6.29-6,5.5-1-1.28,5.43-6.08,5.81-4.43,0Zm0,8.92v-4.26l4.43,0,6.08,5.8,1.28,5.43-5.5-1Zm11,7.26-4.56.84v-1.67Zm-4.75-1.09v0h0v0ZM.13,149.67l6.29-6,5.5-1-1.28,5.43L4.56,153.9l-4.43,0Zm0,8.92v-4.26l4.43,0,6.08,5.8,1.28,5.43-5.5-1Zm0,15,6.29-6,5.5-1L10.64,172l-6.08,5.8-4.43,0Zm0,8.92v-4.26l4.43,0,6.08,5.81,1.28,5.43-5.5-1Zm11,7.26-4.56.83V189Zm-11,7.26,6.29-6,5.5-1-1.28,5.43-6.08,5.8-4.43,0Zm0,8.92v-4.26l4.43,0,6.08,5.81L11.92,213l-5.5-1Zm0,15,6.29-6,5.5-1-1.28,5.43-6.08,5.81-4.43,0Zm0,8.92v-4.26l4.43,0,6.08,5.8,1.28,5.44-5.5-1Zm11,7.26L6.53,238v-1.67Zm-4.75-1.09v0h0v0Zm4.3,6.77-6.08,5.81-4.43,0v-4.26l6.29-6,5.5-1Zm.43-.09L12.18,238l1.11,4.73Zm13.16,5.93-4.43,0-6.08-5.81-1.28-5.43,5.5,1,6.29,6Zm.2-4.62-6.21-5.92v-1.95l6.21-5.93,6.2,5.92v2Zm.2,4.62v-4.26l6.29-6,5.5-1-1.28,5.43-6.08,5.81Zm13.83,6h-3l-6-5.76,6-5.75h3l6,5.75Zm10.79-6-4.43,0-6.08-5.81-1.28-5.43,5.51,1,6.28,6Zm.2-4.62-6.21-5.92v-1.95l6.21-5.93,6.2,5.92v2Zm10.71-1.22-6.08,5.81-4.43,0v-4.26l6.29-6,5.5-1Zm.43-.09L61.7,238l1.11,4.73Zm13.16,5.93-4.43,0-6.08-5.81L62,237.41l5.5,1,6.29,6Zm.2-4.62-6.21-5.92v-1.95L74,230.26l6.19,5.92,0,2Zm.2,4.62v-4.26l6.29-6,5.5-1-1.28,5.43-6.08,5.81Zm13.83,6h-3l-6-5.76,6-5.75h3l6,5.75Zm10.79-6-4.43,0-6.08-5.81L87,237.41l5.5,1,6.29,6Zm.2-4.62-6.21-5.92v-1.95L99,230.26l6.2,5.92v2Zm10.71-1.22-6.08,5.81-4.43,0v-4.26l6.29-6,5.5-1Zm.43-.09,1.11-4.73,1.11,4.73Zm13.16,5.93-4.43,0-6.08-5.81-1.28-5.43,5.5,1,6.29,6Zm.2-4.62-6.21-5.92v-1.95l6.21-5.93,6.19,5.92,0,2Zm.2,4.62v-4.26l6.28-6,5.51-1-1.28,5.43-6.08,5.81Zm13.83,6h-3l-6-5.76,6-5.75h3.05l6,5.75Zm10.79-6-4.43,0-6.08-5.81-1.28-5.43,5.5,1,6.29,6Zm.2-4.62-6.21-5.92v-1.95l6.21-5.93,6.19,5.92,0,2Zm10.71-1.22-6.08,5.81-4.43,0v-4.26l6.29-6,5.5-1Zm.43-.09,1.11-4.73,1.11,4.73Zm13.16,5.93-4.43,0-6.08-5.81L161,237.41l5.5,1,6.29,6Zm.2-4.62-6.21-5.92v-1.95l6.21-5.93,6.19,5.92,0,2Zm.19,4.62v-4.26l6.29-6,5.51-1-1.28,5.43-6.08,5.81Zm13.84,6H184l-6-5.76,6-5.75H187l6,5.75Zm10.79-6-4.43,0-6.08-5.81L186,237.41l5.5,1,6.29,6Zm.2-4.62-6.21-5.92v-1.95l6.21-5.93,6.19,5.92,0,2Zm10.71-1.22-6.08,5.81-4.43,0v-4.26l6.28-6,5.51-1Zm.43-.09,1.11-4.73,1.11,4.73Zm13.16,5.93-4.43,0-6.08-5.81-1.28-5.43,5.5,1,6.29,6Zm.2-4.62-6.21-5.92v-1.95l6.21-5.93,6.19,5.92,0,2Zm.19,4.62v-4.26l6.29-6,5.51-1-1.28,5.43-6.08,5.81Zm13.84,6h-3l-6-5.76,6-5.75h3l6,5.75Zm10.79-6-4.43,0-6.08-5.81-1.28-5.43,5.5,1,6.29,6Zm6.61-12.61h0v0h0Zm-.22.11,0,2-6.21,5.92-6.21-5.92v-1.95l6.21-5.93Zm0-23.94v2.47l-6.2,5.91-6.18-5.89v-2.5l6.18-5.9Zm0-23.44,0,2-6.21,5.93-6.21-5.93v-1.95l6.21-5.92Zm0-23.93v2.46l-6.2,5.92-6.18-5.9v-2.5l6.18-5.9Zm.22-23.55h0v0h0Zm-.22.11,0,2-6.21,5.92-6.21-5.92v-1.95l6.21-5.93Zm0-23.94V120l-6.2,5.91L241.35,120v-2.5l6.18-5.9Zm0-23.44,0,2-6.21,5.93L241.32,96v-2l6.21-5.92Zm0-23.94v2.47l-6.2,5.92-6.18-5.9V70.1l6.18-5.9Zm.22-23.54h0v0h0Zm-.22.11,0,2-6.21,5.92-6.21-5.92v-2l6.21-5.93Zm0-23.94v2.47l-6.2,5.91-6.18-5.89v-2.5l6.18-5.9Z"/></g></svg>